<svg width="40" height="40" viewBox="0 0 40 40" fill="none" xmlns="http://www.w3.org/2000/svg">
<path d="M8.15039 5.35156C8.42653 5.35156 8.65039 5.1277 8.65039 4.85156C8.65039 4.57542 8.42653 4.35156 8.15039 4.35156C7.87425 4.35156 7.65039 4.57542 7.65039 4.85156C7.65039 5.1277 7.87425 5.35156 8.15039 5.35156Z" fill="#ECECFE"/>
<path d="M33.5 6.85156C33.7761 6.85156 34 6.6277 34 6.35156C34 6.07542 33.7761 5.85156 33.5 5.85156C33.2239 5.85156 33 6.07542 33 6.35156C33 6.6277 33.2239 6.85156 33.5 6.85156Z" fill="#ECECFE"/>
<path d="M32.5 37.2031C32.7761 37.2031 33 36.9793 33 36.7031C33 36.427 32.7761 36.2031 32.5 36.2031C32.2239 36.2031 32 36.427 32 36.7031C32 36.9793 32.2239 37.2031 32.5 37.2031Z" fill="#ECECFE"/>
<path d="M11.5996 38.4531C11.8758 38.4531 12.0996 38.2293 12.0996 37.9531C12.0996 37.677 11.8758 37.4531 11.5996 37.4531C11.3235 37.4531 11.0996 37.677 11.0996 37.9531C11.0996 38.2293 11.3235 38.4531 11.5996 38.4531Z" fill="#ECECFE"/>
<path fill-rule="evenodd" clip-rule="evenodd" d="M30.5 20.5C30.5 20.2239 30.7239 20 31 20H33C33.2761 20 33.5 20.2239 33.5 20.5C33.5 20.7761 33.2761 21 33 21H31C30.7239 21 30.5 20.7761 30.5 20.5Z" fill="#18753C"/>
<path fill-rule="evenodd" clip-rule="evenodd" d="M25.5 20.5C25.5 20.2239 25.7239 20 26 20H28C28.2761 20 28.5 20.2239 28.5 20.5C28.5 20.7761 28.2761 21 28 21H26C25.7239 21 25.5 20.7761 25.5 20.5Z" fill="#18753C"/>
<path fill-rule="evenodd" clip-rule="evenodd" d="M30.5 23C30.5 22.7239 30.7239 22.5 31 22.5H33C33.2761 22.5 33.5 22.7239 33.5 23C33.5 23.2761 33.2761 23.5 33 23.5H31C30.7239 23.5 30.5 23.2761 30.5 23Z" fill="#18753C"/>
<path fill-rule="evenodd" clip-rule="evenodd" d="M25.5 23C25.5 22.7239 25.7239 22.5 26 22.5H28C28.2761 22.5 28.5 22.7239 28.5 23C28.5 23.2761 28.2761 23.5 28 23.5H26C25.7239 23.5 25.5 23.2761 25.5 23Z" fill="#18753C"/>
<path fill-rule="evenodd" clip-rule="evenodd" d="M12.5 17C12.5 16.7239 12.7239 16.5 13 16.5H15C15.2761 16.5 15.5 16.7239 15.5 17C15.5 17.2761 15.2761 17.5 15 17.5H13C12.7239 17.5 12.5 17.2761 12.5 17Z" fill="#18753C"/>
<path fill-rule="evenodd" clip-rule="evenodd" d="M7 17C7 16.7239 7.22386 16.5 7.5 16.5H9.5C9.77614 16.5 10 16.7239 10 17C10 17.2761 9.77614 17.5 9.5 17.5H7.5C7.22386 17.5 7 17.2761 7 17Z" fill="#18753C"/>
<path fill-rule="evenodd" clip-rule="evenodd" d="M12.5 19.5C12.5 19.2239 12.7239 19 13 19H15C15.2761 19 15.5 19.2239 15.5 19.5C15.5 19.7761 15.2761 20 15 20H13C12.7239 20 12.5 19.7761 12.5 19.5Z" fill="#18753C"/>
<path fill-rule="evenodd" clip-rule="evenodd" d="M7 19.5C7 19.2239 7.22386 19 7.5 19H9.5C9.77614 19 10 19.2239 10 19.5C10 19.7761 9.77614 20 9.5 20H7.5C7.22386 20 7 19.7761 7 19.5Z" fill="#18753C"/>
<path fill-rule="evenodd" clip-rule="evenodd" d="M18 17C18 16.7239 18.2239 16.5 18.5 16.5H20.5C20.7761 16.5 21 16.7239 21 17C21 17.2761 20.7761 17.5 20.5 17.5H18.5C18.2239 17.5 18 17.2761 18 17Z" fill="#18753C"/>
<path fill-rule="evenodd" clip-rule="evenodd" d="M18 19.5C18 19.2239 18.2239 19 18.5 19H20.5C20.7761 19 21 19.2239 21 19.5C21 19.7761 20.7761 20 20.5 20H18.5C18.2239 20 18 19.7761 18 19.5Z" fill="#18753C"/>
<path fill-rule="evenodd" clip-rule="evenodd" d="M26 26.5074V29.4904C26 29.4904 26 29.4904 26 29.4904C26.0009 29.4925 26.0024 29.4949 26.0041 29.4967C26.0056 29.4983 26.0064 29.4986 26.0066 29.4987C26.0067 29.4988 26.0073 29.499 26.0086 29.4993C26.0098 29.4995 26.0126 29.5 26.0172 29.5H27.9683C27.9701 29.499 27.9724 29.4976 27.975 29.4958C27.9794 29.4927 27.9841 29.4889 27.9886 29.4845C27.9931 29.4801 27.9968 29.4757 27.9996 29.4718C27.9997 29.4716 27.9999 29.4714 28 29.4713V26.5096C28 26.5096 28 26.5096 28 26.5096C27.9991 26.5075 27.9976 26.5051 27.9959 26.5033C27.9944 26.5017 27.9936 26.5014 27.9934 26.5013C27.9933 26.5012 27.9927 26.501 27.9914 26.5007C27.9902 26.5005 27.9874 26.5 27.9828 26.5H26.0172C26.0173 26.5 26.0173 26.5 26.0172 26.5C26.0169 26.5 26.0141 26.5002 26.0096 26.502C26.0055 26.5036 26.0022 26.5057 26 26.5074ZM28.0004 26.5107C28.0004 26.5108 28.0004 26.5107 28.0004 26.5107ZM27.9633 29.5024C27.9631 29.5024 27.9633 29.5024 27.9633 29.5024ZM25 26.5063C25 25.8848 25.5259 25.5 26.0172 25.5H27.9828C28.5914 25.5 29 25.9998 29 26.5063V29.4937C29 29.7867 28.8557 30.0351 28.6881 30.1991C28.5199 30.3637 28.271 30.5 27.9828 30.5H26.0172C25.4086 30.5 25 30.0002 25 29.4937V26.5063Z" fill="#18753C"/>
<path fill-rule="evenodd" clip-rule="evenodd" d="M31 26.5071V29.4906C31 29.4907 31 29.4905 31 29.4906C31.0009 29.4928 31.0025 29.4954 31.0042 29.4971C31.0049 29.4979 31.0055 29.4984 31.0058 29.4986L31.0063 29.4989C31.0063 29.4989 31.0068 29.4991 31.0079 29.4993C31.009 29.4996 31.0116 29.5 31.0161 29.5H32.9773C32.9827 29.5 32.9881 29.4994 32.9934 29.4981C32.9934 29.4966 32.9934 29.4951 32.9934 29.4937V26.5094C32.9934 26.5093 32.9934 26.5095 32.9934 26.5094C32.9925 26.5072 32.9909 26.5046 32.9892 26.5029C32.9885 26.5021 32.9879 26.5016 32.9876 26.5014L32.9871 26.5011C32.9871 26.5011 32.9866 26.5009 32.9855 26.5007C32.9844 26.5004 32.9818 26.5 32.9773 26.5H31.0161C31.0162 26.5 31.0161 26.5 31.0161 26.5C31.0161 26.5 31.0136 26.5001 31.0092 26.5018C31.0053 26.5034 31.0021 26.5054 31 26.5071ZM32.9937 26.5104C32.9937 26.5105 32.9937 26.5104 32.9937 26.5104ZM30 26.5063C30 25.8858 30.5243 25.5 31.0161 25.5H32.9773C33.5863 25.5 33.9934 26.0008 33.9934 26.5063V29.4542C34.0332 29.7603 33.8962 30.0268 33.721 30.1987C33.533 30.3831 33.2662 30.5 32.9773 30.5H31.0161C30.4071 30.5 30 29.9992 30 29.4937V26.5063Z" fill="#18753C"/>
<path d="M21.3123 6.39045C21.528 6.21795 21.5629 5.9033 21.3904 5.68767C21.2179 5.47204 20.9033 5.43708 20.6876 5.60958L13.1876 11.6096C12.972 11.7821 12.937 12.0967 13.1096 12.3124C13.2821 12.528 13.5967 12.563 13.8123 12.3905L21.3123 6.39045Z" fill="#000091"/>
<path d="M23.9933 6.91806C23.9774 6.82147 23.9338 6.73421 23.8709 6.66471C23.7831 6.56767 23.6578 6.50523 23.5178 6.50033C23.4795 6.49894 23.441 6.50194 23.4031 6.5094C23.3692 6.51607 23.3365 6.52616 23.3054 6.53931C23.2617 6.55777 23.2213 6.58224 23.185 6.6117L18.1876 10.6096C17.972 10.7821 17.937 11.0967 18.1096 11.3124C18.2821 11.528 18.5967 11.563 18.8123 11.3905L23 8.04032V33.5H6.5C6.22386 33.5 6 33.7239 6 34C6 34.2762 6.22386 34.5 6.5 34.5H23.5C23.7761 34.5 24 34.2762 24 34" fill="#000091"/>
<path d="M29 14.5C28.7239 14.5 28.5 14.7239 28.5 15C28.5 15.2762 28.7239 15.5 29 15.5H33C33.2761 15.5 33.5 15.2762 33.5 15C33.5 14.7239 33.2761 14.5 33 14.5H29Z" fill="#000091"/>
<path d="M25 17C25 16.7239 25.2239 16.5 25.5 16.5H35.5C35.7761 16.5 36 16.7239 36 17V34C36 34.2762 35.7761 34.5 35.5 34.5H25.5C25.2239 34.5 25 34.2762 25 34C25 33.7239 25.2239 33.5 25.5 33.5H35V17.5H25.5C25.2239 17.5 25 17.2762 25 17Z" fill="#000091"/>
<path d="M5 34.05C5 34.3262 4.77614 34.55 4.5 34.55C4.22386 34.55 4 34.3262 4 34.05C4 33.7739 4.22386 33.55 4.5 33.55C4.77614 33.55 5 33.7739 5 34.05Z" fill="#000091"/>
<path fill-rule="evenodd" clip-rule="evenodd" d="M8 32C8 31.7239 8.22386 31.5 8.5 31.5H10V24C10 23.7239 10.2239 23.5 10.5 23.5H17.5C17.7761 23.5 18 23.7239 18 24V31.5H19.5C19.7761 31.5 20 31.7239 20 32C20 32.2762 19.7761 32.5 19.5 32.5H8.5C8.22386 32.5 8 32.2762 8 32ZM14.5 31.5V27C14.5 26.7239 14.2761 26.5 14 26.5C13.7239 26.5 13.5 26.7239 13.5 27V31.5H11V24.5H17V31.5H14.5Z" fill="#000091"/>
<path d="M11 22C11 21.7239 11.2239 21.5 11.5 21.5H16.5C16.7761 21.5 17 21.7239 17 22C17 22.2762 16.7761 22.5 16.5 22.5H11.5C11.2239 22.5 11 22.2762 11 22Z" fill="#000091"/>
<path d="M16.8841 12.4299C17.0609 12.6421 17.0322 12.9573 16.8201 13.1341L15.3201 14.3841C15.2302 14.459 15.117 14.5 15 14.5H5V32C5 32.2762 4.77614 32.5 4.5 32.5C4.22386 32.5 4 32.2762 4 32V14C4 13.7239 4.22386 13.5 4.5 13.5H14.819L16.1799 12.3659C16.392 12.1891 16.7073 12.2178 16.8841 12.4299Z" fill="#000091"/>
</svg>
