<svg width="41" height="41" viewBox="0 0 41 41" fill="none" xmlns="http://www.w3.org/2000/svg">
<path fill-rule="evenodd" clip-rule="evenodd" d="M8.5 4C8.2243 4 8 3.7757 8 3.5C8 3.22428 8.2243 3 8.5 3C8.7757 3 9 3.22428 9 3.5C9 3.7757 8.7757 4 8.5 4Z" fill="#ECECFE"/>
<path fill-rule="evenodd" clip-rule="evenodd" d="M10.5 38C10.2243 38 10 37.7757 10 37.5C10 37.2243 10.2243 37 10.5 37C10.7757 37 11 37.2243 11 37.5C11 37.7757 10.7757 38 10.5 38Z" fill="#ECECFE"/>
<path fill-rule="evenodd" clip-rule="evenodd" d="M31.5 37C31.2243 37 31 36.7757 31 36.5C31 36.2243 31.2243 36 31.5 36C31.7757 36 32 36.2243 32 36.5C32 36.7757 31.7757 37 31.5 37Z" fill="#ECECFE"/>
<path fill-rule="evenodd" clip-rule="evenodd" d="M32.5 5C32.2243 5 32 4.7757 32 4.5C32 4.22428 32.2243 4 32.5 4C32.7757 4 33 4.22428 33 4.5C33 4.7757 32.7757 5 32.5 5Z" fill="#ECECFE"/>
<path fill-rule="evenodd" clip-rule="evenodd" d="M20.5 40C20.2243 40 20 39.7757 20 39.5C20 39.2243 20.2243 39 20.5 39C20.7757 39 21 39.2243 21 39.5C21 39.7757 20.7757 40 20.5 40Z" fill="#ECECFE"/>
<path d="M24.9106 20.4488C24.8756 20.4488 24.8406 20.4488 24.8006 20.4438C24.3756 20.3988 24.0306 20.0988 23.9306 19.6788C23.7806 19.0438 23.4556 18.4638 22.9956 18.0038C22.5356 17.5438 21.9556 17.2188 21.3206 17.0688C21.0506 17.0038 20.8856 16.7338 20.9506 16.4638C21.0156 16.1938 21.2856 16.0288 21.5556 16.0938C22.3706 16.2888 23.1106 16.7038 23.7056 17.2988C24.3006 17.8938 24.7156 18.6338 24.9106 19.4488L27.9206 13.0838L23.8356 15.0188C23.5856 15.1388 23.2906 15.0288 23.1706 14.7788C23.0506 14.5288 23.1606 14.2288 23.4106 14.1138L28.7606 11.5788C28.9506 11.4888 29.1806 11.5288 29.3256 11.6788C29.4756 11.8288 29.5156 12.0538 29.4256 12.2488L25.8106 19.8788C25.6406 20.2288 25.2956 20.4438 24.9106 20.4488Z" fill="#18753C"/>
<path d="M20.5256 31.9988C19.9256 31.9988 19.3256 31.9538 18.7206 31.8588C18.4456 31.8138 18.2606 31.5588 18.3056 31.2888C18.3506 31.0138 18.6056 30.8338 18.8756 30.8738C21.6456 31.3088 24.4206 30.6388 26.6856 28.9838C26.9106 28.8188 27.2206 28.8688 27.3856 29.0938C27.5506 29.3188 27.5006 29.6288 27.2756 29.7938C25.2856 31.2438 22.9406 31.9988 20.5256 31.9988Z" fill="#18753C"/>
<path d="M20.5 35C12.505 35 6 28.495 6 20.5C6 12.505 12.505 6 20.5 6C28.495 6 35 12.505 35 20.5C35 23.12 34.29 25.69 32.955 27.93C32.815 28.165 32.505 28.245 32.27 28.105C32.035 27.965 31.955 27.655 32.095 27.42C33.34 25.335 34 22.94 34 20.5C34 13.055 27.945 7 20.5 7C13.055 7 7 13.055 7 20.5C7 27.945 13.055 34 20.5 34C24.105 34 27.495 32.595 30.045 30.045C30.24 29.85 30.555 29.85 30.75 30.045C30.945 30.24 30.945 30.555 30.75 30.75C28.015 33.49 24.375 35 20.5 35Z" fill="#000091"/>
<path d="M4.5 20.9989C4.225 20.9989 4 20.7739 4 20.4989C4 17.6839 4.72 14.9039 6.09 12.4589C6.225 12.2189 6.53 12.1339 6.77 12.2639C7.01 12.3989 7.095 12.7039 6.965 12.9439C5.68 15.2439 5 17.8539 5 20.4989C5 20.7739 4.775 20.9989 4.5 20.9989Z" fill="#000091"/>
<path d="M20.5007 23.0288C19.1057 23.0288 17.9707 21.8938 17.9707 20.4988C17.9707 19.1038 19.1057 17.9688 20.5007 17.9688C21.8957 17.9688 23.0307 19.1038 23.0307 20.4988C23.0307 21.8938 21.8957 23.0288 20.5007 23.0288ZM20.5007 18.9688C19.6557 18.9688 18.9707 19.6538 18.9707 20.4988C18.9707 21.3438 19.6557 22.0288 20.5007 22.0288C21.3457 22.0288 22.0307 21.3438 22.0307 20.4988C22.0307 19.6538 21.3457 18.9688 20.5007 18.9688Z" fill="#000091"/>
<path d="M12.0299 29.4694C11.8999 29.4694 11.7699 29.4194 11.6749 29.3244C11.5249 29.1744 11.4849 28.9494 11.5749 28.7594L15.1899 21.1294C15.3749 20.7394 15.7699 20.5194 16.1949 20.5644C16.6199 20.6094 16.9649 20.9094 17.0649 21.3294C17.2149 21.9644 17.5399 22.5444 17.9999 23.0044C18.4599 23.4644 19.0399 23.7894 19.6749 23.9394C19.9449 24.0044 20.1099 24.2744 20.0449 24.5444C19.9799 24.8144 19.7099 24.9794 19.4399 24.9144C18.6249 24.7194 17.8849 24.3044 17.2899 23.7094C16.6949 23.1144 16.2799 22.3744 16.0899 21.5594L13.0799 27.9244L17.3999 25.8794C17.6499 25.7644 17.9499 25.8694 18.0649 26.1194C18.1849 26.3694 18.0749 26.6644 17.8249 26.7844L12.2399 29.4294C12.1799 29.4494 12.1049 29.4694 12.0299 29.4694Z" fill="#000091"/>
</svg>
