<svg width="41" height="41" viewBox="0 0 41 41" fill="none" xmlns="http://www.w3.org/2000/svg">
<path fill-rule="evenodd" clip-rule="evenodd" d="M35.5 35C35.2243 35 35 34.7757 35 34.5C35 34.2243 35.2243 34 35.5 34C35.7757 34 36 34.2243 36 34.5C36 34.7757 35.7757 35 35.5 35Z" fill="#ECECFE"/>
<path fill-rule="evenodd" clip-rule="evenodd" d="M34.5 7C34.2243 7 34 6.7757 34 6.5C34 6.22428 34.2243 6 34.5 6C34.7757 6 35 6.22428 35 6.5C35 6.7757 34.7757 7 34.5 7Z" fill="#ECECFE"/>
<path fill-rule="evenodd" clip-rule="evenodd" d="M7.5 35C7.2243 35 7 34.7757 7 34.5C7 34.2243 7.2243 34 7.5 34C7.7757 34 8 34.2243 8 34.5C8 34.7757 7.7757 35 7.5 35Z" fill="#ECECFE"/>
<path fill-rule="evenodd" clip-rule="evenodd" d="M5.5 9C5.2243 9 5 8.7757 5 8.5C5 8.22428 5.2243 8 5.5 8C5.7757 8 6 8.22428 6 8.5C6 8.7757 5.7757 9 5.5 9Z" fill="#ECECFE"/>
<path fill-rule="evenodd" clip-rule="evenodd" d="M8.5 17C8.5 16.1716 9.17157 15.5 10 15.5C10.8284 15.5 11.5 16.1716 11.5 17C11.5 17.8284 10.8284 18.5 10 18.5C9.17157 18.5 8.5 17.8284 8.5 17ZM10.5 17C10.5 16.7239 10.2761 16.5 10 16.5C9.72386 16.5 9.5 16.7239 9.5 17C9.5 17.2761 9.72386 17.5 10 17.5C10.2761 17.5 10.5 17.2761 10.5 17Z" fill="#18753C"/>
<path d="M10 17.5C10.2564 17.5 10.4678 17.693 10.4966 17.9417L10.5 18V20C10.5 20.2761 10.2761 20.5 10 20.5C9.74358 20.5 9.53225 20.307 9.50336 20.0583L9.5 20V18C9.5 17.7239 9.72386 17.5 10 17.5Z" fill="#18753C"/>
<path fill-rule="evenodd" clip-rule="evenodd" d="M19.5 15C19.5 14.1716 20.1716 13.5 21 13.5C21.8284 13.5 22.5 14.1716 22.5 15C22.5 15.8284 21.8284 16.5 21 16.5C20.1716 16.5 19.5 15.8284 19.5 15ZM21.5 15C21.5 14.7239 21.2761 14.5 21 14.5C20.7239 14.5 20.5 14.7239 20.5 15C20.5 15.2761 20.7239 15.5 21 15.5C21.2761 15.5 21.5 15.2761 21.5 15Z" fill="#18753C"/>
<path d="M21 15.5C21.2564 15.5 21.4678 15.693 21.4966 15.9417L21.5 16V18C21.5 18.2761 21.2761 18.5 21 18.5C20.7436 18.5 20.5322 18.307 20.5034 18.0583L20.5 18V16C20.5 15.7239 20.7239 15.5 21 15.5Z" fill="#18753C"/>
<path fill-rule="evenodd" clip-rule="evenodd" d="M28.5 9C28.5 8.17157 29.1716 7.5 30 7.5C30.8284 7.5 31.5 8.17157 31.5 9C31.5 9.82843 30.8284 10.5 30 10.5C29.1716 10.5 28.5 9.82843 28.5 9ZM30.5 9C30.5 8.72386 30.2761 8.5 30 8.5C29.7239 8.5 29.5 8.72386 29.5 9C29.5 9.27614 29.7239 9.5 30 9.5C30.2761 9.5 30.5 9.27614 30.5 9Z" fill="#18753C"/>
<path d="M30 9.5C30.2564 9.5 30.4678 9.69302 30.4966 9.94169L30.5 10V12C30.5 12.2761 30.2761 12.5 30 12.5C29.7436 12.5 29.5322 12.307 29.5034 12.0583L29.5 12V10C29.5 9.72386 29.7239 9.5 30 9.5Z" fill="#18753C"/>
<path fill-rule="evenodd" clip-rule="evenodd" d="M24.5 20C24.5 19.1716 25.1716 18.5 26 18.5C26.8284 18.5 27.5 19.1716 27.5 20C27.5 20.8284 26.8284 21.5 26 21.5C25.1716 21.5 24.5 20.8284 24.5 20ZM26.5 20C26.5 19.7239 26.2761 19.5 26 19.5C25.7239 19.5 25.5 19.7239 25.5 20C25.5 20.2761 25.7239 20.5 26 20.5C26.2761 20.5 26.5 20.2761 26.5 20Z" fill="#18753C"/>
<path d="M26 20.5C26.2564 20.5 26.4678 20.693 26.4966 20.9417L26.5 21V23C26.5 23.2761 26.2761 23.5 26 23.5C25.7436 23.5 25.5322 23.307 25.5034 23.0583L25.5 23V21C25.5 20.7239 25.7239 20.5 26 20.5Z" fill="#18753C"/>
<path fill-rule="evenodd" clip-rule="evenodd" d="M17.5 25C17.5 24.1716 18.1716 23.5 19 23.5C19.8284 23.5 20.5 24.1716 20.5 25C20.5 25.8284 19.8284 26.5 19 26.5C18.1716 26.5 17.5 25.8284 17.5 25ZM19.5 25C19.5 24.7239 19.2761 24.5 19 24.5C18.7239 24.5 18.5 24.7239 18.5 25C18.5 25.2761 18.7239 25.5 19 25.5C19.2761 25.5 19.5 25.2761 19.5 25Z" fill="#18753C"/>
<path d="M19 25.5C19.2564 25.5 19.4678 25.693 19.4966 25.9417L19.5 26V28C19.5 28.2761 19.2761 28.5 19 28.5C18.7436 28.5 18.5322 28.307 18.5034 28.0583L18.5 28V26C18.5 25.7239 18.7239 25.5 19 25.5Z" fill="#18753C"/>
<path fill-rule="evenodd" clip-rule="evenodd" d="M25.5 30C25.5 29.1716 26.1716 28.5 27 28.5C27.8284 28.5 28.5 29.1716 28.5 30C28.5 30.8284 27.8284 31.5 27 31.5C26.1716 31.5 25.5 30.8284 25.5 30ZM27.5 30C27.5 29.7239 27.2761 29.5 27 29.5C26.7239 29.5 26.5 29.7239 26.5 30C26.5 30.2761 26.7239 30.5 27 30.5C27.2761 30.5 27.5 30.2761 27.5 30Z" fill="#18753C"/>
<path d="M27 30.5C27.2564 30.5 27.4678 30.693 27.4966 30.9417L27.5 31V33C27.5 33.2761 27.2761 33.5 27 33.5C26.7436 33.5 26.5322 33.307 26.5034 33.0583L26.5 33V31C26.5 30.7239 26.7239 30.5 27 30.5Z" fill="#18753C"/>
<path fill-rule="evenodd" clip-rule="evenodd" d="M32.0206 12.5004L33.3543 12.5549C33.4398 12.5584 33.523 12.5838 33.5959 12.6286C34.2394 13.0245 34.4833 13.8305 34.1701 14.4992L34.1281 14.5821L33.7347 15.3005L33.7212 15.445C33.7134 15.5235 33.7 15.5991 33.6801 15.6746L33.6453 15.7881L33.3592 16.5835L33.3826 17.9535C33.3912 18.3742 33.2169 18.7731 32.9051 19.0588L32.8308 19.1227L32.2495 19.5898C32.1591 19.6622 32.0604 19.724 31.9556 19.7742L31.8962 19.8L31.3587 20.468L31.3939 20.4986C31.5587 20.6514 31.6888 20.8408 31.7705 21.056L31.8025 21.1497L31.8822 21.413L31.9816 21.5354L32.3088 22.0053C32.5668 22.3798 32.6312 22.8412 32.5046 23.2579L32.4757 23.3405L32.6387 23.5281C32.863 23.7895 32.9884 24.1147 32.9956 24.4545L32.9942 24.5568L32.9664 25.0696C32.9525 25.3046 32.8814 25.5299 32.7637 25.7287L32.7337 25.775L32.7737 25.8417C32.8963 26.0635 32.9595 26.3146 32.9543 26.5724L32.9497 26.652L33.0247 26.6599C33.489 26.7224 33.9113 26.9931 34.149 27.417L34.1914 27.4982L34.3592 27.849C34.5818 28.3174 34.5376 28.8609 34.2578 29.2753L34.2497 29.286L34.2493 29.3487C34.2326 29.7312 34.0635 30.095 33.7726 30.3625L33.6974 30.4274L32.671 31.2481L32.6219 31.2828L32.3917 31.4245L32.3868 31.4576C32.3717 31.5332 32.3506 31.6075 32.3236 31.6797L32.2789 31.7864C32.1268 32.1159 31.8512 32.38 31.5129 32.527L31.4191 32.5641L30.5107 32.8872C30.4274 32.9149 30.3539 32.9346 30.2814 32.9481L30.2089 32.9597L29.5361 33.0521C29.3459 33.0785 29.1482 33.0689 28.9612 33.0239C28.6928 32.9592 28.5276 32.6891 28.5923 32.4207C28.6523 32.1714 28.8895 32.0111 29.138 32.0413L29.1955 32.0517C29.2388 32.0621 29.2852 32.0672 29.3312 32.0666L29.3995 32.0615L30.0755 31.9686C30.097 31.9658 30.1189 31.9612 30.1443 31.9542L30.1853 31.9416L31.0827 31.6224C31.2128 31.5757 31.3187 31.4804 31.372 31.365C31.3954 31.315 31.4094 31.2617 31.4137 31.2078L31.4147 31.1538C31.4079 30.9933 31.4786 30.8406 31.6023 30.7419L31.6511 30.7075L32.0722 30.4465L33.0711 29.6478C33.1902 29.5517 33.2535 29.416 33.2505 29.2766L33.2451 29.2167C33.2276 29.1071 33.2472 28.9955 33.2998 28.899L33.3352 28.8432L33.4016 28.7528C33.4964 28.6318 33.5239 28.479 33.4798 28.3387L33.4566 28.2794L33.2901 27.9316C33.1872 27.7186 32.94 27.6055 32.6975 27.6588L32.6371 27.6756L32.5085 27.7196C32.3819 27.763 32.2442 27.7535 32.1258 27.6952L32.0683 27.662L31.9473 27.581C31.7156 27.4258 31.6583 27.1146 31.8091 26.8887L31.8446 26.8417C31.9074 26.7678 31.9446 26.679 31.9528 26.5834C31.9635 26.461 31.9254 26.3429 31.8451 26.2484L31.8014 26.2032L31.7293 26.137C31.5131 25.9388 31.5157 25.6025 31.7223 25.4065L31.7696 25.3668C31.8702 25.2923 31.9382 25.1847 31.9606 25.0705L31.968 25.013L31.9955 24.5054C32.0002 24.4083 31.9732 24.3124 31.9182 24.2296L31.8818 24.1816L31.4969 23.7386C31.3562 23.5766 31.3359 23.3453 31.44 23.163L31.475 23.1099C31.581 22.9691 31.5962 22.7841 31.5197 22.6306L31.4867 22.5747L31.1855 22.1392L31.0467 21.971C31.0187 21.9369 30.9953 21.8995 30.9772 21.8595L30.954 21.7978L30.8456 21.4401C30.8015 21.2951 30.6862 21.1782 30.5348 21.1232L30.4765 21.1056C30.1404 21.0236 29.9925 20.638 30.1706 20.3551L30.2054 20.3063L31.2024 19.0675C31.2525 19.0052 31.3166 18.9561 31.3892 18.9239L31.4451 18.903C31.4896 18.8893 31.5317 18.8705 31.5697 18.8475L31.6237 18.8098L32.2041 18.3435C32.3055 18.2618 32.3665 18.1521 32.38 18.0327L32.3828 17.9723L32.358 16.5097C32.3574 16.4694 32.3615 16.4292 32.3705 16.3901L32.3874 16.3322L32.7026 15.4545L32.7174 15.4026L32.7258 15.3492L32.7485 15.1058C32.7527 15.0606 32.7631 15.0162 32.7792 14.974L32.8077 14.9123L33.251 14.1018C33.3398 13.9397 33.3173 13.7427 33.2042 13.5981L33.1582 13.5475L31.9798 13.4996C31.7236 13.4891 31.5203 13.2876 31.5016 13.038L31.5006 12.9796C31.5111 12.7234 31.7126 12.5201 31.9622 12.5014L32.0206 12.5004Z" fill="#000091"/>
<path fill-rule="evenodd" clip-rule="evenodd" d="M20.9636 6.54361C21.5467 6.40349 22.1611 6.60766 22.5281 7.06077L22.5869 7.13858L22.7482 7.366L22.8362 7.37409C23.3936 7.44099 23.8693 7.80148 24.0682 8.32105L24.0742 8.34C24.2381 8.41085 24.3842 8.50629 24.5106 8.6242L24.5292 8.643L24.556 8.65105C24.5886 8.66185 24.6208 8.67372 24.6524 8.68664L24.7457 8.72846L25.1577 8.9266C25.2875 8.99018 25.4062 9.07014 25.511 9.1641L25.5412 9.1935L25.5754 9.18575C25.9843 9.08684 26.4234 9.16514 26.7765 9.39564L26.8629 9.45642C27.1251 9.65562 27.3098 9.92799 27.3954 10.2331L27.4212 10.342L27.781 10.5863C27.8341 10.6223 27.8796 10.6682 27.9152 10.7211L27.9474 10.7764L28.4474 11.7764C28.5709 12.0234 28.4708 12.3237 28.2238 12.4472C27.9944 12.5619 27.7191 12.4838 27.5821 12.2743L27.553 12.2236L27.1112 11.34L26.6686 11.0399C26.5487 10.9585 26.4708 10.8297 26.4532 10.6878L26.4453 10.5648C26.4289 10.4435 26.3641 10.3333 26.2588 10.2533C26.15 10.171 26.009 10.1328 25.8731 10.1472L25.8059 10.1588L25.4696 10.2368C25.282 10.2802 25.0882 10.212 24.969 10.0655L24.9321 10.0138C24.893 9.95095 24.8386 9.89664 24.7726 9.85501L24.721 9.82623L24.3089 9.62802C24.2794 9.61357 24.2495 9.60208 24.2189 9.59343L24.1725 9.58258C24.0751 9.56446 23.9858 9.51792 23.9154 9.44946L23.8755 9.40581C23.8167 9.33323 23.737 9.27758 23.646 9.24539L23.5758 9.22573C23.4188 9.19293 23.2884 9.08722 23.2229 8.94336L23.2015 8.8877L23.1449 8.70948C23.0865 8.52224 22.9187 8.38896 22.711 8.36628L22.6476 8.36285H22.4873C22.3455 8.36285 22.2113 8.30265 22.1172 8.19898L22.0794 8.15193L21.7703 7.71572C21.663 7.56358 21.4644 7.48027 21.2676 7.50311L21.2022 7.51471L19.56 7.92711C19.4281 7.96033 19.3193 8.03788 19.2511 8.14344L19.2204 8.19848L18.8609 8.95801C18.8368 9.00998 18.8226 9.06645 18.8189 9.12294L18.8188 9.17928L18.8849 10.173C18.8937 10.3057 18.8493 10.4355 18.7631 10.5344L18.7166 10.5812L18.2529 10.9901C18.2192 11.0198 18.1817 11.0448 18.1414 11.0644L18.0792 11.0897L16.3493 11.6616C16.1755 11.7186 16.0513 11.8543 16.0147 12.0154L16.0052 12.0768L15.9956 12.1881C15.9718 12.4636 15.7306 12.6636 15.4619 12.644L15.404 12.6364L14.4931 12.4631C14.412 12.4476 14.3362 12.4124 14.2724 12.3609L14.2269 12.3192L13.5261 11.5936C13.4349 11.4997 13.3036 11.4404 13.1768 11.4338L13.114 11.4349L12.2984 11.4749C12.138 11.4836 11.9959 11.5576 11.9053 11.6772C11.8309 11.7745 11.7988 11.8918 11.8124 12.0081L11.823 12.066L12.0827 13.0865L12.4284 13.8847C12.5788 14.2323 12.3041 14.6066 11.9391 14.5826L11.8837 14.5759L11.6119 14.5286C11.534 14.5143 11.4533 14.5173 11.3761 14.5371L11.319 14.5551L11.2414 14.5845C11.0794 14.6459 10.8988 14.6187 10.763 14.5161L10.7142 14.4741L10.3445 14.1118C10.2541 14.0232 10.1272 13.97 9.98982 13.9629L9.92038 13.9632L7.92105 14.1364C7.88077 14.1397 7.84167 14.1473 7.8021 14.1598L7.74218 14.1824L6.29312 14.8342C6.07289 14.9334 5.96276 15.1537 6.01183 15.367L6.02744 15.4201L6.24831 16.0327C6.27559 16.108 6.3252 16.1782 6.39256 16.2354L6.44633 16.2758C6.6003 16.3777 6.68417 16.555 6.66849 16.7358L6.65954 16.7961C6.63557 16.9096 6.65551 17.0283 6.72265 17.138L6.76023 17.2018L6.82887 17.3083C6.83954 17.3238 6.8498 17.3383 6.85964 17.3517L6.91328 17.4201L6.95539 17.4661L6.98477 17.4919C6.9923 17.4974 6.9975 17.5 7.00018 17.5C7.27632 17.5 7.50018 17.7239 7.50018 18C7.50018 18.2761 7.27632 18.5 7.00018 18.5C6.53602 18.5 6.16885 18.1834 5.86272 17.6482C5.74617 17.4585 5.67655 17.2458 5.65604 17.0276L5.64968 16.909L5.64571 16.9053C5.52099 16.7787 5.41971 16.6318 5.34756 16.4708L5.30781 16.3725L5.08658 15.7589C4.83617 15.0626 5.14565 14.3055 5.79914 13.9629L5.8826 13.9223L7.33801 13.2677C7.4708 13.2101 7.60299 13.1715 7.73708 13.1515L7.83804 13.1399L9.84656 12.966C10.2648 12.9403 10.6662 13.0694 10.9706 13.33L11.0446 13.3978L11.1887 13.5395L11.1496 13.4477L11.1239 13.3726L10.8535 12.311C10.7451 11.8787 10.8394 11.425 11.1096 11.0715C11.3576 10.7443 11.7301 10.5348 12.143 10.4852L12.247 10.4762L13.0422 10.4378C13.4393 10.4 13.8598 10.548 14.1695 10.8259L14.2445 10.898L14.8357 11.51L15.1132 11.563L15.1289 11.5247C15.2844 11.1753 15.5746 10.8935 15.943 10.7458L16.0367 10.7117L17.6677 10.1725L17.8702 9.9935L17.8209 9.24326C17.808 9.03524 17.8398 8.82702 17.9144 8.63087L17.9553 8.53387L18.3167 7.77037C18.4943 7.39569 18.8195 7.11466 19.2157 6.9862L19.3161 6.9573L20.9636 6.54361Z" fill="#000091"/>
<path fill-rule="evenodd" clip-rule="evenodd" d="M10.6961 21.6031C10.9153 21.4352 11.2292 21.4767 11.3971 21.696L11.3492 21.6313L11.4461 21.6712L11.6451 21.7432L12.1798 21.9215L12.2665 21.9537C12.2788 21.9587 12.2903 21.9635 12.3012 21.9684L12.7997 22.2141C12.9254 22.2762 13.0183 22.3878 13.0576 22.5205L13.071 22.5786C13.0766 22.6113 13.0859 22.6435 13.0989 22.6747L13.121 22.7206C13.2224 22.9046 13.1972 23.1299 13.0636 23.2864L13.0203 23.3312C12.9136 23.4287 12.8556 23.5597 12.8575 23.6932C12.8583 23.7504 12.8707 23.808 12.8936 23.8622L12.92 23.9151C12.9759 24.0116 12.9976 24.1234 12.9828 24.2327L12.962 24.3303L12.9568 24.3644L12.6535 26.9164C12.6466 26.973 12.65 27.0285 12.6635 27.0818L12.6803 27.1342C12.7228 27.2432 12.7257 27.3635 12.6886 27.4744L12.6787 27.5075L12.6716 27.5386L12.3051 29.4698C12.2929 29.5338 12.2684 29.5946 12.2331 29.6489L12.1943 29.701L11.5338 30.4755C11.4406 30.5851 11.4038 30.7252 11.4305 30.8616C11.4546 30.9801 11.5249 31.0855 11.6288 31.1585L11.6836 31.1922L12.108 31.4176C12.1731 31.4522 12.2295 31.5006 12.2735 31.5592L12.304 31.605L12.5069 31.9485C12.5498 32.0215 12.6143 32.0845 12.6908 32.1285L12.7503 32.1578L13.7429 32.5691C13.7845 32.5864 13.8235 32.6091 13.8589 32.6367L13.9091 32.6816L14.2065 32.9859C14.2894 33.0709 14.4046 33.1261 14.5275 33.1402L14.5895 33.1437H15.0297C15.0946 33.1437 15.1588 33.1564 15.2186 33.1808L15.2768 33.209L15.5722 33.377C15.6139 33.401 15.6574 33.419 15.7032 33.4311L15.7737 33.4448L17.5106 33.6706C17.6634 33.6918 17.8173 33.6474 17.9315 33.5507L17.9624 33.5224L17.9895 33.493C18.0949 33.3688 18.2531 33.3047 18.413 33.3182L18.4729 33.3269L18.641 33.362L18.7224 33.3863L19.1242 33.5448C19.2443 33.5921 19.3407 33.6838 19.3943 33.7995L19.4175 33.8593C19.4519 33.9681 19.5278 34.0641 19.6297 34.1271L19.6828 34.1557L20.1688 34.3833C20.2501 34.4205 20.3447 34.4371 20.437 34.4314L20.5056 34.4228L20.9216 34.3409C20.9615 34.3331 21.0021 34.3301 21.0425 34.3321L21.1029 34.3387L21.9729 34.4905L22.0812 34.5C22.1133 34.5 22.1453 34.4973 22.1753 34.4922L22.2186 34.4829L23.3107 34.203C23.4457 34.1675 23.5607 34.0816 23.6251 33.9711C23.6784 33.8811 23.6989 33.7744 23.6843 33.6727L23.6712 33.6124L23.4059 32.7129C23.3757 32.6104 23.3792 32.5016 23.415 32.4021L23.4404 32.3437L23.7132 31.8104C23.839 31.5645 24.1403 31.4672 24.3861 31.593C24.6144 31.7098 24.7146 31.9779 24.627 32.2124L24.6035 32.2659L24.4212 32.621L24.6308 33.331C24.734 33.6848 24.698 34.0653 24.5349 34.3905L24.4873 34.4777C24.3058 34.789 24.0087 35.0253 23.6589 35.142L23.5622 35.1709L22.473 35.4499C22.3752 35.4763 22.269 35.4925 22.1426 35.4972L22.0438 35.4986L21.8508 35.4819L21.0247 35.3395L20.6955 35.4046C20.4125 35.4583 20.1178 35.4334 19.8485 35.3323L19.7487 35.2908L19.2592 35.0616C18.9737 34.9282 18.7393 34.7103 18.5874 34.443L18.5642 34.399L18.5012 34.374C18.2054 34.5933 17.8407 34.6986 17.4765 34.6721L17.3772 34.6616L15.6456 34.4366C15.4834 34.4158 15.3275 34.3699 15.1823 34.3009L15.0755 34.2449L14.8977 34.1435L14.5895 34.1437C14.2103 34.1437 13.8432 34.0039 13.5646 33.755L13.4909 33.6844L13.2657 33.4535L12.3674 33.0815C12.0989 32.9702 11.8669 32.7831 11.7034 32.5471L11.6454 32.4564L11.5142 32.2345L11.2126 32.0743C10.8475 31.8784 10.5819 31.5489 10.4736 31.1566L10.4499 31.0573C10.3704 30.6521 10.4648 30.2381 10.7084 29.9079L10.7724 29.8271L11.3467 29.153L11.6889 27.3538L11.6947 27.3275L11.6881 27.3026C11.6571 27.1706 11.6449 27.0348 11.6518 26.8989L11.6606 26.797L11.9652 24.234L11.9615 24.2249C11.9089 24.0933 11.8756 23.9547 11.8631 23.8137L11.8576 23.7076C11.8538 23.4477 11.9201 23.1947 12.0452 22.9713L12.0517 22.9595L11.8894 22.8795L11.319 22.6885L11.0743 22.6007C10.8222 22.5056 10.7066 22.439 10.6032 22.3041C10.4353 22.0848 10.4769 21.771 10.6961 21.6031Z" fill="#000091"/>
<path fill-rule="evenodd" clip-rule="evenodd" d="M18.0002 18.5C18.2763 18.5 18.5002 18.7239 18.5002 19C18.5002 19.2564 18.3072 19.4678 18.0585 19.4966L18.0002 19.5H17.0002C16.724 19.5 16.5002 19.2761 16.5002 19C16.5002 18.7436 16.6932 18.5323 16.9419 18.5034L17.0002 18.5H18.0002Z" fill="#000091"/>
<path fill-rule="evenodd" clip-rule="evenodd" d="M28.0002 15.5C28.2763 15.5 28.5002 15.7239 28.5002 16C28.5002 16.2564 28.3072 16.4678 28.0585 16.4966L28.0002 16.5H27.0002C26.724 16.5 26.5002 16.2761 26.5002 16C26.5002 15.7436 26.6932 15.5323 26.9419 15.5034L27.0002 15.5H28.0002Z" fill="#000091"/>
<path fill-rule="evenodd" clip-rule="evenodd" d="M25.0002 25.5C25.2763 25.5 25.5002 25.7239 25.5002 26C25.5002 26.2564 25.3072 26.4678 25.0585 26.4966L25.0002 26.5H24.0002C23.724 26.5 23.5002 26.2761 23.5002 26C23.5002 25.7436 23.6932 25.5323 23.9419 25.5034L24.0002 25.5H25.0002Z" fill="#000091"/>
</svg>
