<svg width="41" height="41" viewBox="0 0 41 41" fill="none" xmlns="http://www.w3.org/2000/svg">
<path fill-rule="evenodd" clip-rule="evenodd" d="M28.5 39C28.2243 39 28 38.7757 28 38.5C28 38.2243 28.2243 38 28.5 38C28.7757 38 29 38.2243 29 38.5C29 38.7757 28.7757 39 28.5 39Z" fill="#ECECFE"/>
<path fill-rule="evenodd" clip-rule="evenodd" d="M4.5 33C4.2243 33 4 32.7757 4 32.5C4 32.2243 4.2243 32 4.5 32C4.7757 32 5 32.2243 5 32.5C5 32.7757 4.7757 33 4.5 33Z" fill="#ECECFE"/>
<path fill-rule="evenodd" clip-rule="evenodd" d="M38.5 29.5C38.2243 29.5 38 29.2757 38 29C38 28.7243 38.2243 28.5 38.5 28.5C38.7757 28.5 39 28.7243 39 29C39 29.2757 38.7757 29.5 38.5 29.5Z" fill="#ECECFE"/>
<path fill-rule="evenodd" clip-rule="evenodd" d="M33 5.5C32.7243 5.5 32.5 5.2757 32.5 5C32.5 4.72428 32.7243 4.5 33 4.5C33.2757 4.5 33.5 4.72428 33.5 5C33.5 5.2757 33.2757 5.5 33 5.5Z" fill="#ECECFE"/>
<path fill-rule="evenodd" clip-rule="evenodd" d="M12.5 2.5C12.2243 2.5 12 2.2757 12 2C12 1.72428 12.2243 1.5 12.5 1.5C12.7757 1.5 13 1.72428 13 2C13 2.2757 12.7757 2.5 12.5 2.5Z" fill="#ECECFE"/>
<path d="M19.0478 8.33942C19.2562 8.90869 19.0648 9.57717 18.6877 9.89359C18.5271 10.0283 18.3855 10.1079 18.1444 10.1812L17.9869 10.2248C17.9584 10.2321 17.9286 10.2394 17.8975 10.2468L17.6936 10.2925L16.7319 10.4891L16.611 10.5149L16.6785 10.5502L16.8012 10.6167L17.0354 10.7485C17.2745 10.8866 17.3564 11.1924 17.2184 11.4315C17.0803 11.6707 16.7745 11.7526 16.5354 11.6145L16.4286 11.5537L16.2056 11.4313L15.4387 11.0302L15.0957 10.8474C15.039 10.8167 14.9823 10.7859 14.9251 10.7545L14.5729 10.5587L14.1896 10.3399C13.9505 10.2018 13.8685 9.896 14.0066 9.65686C14.1447 9.41771 14.4505 9.33577 14.6896 9.47385L15.063 9.68699C15.1221 9.72031 15.1799 9.75268 15.2368 9.78435L15.3043 9.82132C15.3549 9.78582 15.413 9.75918 15.4769 9.74417L15.7503 9.68074L16.2722 9.56461L16.6568 9.48328L17.4476 9.32247L17.6709 9.27291L17.7818 9.24474L17.868 9.2189C17.8806 9.21471 17.8923 9.21057 17.9033 9.20644L17.9615 9.18159L18.0071 9.15574L18.0449 9.12755C18.1048 9.07731 18.1698 8.85013 18.1087 8.68318C18.0058 8.40213 17.5998 8.16099 16.7438 8.0643L15.0521 7.89064L14.1198 7.79835L13.0803 7.69979L12.0177 7.60617L11.5382 7.56806L11.4605 7.56934L11.4024 7.57514L11.3035 7.59207L11.2285 7.60933L11.1452 7.63174L11.0025 7.67574L10.7746 7.75551L10.4971 7.86179L10.1627 7.99721L9.5385 8.26068L8.40268 8.7539L8.34867 8.77267L8.31204 8.78158L8.27365 8.78717C8.26705 8.7878 8.26032 8.78828 8.25346 8.78859L8.21043 8.78844L8.16296 8.78396L8.10998 8.77477L8.05042 8.76046L7.94637 8.72855L7.86564 8.69973L7.72481 8.6442L7.6162 8.5984L7.35883 8.48394L6.95075 8.29395L5.78291 7.73403C5.53416 7.61411 5.42973 7.31525 5.54965 7.0665C5.66957 6.81776 5.96843 6.71333 6.21718 6.83325L7.09357 7.25141L7.44927 7.41746L7.83771 7.59414L8.07342 7.69679L8.20343 7.74948L9.21353 7.31083L9.7823 7.06991L10.0701 6.95218L10.3997 6.82378L10.5441 6.77094L10.7384 6.70479L10.9097 6.65321L11.0131 6.62626L11.1092 6.60481L11.1993 6.58847L11.2845 6.57685L11.3661 6.56956C11.3795 6.56868 11.3927 6.56797 11.4059 6.56742L11.5231 6.56641L11.6393 6.57243L12.2632 6.6233L13.366 6.72196L14.6687 6.84742L16.4409 7.02759L16.7161 7.05629C17.9982 7.17413 18.7851 7.62186 19.0478 8.33942Z" fill="#18753C"/>
<path d="M13.3962 18.523C13.626 18.6224 13.8988 18.5358 14.027 18.3138C14.1651 18.0746 14.0831 17.7688 13.844 17.6308L12.3747 16.7825L12.3225 16.7562C12.0927 16.6569 11.8199 16.7434 11.6917 16.9655C11.5536 17.2046 11.6356 17.5104 11.8747 17.6485L13.344 18.4968L13.3962 18.523Z" fill="#18753C"/>
<path d="M10.7422 19.6232C10.614 19.8452 10.3411 19.9318 10.1113 19.8324L10.0592 19.8062L7.82122 18.5141C7.74559 18.4705 7.64281 18.3692 7.5209 18.2218L7.41189 18.0845C7.39301 18.0598 7.37378 18.0343 7.35423 18.0079L7.23326 17.8398L7.10572 17.6531L6.97272 17.4496L6.83539 17.2309C6.8122 17.1932 6.78888 17.155 6.76544 17.1163L6.62371 16.8776L6.48043 16.6278L6.33675 16.3684C6.31283 16.3244 6.28894 16.2802 6.2651 16.2356L6.12289 15.9648C6.09935 15.9192 6.07592 15.8733 6.05261 15.8273L5.91439 15.5488L5.78025 15.2672L5.65128 14.9842L5.52863 14.7013C5.48892 14.6072 5.45044 14.5134 5.41339 14.4201L5.35151 14.2607L4.87291 13.8971L3.86565 13.1437L3.68332 13.0027L3.57966 12.9181L3.53468 12.8776L3.49069 12.8341L3.47454 12.813L3.4378 12.7485L3.3939 12.6655C3.30195 12.4051 3.4385 12.1195 3.69888 12.0275C3.87915 11.9639 4.07151 12.0097 4.20333 12.1304L4.23424 12.1619L4.37398 12.2733L5.84212 13.3759L6.00137 13.5004L6.08366 13.5695L6.14777 13.631L6.16371 13.6514L6.18523 13.687L6.24447 13.7951C6.60381 14.7654 7.08544 15.7228 7.61443 16.5824L7.70002 16.7199L7.86791 16.9805C7.95032 17.1055 8.03003 17.2219 8.10509 17.3273L8.22848 17.4962L8.31626 17.6097L8.36006 17.6636C8.36221 17.6675 8.35998 17.6688 8.34321 17.6602L10.5592 18.9402C10.7983 19.0782 10.8802 19.384 10.7422 19.6232Z" fill="#18753C"/>
<path d="M11.9997 20.499C12.2758 20.499 12.4997 20.2751 12.4997 19.999C12.4997 19.7228 12.2758 19.499 11.9997 19.499C11.7236 19.499 11.4997 19.7228 11.4997 19.999C11.4997 20.2751 11.7236 20.499 11.9997 20.499Z" fill="#18753C"/>
<path d="M27.7089 21.8297C27.5709 21.5906 27.6528 21.2848 27.8919 21.1467L27.998 21.0847L28.2156 20.9527L29.1118 20.3854C29.1666 20.3512 29.2213 20.3173 29.2761 20.2835L29.6115 20.0799L29.9724 19.8665C30.0358 19.8295 30.1011 19.7916 30.1687 19.7526C30.4078 19.6145 30.7136 19.6965 30.8517 19.9356C30.9898 20.1748 30.9078 20.4805 30.6687 20.6186L30.2974 20.8354L30.1033 20.9516C30.1002 20.9677 30.0962 20.9838 30.0913 20.9999C30.0362 21.1828 29.9825 21.3572 29.9291 21.527L29.769 22.0256L29.4451 22.998L29.4025 23.1356L29.3714 23.2457L29.3507 23.3333L29.3476 23.3491C29.3462 23.3563 29.3449 23.3633 29.3438 23.3701L29.3362 23.4329L29.3358 23.4853L29.3413 23.5322C29.3549 23.6091 29.5191 23.7791 29.6943 23.8096C29.9891 23.861 30.401 23.6299 30.9127 22.9369L32.0506 21.3618L32.946 20.1078L33.4822 19.3464L33.849 18.8178C33.8773 18.7768 33.905 18.7364 33.9321 18.6969C34.012 18.5803 34.0913 18.3914 34.1682 18.1327L34.2192 17.9499L34.2693 17.7466L34.3186 17.5229L34.3668 17.279L34.414 17.015L34.4599 16.7312L34.5044 16.4277C34.5118 16.3755 34.519 16.3225 34.5262 16.2686L34.5686 15.9359L34.6093 15.5838C34.6115 15.5645 34.6138 15.546 34.6169 15.5281L34.6287 15.4756L34.6404 15.4409L34.6659 15.3877L34.6893 15.3502L34.719 15.3102L34.7772 15.2438L34.8262 15.1942L34.9174 15.1098L35.0765 14.9744L35.4094 14.7101L36.0658 14.2107L36.7478 13.6988C36.9687 13.5332 37.2821 13.578 37.4477 13.799C37.6134 14.0199 37.5685 14.3333 37.3475 14.4989L36.4524 15.176L35.984 15.5389L35.7651 15.7134L35.5843 15.8643L35.5334 16.281C35.5253 16.3443 35.5171 16.4067 35.5088 16.4681L35.4577 16.8255C35.2838 17.9794 35.0703 18.761 34.7968 19.2012L34.7569 19.2623L34.401 19.7771L33.9901 20.3632L33.2711 21.3755L32.1211 22.9734L31.7995 23.417C31.0564 24.4684 30.2752 24.926 29.5224 24.7947C28.9252 24.6906 28.442 24.1906 28.3565 23.7058C28.3165 23.4787 28.3228 23.3048 28.3979 23.0153L28.4458 22.8449L28.5081 22.6454L28.8017 21.7652L28.7422 21.8029L28.5073 21.9453C28.4689 21.9681 28.4306 21.9905 28.3919 22.0127C28.1528 22.1508 27.847 22.0689 27.7089 21.8297Z" fill="#18753C"/>
<path d="M32.6633 10.4126L31.3917 10.9736L31.1498 11.0741L31.0516 11.1096C30.9617 11.1385 30.9165 11.15 30.8355 11.1415L30.7819 11.1339C29.7648 10.9618 28.6987 10.9013 27.6942 10.9299L27.533 10.9353L27.2247 10.9504L26.9397 10.9706C26.8945 10.9744 26.8504 10.9783 26.8077 10.9824L26.6008 11.0047L26.4593 11.024L26.3912 11.0348C26.3869 11.0347 26.387 11.0322 26.4028 11.0219L23.2497 12.8418C23.0105 12.9799 22.7047 12.8979 22.5667 12.6588C22.4385 12.4367 22.5 12.1572 22.7009 12.0078L22.7497 11.9758L25.9243 10.1429C26.0236 10.0856 26.2326 10.0374 26.5194 10.001L26.7218 9.97847C26.7574 9.97501 26.7938 9.97171 26.831 9.96856L27.0641 9.95157L27.3149 9.93848L27.5815 9.92946C27.6271 9.9283 27.6733 9.92732 27.72 9.92653L28.0062 9.92394L28.3028 9.92585L28.6078 9.93243L28.919 9.94385L29.2343 9.96029L29.5517 9.98191L29.869 10.0089L30.1842 10.0414C30.3409 10.059 30.4959 10.0788 30.6482 10.1009L30.8238 10.1277L30.932 10.0826L32.3143 9.47411L32.4495 9.41702L32.5549 9.3746L32.6236 9.34925L32.6536 9.33931C32.7631 9.30472 32.8084 9.29498 32.929 9.31744C33.2005 9.36801 33.3795 9.62907 33.329 9.90054C33.2784 10.172 33.0174 10.3511 32.7459 10.3005C32.7796 10.3068 32.8006 10.3129 32.8148 10.3178L32.8427 10.3283C32.8522 10.3309 32.8595 10.329 32.8843 10.3195L32.6633 10.4126Z" fill="#18753C"/>
<path d="M24.9997 14.499C25.2758 14.499 25.4997 14.2751 25.4997 13.999C25.4997 13.7228 25.2758 13.499 24.9997 13.499C24.7236 13.499 24.4997 13.7228 24.4997 13.999C24.4997 14.2751 24.7236 14.499 24.9997 14.499Z" fill="#18753C"/>
<path d="M21.4971 14.154C21.4472 13.2321 20.684 12.5 19.7497 12.5C18.7832 12.5 17.9997 13.2835 17.9997 14.25V15.1684C17.7724 15.0604 17.5181 15 17.2497 15C16.2832 15 15.4997 15.7835 15.4997 16.75V24.1925L15.1955 23.8354L14.5845 23.1061L14.274 22.7414L14.0864 22.5292L13.9789 22.4132L13.8829 22.3152C13.8678 22.3003 13.853 22.286 13.8386 22.2724L13.7558 22.1977C13.7161 22.1638 13.6788 22.1348 13.6425 22.1096L13.571 22.0638C13.5356 22.0431 13.5005 22.0254 13.4645 22.0096L13.3908 21.9802C12.9282 21.8118 12.2536 21.9804 11.8648 22.4455C11.3747 23.0317 11.3804 23.9371 11.9194 25.1063L12.6643 26.7672L13.3879 28.3552L13.7709 29.1792L14.0388 29.7449L14.074 29.8145C14.2439 30.1338 14.5598 30.5147 15.0259 30.9662L15.2516 31.1796C15.4093 31.3252 15.5813 31.4777 15.7676 31.6372L16.058 31.8819C16.1584 31.9652 16.2624 32.0504 16.37 32.1373L16.4993 32.2413L16.4995 34.0001L16.5034 34.0628C16.5342 34.3093 16.7446 34.5001 16.9995 34.5001C17.2756 34.5001 17.4995 34.2762 17.4995 34.0001V31.7578L17.1656 31.4936L16.7602 31.1646L16.5116 30.9567L16.2804 30.7579L16.0666 30.5686L15.8704 30.3888L15.6918 30.2188C15.6352 30.1637 15.5815 30.1103 15.5308 30.0586L15.3877 29.9084L15.2623 29.7684L15.1549 29.6387C15.0565 29.5143 14.985 29.4056 14.9408 29.3133L14.7448 28.9003L14.375 28.1075L13.7669 26.7782L12.7785 24.5784C12.4343 23.7887 12.4401 23.3164 12.632 23.0868C12.746 22.9504 12.9753 22.8931 13.0487 22.9199C13.0554 22.9223 13.0639 22.9271 13.0742 22.9344L13.1114 22.9643L13.161 23.0106L13.3009 23.1562L13.5008 23.3798L13.7674 23.6896L14.4344 24.484L14.7017 24.799L14.9442 25.08L15.1732 25.3392L15.3998 25.5892L15.6352 25.8426C15.7585 25.9738 15.9361 26.0236 16.1004 25.9898C16.1127 25.9873 16.1247 25.9844 16.1366 25.981C16.3462 25.9215 16.4997 25.7287 16.4997 25.5V16.75L16.5031 16.6778C16.5395 16.2974 16.8598 16 17.2497 16C17.6639 16 17.9997 16.3358 17.9997 16.75V23L18.003 23.0583C18.0319 23.307 18.2433 23.5 18.4997 23.5C18.7758 23.5 18.9997 23.2761 18.9997 23V14.25L19.0031 14.1778C19.0395 13.7974 19.3598 13.5 19.7497 13.5C20.1639 13.5 20.4997 13.8358 20.4997 14.25V23L20.503 23.0583C20.5319 23.307 20.7433 23.5 20.9997 23.5C21.2758 23.5 21.4997 23.2761 21.4997 23V15.7353L21.5031 15.6647C21.5393 15.2928 21.8586 15 22.2497 15C22.6652 15 22.9997 15.3305 22.9997 15.7353V23L23.003 23.0583C23.0319 23.307 23.2433 23.5 23.4997 23.5C23.7758 23.5 23.9997 23.2761 23.9997 23V17.7353L24.0031 17.6647C24.0393 17.2928 24.3586 17 24.7497 17C25.1652 17 25.4997 17.3305 25.4997 17.7353V27L25.498 27.1455C25.4765 28.0536 25.2453 28.7202 24.5824 29.7246C24.5106 29.8334 24.3874 29.9777 24.214 30.1579L24.0532 30.3212L23.8678 30.502L23.6828 30.6776L22.9989 31.3099L22.744 31.5503L22.4997 31.7929V34L22.503 34.0583C22.5319 34.307 22.7433 34.5 22.9997 34.5L23.058 34.4966C23.3067 34.4678 23.4997 34.2564 23.4997 34V32.211L23.5493 32.1642L24.3674 31.4065L24.569 31.2152L24.7793 31.0097C25.0749 30.7149 25.2824 30.4793 25.417 30.2754C26.2192 29.0599 26.4997 28.1874 26.4997 27V17.7353L26.4971 17.64C26.4472 16.7247 25.6827 16 24.7497 16C24.4814 16 24.2271 16.0599 23.9997 16.167V15.7353L23.9971 15.64C23.9472 14.7247 23.1827 14 22.2497 14C21.9806 14 21.7254 14.0603 21.4975 14.1681L21.4971 14.154Z" fill="#000091"/>
</svg>
