<svg width="40" height="40" viewBox="0 0 40 40" fill="none" xmlns="http://www.w3.org/2000/svg">
<path fill-rule="evenodd" clip-rule="evenodd" d="M4 8.5C3.7243 8.5 3.5 8.2757 3.5 8C3.5 7.72428 3.7243 7.5 4 7.5C4.2757 7.5 4.5 7.72428 4.5 8C4.5 8.2757 4.2757 8.5 4 8.5Z" fill="#ECECFE"/>
<path fill-rule="evenodd" clip-rule="evenodd" d="M32.5 36C32.2243 36 32 35.7757 32 35.5C32 35.2243 32.2243 35 32.5 35C32.7757 35 33 35.2243 33 35.5C33 35.7757 32.7757 36 32.5 36Z" fill="#ECECFE"/>
<path fill-rule="evenodd" clip-rule="evenodd" d="M33 5.5C32.7243 5.5 32.5 5.2757 32.5 5C32.5 4.72428 32.7243 4.5 33 4.5C33.2757 4.5 33.5 4.72428 33.5 5C33.5 5.2757 33.2757 5.5 33 5.5Z" fill="#ECECFE"/>
<path fill-rule="evenodd" clip-rule="evenodd" d="M10.5 38.5C10.2243 38.5 10 38.2757 10 38C10 37.7243 10.2243 37.5 10.5 37.5C10.7757 37.5 11 37.7243 11 38C11 38.2757 10.7757 38.5 10.5 38.5Z" fill="#ECECFE"/>
<path d="M21 13C21 12.4477 20.5523 12 20 12C19.4477 12 19 12.4477 19 13C19 13.5523 19.4477 14 20 14C20.5523 14 21 13.5523 21 13Z" fill="#18753C"/>
<path d="M21 17C21 16.4477 20.5523 16 20 16C19.4477 16 19 16.4477 19 17V25C19 25.5523 19.4477 26 20 26C20.5523 26 21 25.5523 21 25V17Z" fill="#18753C"/>
<path fill-rule="evenodd" clip-rule="evenodd" d="M29.5 6C32.0277 6 33.9355 8.41392 33.9984 11.3503L34 11.5V24.5C34 27.4535 32.1343 29.9166 29.628 29.9979L29.5 30H23.6135L23.575 30.0356C23.5439 30.0649 23.5094 30.0997 23.4715 30.1398L23.3479 30.2764L23.1631 30.4949L22.9019 30.8208L22.4908 31.3572L21.6957 32.4111L21.3959 32.803L21.1425 33.1259L20.9789 33.3266L20.8808 33.4421L20.7904 33.5441L20.7069 33.6333L20.6295 33.7104L20.5573 33.7764L20.4894 33.832C20.4784 33.8404 20.4676 33.8484 20.4569 33.8561L20.3939 33.8976C20.3733 33.91 20.3531 33.921 20.3331 33.9308L20.2737 33.9564C20.254 33.9638 20.2344 33.97 20.2148 33.9753L20.1555 33.9882L20.095 33.9961L20.0323 33.9996L19.9676 33.9996L19.9051 33.9961L19.8446 33.9884C19.8247 33.9851 19.8051 33.9809 19.7855 33.9757L19.7267 33.957L19.6675 33.9316C19.6376 33.9171 19.6072 33.8998 19.5759 33.8792L19.5117 33.8334L19.4441 33.7781C19.4325 33.768 19.4207 33.7575 19.4087 33.7465L19.3342 33.6752L19.254 33.5923L19.1673 33.4969L19.0732 33.3882L18.8595 33.1276L18.6733 32.8911L18.2219 32.3006L17.3396 31.1316L17.087 30.8043L16.9601 30.6442L16.797 30.4447L16.723 30.3567L16.5896 30.2044C16.5483 30.1589 16.5104 30.1187 16.4759 30.084L16.387 30H10.5C7.97229 30 6.06449 27.5861 6.0016 24.6497L6 24.5V15.5C6 15.2239 6.22386 15 6.5 15C6.75642 15 6.96775 15.193 6.99664 15.4417L7 15.5V24.5C7 26.9531 8.4895 28.9257 10.3919 28.998L10.5 29L16.5306 29.0003L16.5895 29.0028L16.646 29.0087L16.7009 29.0188L16.7551 29.0337L16.8093 29.0545L16.8645 29.0818L16.9215 29.1165L16.981 29.1593L17.0439 29.2112L17.111 29.2728L17.1832 29.3451L17.2613 29.4287L17.3461 29.5246L17.4876 29.6931L17.7076 29.9681L18.1969 30.6059L19.1298 31.8416L19.4669 32.2756L19.6524 32.5042L19.6972 32.558C19.7988 32.6793 19.8879 32.7802 19.9638 32.8598L20 32.8965L20.0362 32.8601C20.0741 32.8204 20.1154 32.7753 20.1598 32.7251L20.3026 32.5589L20.4385 32.3942L20.6356 32.1467L21.011 31.6582L22.0354 30.3029L22.3564 29.8893L22.5669 29.6291L22.7023 29.4709L22.7833 29.3815L22.858 29.304C22.87 29.292 22.8817 29.2805 22.8932 29.2694L22.96 29.2082L23.0225 29.1567C23.0326 29.1489 23.0425 29.1415 23.0524 29.1345L23.11 29.0962C23.1194 29.0905 23.1287 29.0851 23.138 29.0801L23.1927 29.0532L23.2465 29.0328C23.2555 29.0299 23.2644 29.0273 23.2734 29.0248L23.3274 29.0127C23.3365 29.0111 23.3456 29.0097 23.3548 29.0084L23.4109 29.0027L23.4695 29.0003L29.5 29C31.4176 29 32.9426 27.0728 32.9984 24.6383L33 24.5V11.5C33 9.0469 31.5105 7.07427 29.6081 7.00205L29.5 7H10.5C8.54624 7 7 9.00061 7 11.5C7 11.7761 6.77614 12 6.5 12C6.22386 12 6 11.7761 6 11.5C6 8.5465 7.86567 6.08336 10.372 6.00207L10.5 6H29.5ZM31 31.5C31 31.2239 31.2239 31 31.5 31C31.7761 31 32 31.2239 32 31.5C32 31.7761 31.7761 32 31.5 32C31.2239 32 31 31.7761 31 31.5ZM30 31.5C30 31.2239 29.7761 31 29.5 31H24.5L24.4417 31.0034C24.193 31.0322 24 31.2436 24 31.5C24 31.7761 24.2239 32 24.5 32H29.5L29.5583 31.9966C29.807 31.9678 30 31.7564 30 31.5Z" fill="#000091"/>
</svg>
