<svg width="40" height="40" viewBox="0 0 40 40" fill="none" xmlns="http://www.w3.org/2000/svg">
<path fill-rule="evenodd" clip-rule="evenodd" d="M5 4C4.7243 4 4.5 3.7757 4.5 3.5C4.5 3.22428 4.7243 3 5 3C5.2757 3 5.5 3.22428 5.5 3.5C5.5 3.7757 5.2757 4 5 4Z" fill="#ECECFE"/>
<path fill-rule="evenodd" clip-rule="evenodd" d="M8 35.5C7.7243 35.5 7.5 35.2757 7.5 35C7.5 34.7243 7.7243 34.5 8 34.5C8.2757 34.5 8.5 34.7243 8.5 35C8.5 35.2757 8.2757 35.5 8 35.5Z" fill="#ECECFE"/>
<path fill-rule="evenodd" clip-rule="evenodd" d="M34 28C33.7243 28 33.5 27.7757 33.5 27.5C33.5 27.2243 33.7243 27 34 27C34.2757 27 34.5 27.2243 34.5 27.5C34.5 27.7757 34.2757 28 34 28Z" fill="#ECECFE"/>
<path fill-rule="evenodd" clip-rule="evenodd" d="M35 4C34.7243 4 34.5 3.7757 34.5 3.5C34.5 3.22428 34.7243 3 35 3C35.2757 3 35.5 3.22428 35.5 3.5C35.5 3.7757 35.2757 4 35 4Z" fill="#ECECFE"/>
<path fill-rule="evenodd" clip-rule="evenodd" d="M20.25 17C19.2835 17 18.5 17.7835 18.5 18.75C18.5 19.7165 19.2835 20.5 20.25 20.5C21.2165 20.5 22 19.7165 22 18.75C22 17.7835 21.2165 17 20.25 17ZM17.5 18.75C17.5 17.2312 18.7312 16 20.25 16C21.7688 16 23 17.2312 23 18.75C23 20.2688 21.7688 21.5 20.25 21.5C18.7312 21.5 17.5 20.2688 17.5 18.75Z" fill="#18753C"/>
<path fill-rule="evenodd" clip-rule="evenodd" d="M17.75 28.5C17.75 28.2239 17.9739 28 18.25 28H18.75C19.0261 28 19.25 28.2239 19.25 28.5C19.25 28.7761 19.0261 29 18.75 29H18.25C17.9739 29 17.75 28.7761 17.75 28.5Z" fill="#18753C"/>
<path fill-rule="evenodd" clip-rule="evenodd" d="M19.0296 12.8306C19.101 12.6323 19.2892 12.5 19.5 12.5H21C21.2108 12.5 21.399 12.6323 21.4704 12.8306L21.849 13.8821L22.5397 14.1961L23.5264 13.7028C23.7189 13.6065 23.9514 13.6443 24.1036 13.7964L25.2036 14.8964C25.3557 15.0486 25.3935 15.2811 25.2972 15.4736L24.7966 16.4748L25.0777 17.1931L26.147 17.5221C26.3568 17.5867 26.5 17.7805 26.5 18V19.55C26.5 19.7631 26.3649 19.9528 26.1636 20.0225L25.0772 20.3985L24.7987 21.0793L25.2972 22.0764C25.3954 22.2727 25.354 22.5101 25.1952 22.6617L24.0952 23.7117C23.9471 23.8531 23.7278 23.8898 23.5417 23.8045L22.5387 23.3448L21.8451 23.6286L21.4704 24.6694C21.399 24.8677 21.2108 25 21 25H19.5C19.2892 25 19.101 24.8677 19.0296 24.6694L18.6549 23.6286L17.9613 23.3448L16.9583 23.8045C16.7722 23.8898 16.5529 23.8531 16.4048 23.7117L15.3048 22.6617C15.146 22.5101 15.1046 22.2727 15.2028 22.0764L15.7013 21.0793L15.4228 20.3985L14.3364 20.0225C14.1351 19.9528 14 19.7631 14 19.55V18C14 17.7805 14.1432 17.5867 14.353 17.5221L15.4223 17.1931L15.7034 16.4748L15.2028 15.4736C15.1065 15.2811 15.1443 15.0486 15.2964 14.8964L16.3964 13.7964C16.5486 13.6443 16.7811 13.6065 16.9736 13.7028L17.9603 14.1961L18.651 13.8821L19.0296 12.8306ZM19.8514 13.5L19.5204 14.4194C19.4747 14.5463 19.3797 14.6494 19.2569 14.7052L18.1569 15.2052C18.0195 15.2676 17.8613 15.2647 17.7264 15.1972L16.8487 14.7584L16.2584 15.3487L16.6972 16.2264C16.7605 16.353 16.7672 16.5004 16.7156 16.6322L16.2656 17.7822C16.2101 17.9242 16.0928 18.0331 15.947 18.0779L15 18.3693V19.194L15.9636 19.5275C16.0994 19.5745 16.2084 19.6777 16.2628 19.8107L16.7128 20.9107C16.7674 21.0441 16.7617 21.1946 16.6972 21.3236L16.2624 22.1933L16.8499 22.7542L17.7417 22.3455C17.8674 22.2879 18.0113 22.2849 18.1393 22.3372L19.2393 22.7872C19.3703 22.8408 19.4725 22.9475 19.5204 23.0806L19.8514 24H20.6486L20.9796 23.0806C21.0275 22.9475 21.1297 22.8408 21.2607 22.7872L22.3607 22.3372C22.4887 22.2849 22.6326 22.2879 22.7583 22.3455L23.6501 22.7542L24.2376 22.1933L23.8028 21.3236C23.7383 21.1946 23.7326 21.0441 23.7872 20.9107L24.2372 19.8107C24.2916 19.6777 24.4006 19.5745 24.5364 19.5275L25.5 19.194V18.3693L24.553 18.0779C24.4072 18.0331 24.2899 17.9242 24.2344 17.7822L23.7844 16.6322C23.7328 16.5004 23.7395 16.353 23.8028 16.2264L24.2416 15.3487L23.6513 14.7584L22.7736 15.1972C22.6387 15.2647 22.4805 15.2676 22.3431 15.2052L21.2431 14.7052C21.1203 14.6494 21.0253 14.5463 20.9796 14.4194L20.6486 13.5H19.8514Z" fill="#18753C"/>
<path fill-rule="evenodd" clip-rule="evenodd" d="M19.75 28.5C19.75 28.2239 19.9739 28 20.25 28H23.75C24.0261 28 24.25 28.2239 24.25 28.5C24.25 28.7761 24.0261 29 23.75 29H20.25C19.9739 29 19.75 28.7761 19.75 28.5Z" fill="#000091"/>
<path fill-rule="evenodd" clip-rule="evenodd" d="M22.6303 32.2673C22.8969 32.3393 23.0547 32.6137 22.9827 32.8803C22.6546 34.0956 21.7755 35.25 20.35 35.25C18.9294 35.25 17.805 34.1611 17.5122 32.8598C17.4516 32.5903 17.6208 32.3228 17.8902 32.2622C18.1597 32.2016 18.4272 32.3708 18.4878 32.6402C18.695 33.5611 19.4706 34.25 20.35 34.25C21.1245 34.25 21.7454 33.6266 22.0173 32.6197C22.0893 32.3531 22.3637 32.1953 22.6303 32.2673Z" fill="#000091"/>
<path fill-rule="evenodd" clip-rule="evenodd" d="M20.25 5C20.5261 5 20.75 5.22386 20.75 5.5V8C20.75 8.27614 20.5261 8.5 20.25 8.5C19.9739 8.5 19.75 8.27614 19.75 8V5.5C19.75 5.22386 19.9739 5 20.25 5Z" fill="#000091"/>
<path fill-rule="evenodd" clip-rule="evenodd" d="M6.5 19C6.5 18.7239 6.72386 18.5 7 18.5H9.5C9.77614 18.5 10 18.7239 10 19C10 19.2761 9.77614 19.5 9.5 19.5H7C6.72386 19.5 6.5 19.2761 6.5 19Z" fill="#000091"/>
<path fill-rule="evenodd" clip-rule="evenodd" d="M8.58766 14.3096C8.69281 14.0543 8.98504 13.9325 9.24038 14.0377L10.0904 14.3877C10.3457 14.4928 10.4675 14.785 10.3623 15.0404C10.2572 15.2957 9.96497 15.4175 9.70963 15.3123L8.85963 14.9623C8.60429 14.8572 8.48252 14.565 8.58766 14.3096Z" fill="#000091"/>
<path fill-rule="evenodd" clip-rule="evenodd" d="M15.2764 7.40279C15.5234 7.2793 15.8237 7.37941 15.9472 7.6264L16.4472 8.6264C16.5707 8.87339 16.4706 9.17373 16.2236 9.29722C15.9766 9.42071 15.6763 9.3206 15.5528 9.07361L15.0528 8.07361C14.9293 7.82662 15.0294 7.52629 15.2764 7.40279Z" fill="#000091"/>
<path fill-rule="evenodd" clip-rule="evenodd" d="M10.1464 8.74645C10.3417 8.55119 10.6583 8.55119 10.8536 8.74645L12.8536 10.7465C13.0488 10.9417 13.0488 11.2583 12.8536 11.4536C12.6583 11.6488 12.3417 11.6488 12.1464 11.4536L10.1464 9.45356C9.95118 9.2583 9.95118 8.94172 10.1464 8.74645Z" fill="#000091"/>
<path fill-rule="evenodd" clip-rule="evenodd" d="M30.5 19C30.5 18.7239 30.7239 18.5 31 18.5H33.5C33.7761 18.5 34 18.7239 34 19C34 19.2761 33.7761 19.5 33.5 19.5H31C30.7239 19.5 30.5 19.2761 30.5 19Z" fill="#000091"/>
<path fill-rule="evenodd" clip-rule="evenodd" d="M31.9123 14.3096C32.0175 14.565 31.8957 14.8572 31.6404 14.9623L30.7904 15.3123C30.535 15.4175 30.2428 15.2957 30.1377 15.0404C30.0325 14.785 30.1543 14.4928 30.4096 14.3877L31.2596 14.0377C31.515 13.9325 31.8072 14.0543 31.9123 14.3096Z" fill="#000091"/>
<path fill-rule="evenodd" clip-rule="evenodd" d="M25.2236 7.40279C25.4706 7.52629 25.5707 7.82662 25.4472 8.07361L24.9472 9.07361C24.8237 9.3206 24.5234 9.42071 24.2764 9.29722C24.0294 9.17373 23.9293 8.87339 24.0528 8.6264L24.5528 7.6264C24.6763 7.37941 24.9766 7.2793 25.2236 7.40279Z" fill="#000091"/>
<path fill-rule="evenodd" clip-rule="evenodd" d="M30.3536 8.74645C30.5488 8.94172 30.5488 9.2583 30.3536 9.45356L28.3536 11.4536C28.1583 11.6488 27.8417 11.6488 27.6464 11.4536C27.4512 11.2583 27.4512 10.9417 27.6464 10.7465L29.6464 8.74645C29.8417 8.55119 30.1583 8.55119 30.3536 8.74645Z" fill="#000091"/>
<path fill-rule="evenodd" clip-rule="evenodd" d="M26.9036 24.3964C27.0988 24.5917 27.0988 24.9083 26.9036 25.1036C26.8448 25.1623 26.7848 25.223 26.7236 25.2851C26.2405 25.7742 25.6754 26.3463 24.9736 26.6972C24.7266 26.8207 24.4263 26.7206 24.3028 26.4736C24.1793 26.2266 24.2794 25.9263 24.5264 25.8028C25.0702 25.5309 25.5134 25.0843 26.0135 24.5803C26.0736 24.5198 26.1345 24.4584 26.1964 24.3964C26.3917 24.2012 26.7083 24.2012 26.9036 24.3964Z" fill="#000091"/>
<path fill-rule="evenodd" clip-rule="evenodd" d="M20.25 10.5C15.6761 10.5 12 14.1761 12 18.75C12 21.7146 13.5997 24.3095 15.9635 25.775C16.1982 25.9206 16.2705 26.2288 16.125 26.4635C15.9794 26.6982 15.6712 26.7705 15.4365 26.625C12.8003 24.9905 11 22.0854 11 18.75C11 13.6239 15.1239 9.5 20.25 9.5C25.3761 9.5 29.5 13.6239 29.5 18.75C29.5 20.2825 29.1296 21.7144 28.4396 22.9881C28.3081 23.231 28.0047 23.3212 27.7619 23.1896C27.519 23.0581 27.4288 22.7547 27.5604 22.5119C28.1704 21.3856 28.5 20.1175 28.5 18.75C28.5 14.1761 24.8239 10.5 20.25 10.5Z" fill="#000091"/>
<path fill-rule="evenodd" clip-rule="evenodd" d="M15.3578 25.9399C15.5291 25.7233 15.8435 25.6865 16.0601 25.8578C16.2554 26.0122 16.3944 26.2294 16.496 26.4434C16.6005 26.6635 16.6827 26.9174 16.7465 27.1835C16.874 27.7159 16.9385 28.3434 16.9385 28.95H15.9385C15.9385 28.4066 15.8801 27.8591 15.774 27.4165C15.721 27.1951 15.6587 27.0115 15.5926 26.8722C15.5236 26.7268 15.4659 26.6628 15.4399 26.6422C15.2233 26.4709 15.1865 26.1565 15.3578 25.9399ZM24.5615 28.95V31.2C24.5615 31.5278 24.4318 32.0025 24.1963 32.3991C23.9632 32.7916 23.5355 33.25 22.8811 33.25H17.6189C16.9645 33.25 16.5368 32.7916 16.3037 32.3991C16.0682 32.0025 15.9385 31.5278 15.9385 31.2V28.95H16.9385V31.2C16.9385 31.3222 17.0056 31.6225 17.1635 31.8884C17.3238 32.1584 17.4863 32.25 17.6189 32.25H22.8811C23.0137 32.25 23.1762 32.1584 23.3365 31.8884C23.4944 31.6225 23.5615 31.3222 23.5615 31.2V28.9502L24.5615 28.95ZM24.5615 28.95C24.5615 28.4066 24.6199 27.8591 24.726 27.4165C24.779 27.1951 24.8413 27.0115 24.9074 26.8722C24.9764 26.7268 25.0341 26.6628 25.0601 26.6422C25.2767 26.4709 25.3135 26.1565 25.1422 25.9399C24.9709 25.7233 24.6565 25.6865 24.4399 25.8578C24.2446 26.0122 24.1056 26.2294 24.004 26.4434C23.8995 26.6635 23.8173 26.9174 23.7535 27.1835C23.626 27.7159 23.5615 28.3436 23.5615 28.9502L24.5615 28.95Z" fill="#000091"/>
</svg>
