<svg width="40" height="40" viewBox="0 0 40 40" fill="none" xmlns="http://www.w3.org/2000/svg">
<path fill-rule="evenodd" clip-rule="evenodd" d="M8.5 4C8.2243 4 8 3.7757 8 3.5C8 3.22428 8.2243 3 8.5 3C8.7757 3 9 3.22428 9 3.5C9 3.7757 8.7757 4 8.5 4Z" fill="#ECECFE"/>
<path fill-rule="evenodd" clip-rule="evenodd" d="M10.5 38C10.2243 38 10 37.7757 10 37.5C10 37.2243 10.2243 37 10.5 37C10.7757 37 11 37.2243 11 37.5C11 37.7757 10.7757 38 10.5 38Z" fill="#ECECFE"/>
<path fill-rule="evenodd" clip-rule="evenodd" d="M31.5 37C31.2243 37 31 36.7757 31 36.5C31 36.2243 31.2243 36 31.5 36C31.7757 36 32 36.2243 32 36.5C32 36.7757 31.7757 37 31.5 37Z" fill="#ECECFE"/>
<path fill-rule="evenodd" clip-rule="evenodd" d="M32.5 5C32.2243 5 32 4.7757 32 4.5C32 4.22428 32.2243 4 32.5 4C32.7757 4 33 4.22428 33 4.5C33 4.7757 32.7757 5 32.5 5Z" fill="#ECECFE"/>
<path fill-rule="evenodd" clip-rule="evenodd" d="M20.5 40C20.2243 40 20 39.7757 20 39.5C20 39.2243 20.2243 39 20.5 39C20.7757 39 21 39.2243 21 39.5C21 39.7757 20.7757 40 20.5 40Z" fill="#ECECFE"/>
<path fill-rule="evenodd" clip-rule="evenodd" d="M15 10C15 9.17157 15.6716 8.5 16.5 8.5C17.3284 8.5 18 9.17157 18 10C18 10.8284 17.3284 11.5 16.5 11.5C15.6716 11.5 15 10.8284 15 10ZM17 10C17 9.72386 16.7761 9.5 16.5 9.5C16.2239 9.5 16 9.72386 16 10C16 10.2761 16.2239 10.5 16.5 10.5C16.7761 10.5 17 10.2761 17 10Z" fill="#18753C"/>
<path d="M16.5 10.5C16.7564 10.5 16.9678 10.693 16.9966 10.9417L17 11V13C17 13.2761 16.7761 13.5 16.5 13.5C16.2436 13.5 16.0322 13.307 16.0034 13.0583L16 13V11C16 10.7239 16.2239 10.5 16.5 10.5Z" fill="#18753C"/>
<path fill-rule="evenodd" clip-rule="evenodd" d="M26 22C26 21.1716 26.6716 20.5 27.5 20.5C28.3284 20.5 29 21.1716 29 22C29 22.8284 28.3284 23.5 27.5 23.5C26.6716 23.5 26 22.8284 26 22ZM28 22C28 21.7239 27.7761 21.5 27.5 21.5C27.2239 21.5 27 21.7239 27 22C27 22.2761 27.2239 22.5 27.5 22.5C27.7761 22.5 28 22.2761 28 22Z" fill="#18753C"/>
<path d="M27.5 22.5C27.7564 22.5 27.9678 22.693 27.9966 22.9417L28 23V25C28 25.2761 27.7761 25.5 27.5 25.5C27.2436 25.5 27.0322 25.307 27.0034 25.0583L27 25V23C27 22.7239 27.2239 22.5 27.5 22.5Z" fill="#18753C"/>
<path fill-rule="evenodd" clip-rule="evenodd" d="M11.5 25C11.5 24.1716 12.1716 23.5 13 23.5C13.8284 23.5 14.5 24.1716 14.5 25C14.5 25.8284 13.8284 26.5 13 26.5C12.1716 26.5 11.5 25.8284 11.5 25ZM13.5 25C13.5 24.7239 13.2761 24.5 13 24.5C12.7239 24.5 12.5 24.7239 12.5 25C12.5 25.2761 12.7239 25.5 13 25.5C13.2761 25.5 13.5 25.2761 13.5 25Z" fill="#18753C"/>
<path d="M13 25.5C13.2564 25.5 13.4678 25.693 13.4966 25.9417L13.5 26V28C13.5 28.2761 13.2761 28.5 13 28.5C12.7436 28.5 12.5322 28.307 12.5034 28.0583L12.5 28V26C12.5 25.7239 12.7239 25.5 13 25.5Z" fill="#18753C"/>
<path d="M12.5 9.50123C12.7761 9.50123 13 9.72509 13 10.0012C13 10.2577 12.807 10.469 12.5583 10.4979L12.5 10.5012H9.5C9.22386 10.5012 9 10.2774 9 10.0012C9 9.74481 9.19302 9.53348 9.44169 9.5046L9.5 9.50123H12.5Z" fill="#000091"/>
<path d="M35.5 9.50123C35.7564 9.50123 35.9678 9.69425 35.9966 9.94292L36 10.0012V31.0012C36 31.2577 35.807 31.469 35.5583 31.4979L35.5 31.5012H15.5C15.2239 31.5012 15 31.2774 15 31.0012C15 30.7448 15.193 30.5335 15.4417 30.5046L15.5 30.5012H35V10.5012H20.5C20.2436 10.5012 20.0322 10.3082 20.0034 10.0595L20 10.0012C20 9.74481 20.193 9.53348 20.4417 9.5046L20.5 9.50123H35.5Z" fill="#000091"/>
<path fill-rule="evenodd" clip-rule="evenodd" d="M8.525 8.56825L7.00833 8.54297L6.89738 8.54316C5.3138 8.57511 4.02703 9.85541 4.00041 11.4523L4 28.0012L4.00336 28.0595C4.00559 28.0787 4.00889 28.0975 4.01321 28.1159L4.0155 28.1247L4.00707 28.2496C4.00236 28.3318 4 28.4156 4 28.5012C4 30.2901 4.97757 31.3375 6.78887 31.4993L11.5 31.5012L11.5583 31.4979C11.807 31.469 12 31.2577 12 31.0012C12 30.7251 11.7761 30.5012 11.5 30.5012H6.83333L6.71396 30.4886C5.54129 30.3465 5 29.727 5 28.5012C5 27.243 5.62545 26.6175 7.04152 26.4995L8.5 26.5012L8.58814 26.4987C9.37554 26.4531 10 25.8001 10 25.0012V10.068L9.99751 9.98092C9.9529 9.20251 9.31433 8.5814 8.525 8.56825ZM5.0045 11.3682C5.07421 10.3341 5.94369 9.52536 6.99167 9.54283L8.50833 9.56811L8.56591 9.57236C8.81133 9.6047 9 9.81464 9 10.068V25.0012L8.99664 25.0595C8.96775 25.3082 8.75642 25.5012 8.5 25.5012H7L6.86165 25.5143C6.13212 25.5917 5.53617 25.7964 5.08066 26.1215L5 26.1812L5.00027 11.4689L5.0045 11.3682Z" fill="#000091"/>
<path fill-rule="evenodd" clip-rule="evenodd" d="M9.5 20.5012H9.70656C9.9827 20.5012 10.2066 20.7251 10.2066 21.0012C10.2066 21.2774 9.9827 21.5012 9.70656 21.5012H9.5C9.22386 21.5012 9 21.2774 9 21.0012C9 20.7251 9.22386 20.5012 9.5 20.5012ZM12.7066 20.5012H11.2066C10.9304 20.5012 10.7066 20.7251 10.7066 21.0012C10.7066 21.2774 10.9304 21.5012 11.2066 21.5012H12.7066C12.9827 21.5012 13.2066 21.2774 13.2066 21.0012C13.2066 20.7251 12.9827 20.5012 12.7066 20.5012ZM15.9096 20.7145L16.0281 20.8837C16.1864 21.1099 16.1314 21.4217 15.9052 21.5801C15.679 21.7384 15.3672 21.6834 15.2088 21.4572L14.2066 21.5012C13.9304 21.5012 13.7066 21.2774 13.7066 21.0012C13.7066 20.7251 13.9304 20.5012 14.2066 20.5012H15.5C15.6632 20.5012 15.8161 20.5808 15.9096 20.7145ZM17.7485 23.3414L16.8883 22.1126C16.7299 21.8863 16.4181 21.8313 16.1919 21.9897C15.9657 22.148 15.9107 22.4598 16.069 22.686L16.9292 23.9149C17.0876 24.1411 17.3993 24.1961 17.6256 24.0378C17.8518 23.8794 17.9068 23.5676 17.7485 23.3414ZM18.6086 24.5703L19.4688 25.7991C19.6272 26.0253 19.5722 26.3371 19.346 26.4955C19.1197 26.6538 18.808 26.5988 18.6496 26.3726L17.7894 25.1437C17.6311 24.9175 17.6861 24.6057 17.9123 24.4474C18.1385 24.289 18.4503 24.344 18.6086 24.5703ZM21.1892 28.2568L20.329 27.028C20.1707 26.8017 19.8589 26.7467 19.6327 26.9051C19.4065 27.0634 19.3514 27.3752 19.5098 27.6014L20.37 28.8303C20.5284 29.0565 20.8401 29.1115 21.0663 28.9532C21.2926 28.7948 21.3476 28.483 21.1892 28.2568ZM22.9096 30.7145L22.0494 29.4857C21.8911 29.2594 21.5793 29.2044 21.3531 29.3628C21.1269 29.5211 21.0718 29.8329 21.2302 30.0591L22.0904 31.288C22.2487 31.5142 22.5605 31.5692 22.7867 31.4109C23.013 31.2525 23.068 30.9407 22.9096 30.7145Z" fill="#000091"/>
<path fill-rule="evenodd" clip-rule="evenodd" d="M20.7934 21.5012C21.0696 21.5012 21.2934 21.2774 21.2934 21.0012C21.2934 20.7251 21.0696 20.5012 20.7934 20.5012H19.5C19.0955 20.5012 18.8584 20.9566 19.0904 21.288L19.2088 21.4572C19.3672 21.6834 19.679 21.7384 19.9052 21.5801C20.1314 21.4217 20.7934 21.5012 20.7934 21.5012ZM20.8883 22.1126L21.7485 23.3414C21.9068 23.5676 21.8518 23.8794 21.6256 24.0378C21.3993 24.1961 21.0876 24.1411 20.9292 23.9149L20.069 22.686C19.9107 22.4598 19.9657 22.148 20.1919 21.9897C20.4181 21.8313 20.7299 21.8863 20.8883 22.1126ZM23.4688 25.7991L22.6086 24.5703C22.4503 24.344 22.1385 24.289 21.9123 24.4474C21.6861 24.6057 21.6311 24.9175 21.7894 25.1437L22.6496 26.3726C22.808 26.5988 23.1197 26.6538 23.346 26.4955C23.5722 26.3371 23.6272 26.0253 23.4688 25.7991ZM24.329 27.028L25.1892 28.2568C25.3476 28.483 25.2926 28.7948 25.0663 28.9532C24.8401 29.1115 24.5284 29.0565 24.37 28.8303L23.5098 27.6014C23.3514 27.3752 23.4065 27.0634 23.6327 26.9051C23.8589 26.7467 24.1707 26.8017 24.329 27.028ZM26.0494 29.4857L26.9096 30.7145C27.068 30.9407 27.013 31.2525 26.7867 31.4109C26.5605 31.5692 26.2487 31.5142 26.0904 31.288L25.2302 30.0591C25.0718 29.8329 25.1269 29.5211 25.3531 29.3628C25.5793 29.2044 25.8911 29.2594 26.0494 29.4857ZM23.7934 21.5012H22.2934C22.0173 21.5012 21.7934 21.2774 21.7934 21.0012C21.7934 20.7251 22.0173 20.5012 22.2934 20.5012H23.7934C24.0696 20.5012 24.2934 20.7251 24.2934 21.0012C24.2934 21.2774 24.0696 21.5012 23.7934 21.5012Z" fill="#000091"/>
<path fill-rule="evenodd" clip-rule="evenodd" d="M33 21.5012H31.5C31.2239 21.5012 31 21.2774 31 21.0012C31 20.7251 31.2239 20.5012 31.5 20.5012H33C33.2761 20.5012 33.5 20.7251 33.5 21.0012C33.5 21.2774 33.2761 21.5012 33 21.5012ZM35.5 21.5012H34.5C34.2239 21.5012 34 21.2774 34 21.0012C34 20.7251 34.2239 20.5012 34.5 20.5012H35.5C35.7761 20.5012 36 20.7251 36 21.0012C36 21.2774 35.7761 21.5012 35.5 21.5012Z" fill="#000091"/>
<path fill-rule="evenodd" clip-rule="evenodd" d="M25 10.0012V11.0012C25 11.2774 24.7761 11.5012 24.5 11.5012C24.2239 11.5012 24 11.2774 24 11.0012V10.0012C24 9.72509 24.2239 9.50123 24.5 9.50123C24.7761 9.50123 25 9.72509 25 10.0012ZM25 14.0012V12.5012C25 12.2251 24.7761 12.0012 24.5 12.0012C24.2239 12.0012 24 12.2251 24 12.5012V14.0012C24 14.2774 24.2239 14.5012 24.5 14.5012C24.7761 14.5012 25 14.2774 25 14.0012ZM25 15.5012V17.0012C25 17.2774 24.7761 17.5012 24.5 17.5012C24.2239 17.5012 24 17.2774 24 17.0012V15.5012C24 15.2251 24.2239 15.0012 24.5 15.0012C24.7761 15.0012 25 15.2251 25 15.5012ZM11 17.5012H9.5C9.22386 17.5012 9 17.2774 9 17.0012C9 16.7251 9.22386 16.5012 9.5 16.5012H11C11.2761 16.5012 11.5 16.7251 11.5 17.0012C11.5 17.2774 11.2761 17.5012 11 17.5012ZM14 17.5012H12.5C12.2239 17.5012 12 17.2774 12 17.0012C12 16.7251 12.2239 16.5012 12.5 16.5012H14C14.2761 16.5012 14.5 16.7251 14.5 17.0012C14.5 17.2774 14.2761 17.5012 14 17.5012ZM15.5 17.5012H17C17.2761 17.5012 17.5 17.2774 17.5 17.0012C17.5 16.7251 17.2761 16.5012 17 16.5012H15.5C15.2239 16.5012 15 16.7251 15 17.0012C15 17.2774 15.2239 17.5012 15.5 17.5012ZM20 17.5012H18.5C18.2239 17.5012 18 17.2774 18 17.0012C18 16.7251 18.2239 16.5012 18.5 16.5012H20C20.2761 16.5012 20.5 16.7251 20.5 17.0012C20.5 17.2774 20.2761 17.5012 20 17.5012ZM21.5 17.5012H23C23.2761 17.5012 23.5 17.2774 23.5 17.0012C23.5 16.7251 23.2761 16.5012 23 16.5012H21.5C21.2239 16.5012 21 16.7251 21 17.0012C21 17.2774 21.2239 17.5012 21.5 17.5012Z" fill="#000091"/>
<path fill-rule="evenodd" clip-rule="evenodd" d="M23 13.5012H21.5C21.2239 13.5012 21 13.2774 21 13.0012C21 12.7251 21.2239 12.5012 21.5 12.5012H23C23.2761 12.5012 23.5 12.7251 23.5 13.0012C23.5 13.2774 23.2761 13.5012 23 13.5012ZM21 13.5012V15.0012C21 15.2774 20.7761 15.5012 20.5 15.5012C20.2239 15.5012 20 15.2774 20 15.0012V13.5012C20 13.2251 20.2239 13.0012 20.5 13.0012C20.7761 13.0012 21 13.2251 21 13.5012Z" fill="#000091"/>
<path fill-rule="evenodd" clip-rule="evenodd" d="M36 11.5012C36 11.7774 35.7761 12.0012 35.5 12.0012C35.2239 12.0012 35 11.7774 35 11.5012V10.5012C35.2761 10.5012 35.5 10.2774 35.5 10.0012C35.5 9.81616 35.3995 9.65458 35.25 9.56812C35.3235 9.52558 35.4089 9.50123 35.5 9.50123C35.7761 9.50123 36 9.72509 36 10.0012V11.5012ZM35.25 9.56812C35.1765 9.52558 35.0911 9.50123 35 9.50123H33.5C33.2239 9.50123 33 9.72509 33 10.0012C33 10.2774 33.2239 10.5012 33.5 10.5012H35V10.0012C35 9.81616 35.1005 9.65458 35.25 9.56812ZM36 14.5012C36 14.7774 35.7761 15.0012 35.5 15.0012C35.2239 15.0012 35 14.7774 35 14.5012V13.0012C35 12.7251 35.2239 12.5012 35.5 12.5012C35.7761 12.5012 36 12.7251 36 13.0012V14.5012ZM34.5 17.0012C34.5 17.2774 34.7239 17.5012 35 17.5012H35.5C35.7761 17.5012 36 17.2774 36 17.0012V16.0012C36 15.7251 35.7761 15.5012 35.5 15.5012C35.2239 15.5012 35 15.7251 35 16.0012V16.5012C34.7239 16.5012 34.5 16.7251 34.5 17.0012ZM32 17.5012C31.7239 17.5012 31.5 17.2774 31.5 17.0012C31.5 16.7251 31.7239 16.5012 32 16.5012H33.5C33.7761 16.5012 34 16.7251 34 17.0012C34 17.2774 33.7761 17.5012 33.5 17.5012H32ZM29.5 16.0012C29.2239 16.0012 29 16.2251 29 16.5012V17.0012C29 17.2774 29.2239 17.5012 29.5 17.5012H30.5C30.7761 17.5012 31 17.2774 31 17.0012C31 16.7251 30.7761 16.5012 30.5 16.5012H30C30 16.2251 29.7761 16.0012 29.5 16.0012ZM29 13.5012C29 13.2251 29.2239 13.0012 29.5 13.0012C29.7761 13.0012 30 13.2251 30 13.5012V15.0012C30 15.2774 29.7761 15.5012 29.5 15.5012C29.2239 15.5012 29 15.2774 29 15.0012V13.5012ZM29.5 10.0012C29.2239 10.0012 29 10.2251 29 10.5012V12.0012C29 12.2774 29.2239 12.5012 29.5 12.5012C29.7761 12.5012 30 12.2774 30 12.0012V10.5012C30 10.2251 29.7761 10.0012 29.5 10.0012ZM32 9.50123C32.2761 9.50123 32.5 9.72509 32.5 10.0012C32.5 10.2774 32.2761 10.5012 32 10.5012H30.5C30.2239 10.5012 30 10.2774 30 10.0012C30 9.72509 30.2239 9.50123 30.5 9.50123H32Z" fill="#000091"/>
</svg>
