<svg width="41" height="41" viewBox="0 0 41 41" fill="none" xmlns="http://www.w3.org/2000/svg">
<path fill-rule="evenodd" clip-rule="evenodd" d="M35.5 35C35.2243 35 35 34.7757 35 34.5C35 34.2243 35.2243 34 35.5 34C35.7757 34 36 34.2243 36 34.5C36 34.7757 35.7757 35 35.5 35Z" fill="#ECECFE"/>
<path fill-rule="evenodd" clip-rule="evenodd" d="M34.5 7C34.2243 7 34 6.7757 34 6.5C34 6.22428 34.2243 6 34.5 6C34.7757 6 35 6.22428 35 6.5C35 6.7757 34.7757 7 34.5 7Z" fill="#ECECFE"/>
<path fill-rule="evenodd" clip-rule="evenodd" d="M7.5 35C7.2243 35 7 34.7757 7 34.5C7 34.2243 7.2243 34 7.5 34C7.7757 34 8 34.2243 8 34.5C8 34.7757 7.7757 35 7.5 35Z" fill="#ECECFE"/>
<path fill-rule="evenodd" clip-rule="evenodd" d="M10.1983 6.50313C10.2978 6.50104 10.3984 6.5 10.5 6.5L10.6516 6.50078C10.7019 6.5013 10.7519 6.50208 10.8017 6.50313L11.0969 6.5125L11.3847 6.5281C11.5267 6.53747 11.6657 6.54916 11.8013 6.56319L12.0678 6.59436C13.507 6.78289 14.5 7.25328 14.5 8V11C14.5 11.2761 14.2761 11.5 14 11.5C13.7436 11.5 13.5322 11.307 13.5034 11.0583L13.5 11V9.06305C13.1095 9.21878 12.6217 9.33308 12.0678 9.40564L11.8013 9.43681C11.6657 9.45084 11.5267 9.46253 11.3847 9.4719L11.0969 9.4875L10.8017 9.49688C10.7022 9.49896 10.6016 9.5 10.5 9.5C10.3984 9.5 10.2978 9.49896 10.1983 9.49688L9.90315 9.4875L9.61528 9.4719C9.47328 9.46253 9.33429 9.45084 9.19871 9.43681L8.93224 9.40564C7.49298 9.21711 6.5 8.74672 6.5 8C6.5 7.25328 7.49298 6.78289 8.93224 6.59436L9.19871 6.56319C9.33429 6.54916 9.47328 6.53747 9.61528 6.5281L9.90315 6.5125L10.1983 6.50313ZM13.5 8L13.4891 7.99301C13.3756 7.92867 13.2153 7.86351 13.0168 7.80331L12.9144 7.77366C12.2906 7.60107 11.4268 7.5 10.5003 7.5C9.57372 7.5 8.70995 7.60107 8.0861 7.77366C7.87505 7.83204 7.7009 7.89634 7.57205 7.96079L7.5 8L7.58509 8.04565C7.69057 8.0972 7.82487 8.14853 7.98369 8.19669L8.0861 8.22634C8.70995 8.39893 9.57372 8.5 10.5003 8.5C11.4268 8.5 12.2906 8.39893 12.9144 8.22634C13.1255 8.16796 13.2996 8.10366 13.4285 8.03921L13.5 8Z" fill="#18753C"/>
<path d="M30.3658 25.402C29.8361 24.8296 29.1114 24.5 28.3375 24.5C27.1001 24.5 26.0507 25.3361 25.6615 26.5H25L24.9417 26.5034C24.693 26.5322 24.5 26.7436 24.5 27C24.5 27.2761 24.7239 27.5 25 27.5H25.5C25.5 27.6703 25.5134 27.8374 25.5393 28H25L24.9417 28.0034C24.693 28.0322 24.5 28.2436 24.5 28.5C24.5 28.7761 24.7239 29 25 29H25.8797C26.3698 29.8959 27.2858 30.5 28.3375 30.5C29.0435 30.5 29.7099 30.2258 30.2256 29.7396C30.423 29.5535 30.437 29.2372 30.2569 29.0332C30.0768 28.8292 29.7707 28.8148 29.5733 29.0009C29.2337 29.3211 28.799 29.5 28.3375 29.5C27.8642 29.5 27.4309 29.3114 27.1009 29H28L28.0583 28.9966C28.307 28.9678 28.5 28.7564 28.5 28.5C28.5 28.2239 28.2761 28 28 28H26.5266C26.4882 27.8403 26.4677 27.6728 26.4677 27.5H28L28.0583 27.4966C28.307 27.4678 28.5 27.2564 28.5 27C28.5 26.7239 28.2761 26.5 28 26.5H26.7178C27.0416 25.9014 27.647 25.5 28.3375 25.5C28.8434 25.5 29.3168 25.7153 29.6664 26.0931C29.8511 26.2927 30.1574 26.2998 30.3506 26.1089C30.5437 25.918 30.5505 25.6015 30.3658 25.402Z" fill="#18753C"/>
<path d="M7 10.5C7.25642 10.5 7.46775 10.6755 7.49664 10.9015L7.5 10.9545V20.0455C7.5 20.2965 7.27614 20.5 7 20.5C6.74358 20.5 6.53225 20.3245 6.50336 20.0985L6.5 20.0455V10.9545C6.5 10.7035 6.72386 10.5 7 10.5Z" fill="#18753C"/>
<path d="M7 22.5C7.27614 22.5 7.5 22.2761 7.5 22C7.5 21.7239 7.27614 21.5 7 21.5C6.72386 21.5 6.5 21.7239 6.5 22C6.5 22.2761 6.72386 22.5 7 22.5Z" fill="#18753C"/>
<path fill-rule="evenodd" clip-rule="evenodd" d="M30.5 14.5C30.3984 14.5 30.2978 14.501 30.1983 14.5031L29.9031 14.5125L29.6153 14.5281C29.4733 14.5375 29.3343 14.5492 29.1987 14.5632L28.9322 14.5944C27.493 14.7829 26.5 15.2533 26.5 16C26.5 16.7467 27.493 17.2171 28.9322 17.4056L29.1987 17.4368C29.3343 17.4508 29.4733 17.4625 29.6153 17.4719L29.9031 17.4875L30.1983 17.4969C30.2978 17.499 30.3984 17.5 30.5 17.5C30.6016 17.5 30.7022 17.499 30.8017 17.4969L31.0969 17.4875L31.3847 17.4719C31.5267 17.4625 31.6657 17.4508 31.8013 17.4368L32.0678 17.4056C32.6217 17.3331 33.1095 17.2188 33.5 17.063V19L33.5034 19.0583C33.5322 19.307 33.7436 19.5 34 19.5C34.2761 19.5 34.5 19.2761 34.5 19V16C34.5 15.2533 33.507 14.7829 32.0678 14.5944L31.8013 14.5632C31.6657 14.5492 31.5267 14.5375 31.3847 14.5281L31.0969 14.5125L30.8017 14.5031C30.7519 14.5021 30.7019 14.5013 30.6516 14.5008L30.5 14.5ZM33.4285 16.0392L33.5 16L33.4891 15.993C33.3756 15.9287 33.2153 15.8635 33.0168 15.8033L32.9144 15.7737C32.2906 15.6011 31.4268 15.5 30.5003 15.5C29.5737 15.5 28.71 15.6011 28.0861 15.7737C27.875 15.832 27.7009 15.8963 27.5721 15.9608L27.5 16L27.5851 16.0456C27.6906 16.0972 27.8249 16.1485 27.9837 16.1967L28.0861 16.2263C28.71 16.3989 29.5737 16.5 30.5003 16.5C31.4268 16.5 32.2906 16.3989 32.9144 16.2263C33.1255 16.168 33.2996 16.1037 33.4285 16.0392Z" fill="#18753C"/>
<path d="M27.4966 17.9417C27.4678 17.693 27.2564 17.5 27 17.5C26.7239 17.5 26.5 17.7239 26.5 18V20L26.5034 20.0583C26.5322 20.307 26.7436 20.5 27 20.5C27.2761 20.5 27.5 20.2761 27.5 20V18L27.4966 17.9417Z" fill="#18753C"/>
<path fill-rule="evenodd" clip-rule="evenodd" d="M18.831 11.5L18.497 11.506C18.4418 11.5075 18.3868 11.5093 18.3321 11.5112L18.0071 11.5262L17.6888 11.5469C17.5314 11.5588 17.3767 11.5728 17.225 11.5889L16.9258 11.6241C16.8766 11.6304 16.8278 11.6369 16.7794 11.6437L16.4934 11.6873C14.7114 11.981 13.5 12.6085 13.5 13.4996V15.7858L13.5024 15.8599C13.5036 15.8781 13.5053 15.8961 13.5074 15.9141C13.5025 15.942 13.5 15.9707 13.5 16V18.2858L13.5024 18.3599C13.5036 18.3781 13.5053 18.3961 13.5074 18.4141C13.5025 18.442 13.5 18.4707 13.5 18.5V20.7858L13.5024 20.8599C13.5036 20.878 13.5053 20.896 13.5073 20.9138C13.5025 20.9417 13.5 20.9703 13.5 20.9996V23.2854L13.5024 23.3595C13.5071 23.4296 13.5183 23.4982 13.5358 23.5654C13.4616 23.5588 13.3867 23.5526 13.3112 23.5469L12.9929 23.5262L12.6679 23.5112C12.6132 23.5093 12.5582 23.5075 12.503 23.506L12.169 23.5H11.831L11.497 23.506C11.4418 23.5075 11.3868 23.5093 11.3321 23.5112L11.0071 23.5262L10.6888 23.5469C10.5314 23.5588 10.3767 23.5728 10.225 23.5889L9.92581 23.6241C9.87665 23.6304 9.82785 23.6369 9.77942 23.6437L9.4934 23.6873C7.7114 23.981 6.5 24.6085 6.5 25.4996V27.7855L6.50244 27.8596C6.50364 27.8778 6.50528 27.8959 6.50736 27.9139C6.50252 27.9418 6.5 27.9705 6.5 27.9998V30.2856L6.50244 30.3597C6.56724 31.3409 7.919 32.0428 9.82558 32.3408L10.1156 32.3825C10.2136 32.3954 10.313 32.4072 10.4135 32.418L10.7185 32.4473C11.1298 32.4821 11.5589 32.5 12 32.5C12.4411 32.5 12.8702 32.4821 13.2815 32.4473L13.5865 32.418C13.687 32.4072 13.7864 32.3954 13.8844 32.3825L14.1744 32.3408C16.0433 32.0487 17.3791 31.3685 17.4922 30.4176C17.9692 30.472 18.4672 30.5 18.9749 30.5C20.22 30.5 21.7453 30.3408 22.592 30.1018C23.5612 32.1125 25.6186 33.5 28 33.5C31.3137 33.5 34 30.8136 34 27.4998C34 24.186 31.3137 21.4996 28 21.4996C26.6938 21.4996 25.4851 21.917 24.5 22.6257V20.9996L24.4966 20.9413C24.4961 20.9366 24.4955 20.932 24.4948 20.9274C24.4942 20.9228 24.4935 20.9183 24.4927 20.9138C24.4975 20.8717 24.5 20.829 24.5 20.7858V18.5L24.4966 18.4417C24.4956 18.4324 24.4942 18.4232 24.4926 18.4141C24.4975 18.3719 24.5 18.3291 24.5 18.2858V16L24.4966 15.9417C24.4956 15.9324 24.4942 15.9232 24.4926 15.9141C24.4975 15.8719 24.5 15.8291 24.5 15.7858V13.5C24.5 12.6323 23.3515 12.0142 21.6461 11.7112L21.3647 11.6648C21.2694 11.6503 21.1725 11.6367 21.0742 11.6241L20.775 11.5889C20.6233 11.5728 20.4686 11.5588 20.3112 11.5469L19.9929 11.5262L19.6679 11.5112C19.6132 11.5093 19.5582 11.5075 19.503 11.506L19.169 11.5H18.831ZM22.5301 25.0304C22.1238 25.1594 21.6677 25.2635 21.1744 25.3406L20.8844 25.3823C20.7864 25.3951 20.687 25.407 20.5865 25.4178L20.2815 25.447C19.8702 25.4818 19.4411 25.4997 19 25.4997C18.5589 25.4997 18.1298 25.4818 17.7185 25.447L17.4972 25.4258C17.4991 25.4502 17.5 25.4748 17.5 25.4996V26.7965C17.9769 26.8558 18.48 26.8866 18.995 26.8866C20.0127 26.8866 21.2255 26.7698 22.0685 26.5902C22.1518 26.0424 22.3092 25.519 22.5301 25.0304ZM22.0045 27.7338C21.1175 27.8989 19.9752 28 18.995 28C18.4804 28 17.9758 27.9713 17.4929 27.9154L17.4945 27.9251L17.4958 27.9347L17.4966 27.9415L17.5 27.9998V29.3026C17.9709 29.3604 18.4671 29.3904 18.9749 29.3904C20.0756 29.3904 21.424 29.2563 22.2058 29.0634C22.091 28.6371 22.0221 28.192 22.0045 27.7338ZM14.5 15.7858V14.7228C14.9816 14.9667 15.6155 15.1569 16.3539 15.288L16.6353 15.3344C16.7306 15.3489 16.8275 15.3625 16.9258 15.3752L17.225 15.4103C17.3767 15.4265 17.5314 15.4405 17.6888 15.4523L18.0071 15.4731L18.3321 15.488C18.3868 15.49 18.4418 15.4917 18.497 15.4932L18.831 15.4992C18.8871 15.4997 18.9435 15.5 19 15.5L19.169 15.4992L19.503 15.4932C19.5582 15.4917 19.6132 15.49 19.6679 15.488L19.9929 15.4731L20.3112 15.4523C20.4686 15.4405 20.6233 15.4265 20.775 15.4103L21.0742 15.3752C21.1234 15.3689 21.1722 15.3623 21.2206 15.3555L21.5066 15.3119C22.3047 15.1804 22.9884 14.9819 23.5 14.7228V15.7858L23.4965 15.8164C23.4569 15.9959 23.0807 16.2825 22.3734 16.525C21.4977 16.8253 20.292 17.0001 19 17.0001C17.708 17.0001 16.5023 16.8253 15.6266 16.525C14.8777 16.2683 14.5 15.9621 14.5 15.7858ZM14.8863 13.836C14.6382 13.719 14.5 13.6021 14.5 13.5002C14.5 13.3982 14.6382 13.2814 14.8863 13.1644L15.0194 13.106C15.0668 13.0865 15.117 13.0671 15.1701 13.0479L15.3375 12.9906C15.396 12.9717 15.4571 12.953 15.5208 12.9345L15.7194 12.8801C15.7537 12.8711 15.7886 12.8623 15.8241 12.8535L16.0439 12.8022C16.1194 12.7855 16.1972 12.7693 16.277 12.7535L16.5224 12.7079L16.7796 12.6657C16.8234 12.659 16.8676 12.6524 16.9123 12.646L17.1854 12.6097L17.4682 12.5779L17.7599 12.5509C17.8585 12.5428 17.9585 12.5356 18.0597 12.5293L18.3669 12.5133L18.6806 12.5034C18.7333 12.5023 18.7864 12.5014 18.8396 12.5009L19 12.5C19.1074 12.5 19.2139 12.5012 19.3194 12.5034L19.6331 12.5133L19.9403 12.5293C20.0415 12.5356 20.1415 12.5428 20.2401 12.5509L20.5318 12.5779L20.8146 12.6097L21.0877 12.646L21.3504 12.6863C21.3933 12.6934 21.4357 12.7006 21.4776 12.7079L21.723 12.7535C21.7629 12.7614 21.8023 12.7694 21.8412 12.7775L22.0677 12.8276C22.141 12.8447 22.212 12.8622 22.2806 12.8801L22.4792 12.9345C22.511 12.9438 22.5422 12.953 22.5728 12.9624L22.7483 13.0191C22.832 13.0478 22.9096 13.0768 22.9806 13.106L23.1137 13.1644C23.3618 13.2814 23.5 13.3982 23.5 13.5002C23.5 13.6021 23.3618 13.719 23.1137 13.836L22.9806 13.8944C22.9332 13.9139 22.883 13.9332 22.8299 13.9525L22.6625 14.0098C22.604 14.0287 22.5429 14.0474 22.4792 14.0658L22.2806 14.1203C22.2463 14.1293 22.2114 14.1381 22.1759 14.1468L21.9561 14.1981C21.8806 14.2148 21.8028 14.2311 21.723 14.2468L21.4776 14.2925L21.2204 14.3347C21.1766 14.3414 21.1324 14.348 21.0877 14.3544L20.8146 14.3907L20.5318 14.4225L20.2401 14.4494C20.1415 14.4576 20.0415 14.4648 19.9403 14.4711L19.6331 14.4871L19.3194 14.497C19.2139 14.4992 19.1074 14.5004 19 14.5004C18.8926 14.5004 18.7861 14.4992 18.6806 14.497L18.3669 14.4871L18.0597 14.4711C17.9585 14.4648 17.8585 14.4576 17.7599 14.4494L17.4682 14.4225L17.1854 14.3907L16.9123 14.3544L16.6496 14.314C16.6067 14.307 16.5643 14.2998 16.5224 14.2925L16.277 14.2468C16.2371 14.239 16.1977 14.231 16.1588 14.2228L15.9323 14.1728C15.859 14.1557 15.788 14.1382 15.7194 14.1203L15.5208 14.0658C15.489 14.0566 15.4578 14.0473 15.4272 14.038L15.2517 13.9812C15.168 13.9526 15.0904 13.9236 15.0194 13.8944L14.8863 13.836ZM14.5 18.2858V17.1218C15.0824 17.4496 15.8867 17.6943 16.8256 17.841L17.1156 17.8827C17.2136 17.8956 17.313 17.9074 17.4135 17.9182L17.7185 17.9475C18.1298 17.9823 18.5589 18.0002 19 18.0002C19.4411 18.0002 19.8702 17.9823 20.2815 17.9475L20.5865 17.9182C20.687 17.9074 20.7864 17.8956 20.8844 17.8827L21.1744 17.841C22.1133 17.6943 22.9176 17.4496 23.5 17.1218V18.2858L23.4965 18.3164C23.4569 18.4959 23.0807 18.7825 22.3734 19.025C21.4977 19.3253 20.292 19.5001 19 19.5001C17.708 19.5001 16.5023 19.3253 15.6266 19.025C14.8777 18.7683 14.5 18.4621 14.5 18.2858ZM16.5 29.1215C15.9176 29.4493 15.1133 29.694 14.1744 29.8408L13.8844 29.8824C13.7864 29.8953 13.687 29.9071 13.5865 29.9179L13.2815 29.9472C12.8702 29.982 12.4411 29.9999 12 29.9999C11.5589 29.9999 11.1298 29.982 10.7185 29.9472L10.4135 29.9179C10.313 29.9071 10.2136 29.8953 10.1156 29.8824L9.82558 29.8408C8.8867 29.694 8.08236 29.4493 7.5 29.1215V30.2856C7.5 30.4619 7.87773 30.7681 8.62663 31.0248C9.50231 31.3251 10.708 31.4999 12 31.4999C13.292 31.4999 14.4977 31.3251 15.3734 31.0248C16.0807 30.7823 16.4569 30.4957 16.4965 30.3162L16.5 30.2856V29.1215ZM14.5 19.6218C15.0824 19.9496 15.8867 20.1943 16.8256 20.341L17.1156 20.3827C17.2136 20.3956 17.313 20.4074 17.4135 20.4182L17.7185 20.4475C18.1298 20.4823 18.5589 20.5002 19 20.5002C19.4411 20.5002 19.8702 20.4823 20.2815 20.4475L20.5865 20.4182C20.687 20.4074 20.7864 20.3956 20.8844 20.3827L21.1744 20.341C22.1133 20.1943 22.9176 19.9496 23.5 19.6218V20.7858L23.4965 20.8164C23.4569 20.9959 23.0807 21.2825 22.3734 21.525C21.4977 21.8253 20.292 22.0001 19 22.0001C17.708 22.0001 16.5023 21.8253 15.6266 21.525C14.8777 21.2683 14.5 20.9621 14.5 20.7858V19.6218ZM23.5 23.2854V22.1218C22.9176 22.4496 22.1133 22.6943 21.1744 22.841L20.8844 22.8827C20.7864 22.8956 20.687 22.9074 20.5865 22.9182L20.2815 22.9475C19.8702 22.9823 19.4411 23.0002 19 23.0002C18.5589 23.0002 18.1298 22.9823 17.7185 22.9475L17.4135 22.9182C17.313 22.9074 17.2136 22.8956 17.1156 22.8827L16.8256 22.841C15.8867 22.6943 15.0824 22.4496 14.5 22.1218V23.2854C14.5 23.4114 14.693 23.6038 15.0767 23.797C15.6049 23.9146 16.0673 24.0657 16.4425 24.248C17.1906 24.4097 18.0731 24.4997 19 24.4997C20.292 24.4997 21.4977 24.3248 22.3734 24.0246C23.0807 23.7821 23.4569 23.4955 23.4965 23.3159L23.5 23.2854ZM16.2494 25.2346C15.6903 25.1153 15.1932 24.9575 14.7808 24.7651C14.7616 24.7612 14.7424 24.7574 14.723 24.7535L14.4776 24.7079C14.4357 24.7006 14.3933 24.6934 14.3504 24.6863L14.0877 24.646L13.8146 24.6097L13.5318 24.5779L13.2401 24.5509C13.1415 24.5428 13.0415 24.5356 12.9403 24.5293L12.6331 24.5133L12.3194 24.5034C12.2139 24.5012 12.1074 24.5 12 24.5L11.8396 24.5009C11.7864 24.5014 11.7333 24.5023 11.6806 24.5034L11.3669 24.5133L11.0597 24.5293C10.9585 24.5356 10.8585 24.5428 10.7599 24.5509L10.4682 24.5779L10.1854 24.6097L9.91226 24.646C9.86759 24.6524 9.82335 24.659 9.77957 24.6657L9.52244 24.7079L9.27696 24.7535C9.19716 24.7693 9.11943 24.7855 9.04391 24.8022L8.82408 24.8535C8.78858 24.8623 8.75367 24.8711 8.71936 24.8801L8.52083 24.9345C8.45713 24.953 8.39597 24.9717 8.33747 24.9906L8.17008 25.0479C8.11704 25.0671 8.06678 25.0865 8.01945 25.106L7.88635 25.1644C7.63821 25.2814 7.5 25.3982 7.5 25.5002C7.5 25.6021 7.63821 25.719 7.88635 25.836L8.01945 25.8944C8.09045 25.9236 8.16802 25.9526 8.25173 25.9812L8.4272 26.038C8.45777 26.0473 8.48898 26.0566 8.52083 26.0658L8.71936 26.1203C8.78798 26.1382 8.859 26.1557 8.93229 26.1728L9.15883 26.2228C9.19768 26.231 9.23706 26.239 9.27696 26.2468L9.52244 26.2925C9.56435 26.2998 9.60674 26.307 9.6496 26.314L9.91226 26.3544L10.1854 26.3907L10.4682 26.4225L10.7599 26.4494C10.8585 26.4576 10.9585 26.4648 11.0597 26.4711L11.3669 26.4871L11.6806 26.497C11.7861 26.4992 11.8926 26.5004 12 26.5004C12.1074 26.5004 12.2139 26.4992 12.3194 26.497L12.6331 26.4871L12.9403 26.4711C13.0415 26.4648 13.1415 26.4576 13.2401 26.4494L13.5318 26.4225L13.8146 26.3907L14.0877 26.3544C14.1324 26.348 14.1766 26.3414 14.2204 26.3347L14.4776 26.2925L14.723 26.2468C14.8028 26.2311 14.8806 26.2148 14.9561 26.1981L15.1759 26.1468C15.2114 26.1381 15.2463 26.1293 15.2806 26.1203L15.4792 26.0658C15.5429 26.0474 15.604 26.0287 15.6625 26.0098L15.8299 25.9525C15.883 25.9332 15.9332 25.9139 15.9806 25.8944L16.1137 25.836C16.3618 25.719 16.5 25.6021 16.5 25.5002C16.5 25.4187 16.4116 25.3276 16.2494 25.2346ZM16.5 27.7855V26.7228C15.9884 26.9819 15.3047 27.1804 14.5066 27.3119L14.2206 27.3555C14.1722 27.3623 14.1234 27.3689 14.0742 27.3752L13.775 27.4103C13.6233 27.4265 13.4686 27.4405 13.3112 27.4523L12.9929 27.4731L12.6679 27.488C12.6132 27.49 12.5582 27.4917 12.503 27.4932L12.169 27.4992L12 27.5C11.9435 27.5 11.8871 27.4997 11.831 27.4992L11.497 27.4932C11.4418 27.4917 11.3868 27.49 11.3321 27.488L11.0071 27.4731L10.6888 27.4523C10.5314 27.4405 10.3767 27.4265 10.225 27.4103L9.92581 27.3752C9.82749 27.3625 9.73061 27.3489 9.63526 27.3344L9.35391 27.288C8.61554 27.1569 7.98157 26.9667 7.5 26.7228V27.7855C7.5 27.9618 7.87773 28.268 8.62663 28.5248C9.50231 28.825 10.708 28.9998 12 28.9998C13.292 28.9998 14.4977 28.825 15.3734 28.5248C16.0807 28.2822 16.4569 27.9956 16.4965 27.8161L16.5 27.7855ZM28 22.4996C30.7614 22.4996 33 24.7383 33 27.4998C33 30.2613 30.7614 32.5 28 32.5C25.2386 32.5 23 30.2613 23 27.4998C23 24.7383 25.2386 22.4996 28 22.4996Z" fill="#000091"/>
<path d="M31.2107 20.5466C30.9603 20.4303 30.6629 20.5391 30.5466 20.7895C30.4303 21.04 30.5391 21.3373 30.7895 21.4536C33.0318 22.4949 34.5001 24.6775 34.5001 27.0003C34.5001 27.2765 34.724 27.5004 35.0001 27.5004C35.2763 27.5004 35.5001 27.2765 35.5001 27.0003C35.5001 24.2785 33.7977 21.748 31.2107 20.5466Z" fill="#000091"/>
</svg>
