<svg width="40" height="40" viewBox="0 0 40 40" fill="none" xmlns="http://www.w3.org/2000/svg">
<path d="M5.5 3C5.5 3.3 5.3 3.5 5 3.5C4.7 3.5 4.5 3.3 4.5 3C4.5 2.7 4.7 2.5 5 2.5C5.3 2.5 5.5 2.7 5.5 3Z" fill="#ECECFE"/>
<path d="M20.5 5C20.5 5.3 20.3 5.5 20 5.5C19.7 5.5 19.5 5.3 19.5 5C19.5 4.7 19.7 4.5 20 4.5C20.3 4.5 20.5 4.7 20.5 5Z" fill="#ECECFE"/>
<path d="M38.5 8C38.5 8.3 38.3 8.5 38 8.5C37.7 8.5 37.5 8.3 37.5 8C37.5 7.7 37.7 7.5 38 7.5C38.3 7.5 38.5 7.7 38.5 8Z" fill="#ECECFE"/>
<path d="M35 35.5C35.2761 35.5 35.5 35.2761 35.5 35C35.5 34.7239 35.2761 34.5 35 34.5C34.7239 34.5 34.5 34.7239 34.5 35C34.5 35.2761 34.7239 35.5 35 35.5Z" fill="#ECECFE"/>
<path d="M11 37.5C11.2761 37.5 11.5 37.2761 11.5 37C11.5 36.7239 11.2761 36.5 11 36.5C10.7239 36.5 10.5 36.7239 10.5 37C10.5 37.2761 10.7239 37.5 11 37.5Z" fill="#ECECFE"/>
<path d="M2 31.5C2.27614 31.5 2.5 31.2761 2.5 31C2.5 30.7239 2.27614 30.5 2 30.5C1.72386 30.5 1.5 30.7239 1.5 31C1.5 31.2761 1.72386 31.5 2 31.5Z" fill="#ECECFE"/>
<path fill-rule="evenodd" clip-rule="evenodd" d="M26.5 19C26.5 19.8284 25.8284 20.5 25 20.5C24.1716 20.5 23.5 19.8284 23.5 19C23.5 18.1716 24.1716 17.5 25 17.5C25.8284 17.5 26.5 18.1716 26.5 19ZM27.5 19C27.5 20.3807 26.3807 21.5 25 21.5C23.6193 21.5 22.5 20.3807 22.5 19C22.5 17.6193 23.6193 16.5 25 16.5C26.3807 16.5 27.5 17.6193 27.5 19ZM26.6036 27.3536C26.4083 27.5488 26.0917 27.5488 25.8965 27.3536L17.3235 18.7806C17.1342 18.5913 16.8294 18.5847 16.6321 18.7656L14.3379 20.8686C14.1343 21.0552 13.818 21.0414 13.6314 20.8379C13.4448 20.6343 13.4586 20.318 13.6621 20.1314L15.9563 18.0284C16.5483 17.4857 17.4627 17.5056 18.0306 18.0735L24.5065 24.5494L27.4127 22.0307C28.0412 21.486 28.9928 21.5566 29.534 22.188L30.3796 23.1746C30.5593 23.3843 30.5351 23.6999 30.3254 23.8796C30.1157 24.0593 29.8001 24.0351 29.6204 23.8254L28.7747 22.8388C28.5943 22.6283 28.2771 22.6048 28.0676 22.7864L25.2154 25.2583L26.6036 26.6464C26.7988 26.8417 26.7988 27.1583 26.6036 27.3536Z" fill="#18753C"/>
<path fill-rule="evenodd" clip-rule="evenodd" d="M12 13.5C11.1716 13.5 10.5 14.1716 10.5 15V29C10.5 29.8284 11.1716 30.5 12 30.5H13.5C13.7761 30.5 14 30.7239 14 31C14 31.2761 13.7761 31.5 13.5 31.5H12C10.6193 31.5 9.5 30.3807 9.5 29V15C9.5 13.6193 10.6193 12.5 12 12.5H27C27.2761 12.5 27.5 12.7239 27.5 13C27.5 13.2761 27.2761 13.5 27 13.5H12Z" fill="#000091"/>
<path fill-rule="evenodd" clip-rule="evenodd" d="M13 15.5C12.7239 15.5 12.5 15.7239 12.5 16V28C12.5 28.2761 12.7239 28.5 13 28.5H24.25V29.5H13C12.1716 29.5 11.5 28.8284 11.5 28V16C11.5 15.1716 12.1716 14.5 13 14.5H29C29.2761 14.5 29.5 14.7239 29.5 15C29.5 15.2761 29.2761 15.5 29 15.5H13Z" fill="#000091"/>
<path fill-rule="evenodd" clip-rule="evenodd" d="M24 15C24 14.7239 24.2239 14.5 24.5 14.5H31.5C32.3284 14.5 33 15.1716 33 16V28C33 28.8284 32.3284 29.5 31.5 29.5H23.75V28.5H31.5C31.7761 28.5 32 28.2761 32 28V16C32 15.7239 31.7761 15.5 31.5 15.5H24.5C24.2239 15.5 24 15.2761 24 15Z" fill="#000091"/>
<path fill-rule="evenodd" clip-rule="evenodd" d="M9.25 9.5C7.73122 9.5 6.5 10.7312 6.5 12.25V25C6.5 25.2761 6.27614 25.5 6 25.5C5.72386 25.5 5.5 25.2761 5.5 25V12.25C5.5 10.1789 7.17893 8.5 9.25 8.5H14C14.2761 8.5 14.5 8.72386 14.5 9C14.5 9.27614 14.2761 9.5 14 9.5H9.25Z" fill="#000091"/>
<path fill-rule="evenodd" clip-rule="evenodd" d="M10.75 11.5C9.50736 11.5 8.5 12.5074 8.5 13.75V27C8.5 27.2761 8.27614 27.5 8 27.5C7.72386 27.5 7.5 27.2761 7.5 27V13.75C7.5 11.9551 8.95507 10.5 10.75 10.5H28.5C28.7761 10.5 29 10.7239 29 11C29 11.2761 28.7761 11.5 28.5 11.5H10.75Z" fill="#000091"/>
<path fill-rule="evenodd" clip-rule="evenodd" d="M16 9C16 8.72386 16.2239 8.5 16.5 8.5H27.5C28.8807 8.5 30 9.61929 30 11H29C29 10.1716 28.3284 9.5 27.5 9.5H16.5C16.2239 9.5 16 9.27614 16 9Z" fill="#000091"/>
<path fill-rule="evenodd" clip-rule="evenodd" d="M18.5 11C18.5 10.7239 18.7239 10.5 19 10.5H30C31.3807 10.5 32.5 11.6193 32.5 13H31.5C31.5 12.1716 30.8284 11.5 30 11.5H19C18.7239 11.5 18.5 11.2761 18.5 11Z" fill="#000091"/>
<path fill-rule="evenodd" clip-rule="evenodd" d="M29 13C29 12.7239 29.2239 12.5 29.5 12.5H32.5C33.8807 12.5 35 13.6193 35 15V29C35 30.3807 33.8807 31.5 32.5 31.5H22.5C22.2239 31.5 22 31.2761 22 31C22 30.7239 22.2239 30.5 22.5 30.5H32.5C33.3284 30.5 34 29.8284 34 29V15C34 14.1716 33.3284 13.5 32.5 13.5H29.5C29.2239 13.5 29 13.2761 29 13Z" fill="#000091"/>
</svg>
