<svg width="40" height="40" viewBox="0 0 40 40" fill="none" xmlns="http://www.w3.org/2000/svg">
<path fill-rule="evenodd" clip-rule="evenodd" d="M36.5 9C36.2243 9 36 8.7757 36 8.5C36 8.22428 36.2243 8 36.5 8C36.7757 8 37 8.22428 37 8.5C37 8.7757 36.7757 9 36.5 9Z" fill="#ECECFE"/>
<path fill-rule="evenodd" clip-rule="evenodd" d="M3.5 9C3.2243 9 3 8.7757 3 8.5C3 8.22428 3.2243 8 3.5 8C3.7757 8 4 8.22428 4 8.5C4 8.7757 3.7757 9 3.5 9Z" fill="#ECECFE"/>
<path fill-rule="evenodd" clip-rule="evenodd" d="M5.5 34C5.2243 34 5 33.7757 5 33.5C5 33.2243 5.2243 33 5.5 33C5.7757 33 6 33.2243 6 33.5C6 33.7757 5.7757 34 5.5 34Z" fill="#ECECFE"/>
<path fill-rule="evenodd" clip-rule="evenodd" d="M9.5 3C9.2243 3 9 2.7757 9 2.5C9 2.22428 9.2243 2 9.5 2C9.7757 2 10 2.22428 10 2.5C10 2.7757 9.7757 3 9.5 3Z" fill="#ECECFE"/>
<path fill-rule="evenodd" clip-rule="evenodd" d="M27.5 39C27.2243 39 27 38.7757 27 38.5C27 38.2243 27.2243 38 27.5 38C27.7757 38 28 38.2243 28 38.5C28 38.7757 27.7757 39 27.5 39Z" fill="#ECECFE"/>
<path d="M27.0183 20.3659C27.0924 20.0999 27.3681 19.9443 27.6341 20.0183C28.8039 20.3441 29.7007 21.2615 29.9381 22.3991C29.9945 22.6694 29.8211 22.9343 29.5508 22.9907C29.2805 23.0471 29.0156 22.8737 28.9592 22.6034C28.7999 21.8402 28.1832 21.2093 27.3659 20.9817C27.0999 20.9076 26.9443 20.6319 27.0183 20.3659Z" fill="#18753C"/>
<path fill-rule="evenodd" clip-rule="evenodd" d="M22 23C22 20.2424 24.2425 18 27 18C29.7575 18 32 20.2424 32 23C32 24.2831 31.5145 25.4546 30.7174 26.3407L33.6651 31.4462C34.0793 32.1636 33.8335 33.081 33.116 33.4952C32.4242 33.8946 31.5465 33.6803 31.1133 33.0212L31.067 32.9462L28.1362 27.8699C27.7711 27.955 27.3907 28 27 28C24.2426 28 22 25.7574 22 23ZM29.0992 27.5379L31.933 32.4462C32.0711 32.6853 32.3769 32.7672 32.616 32.6292C32.8381 32.501 32.9246 32.2281 32.8253 31.9983L32.799 31.9462L29.9596 27.028C29.6918 27.2252 29.4038 27.3964 29.0992 27.5379ZM31 23C31 20.7947 29.2052 19 27 19C24.7948 19 23 20.7947 23 23C23 25.2052 24.7948 27 27 27C29.2052 27 31 25.2052 31 23Z" fill="#18753C"/>
<path d="M34.4966 8.94169C34.4678 8.69302 34.2564 8.5 34 8.5H7L6.94169 8.50336C6.69302 8.53225 6.5 8.74358 6.5 9V32L6.50336 32.0583C6.53225 32.307 6.74358 32.5 7 32.5H28L28.0583 32.4966C28.307 32.4678 28.5 32.2564 28.5 32L28.4966 31.9417C28.4678 31.693 28.2564 31.5 28 31.5H7.5V13.5H26L26.0583 13.4966C26.307 13.4678 26.5 13.2564 26.5 13C26.5 12.7239 26.2761 12.5 26 12.5H7.5V9.5H33.5V12.5H29L28.9417 12.5034C28.693 12.5322 28.5 12.7436 28.5 13C28.5 13.2761 28.7239 13.5 29 13.5H33.5V28L33.5034 28.0583C33.5322 28.307 33.7436 28.5 34 28.5C34.2761 28.5 34.5 28.2761 34.5 28V9L34.4966 8.94169Z" fill="#000091"/>
<path d="M9 11.5C8.7243 11.5 8.5 11.2757 8.5 11C8.5 10.7243 8.7243 10.5 9 10.5C9.2757 10.5 9.5 10.7243 9.5 11C9.5 11.2757 9.2757 11.5 9 11.5Z" fill="#000091"/>
<path d="M10.5 11C10.5 11.2757 10.7243 11.5 11 11.5C11.2757 11.5 11.5 11.2757 11.5 11C11.5 10.7243 11.2757 10.5 11 10.5C10.7243 10.5 10.5 10.7243 10.5 11Z" fill="#000091"/>
<path d="M13 11.5C12.7243 11.5 12.5 11.2757 12.5 11C12.5 10.7243 12.7243 10.5 13 10.5C13.2757 10.5 13.5 10.7243 13.5 11C13.5 11.2757 13.2757 11.5 13 11.5Z" fill="#000091"/>
<path d="M32 10.5C32.2761 10.5 32.5 10.7239 32.5 11C32.5 11.2564 32.307 11.4678 32.0583 11.4966L32 11.5H17C16.7239 11.5 16.5 11.2761 16.5 11C16.5 10.7436 16.693 10.5322 16.9417 10.5034L17 10.5H32Z" fill="#000091"/>
<path d="M20.5 17C20.5 16.7239 20.2761 16.5 20 16.5H11L10.9417 16.5034C10.693 16.5322 10.5 16.7436 10.5 17C10.5 17.2761 10.7239 17.5 11 17.5H20L20.0583 17.4966C20.307 17.4678 20.5 17.2564 20.5 17Z" fill="#000091"/>
<path d="M18 19.5C18.2761 19.5 18.5 19.7239 18.5 20C18.5 20.2564 18.307 20.4678 18.0583 20.4966L18 20.5H11C10.7239 20.5 10.5 20.2761 10.5 20C10.5 19.7436 10.693 19.5322 10.9417 19.5034L11 19.5H18Z" fill="#000091"/>
<path d="M17.5 23C17.5 22.7239 17.2761 22.5 17 22.5H11L10.9417 22.5034C10.693 22.5322 10.5 22.7436 10.5 23C10.5 23.2761 10.7239 23.5 11 23.5H17L17.0583 23.4966C17.307 23.4678 17.5 23.2564 17.5 23Z" fill="#000091"/>
</svg>
