<svg width="40" height="40" viewBox="0 0 40 40" fill="none" xmlns="http://www.w3.org/2000/svg">
<path fill-rule="evenodd" clip-rule="evenodd" d="M9.5 36C9.2243 36 9 35.7757 9 35.5C9 35.2243 9.2243 35 9.5 35C9.7757 35 10 35.2243 10 35.5C10 35.7757 9.7757 36 9.5 36Z" fill="#ECECFE"/>
<path fill-rule="evenodd" clip-rule="evenodd" d="M15.5 5C15.2243 5 15 4.7757 15 4.5C15 4.22428 15.2243 4 15.5 4C15.7757 4 16 4.22428 16 4.5C16 4.7757 15.7757 5 15.5 5Z" fill="#ECECFE"/>
<path fill-rule="evenodd" clip-rule="evenodd" d="M33.5 33C33.2243 33 33 32.7757 33 32.5C33 32.2243 33.2243 32 33.5 32C33.7757 32 34 32.2243 34 32.5C34 32.7757 33.7757 33 33.5 33Z" fill="#ECECFE"/>
<path fill-rule="evenodd" clip-rule="evenodd" d="M33.5 8C33.2243 8 33 7.7757 33 7.5C33 7.22428 33.2243 7 33.5 7C33.7757 7 34 7.22428 34 7.5C34 7.7757 33.7757 8 33.5 8Z" fill="#ECECFE"/>
<path fill-rule="evenodd" clip-rule="evenodd" d="M4.5 16C4.2243 16 4 15.7757 4 15.5C4 15.2243 4.2243 15 4.5 15C4.7757 15 5 15.2243 5 15.5C5 15.7757 4.7757 16 4.5 16Z" fill="#ECECFE"/>
<path d="M18.4327 15.5177C18.5708 15.2785 18.4888 14.9727 18.2497 14.8346C17.0555 14.1452 15.5241 14.5555 14.8346 15.7497C14.1452 16.9439 14.5555 18.4753 15.7497 19.1648C16.9439 19.8542 18.4753 19.4439 19.1648 18.2497C19.3028 18.0106 19.2209 17.7048 18.9817 17.5667C18.7426 17.4286 18.4368 17.5106 18.2987 17.7497L18.2525 17.8246C17.82 18.4824 16.94 18.6973 16.2497 18.2987C15.5338 17.8854 15.2873 16.9656 15.7007 16.2497C16.114 15.5338 17.0338 15.2873 17.7497 15.7007C17.9888 15.8387 18.2946 15.7568 18.4327 15.5177Z" fill="#18753C"/>
<path d="M24.0386 26.7552C23.9487 27.0163 24.0875 27.3008 24.3486 27.3907C25.3917 27.7499 26.5315 27.194 26.8907 26.1508C27.2499 25.1077 26.694 23.9679 25.6508 23.6087C24.6077 23.2495 23.4678 23.8054 23.1087 24.8486C23.0187 25.1097 23.1575 25.3942 23.4186 25.4841C23.6797 25.574 23.9643 25.4352 24.0542 25.1741L24.081 25.1046C24.2853 24.6288 24.828 24.383 25.3253 24.5542C25.8462 24.7336 26.1246 25.3043 25.9452 25.8253C25.7658 26.3463 25.1951 26.6246 24.6741 26.4452C24.413 26.3553 24.1285 26.4941 24.0386 26.7552Z" fill="#18753C"/>
<path d="M15.6219 26C15.3655 26 15.1541 25.807 15.1253 25.5583L15.1219 25.5L15.1221 24.9909L15.1198 24.9027C15.0947 24.5022 14.8485 24.148 14.4664 23.9754L14.3825 23.9413L14.1302 23.8352L14.0009 23.7775C13.6194 23.6009 13.1683 23.6663 12.8479 23.9394L12.7813 24.001L12.3765 24.4035L12.2979 24.4661C12.0002 24.671 11.6024 24.6516 11.3244 24.4225L11.2667 24.3702L9.89631 22.9926L9.8338 22.914C9.62983 22.6167 9.64846 22.2197 9.87614 21.9411L9.92812 21.8833L10.287 21.5232L10.3505 21.456C10.631 21.1351 10.6973 20.6719 10.5138 20.276C10.4746 20.1893 10.4361 20.0995 10.4005 20.0112L10.3174 19.8008C10.1592 19.443 9.80828 19.1983 9.41283 19.1679L9.32746 19.1647L8.76689 19.1631L8.67666 19.1541C8.31229 19.0945 8.03639 18.7948 8.00333 18.4303L8 18.3565L8.00161 16.4115L8.0105 16.3214C8.06977 15.9569 8.36877 15.68 8.73346 15.6468L8.80722 15.6435L9.31467 15.6437L9.40247 15.6414C9.80063 15.6163 10.1533 15.3696 10.3254 14.9861L10.3594 14.9019L10.4652 14.6489L10.5233 14.5179C10.7013 14.134 10.6339 13.6759 10.3556 13.3525L10.2971 13.2897L9.89834 12.8861L9.83594 12.8074C9.6324 12.5099 9.65162 12.1129 9.87946 11.8349L9.93148 11.7772L11.3051 10.4025L11.3836 10.3398C11.6812 10.1347 12.0789 10.1536 12.3575 10.3826L12.4153 10.4348L12.7734 10.7939L12.8407 10.8576C13.161 11.1383 13.6195 11.2046 14.0117 11.0228C14.0993 10.9828 14.1892 10.9441 14.2775 10.9082L14.4876 10.8248C14.844 10.6662 15.0883 10.3136 15.1187 9.91585L15.1219 9.82997L15.1235 9.26806L15.1324 9.17792C15.1917 8.81341 15.4907 8.53653 15.8553 8.50334L15.9291 8.5L17.8686 8.50163L17.9588 8.51059C18.3232 8.5702 18.5991 8.86987 18.6322 9.23442L18.6355 9.30815L18.6353 9.81636L18.6378 9.9052C18.6638 10.3082 18.9119 10.6628 19.2985 10.835L19.3834 10.8691L19.6298 10.9731L19.7588 11.0307C20.1403 11.2072 20.5914 11.1419 20.9119 10.8688L20.9785 10.8071L21.3833 10.4047L21.4618 10.342C21.7596 10.1371 22.1574 10.1565 22.4354 10.3856L22.4931 10.438L23.8641 11.8162L23.9263 11.8949C24.1291 12.1921 24.1095 12.5887 23.8821 12.8663L23.8302 12.9239L23.4704 13.2849L23.4069 13.3522C23.1264 13.6731 23.0601 14.1362 23.2435 14.5322C23.2828 14.6188 23.3212 14.7086 23.3569 14.7969L23.44 15.0074C23.5982 15.3651 23.9491 15.6099 24.3446 15.6403L24.4299 15.6435L24.9905 15.6451L25.0403 15.6491C25.3156 15.6714 25.5206 15.9126 25.4984 16.1878C25.4777 16.4434 25.2683 16.6385 25.0181 16.6472L24.9597 16.6459L24.9502 16.6435L24.4308 16.6435C23.6416 16.6449 22.9208 16.1994 22.5651 15.4942L22.5189 15.3965L22.477 15.2921C22.447 15.2133 22.4152 15.1346 22.383 15.0591L22.3345 14.9488C22.0024 14.2323 22.1029 13.3926 22.593 12.7687L22.6657 12.6811L22.7514 12.5901L22.989 12.352L21.92 11.28L21.687 11.5128C21.0953 12.1081 20.2075 12.2893 19.4441 11.9837L19.3453 11.9411L19.232 11.8905L19.0213 11.8008C18.2701 11.5331 17.741 10.8612 17.6489 10.0627L17.639 9.95302L17.6355 9.832L17.6355 9.5H16.122L16.1219 9.82907C16.1233 10.6194 15.6796 11.3417 14.9762 11.6986L14.8787 11.745L14.7746 11.787C14.6958 11.8172 14.6174 11.8491 14.5414 11.8818L14.4295 11.9313C13.715 12.2627 12.879 12.1615 12.2562 11.6707L12.1687 11.5979L12.0771 11.5115L11.843 11.277L10.773 12.35L11.004 12.5823C11.6007 13.1756 11.7826 14.0684 11.4768 14.8319L11.4341 14.9307L11.3837 15.0441L11.2912 15.264C11.0214 16.013 10.3517 16.5399 9.55777 16.6305L9.44876 16.6401L9.32949 16.6435L9 16.6435V18.165L9.32656 18.1647C10.1157 18.1633 10.8365 18.6087 11.1922 19.3139L11.2385 19.4117L11.2804 19.516C11.3104 19.5949 11.3421 19.6736 11.3744 19.749L11.4229 19.8594C11.755 20.5758 11.6545 21.4155 11.1643 22.0394L11.0917 22.1271L11.006 22.2181L10.77 22.456L11.84 23.529L12.0728 23.2953C12.6645 22.7 13.5522 22.5189 14.3156 22.8244L14.5275 22.9175L14.7465 23.0102C15.4937 23.281 16.0188 23.9524 16.109 24.7475L16.1186 24.8566L16.122 25H18.0013L18.0016 24.7231L18.0097 24.6442C18.0638 24.3125 18.3352 24.0606 18.6665 24.0285L18.7383 24.025L19.1287 24.0252L19.1932 24.0236C19.4559 24.0071 19.6893 23.8473 19.8094 23.5924L19.9223 23.3227L19.9682 23.2196C20.0845 22.9693 20.0439 22.6709 19.8669 22.455L19.8153 22.3983L19.4989 22.0784L19.4443 22.0093C19.2585 21.7386 19.275 21.3779 19.4808 21.1241L19.5317 21.0675L20.605 19.9972L20.6379 19.9699C20.8503 19.7935 21.1656 19.8228 21.3419 20.0353C21.5047 20.2314 21.4923 20.5151 21.3223 20.6963L21.2766 20.7394L21.2779 20.7355L20.4227 21.5914L20.521 21.6898C21.0134 22.1778 21.1656 22.9111 20.9186 23.5399L20.8404 23.7189L20.7707 23.8837C20.5483 24.4993 19.9987 24.9334 19.3436 25.0128L19.2393 25.0224L19.1435 25.025L19.0002 25.0254V25.9754L19.141 25.975C19.791 25.9738 20.3851 26.3372 20.6836 26.9167L20.7282 27.01L20.7616 27.0928C20.7843 27.1523 20.8083 27.2117 20.8326 27.2683L20.869 27.3509C21.1427 27.9397 21.0626 28.629 20.6616 29.1464L20.5918 29.231L20.523 29.3038L20.4202 29.4069L21.2746 30.2613C21.4548 30.4415 21.4687 30.7251 21.3162 30.9213L21.2746 30.9684C21.0944 31.1486 20.8107 31.1625 20.6146 31.01L20.5675 30.9684L19.4974 29.8952L19.4427 29.8262C19.2566 29.5557 19.2725 29.195 19.4782 28.9407L19.529 28.884L19.8051 28.6079L19.8517 28.5588C20.0396 28.3444 20.0841 28.0347 19.9604 27.7685C19.9293 27.7001 19.8989 27.6291 19.8708 27.56L19.8076 27.4C19.7037 27.1659 19.4742 27.0034 19.2137 26.9784L19.1419 26.975L18.6981 26.9734L18.6192 26.9654C18.2875 26.9113 18.0356 26.6398 18.0035 26.3085L18 26.2367L18.0003 26H15.6219Z" fill="#000091"/>
<path d="M26.4168 29.8164C25.8374 30.1149 25.474 30.7091 25.4752 31.359L25.4756 31.5H24.5256L24.5252 31.3565L24.5225 31.2607L24.513 31.1564C24.4336 30.5013 23.9995 29.9518 23.3838 29.7293L23.2191 29.6596L23.1335 29.6215L23.0789 29.6009C22.8399 29.5264 22.5777 29.6411 22.4736 29.8755C22.3615 30.1278 22.4752 30.4233 22.7276 30.5354L22.8229 30.5777L23.0925 30.6906C23.3474 30.8107 23.5072 31.0441 23.5237 31.3068L23.5254 31.3713L23.5252 31.7617L23.5286 31.8335C23.5607 32.1648 23.8126 32.4363 24.1443 32.4904L24.2233 32.4984L25.7368 32.5L25.8087 32.4965C26.14 32.4644 26.4114 32.2125 26.4655 31.8808L26.4735 31.8019L26.4752 31.3581L26.4785 31.2863C26.5036 31.0258 26.666 30.7963 26.9002 30.6924L27.0604 30.6291C27.1297 30.6009 27.201 30.5704 27.2703 30.5388C27.5353 30.4163 27.8441 30.4609 28.0594 30.6489L28.1087 30.6956L28.3848 30.9717L28.4412 31.0224C28.6942 31.2275 29.0542 31.2449 29.3242 31.0607L29.3933 31.0064L30.4691 29.9305L30.5198 29.874C30.7252 29.6206 30.7417 29.2599 30.5559 28.9892L30.5013 28.9201L30.1849 28.6002L30.1332 28.5435C29.9563 28.3276 29.9156 28.0292 30.032 27.7789C30.0658 27.7047 30.0968 27.6329 30.1254 27.5626L30.164 27.4656L30.1931 27.3963C30.311 27.1501 30.5453 26.9908 30.8047 26.9761L30.8683 26.9749L31.2618 26.975L31.3337 26.9715C31.665 26.9394 31.9364 26.6875 31.9905 26.3558L31.9985 26.2769L32.0002 24.7633L31.9967 24.6915C31.9646 24.3602 31.7127 24.0887 31.381 24.0346L31.302 24.0266L30.8582 24.025L30.7865 24.0216C30.526 23.9966 30.2964 23.8342 30.1925 23.6L30.1293 23.44C30.1013 23.3709 30.0709 23.3 30.0397 23.2315C29.916 22.9654 29.9605 22.6556 30.1485 22.4412L30.1951 22.3922L30.4719 22.1153L30.5226 22.0588C30.728 21.8054 30.7449 21.445 30.5597 21.1746L30.5052 21.1055L29.4345 20.0316L29.3779 19.9808C29.1241 19.775 28.7634 19.7585 28.4927 19.9443L28.4236 19.9989L28.1019 20.3171L28.0454 20.3682C27.8303 20.5434 27.5328 20.5837 27.2811 20.4675L27.1795 20.4224L26.9134 20.3111C26.6548 20.191 26.4938 19.9573 26.4767 19.6927L26.4749 19.6278L26.4752 19.2383L26.4717 19.1665C26.4396 18.8352 26.1877 18.5637 25.856 18.5096L25.777 18.5016L24.2635 18.5L24.1916 18.5035C23.8603 18.5356 23.5889 18.7875 23.5348 19.1192L23.5268 19.1981L23.5252 19.6419L23.5218 19.7137C23.4967 19.9742 23.3343 20.2037 23.1001 20.3076L22.9399 20.3709C22.8706 20.3991 22.7994 20.4296 22.73 20.4612C22.4786 20.5755 22.3675 20.8719 22.4818 21.1233C22.5961 21.3747 22.8925 21.4858 23.1439 21.3715C23.2289 21.3328 23.3179 21.2957 23.4074 21.2616L23.4902 21.2282L23.5835 21.1836C24.163 20.8851 24.5263 20.2909 24.5252 19.641L24.5256 19.5H25.4756L25.4752 19.6435L25.478 19.7407L25.4872 19.8405C25.5666 20.5004 26.0047 21.0526 26.6252 21.2731L26.7827 21.3402L26.8685 21.3785L26.9622 21.4183C27.5917 21.664 28.3216 21.5131 28.8093 21.0239L28.9111 20.9225L29.5811 21.5925L29.4771 21.6962L29.4083 21.769L29.3385 21.8536C28.9376 22.371 28.8574 23.0603 29.1311 23.6491L29.2037 23.8184L29.2719 23.9901L29.3166 24.0833C29.6151 24.6628 30.2092 25.0262 30.8591 25.025L31.0006 25.025V25.975H30.8567L30.7647 25.977L30.6656 25.9854C30.0099 26.0594 29.4554 26.4929 29.2297 27.1093L29.1978 27.1893L29.1624 27.2733L29.1235 27.3611L29.0832 27.4552C28.8345 28.0874 28.9868 28.8207 29.4791 29.3087L29.5781 29.408L28.9081 30.0805L28.8039 29.977L28.7303 29.9076L28.6457 29.838C28.1285 29.4383 27.4415 29.358 26.8535 29.6298L26.726 29.6853L26.5101 29.7718L26.4168 29.8164Z" fill="#000091"/>
<path d="M29.5 16.5C29.2239 16.5 29 16.2761 29 16C29 15.7436 29.193 15.5322 29.4417 15.5034L29.5 15.5H31.5C31.7762 15.5 32 15.7239 32 16C32 16.2564 31.807 16.4678 31.5583 16.4966L31.5 16.5H29.5Z" fill="#000091"/>
<path d="M28 16C28 15.7243 27.7757 15.5 27.5 15.5C27.2243 15.5 27 15.7243 27 16C27 16.2757 27.2243 16.5 27.5 16.5C27.7757 16.5 28 16.2757 28 16Z" fill="#000091"/>
</svg>
