<svg xmlns="http://www.w3.org/2000/svg" width="63" height="60" viewBox="0 0 63 60" fill="none">
  <path d="M27.2461 59.3731C42.2936 59.3731 54.4921 47.1859 54.4921 32.1523C54.4921 17.1188 42.2936 4.93164 27.2461 4.93164C12.1985 4.93164 0 17.1188 0 32.1523C0 47.1859 12.1985 59.3731 27.2461 59.3731Z" fill="#0D52D4"/>
  <path d="M19.9195 44.4704C19.7507 44.4704 19.5887 44.4034 19.4693 44.2841C19.3498 44.1648 19.2827 44.003 19.2827 43.8342V26.4022H10.2033V43.8342C10.2033 44.003 10.1362 44.1648 10.0168 44.2841C9.89735 44.4034 9.73538 44.4704 9.56649 44.4704C9.3976 44.4704 9.23561 44.4034 9.11619 44.2841C8.99676 44.1648 8.92969 44.003 8.92969 43.8342V25.766C8.92969 25.5973 8.99676 25.4354 9.11619 25.3161C9.23561 25.1968 9.3976 25.1298 9.56649 25.1298H19.2827V16.0842C19.2827 15.9155 19.3498 15.7536 19.4693 15.6343C19.5887 15.515 19.7507 15.448 19.9195 15.448H35.3097C35.4786 15.448 35.6406 15.515 35.76 15.6343C35.8794 15.7536 35.9465 15.9155 35.9465 16.0842V25.5675C35.9465 25.7362 35.8794 25.898 35.76 26.0174C35.6406 26.1367 35.4786 26.2037 35.3097 26.2037C35.1408 26.2037 34.9788 26.1367 34.8594 26.0174C34.74 25.898 34.6729 25.7362 34.6729 25.5675V16.7204H20.5563V43.8342C20.5563 44.003 20.4893 44.1648 20.3698 44.2841C20.2504 44.4034 20.0884 44.4704 19.9195 44.4704Z" fill="white"/>
  <path d="M41.4172 43.1982H49.111C49.2799 43.1982 49.4419 43.2652 49.5613 43.3845C49.6808 43.5038 49.7478 43.6656 49.7478 43.8344C49.7478 44.0031 49.6808 44.1649 49.5613 44.2842C49.4419 44.4035 49.2799 44.4706 49.111 44.4706H5.75399C5.5851 44.4706 5.42313 44.4035 5.3037 44.2842C5.18428 44.1649 5.11719 44.0031 5.11719 43.8344C5.11719 43.6656 5.18428 43.5038 5.3037 43.3845C5.42313 43.2652 5.5851 43.1982 5.75399 43.1982H40.1475M31.7532 16.7205C31.5843 16.7205 31.4223 16.6535 31.3029 16.5342C31.1835 16.4149 31.1164 16.2531 31.1164 16.0843V14.0574H23.8034V16.0843C23.8034 16.2531 23.7363 16.4149 23.6169 16.5342C23.4975 16.6535 23.3355 16.7205 23.1666 16.7205C22.9977 16.7205 22.8357 16.6535 22.7163 16.5342C22.5969 16.4149 22.5298 16.2531 22.5298 16.0843V13.4212C22.5298 13.2524 22.5969 13.0906 22.7163 12.9713C22.8357 12.852 22.9977 12.785 23.1666 12.785H26.8231V8.37351C26.8231 8.20478 26.8902 8.04296 27.0096 7.92365C27.129 7.80433 27.291 7.7373 27.4599 7.7373C27.6288 7.7373 27.7908 7.80433 27.9102 7.92365C28.0296 8.04296 28.0967 8.20478 28.0967 8.37351V12.7824H31.7532C31.9221 12.7824 32.0841 12.8494 32.2035 12.9688C32.3229 13.0881 32.39 13.2499 32.39 13.4186V16.0843C32.39 16.2531 32.3229 16.4149 32.2035 16.5342C32.0841 16.6535 31.9221 16.7205 31.7532 16.7205Z" fill="white"/>
  <path d="M28.4733 34.7732C28.3469 34.7732 28.2256 34.8232 28.136 34.9125C28.0465 35.0017 27.996 35.1227 27.9957 35.249V40.018C27.9957 40.1446 28.046 40.2659 28.1356 40.3554C28.2252 40.4449 28.3466 40.4952 28.4733 40.4952C28.6 40.4952 28.7215 40.4449 28.811 40.3554C28.9006 40.2659 28.9509 40.1446 28.9509 40.018V35.249C28.9506 35.1227 28.9001 35.0017 28.8106 34.9125C28.721 34.8232 28.5997 34.7732 28.4733 34.7732ZM28.4733 41.4495C28.0945 41.4475 27.7319 41.2958 27.4646 41.0276C27.1974 40.7594 27.0472 40.3965 27.0469 40.018V35.249C27.0469 34.8697 27.1977 34.506 27.4662 34.2377C27.7346 33.9695 28.0987 33.8188 28.4784 33.8188C28.8581 33.8188 29.2222 33.9695 29.4906 34.2377C29.7591 34.506 29.9099 34.8697 29.9099 35.249V40.018C29.9106 40.2068 29.8739 40.3939 29.802 40.5685C29.73 40.7431 29.6243 40.9017 29.4908 41.0353C29.3573 41.1689 29.1987 41.2749 29.0241 41.347C28.8494 41.4192 28.6623 41.4562 28.4733 41.4559" fill="white"/>
  <path d="M28.4736 41.5437C28.0683 41.5437 27.6796 41.3828 27.393 41.0965C27.1063 40.8101 26.9453 40.4217 26.9453 40.0168V35.2491C26.9453 34.8441 27.1063 34.4557 27.393 34.1694C27.6796 33.883 28.0683 33.7222 28.4736 33.7222C28.879 33.7222 29.2677 33.883 29.5543 34.1694C29.8409 34.4557 30.0019 34.8441 30.0019 35.2491V40.0181C30.0016 40.4228 29.8404 40.8108 29.5539 41.0969C29.2673 41.383 28.8787 41.5437 28.4736 41.5437ZM28.4736 33.9092C28.1191 33.9095 27.7791 34.0504 27.5284 34.3009C27.2777 34.5514 27.1367 34.891 27.1364 35.2452V40.0181C27.1364 40.3724 27.2773 40.7122 27.528 40.9628C27.7788 41.2133 28.119 41.3541 28.4736 41.3541C28.8283 41.3541 29.1684 41.2133 29.4192 40.9628C29.67 40.7122 29.8109 40.3724 29.8109 40.0181V35.2491C29.8106 34.8948 29.6696 34.5552 29.4189 34.3047C29.1681 34.0542 28.8282 33.9134 28.4736 33.913V33.9092ZM28.4736 40.5856C28.3221 40.5852 28.1768 40.5249 28.0696 40.4179C27.9625 40.3108 27.9021 40.1657 27.9018 40.0142V35.2491C27.9018 35.0972 27.9622 34.9516 28.0697 34.8442C28.1771 34.7368 28.3229 34.6765 28.4749 34.6765C28.6269 34.6765 28.7727 34.7368 28.8802 34.8442C28.9876 34.9516 29.048 35.0972 29.048 35.2491V40.0181C29.048 40.0933 29.0332 40.1678 29.0043 40.2373C28.9754 40.3068 28.933 40.3699 28.8796 40.4229C28.8263 40.476 28.7629 40.5181 28.6933 40.5466C28.6236 40.5752 28.5489 40.5897 28.4736 40.5894V40.5856ZM28.4736 34.8597C28.3723 34.8597 28.2751 34.8999 28.2035 34.9715C28.1318 35.0431 28.0915 35.1402 28.0915 35.2414V40.0181C28.0915 40.1193 28.1318 40.2164 28.2035 40.288C28.2751 40.3596 28.3723 40.3998 28.4736 40.3998C28.575 40.3998 28.6721 40.3596 28.7438 40.288C28.8155 40.2164 28.8557 40.1193 28.8557 40.0181V35.2491C28.8557 35.1478 28.8155 35.0507 28.7438 34.9791C28.6721 34.9076 28.575 34.8673 28.4736 34.8673V34.8597Z" fill="white"/>
  <path d="M30.3783 34.7733C30.2518 34.7733 30.1305 34.8234 30.041 34.9126C29.9515 35.0018 29.901 35.1228 29.9007 35.2491V40.0181C29.9007 40.1447 29.951 40.2661 30.0406 40.3555C30.1301 40.445 30.2516 40.4953 30.3783 40.4953C30.5049 40.4953 30.6264 40.445 30.716 40.3555C30.8056 40.2661 30.8559 40.1447 30.8559 40.0181V35.2491C30.8555 35.1228 30.8051 35.0018 30.7155 34.9126C30.626 34.8234 30.5047 34.7733 30.3783 34.7733ZM30.3783 41.4496C29.9997 41.4473 29.6374 41.2954 29.3704 41.0273C29.1035 40.7591 28.9535 40.3964 28.9531 40.0181V35.2491C28.9642 34.8771 29.12 34.5239 29.3874 34.2646C29.6547 34.0054 30.0127 33.8604 30.3853 33.8604C30.7579 33.8604 31.1158 34.0054 31.3832 34.2646C31.6506 34.5239 31.8063 34.8771 31.8174 35.2491V40.0181C31.8179 40.2071 31.7811 40.3943 31.7089 40.569C31.6368 40.7436 31.5308 40.9024 31.397 41.036C31.2633 41.1696 31.1045 41.2755 30.9296 41.3475C30.7548 41.4196 30.5674 41.4565 30.3783 41.456" fill="white"/>
  <path d="M30.3799 41.5437C29.9745 41.5437 29.5858 41.3828 29.2992 41.0965C29.0126 40.8101 28.8516 40.4217 28.8516 40.0168V35.2491C28.8516 34.8441 29.0126 34.4557 29.2992 34.1694C29.5858 33.883 29.9745 33.7222 30.3799 33.7222C30.7852 33.7222 31.174 33.883 31.4606 34.1694C31.7472 34.4557 31.9082 34.8441 31.9082 35.2491V40.0181C31.9079 40.4228 31.7467 40.8108 31.4601 41.0969C31.1735 41.383 30.785 41.5437 30.3799 41.5437ZM30.3799 33.9092C30.0253 33.9095 29.6854 34.0504 29.4347 34.3009C29.1839 34.5514 29.0429 34.891 29.0426 35.2452V40.0181C29.0426 40.3724 29.1835 40.7122 29.4343 40.9628C29.6851 41.2133 30.0252 41.3541 30.3799 41.3541C30.7345 41.3541 31.0747 41.2133 31.3255 40.9628C31.5763 40.7122 31.7172 40.3724 31.7172 40.0181V35.2491C31.7168 34.8948 31.5758 34.5552 31.3251 34.3047C31.0744 34.0542 30.7344 33.9134 30.3799 33.913V33.9092ZM30.3799 40.5856C30.2283 40.5852 30.0831 40.5249 29.9759 40.4179C29.8687 40.3108 29.8084 40.1657 29.808 40.0142V35.2491C29.808 35.0972 29.8684 34.9516 29.9759 34.8442C30.0834 34.7368 30.2292 34.6765 30.3812 34.6765C30.5332 34.6765 30.6789 34.7368 30.7864 34.8442C30.8939 34.9516 30.9543 35.0972 30.9543 35.2491V40.0181C30.9543 40.0933 30.9394 40.1678 30.9105 40.2373C30.8816 40.3068 30.8393 40.3699 30.7859 40.4229C30.7325 40.476 30.6692 40.5181 30.5995 40.5466C30.5298 40.5752 30.4552 40.5897 30.3799 40.5894V40.5856ZM30.3799 34.8597C30.2785 34.8597 30.1814 34.8999 30.1097 34.9715C30.0381 35.0431 29.9978 35.1402 29.9978 35.2414V40.0181C29.9978 40.1193 30.0381 40.2164 30.1097 40.288C30.1814 40.3596 30.2785 40.3998 30.3799 40.3998C30.4812 40.3998 30.5784 40.3596 30.6501 40.288C30.7217 40.2164 30.762 40.1193 30.762 40.0181V35.2491C30.762 35.1478 30.7217 35.0507 30.6501 34.9791C30.5784 34.9076 30.4812 34.8673 30.3799 34.8673V34.8597Z" fill="white"/>
  <path d="M32.2831 34.7733C32.1569 34.7736 32.0359 34.8238 31.9467 34.913C31.8574 35.0022 31.8071 35.123 31.8068 35.2491V40.0181C31.8034 40.0828 31.8133 40.1474 31.8357 40.2082C31.8582 40.2689 31.8928 40.3244 31.9374 40.3713C31.982 40.4183 32.0357 40.4557 32.0953 40.4812C32.1548 40.5068 32.2189 40.5199 32.2837 40.5199C32.3485 40.5199 32.4126 40.5068 32.4722 40.4812C32.5317 40.4557 32.5854 40.4183 32.63 40.3713C32.6747 40.3244 32.7093 40.2689 32.7317 40.2082C32.7542 40.1474 32.764 40.0828 32.7607 40.0181V35.2491C32.7604 35.1228 32.7099 35.0018 32.6204 34.9126C32.5308 34.8234 32.4095 34.7733 32.2831 34.7733ZM32.2831 41.4496C31.9034 41.4489 31.5395 41.2979 31.2711 41.0295C31.0028 40.7612 30.8519 40.3975 30.8516 40.0181V35.2491C30.8627 34.8771 31.0184 34.5239 31.2858 34.2646C31.5532 34.0054 31.9111 33.8604 32.2837 33.8604C32.6563 33.8604 33.0143 34.0054 33.2817 34.2646C33.549 34.5239 33.7048 34.8771 33.7159 35.2491V40.0181C33.7164 40.2066 33.6797 40.3932 33.608 40.5675C33.5362 40.7418 33.4308 40.9002 33.2977 41.0337C33.1647 41.1672 33.0066 41.2733 32.8325 41.3457C32.6584 41.4182 32.4717 41.4556 32.2831 41.456" fill="white"/>
  <path d="M32.2861 41.5437C31.8808 41.5437 31.4921 41.3828 31.2054 41.0965C30.9188 40.8101 30.7578 40.4217 30.7578 40.0168V35.2491C30.7578 34.8441 30.9188 34.4557 31.2054 34.1694C31.4921 33.883 31.8808 33.7222 32.2861 33.7222C32.6915 33.7222 33.0802 33.883 33.3668 34.1694C33.6534 34.4557 33.8144 34.8441 33.8144 35.2491V40.0181C33.8141 40.4228 33.6529 40.8108 33.3664 41.0969C33.0798 41.383 32.6912 41.5437 32.2861 41.5437ZM32.2861 33.9092C31.9316 33.9095 31.5916 34.0504 31.3409 34.3009C31.0902 34.5514 30.9492 34.891 30.9489 35.2452V40.0181C30.9489 40.3724 31.0897 40.7122 31.3405 40.9628C31.5913 41.2133 31.9315 41.3541 32.2861 41.3541C32.6408 41.3541 32.9809 41.2133 33.2317 40.9628C33.4825 40.7122 33.6234 40.3724 33.6234 40.0181V35.2491C33.6231 34.8948 33.4821 34.5552 33.2313 34.3047C32.9806 34.0542 32.6407 33.9134 32.2861 33.913V33.9092ZM32.2861 40.5856C32.1346 40.5852 31.9893 40.5249 31.8821 40.4179C31.775 40.3108 31.7146 40.1657 31.7143 40.0142V35.2491C31.7143 35.0972 31.7747 34.9516 31.8821 34.8442C31.9896 34.7368 32.1354 34.6765 32.2874 34.6765C32.4394 34.6765 32.5852 34.7368 32.6926 34.8442C32.8001 34.9516 32.8605 35.0972 32.8605 35.2491V40.0181C32.8603 40.0933 32.8454 40.1677 32.8164 40.2371C32.7874 40.3065 32.7451 40.3695 32.6917 40.4226C32.6384 40.4756 32.5751 40.5177 32.5055 40.5463C32.4359 40.5749 32.3614 40.5895 32.2861 40.5894V40.5856ZM32.2861 34.8597C32.1848 34.8597 32.0876 34.8999 32.016 34.9715C31.9443 35.0431 31.904 35.1402 31.904 35.2414V40.0181C31.904 40.1193 31.9443 40.2164 32.016 40.288C32.0876 40.3596 32.1848 40.3998 32.2861 40.3998C32.3875 40.3998 32.4846 40.3596 32.5563 40.288C32.6279 40.2164 32.6682 40.1193 32.6682 40.0181V35.2491C32.6682 35.1478 32.6279 35.0507 32.5563 34.9791C32.4846 34.9076 32.3875 34.8673 32.2861 34.8673V34.8597Z" fill="white"/>
  <path d="M34.1906 34.7733C34.0642 34.7733 33.9429 34.8234 33.8533 34.9126C33.7638 35.0018 33.7133 35.1228 33.713 35.2491V40.0181C33.713 40.1447 33.7633 40.2661 33.8529 40.3555C33.9425 40.445 34.0639 40.4953 34.1906 40.4953C34.3173 40.4953 34.4388 40.445 34.5283 40.3555C34.6179 40.2661 34.6682 40.1447 34.6682 40.0181V35.2491C34.6675 35.1229 34.617 35.0021 34.5275 34.9129C34.438 34.8238 34.317 34.7736 34.1906 34.7733ZM34.1906 41.4496C33.8108 41.4489 33.4468 41.2979 33.1782 41.0296C32.9096 40.7613 32.7585 40.3976 32.7578 40.0181V35.2491C32.7689 34.8771 32.9247 34.5239 33.192 34.2646C33.4594 34.0054 33.8174 33.8604 34.19 33.8604C34.5626 33.8604 34.9205 34.0054 35.1879 34.2646C35.4553 34.5239 35.611 34.8771 35.6221 35.2491V40.0181C35.6228 40.2065 35.5863 40.3931 35.5147 40.5674C35.4431 40.7416 35.3378 40.9001 35.2048 41.0336C35.0718 41.1672 34.9138 41.2732 34.7398 41.3457C34.5658 41.4182 34.3791 41.4556 34.1906 41.456" fill="white"/>
  <path d="M34.1924 41.5437C33.787 41.5437 33.3983 41.3828 33.1117 41.0965C32.8251 40.8101 32.6641 40.4217 32.6641 40.0168V35.2491C32.6641 34.8441 32.8251 34.4557 33.1117 34.1694C33.3983 33.883 33.787 33.7222 34.1924 33.7222C34.5977 33.7222 34.9864 33.883 35.2731 34.1694C35.5597 34.4557 35.7207 34.8441 35.7207 35.2491V40.0181C35.7204 40.4228 35.5592 40.8108 35.2726 41.0969C34.986 41.383 34.5975 41.5437 34.1924 41.5437ZM34.1924 33.9092C33.8378 33.9095 33.4979 34.0504 33.2471 34.3009C32.9964 34.5514 32.8554 34.891 32.8551 35.2452V40.0181C32.8551 40.3724 32.996 40.7122 33.2468 40.9628C33.4976 41.2133 33.8377 41.3541 34.1924 41.3541C34.547 41.3541 34.8872 41.2133 35.138 40.9628C35.3888 40.7122 35.5297 40.3724 35.5297 40.0181V35.2491C35.5293 34.8948 35.3883 34.5552 35.1376 34.3047C34.8869 34.0542 34.5469 33.9134 34.1924 33.913V33.9092ZM34.1924 40.5856C34.0406 40.5856 33.895 40.5254 33.7876 40.4183C33.6801 40.3112 33.6196 40.1659 33.6193 40.0142V35.2491C33.6193 35.0972 33.6796 34.9516 33.7871 34.8442C33.8946 34.7368 34.0404 34.6765 34.1924 34.6765C34.3444 34.6765 34.4901 34.7368 34.5976 34.8442C34.7051 34.9516 34.7655 35.0972 34.7655 35.2491V40.0181C34.7652 40.1697 34.7046 40.315 34.5972 40.4221C34.4897 40.5292 34.3442 40.5894 34.1924 40.5894V40.5856ZM34.1924 34.8597C34.091 34.8597 33.9939 34.8999 33.9222 34.9715C33.8506 35.0431 33.8103 35.1402 33.8103 35.2414V40.0181C33.8103 40.1193 33.8506 40.2164 33.9222 40.288C33.9939 40.3596 34.091 40.3998 34.1924 40.3998C34.2937 40.3998 34.3909 40.3596 34.4625 40.288C34.5342 40.2164 34.5745 40.1193 34.5745 40.0181V35.2491C34.5745 35.1478 34.5342 35.0507 34.4625 34.9791C34.3909 34.9076 34.2937 34.8673 34.1924 34.8673V34.8597Z" fill="white"/>
  <path d="M25.7979 40.4955C25.6712 40.4955 25.5498 40.4452 25.4602 40.3557C25.3706 40.2663 25.3203 40.1449 25.3203 40.0183V38.1097C25.3203 37.9832 25.3706 37.8618 25.4602 37.7723C25.5498 37.6828 25.6712 37.6326 25.7979 37.6326C25.9246 37.6326 26.0461 37.6828 26.1356 37.7723C26.2252 37.8618 26.2755 37.9832 26.2755 38.1097V40.0183C26.2755 40.1449 26.2252 40.2663 26.1356 40.3557C26.0461 40.4452 25.9246 40.4955 25.7979 40.4955Z" fill="white"/>
  <path d="M23.0388 52.8404H9.93855C9.82039 52.8282 9.71095 52.7727 9.63139 52.6845C9.55183 52.5964 9.50781 52.4819 9.50781 52.3633C9.50781 52.2446 9.55183 52.1301 9.63139 52.042C9.71095 51.9539 9.82039 51.8983 9.93855 51.8861H22.6045V39.0653C22.5989 38.9445 22.6415 38.8265 22.7229 38.7371C22.8044 38.6476 22.9179 38.5941 23.0388 38.5881H25.6484C25.7665 38.6003 25.876 38.6559 25.9555 38.744C26.0351 38.8321 26.0791 38.9466 26.0791 39.0653C26.0791 39.184 26.0351 39.2984 25.9555 39.3866C25.876 39.4747 25.7665 39.5302 25.6484 39.5424H23.4769V52.3633C23.4821 52.4841 23.4392 52.6022 23.3576 52.6916C23.276 52.781 23.1623 52.8345 23.0413 52.8404" fill="white"/>
  <path d="M23.034 52.9345H9.93249C9.78049 52.9345 9.63473 52.8742 9.52725 52.7668C9.41977 52.6594 9.35938 52.5138 9.35938 52.3619C9.35938 52.2101 9.41977 52.0644 9.52725 51.957C9.63473 51.8497 9.78049 51.7893 9.93249 51.7893H22.5042V39.0652C22.4987 38.9193 22.5514 38.7771 22.6507 38.67C22.7501 38.5629 22.8879 38.4995 23.034 38.4939H25.6423C25.7943 38.4939 25.9401 38.5542 26.0476 38.6616C26.155 38.769 26.2154 38.9146 26.2154 39.0665C26.2154 39.2183 26.155 39.364 26.0476 39.4714C25.9401 39.5787 25.7943 39.6391 25.6423 39.6391H23.5625V52.3632C23.568 52.5089 23.5155 52.6509 23.4164 52.758C23.3174 52.8651 23.1798 52.9285 23.034 52.9345ZM9.93249 51.9802C9.83116 51.9802 9.73399 52.0204 9.66234 52.092C9.59068 52.1636 9.55041 52.2607 9.55041 52.3619C9.55041 52.4632 9.59068 52.5602 9.66234 52.6318C9.73399 52.7034 9.83116 52.7436 9.93249 52.7436H23.034C23.1295 52.7374 23.2187 52.6939 23.2824 52.6224C23.346 52.551 23.3789 52.4574 23.374 52.3619V39.4469H25.6423C25.7437 39.4469 25.8408 39.4067 25.9125 39.3351C25.9841 39.2635 26.0244 39.1664 26.0244 39.0652C26.0244 38.964 25.9841 38.8669 25.9125 38.7953C25.8408 38.7237 25.7437 38.6835 25.6423 38.6835H23.034C22.9382 38.6894 22.8487 38.7328 22.7848 38.8043C22.7209 38.8757 22.6878 38.9695 22.6927 39.0652V51.9802H9.93249Z" fill="white"/>
  <path d="M36.876 37.1578C36.7494 37.1578 36.6279 37.1076 36.5383 37.0181C36.4487 36.9286 36.3984 36.8072 36.3984 36.6807V34.7721C36.3984 34.6455 36.4487 34.5242 36.5383 34.4347C36.6279 34.3452 36.7494 34.2949 36.876 34.2949C37.0027 34.2949 37.1242 34.3452 37.2137 34.4347C37.3033 34.5242 37.3536 34.6455 37.3536 34.7721V36.6807C37.3533 36.8071 37.3029 36.9283 37.2134 37.0177C37.1239 37.1071 37.0026 37.1575 36.876 37.1578Z" fill="white"/>
  <path d="M46.697 50.4559H39.4515C39.3249 50.4559 39.2034 50.4056 39.1138 50.3161C39.0242 50.2266 38.9739 50.1053 38.9739 49.9787V36.2036H37.0635C36.9369 36.2036 36.8154 36.1533 36.7258 36.0638C36.6362 35.9743 36.5859 35.853 36.5859 35.7264C36.5859 35.5999 36.6362 35.4785 36.7258 35.389C36.8154 35.2995 36.9369 35.2493 37.0635 35.2493H39.4503C39.5769 35.2493 39.6984 35.2995 39.788 35.389C39.8775 35.4785 39.9279 35.5999 39.9279 35.7264V49.5028H46.6958C46.9581 49.5028 47.2625 49.7153 47.2625 49.9787C47.2625 50.2421 46.9581 50.4559 46.6958 50.4559" fill="white"/>
  <path d="M46.6975 50.5503H39.452C39.3005 50.5499 39.1552 50.4896 39.048 50.3826C38.9409 50.2755 38.8805 50.1304 38.8802 49.979V36.298H37.0653C36.9133 36.298 36.7675 36.2377 36.66 36.1303C36.5526 36.0229 36.4922 35.8773 36.4922 35.7254C36.4922 35.5736 36.5526 35.4279 36.66 35.3205C36.7675 35.2132 36.9133 35.1528 37.0653 35.1528H39.452C39.6038 35.1528 39.7494 35.213 39.8568 35.3201C39.9643 35.4272 40.0248 35.5725 40.0251 35.7241V49.4077H46.6975C47.0032 49.4077 47.3585 49.6621 47.3585 49.979C47.3585 50.2958 47.0032 50.5503 46.6975 50.5503ZM37.0653 35.3488C36.964 35.3488 36.8668 35.389 36.7951 35.4606C36.7235 35.5322 36.6832 35.6293 36.6832 35.7305C36.6832 35.8317 36.7235 35.9288 36.7951 36.0004C36.8668 36.072 36.964 36.1122 37.0653 36.1122H39.0699V49.9815C39.0699 50.0828 39.1102 50.1799 39.1819 50.2514C39.2535 50.323 39.3507 50.3632 39.452 50.3632H46.6975C46.9102 50.3632 47.17 50.1864 47.17 49.9815C47.17 49.7767 46.9153 49.5998 46.6975 49.5998H39.8354V35.7305C39.8354 35.6293 39.7951 35.5322 39.7235 35.4606C39.6518 35.389 39.5546 35.3488 39.4533 35.3488H37.0653Z" fill="white"/>
  <path d="M53.8481 27.798C58.9028 22.7479 58.9028 14.5602 53.8481 9.51009C48.7933 4.46001 40.5979 4.46002 35.5431 9.51009C30.4883 14.5602 30.4883 22.7479 35.5431 27.798C40.5979 32.8481 48.7933 32.8481 53.8481 27.798Z" fill="#0DAB30"/>
  <path d="M44.6917 31.9016C42.0686 31.9016 39.5045 31.1245 37.3236 29.6685C35.1426 28.2126 33.4428 26.1432 32.4391 23.7221C31.4354 21.301 31.1728 18.6368 31.6846 16.0666C32.1964 13.4964 33.4596 11.1356 35.3145 9.28263C37.1693 7.42968 39.5325 6.16788 42.1052 5.65678C44.6778 5.14569 47.3444 5.40825 49.7677 6.41128C52.191 7.41431 54.2621 9.11275 55.7192 11.2918C57.1763 13.4709 57.9539 16.0327 57.9536 18.6532C57.9496 22.1659 56.551 25.5335 54.0647 28.0172C51.5785 30.5009 48.2076 31.8979 44.6917 31.9016ZM44.6917 6.03983C42.1946 6.03983 39.7537 6.77959 37.6775 8.16557C35.6013 9.55155 33.9831 11.5215 33.0275 13.8263C32.072 16.1311 31.8219 18.6672 32.3091 21.114C32.7962 23.5608 33.9987 25.8083 35.7643 27.5723C37.53 29.3363 39.7796 30.5376 42.2286 31.0243C44.6777 31.511 47.2162 31.2612 49.5231 30.3065C51.83 29.3518 53.8018 27.7352 55.1891 25.6609C56.5764 23.5866 57.3168 21.1479 57.3168 18.6532C57.3131 15.3091 55.9818 12.103 53.6149 9.7383C51.248 7.37363 48.0389 6.04353 44.6917 6.03983Z" fill="#0DAB30"/>
  <path d="M53.111 15.1566L43.8825 25.8258C43.8649 25.8516 43.8419 25.8733 43.8151 25.8894C43.7882 25.9055 43.7582 25.9156 43.7271 25.9189C43.696 25.9223 43.6645 25.9189 43.6348 25.909C43.6052 25.8991 43.578 25.8828 43.5552 25.8614L35.9531 20.0337L38.2456 17.1072L43.0929 20.8595C43.1158 20.881 43.1431 20.8972 43.1729 20.9072C43.2026 20.9171 43.2342 20.9205 43.2654 20.9171C43.2966 20.9138 43.3267 20.9037 43.3537 20.8876C43.3806 20.8715 43.4037 20.8498 43.4215 20.8239L50.7345 12.2046L53.111 15.1566Z" fill="white"/>
</svg>