<svg fill="none" height="60" viewBox="0 0 63 60" width="63" xmlns="http://www.w3.org/2000/svg"><path d="m27.2461 59.3731c15.0475 0 27.246-12.1872 27.246-27.2208 0-15.0335-12.1985-27.22066-27.246-27.22066-15.0476 0-27.2461 12.18716-27.2461 27.22066 0 15.0336 12.1985 27.2208 27.2461 27.2208z" fill="#0d52d4"/><g fill="#fff"><path d="m19.9195 44.4704c-.1688 0-.3308-.067-.4502-.1863-.1195-.1193-.1866-.2811-.1866-.4499v-17.432h-9.0794v17.432c0 .1688-.0671.3306-.1865.4499-.11945.1193-.28142.1863-.45031.1863s-.33088-.067-.4503-.1863c-.11943-.1193-.1865-.2811-.1865-.4499v-18.0682c0-.1687.06707-.3306.1865-.4499.11942-.1193.28141-.1863.4503-.1863h9.71621v-9.0456c0-.1687.0671-.3306.1866-.4499.1194-.1193.2814-.1863.4502-.1863h15.3902c.1689 0 .3309.067.4503.1863s.1865.2812.1865.4499v9.4833c0 .1687-.0671.3305-.1865.4499-.1194.1193-.2814.1863-.4503.1863s-.3309-.067-.4503-.1863c-.1194-.1194-.1865-.2812-.1865-.4499v-8.8471h-14.1166v27.1138c0 .1688-.067.3306-.1865.4499-.1194.1193-.2814.1863-.4503.1863z"/><path d="m41.4172 43.1982h7.6938c.1689 0 .3309.067.4503.1863.1195.1193.1865.2811.1865.4499 0 .1687-.067.3305-.1865.4498-.1194.1193-.2814.1864-.4503.1864h-43.35701c-.16889 0-.33086-.0671-.45029-.1864-.11942-.1193-.18651-.2811-.18651-.4498 0-.1688.06709-.3306.18651-.4499.11943-.1193.2814-.1863.45029-.1863h34.39351m-8.3943-26.4777c-.1689 0-.3309-.067-.4503-.1863s-.1865-.2811-.1865-.4499v-2.0269h-7.313v2.0269c0 .1688-.0671.3306-.1865.4499s-.2814.1863-.4503.1863-.3309-.067-.4503-.1863-.1865-.2811-.1865-.4499v-2.6631c0-.1688.0671-.3306.1865-.4499s.2814-.1863.4503-.1863h3.6565v-4.41149c0-.16873.0671-.33055.1865-.44986.1194-.11932.2814-.18635.4503-.18635s.3309.06703.4503.18635c.1194.11931.1865.28113.1865.44986v4.40889h3.6565c.1689 0 .3309.067.4503.1864.1194.1193.1865.2811.1865.4498v2.6657c0 .1688-.0671.3306-.1865.4499s-.2814.1863-.4503.1863z"/><path d="m28.4733 34.7732c-.1264 0-.2477.05-.3373.1393-.0895.0892-.14.2102-.1403.3365v4.769c0 .1266.0503.2479.1399.3374s.211.1398.3377.1398.2482-.0503.3377-.1398c.0896-.0895.1399-.2108.1399-.3374v-4.769c-.0003-.1263-.0508-.2473-.1403-.3365-.0896-.0893-.2109-.1393-.3373-.1393zm0 6.6763c-.3788-.002-.7414-.1537-1.0087-.4219-.2672-.2682-.4174-.6311-.4177-1.0096v-4.769c0-.3793.1508-.743.4193-1.0113.2684-.2682.6325-.4189 1.0122-.4189s.7438.1507 1.0122.4189c.2685.2683.4193.632.4193 1.0113v4.769c.0007.1888-.036.3759-.1079.5505-.072.1746-.1777.3332-.3112.4668s-.2921.2396-.4667.3117c-.1747.0722-.3618.1092-.5508.1089"/><path d="m28.4736 41.5437c-.4053 0-.794-.1609-1.0806-.4472-.2867-.2864-.4477-.6748-.4477-1.0797v-4.7677c0-.405.161-.7934.4477-1.0797.2866-.2864.6753-.4472 1.0806-.4472.4054 0 .7941.1608 1.0807.4472.2866.2863.4476.6747.4476 1.0797v4.769c-.0003.4047-.1615.7927-.448 1.0788-.2866.2861-.6752.4468-1.0803.4468zm0-7.6345c-.3545.0003-.6945.1412-.9452.3917s-.3917.5901-.392.9443v4.7729c0 .3543.1409.6941.3916.9447.2508.2505.591.3913.9456.3913.3547 0 .6948-.1408.9456-.3913.2508-.2506.3917-.5904.3917-.9447v-4.769c-.0003-.3543-.1413-.6939-.392-.9444-.2508-.2505-.5907-.3913-.9453-.3917zm0 6.6764c-.1515-.0004-.2968-.0607-.404-.1677-.1071-.1071-.1675-.2522-.1678-.4037v-4.7651c0-.1519.0604-.2975.1679-.4049.1074-.1074.2532-.1677.4052-.1677s.2978.0603.4053.1677c.1074.1074.1678.253.1678.4049v4.769c0 .0752-.0148.1497-.0437.2192s-.0713.1326-.1247.1856c-.0533.0531-.1167.0952-.1863.1237-.0697.0286-.1444.0431-.2197.0428zm0-5.7259c-.1013 0-.1985.0402-.2701.1118-.0717.0716-.112.1687-.112.2699v4.7767c0 .1012.0403.1983.112.2699.0716.0716.1688.1118.2701.1118.1014 0 .1985-.0402.2702-.1118s.1119-.1687.1119-.2699v-4.769c0-.1013-.0402-.1984-.1119-.27-.0717-.0715-.1688-.1118-.2702-.1118z"/><path d="m30.3783 34.7733c-.1265 0-.2478.0501-.3373.1393s-.14.2102-.1403.3365v4.769c0 .1266.0503.248.1399.3374.0895.0895.211.1398.3377.1398.1266 0 .2481-.0503.3377-.1398.0896-.0894.1399-.2108.1399-.3374v-4.769c-.0004-.1263-.0508-.2473-.1404-.3365-.0895-.0892-.2108-.1393-.3372-.1393zm0 6.6763c-.3786-.0023-.7409-.1542-1.0079-.4223-.2669-.2682-.4169-.6309-.4173-1.0092v-4.769c.0111-.372.1669-.7252.4343-.9845.2673-.2592.6253-.4042.9979-.4042s.7305.145.9979.4042c.2674.2593.4231.6125.4342.9845v4.769c.0005.189-.0363.3762-.1085.5509-.0721.1746-.1781.3334-.3119.467-.1337.1336-.2925.2395-.4674.3115-.1748.0721-.3622.109-.5513.1085"/><path d="m30.3799 41.5437c-.4054 0-.7941-.1609-1.0807-.4472-.2866-.2864-.4476-.6748-.4476-1.0797v-4.7677c0-.405.161-.7934.4476-1.0797.2866-.2864.6753-.4472 1.0807-.4472.4053 0 .7941.1608 1.0807.4472.2866.2863.4476.6747.4476 1.0797v4.769c-.0003.4047-.1615.7927-.4481 1.0788s-.6751.4468-1.0802.4468zm0-7.6345c-.3546.0003-.6945.1412-.9452.3917-.2508.2505-.3918.5901-.3921.9443v4.7729c0 .3543.1409.6941.3917.9447.2508.2505.5909.3913.9456.3913.3546 0 .6948-.1408.9456-.3913.2508-.2506.3917-.5904.3917-.9447v-4.769c-.0004-.3543-.1414-.6939-.3921-.9444s-.5907-.3913-.9452-.3917zm0 6.6764c-.1516-.0004-.2968-.0607-.404-.1677-.1072-.1071-.1675-.2522-.1679-.4037v-4.7651c0-.1519.0604-.2975.1679-.4049s.2533-.1677.4053-.1677.2977.0603.4052.1677.1679.253.1679.4049v4.769c0 .0752-.0149.1497-.0438.2192s-.0712.1326-.1246.1856c-.0534.0531-.1167.0952-.1864.1237-.0697.0286-.1443.0431-.2196.0428zm0-5.7259c-.1014 0-.1985.0402-.2702.1118-.0716.0716-.1119.1687-.1119.2699v4.7767c0 .1012.0403.1983.1119.2699.0717.0716.1688.1118.2702.1118.1013 0 .1985-.0402.2702-.1118.0716-.0716.1119-.1687.1119-.2699v-4.769c0-.1013-.0403-.1984-.1119-.27-.0717-.0715-.1689-.1118-.2702-.1118z"/><path d="m32.2831 34.7733c-.1262.0003-.2472.0505-.3364.1397-.0893.0892-.1396.21-.1399.3361v4.769c-.0034.0647.0065.1293.0289.1901.0225.0607.0571.1162.1017.1631.0446.047.0983.0844.1579.1099.0595.0256.1236.0387.1884.0387s.1289-.0131.1885-.0387c.0595-.0255.1132-.0629.1578-.1099.0447-.0469.0793-.1024.1017-.1631.0225-.0608.0323-.1254.029-.1901v-4.769c-.0003-.1263-.0508-.2473-.1403-.3365-.0896-.0892-.2109-.1393-.3373-.1393zm0 6.6763c-.3797-.0007-.7436-.1517-1.012-.4201-.2683-.2683-.4192-.632-.4195-1.0114v-4.769c.0111-.372.1668-.7252.4342-.9845.2674-.2592.6253-.4042.9979-.4042s.7306.145.998.4042c.2673.2593.4231.6125.4342.9845v4.769c.0005.1885-.0362.3751-.1079.5494-.0718.1743-.1772.3327-.3103.4662-.133.1335-.2911.2396-.4652.312-.1741.0725-.3608.1099-.5494.1103"/><path d="m32.2861 41.5437c-.4053 0-.794-.1609-1.0807-.4472-.2866-.2864-.4476-.6748-.4476-1.0797v-4.7677c0-.405.161-.7934.4476-1.0797.2867-.2864.6754-.4472 1.0807-.4472.4054 0 .7941.1608 1.0807.4472.2866.2863.4476.6747.4476 1.0797v4.769c-.0003.4047-.1615.7927-.448 1.0788-.2866.2861-.6752.4468-1.0803.4468zm0-7.6345c-.3545.0003-.6945.1412-.9452.3917s-.3917.5901-.392.9443v4.7729c0 .3543.1408.6941.3916.9447.2508.2505.591.3913.9456.3913.3547 0 .6948-.1408.9456-.3913.2508-.2506.3917-.5904.3917-.9447v-4.769c-.0003-.3543-.1413-.6939-.3921-.9444-.2507-.2505-.5906-.3913-.9452-.3917zm0 6.6764c-.1515-.0004-.2968-.0607-.404-.1677-.1071-.1071-.1675-.2522-.1678-.4037v-4.7651c0-.1519.0604-.2975.1678-.4049.1075-.1074.2533-.1677.4053-.1677s.2978.0603.4052.1677c.1075.1074.1679.253.1679.4049v4.769c-.0002.0752-.0151.1496-.0441.219s-.0713.1324-.1247.1855c-.0533.053-.1166.0951-.1862.1237s-.1441.0432-.2194.0431zm0-5.7259c-.1013 0-.1985.0402-.2701.1118-.0717.0716-.112.1687-.112.2699v4.7767c0 .1012.0403.1983.112.2699.0716.0716.1688.1118.2701.1118.1014 0 .1985-.0402.2702-.1118.0716-.0716.1119-.1687.1119-.2699v-4.769c0-.1013-.0403-.1984-.1119-.27-.0717-.0715-.1688-.1118-.2702-.1118z"/><path d="m34.1906 34.7733c-.1264 0-.2477.0501-.3373.1393-.0895.0892-.14.2102-.1403.3365v4.769c0 .1266.0503.248.1399.3374.0896.0895.211.1398.3377.1398s.2482-.0503.3377-.1398c.0896-.0894.1399-.2108.1399-.3374v-4.769c-.0007-.1262-.0512-.247-.1407-.3362-.0895-.0891-.2105-.1393-.3369-.1396zm0 6.6763c-.3798-.0007-.7438-.1517-1.0124-.42s-.4197-.632-.4204-1.0115v-4.769c.0111-.372.1669-.7252.4342-.9845.2674-.2592.6254-.4042.998-.4042s.7305.145.9979.4042c.2674.2593.4231.6125.4342.9845v4.769c.0007.1884-.0358.375-.1074.5493-.0716.1742-.1769.3327-.3099.4662-.133.1336-.291.2396-.465.3121s-.3607.1099-.5492.1103"/><path d="m34.1924 41.5437c-.4054 0-.7941-.1609-1.0807-.4472-.2866-.2864-.4476-.6748-.4476-1.0797v-4.7677c0-.405.161-.7934.4476-1.0797.2866-.2864.6753-.4472 1.0807-.4472.4053 0 .794.1608 1.0807.4472.2866.2863.4476.6747.4476 1.0797v4.769c-.0003.4047-.1615.7927-.4481 1.0788s-.6751.4468-1.0802.4468zm0-7.6345c-.3546.0003-.6945.1412-.9453.3917-.2507.2505-.3917.5901-.392.9443v4.7729c0 .3543.1409.6941.3917.9447.2508.2505.5909.3913.9456.3913.3546 0 .6948-.1408.9456-.3913.2508-.2506.3917-.5904.3917-.9447v-4.769c-.0004-.3543-.1414-.6939-.3921-.9444s-.5907-.3913-.9452-.3917zm0 6.6764c-.1518 0-.2974-.0602-.4048-.1673-.1075-.1071-.168-.2524-.1683-.4041v-4.7651c0-.1519.0603-.2975.1678-.4049s.2533-.1677.4053-.1677.2977.0603.4052.1677.1679.253.1679.4049v4.769c-.0003.1516-.0609.2969-.1683.404-.1075.1071-.253.1673-.4048.1673zm0-5.7259c-.1014 0-.1985.0402-.2702.1118-.0716.0716-.1119.1687-.1119.2699v4.7767c0 .1012.0403.1983.1119.2699.0717.0716.1688.1118.2702.1118.1013 0 .1985-.0402.2701-.1118.0717-.0716.112-.1687.112-.2699v-4.769c0-.1013-.0403-.1984-.112-.27-.0716-.0715-.1688-.1118-.2701-.1118z"/><path d="m25.7979 40.4955c-.1267 0-.2481-.0503-.3377-.1398-.0896-.0894-.1399-.2108-.1399-.3374v-1.9086c0-.1265.0503-.2479.1399-.3374s.211-.1397.3377-.1397.2482.0502.3377.1397c.0896.0895.1399.2109.1399.3374v1.9086c0 .1266-.0503.248-.1399.3374-.0895.0895-.211.1398-.3377.1398z"/><path d="m23.0388 52.8404h-13.10025c-.11816-.0122-.2276-.0677-.30716-.1559-.07956-.0881-.12358-.2026-.12358-.3212 0-.1187.04402-.2332.12358-.3213s.189-.1437.30716-.1559h12.66595v-12.8208c-.0056-.1208.037-.2388.1184-.3282.0815-.0895.195-.143.3159-.149h2.6096c.1181.0122.2276.0678.3071.1559.0796.0881.1236.2026.1236.3213s-.044.2331-.1236.3213c-.0795.0881-.189.1436-.3071.1558h-2.1715v12.8209c.0052.1208-.0377.2389-.1193.3283s-.1953.1429-.3163.1488"/><path d="m23.034 52.9345h-13.10151c-.152 0-.29776-.0603-.40524-.1677s-.16787-.253-.16787-.4049c0-.1518.06039-.2975.16787-.4049.10748-.1073.25324-.1677.40524-.1677h12.57171v-12.7241c-.0055-.1459.0472-.2881.1465-.3952.0994-.1071.2372-.1705.3833-.1761h2.6083c.152 0 .2978.0603.4053.1677.1074.1074.1678.253.1678.4049 0 .1518-.0604.2975-.1678.4049-.1075.1073-.2533.1677-.4053.1677h-2.0798v12.7241c.0055.1457-.047.2877-.1461.3948-.099.1071-.2366.1705-.3824.1765zm-13.10151-.9543c-.10133 0-.1985.0402-.27015.1118-.07166.0716-.11193.1687-.11193.2699 0 .1013.04027.1983.11193.2699.07165.0716.16882.1118.27015.1118h13.10151c.0955-.0062.1847-.0497.2484-.1212.0636-.0714.0965-.165.0916-.2605v-12.915h2.2683c.1014 0 .1985-.0402.2702-.1118.0716-.0716.1119-.1687.1119-.2699s-.0403-.1983-.1119-.2699c-.0717-.0716-.1688-.1118-.2702-.1118h-2.6083c-.0958.0059-.1853.0493-.2492.1208-.0639.0714-.097.1652-.0921.2609v12.915z"/><path d="m36.876 37.1578c-.1266 0-.2481-.0502-.3377-.1397s-.1399-.2109-.1399-.3374v-1.9086c0-.1266.0503-.2479.1399-.3374s.2111-.1398.3377-.1398c.1267 0 .2482.0503.3377.1398.0896.0895.1399.2108.1399.3374v1.9086c-.0003.1264-.0507.2476-.1402.337s-.2108.1398-.3374.1401z"/><path d="m46.697 50.4559h-7.2455c-.1266 0-.2481-.0503-.3377-.1398s-.1399-.2108-.1399-.3374v-13.7751h-1.9104c-.1266 0-.2481-.0503-.3377-.1398s-.1399-.2108-.1399-.3374c0-.1265.0503-.2479.1399-.3374s.2111-.1397.3377-.1397h2.3868c.1266 0 .2481.0502.3377.1397.0895.0895.1399.2109.1399.3374v13.7764h6.7679c.2623 0 .5667.2125.5667.4759s-.3044.4772-.5667.4772"/><path d="m46.6975 50.5503h-7.2455c-.1515-.0004-.2968-.0607-.404-.1677-.1071-.1071-.1675-.2522-.1678-.4036v-13.681h-1.8149c-.152 0-.2978-.0603-.4053-.1677-.1074-.1074-.1678-.253-.1678-.4049 0-.1518.0604-.2975.1678-.4049.1075-.1073.2533-.1677.4053-.1677h2.3867c.1518 0 .2974.0602.4048.1673.1075.1071.168.2524.1683.404v13.6836h6.6724c.3057 0 .661.2544.661.5713 0 .3168-.3553.5713-.661.5713zm-9.6322-15.2015c-.1013 0-.1985.0402-.2702.1118-.0716.0716-.1119.1687-.1119.2699s.0403.1983.1119.2699c.0717.0716.1689.1118.2702.1118h2.0046v13.8693c0 .1013.0403.1984.112.2699.0716.0716.1688.1118.2701.1118h7.2455c.2127 0 .4725-.1768.4725-.3817 0-.2048-.2547-.3817-.4725-.3817h-6.8621v-13.8693c0-.1012-.0403-.1983-.1119-.2699-.0717-.0716-.1689-.1118-.2702-.1118z"/></g><path d="m53.8481 27.798c5.0547-5.0501 5.0547-13.2378 0-18.28791-5.0548-5.05008-13.2502-5.05007-18.305 0-5.0548 5.05011-5.0548 13.23781 0 18.28791s13.2502 5.0501 18.305 0z" fill="#0dab30"/><path d="m44.6917 31.9016c-2.6231 0-5.1872-.7771-7.3681-2.2331-2.181-1.4559-3.8808-3.5253-4.8845-5.9464s-1.2663-5.0853-.7545-7.6555 1.775-4.931 3.6299-6.78397c1.8548-1.85295 4.218-3.11475 6.7907-3.62585 2.5726-.51109 5.2392-.24853 7.6625.7545s4.4944 2.70147 5.9515 4.88052c1.4571 2.1791 2.2347 4.7409 2.2344 7.3614-.004 3.5127-1.4026 6.8803-3.8889 9.364-2.4862 2.4837-5.8571 3.8807-9.373 3.8844zm0-25.86177c-2.4971 0-4.938.73976-7.0142 2.12574s-3.6944 3.35593-4.65 5.66073c-.9555 2.3048-1.2056 4.8409-.7184 7.2877.4871 2.4468 1.6896 4.6943 3.4552 6.4583 1.7657 1.764 4.0153 2.9653 6.4643 3.452 2.4491.4867 4.9876.2369 7.2945-.7178s4.2787-2.5713 5.666-4.6456 2.1277-4.513 2.1277-7.0077c-.0037-3.3441-1.335-6.5502-3.7019-8.9149-2.3669-2.36467-5.576-3.69477-8.9232-3.69847z" fill="#0dab30"/><path d="m53.111 15.1566-9.2285 10.6692c-.0176.0258-.0406.0475-.0674.0636-.0269.0161-.0569.0262-.088.0295-.0311.0034-.0626 0-.0923-.0099-.0296-.0099-.0568-.0262-.0796-.0476l-7.6021-5.8277 2.2925-2.9265 4.8473 3.7523c.0229.0215.0502.0377.08.0477.0297.0099.0613.0133.0925.0099.0312-.0033.0613-.0134.0883-.0295.0269-.0161.05-.0378.0678-.0637l7.313-8.6193z" fill="#fff"/></svg>