<svg fill="none" height="55" viewBox="0 0 55 55" width="55" xmlns="http://www.w3.org/2000/svg" xmlns:xlink="http://www.w3.org/1999/xlink"><clipPath id="a"><path d="m7 10h37v38h-37z"/></clipPath><path d="m27.2461 54.4414c15.0475 0 27.246-12.1871 27.246-27.2207s-12.1985-27.2207-27.246-27.2207c-15.0476 0-27.2461 12.1871-27.2461 27.2207s12.1985 27.2207 27.2461 27.2207z" fill="#0d52d4"/><g clip-path="url(#a)" fill="#fff"><path d="m40.326 16.9177c-.0015-1.594-.6035-3.1281-1.6846-4.293-1.0811-1.1648-2.5609-1.8737-4.1408-1.9835s-3.1425.3875-4.3724 1.3916c-1.23 1.0042-2.0359 2.4405-2.255 4.0191-.0408.2868-.061.5762-.0603.8658v16.4503c-.6206.6532-1.1345 1.4013-1.5225 2.2164-.2914.6058-.5072 1.2456-.6423 1.9048-.1301.6001-.1955 1.2126-.195 1.8268-.0008 1.6805.4844 3.3249 1.3963 4.7327.9119 1.4077 2.2111 2.5179 3.7391 3.1952 1.0952.489 2.28.7417 3.4781.7417s2.3829-.2527 3.478-.7417c1.5292-.6764 2.8296-1.7863 3.7425-3.1941.913-1.4078 1.399-3.0526 1.3987-4.7338.0062-2.215-.8394-4.3466-2.3598-5.948zm-6.2594 29.267c-1.8077-.0023-3.5407-.7261-4.8189-2.0126-1.2782-1.2866-1.9974-3.0309-1.9996-4.8503 0-.0693 0-.1414 0-.2107.0585-1.7595.7899-3.4283 2.0415-4.658l.0545-.052.2867-.2683v-17.2151c.0295-1.1716.5127-2.2853 1.3464-3.1035.8338-.8182 1.9522-1.2761 3.1166-1.2761 1.1645 0 2.2828.4579 3.1166 1.2761s1.3169 1.9319 1.3464 3.1035v17.2151l.2868.2683c.6617.6363 1.188 1.4014 1.5469 2.2488.3588.8474.5427 1.7594.5405 2.6805-.0023.9041-.1818 1.7989-.5282 2.633-.3464.8342-.853 1.5913-1.4907 2.2281-.6377.6367-1.3939 1.1406-2.2254 1.4826s-1.7219.5155-2.6201.5106z"/><path d="m40.4756 27.3882h2.6236c.238 0 .4663-.0952.6346-.2646s.2629-.3992.2629-.6387c0-.2396-.0946-.4694-.2629-.6388s-.3966-.2646-.6346-.2646h-2.6236c-.238 0-.4663.0952-.6346.2646s-.2629.3992-.2629.6388c0 .2395.0946.4693.2629.6387s.3966.2646.6346.2646z"/><path d="m40.4756 23.3853h2.6236c.238 0 .4663-.0952.6346-.2646s.2629-.3992.2629-.6388c0-.2395-.0946-.4693-.2629-.6387s-.3966-.2646-.6346-.2646h-2.6236c-.238 0-.4663.0952-.6346.2646s-.2629.3992-.2629.6387c0 .2396.0946.4694.2629.6388s.3966.2646.6346.2646z"/><path d="m39.5781 18.4791c.0008.2391.0957.4681.2639.6369s.3961.2636.6336.2636h2.6236c.2375 0 .4654-.0948.6336-.2636s.2631-.3978.2639-.6369c0-.2396-.0946-.4693-.2629-.6387s-.3966-.2646-.6346-.2646h-2.6265c-.2375.0008-.465.0963-.6327.2656s-.2619.3986-.2619.6377z"/><path d="m35.5093 36.1443v-5.2092c0-.3827-.151-.7498-.4199-1.0204s-.6335-.4226-1.0138-.4226c-.3802 0-.7448.152-1.0137.4226s-.4199.6377-.4199 1.0204v5.2121c-.3241.1466-.6247.3412-.8918.5772-.1603.1479-.308.3091-.4415.4819-.4356.5776-.6821 1.2772-.7053 2.0019-.0233.7248.1778 1.4389.5755 2.0436.3976.6046.9721 1.07 1.644 1.3316.672.2616 1.408.3066 2.1065.1287.6984-.1779 1.3246-.5699 1.792-1.1217s.7528-1.2362.8168-1.9585c.064-.7222-.0966-1.4467-.4595-2.073-.363-.6264-.9104-1.1237-1.5665-1.4233z"/><path d="m24.3639 37.2179c.1276-.6292.3198-1.2434.5734-1.8326l-2.4429-2.4762v-5.5411l4.0142 2.3261v-2.5108l-2.9218-1.6941 2.9218-1.697v-2.5137l-4.0142 2.329v-5.5325l4.5045-4.5194c.2023-.2036.316-.4798.316-.7677 0-.288-.1137-.5641-.316-.7677s-.4766-.318-.7627-.318-.5604.1144-.7627.318l-2.9791 2.9957v-3.9308c0-.1425-.0279-.2836-.0821-.4152-.0542-.1317-.1336-.2513-.2337-.3521-.1001-.1007-.219-.1807-.3498-.2352s-.271-.0826-.4126-.0826c-.1415 0-.2817.0281-.4125.0826s-.2497.1345-.3498.2352c-.1001.1008-.1795.2204-.2337.3521-.0542.1316-.0821.2727-.0821.4152v3.9308l-2.9648-2.9957c-.1001-.1008-.2191-.1808-.3499-.2353-.1309-.0546-.2712-.0827-.4128-.0827s-.2819.0281-.4128.0827c-.1308.0545-.2497.1345-.3499.2353s-.1796.2205-.2338.3522-.0821.2729-.0821.4155c0 .1425.0279.2837.0821.4154.0542.1318.1336.2514.2338.3523l4.4902 4.5194v5.5412l-4.7626-2.7677-1.6458-6.1789c-.0761-.2783-.2588-.5147-.5081-.6573-.2492-.1426-.5445-.1798-.821-.1032-.2764.0765-.5113.2605-.653.5113-.1417.2509-.1785.5481-.1025.8264l1.0839 4.0779-3.37202-1.9596c-.12276-.0713-.25825-.1175-.39875-.136-.1405-.0186-.28325-.0091-.42011.0279-.13685.037-.26513.1007-.37751.1876s-.20665.1952-.27744.3187c-.07079.1236-.11671.26-.13514.4014-.01842.1414-.00899.2851.02775.4228.03674.1378.10008.2669.1864.38s.19393.208.31668.2793l3.37194 1.9595-4.06297 1.0765c-.13687.0379-.26499.1026-.37703.1903-.11204.0878-.20582.1968-.27598.3211-.07016.1242-.11532.2611-.13292.4029-.01759.1417-.00726.2856.03039.4234.03766.1378.1019.2667.18907.3795s.19555.2071.31896.2778c.24924.1426.54455.1797.82098.1032l6.1332-1.6537 4.7626 2.7705-4.7655 2.7648-6.1303-1.6537c-.27681-.0765-.57249-.0392-.82199.1037-.24951.1428-.4324.3796-.50845.6583-.07605.2786-.03902.5762.10294.8273s.37723.4352.65403.5118l4.05157 1.0909-3.36054 1.9538c-.24791.1439-.42887.381-.50308.6592s-.03558.5747.10739.8242.37856.4317.65495.5064c.27639.0746.57094.0358.81886-.1081l3.37202-1.9596-1.0839 4.0779c-.0377.1378-.048.2816-.0304.4234s.0628.2787.1329.4029c.0702.1242.164.2333.276.3211.1121.0877.2402.1524.377.1903.1369.0379.2799.0482.4207.0305.1409-.0177.2769-.0631.4003-.1337.1234-.0707.2318-.165.319-.2778s.1514-.2417.1891-.3795l1.6429-6.1761 4.7655-2.7705v5.5238l-4.4902 4.5281c-.1919.2056-.2967.4784-.2922.7605.0045.282.118.5512.3164.7505.1983.1993.466.313.7463.317.2802.004.551-.102.7549-.2955l2.9648-2.9841v3.9192c0 .2878.1136.5638.3158.7673s.4764.3178.7623.3178c.286 0 .5602-.1143.7624-.3178s.3158-.4795.3158-.7673v-3.9135l1.7662 1.7749c.0287-.1847.0631-.3665.1033-.5483z"/></g></svg>