<svg fill="none" height="19" viewBox="0 0 19 19" width="19" xmlns="http://www.w3.org/2000/svg"><path d="m18.498 0v2c0 9.6274-5.3725 14-11.99995 14l-3.75728-.0001c-.16217.9121-.24272 1.9071-.24272 3.0001h-2.000003c0-1.3627.11571-2.6003.34576-3.7318-.23051-1.2941-.34576-3.0506-.34576-5.2682 0-5.52285 4.477153-10 9.999953-10 2 0 4 1 8 0zm-8 2c-4.41823 0-7.99995 3.58172-7.99995 8 0 .3624.0032.7111.00954 1.0459 1.25439-1.9775 3.09143-3.5411 5.49431-4.91414l.9923 1.73644c-2.8549 1.6314-4.74866 3.4853-5.72091 6.1316l3.22476.0002c6.01515 0 9.87115-3.9731 9.99685-11.61234-1.372.13347-2.6468.04834-4.2195-.18757-1.1511-.17267-1.3766-.20009-1.7774-.20009z" fill="#000"/></svg>