<svg fill="none" height="13" viewBox="0 0 14 13" width="14" xmlns="http://www.w3.org/2000/svg"><path d="m7.66732 4.33398v5.33334c0 1.10458-.8954 1.99998-2 1.99998h-1.44714c-.27456.7768-1.01538 1.3334-1.8862 1.3334-1.10456 0-1.999996-.8954-1.999996-2 0-1.10465.895436-2.00005 1.999996-2.00005.87082 0 1.61164.55653 1.8862 1.33335h1.44714c.3682 0 .66666-.2985.66666-.66668v-5.33334c0-1.10456.8954-2 2-2h2.00002v-1.999996l3.3333 2.666666-3.3333 2.66667v-2h-2.00002c-.3682 0-.66666.29848-.66666.66666zm-5.33334 7.33332c.36819 0 .66667-.2984.66667-.6666s-.29848-.6667-.66667-.6667c-.36818 0-.66666.2985-.66666.6667s.29848.6666.66666.6666z" fill="#000091"/></svg>