<svg fill="none" height="22" viewBox="0 0 22 22" width="22" xmlns="http://www.w3.org/2000/svg"><path d="m5.34226 13.222-2.82843 2.8285 3.53553 3.5355 13.43504-13.43508-3.5356-3.53553-2.1213 2.12132 1.4142 1.41421-1.4142 1.41422-1.4142-1.41422-2.1213 2.12132 2.1213 2.12136-1.4142 1.4142-2.12131-2.12134-2.12132 2.12134 1.41421 1.4142-1.41421 1.4142zm11.31364-12.727931 4.9498 4.949751c.3905.39052.3905 1.02368 0 1.41421l-14.84923 14.84927c-.39052.3905-1.02369.3905-1.41421 0l-4.949753-4.9497c-.39053012-.3906-.39053012-1.0237 0-1.4142l14.849193-14.849331c.3905-.39053 1.0237-.39053 1.4142 0z" fill="#000"/></svg>