<svg fill="none" height="62" viewBox="0 0 63 62" width="63" xmlns="http://www.w3.org/2000/svg" xmlns:xlink="http://www.w3.org/1999/xlink"><clipPath id="a"><path d="m.867188.711182h42v49h-42z"/></clipPath><path d="m35.0522 61.1584c14.8971 0 26.998-12.0765 27.028-26.9736.0301-14.897-12.022-26.9735-26.9191-26.9735s-26.99797 12.0765-27.02804 26.9735c-.03007 14.8971 12.02204 26.9736 26.91914 26.9736z" fill="#efc73f"/><g clip-path="url(#a)"><path d="m18.3832 19.0977 2.8695 2.8241c.1148.1143.2516.205.4023.2667.1508.0618.3125.0933.4758.0928.1636.0003.3256-.0313.4766-.093.1511-.0617.2883-.1523.4035-.2665l2.8695-2.8241c.2122-.2108.465-.3777.7436-.4909s.5774-.1704.8787-.1682h2.5329c.7974-.0005 1.5621-.3128 2.1259-.8681.5639-.5554.881-1.3084.8815-2.0938v-10.78504c-.0016-.78469-.3191-1.53672-.8829-2.09121-.5638-.55448-1.3278-.86616-2.1245-.86669h-15.5946c-.7974.00053-1.5621.31276-2.126.86811-.5639.55534-.8809 1.30841-.8814 2.09378v10.78505c.0005.7854.3175 1.5384.8814 2.0938.5639.5553 1.3286.8676 2.126.8681h2.324c.3003-.002.5981.055.8759.1674.2778.1125.5302.2783.7423.4877zm-2.109-7.7193c-.3054-.4719-.4993-1.0052-.5673-1.56072-.0681-.55551-.0087-1.11899.1739-1.64884.1668-.5003.4454-.95738.8153-1.3376.3699-.38021.8217-.67387 1.3221-.85936.4256-.156.8762-.23582 1.3303-.23567.5143-.00066 1.0233.10149 1.4964.30026.473.19878.9001.49003 1.2555.85614.3556-.36583.7828-.6569 1.2557-.85565.473-.19875.9819-.30106 1.4961-.30075.7909-.00149 1.5625.24085 2.2064.69304.7334.52255 1.2456 1.29294 1.4386 2.16394.1931.871.0534 1.78151-.3922 2.55751l-.0122.022c-.4663.7733-1.0789 1.4513-1.8048 1.9972l-3.8185 2.9259c-.0908.0702-.203.1082-.3184.1079-.1149-.0006-.2266-.0377-.3184-.1059l-3.8328-2.9239c-.6439-.4828-1.2089-1.06-1.675-1.7116-.0162-.034-.0345-.06-.0507-.0859z" fill="#fff"/><path d="m22.126 23.3018c.3014.0022.6001-.055.8787-.1682s.5315-.2801.7436-.4909l2.8695-2.824c.1153-.1143.2524-.2049.4035-.2666s.3131-.0933.4766-.0929h2.5369c.7449-.0013 1.475-.2046 2.1103-.5875.6353-.383 1.1513-.9308 1.4913-1.5835.2926-.5611.4449-1.1828.4441-1.8135v-10.78505c0-1.05767-.4259-2.07217-1.1843-2.82099s-1.7874-1.170825-2.8614-1.17347h-15.5946c-1.0739.002645-2.1029.42465-2.8613 1.17347s-1.1844 1.76332-1.1844 2.82099v10.78505c0 1.0576.426 2.0721 1.1844 2.821.7584.7488 1.7874 1.1708 2.8613 1.1734h2.324c.1636-.0003.3255.0313.4766.093s.2882.1523.4035.2665l1.45 1.4281 1.4195 1.398c.2123.2071.4639.3708.7406.4819.2766.111.5729.1672.8716.1652zm-10.6932-7.8271v-10.78505c.0006-.78538.3176-1.53844.8815-2.09379.5638-.55535 1.3285-.86757 2.1259-.8681h15.5946c.7975.00053 1.5621.31275 2.126.8681s.8809 1.30841.8814 2.09379v10.78505c-.0005.7854-.3175 1.5384-.8814 2.0938-.5639.5553-1.3285.8675-2.126.8681h-2.545c-.3014-.0022-.6001.055-.8787.1682s-.5315.2801-.7436.4909l-2.8573 2.824c-.1153.1143-.2524.2049-.4035.2666s-.3131.0933-.4766.0929c-.1633.0006-.3251-.0309-.4758-.0927-.1508-.0617-.2876-.1524-.4023-.2668l-2.8695-2.822c-.2123-.2107-.4652-.3774-.7437-.4906-.2786-.1132-.5773-.1705-.8786-.1685h-2.324c-.7964-.0027-1.5593-.3161-2.1214-.8717-.5622-.5555-.8779-1.3079-.8779-2.0922z" fill="#dea81e"/><path d="m17.1757 10.8651c.4052.5671.897 1.0691 1.4581 1.488l3.5164 2.6803 3.5001-2.6823c.6211-.4672 1.1468-1.046 1.5494-1.7056l.4542.2436-.4583-.2536c.3192-.5557.4193-1.20763.2813-1.83137-.1381-.62375-.5046-1.17554-1.0296-1.54997-.4685-.32796-1.0293-.50389-1.6041-.5033-.4588.00095-.9101.11404-1.3136.32911s-.7465.52541-.9982.90318c-.0472.07093-.1116.12922-.1874.16965-.0757.04043-.1604.06174-.2465.06202-.0861-.00046-.1708-.02185-.2465-.06226-.0757-.04042-.1401-.09861-.1875-.16941-.2522-.37875-.5961-.68971-1.0007-.90484-.4047-.21514-.8574-.32767-1.3172-.32745-.3303-.00043-.658.05775-.9673.17176-.3559.13289-.6769.34275-.9394.61409-.2626.27135-.4599.59727-.5775.95373-.1329.38575-.1762.79596-.1267 1.20039.0495.40447.1905.79277.4126 1.13637.0083.0135.0178.0262.0284.0379z" fill="#4550e5"/><path d="m18.0001 13.1619 3.8328 2.924c.0918.0681.2035.1052.3184.1058.1154.0004.2275-.0376.3183-.1078l3.8186-2.926c.7258-.5458 1.3385-1.2238 1.8048-1.9972l.0122-.022c.4456-.776.5852-1.68648.3922-2.55747-.193-.871-.7052-1.64139-1.4386-2.16394-.6439-.45219-1.4155-.69453-2.2064-.69304-.5142-.00031-1.0231.102-1.4961.30075s-.9001.48982-1.2557.85565c-.3554-.36611-.7826-.65737-1.2556-.85614s-.982-.30092-1.4963-.30026c-.4541-.00015-.9047.07967-1.3303.23567-.5004.18549-.9522.47915-1.3221.85936s-.6485.8373-.8153 1.33759c-.1826.52986-.2421 1.09334-.174 1.64885.0681.55548.262 1.08888.5674 1.56068.0162.026.0344.0519.0507.0739.4653.6552 1.0303 1.2358 1.675 1.7216zm-1.1356-4.67149c.1176-.35646.315-.68238.5775-.95373s.5836-.4812.9394-.61409c.3093-.11401.637-.17219.9673-.17176.4599-.00022.9125.11231 1.3172.32745.4046.21513.7485.52609 1.0007.90483.0474.07081.1118.129.1875.16942.0757.04041.1604.0618.2465.06226.0861-.00028.1708-.0216.2465-.06203.0758-.04043.1402-.09871.1874-.16965.2523-.37861.5962-.68948 1.0009-.90459.4046-.21512.8572-.32773 1.317-.32769.5748-.00059 1.1356.17534 1.6041.5033.5237.37559.8886.92792 1.0251 1.55158s.0351 1.27499-.2849 1.82969l.4502.2537-.4502-.2437c-.4026.6597-.9283 1.2384-1.5493 1.7057l-3.5002 2.6822-3.5164-2.6803c-.561-.4189-1.0529-.9208-1.458-1.4879-.01-.0118-.0188-.0245-.0264-.0379-.2215-.344-.3618-.7324-.4106-1.13686-.0487-.40442-.0048-.81447.1287-1.19993z" fill="#dea81e"/><path d="m25.8555 37.2366c1.2335.3981 2.3293 1.1282 3.1636 2.1076s1.3737 2.1692 1.5573 3.4347v.016h9.6873c.2236.0001.4445-.047.648-.1382.2035-.0911.3848-.2242.5316-.3902s.2559-.3611.3196-.5721c.0638-.211.0809-.433.0502-.6511l-.5678-4.0184c-.177-1.2136-.7382-2.3414-1.6036-3.2228s-1.9911-1.4715-3.2168-1.6864c-.8648.5084-1.8532.7768-2.8603.7768-1.0072 0-1.9956-.2684-2.8604-.7768-1.2529.2197-2.4006.8311-3.273 1.7436-.1333 1.2292-.6834 2.3782-1.5615 3.2615z" fill="#4550e5"/><path d="m33.5666 31.8699c2.5177 0 4.5587-2.0101 4.5587-4.4897 0-2.4797-2.041-4.4898-4.5587-4.4898-2.5178 0-4.5588 2.0101-4.5588 4.4898 0 2.4796 2.041 4.4897 4.5588 4.4897z" fill="#fff"/><path d="m2.29231 42.2656c.14652.1661.32754.2993.53079.3906.20326.0913.42404.1386.64744.1387h9.68736v-.016c.1836-1.2655.7231-2.4553 1.5573-3.4347.8343-.9794 1.9301-1.7095 3.1636-2.1076l-.0162-.1158c-.8781-.8833-1.4282-2.0323-1.5615-3.2615-.8717-.9123-2.0187-1.5237-3.271-1.7436-.8648.5084-1.8532.7768-2.8604.7768-1.00715 0-1.99553-.2684-2.86035-.7768-1.22593.2143-2.35187.8043-3.21742 1.6857-.86554.8815-1.42652 2.0096-1.60292 3.2235l-.56777 4.0184c-.03096.2181-.01384.4401.0502.651.06404.211.17347.4058.32087.5713z" fill="#4550e5"/><path d="m13.0104 43.8174-.4177 2.9779c-.0514.3629-.0231.7324.0829 1.0836.1061.3513.2873.676.5316.9524.2443.2763.5459.4979.8846.6497.3386.1518.7063.2303 1.0783.2302h13.4005c.3718-.0002.7393-.0789 1.0777-.2308.3384-.152.6398-.3736.8838-.6499.2441-.2763.4252-.601.5311-.952.1059-.3511.1341-.7205.0828-1.0832l-.4198-2.9779h9.5312c.372.0001.7398-.0784 1.0784-.2302s.6402-.3734.8845-.6497c.2443-.2764.4255-.6012.5316-.9524.106-.3512.1343-.7207.0829-1.0837l-.5677-4.0164c-.1859-1.2791-.7351-2.4805-1.5844-3.4654-.8494-.9849-1.9642-1.7132-3.2157-2.1009.7962-.7655 1.3427-1.7474 1.5696-2.8202.2269-1.0729.124-2.188-.2957-3.203-.4196-1.015-1.1369-1.8837-2.0602-2.4953s-2.0108-.9382-3.1235-.9382c-1.1128 0-2.2002.3266-3.1235.9382-.9234.6116-1.6407 1.4803-2.0603 2.4953s-.5225 2.1301-.2956 3.203c.2269 1.0728.7734 2.0547 1.5696 2.8202-.8161.2537-1.5777.6531-2.2469 1.1784-.1883-1.3152-.8525-2.5192-1.8705-3.3904-1.0179-.8712-2.3212-1.3509-3.6698-1.3509s-2.6519.4797-3.6698 1.3509c-1.018.8712-1.6822 2.0752-1.8705 3.3904-.6694-.5248-1.431-.9242-2.2468-1.1784.7966-.7657 1.3434-1.748 1.5704-2.8213.2271-1.0732.1242-2.1888-.2955-3.2042-.4198-1.0154-1.1373-1.8846-2.061-2.4964-.9237-.6119-2.0116-.9386-3.1248-.9386-1.11317 0-2.20105.3267-3.12474.9386-.92369.6118-1.64123 1.481-2.06098 2.4964s-.52266 2.131-.29557 3.2042c.22709 1.0733.77387 2.0556 1.57049 2.8213-1.25132.3878-2.36578 1.1162-3.21475 2.1011-.84898.9849-1.39784 2.1862-1.58326 3.4652l-.567828 4.0164c-.052701.3624-.025655.7317.079314 1.0828.104974.3512.285404.676.529054.9524.13152.15.28058.284.4441.3995.44206.3127.97258.4811 1.51688.4813zm-11.09059-2.7742.56778-4.0184c.1764-1.2139.73738-2.3419 1.60292-3.2234s1.99149-1.4715 3.21742-1.6858c.86481.5084 1.8532.7769 2.86037.7769 1.0072 0 1.9955-.2685 2.8604-.7769 1.2522.2199 2.3993.8313 3.271 1.7436.1333 1.2292.6834 2.3782 1.5615 3.2615l.0162.1158c-1.2335.3982-2.3293 1.1282-3.1636 2.1076s-1.3737 2.1692-1.5574 3.4347v.016h-9.68932c-.22336-.0002-.4441-.0475-.64733-.1388-.20324-.0913-.38428-.2244-.53089-.3903-.14661-.166-.25537-.361-.31904-.5718-.06367-.2109-.08071-.4328-.05001-.6507zm3.68876-13.663c.002-.8879.27128-1.7553.77378-2.4925s1.21565-1.3111 2.0493-1.6491c.83364-.3381 1.75035-.4251 2.63415-.2501.8839.175 1.6952.6042 2.3314 1.2333.6363.6291 1.0688 1.4299 1.2429 2.3011.1742.8711.0822 1.7736-.2644 2.5933s-.9321 1.5197-1.6827 2.0117c-.7505.4919-1.6323.7536-2.5338.7521-1.20893-.0037-2.367-.4796-3.22012-1.3232-.85311-.8435-1.33159-1.986-1.33051-3.1766zm11.69903 5.8978c0-.888.2673-1.756.7682-2.4944.501-.7383 1.2129-1.3138 2.0459-1.6536s1.7497-.4287 2.634-.2555c.8843.1733 1.6965.6009 2.3341 1.2288s1.0717 1.4279 1.2476 2.2988.0856 1.7737-.2594 2.5941-.9293 1.5216-1.679 2.0149c-.7497.4934-1.6311.7567-2.5327.7567-1.2086-.0016-2.3672-.4751-3.2217-1.3168-.8546-.8416-1.3354-1.9827-1.337-3.173zm13.3963-1.1584c.8648.5084 1.8532.7769 2.8604.7769 1.0071 0 1.9955-.2685 2.8603-.7769 1.2257.2149 2.3514.805 3.2168 1.6864.8655.8814 1.4266 2.0092 1.6036 3.2228l.5678 4.0184c.0307.2181.0136.4401-.0501.6511-.0638.211-.1728.4061-.3197.5721-.1468.166-.3281.2991-.5316.3902-.2034.0912-.4244.1383-.6479.1382h-9.6874v-.016c-.1836-1.2655-.723-2.4553-1.5573-3.4347s-1.9301-1.7094-3.1636-2.1076l.0162-.1158c.8781-.8833 1.4282-2.0323 1.5615-3.2615.8713-.9136 2.0183-1.5264 3.271-1.7476zm-1.6994-4.7354c.0012-.8877.2696-1.7552.7713-2.4927.5016-.7376 1.214-1.3121 2.0471-1.651s1.7495-.427 2.6334-.2531c.884.1739 1.6957.602 2.3326 1.2302.637.6281 1.0705 1.4281 1.2459 2.2989.1755.8707.0848 1.7732-.2604 2.5932-.3452.8201-.9295 1.5209-1.6791 2.014-.7495.4931-1.6307.7563-2.5321.7563-1.2103-.0016-2.3704-.4765-3.2252-1.3203-.8549-.8439-1.3346-1.9875-1.3335-3.1795zm1.1093 19.5569c.0307.2179.0136.4397-.05.6506-.0637.2108-.1725.4058-.3191.5718s-.3276.2991-.5309.3903c-.2032.0913-.4239.1386-.6473.1388h-13.4004c-.2236.0001-.4445-.047-.648-.1382-.2035-.0911-.3848-.2242-.5316-.3902s-.2558-.361-.3196-.5721c-.0638-.211-.0809-.433-.0501-.651l.5678-4.0185c.177-1.2136.7381-2.3414 1.6036-3.2228.8654-.8814 1.9911-1.4715 3.2167-1.6864.8649.5084 1.8532.7769 2.8604.7769s1.9955-.2685 2.8604-.7769c1.2258.2146 2.3515.8047 3.217 1.6861s1.4266 2.0094 1.6033 3.2231z" fill="#dea81e"/><path d="m10.1681 31.8699c2.5177 0 4.5587-2.0101 4.5587-4.4897 0-2.4797-2.041-4.4898-4.5587-4.4898-2.51771 0-4.55872 2.0101-4.55872 4.4898 0 2.4796 2.04101 4.4897 4.55872 4.4897z" fill="#fff"/><path d="m29.5495 42.9187c-.1767-1.2138-.7377-2.3417-1.6032-3.2231-.8655-.8815-1.9913-1.4715-3.2171-1.6861-.8648.5084-1.8532.7768-2.8604.7768-1.0071 0-1.9955-.2684-2.8603-.7768-1.2257.2149-2.3514.805-3.2168 1.6864s-1.4266 2.0092-1.6036 3.2228l-.5678 4.0184c-.0307.2181-.0136.4401.0502.6511s.1727.4061.3196.5721c.1468.166.3281.2991.5315.3902.2035.0912.4245.1383.648.1382h13.4004c.2234-.0002.4442-.0475.6474-.1388s.3842-.2244.5308-.3903c.1466-.166.2554-.361.3191-.5719.0637-.2108.0807-.4327.05-.6506z" fill="#4550e5"/><path d="m22.1184 37.7598c2.5139-.1372 4.4389-2.2554 4.2997-4.7312-.1392-2.4759-2.29-4.3718-4.8038-4.2346-2.5139.1371-4.4389 2.2553-4.2997 4.7311.1392 2.4759 2.29 4.3718 4.8038 4.2347z" fill="#fff"/></g></svg>