<svg fill="none" height="81" viewBox="0 0 79 81" width="79" xmlns="http://www.w3.org/2000/svg"><path d="m41.8693 64.7701c.9529-.374 1.9856-.4979 3-.3601.4136-1.5566 1.4087-2.8952 2.78-3.74.6048-.3648 1.2777-.6027 1.9774-.6989.6998-.0963 1.4118-.049 2.0927.1389.4252.1215.8347.2927 1.2199.51.7289-.7183 1.6428-1.2202 2.64-1.45-.0834-1.1956-.3084-2.3772-.67-3.52-.5805-1.8278-1.5687-3.4999-2.89-4.89-.3651.5138-.8342.9449-1.377 1.2654-.5427.3205-1.1468.5231-1.773.5946-.2589.0316-.5192.0483-.7799.05-.9401.0013-1.8666-.2251-2.7001-.66-2.82-1.44-5.62-6.86-5.74-7.09-.0474-.0934-.0571-.2014-.0274-.3018.0298-.1004.0968-.1856.1874-.2381h.08c.24-.09 6-2.0801 9-1.1801 1.0759.3087 2.0408.9195 2.78 1.7601.5677.6351.9501 1.414 1.1052 2.2517.1552.8377.0773 1.7019-.2252 2.4983l-.15.3499c1.3225 1.3474 2.3449 2.9594 3 4.73.4085-1.2662.9622-2.481 1.65-3.62 1.2374-2.0599 2.759-3.935 4.52-5.5699-.5338-.9034-.702-1.9767-.4699-3 .1661-.7949.4943-1.547.964-2.2094s1.0708-1.2209 1.7659-1.6407c1.2684-.6335 2.6541-.9978 4.07-1.07-.3086-3.7855-1.362-7.4728-3.1-10.85-.431.4848-.8884.9455-1.37 1.3801-1.5953 1.0795-3.3962 1.8182-5.29 2.17-4 1.0499-8 2.1399-7.87 7.5899.0055.0807-.0134.1611-.0545.2307-.041.0696-.1022.1252-.1755.1593-.8116.3866-1.7011.5816-2.6.57-1.7912-.0546-3.5281-.6277-5-1.65-1.2039-.7191-2.1933-1.7477-2.8651-2.9788-.6718-1.231-1.0015-2.6195-.9549-4.0212.0107-.097.0543-.1876.1234-.2566.069-.0691.1595-.1126.2566-.1234l1.14-.09c3.63-.27 6.81-.51 9.25-2.8-2.349.0109-4.6682-.5257-6.7737-1.5671-2.1055-1.0415-3.9395-2.5592-5.3563-4.4329-2.0161-2.6573-3.5153-5.6694-4.4199-8.8799-.0047-.0433-.0047-.0868 0-.1301 0-.11-.0701-.22-.1001-.33-6.6756 1.4696-12.6201 5.2439-16.79 10.66 3.6229-.3809 7.2774.3216 10.5009 2.0185 3.2235 1.697 5.8711 4.3121 7.6077 7.5144 1.7365 3.2023 2.4841 6.8478 2.1479 10.4752-.3362 3.6273-1.741 7.0733-4.0365 9.902l1.66 1.6499c.09.094.1531.2103.183.3369s.0253.2589-.013.3831c-.035.1259-.1054.2391-.2029.326s-.218.1438-.3471.1641l-5 1h-.13c-.1879-.0011-.3676-.0767-.5-.2101-.0842-.0814-.1467-.1826-.1816-.2944-.0349-.1119-.0413-.2307-.0184-.3456l1-5c.0235-.1277.0817-.2465.1681-.3435.0863-.0969.1978-.1684.322-.2065.1243-.0383.2564-.0428.383-.0129s.243.093.3369.1829l1.82 1.83c2.2166-2.7573 3.5497-6.1193 3.8251-9.6464.2753-3.5271-.52-7.0553-2.2819-10.1232s-4.4084-5.5328-7.5936-7.0726c-3.1852-1.5397-6.7609-2.0827-10.2595-1.5578-1.4768 2.0847-2.6737 4.3541-3.5601 6.75 2.4511-1.4846 5.3382-2.0813 8.177-1.6898s5.4567 1.7472 7.4145 3.8398c1.9579 2.0927 3.1365 4.7949 3.3383 7.6535s-.5854 5.6996-2.2297 8.0465c-.0175.0371-.0412.0709-.0701.1-1.7533 2.4649-4.3409 4.2104-7.2831 4.9128-2.9421.7024-6.0392.3142-8.7169-1.0928 1.0137 2.3054 2.3212 4.47 3.89 6.44 2.346.2898 4.7262.1062 7-.54.0519-.0167.1066-.0227.1608-.0175s.1069.0214.1546.0476c.0478.0262.0896.0619.1231.1049.0335.0429.0578.0923.0715.145.0312.1061.0192.2202-.0332.3176-.0524.0973-.1411.1701-.2468.2025-1.649.4702-3.3552.7091-5.0699.7099-.49 0-1.0001 0-1.4501-.06 2.6969 3.1274 6.0307 5.6427 9.7782 7.3776s7.8223 2.6495 11.9518 2.6824c.37-1.76 1.22-3.66 3.17-4.34" fill="#efc73f"/><path d="m64.8495 47.53c-1.037-.0763-2.0061-.5448-2.7101-1.31-5.23 5-6.0999 9.42-6.1999 10 .2342.9216.3881 1.8618.4599 2.81h.24c1.1978-.0076 2.3623.3946 3.3001 1.14 3.47-3.6026 5.9531-8.0386 7.2099-12.88-.5657.1621-1.1515.2429-1.74.24z" fill="#efc73f"/><path d="m67.6695 68.73c-.1207-.7294-.3876-1.4269-.7845-2.0507s-.9158-1.1609-1.5254-1.5793c-.4892-.3247-1.0391-.5471-1.6166-.6537-.5774-.1065-1.1706-.0951-1.7435.0337-.0571.0298-.1205.0454-.1849.0454-.0645 0-.128-.0156-.1851-.0454-.0582-.0298-.109-.0721-.1488-.124s-.0675-.112-.0812-.176c-.1854-1.081-.6864-2.083-1.4399-2.88-.4218-.4529-.9327-.8137-1.5006-1.0598s-1.1806-.3721-1.7995-.3702h-.1899c.0629 1.6537-.0478 3.3094-.3301 4.94.8316.3192 1.5585.8627 2.1 1.57.0613.0901.0862.2001.0694.3078-.0167.1076-.0737.2049-.1594.2722-.0738.0504-.1606.0782-.25.08-.0643-.0011-.1276-.0171-.1848-.0465-.0572-.0295-.1068-.0718-.1451-.1235-.5104-.6575-1.2075-1.1455-2-1.4-.84-.28-2.8301 0-3.3101.73-.0289.046-.0665.0858-.1108.1172s-.0943.0538-.1472.0659c-.053.0121-.1078.0136-.1613.0045s-.1047-.0287-.1506-.0576c-.046-.0289-.0858-.0665-.1172-.1108s-.0539-.0943-.0659-.1472c-.0121-.053-.0137-.1078-.0046-.1613s.0288-.1047.0577-.1507c.67-1.06 2.6299-1.35 3.8099-1.18.2481-1.5166.3453-3.0541.29-4.59-.8911.2345-1.694.7246-2.3099 1.41-.0681.0722-.1591.1186-.2576.1314-.0984.0127-.1982-.0089-.2824-.0614-.391-.2664-.8236-.4657-1.2801-.59-.5726-.1577-1.1714-.1965-1.7596-.1139-.5882.0825-1.1532.2847-1.6603.5939-.6253.3881-1.1662.8979-1.5906 1.4992-.4243.6012-.7234 1.2817-.8795 2.0008-.0026.0622-.019.1229-.048.178-.0289.055-.0698.1029-.1196.1402-.0497.0373-.1071.0631-.1681.0755-.0609.0125-.1239.0112-.1843-.0037-.9749-.2209-1.9941-.1372-2.9199.24-3.21 1.12-2.87 6.64-2.85 6.94l28.4399-3.16c-.0128-.1977-.0362-.3947-.0699-.59" fill="#4550e5"/><path d="m51.4092 50.17c-1.4229-1.2668-3.0763-2.2479-4.87-2.89-.0516-.0179-.0991-.0459-.1397-.0823-.0406-.0365-.0735-.0807-.0968-.1301s-.0365-.1029-.0388-.1574.0063-.109.0253-.1602c.0189-.0519.048-.0996.0854-.1403.0375-.0407.0826-.0736.1327-.0968.0502-.0232.1045-.0363.1597-.0385s.1104.0065.1622.0256c1.8289.6551 3.5232 1.6378 5 2.9.255-.6543.3228-1.3666.1956-2.0573-.1272-.6906-.4442-1.3321-.9155-1.8527-.6349-.7227-1.4647-1.247-2.3901-1.51-2.33-.7-6.7101.58-8.1001 1 .72 1.3 3.0001 5.2 5.1501 6.3.9222.4794 1.9693.6644 3 .53.5332-.0643 1.0462-.2433 1.5036-.5246.4575-.2814.8485-.6585 1.1464-1.1054" fill="#4550e5"/><path d="m70.4184 38.3101c-1.92 0-4.6399.17-6.0999 1.05-.5988.367-1.1162.8527-1.5203 1.4271s-.6864 1.2253-.8297 1.9129c-.1817.7668-.0788 1.5735.2899 2.27 1.828-1.6249 3.807-3.0715 5.91-4.32.0957-.0549.2092-.0699.3158-.0418.1067.0281.1979.0969.2542.1918.0289.0464.0483.0981.0569.1521.0086.0541.0063.1092-.0067.1624-.0131.0531-.0366.103-.0693.1469-.0326.0439-.0737.0808-.1208.1086-2.0868 1.2344-4.0493 2.6677-5.8601 4.28.565.6111 1.3402.9861 2.17 1.05.7035.073 1.4146.0006 2.0889-.2127.6743-.2134 1.2976-.563 1.8312-1.0273 1.73-1.54 2.91-5.7 3.26-7.11-.38 0-1.0001 0-1.6701 0" fill="#4550e5"/><path d="m68.8296 45.45c-.532.4671-1.1549.8192-1.8294 1.0343-.6746.2151-1.3864.2885-2.0906.2157-.8299-.0639-1.605-.4389-2.1701-1.05 1.8108-1.6123 3.7734-3.0456 5.8602-4.28.0471-.0278.0882-.0647.1208-.1086.0327-.0439.0562-.0938.0692-.1469.0131-.0531.0153-.1083.0067-.1624-.0086-.054-.0279-.1057-.0569-.1521-.0562-.0949-.1475-.1637-.2541-.1918-.1067-.0281-.2201-.0131-.3158.0418-2.103 1.2485-4.0821 2.6951-5.91 4.32-.3687-.6965-.4717-1.5032-.29-2.27.1433-.6876.4256-1.3385.8298-1.9129.4041-.5744.9215-1.0601 1.5202-1.4271 1.46-.88 4.18-1.05 6.09-1.05h1.68c-.35 1.41-1.53 5.56-3.26 7.1zm-23.07 5.78c-2.15-1.1-4.4399-5-5.1499-6.3 1.39-.45 5.7699-1.72 8.0999-1 .9242.2708 1.7529.7978 2.3901 1.52.4693.5217.785 1.1631.9121 1.8533.127.6901.0605 1.402-.1922 2.0567-1.4721-1.2688-3.1677-2.2522-5-2.9-.0518-.0192-.107-.0279-.1622-.0257s-.1095.0153-.1597.0385c-.0501.0233-.0952.0562-.1327.0969-.0374.0406-.0665.0883-.0854.1403-.019.0511-.0276.1056-.0253.1601s.0156.1081.0388.1574c.0233.0494.0562.0936.0968.1301s.0881.0645.1397.0824c1.7918.6395 3.4424 1.621 4.86 2.89-.2969.4478-.6877.8255-1.1453 1.107s-.9712.46-1.5048.523c-1.0307.1357-2.0781-.0494-3-.53zm26.9799-13.69h-.0899c-1.5512-.117-3.1089-.117-4.6601 0-1.4161.0707-2.802.4351-4.0699 1.07-.6951.4197-1.2963.9782-1.766 1.6406s-.7978 1.4145-.964 2.2094c-.232 1.0233-.0639 2.0966.47 3-1.7633 1.6328-3.2852 3.5083-4.52 5.57-.6878 1.139-1.2415 2.3537-1.6501 3.62-.655-1.7707-1.6774-3.3827-3-4.73l.1501-.35c.3025-.7964.3804-1.6606.2252-2.4983-.1552-.8376-.5375-1.6166-1.1052-2.2517-.7392-.8406-1.704-1.4514-2.7799-1.76-3-.9-8.8 1.09-9 1.18h-.0801c-.0889.0541-.1538.14-.1817.2403-.0278.1003-.0165.2074.0317.2997.12.23 2.9199 5.65 5.7399 7.09.8335.4348 1.76.6613 2.7001.66.2608-.0018.5212-.0185.78-.05.6262-.0716 1.2303-.2742 1.773-.5947s1.0119-.7516 1.377-1.2653c1.3212 1.39 2.3095 3.0621 2.89 4.89.3616 1.1427.5865 2.3243.67 3.52-.9972.2297-1.9111.7317-2.64 1.45-.3852-.2174-.7947-.3885-1.22-.51-.6808-.188-1.3929-.2353-2.0926-.139-.6998.0963-1.3726.3341-1.9774.699-1.3714.8447-2.3663 2.1834-2.78 3.74-1.0143-.1379-2.047-.014-3 .36-2 .68-2.8 2.58-3.17 4.34-.2257 1.1385-.303 2.3015-.23 3.46.0098.1026.057.198.1326.2681s.1744.1099.2775.1119c.1097-.0102.211-.0631.2821-.1473.071-.0841.1062-.1929.0979-.3027 0-.3-.3601-5.82 2.8499-6.94.9258-.3772 1.945-.461 2.92-.24.0604.0148.1233.0161.1843.0037.0609-.0125.1183-.0383.1681-.0756.0497-.0373.0906-.0852.1196-.1402s.0453-.1158.048-.1779c.1561-.7192.4552-1.3996.8795-2.0009s.9652-1.1111 1.5905-1.4991c.7116-.4339 1.5329-.6542 2.3662-.6347.8332.0195 1.6433.278 2.3338.7447.0843.0524.1841.0741.2825.0613.0984-.0127.1895-.0591.2576-.1313.6158-.6854 1.4188-1.1756 2.3099-1.41.0501 1.5357-.0471 3.0727-.29 4.59-1.18-.17-3.14.12-3.81 1.17-.0571.0948-.0756.208-.0514.316.0242.1081.0893.2026.1814.264.0933.0566.2049.0747.3113.0504.1064-.0242.1992-.089.2587-.1804.48-.74 2.46-1 3.31-.73.7925.2544 1.4897.7424 2 1.4.0372.0529.0866.096.1441.1256.0574.0296.1212.0448.1859.0444.0893-.0019.1762-.0297.25-.08.0857-.0673.1426-.1646.1593-.2723s-.0081-.2176-.0693-.3077c-.5389-.71-1.2666-1.2541-2.1-1.57.2823-1.6306.393-3.2864.3301-4.94h.1899c.6189-.002 1.2315.124 1.7994.3701s1.0789.6069 1.5006 1.0599c.7536.7969 1.2546 1.7989 1.44 2.88.0136.0639.0414.124.0812.1759s.0906.0943.1488.1241c.0584.025.1214.0379.185.0379s.1265-.0129.185-.0379c.5729-.1288 1.1659-.1403 1.7434-.0337.5774.1065 1.1273.3289 1.6166.6537.6096.4183 1.1285.9555 1.5255 1.5792.3969.6238.6637 1.3213.7845 2.0508.0338.1953.0571.3922.07.59.0126.1079.0666.2067.1505.2757s.1912.1028.2995.0943c.1097-.0102.2111-.0631.2821-.1473.0711-.0841.1063-.1929.0979-.3027 0-.23-.0001-.44-.0901-.67-.1396-.841-.448-1.645-.9069-2.3634s-1.0587-1.3364-1.763-1.8166c-1.0857-.7208-2.4044-1.0031-3.69-.79-.2663-1.0764-.8072-2.0653-1.57-2.87-.1935-.194-.3971-.3776-.61-.55-.9353-.7497-2.1014-1.1525-3.3-1.14h-.24c-.0727-.9448-.2265-1.8816-.46-2.8.1-.61 1-5 6.2-10 .7.7691 1.6721 1.2354 2.7101 1.3.1865.0099.3734.0099.5599 0 .5885.0029 1.1743-.0779 1.74-.24.8264-.2369 1.5887-.6574 2.23-1.23 2.29-2 3.58-7.77 3.64-8 .0245-.1034.0081-.2122-.046-.3036s-.1417-.1582-.2441-.1864" fill="#dea81e"/><path d="m63.4202 12.6401c.119-.002.236.0315.336.0962s.1784.1577.2254.2671c.0469.1095.0602.2304.0382.3475-.022.117-.0783.2248-.1618.3098-.0835.0849-.1904.143-.3071.167s-.2378.0127-.348-.0324-.2045-.122-.2709-.2209-.1018-.2152-.1018-.3343c-.0013-.0784.0129-.1562.042-.2289.029-.0727.0723-.139.1272-.1948.0549-.0559.1204-.1002.1926-.1305.0723-.0303.1498-.0459.2282-.0458zm-29.85-1c1.6159.5402 3.2982.8565 5 .94.1114 0 .2182.0442.297.123.0788.0787.1229.1856.1229.297 0 .0547-.0109.1088-.0321.1592s-.0523.0961-.0914.1343c-.0392.0382-.0856.0682-.1365.0882s-.1052.0296-.1599.0283c-1.5953-.064-3.1754-.3363-4.7001-.81.5264 1.6227 1.1957 3.1955 2 4.7 1.4149.2798 2.8777.1938 4.25-.25.1022-.0398.216-.038.3169.005s.181.1237.2232.225c.021.0504.0318.1046.0316.1593s-.0114.1088-.0329.1591c-.0214.0503-.0526.0959-.0919.1339-.0393.0381-.0858.0679-.1368.0877-.9246.3252-1.9002.481-2.88.46-.3734 0-.7634-.02-1.1701-.06.471.7979.9956 1.563 1.5701 2.29.3456.4347.7127.8519 1.1 1.25 1.3853-.0137 2.7507-.3312 4-.93.0491-.0235.1025-.037.157-.0397.0544-.0026.1088.0056.16.0242.0512.0187.0982.0473.1382.0843s.0722.0816.0948.1312c.0239.0485.0378.1013.0412.1553.0033.054-.0041.1081-.0218.1592-.0176.0511-.0452.0983-.0811.1387-.036.0404-.0796.0733-.1283.0968-1.1074.5139-2.2884.8513-3.5 1 1.4229 1.2595 3.0825 2.223 4.8818 2.8342s3.7024.8579 5.5981.7258c.0807-.0056.1611.0134.2307.0545.0697.041.1252.1022.1594.1755.0435.0688.0666.1485.0666.23 0 .0814-.0231.1612-.0666.23-2.75 3.21-6.34 3.48-10.5 3.79l-.7701.06c-.0021 1.0961.2879 2.173.8401 3.12.5329.0212 1.0664-.0191 1.59-.12l1-.28c.5441-.2017 1.0561-.4813 1.52-.83.0431-.0334.0925-.0578.1451-.0718.0527-.0141.1077-.0175.1617-.01.054.0074.106.0256.1529.0533.0469.0278.0878.0647.1203.1085.0333.0431.0577.0924.0717.1451.0141.0527.0175.1077.01.1617-.0074.054-.0255.1059-.0533.1529-.0278.0469-.0646.0878-.1084.1203-1.1585.8665-2.5541 1.3585-4 1.41.5879.7519 1.2937 1.4037 2.09 1.93.6707.4536 1.3966.8199 2.16 1.09.6671-.4182 1.2337-.9781 1.6599-1.64.0239-.1087.0901-.2035.1839-.2635.0937-.06.2074-.0803.3161-.0565.1055.0283.1963.0958.2539.1886.0576.0929.0777.2042.0562.3114-.3174.7005-.8228 1.2993-1.46 1.73 1.1142.2364 2.2735.1354 3.33-.29 0-5.87 4.49-7.08 8.48-8.15 2-.52 3.8-1 5-2 4.2399-3.79 3.8199-7.11 3.4799-9.78-.23-1.82-.4499-3.54 1.0901-4.74-.5528-.3212-1.033-.7537-1.41-1.27-.3169-.4917-.7459-.9012-1.2517-1.195-.5059-.2938-1.0742-.4634-1.6583-.495-2.28-.08004-3.92 2.1-5.68 5.39-.0363.073-.094.1333-.1655.1726s-.1534.0559-.2345.0474c-.0795-.0104-.1549-.0418-.2181-.0911-.0633-.0492-.1123-.1144-.1419-.1889-2.35-7.00004-6.55-7.13004-12.36-7.33004-3.63-.13-7.72-.27-12.07-2.2.283 1.9433.7006 3.86459 1.25 5.75004" fill="#fff"/><path d="m44.389 8.00002c5.81.2 10 .35 12.36 7.32998.0296.0745.0787.1398.142.189s.1386.0807.2181.091c.0812.0085.1629-.008.2344-.0473s.1292-.0996.1655-.1727c1.76-3.29 3.4001-5.46998 5.6801-5.39.5841.0316 1.1523.2013 1.6582.495.5058.2938.9349.7033 1.2518 1.195.3771.5164.8571.9488 1.4099 1.27-1.54 1.2-1.32 2.92-1.09 4.74.34 2.67.7601 6-3.4799 9.78-1.16 1-3 1.47-5 2-4 1.07-8.51 2.28-8.48 8.15-1.0868.4218-2.2765.502-3.4101.23.6373-.4306 1.1426-1.0294 1.46-1.73.0215-.1071.0016-.2184-.056-.3113s-.1484-.1603-.2539-.1887c-.1088-.0238-.2226-.0035-.3163.0565-.0938.06-.1598.1548-.1837.2635-.4262.662-.993 1.2219-1.6601 1.64-.7634-.2701-1.4892-.6364-2.16-1.09-.7963-.5263-1.5021-1.178-2.09-1.93 1.4459-.0515 2.8415-.5434 4-1.41.0438-.0325.0806-.0734.1084-.1203s.0459-.0989.0534-.1529c.0074-.054.0041-.1089-.0099-.1616-.0141-.0527-.0386-.1021-.0719-.1452-.0325-.0438-.0733-.0806-.1203-.1084-.0469-.0278-.0989-.0459-.1529-.0534-.054-.0074-.1089-.004-.1616.01-.0527.0141-.102.0385-.1452.0718-.7427.5538-1.6006.9331-2.51 1.11-.5236.101-1.0571.1412-1.5899.12-.5522-.9469-.8421-2.0238-.84-3.12l.7699-.06c4.16-.31 7.75-.58 10.5-3.79.0435-.0688.0668-.1486.0668-.23s-.0233-.1612-.0668-.23c-.0342-.0732-.0897-.1344-.1593-.1755-.0696-.041-.15-.06-.2306-.0545-1.8957.1322-3.7988-.1145-5.5982-.7257-1.7993-.6113-3.4589-1.5748-4.8819-2.8343 1.2117-.1487 2.3926-.4861 3.5-1 .0487-.0235.0923-.0564.1283-.0968.0359-.0404.0635-.0875.0812-.1386.0176-.0512.025-.1053.0217-.1593-.0034-.0539-.0173-.1067-.0411-.1553-.0226-.0496-.0549-.0942-.0949-.1312-.04-.0369-.087-.0656-.1382-.0842s-.1056-.0268-.16-.0242-.1078.0161-.157.0396c-1.2493.5989-2.6147.9163-4 .93-.3873-.398-.7544-.8152-1.1-1.25-.5745-.7269-1.099-1.492-1.5699-2.29.4133.04.8032.06 1.1699.06.9799.0211 1.9555-.1347 2.88-.46.051-.0198.0976-.0496.1369-.0876.0392-.0381.0706-.0836.092-.1339s.0325-.1044.0327-.1591-.0106-.1089-.0316-.1594c-.0422-.1012-.1222-.182-.2232-.225-.1009-.0429-.2145-.0448-.3167-.005-1.3723.4438-2.8352.5299-4.25.25-.8043-1.5044-1.4736-3.0773-2-4.7 1.5246.4738 3.1046.7461 4.6999.81.0547.0013.1092-.0083.1601-.0283s.0972-.05.1363-.0882.0702-.0838.0914-.1342c.0213-.0504.0323-.1046.0323-.1593 0-.1114-.0443-.2182-.1231-.297-.0787-.0787-.1856-.123-.297-.123-1.7018-.0835-3.3841-.3997-5-.94-.5493-1.8854-.967-3.80669-1.25-5.74999 4.35 1.93 8.4401 2.07001 12.0701 2.20001zm-11.6999 4.07998c.9046 3.2105 2.4039 6.2227 4.42 8.88 1.4168 1.8736 3.2507 3.3914 5.3562 4.4328 2.1055 1.0415 4.4247 1.5781 6.7737 1.5672-2.44 2.29-5.62 2.53-9.25 2.8l-1.1399.09c-.0978.009-.1894.0519-.2588.1213s-.1123.1609-.1212.2587c-.0466 1.4016.283 2.7902.9548 4.0212s1.6612 2.2596 2.8651 2.9788c1.4719 1.0222 3.2088 1.5954 5 1.65.8989.0116 1.7884-.1834 2.6-.57.0733-.0341.1345-.0897.1755-.1593.0411-.0696.06-.1501.0545-.2307-.15-5.45 3.92-6.54 7.87-7.59 1.8938-.3517 3.6947-1.0904 5.29-2.17.4816-.4346.939-.8953 1.37-1.38 3.1-3.55 2.69-6.73 2.38-9.14-.27-2.11-.4399-3.51 1.5601-4.43.0864-.0407.1564-.1097.1983-.1955.042-.0859.0535-.1834.0325-.2767-.021-.0932-.0731-.1765-.1478-.2361s-.1675-.0919-.2631-.0917c-.85 0-1.31-.52-1.88-1.21-.3897-.5852-.911-1.0709-1.5223-1.41819-.6113-.34731-1.2955-.54658-1.9977-.5818-2.5-.09-4.24 1.90999-6 4.99999-2.62-6.66999-7.3499-6.82999-12.7999-6.99999-3.74-.13-8.0001-.28-12.4401-2.44-.065-.03875-.1393-.0592-.215-.0592-.0756 0-.1499.02045-.2149.0592-.0605.04398-.1082.10333-.1381.17189s-.0409.14385-.032.21811c.2905 2.17623.7383 4.32854 1.34 6.43999 0 .11.0601.22.1001.33-.0092.0429-.0092.0872 0 .13" fill="#dea81e"/><path d="m63.4201 13.78c.1195.002.2369-.0318.3371-.0969.1001-.0652.1787-.1588.2253-.2688.0467-.1101.0593-.2315.0365-.3488-.0228-.1174-.0802-.2252-.1647-.3097s-.1923-.1418-.3097-.1647c-.1173-.0228-.2387-.0101-.3487.0366-.1101.0466-.2037.1251-.2688.2253-.0652.1001-.0989.2175-.0969.337 0 .1565.062.3065.1727.4172.1106.1106.2607.1728.4172.1728z" fill="#dea81e"/><path d="m42.8594 33.3201-1 .28c.3405-.0654.675-.1591 1-.28z" fill="#fff"/><path d="m28.4185 55.15.87-4.65 3.77 3.76zm6.2-19.87c.8603 2.7608 1.0303 5.6905.4951 8.5324-.5352 2.8418-1.7593 5.5089-3.5651 7.7676l-1.8199-1.83c-.094-.0899-.2103-.1531-.3369-.183s-.2589-.0254-.3832.013c-.1253.036-.2378.1068-.3245.2042-.0867.0973-.1441.2172-.1655.3458l-1 5c-.0229.1149-.0165.2337.0184.3455.035.1118.0974.2131.1817.2945.1323.1334.3121.2089.5.21h.13l5-1c.129-.0202.2495-.0772.347-.1641.0976-.0869.168-.2.2029-.3259.0384-.1243.0428-.2565.0129-.3831-.0298-.1266-.0929-.2429-.1828-.3369l-1.6601-1.65c1.7795-2.2049 3.0314-4.7873 3.6601-7.55.6434-2.8526.5979-5.8175-.1326-8.6491-.7304-2.8316-2.1248-5.4484-4.0679-7.6339-1.943-2.1854-4.3788-3.8765-7.1054-4.9333-2.7267-1.0568-5.6658-1.4488-8.5741-1.1437-1.226.1247-2.4359.3761-3.6101.75-.0519.0164-.1.0429-.1416.0779-.0417.035-.076.0779-.1011.1262s-.0404.101-.045.1552c-.0047.0542.0014.1088.0178.1607s.0428.1.0779.1416c.035.0417.0778.076.1261.1011.0482.0251.101.0404.1552.0451s.1088-.0014.1607-.0178c.8733-.2728 1.7658-.48 2.67-.62 4.1412-.6142 8.3658.2661 11.917 2.4833 3.5512 2.2171 6.1968 5.6263 7.463 9.6167" fill="#dea81e"/><path d="m29.2902 50.5-.88 4.65 4.65-.89z" fill="#fff"/><path d="m7.99936 25.96-.88 4.65-3.7699-3.76zm15.49004 32.44c.1057-.0324.1945-.1051.2469-.2025.0524-.0973.0643-.2114.0331-.3175-.0137-.0527-.0381-.1021-.0716-.1451-.0334-.043-.0752-.0787-.123-.1049s-.1004-.0424-.1547-.0476c-.0542-.0051-.1089.0008-.1607.0176-3.6063 1.0335-7.4485.8863-10.9651-.4201-3.51663-1.3063-6.52322-3.7034-8.5801-6.8406-2.05687-3.1373-3.056165-6.8503-2.851924-10.5961.204244-3.7459 1.601394-7.3282 3.987184-10.2232l1.83996 1.84c.13464.1299.31298.2048.5.21.07303.0095.14695.0095.21998 0 .12362-.0391.23443-.1108.32067-.2076.08625-.0968.14473-.2151.16932-.3424l1-5c.02148-.115.01471-.2335-.0199-.3453-.03461-.1117-.09599-.2134-.17871-.2961-.08273-.0827-.18439-.144-.29615-.1786-.11175-.0346-.23021-.0415-.34521-.02l-5 1c-.12848.0254-.24757.0854-.34448.1735-.09692.0881-.16804.201-.20557.3265-.03966.1233-.04379.2553-.01196.3808.03183.1256.09839.2397.19201.3292l1.65003 1.65c-2.15646 2.5947-3.558508 5.7321-4.052857 9.0696-.49435 3.3374-.062058 6.7465 1.249637 9.8549 1.31169 3.1084 3.45241 5.7967 6.18823 7.771 2.73584 1.9744 5.96154 3.159 9.32494 3.4245.48 0 1 .06 1.45.06 1.7147-.0008 3.421-.2398 5.07-.71" fill="#dea81e"/><g fill="#fff"><path d="m7.11961 30.62.88-4.65-4.65.88z"/><path d="m10.8307 40.22c.0522-1.516.3424-3.0143.86-4.44-1.2076-.3164-2.39344-.7105-3.55008-1.18-1.02952 1.699-1.60455 3.6344-1.66992 5.62z"/><path d="m16.0599 52.1199c-1.5602-1.5885-2.8535-3.4188-3.8299-5.4199-1.1231.2963-2.2283.6569-3.31008 1.08 1.76218 2.279 4.30558 3.825 7.13998 4.3399z"/><path d="m8.60938 33.89c1.09946.4388 2.22492.8095 3.37002 1.11.9158-2.1417 2.2021-4.1052 3.7999-5.8-2.899.5958-5.4624 2.2726-7.16992 4.69z"/><path d="m11.8906 45.9299c-.6469-1.5487-1.0061-3.2024-1.0599-4.88h-4.36c.08332 2.1402.75448 4.2162 1.93994 6 1.13488-.4583 2.29706-.8457 3.47996-1.16"/><path d="m17.7206 45.9299c-1.5686.0325-3.1299.2235-4.6601.57 1.0798 2.1376 2.5249 4.0701 4.2701 5.71v.07h.3399z"/><path d="m18.5488 40.22h6c-.0833-1.441-.3869-2.8608-.9-4.21-1.6706.3823-3.3764.5901-5.09.62z"/><path d="m24.1191 46.73c-.9345 1.9878-2.2029 3.8007-3.75 5.36 2.7786-.541 5.2661-2.0726 7-4.31-1.0561-.3962-2.1346-.7301-3.2299-1"/><path d="m19.0588 52.2099c1.7531-1.6181 3.1907-3.5474 4.24-5.69-1.5593-.3568-3.1508-.5545-4.75-.59v6.36h.46v-.06"/><path d="m18.5488 35.81c1.6088-.032 3.2103-.2263 4.7801-.58-1.0094-2.3222-2.444-4.4352-4.23-6.23h-.5501z"/><path d="m25.3806 40.22h4.41c-.0653-1.9856-.6405-3.921-1.67-5.62-1.1884.484-2.4077.8882-3.6499 1.21.5137 1.4186.8201 2.9039.9099 4.41z"/><path d="m24.5488 41.0499h-6v4.05c1.712.031 3.4154.2489 5.08.65.6026-1.4943.9181-3.0888.93-4.7"/><path d="m17.7202 40.22v-3.58c-1.7543-.0305-3.5006-.245-5.2101-.64-.5029 1.3568-.7896 2.7842-.8499 4.23z"/><path d="m17.7203 35.81v-6.84h-.56c-1.8466 1.7596-3.3223 3.8711-4.34 6.21 1.6086.3663 3.2505.5674 4.9.6"/><path d="m25.3892 41.0499c-.0092 1.6773-.3278 3.3384-.94 4.9 1.155.3123 2.2903.6929 3.4 1.14 1.1855-1.7838 1.8567-3.8598 1.94-6z"/><path d="m17.7202 41.0499h-6.06c.0456 1.6079.3845 3.1939 1 4.68 1.6402-.3834 3.3159-.5946 5-.63z"/><path d="m20.4297 29.1899c1.5592 1.7259 2.8198 3.6996 3.73 5.84 1.188-.2996 2.3541-.6805 3.49-1.14-1.722-2.4272-4.3035-4.1077-7.22-4.7z"/></g><path d="m12.2299 46.7c.9764 2.0011 2.2697 3.8314 3.83 5.42-2.8364-.5172-5.3823-2.0625-7.15006-4.34 1.08724-.4172 2.19546-.7777 3.32006-1.08zm-.25-11.7c-1.1451-.3005-2.27052-.6712-3.36999-1.11 1.70749-2.4173 4.27099-4.0942 7.16989-4.69-1.5978 1.6949-2.8841 3.6583-3.7999 5.8zm12.1799 0c-.9102-2.1404-2.1708-4.1141-3.7299-5.84 2.9164.5923 5.4979 2.2728 7.2199 4.7-1.1358.4594-2.3019.8403-3.49 1.14zm-3.79 17.06c1.5471-1.5593 2.8155-3.3722 3.75-5.36 1.0953.2699 2.1739.6038 3.2301 1-1.734 2.2374-4.2215 3.769-7 4.31zm-1.84-6.21c1.5992.0354 3.1907.2331 4.75.59-1.0493 2.1425-2.4869 4.0718-4.24 5.69v.06h-.4599zm-6.89-4.88h6.0501v4.05c-1.6841.0347-3.36.2459-5 .63-.6155-1.4861-.9544-3.0722-1-4.68zm6.1-4.42v3.59h-6.0499c.0554-1.4464.3423-2.8745.8499-4.23 1.7063.3943 3.4491.6088 5.2.64zm6.8301 3.59h-6v-3.5c1.7135-.03 3.4193-.2378 5.0899-.62.5084 1.3505.8118 2.7696.9001 4.21zm-6.01.92h6c-.0119 1.6112-.3275 3.2057-.9301 4.7-1.6646-.4011-3.368-.6191-5.0799-.65zm9.3 6c-1.1097-.4471-2.2451-.8278-3.4-1.14.6121-1.5616.9308-3.2228.9399-4.9h4.4001c-.0834 2.1402-.7545 4.2161-1.94 6zm1.94-6.91h-4.4101c-.0882-1.5073-.3982-2.9932-.9199-4.41 1.2459-.3202 2.4686-.7245 3.6599-1.21 1.0295 1.699 1.6047 3.6344 1.6701 5.62zm-10.69-11.22c1.786 1.7948 3.2207 3.9078 4.23 6.23-1.5698.3537-3.1712.548-4.78.58v-6.84h.55zm-1.9401-.03h.5501v6.84c-1.6462-.0332-3.2847-.2343-4.89-.6 1.0177-2.3389 2.4933-4.4504 4.3399-6.21zm-8.99995 5.63c1.15663.4695 2.34245.8636 3.55005 1.18-.5176 1.4258-.8078 2.924-.86 4.44h-4.3601c.06537-1.9856.64052-3.921 1.67005-5.62zm-1.67005 6.45h4.3601c.0539 1.6775.413 3.3312 1.0599 4.88-1.1828.3142-2.34506.7017-3.47993 1.16-1.18547-1.7839-1.85675-3.8598-1.94007-6zm10.91 11.27v-.07c-1.7472-1.6406-3.1955-3.5727-4.28-5.71 1.5304-.3454 3.0916-.5364 4.66-.57v6.36h-.3299zm10.98-4.39c.0289-.0291.0526-.063.0701-.1 1.3097-1.8736 2.0805-4.0704 2.2286-6.3515.1482-2.2811-.332-4.5592-1.3883-6.5864s-2.6483-3.726-4.6028-4.9115-4.1966-1.8123-6.4825-1.8123-4.5282.6268-6.4827 1.8123c-1.95447 1.1855-3.54644 2.8843-4.60276 4.9115-1.05631 2.0272-1.53647 4.3053-1.3883 6.5864s.91907 4.4779 2.22876 6.3515l.05993.09c1.14118 1.5946 2.63717 2.9022 4.36997 3.82 2.6777 1.4069 5.7748 1.7951 8.7169 1.0927 2.9422-.7024 5.5298-2.4479 7.2831-4.9127" fill="#dea81e"/></svg>