<svg fill="none" height="26" viewBox="0 0 25 26" width="25" xmlns="http://www.w3.org/2000/svg"><circle cx="12.5" cy="13" fill="#f4f7fe" r="12.5"/><g fill="#61a83e"><path d="m10.0296 9.55785c-.05583-.00001-.11103.01118-.16251.03285-.05149.02167-.09814.05343-.13728.09341s-.07012.08739-.09082.13946c-.02071.05207-.03088.10778-.02993.16384v4.29489c-.00096.0557.00931.111.0301.1627s.05176.0987.091.1381c.03923.0394.086.0705.13745.0914s.1065.0311.16199.0301c.0558.001.1112-.0092.163-.03.0519-.0208.0991-.0518.1389-.0911s.0715-.0863.093-.138c.0216-.0517.0328-.1071.0328-.1632v-4.29489c0-.11391-.0451-.22319-.1253-.30374-.0802-.08054-.189-.12582-.3024-.12582zm0 5.98435c-.33776-.0019-.66105-.1376-.89988-.3774-.23883-.2399-.37394-.5647-.37581-.904v-4.29489c0-.33982.13449-.66575.37372-.90604.23924-.2403.56364-.3753.90197-.3753.3383 0 .6627.135.9019.3753.2393.24029.3738.56622.3738.90604v4.29489c0 .3398-.1345.6658-.3738.9061-.2392.2402-.5636.3753-.9019.3753z"/><path d="m11.7325 9.55785c-.1134 0-.222.04528-.3022.12582-.0802.08055-.1253.18983-.1253.30374v4.29489c0 .0561.0112.1115.0328.1632.0215.0517.0531.0987.0929.138s.087.0703.1388.0911.1072.031.163.03c.0558.001.1114-.0092.1632-.03.0519-.0208.0991-.0518.1389-.0911s.0713-.0863.0929-.138.0327-.1071.0327-.1632v-4.29489c0-.11391-.0451-.22319-.1253-.30374-.0802-.08054-.189-.12582-.3024-.12582zm0 5.98435c-.3383 0-.6627-.1351-.9019-.3753-.2392-.2403-.3736-.5663-.3736-.9061v-4.29489c0-.33982.1344-.66575.3736-.90604.2392-.2403.5636-.3753.9019-.3753.3384 0 .6629.135.9022.3753.2392.24029.3735.56622.3735.90604v4.29489c0 .3398-.1343.6658-.3735.9061-.2393.2402-.5638.3753-.9022.3753z"/><path d="m13.4358 9.55785c-.1134 0-.2222.04528-.3024.12582-.0801.08055-.1252.18983-.1252.30374v4.29489c0 .0561.0111.1115.0327.1632s.0533.0987.0931.138.087.0703.1388.0911c.0519.0208.1072.031.163.03.0555.001.1106-.0092.162-.0301.0515-.0209.0982-.052.1375-.0914.0392-.0394.0702-.0864.091-.1381s.031-.107.0301-.1627v-4.29489c.0009-.05606-.0094-.11177-.0301-.16384s-.0515-.09948-.0907-.13946c-.0391-.03998-.0858-.07174-.1373-.09341-.0514-.02167-.1066-.03286-.1625-.03285zm0 5.98435c-.3383 0-.6627-.1351-.9019-.3753-.2392-.2403-.3737-.5663-.3737-.9061v-4.29489c0-.33982.1345-.66575.3737-.90604.2392-.2403.5636-.3753.9019-.3753.3384 0 .6628.135.902.3753.2392.24029.3737.56622.3737.90604v4.29489c-.0018.3393-.137.6641-.3758.904-.2388.2398-.5621.3755-.8999.3774"/><path d="m15.131 9.55785c-.0559-.00001-.1111.01118-.1625.03285-.0515.02167-.0982.05343-.1373.09341-.0392.03998-.07.08739-.0907.13946s-.0308.10778-.0299.16384v4.29489c-.001.0557.0091.111.0299.1627s.0518.0987.091.1381c.0393.0394.086.0705.1375.0914.0514.0209.1065.0311.162.0301.0558.001.1113-.0092.1632-.03.0518-.0208.099-.0518.1388-.0911s.0713-.0863.0929-.138.0327-.1071.0327-.1632v-4.29489c0-.11391-.0451-.22319-.1253-.30374-.0801-.08054-.1889-.12582-.3023-.12582zm0 5.98435c-.3378-.0019-.6611-.1376-.8999-.3774-.2388-.2399-.3738-.5647-.3756-.904v-4.29489c0-.33982.1343-.66575.3735-.90604.2392-.2403.5636-.3753.902-.3753.3383 0 .6628.135.9021.3753.2392.24029.3735.56622.3735.90604v4.29489c0 .3398-.1343.6658-.3735.9061-.2393.2402-.5638.3753-.9021.3753z"/><path d="m7.47828 14.6837c-.05582.0009-.11119-.0093-.16303-.0301s-.09905-.0517-.13885-.091-.07133-.0862-.09291-.1379c-.02157-.0517-.03272-.1072-.03271-.1633v-1.7108c0-.1139.04508-.2232.12527-.3038.08019-.0805.18882-.1257.30223-.1257.1134 0 .2222.0452.30239.1257.08019.0806.12527.1899.12527.3038v1.7108c.00001.0561-.01113.1116-.03271.1633-.02157.0517-.0531.0986-.09291.1379-.0398.0393-.087.0702-.13884.091s-.10739.031-.1632.0301"/><path d="m4.99084 20.1203h-1.60091c-.05489 0-.10919-.0111-.15981-.0324s-.09654-.0525-.13501-.0918c-.03848-.0393-.06882-.0859-.08917-.1371s-.03026-.106-.02932-.1611c-.00094-.0555.00897-.1106.02923-.1622.02027-.0516.05044-.0987.08882-.1386.03839-.0399.08418-.0717.13484-.0938s.1052-.034.16042-.0349h1.18766v-5.8304c-.00095-.0551.00905-.1098.0294-.161.02034-.0512.05062-.0979.08909-.1372.03848-.0393.08442-.0706.13504-.0919s.10484-.0322.15972-.0322h2.49426c.05548-.001.11066.0093.16211.0301.05144.0209.09806.052.13729.0914.03924.0394.07019.0863.09098.138s.03107.1071.03011.1628c.00094.0561-.00921.1118-.02992.1638-.02071.0521-.05151.0995-.09065.1395s-.08582.0717-.1373.0934-.1068.0328-.16262.0328h-2.07377v5.8304c0 .0554-.01085.1104-.03198.1616-.02113.0513-.05212.0978-.09117.137-.03904.0393-.08544.0704-.13646.0916-.05101.0212-.10566.0322-.16088.0322z"/><path d="m17.6823 11.6975c-.0558 0-.111-.0112-.1625-.0328-.0515-.0217-.0981-.0535-.1373-.0935-.0391-.0399-.0699-.0873-.0906-.1394s-.0311-.1078-.0301-.1638v-1.71086c-.001-.05573.0093-.11103.0301-.16271.0208-.05167.0517-.09864.091-.13806.0392-.03941.086-.07051.1374-.0914.0515-.02088.1065-.03111.162-.03014.0558-.00095.1112.00926.1631.03006.0518.0208.099.05182.1388.09113.0398.03932.0715.08618.0931.13789s.0327.10716.0327.16323v1.71086c0 .1139-.0451.2231-.1253.3037-.0802.0805-.189.1258-.3024.1258"/><path d="m21.6798 19.5447h-2.2868c-.1034-.0108-.1984-.0618-.265-.142-.0665-.0803-.0993-.1833-.0913-.2874v-8.24h-1.4253c-.1028-.0091-.1977-.0586-.2644-.1376-.0668-.0791-.0998-.1815-.0919-.2848-.008-.1041.0248-.2072.0913-.2874.0666-.0802.1616-.1312.265-.1421h1.7747c.1033.0109.1984.0619.2649.1421.0666.0802.0994.1833.0914.2874v8.2329h1.9302c.1029.0108.1973.0621.2627.1425.0654.0805.0965.1836.0865.287.01.1033-.0211.2065-.0865.2869-.0654.0805-.1598.1317-.2627.1425"/></g></svg>