<svg width="62" height="61" viewBox="0 0 62 61" fill="none" xmlns="http://www.w3.org/2000/svg">
<path d="M34.185 60.4473C49.0821 60.4473 61.183 48.3708 61.2131 33.4738C61.2431 18.5767 49.191 6.50024 34.2939 6.50024C19.3968 6.50024 7.29594 18.5767 7.26587 33.4738C7.2358 48.3708 19.2879 60.4473 34.185 60.4473Z" fill="#EFC73F"/>
<path d="M8.81025 5.85901H2.70032C2.11469 5.85901 1.55305 6.09212 1.13894 6.50706C0.724835 6.922 0.492188 7.48479 0.492188 8.07161V43.2519C0.492188 43.8387 0.724835 44.4015 1.13894 44.8164C1.55305 45.2314 2.11469 45.4645 2.70032 45.4645H44.8934C45.479 45.4645 46.0407 45.2314 46.4548 44.8164C46.8689 44.4015 47.1015 43.8387 47.1015 43.2519V8.07161C47.1015 7.48479 46.8689 6.922 46.4548 6.50706C46.0407 6.09212 45.479 5.85901 44.8934 5.85901H8.81025Z" fill="white"/>
<path d="M44.8936 45.9712H2.70055C1.98488 45.9706 1.29865 45.6857 0.79239 45.1788C0.286128 44.6719 0.00116916 43.9845 0 43.2674V8.08712C0.00116782 7.3698 0.286057 6.6822 0.792255 6.17497C1.29845 5.66775 1.98467 5.38228 2.70055 5.38111H8.81047C8.93336 5.38943 9.04849 5.44421 9.13261 5.53438C9.21672 5.62454 9.26352 5.74336 9.26352 5.86678C9.26352 5.9902 9.21672 6.10901 9.13261 6.19917C9.04849 6.28934 8.93336 6.34412 8.81047 6.35244H2.70055C2.24141 6.35244 1.80108 6.5352 1.47642 6.86052C1.15176 7.18583 0.969375 7.62706 0.969375 8.08712V43.2674C0.969959 43.7273 1.15254 44.1682 1.47707 44.4934C1.8016 44.8186 2.24159 45.0015 2.70055 45.0021H44.8936C45.3526 45.0015 45.7926 44.8186 46.1171 44.4934C46.4416 44.1682 46.6242 43.7273 46.6248 43.2674V8.08712C46.6242 7.62724 46.4416 7.18635 46.1171 6.86116C45.7926 6.53598 45.3526 6.35302 44.8936 6.35244H26.0427C25.9763 6.35693 25.9097 6.34771 25.8471 6.32533C25.7844 6.30296 25.7269 6.26792 25.6783 6.22238C25.6297 6.17684 25.5909 6.12178 25.5644 6.06061C25.5379 5.99944 25.5242 5.93347 25.5242 5.86678C25.5242 5.80009 25.5379 5.73411 25.5644 5.67294C25.5909 5.61177 25.6297 5.55671 25.6783 5.51117C25.7269 5.46563 25.7844 5.43059 25.8471 5.40822C25.9097 5.38584 25.9763 5.37662 26.0427 5.38111H44.8936C45.6093 5.38228 46.2953 5.66782 46.8011 6.17511C47.307 6.68239 47.5914 7.37001 47.592 8.08712V43.2674C47.5914 43.9843 47.3069 44.6717 46.801 45.1787C46.2951 45.6856 45.6091 45.9706 44.8936 45.9712V45.9712Z" fill="#DEA81E"/>
<path d="M11.3984 6.80378C11.3984 10.2908 17.7027 18.6788 17.7027 18.6788C17.7027 18.6788 24.0069 10.2908 24.0069 6.80378C24.0069 5.97423 23.8438 5.1528 23.527 4.38639C23.2102 3.61998 22.7458 2.9236 22.1604 2.33701C21.575 1.75043 20.8801 1.28512 20.1152 0.967662C19.3503 0.650205 18.5305 0.486816 17.7027 0.486816C16.8748 0.486816 16.055 0.650205 15.2901 0.967662C14.5253 1.28512 13.8303 1.75043 13.2449 2.33701C12.6595 2.9236 12.1951 3.61998 11.8783 4.38639C11.5615 5.1528 11.3984 5.97423 11.3984 6.80378Z" fill="#4550E5"/>
<path d="M17.7041 19.1633C17.6292 19.1636 17.5552 19.1463 17.4882 19.1129C17.4211 19.0795 17.3627 19.0308 17.3177 18.9708C17.0571 18.6234 10.9141 10.4125 10.9141 6.80152C10.9141 4.99765 11.6292 3.26765 12.9022 1.99212C14.1751 0.716588 15.9016 0 17.7019 0C19.5021 0 21.2286 0.716588 22.5016 1.99212C23.7746 3.26765 24.4897 4.99765 24.4897 6.80152C24.4897 10.4103 18.3511 18.6212 18.0861 18.9708C18.0415 19.0302 17.9839 19.0785 17.9176 19.1119C17.8513 19.1453 17.7783 19.1629 17.7041 19.1633V19.1633ZM17.7041 0.971334C16.1609 0.97309 14.6814 1.58814 13.5902 2.68155C12.499 3.77495 11.8852 5.25743 11.8834 6.80374C11.8834 9.60489 16.3461 15.9838 17.7041 17.8667C19.0621 15.9904 23.5248 9.61152 23.5248 6.80374C23.5242 5.25686 22.9108 3.77348 21.8194 2.67947C20.728 1.58545 19.2478 0.970291 17.7041 0.969119V0.971334Z" fill="#DEA81E"/>
<path d="M14.3125 6.74176C14.3129 7.40159 14.5086 8.04647 14.8748 8.59487C15.2409 9.14328 15.7611 9.5706 16.3696 9.8228C16.9781 10.075 17.6476 10.1408 18.2933 10.0118C18.9391 9.88277 19.5323 9.56482 19.9977 9.0981C20.4632 8.63138 20.7801 8.03685 20.9084 7.38967C21.0367 6.7425 20.9707 6.07173 20.7186 5.46218C20.4665 4.85263 20.0397 4.33165 19.4921 3.96512C18.9446 3.59859 18.3009 3.40295 17.6424 3.40295C16.759 3.40354 15.9121 3.75556 15.2877 4.38165C14.6633 5.00773 14.3125 5.85664 14.3125 6.74176Z" fill="white"/>
<path d="M17.6382 10.5651C16.8833 10.5655 16.1453 10.3416 15.5175 9.92165C14.8897 9.5017 14.4003 8.90459 14.1112 8.20587C13.8221 7.50715 13.7464 6.73821 13.8935 5.99634C14.0407 5.25448 14.4041 4.57301 14.9379 4.03817C15.4717 3.50333 16.1517 3.13915 16.8921 2.99169C17.6325 2.84424 18.3999 2.92014 19.0972 3.2098C19.7945 3.49946 20.3904 3.98984 20.8095 4.61893C21.2286 5.24802 21.4521 5.98754 21.4516 6.74392C21.4505 7.75699 21.0483 8.72824 20.3334 9.44459C19.6185 10.1609 18.6492 10.5639 17.6382 10.5651ZM17.6382 3.89188C17.0752 3.89188 16.5249 4.05915 16.0569 4.37253C15.5888 4.68592 15.224 5.13135 15.0086 5.65249C14.7931 6.17363 14.7368 6.74708 14.8466 7.30032C14.9564 7.85356 15.2275 8.36175 15.6256 8.76061C16.0236 9.15948 16.5308 9.43111 17.0829 9.54115C17.635 9.6512 18.2073 9.59473 18.7274 9.37886C19.2475 9.163 19.692 8.79744 20.0048 8.32842C20.3175 7.85941 20.4845 7.308 20.4845 6.74392C20.4839 5.98769 20.1838 5.2626 19.6502 4.72787C19.1165 4.19313 18.3929 3.89246 17.6382 3.89188V3.89188Z" fill="#DEA81E"/>
<path d="M31.293 20.9356C31.293 24.4249 37.5972 32.8128 37.5972 32.8128C37.5972 32.8128 43.9014 24.4249 43.9014 20.9356C43.9014 19.2603 43.2372 17.6535 42.055 16.4688C40.8727 15.2842 39.2692 14.6187 37.5972 14.6187C35.9252 14.6187 34.3217 15.2842 33.1394 16.4688C31.9572 17.6535 31.293 19.2603 31.293 20.9356Z" fill="#4550E5"/>
<path d="M37.5947 33.2973C37.5198 33.2976 37.4458 33.2803 37.3787 33.2469C37.3117 33.2135 37.2533 33.1649 37.2083 33.1048C36.9477 32.7575 30.8047 24.5465 30.8047 20.9356C30.8047 19.1317 31.5198 17.4017 32.7928 16.1262C34.0658 14.8506 35.7923 14.134 37.5925 14.134C39.3927 14.134 41.1192 14.8506 42.3922 16.1262C43.6652 17.4017 44.3803 19.1317 44.3803 20.9356C44.3803 24.5465 38.2417 32.7575 37.9767 33.1048C37.9321 33.1643 37.8745 33.2125 37.8082 33.2459C37.7419 33.2793 37.6689 33.2969 37.5947 33.2973ZM37.5947 15.1054C36.0519 15.1071 34.5727 15.7219 33.4816 16.8148C32.3905 17.9077 31.7764 19.3896 31.7741 20.9356C31.7741 23.7389 36.2367 30.1178 37.5947 31.9985C38.9527 30.1223 43.4153 23.7433 43.4153 20.9356C43.4136 19.3894 42.7997 17.9072 41.7084 16.8141C40.6172 15.7211 39.1377 15.1065 37.5947 15.1054V15.1054Z" fill="#DEA81E"/>
<path d="M34.2031 20.8825C34.2031 21.5424 34.3984 22.1875 34.7643 22.7362C35.1302 23.2849 35.6502 23.7126 36.2587 23.9651C36.8671 24.2176 37.5367 24.2837 38.1826 24.155C38.8286 24.0262 39.4219 23.7085 39.8876 23.2418C40.3533 22.7752 40.6704 22.1807 40.7989 21.5334C40.9274 20.8862 40.8614 20.2153 40.6094 19.6056C40.3574 18.9959 39.9306 18.4748 39.383 18.1082C38.8354 17.7416 38.1916 17.5459 37.533 17.5459C36.6498 17.5459 35.8029 17.8974 35.1784 18.5232C34.5539 19.1489 34.2031 19.9976 34.2031 20.8825V20.8825Z" fill="white"/>
<path d="M37.5327 24.6992C36.7776 24.6997 36.0395 24.4756 35.4115 24.0555C34.7836 23.6353 34.2942 23.038 34.0053 22.339C33.7163 21.64 33.6409 20.8709 33.7884 20.1289C33.9359 19.3869 34.2998 18.7054 34.834 18.1708C35.3682 17.6361 36.0487 17.2723 36.7893 17.1253C37.53 16.9784 38.2975 17.0549 38.9947 17.3452C39.692 17.6356 40.2876 18.1266 40.7062 18.7563C41.1247 19.386 41.3474 20.1259 41.3461 20.8825C41.3438 21.8948 40.9411 22.8649 40.2264 23.5803C39.5116 24.2957 38.543 24.6981 37.5327 24.6992ZM37.5327 18.0238C36.97 18.0238 36.42 18.1909 35.9521 18.504C35.4841 18.8171 35.1193 19.2622 34.9037 19.7829C34.6881 20.3037 34.6313 20.8768 34.7406 21.4298C34.8499 21.9829 35.1203 22.4911 35.5177 22.8902C35.9151 23.2893 36.4217 23.5615 36.9734 23.6723C37.525 23.7831 38.0971 23.7275 38.6173 23.5127C39.1375 23.2979 39.5825 22.9333 39.8961 22.4652C40.2096 21.9971 40.3777 21.4463 40.379 20.8825C40.3796 20.5075 40.3064 20.136 40.1636 19.7894C40.0209 19.4427 39.8113 19.1276 39.547 18.8622C39.2827 18.5967 38.9687 18.386 38.6231 18.2421C38.2775 18.0983 37.9069 18.0241 37.5327 18.0238V18.0238Z" fill="#DEA81E"/>
<path d="M37.1136 45.9711C36.9853 45.9711 36.8623 45.9201 36.7716 45.8292C36.6809 45.7383 36.63 45.6151 36.63 45.4866V35.4856C36.6255 35.4191 36.6347 35.3523 36.657 35.2895C36.6794 35.2267 36.7144 35.1692 36.7598 35.1204C36.8052 35.0717 36.8602 35.0329 36.9213 35.0063C36.9823 34.9798 37.0481 34.9661 37.1147 34.9661C37.1812 34.9661 37.2471 34.9798 37.3081 35.0063C37.3692 35.0329 37.4241 35.0717 37.4696 35.1204C37.515 35.1692 37.55 35.2267 37.5723 35.2895C37.5946 35.3523 37.6039 35.4191 37.5994 35.4856V45.4866C37.5988 45.6153 37.5473 45.7385 37.4563 45.8293C37.3653 45.9202 37.242 45.9711 37.1136 45.9711Z" fill="#DEA81E"/>
<path d="M37.1164 13.435C36.9881 13.435 36.8651 13.3839 36.7744 13.2931C36.6837 13.2022 36.6328 13.0789 36.6328 12.9504V5.87011C36.6411 5.74697 36.6958 5.63158 36.7858 5.5473C36.8757 5.46302 36.9943 5.41614 37.1175 5.41614C37.2407 5.41614 37.3592 5.46302 37.4492 5.5473C37.5392 5.63158 37.5939 5.74697 37.6022 5.87011V12.9504C37.6016 13.0791 37.5501 13.2024 37.4591 13.2932C37.3681 13.384 37.2448 13.435 37.1164 13.435Z" fill="#DEA81E"/>
<path d="M28.7883 45.9711C28.66 45.9711 28.537 45.92 28.4463 45.8292C28.3556 45.7383 28.3047 45.615 28.3047 45.4865V36.1649C28.3047 36.0363 28.3556 35.9131 28.4463 35.8222C28.537 35.7313 28.66 35.6803 28.7883 35.6803C28.9165 35.6803 29.0395 35.7313 29.1302 35.8222C29.2209 35.9131 29.2719 36.0363 29.2719 36.1649V45.4865C29.2719 45.615 29.2209 45.7383 29.1302 45.8292C29.0395 45.92 28.9165 45.9711 28.7883 45.9711V45.9711Z" fill="#DEA81E"/>
<path d="M28.7883 24.5399C28.66 24.5399 28.537 24.4889 28.4463 24.398C28.3556 24.3071 28.3047 24.1839 28.3047 24.0554V5.85895C28.3047 5.73044 28.3556 5.60718 28.4463 5.51631C28.537 5.42544 28.66 5.37439 28.7883 5.37439C28.9165 5.37439 29.0395 5.42544 29.1302 5.51631C29.2209 5.60718 29.2719 5.73044 29.2719 5.85895V24.0554C29.2719 24.1839 29.2209 24.3071 29.1302 24.398C29.0395 24.4889 28.9165 24.5399 28.7883 24.5399V24.5399Z" fill="#DEA81E"/>
<path d="M28.7895 24.5399C28.7265 24.5402 28.664 24.5281 28.6056 24.5042C28.5473 24.4802 28.4942 24.445 28.4495 24.4005L21.4916 17.4928C21.4003 17.4024 21.3485 17.2794 21.3477 17.1507C21.3468 17.0221 21.397 16.8984 21.4872 16.8069C21.5774 16.7153 21.7002 16.6634 21.8286 16.6626C21.9569 16.6618 22.0804 16.7121 22.1717 16.8024L29.1296 23.7102C29.1746 23.7552 29.2103 23.8086 29.2346 23.8675C29.259 23.9263 29.2715 23.9894 29.2715 24.0531C29.2715 24.1168 29.259 24.1799 29.2346 24.2388C29.2103 24.2976 29.1746 24.3511 29.1296 24.3961C29.0852 24.4414 29.0323 24.4774 28.9739 24.5021C28.9156 24.5268 28.8529 24.5396 28.7895 24.5399Z" fill="#DEA81E"/>
<path d="M8.81172 11.7666C8.74821 11.7666 8.68532 11.7541 8.62665 11.7297C8.56798 11.7053 8.51468 11.6697 8.46977 11.6247C8.42487 11.5797 8.38925 11.5262 8.36495 11.4675C8.34064 11.4087 8.32812 11.3457 8.32812 11.282V5.85895C8.32813 5.73044 8.37908 5.60718 8.46977 5.51631C8.56046 5.42544 8.68346 5.37439 8.81172 5.37439C8.93997 5.37439 9.06295 5.42544 9.15364 5.51631C9.24433 5.60718 9.29528 5.73044 9.29528 5.85895V11.282C9.29528 11.4105 9.24433 11.5338 9.15364 11.6247C9.06295 11.7155 8.93997 11.7666 8.81172 11.7666V11.7666Z" fill="#DEA81E"/>
<path d="M28.7923 36.6518C28.726 36.6518 28.6603 36.638 28.5995 36.6113C28.5387 36.5847 28.4841 36.5457 28.439 36.4969L13.0174 19.9555C12.9296 19.8613 12.8826 19.7361 12.887 19.6072C12.8913 19.4784 12.9466 19.3565 13.0406 19.2685C13.1346 19.1805 13.2596 19.1335 13.3882 19.1379C13.5168 19.1422 13.6384 19.1976 13.7262 19.2917L29.1456 35.8331C29.2331 35.9272 29.2799 36.0521 29.2757 36.1806C29.2716 36.3092 29.2169 36.4308 29.1236 36.519C29.0337 36.6034 28.9155 36.6508 28.7923 36.6518V36.6518Z" fill="#DEA81E"/>
<path d="M9.47992 45.9711C9.4135 45.9715 9.34773 45.9579 9.28687 45.9313C9.22602 45.9046 9.17143 45.8654 9.12663 45.8162L0.130684 36.1273C0.0871875 36.0806 0.0532993 36.0259 0.0309244 35.9661C0.00854941 35.9064 -0.00187619 35.8428 0.000276773 35.779C0.00242974 35.7152 0.0171052 35.6524 0.0434583 35.5943C0.0698115 35.5362 0.107324 35.4839 0.153865 35.4403C0.200406 35.3967 0.25506 35.3627 0.314704 35.3403C0.374348 35.3179 0.437835 35.3074 0.501501 35.3096C0.565167 35.3118 0.627768 35.3265 0.685764 35.3529C0.74376 35.3793 0.795991 35.4169 0.839487 35.4635L9.83546 45.1547C9.92237 45.2493 9.96835 45.3746 9.96339 45.5031C9.95842 45.6316 9.90289 45.753 9.80893 45.8406C9.7199 45.9246 9.6022 45.9713 9.47992 45.9711V45.9711Z" fill="#DEA81E"/>
<path d="M3.23485 28.0602C3.16871 28.06 3.10326 28.0464 3.04253 28.0202C2.98179 27.994 2.92702 27.9556 2.88153 27.9075L0.13241 25.0024C0.0587188 24.9066 0.0232046 24.7869 0.0327849 24.6664C0.0423651 24.5459 0.0963594 24.4332 0.184244 24.3504C0.272128 24.2676 0.387617 24.2205 0.50824 24.2183C0.628863 24.2162 0.745997 24.259 0.836818 24.3386L3.58593 27.2459C3.67369 27.3397 3.72085 27.4645 3.71712 27.593C3.7134 27.7215 3.6591 27.8433 3.56607 27.9318C3.47614 28.0155 3.35758 28.0615 3.23485 28.0602V28.0602Z" fill="#DEA81E"/>
<path d="M20.1752 45.971C20.1096 45.971 20.0447 45.9577 19.9843 45.9318C19.924 45.906 19.8695 45.8681 19.8242 45.8206L15.0458 40.7692C14.9669 40.6745 14.9271 40.5531 14.9345 40.43C14.9418 40.3068 14.9958 40.1911 15.0853 40.1065C15.1749 40.0218 15.2933 39.9746 15.4164 39.9744C15.5396 39.9742 15.6581 40.0211 15.7479 40.1054L20.5263 45.1568C20.5916 45.2255 20.6354 45.312 20.6521 45.4054C20.6688 45.4988 20.6578 45.595 20.6204 45.6822C20.583 45.7694 20.5209 45.8437 20.4418 45.8958C20.3626 45.9479 20.27 45.9756 20.1752 45.9755V45.971Z" fill="#DEA81E"/>
<path d="M8.81047 11.7666H0.483569C0.355315 11.7666 0.23231 11.7156 0.14162 11.6247C0.0509312 11.5338 0 11.4106 0 11.282C0 11.1535 0.0509312 11.0303 0.14162 10.9394C0.23231 10.8485 0.355315 10.7975 0.483569 10.7975H8.81047C8.93872 10.7975 9.0617 10.8485 9.15239 10.9394C9.24308 11.0303 9.29403 11.1535 9.29403 11.282C9.29403 11.4106 9.24308 11.5338 9.15239 11.6247C9.0617 11.7156 8.93872 11.7666 8.81047 11.7666V11.7666Z" fill="#DEA81E"/>
<path d="M13.371 20.1104H0.484306C0.361413 20.1021 0.24628 20.0473 0.162169 19.9571C0.0780583 19.8669 0.03125 19.7481 0.03125 19.6247C0.03125 19.5013 0.0780583 19.3825 0.162169 19.2923C0.24628 19.2021 0.361413 19.1474 0.484306 19.139H13.371C13.4374 19.1346 13.504 19.1438 13.5667 19.1661C13.6294 19.1885 13.6868 19.2236 13.7355 19.2691C13.7841 19.3146 13.8228 19.3697 13.8493 19.4309C13.8759 19.4921 13.8895 19.558 13.8895 19.6247C13.8895 19.6914 13.8759 19.7574 13.8493 19.8185C13.8228 19.8797 13.7841 19.9348 13.7355 19.9803C13.6868 20.0259 13.6294 20.0609 13.5667 20.0833C13.504 20.1056 13.4374 20.1149 13.371 20.1104V20.1104Z" fill="#DEA81E"/>
<path d="M47.1089 35.9613H37.1171C36.9942 35.953 36.8791 35.8982 36.795 35.8081C36.7108 35.7179 36.6641 35.5991 36.6641 35.4757C36.6641 35.3522 36.7108 35.2334 36.795 35.1433C36.8791 35.0531 36.9942 34.9983 37.1171 34.99H47.1089C47.2318 34.9983 47.347 35.0531 47.4311 35.1433C47.5152 35.2334 47.562 35.3522 47.562 35.4757C47.562 35.5991 47.5152 35.7179 47.4311 35.8081C47.347 35.8982 47.2318 35.953 47.1089 35.9613V35.9613Z" fill="#DEA81E"/>
<path d="M47.1071 27.2017H43.7773C43.6544 27.1934 43.5392 27.1386 43.4551 27.0484C43.371 26.9582 43.3242 26.8394 43.3242 26.716C43.3242 26.5926 43.371 26.4738 43.4551 26.3836C43.5392 26.2934 43.6544 26.2387 43.7773 26.2303H47.1071C47.23 26.2387 47.3452 26.2934 47.4293 26.3836C47.5134 26.4738 47.5602 26.5926 47.5602 26.716C47.5602 26.8394 47.5134 26.9582 47.4293 27.0484C47.3452 27.1386 47.23 27.1934 47.1071 27.2017Z" fill="#DEA81E"/>
<path d="M5.17969 30.2706C5.17969 33.7598 11.4839 42.1478 11.4839 42.1478C11.4839 42.1478 17.7881 33.7598 17.7881 30.2706C17.7881 28.5952 17.1239 26.9885 15.9417 25.8038C14.7594 24.6191 13.1559 23.9536 11.4839 23.9536C9.81193 23.9536 8.20841 24.6191 7.02614 25.8038C5.84387 26.9885 5.17969 28.5952 5.17969 30.2706Z" fill="#4550E5"/>
<path d="M11.4814 42.6323C11.4063 42.6321 11.3323 42.6145 11.2653 42.5807C11.1982 42.5469 11.1399 42.4979 11.095 42.4376C10.8344 42.0902 4.69141 33.8815 4.69141 30.2683C4.69141 28.4644 5.40655 26.7345 6.67951 25.4589C7.95247 24.1834 9.67897 23.4668 11.4792 23.4668C13.2795 23.4668 15.006 24.1834 16.2789 25.4589C17.5519 26.7345 18.267 28.4644 18.267 30.2683C18.267 33.8793 12.1284 42.088 11.8634 42.4376C11.819 42.4973 11.7614 42.5459 11.6951 42.5797C11.6289 42.6135 11.5557 42.6315 11.4814 42.6323V42.6323ZM11.4814 24.4403C9.93861 24.4421 8.45945 25.0568 7.36831 26.1498C6.27717 27.2427 5.66312 28.7246 5.66078 30.2705C5.66078 33.0739 10.1234 39.4528 11.4814 41.3335C12.8394 39.4594 17.3021 33.0783 17.3021 30.2705C17.3003 28.7244 16.6864 27.2422 15.5952 26.1491C14.5039 25.0561 13.0244 24.4415 11.4814 24.4403Z" fill="#DEA81E"/>
<path d="M8.08203 30.2109C8.08203 30.8708 8.27731 31.5159 8.6432 32.0646C9.00909 32.6133 9.52915 33.0409 10.1376 33.2935C10.7461 33.546 11.4156 33.6121 12.0615 33.4834C12.7075 33.3546 13.3008 33.0368 13.7665 32.5702C14.2322 32.1036 14.5493 31.509 14.6778 30.8618C14.8063 30.2146 14.7403 29.5437 14.4883 28.934C14.2363 28.3243 13.8095 27.8032 13.2619 27.4366C12.7143 27.07 12.0705 26.8743 11.4119 26.8743C10.5288 26.8743 9.68181 27.2258 9.05734 27.8515C8.43286 28.4773 8.08203 29.3259 8.08203 30.2109V30.2109Z" fill="white"/>
<path d="M11.4111 34.032C10.6569 34.032 9.91957 33.8079 9.29245 33.388C8.66533 32.9681 8.17658 32.3713 7.88794 31.6731C7.59931 30.9749 7.52379 30.2066 7.67093 29.4653C7.81807 28.7241 8.18127 28.0432 8.71459 27.5088C9.24791 26.9744 9.92741 26.6105 10.6671 26.4631C11.4069 26.3156 12.1736 26.3913 12.8705 26.6805C13.5673 26.9697 14.1628 27.4595 14.5819 28.0879C15.0009 28.7163 15.2246 29.4551 15.2246 30.2108C15.2234 31.2239 14.8212 32.1951 14.1063 32.9115C13.3914 33.6278 12.4221 34.0308 11.4111 34.032V34.032ZM11.4111 27.3588C10.8482 27.3588 10.2979 27.526 9.8298 27.8394C9.36173 28.1528 8.9969 28.5982 8.78147 29.1194C8.56604 29.6405 8.50967 30.214 8.6195 30.7672C8.72932 31.3205 9.0004 31.8286 9.39846 32.2275C9.79653 32.6264 10.3037 32.898 10.8558 33.008C11.408 33.1181 11.9803 33.0616 12.5003 32.8458C13.0204 32.6299 13.4649 32.2643 13.7777 31.7953C14.0905 31.3263 14.2574 30.7749 14.2574 30.2108C14.2568 29.4546 13.9567 28.7295 13.4231 28.1948C12.8894 27.66 12.1658 27.3594 11.4111 27.3588Z" fill="#DEA81E"/>
</svg>
