<svg fill="none" height="39" viewBox="0 0 39 39" width="39" xmlns="http://www.w3.org/2000/svg"><path d="m32.9033 25.0484c3.0653-7.3986-.4489-15.88059-7.8491-18.94517s-15.8841.4488-18.94937 7.84737c-3.06526 7.3985.4489 15.8806 7.84907 18.9451 7.4002 3.0646 15.8842-.4488 18.9494-7.8473z" fill="#e9ffe9"/><g fill="#00a99d"><path d="m14.3317 15.7893h-4.08c-.49283 0-.89232.3994-.89232.8921v9.5029c0 .4927.39949.8921.89232.8921h4.08c.4928 0 .8923-.3994.8923-.8921v-9.5029c0-.4927-.3995-.8921-.8923-.8921z"/><path d="m30.216 17.0241c.0239-.1945.006-.3918-.0524-.5787-.0584-.187-.156-.3593-.2864-.5056-.1304-.1462-.2904-.263-.4695-.3424-.1791-.0795-.3731-.1198-.569-.1184-1.3437-.0808-2.6911-.0808-4.0348 0-.0212.0009-.0424-.0024-.0623-.0098-.02-.0073-.0383-.0185-.0539-.0329s-.0282-.0318-.0371-.051c-.0089-.0193-.014-.0402-.0148-.0614.0841-1.8101.763-2.0493.6466-3.8788-.0301-.3501-.138-.6891-.3158-.9922-.1779-.3031-.4212-.5626-.7123-.75964-.4849-.25858-1.707-.40726-1.7652.91154 0 .3749-.0388.8533-.097 1.17-.3686 2.1075-2.3924 3.5491-4.1124 4.5899-.4591.2715-.8599.5301-1.1962.7757-.1128.0876-.2515.1353-.3944.1358h-.4009c-.043 0-.0856.0085-.1252.0252-.0397.0166-.0756.041-.1057.0717s-.0538.0671-.0697.1071c-.0158.0399-.0236.0827-.0227.1257v7.0399c0 .0874.0348.1713.0966.2331s.1457.0966.2332.0966h.3944c.1421-.0015.2807.044.3944.1293 1.6698 1.0939 3.6164 1.6904 5.6125 1.7195h1.3837c1.7717 0 3.233-.1228 3.7568-.7628l.0776-.1164c.1021-.1815.1555-.3864.1552-.5947v-.2974c.0211-.1874-.0078-.3771-.084-.5498-.0761-.1726-.1966-.3219-.3493-.4328.1911-.0013.3798-.0417.5547-.1186.1749-.0768.3323-.1886.4624-.3284.1302-.1398.2304-.3047.2946-.4847.0641-.1799.0909-.371.0785-.5616v-.3685c-.0354-.2073-.1187-.4035-.2433-.573-.1246-.1694-.287-.3075-.4744-.4031h.0582c.3347.0163.6626-.098.9146-.3187.2521-.2206.4087-.5305.4368-.8643v-.6465c0-.4913-.472-.7369-.7824-.9632.355-.0249.6866-.1862.9253-.4501.2386-.264.3659-.61.355-.9656z"/></g></svg>