<svg fill="none" height="66" viewBox="0 0 66 66" width="66" xmlns="http://www.w3.org/2000/svg"><path d="m19.9453 10.4738c0-2.51263.9981-4.92232 2.7748-6.699s4.1864-2.7748 6.699-2.7748 4.9223.99812 6.699 2.7748c1.7766 1.77668 2.7748 4.18637 2.7748 6.699.0002.3728-.0209.7454-.0632 1.1158-.021.1579-.0421.3158-.0737.4737-.0204.1738-.052.3461-.0947.5158-.374 1.639-1.181 3.1477-2.3369 4.3684-1.0526-.1052-2.1263-.1579-3.2211-.1579-3.1443-.0055-6.2736.434-9.2948 1.3053-1.6102-1.1776-2.8045-2.8363-3.4106-4.7369-.0631-.1684-.1052-.3368-.1578-.5158-.0527-.2316-.1053-.4737-.1474-.7158-.0085-.0161-.0122-.0344-.0105-.0526-.0356-.1808-.0602-.3636-.0737-.5474-.0094-.027-.013-.0557-.0106-.0842l-.0315-.3158c-.0106-.2105-.0211-.4316-.0211-.6526z" fill="#4550e5"/><path d="m62.0517 32.5793h-2.9474c-.9789-2.9579-2.7632-5.6737-5.1316-7.9685l4.9211-8.8737c-2.1889-.4697-4.4636-.3456-6.5883.3596-2.1248.7052-4.0223 1.9657-5.496 3.6509-2.1579-1.3052-4.758-1.7579-4.758-1.7579-1.8738-.5176-3.7903-.8664-5.7263-1.0421-1.0527-.1053-2.1264-.1579-3.2211-.1579-3.1444-.0055-6.2737.4339-9.2948 1.3053-9.3159 2.6948-16.2002 9.3264-17.36863 17.337-.11793.7981-.17774 1.6038-.17895 2.4105 0 6.6106 2.81055 11.737 7.36848 15.2844v8.9264c0 .5584.2218 1.0939.6166 1.4887.3949.3948.9303.6166 1.4887.6166h6.3158c.5584 0 1.0939-.2218 1.4887-.6166s.6166-.9303.6166-1.4887v-4.1369c2.9355.6661 5.9374.9946 8.9475.979 2.6587.0046 5.3086-.3045 7.8948-.9211v4.079c0 .5584.2218 1.0939.6166 1.4887s.9303.6166 1.4887.6166h6.3158c.5584 0 1.0939-.2218 1.4887-.6166s.6166-.9303.6166-1.4887v-8.9054c3.6211-2.6737 6.2948-6.1368 7.579-10.0421h2.9474c.5584 0 1.0939-.2218 1.4887-.6167.3948-.3948.6166-.9303.6166-1.4886v-6.3159c0-.5583-.2218-1.0938-.6166-1.4886-.3948-.3949-.9303-.6167-1.4887-.6167zm-10.5264 3.6843c-.4164 0-.8234-.1235-1.1696-.3548-.3462-.2314-.6161-.5602-.7754-.9448-.1594-.3847-.2011-.808-.1198-1.2164.0812-.4084.2817-.7835.5762-1.078.2944-.2944.6695-.4949 1.0779-.5761.4084-.0813.8317-.0396 1.2164.1198.3847.1593.7135.4292.9448.7754s.3548.7532.3548 1.1696c0 .5584-.2218 1.0938-.6166 1.4887-.3948.3948-.9303.6166-1.4887.6166z" fill="#efc73f"/><path d="m51.5272 36.2635c1.1627 0 2.1052-.9425 2.1052-2.1052 0-1.1628-.9425-2.1053-2.1052-2.1053-1.1628 0-2.1053.9425-2.1053 2.1053 0 1.1627.9425 2.1052 2.1053 2.1052z" fill="#4550e5"/><g stroke-linecap="round" stroke-linejoin="round" stroke-width="2"><path d="m45.2109 22.0529c.4438-.8268.9807-1.6003 1.6001-2.3053 1.4737-1.6852 3.3712-2.9457 5.496-3.6509 2.1247-.7052 4.3994-.8293 6.5883-.3596l-4.9264 8.8737" stroke="#d3ac2f"/><path d="m53.9674 24.6107c2.379 2.2948 4.158 5.0106 5.1317 7.9685h2.9526c.5584 0 1.0939.2218 1.4887.6167.3948.3948.6166.9303.6166 1.4886v6.3159c0 .5583-.2218 1.0938-.6166 1.4886s-.9303.6167-1.4887.6167h-2.9474c-1.2842 3.9053-3.9579 7.3684-7.579 10.0422v8.9053c0 .5584-.2218 1.0939-.6166 1.4887s-.9303.6166-1.4887.6166h-6.3158c-.5584 0-1.0939-.2218-1.4887-.6166s-.6166-.9303-.6166-1.4887v-4.079c-2.5862.6166-5.2361.9257-7.8948.9211-3.0101.0156-6.012-.3129-8.9475-.979v4.1369c0 .5584-.2218 1.0939-.6166 1.4887s-.9303.6166-1.4887.6166h-6.3158c-.5584 0-1.0939-.2218-1.4887-.6166s-.6166-.9303-.6166-1.4887v-8.9264c-4.55793-3.5527-7.36848-8.6738-7.36848-15.2844.00121-.8067.06102-1.6124.17895-2.4105 1.16843-8.0106 8.05273-14.6423 17.36863-17.337 3.0211-.8714 6.1504-1.3108 9.2948-1.3053 1.0947 0 2.1684.0526 3.2211.1579 1.936.1757 3.8525.5245 5.7263 1.0421" stroke="#d3ac2f"/><path d="m1 26.2634c0 3.9053 1.85265 7.7054 5.44216 9.1685" stroke="#d3ac2f"/><path d="m38.7617 12.0633c.0316-.1579.0526-.3158.0737-.4737" stroke="#303e58"/><path d="m38.8297 11.5896c.0423-.3704.0634-.743.0632-1.1158 0-2.51262-.9982-4.92232-2.7748-6.699-1.7767-1.77668-4.1864-2.7748-6.699-2.7748s-4.9223.99812-6.699 2.7748-2.7748 4.18638-2.7748 6.699" stroke="#d3ac2f"/></g></svg>