<svg fill="none" height="56" viewBox="0 0 61 56" width="61" xmlns="http://www.w3.org/2000/svg"><path d="m33.0522 55.1586c14.8971 0 26.998-12.0765 27.028-26.9735.0301-14.8971-12.022-26.97355-26.9191-26.97355s-26.99797 12.07645-27.02804 26.97355c-.03007 14.897 12.02204 26.9735 26.91914 26.9735z" fill="#efc73f"/><path d="m37.1092 43.2209h-22.6773c-.1187 0-.2325-.047-.3165-.1309-.0839-.0838-.131-.1975-.131-.3161 0-.1185.0471-.2322.131-.3161.084-.0838.1978-.1309.3165-.1309h22.6773c.1187 0 .2325.0471.3164.1309.0839.0839.1311.1976.1311.3161 0 .1186-.0472.2323-.1311.3161-.0839.0839-.1977.1309-.3164.1309z" fill="#dea81e"/><path d="m30.2618 26.0818h-8.9727v16.6924h8.9727z" fill="#fff"/><path d="m30.2607 43.2213h-8.9727c-.1187 0-.2326-.0471-.3167-.1309-.084-.0838-.1313-.1975-.1315-.3161v-16.6925c.0002-.1186.0475-.2323.1315-.3161.0841-.0839.198-.1309.3167-.1309h8.9727c.0588 0 .117.0115.1712.034.0543.0225.1037.0554.1452.0969.0416.0415.0745.0908.097.145.0225.0543.0341.1124.0341.1711v16.6925c0 .1185-.0472.2322-.1311.316-.0839.0839-.1977.131-.3164.131zm-8.5252-.8941h8.075v-15.797h-8.075z" fill="#dea81e"/><path d="m47.2231 37.022h-42.44357c-.47127.0004-.93801-.0919-1.37358-.2716-.43556-.1798-.83142-.4435-1.16498-.776-.33355-.3326-.59826-.7276-.77901-1.1623-.18076-.4348-.27402-.9009-.27446-1.3717v-28.0414c.00089-.95084.37982-1.86239 1.05343-2.53417.67362-.67178 1.58677-1.04877 2.5386-1.04806h42.44357c.9519-.00071 1.865.37628 2.5386 1.04806s1.0526 1.58333 1.0535 2.53417v28.0414c-.0005.4708-.0937.9369-.2745 1.3717-.1808.4347-.4455.8297-.779 1.1623-.3336.3325-.7294.5962-1.165.776-.4356.1797-.9023.272-1.3736.2716z" fill="#4550e5"/><path d="m47.2233 37.4697h-42.44361c-1.06984-.0009-2.09567-.4256-2.85254-1.1809s-1.183003-1.7796-1.184962-2.8484v-28.0414c.001959-1.06872.428092-2.09305 1.184962-2.84837s1.7827-1.17999 2.85254-1.18088h42.44361c1.0698.00089 2.0957.42556 2.8525 1.18088.7569.75532 1.183 1.77965 1.185 2.84837v28.0414c-.002 1.0688-.4281 2.0931-1.185 2.8484-.7568.7553-1.7827 1.18-2.8525 1.1809zm-42.44361-35.2059c-.83282.00018-1.63156.33038-2.22095.91815-.5894.58777-.92131 1.38511-.92292 2.21705v28.0414c.00178.8319.33378 1.629.92315 2.2167.58938.5876 1.38802.9177 2.22072.9179h42.44361c.8328 0 1.6316-.3301 2.2212-.9177.5895-.5877.9216-1.3849.9233-2.2169v-28.0414c-.0016-.83206-.3336-1.6295-.9231-2.21729-.5896-.58779-1.3885-.91791-2.2214-.91791z" fill="#dea81e"/><path d="m3.44646 33.4021c-.00998-.0001-.01985-.0022-.02905-.0061-.00919-.0039-.01752-.0095-.02452-.0166-.007-.0072-.01253-.0156-.01627-.0248-.00373-.0093-.00561-.0192-.00552-.0291v-27.40892c0-1.12798.89969-2.04219 2.00933-2.04219h41.20477c1.1096 0 2.0086.91421 2.0086 2.04151v27.4069c.0001.0099-.0018.0198-.0055.0291-.0037.0092-.0093.0177-.0163.0248s-.0153.0128-.0245.0167-.0191.0059-.029.006z" fill="#fff"/><path d="m48.5174 33.8465h-45.07199c-.13891-.0002-.27207-.0554-.37024-.1536-.09816-.0982-.1533-.2313-.15329-.3701v-27.40616c0-1.37266 1.10224-2.4872 2.45749-2.4872h41.20473c1.3546 0 2.4569 1.11655 2.4569 2.4872v27.40686c-.0002.1386-.0554.2716-.1536.3696-.0981.098-.2312.1532-.37.1534zm-44.69987-.8941h44.32777v-27.03644c0-.87925-.7005-1.59381-1.5612-1.59381h-41.20473c-.86133 0-1.56184.71523-1.56184 1.59449z" fill="#dea81e"/><path d="m27.7003 35.7024h-3.8437c-.1158-.0045-.2253-.0536-.3056-.137-.0804-.0834-.1252-.1946-.1252-.3103 0-.1158.0448-.227.1252-.3104.0803-.0834.1898-.1325.3056-.137h3.8437c.0603-.0023.1204.0075.1768.0289.0563.0215.1078.054.1513.0958.0434.0418.078.0919.1016.1473.0236.0555.0358.1151.0358.1754 0 .0602-.0122.1199-.0358.1753s-.0582.1055-.1016.1473c-.0435.0418-.095.0744-.1513.0958-.0564.0214-.1165.0313-.1768.0289z" fill="#dea81e"/><path d="m36.6855 14.7186-.9051-6.97898h-4.9863-5.5307l-.2517 6.97898z" fill="#fff"/><path d="m36.6841 15.1658h-11.6738c-.0602 0-.1197-.0121-.1751-.0355-.0554-.0235-.1054-.0579-.1472-.1011-.0418-.0433-.0744-.0945-.0959-.1506s-.0315-.116-.0293-.176l.251-6.97893c.0042-.1158.0531-.22547.1366-.30595.0834-.08048.1949-.12551.3109-.12561h10.517c.1088.00007.2138.03967.2956.11141.0817.07173.1345.17071.1485.27848l.9051 6.9783c.0082.063.0029.127-.0156.1879-.0185.0608-.0498.1169-.0918.1647-.0419.0478-.0936.0861-.1516.1123-.0579.0263-.1208.0398-.1844.0399zm-11.2102-.8941h10.6994l-.7853-6.0842h-9.69z" fill="#dea81e"/><path d="m25.0093 14.7186.2517-6.97898h-9.0831l-1.4084 6.97898z" fill="#fff"/><path d="m25.0081 15.1657h-10.2397c-.0666.0001-.1323-.0146-.1924-.0431s-.1131-.07-.1551-.1215-.072-.1117-.0878-.1763c-.0158-.0645-.017-.1318-.0035-.1969l1.4071-6.97621c.0206-.10125.0756-.19228.1557-.25769s.1803-.10118.2837-.10128h9.0844c.0602.00006.1197.01221.1751.03575s.1054.05799.1472.10127c.0418.04329.0744.09453.0959.15068s.0314.11605.0293.17613l-.2517 6.97825c-.004.1159-.053.2257-.1367.3062-.0836.0804-.1954.1251-.3115.1247zm-9.69-.894h9.258l.2194-6.08426h-8.2513z" fill="#dea81e"/><path d="m14.7751 14.7188-1.6345 8.0988h11.5823l.292-8.0988z" fill="#fff"/><path d="m24.7178 23.2652h-11.5822c-.0666.0001-.1323-.0146-.1924-.0431s-.1131-.07-.1551-.1215-.072-.1117-.0878-.1763c-.0158-.0645-.017-.1318-.0035-.1968l1.6345-8.0996c.0204-.1011.0753-.1921.1553-.2575.08-.0653.1802-.1009.2835-.1007h10.2398c.0601 0 .1195.0121.1748.0357.0553.0235.1053.0579.147.1011s.0743.0944.0957.1504c.0215.0561.0315.1159.0293.1759l-.2914 8.0989c-.0037.1161-.0524.2263-.1359.3072s-.1952.1262-.3116.1263zm-11.0358-.8947h10.6025l.2597-7.2048h-9.4081z" fill="#dea81e"/><path d="m16.1813 7.73962h-7.06766l-2.73473 6.97898h8.39399z" fill="#fff"/><path d="m14.7718 15.1657h-8.39396c-.07294.0001-.1448-.0176-.20933-.0516-.06452-.0339-.11975-.0832-.16089-.1433-.04113-.0602-.06691-.1295-.0751-.2019s.00146-.1457.02811-.2136l2.73474-6.97823c.03288-.0838.09027-.15575.16469-.20647.07443-.05073.16243-.07786.25252-.07788h7.06562c.0665.00004.1321.01485.1922.04337.06.02851.113.07001.155.12149s.072.11165.0878.17615c.0159.0645.0171.13171.0038.19677l-1.4085 6.9783c-.0207.1005-.0754.1909-.1549.2559s-.179.1006-.2818.101zm-7.73853-.894h7.37183l1.2281-6.08426h-6.21511z" fill="#dea81e"/><path d="m25.0069 14.7188-.2921 8.0988h13.0163l-1.0504-8.0988z" fill="#fff"/><path d="m37.7336 23.2651h-13.0163c-.0602 0-.1197-.0122-.1751-.0357s-.1054-.058-.1472-.1013-.0744-.0945-.0959-.1507c-.0215-.0561-.0314-.116-.0293-.1761l.2921-8.0988c.0042-.1158.0531-.2253.1366-.3057s.1949-.1253.3109-.1252h11.6737c.1086.0001.2135.0396.2951.1112s.1343.1704.1484.278l1.0511 8.0995c.0082.0631.0029.1272-.0157.1881-.0185.0608-.0499.117-.0919.1648-.0421.0478-.0938.0861-.1519.1123-.058.0262-.121.0397-.1846.0396zm-12.552-.8947h12.0452l-.9346-7.2048h-10.8515z" fill="#dea81e"/><path d="m46.0587 14.7186h-9.3724l1.0504 8.0988h11.2782l-5.4493-15.07778h-7.7844l.9051 6.97898z" fill="#fff"/><path d="m49.0142 23.2652h-11.2781c-.1088 0-.2139-.0396-.2956-.1114-.0817-.0717-.1345-.1707-.1485-.2785l-1.0505-8.0995-.9057-6.97825c-.0082-.06308-.0029-.12719.0156-.18805.0186-.06086.0499-.11706.092-.16485.042-.04779.0938-.08606.1518-.11226.0581-.0262.121-.03972.1847-.03967h7.785c.0921.00017.1819.02864.2573.08155s.1326.1277.1639.21423l5.4507 15.0771c.0244.0676.0321.14.0226.2112s-.0361.1391-.0774.1979-.0961.1068-.1599.14c-.0638.0331-.1347.0505-.2066.0505zm-10.8845-.8947h10.2472l-2.6035-7.2048h-8.5783zm-1.0511-8.0988h8.3705l-2.1985-6.08426h-6.9613z" fill="#dea81e"/><path d="m49.0164 22.8176h-11.2781l.9125 7.0321h12.9072z" fill="#fff"/><path d="m51.5527 30.2964h-12.9072c-.1088.0001-.2139-.0394-.2957-.1112-.0817-.0718-.1345-.1708-.1484-.2786l-.9125-7.0314c-.0082-.0631-.0029-.1272.0157-.1881.0185-.0608.0499-.117.0919-.1648.0421-.0478.0938-.0861.1519-.1123.058-.0262.121-.0397.1846-.0396h11.2781c.0921 0 .1819.0283.2573.0811.0753.0528.1326.1275.164.214l2.5409 7.032c.0244.0675.0322.1398.0227.211-.0095.0711-.0359.1389-.0772.1976-.0412.0588-.096.1067-.1598.1399-.0637.0331-.1344.0504-.2063.0504zm-12.5162-.894h11.8763l-2.2206-6.1373h-10.4498z" fill="#dea81e"/><path d="m24.7218 22.8176-.253 7.0321h14.1817l-.9125-7.0321z" fill="#fff"/><path d="m38.6497 30.2964h-14.1824c-.0601.0001-.1197-.012-.175-.0355-.0554-.0234-.1055-.0578-.1473-.101-.0417-.0433-.0743-.0945-.0959-.1506-.0215-.0561-.0314-.116-.0293-.176l.2537-7.032c.0044-.1157.0534-.2252.1368-.3056.0835-.0803.1948-.1252.3107-.1253h13.0162c.1088 0 .2139.0396.2956.1114.0817.0717.1345.1707.1486.2784l.9125 7.0314c.0082.0631.0029.1272-.0157.1881-.0186.0608-.0499.117-.0919.1648-.0421.0478-.0939.0861-.1519.1123s-.121.0397-.1847.0396zm-13.7181-.894h13.2087l-.7981-6.1373h-12.1892z" fill="#dea81e"/><path d="m3.20091 22.8176-2.755598 7.0321h11.269988l1.4192-7.0321z" fill="#fff"/><path d="m11.7182 30.2964h-11.270045c-.072941.0001-.144804-.0176-.20933-.0516-.064526-.0339-.11976-.0831-.1608917-.1433-.0411319-.0602-.0669141-.1295-.07510363-.2019-.0081895-.0724.00146166-.1457.02811563-.2135l2.7555947-7.0314c.03288-.0838.09027-.1557.16469-.2065.07443-.0507.16243-.0778.25252-.0778h9.93365c.0665-.0001.1322.0146.1923.0431s.1131.07.1551.1215.072.1117.0878.1763c.0158.0645.017.1318.0035.1968l-1.4192 7.0314c-.0206.1009-.0756.1916-.1556.2567-.0799.065-.18.1005-.2831.1002zm-10.61395-.894h10.24785l1.2382-6.1373h-9.08441z" fill="#dea81e"/><path d="m14.7713 14.7188h-8.39402l-3.17416 8.0988h9.93358z" fill="#fff"/><path d="m13.1354 23.2652h-9.93365c-.07288-.0001-.14466-.0179-.2091-.0519-.06443-.034-.11959-.0833-.16069-.1434s-.0669-.1293-.07516-.2017c-.00827-.0723.00126-.1456.02774-.2134l3.17415-8.0995c.0329-.0837.09032-.1556.16476-.2062.07443-.0506.16241-.0776.25245-.0775h8.394c.0665-.0002.1323.0144.1925.0429.0601.0284.1132.0699.1552.1215.0421.0515.0721.1118.0878.1764.0158.0646.0169.1319.0032.197l-1.6345 8.0995c-.021.1007-.0761.1911-.156.256-.0799.0648-.1798.1003-.2827.1003zm-9.27756-.8948h8.91076l1.4542-7.2048h-7.5414z" fill="#dea81e"/><path d="m13.1379 22.8176-1.4191 7.0321h12.7484l.253-7.0321z" fill="#fff"/><path d="m24.4653 30.2965h-12.7477c-.0665.0001-.1322-.0146-.1923-.0431s-.1131-.07-.1552-.1215c-.042-.0515-.072-.1117-.0878-.1763-.0158-.0645-.017-.1318-.0035-.1969l1.4192-7.0313c.0203-.1013.0751-.1925.1551-.258.08-.0654.1803-.1011.2837-.101h11.5822c.0602 0 .1197.012.1751.0355s.1054.0579.1472.1011.0744.0944.0959.1505.0315.116.0293.1761l-.2537 7.032c-.0036.1161-.0524.2262-.1359.307s-.1953.126-.3116.1259zm-12.2006-.894h11.7686l.2214-6.1374h-10.7519z" fill="#dea81e"/><path d="m14.1374 17.6474c2.4447 0 4.4264-.9065 4.4264-2.0247s-1.9817-2.0247-4.4264-2.0247-4.42646.9065-4.42646 2.0247 1.98176 2.0247 4.42646 2.0247z" fill="#4550e5"/><path d="m14.1357 18.0953c-2.7785 0-4.87398-1.0628-4.87398-2.4718 0-1.4089 2.09548-2.4724 4.87398-2.4724 2.7784 0 4.8746 1.0628 4.8746 2.4724 0 1.4097-2.0955 2.4718-4.8746 2.4718zm0-4.0495c-1.1191 0-2.1648.1963-2.9434.5526-.648.2965-1.0349.6796-1.0349 1.0251 0 .7442 1.7011 1.5771 3.9783 1.5771 1.1197 0 2.1647-.1963 2.944-.5519.648-.2972 1.0349-.6803 1.0349-1.0252 0-.7448-1.7018-1.5777-3.9789-1.5777z" fill="#dea81e"/><path d="m19.1602 5.42991c0 2.78499-5.0469 9.34379-5.0469 9.34379s-5.04689-6.56149-5.04689-9.34379c0-1.33711.53172-2.61947 1.47819-3.56495.9465-.945487 2.2302-1.476654 3.5687-1.476654s2.6222.531167 3.5687 1.476654c.9464.94548 1.4782 2.22784 1.4782 3.56495z" fill="#4550e5"/><path d="m14.1129 15.2234c-.0686-.0001-.1362-.0158-.1977-.0461s-.1152-.0744-.1569-.1287c-.0128-.0161-1.2893-1.6805-2.5477-3.6615-1.72064-2.71175-2.59341-4.71629-2.59341-5.9572.01601-1.4456.60211-2.82656 1.63111-3.84315 1.0289-1.016581 2.4177-1.58675 3.8649-1.58675s2.836.570169 3.865 1.58675c1.029 1.01659 1.6151 2.39755 1.6311 3.84315 0 1.24091-.8748 3.24545-2.5941 5.9572-1.2584 1.9823-2.5342 3.6454-2.547 3.6615-.0419.0544-.0957.0984-.1573.1287s-.1293.0461-.198.0461zm0-14.389434c-1.2197.001424-2.389.486114-3.2514 1.347724-.86238.86162-1.34741 2.02979-1.34866 3.24821 0 1.99244 3.04696 6.5104 4.60006 8.6043 1.5531-2.0932 4.6007-6.61119 4.6007-8.6043-.0014-1.21848-.4866-2.38665-1.3491-3.24825-.8625-.86159-2.0318-1.346261-3.2516-1.347684z" fill="#dea81e"/><path d="m15.8417 7.51572c.9589-.95792.9589-2.51102 0-3.46894-.959-.95793-2.5137-.95792-3.4726 0s-.9589 2.51102 0 3.46894 2.5136.95792 3.4726 0z" fill="#fff"/><path d="m14.1107 8.68157c-.5743 0-1.1358-.17013-1.6133-.48888s-.8497-.77181-1.0694-1.30186c-.2198-.53005-.2772-1.1133-.1651-1.67598s.3887-1.07952.7948-1.48515c.4062-.40563.9236-.68183 1.4869-.79368.5633-.11184 1.1472-.0543 1.6777.16534.5306.21964.984.59152 1.303 1.06861s.4891 1.03796.489 1.61167c-.0009.76896-.3071 1.50615-.8515 2.04982-.5443.54367-1.2824.8494-2.0521.85011zm0-4.90715c-.3973-.00014-.7858.11743-1.1162.33783-.3304.22041-.5879.53374-.7401.90038-.1521.36664-.192.77011-.1145 1.15939.0774.38928.2686.74688.5495 1.02757s.6388.47186 1.0285.54934c.3896.07748.7936.03778 1.1606-.11407.3671-.15186.6808-.40904.9016-.73903.2207-.32999.3386-.71797.3386-1.11486-.0008-.53177-.2125-1.04157-.589-1.41759-.3764-.37602-.8867-.58758-1.419-.58829z" fill="#dea81e"/><path d="m30.5753 15.9245c-4.1109 5.3341-2.7348 12.4992-2.4057 13.9236h1.9434c.001-.0822-.0082-.1641-.0276-.244-.0195-.0739-1.8943-7.4549 2.0187-12.5186 2.5302-3.2744 6.9506-4.9348 13.1394-4.9348l-.7718-1.903c-6.639.0665-11.0359 1.9682-13.8964 5.6768z" fill="#4550e5"/><path d="m30.115 30.2965h-1.9434c-.1013 0-.1996-.0343-.2789-.0972-.0794-.063-.135-.151-.1578-.2497-.3277-1.4224-1.7496-8.7972 2.4898-14.2959 1.5074-1.9562 3.376-3.3779 5.7138-4.3466 2.3653-.9801 5.1552-1.4728 8.5299-1.50641.0899-.0011.178.02495.2528.07473s.1328.12096.1664.20428l.7739 1.9043c.0277.0679.0382.1416.0307.2145s-.0328.1429-.0738.2037c-.041.0609-.0963.1107-.161.1452-.0648.0344-.1371.0524-.2105.0524-6.0428 0-10.3441 1.6012-12.7854 4.7599-3.7609 4.8682-1.9582 12.0609-1.9394 12.1328.0294.1169.0435.2372.0418.3577 0 .0587-.0117.117-.0342.1712-.0226.0543-.0557.1036-.0974.1451s-.0912.0743-.1457.0966c-.0544.0223-.1127.0337-.1716.0334zm-1.5827-.894h1.0498c-.3156-1.495-1.4044-7.9631 2.1695-12.5893 2.5261-3.2703 6.8415-4.9851 12.8305-5.1014l-.4112-1.0124c-3.1203.0579-5.705.5277-7.8913 1.4345-2.1863.9069-3.9386 2.2365-5.3476 4.0649-3.7246 4.8346-2.7947 11.263-2.3997 13.2037z" fill="#dea81e"/></svg>