<svg width="58" height="54" viewBox="0 0 58 54" fill="none" xmlns="http://www.w3.org/2000/svg">
<path d="M32 54C46.3594 54 58 42.3594 58 28C58 13.6406 46.3594 2 32 2C17.6406 2 6 13.6406 6 28C6 42.3594 17.6406 54 32 54Z" fill="#EFC73F"/>
<path d="M5.52734 24.2806H3.72551C3.49227 24.2809 3.26695 24.196 3.09196 24.0417C2.91697 23.8875 2.8044 23.6747 2.77537 23.4432L1.53378 13.5919C1.51691 13.4571 1.52887 13.3202 1.5689 13.1904C1.60893 13.0606 1.6761 12.9408 1.76595 12.8389C1.8558 12.737 1.96628 12.6554 2.09007 12.5994C2.21385 12.5435 2.34808 12.5145 2.48392 12.5144H5.52529" fill="white"/>
<path d="M3.72638 24.8674H5.52616C5.68237 24.8674 5.83216 24.8054 5.94261 24.6949C6.05307 24.5845 6.11511 24.4346 6.11511 24.2784C6.11511 24.1222 6.05307 23.9724 5.94261 23.8619C5.83216 23.7514 5.68237 23.6894 5.52616 23.6894H3.72638C3.63642 23.6896 3.54946 23.657 3.48183 23.5977C3.4142 23.5384 3.37052 23.4564 3.35903 23.3672L2.12771 13.5158C2.12157 13.4639 2.12643 13.4114 2.14199 13.3615C2.15755 13.3116 2.18345 13.2656 2.218 13.2264C2.25239 13.1868 2.29497 13.1551 2.3428 13.1335C2.39063 13.1119 2.44258 13.1009 2.49506 13.1012H5.53643C5.61656 13.106 5.69681 13.0943 5.77226 13.0669C5.84771 13.0395 5.91677 12.9969 5.97518 12.9419C6.03359 12.8868 6.0801 12.8203 6.11191 12.7466C6.14372 12.6729 6.16016 12.5935 6.16016 12.5132C6.16016 12.433 6.14372 12.3535 6.11191 12.2798C6.0801 12.2061 6.03359 12.1397 5.97518 12.0846C5.91677 12.0295 5.84771 11.987 5.77226 11.9596C5.69681 11.9322 5.61656 11.9205 5.53643 11.9252H2.49506C2.27586 11.9253 2.05919 11.9719 1.85941 12.0621C1.65963 12.1523 1.48133 12.284 1.33634 12.4484C1.19135 12.6128 1.08297 12.8062 1.01844 13.0157C0.953918 13.2252 0.934714 13.4461 0.962078 13.6636L2.1934 23.5149C2.24164 23.8879 2.42366 24.2306 2.70564 24.4794C2.98762 24.7282 3.35036 24.8661 3.72638 24.8674Z" fill="#DEA81E"/>
<path d="M4.06981 24.2805C4.6629 26.4663 1.85959 32.2991 2.01761 34.253L4.06981 24.2805Z" fill="white"/>
<path d="M2.0129 34.84H2.06215C2.21741 34.8274 2.36142 34.7539 2.46257 34.6354C2.56372 34.5169 2.61381 34.3632 2.6019 34.2079C2.54239 33.469 3.04724 31.8477 3.53566 30.2817C4.26419 27.9441 5.01732 25.5264 4.63561 24.1246C4.6154 24.0501 4.58074 23.9803 4.53355 23.9192C4.48636 23.8581 4.42758 23.8068 4.3606 23.7684C4.29361 23.73 4.21973 23.7052 4.14315 23.6953C4.06657 23.6855 3.9888 23.6908 3.91429 23.7111C3.83977 23.7313 3.76997 23.766 3.70887 23.8131C3.64776 23.8603 3.59651 23.9191 3.55811 23.9861C3.51971 24.0531 3.4949 24.127 3.48506 24.2036C3.47522 24.2802 3.48053 24.3579 3.50074 24.4325C3.7901 25.4997 3.02672 27.9543 2.41106 29.9266C1.84261 31.7533 1.35007 33.3315 1.42805 34.2961C1.4394 34.4437 1.50586 34.5816 1.61423 34.6823C1.72261 34.7831 1.86492 34.8394 2.0129 34.84Z" fill="#DEA81E"/>
<path d="M2.23438 36.2275C1.9573 36.1392 1.70692 36.0222 1.436 35.9114C1.16508 35.8006 0.89824 35.6671 0.641686 35.5255" fill="#DEA81E"/>
<path d="M2.23248 36.8165C2.37232 36.8153 2.50718 36.7643 2.61291 36.6728C2.71863 36.5812 2.78835 36.4551 2.80958 36.3168C2.83081 36.1786 2.80214 36.0373 2.72876 35.9183C2.65537 35.7992 2.54204 35.7102 2.40902 35.667C2.2088 35.5999 2.01216 35.5225 1.81994 35.4351L1.6619 35.3694C1.4096 35.2625 1.16301 35.1426 0.923054 35.0102C0.855322 34.9634 0.77851 34.9313 0.697616 34.916C0.616723 34.9007 0.53353 34.9025 0.453388 34.9214C0.373246 34.9402 0.297916 34.9757 0.23231 35.0254C0.166704 35.0752 0.1123 35.1381 0.0725148 35.2102C0.0327294 35.2823 0.00848293 35.3619 0.00136089 35.4439C-0.00576091 35.5259 0.00435877 35.6085 0.0311253 35.6864C0.0578918 35.7643 0.100696 35.8356 0.156747 35.8959C0.212798 35.9562 0.280884 36.0041 0.356579 36.0365C0.631297 36.1876 0.913504 36.3246 1.20216 36.447L1.35814 36.5148C1.57775 36.6071 1.80355 36.7057 2.05395 36.7837C2.11146 36.8036 2.17164 36.8146 2.23248 36.8165Z" fill="#DEA81E"/>
<path d="M3.23047 37.855C2.9575 37.816 2.67629 37.7667 2.38485 37.7072C2.0934 37.6477 1.82456 37.5573 1.53517 37.465" fill="#DEA81E"/>
<path d="M3.22551 38.4421C3.37625 38.4451 3.52237 38.39 3.63359 38.2882C3.74481 38.1864 3.81256 38.0457 3.82285 37.8952C3.83314 37.7448 3.78517 37.5962 3.68886 37.4801C3.59255 37.3641 3.45528 37.2896 3.30553 37.2721C3.04487 37.2351 2.77808 37.1879 2.51127 37.1325C2.24445 37.0771 2.01454 37.0011 1.70668 36.9047C1.56016 36.8658 1.40431 36.885 1.27154 36.9581C1.13877 37.0313 1.03931 37.1528 0.993841 37.2974C0.948372 37.442 0.960394 37.5986 1.02741 37.7346C1.09443 37.8705 1.21129 37.9754 1.35367 38.0274C1.69027 38.1342 1.96941 38.2142 2.24033 38.2779H2.26088C2.55643 38.3415 2.85399 38.3928 3.14338 38.4339C3.17051 38.4386 3.19798 38.4413 3.22551 38.4421Z" fill="#DEA81E"/>
<path d="M4.54688 39.1746C4.27801 39.2115 3.99274 39.2361 3.69719 39.2505C3.40164 39.2649 3.11634 39.2382 2.80847 39.2156" fill="#DEA81E"/>
<path d="M3.69976 39.8499H3.72642C4.03223 39.8356 4.34212 39.8089 4.62741 39.7699C4.70737 39.7638 4.78528 39.7415 4.85631 39.7042C4.92733 39.667 4.98997 39.6156 5.04045 39.5533C5.09094 39.491 5.12819 39.4191 5.14989 39.3419C5.17159 39.2647 5.17731 39.1838 5.16668 39.1044C5.15604 39.0249 5.12929 38.9484 5.08806 38.8796C5.04683 38.8108 4.99195 38.7512 4.92686 38.7043C4.86177 38.6575 4.78785 38.6244 4.70954 38.6072C4.63123 38.5899 4.55017 38.5889 4.47142 38.604C4.21692 38.6389 3.95219 38.6615 3.68538 38.6738C3.41856 38.6861 3.13532 38.6615 2.8644 38.6409C2.70899 38.6287 2.55508 38.6787 2.43653 38.7799C2.31798 38.8812 2.24449 39.0254 2.23224 39.1808C2.21999 39.3362 2.27001 39.4901 2.37124 39.6087C2.47247 39.7272 2.61665 39.8007 2.77205 39.813C3.08813 39.8376 3.40211 39.852 3.70793 39.852L3.69976 39.8499Z" fill="#DEA81E"/>
<path d="M6.17578 40.0344C5.65888 40.2998 5.10558 40.4872 4.53384 40.5907L6.17578 40.0344Z" fill="#DEA81E"/>
<path d="M4.5247 41.1798C4.56159 41.1829 4.59866 41.1829 4.63554 41.1798C5.26598 41.0648 5.87599 40.8573 6.44581 40.564C6.51788 40.5303 6.58235 40.4823 6.63537 40.423C6.68838 40.3637 6.72884 40.2942 6.75428 40.2188C6.77971 40.1434 6.78958 40.0636 6.78334 39.9843C6.7771 39.905 6.75486 39.8277 6.71795 39.7572C6.68104 39.6867 6.63027 39.6244 6.56862 39.5741C6.50698 39.5238 6.43578 39.4865 6.35932 39.4645C6.28287 39.4424 6.20273 39.4361 6.12376 39.4459C6.0448 39.4556 5.96865 39.4813 5.89988 39.5213C5.43307 39.7598 4.93381 39.9286 4.41802 40.0222C4.27205 40.0467 4.14072 40.1255 4.05038 40.2428C3.96004 40.3601 3.91732 40.5072 3.93082 40.6546C3.94432 40.802 4.01301 40.9389 4.12314 41.0378C4.23327 41.1367 4.3767 41.1904 4.5247 41.188V41.1798Z" fill="#DEA81E"/>
<path d="M7.98438 40.3463C7.57205 40.7584 7.10356 41.1101 6.59283 41.3911L7.98438 40.3463Z" fill="#DEA81E"/>
<path d="M6.59971 41.9783C6.69798 41.9783 6.79471 41.9536 6.88091 41.9064C7.44266 41.6006 7.95701 41.2148 8.40792 40.7611C8.49617 40.6471 8.53957 40.5048 8.52993 40.361C8.52029 40.2172 8.45827 40.0819 8.3556 39.9807C8.25294 39.8796 8.11675 39.8196 7.97283 39.8121C7.8289 39.8046 7.68723 39.8501 7.57461 39.94C7.20375 40.3138 6.78063 40.6319 6.3185 40.8843C6.20299 40.9462 6.11158 41.0451 6.05879 41.1651C6.006 41.2851 5.99492 41.4193 6.02727 41.5464C6.05962 41.6734 6.13352 41.786 6.23727 41.8661C6.34102 41.9463 6.46862 41.9894 6.59971 41.9886V41.9783Z" fill="#DEA81E"/>
<path d="M9.83594 40.1124C9.69637 40.3526 9.54038 40.5866 9.37003 40.8308C9.19968 41.0751 9.00675 41.2844 8.79945 41.5143" fill="#DEA81E"/>
<path d="M8.79836 42.1077C8.8816 42.1063 8.96358 42.0873 9.03893 42.0519C9.11429 42.0165 9.18133 41.9656 9.23556 41.9024C9.48185 41.6274 9.67476 41.3975 9.84101 41.1779C9.84368 41.172 9.84714 41.1664 9.85128 41.1615C10.0565 40.8638 10.2125 40.6298 10.3438 40.4C10.4217 40.2639 10.4423 40.1024 10.4011 39.9511C10.3599 39.7998 10.2603 39.6711 10.1242 39.5933C9.98814 39.5154 9.82672 39.4948 9.67545 39.536C9.52419 39.5772 9.39547 39.6768 9.31763 39.8129C9.20475 40.0182 9.07132 40.2234 8.88455 40.478C8.74293 40.6668 8.57467 40.87 8.353 41.1143C8.27687 41.1989 8.22686 41.3037 8.20904 41.4161C8.19122 41.5285 8.20634 41.6437 8.25259 41.7477C8.29883 41.8517 8.3742 41.9401 8.46961 42.0021C8.56501 42.0642 8.67633 42.0973 8.79015 42.0974L8.79836 42.1077Z" fill="#DEA81E"/>
<path d="M11.5977 39.4147C11.4248 39.9709 11.1987 40.5091 10.9224 41.0218L11.5977 39.4147Z" fill="#DEA81E"/>
<path d="M10.922 41.6089C11.0276 41.6089 11.1313 41.5804 11.2223 41.5267C11.3133 41.4729 11.3882 41.3957 11.4392 41.3031C11.7334 40.7568 11.9747 40.1836 12.1596 39.5913C12.1869 39.5165 12.1987 39.4369 12.1945 39.3574C12.1902 39.2779 12.1698 39.2001 12.1346 39.1287C12.0994 39.0573 12.0501 38.9937 11.9897 38.9419C11.9292 38.8901 11.8589 38.851 11.783 38.8272C11.707 38.8033 11.627 38.7951 11.5478 38.803C11.4686 38.8109 11.3918 38.8348 11.322 38.8732C11.2523 38.9116 11.1911 38.9637 11.1421 39.0265C11.0931 39.0892 11.0573 39.1612 11.0369 39.2382C10.8758 39.7578 10.664 40.2604 10.4047 40.7386C10.3303 40.8758 10.3133 41.037 10.3575 41.1867C10.4018 41.3364 10.5037 41.4625 10.6408 41.5371C10.7268 41.5848 10.8236 41.6095 10.922 41.6089Z" fill="#DEA81E"/>
<path d="M13.2109 38.366C13.1719 38.6431 13.1247 38.9243 13.0693 39.2137C13.0139 39.5031 12.938 39.7802 12.8641 40.0717" fill="#DEA81E"/>
<path d="M12.8536 40.6711C12.9826 40.6708 13.108 40.6284 13.2107 40.5502C13.3133 40.472 13.3876 40.3623 13.4221 40.238V40.2031C13.5042 39.9116 13.5801 39.6345 13.6376 39.3369C13.6951 39.0392 13.7423 38.7437 13.7833 38.4583C13.7976 38.3802 13.796 38.2999 13.7785 38.2223C13.761 38.1448 13.7279 38.0716 13.6814 38.0072C13.6348 37.9427 13.5757 37.8884 13.5076 37.8474C13.4395 37.8064 13.3638 37.7796 13.285 37.7687C13.2063 37.7577 13.1262 37.7628 13.0495 37.7837C12.9728 37.8045 12.9011 37.8407 12.8387 37.89C12.7764 37.9392 12.7246 38.0006 12.6866 38.0705C12.6486 38.1403 12.6251 38.2171 12.6175 38.2962C12.5806 38.561 12.5354 38.8381 12.4821 39.1172C12.4287 39.3964 12.363 39.6242 12.2891 39.8952L12.2789 39.9301C12.2583 40.0045 12.2526 40.0822 12.2621 40.1588C12.2716 40.2354 12.2962 40.3094 12.3343 40.3765C12.3724 40.4436 12.4234 40.5025 12.4844 40.5499C12.5453 40.5973 12.6149 40.6322 12.6894 40.6526C12.743 40.6663 12.7982 40.6725 12.8536 40.6711Z" fill="#DEA81E"/>
<path d="M14.6361 37.0482C14.6514 37.6307 14.6279 38.2135 14.5656 38.7929L14.6361 37.0482Z" fill="#DEA81E"/>
<path d="M14.5636 39.3821C14.7098 39.3823 14.8507 39.3279 14.9589 39.2295C15.0671 39.1312 15.1347 38.9961 15.1485 38.8505C15.2125 38.2452 15.2372 37.6363 15.2224 37.0278C15.2236 36.948 15.2087 36.8688 15.1784 36.795C15.1481 36.7212 15.1032 36.6543 15.0463 36.5984C14.9894 36.5424 14.9217 36.4987 14.8474 36.4697C14.7731 36.4407 14.6936 36.4271 14.6139 36.4298C14.5341 36.4324 14.4558 36.4512 14.3835 36.4851C14.3113 36.5189 14.2467 36.5671 14.1936 36.6267C14.1405 36.6862 14.1001 36.756 14.0748 36.8316C14.0495 36.9073 14.0398 36.9873 14.0464 37.0668C14.0601 37.6246 14.0375 38.1827 13.9786 38.7376C13.9637 38.8927 14.0109 39.0474 14.1097 39.1678C14.2086 39.2882 14.3511 39.3645 14.5061 39.3801L14.5636 39.3821Z" fill="#DEA81E"/>
<path d="M15.873 35.5398C15.961 36.1143 16.0151 36.6934 16.0352 37.2742L15.873 35.5398Z" fill="#DEA81E"/>
<path d="M16.0403 37.8613C16.1962 37.8581 16.3445 37.7932 16.4526 37.6808C16.5607 37.5685 16.6198 37.4179 16.6171 37.262C16.5962 36.6578 16.54 36.0554 16.4488 35.4577C16.4214 35.3084 16.3374 35.1754 16.2144 35.0864C16.0913 34.9975 15.9386 34.9596 15.7882 34.9805C15.6378 35.0014 15.5014 35.0796 15.4072 35.1987C15.3131 35.3179 15.2686 35.4687 15.283 35.6199C15.3667 36.172 15.4188 36.7285 15.439 37.2866C15.4433 37.4423 15.5089 37.59 15.6215 37.6977C15.7341 37.8053 15.8846 37.8641 16.0403 37.8613Z" fill="#DEA81E"/>
<path d="M16.9273 33.8754C17.0808 34.4379 17.2055 35.0079 17.3008 35.5831L16.9273 33.8754Z" fill="#DEA81E"/>
<path d="M17.2987 36.1702C17.3335 36.1733 17.3685 36.1733 17.4033 36.1702C17.5569 36.1417 17.6929 36.0537 17.7818 35.9252C17.8706 35.7968 17.905 35.6384 17.8774 35.4846C17.7687 34.8894 17.6578 34.3065 17.4916 33.7215C17.4465 33.5739 17.3454 33.45 17.2099 33.3762C17.0744 33.3024 16.9155 33.2847 16.7671 33.3269C16.6187 33.3691 16.4928 33.4679 16.4165 33.6019C16.3401 33.7359 16.3193 33.8946 16.3587 34.0437C16.5066 34.5847 16.6271 35.1327 16.7199 35.6858C16.7444 35.8215 16.8157 35.9444 16.9215 36.0329C17.0273 36.1214 17.1607 36.17 17.2987 36.1702Z" fill="#DEA81E"/>
<path d="M12.8737 25.0133L14.0188 28.2766C14.1023 28.5274 14.2626 28.7456 14.477 28.9003C14.6913 29.055 14.9489 29.1383 15.2132 29.1386H15.2933C15.4749 29.1387 15.6532 29.187 15.81 29.2786C15.9669 29.3702 16.0966 29.5017 16.186 29.6599L21.2344 38.6164C21.3625 38.844 21.5359 39.0429 21.7438 39.201C21.9517 39.3591 22.1897 39.473 22.4433 39.5357C22.6968 39.5983 22.9605 39.6085 23.2181 39.5654C23.4757 39.5224 23.7218 39.4271 23.9412 39.2855L25.1192 38.524C25.536 38.2566 25.833 37.838 25.9478 37.3562C26.0626 36.8744 25.9863 36.3668 25.7348 35.9401L22.5498 30.5691C22.4412 30.3858 22.387 30.1753 22.3936 29.9624C22.4001 29.7494 22.4671 29.5427 22.5868 29.3664L23.1101 28.5885C23.2787 28.3387 23.3432 28.033 23.2899 27.7363C23.2367 27.4397 23.0698 27.1755 22.8248 27L21.4006 25.9738C21.3582 25.9433 21.3228 25.904 21.2967 25.8588C21.2706 25.8135 21.2544 25.7632 21.2492 25.7113C21.244 25.6593 21.2498 25.6068 21.2663 25.5572C21.2829 25.5077 21.3098 25.4622 21.3452 25.4238L21.7269 25.0133" fill="white"/>
<path d="M22.9018 40.1801C23.3843 40.18 23.8567 40.0411 24.2624 39.7799L25.4424 39.0184C25.9877 38.6684 26.3755 38.12 26.5237 37.4891C26.6719 36.8583 26.569 36.1945 26.2366 35.6382L23.0536 30.2692C23.0022 30.1815 22.9764 30.0812 22.9793 29.9795C22.9822 29.8779 23.0137 29.7792 23.0701 29.6946L23.5954 28.9188C23.8514 28.5422 23.9497 28.0804 23.8691 27.6322C23.7885 27.1841 23.5356 26.7854 23.1644 26.5216L21.9331 25.6453L22.1383 25.4113C22.1953 25.3553 22.2403 25.2883 22.2706 25.2144C22.3009 25.1405 22.3158 25.0612 22.3145 24.9814C22.3131 24.9015 22.2956 24.8227 22.2629 24.7499C22.2302 24.677 22.183 24.6116 22.1242 24.5575C22.0654 24.5035 21.9962 24.4619 21.9209 24.4354C21.8456 24.4089 21.7656 24.3981 21.6859 24.4034C21.6063 24.4088 21.5285 24.4303 21.4574 24.4667C21.3863 24.5031 21.3233 24.5535 21.2723 24.615L20.8886 25.0254C20.797 25.1252 20.7277 25.2432 20.6852 25.3717C20.6427 25.5002 20.6279 25.6362 20.6419 25.7709C20.6559 25.9055 20.6982 26.0356 20.7662 26.1527C20.8342 26.2697 20.9263 26.371 21.0363 26.4498L22.4606 27.4759C22.5816 27.562 22.6642 27.6919 22.6907 27.8381C22.7171 27.9842 22.6853 28.1349 22.6021 28.2579L22.0768 29.0337C21.896 29.3031 21.795 29.6181 21.7855 29.9424C21.7761 30.2667 21.8586 30.587 22.0234 30.8665L25.2064 36.2375C25.3837 36.5307 25.44 36.8814 25.3634 37.2154C25.2868 37.5494 25.0833 37.8405 24.796 38.0272L23.6159 38.7886C23.4642 38.8869 23.294 38.9532 23.1156 38.9832C22.9373 39.0132 22.7548 39.0064 22.5792 38.9631C22.4037 38.9198 22.2388 38.841 22.0949 38.7316C21.9509 38.6222 21.8309 38.4844 21.7423 38.3268L16.6918 29.3682C16.5515 29.1193 16.3476 28.9122 16.101 28.7679C15.8543 28.6237 15.5738 28.5475 15.2881 28.5473H15.2081C15.0675 28.547 14.9306 28.5027 14.8165 28.4206C14.7024 28.3385 14.6169 28.2228 14.5719 28.0896L13.4227 24.8058C13.3659 24.6653 13.2573 24.5521 13.1192 24.4896C12.9811 24.4272 12.8243 24.4204 12.6813 24.4706C12.5384 24.5208 12.4203 24.6242 12.3516 24.7592C12.2829 24.8943 12.2689 25.0506 12.3124 25.1958L13.4596 28.459C13.5832 28.8249 13.8183 29.1429 14.1319 29.3682C14.4455 29.5935 14.8219 29.7148 15.2081 29.7151H15.2881C15.3652 29.715 15.4408 29.7352 15.5075 29.7738C15.5742 29.8124 15.6295 29.8679 15.6678 29.9347L20.7162 38.8932C20.884 39.1904 21.1107 39.4502 21.3824 39.6567C21.6541 39.8632 21.9651 40.0119 22.2964 40.0939C22.4938 40.1476 22.6972 40.1766 22.9018 40.1801Z" fill="#DEA81E"/>
<path d="M5.53167 11.2417H23.5664V25.0131H5.53167V11.2417Z" fill="#4550E5"/>
<path d="M5.53069 25.6022H23.5634C23.7194 25.6017 23.8689 25.5395 23.9792 25.4291C24.0896 25.3188 24.1518 25.1693 24.1523 25.0132V11.2398C24.1518 11.0839 24.0895 10.9346 23.9791 10.8246C23.8687 10.7146 23.7192 10.6528 23.5634 10.6528H5.53069C5.37483 10.6528 5.22533 10.7146 5.11493 10.8246C5.00454 10.9346 4.94222 11.0839 4.94168 11.2398V25.0132C4.94222 25.1693 5.00445 25.3188 5.11478 25.4291C5.22512 25.5395 5.37465 25.6017 5.53069 25.6022ZM22.9744 24.4242H6.11964V11.8288H22.9744V24.4242Z" fill="#DEA81E"/>
<path d="M53.4141 0.590088V35.4577L50.6703 34.4972V1.56907L53.4141 0.590088Z" fill="white"/>
<path d="M53.411 36.0447C53.5669 36.0447 53.7164 35.983 53.8268 35.8729C53.9372 35.7629 53.9995 35.6136 54 35.4577V0.588068C53.9998 0.493855 53.9771 0.401044 53.9337 0.317442C53.8902 0.23384 53.8274 0.16188 53.7504 0.107596C53.6734 0.0533122 53.5845 0.018298 53.4912 0.00547887C53.3978 -0.00734029 53.3028 0.00241286 53.214 0.0339269L50.4702 1.01291C50.3561 1.0539 50.2574 1.12911 50.1876 1.22829C50.1178 1.32747 50.0804 1.44576 50.0803 1.56704V34.4973C50.0805 34.6193 50.1185 34.7383 50.1891 34.8379C50.2596 34.9374 50.3593 35.0128 50.4743 35.0534L53.2161 36.0119C53.2787 36.0339 53.3446 36.045 53.411 36.0447ZM52.822 1.42338V34.6286L51.2562 34.0806V1.98162L52.822 1.42338Z" fill="#DEA81E"/>
<path d="M23.5664 11.2419L50.6719 1.56909V34.4972L23.5664 25.0133V11.2419Z" fill="white"/>
<path d="M50.6688 35.0862C50.825 35.0862 50.9749 35.0241 51.0853 34.9136C51.1958 34.8032 51.2578 34.6534 51.2578 34.4972V1.56695C51.2577 1.47273 51.2349 1.37994 51.1915 1.29633C51.148 1.21273 51.0852 1.14077 51.0082 1.08649C50.9312 1.0322 50.8423 0.997177 50.749 0.984358C50.6556 0.971539 50.5606 0.981305 50.4718 1.01282L23.3664 10.6856C23.252 10.7265 23.1531 10.8016 23.0829 10.9008C23.0128 10.9999 22.9749 11.1183 22.9744 11.2397V25.0132C22.9746 25.1352 23.0126 25.2542 23.0832 25.3538C23.1537 25.4534 23.2534 25.5287 23.3684 25.5694L50.4759 35.0533C50.5381 35.0745 50.6032 35.0856 50.6688 35.0862ZM50.0819 2.40226V33.668L24.1524 24.5965V11.6543L50.0819 2.40226Z" fill="#DEA81E"/>
<path d="M9.31724 25.6021C9.47345 25.6021 9.62324 25.5401 9.7337 25.4296C9.84415 25.3192 9.90625 25.1693 9.90625 25.0131V11.2397C9.89739 11.0898 9.83156 10.9489 9.72227 10.8458C9.61298 10.7428 9.46849 10.6854 9.31829 10.6854C9.1681 10.6854 9.02356 10.7428 8.91426 10.8458C8.80497 10.9489 8.7392 11.0898 8.73034 11.2397V25.0131C8.73034 25.169 8.79208 25.3185 8.90209 25.4289C9.0121 25.5393 9.16139 25.6016 9.31724 25.6021Z" fill="#DEA81E"/>
</svg>
