<svg width="78" height="70" viewBox="0 0 78 70" fill="none" xmlns="http://www.w3.org/2000/svg">
<path d="M73.9036 35.0044C73.9042 29.7808 72.7382 24.6233 70.491 19.9101C68.2439 15.1969 64.9725 11.0476 60.9169 7.76646C56.8613 4.48531 52.1243 2.15554 47.0533 0.94801C41.9823 -0.259518 36.7059 -0.314178 31.611 0.788037C26.5162 1.89025 21.7321 4.12139 17.6097 7.31783C13.4873 10.5143 10.1311 14.5949 7.78715 19.2605C5.44324 23.9262 4.17109 29.0584 4.06401 34.2809C3.95693 39.5034 5.01763 44.6837 7.16832 49.4419H70.7919C72.8461 44.9074 73.9071 39.9844 73.9036 35.0044Z" fill="#C7F0FF"/>
<path d="M7.16797 49.4417C9.93801 55.5701 14.4118 60.7685 20.0537 64.4146C25.6957 68.0606 32.2666 69.9997 38.9797 69.9997C45.6929 69.9997 52.2638 68.0606 57.9058 64.4146C63.5477 60.7685 68.0215 55.5701 70.7915 49.4417H7.16797Z" fill="#CCF7AD"/>
<path d="M4.92969 49.4417H73.0304" stroke="#45413C" stroke-linecap="round" stroke-linejoin="round"/>
<path d="M1 49.4417H3.18272" stroke="#45413C" stroke-linecap="round" stroke-linejoin="round"/>
<path d="M74.7754 49.4417H76.9581" stroke="#45413C" stroke-linecap="round" stroke-linejoin="round"/>
<path d="M58.7704 55.2939H45.5195V16.7834L57.5489 22.8122C57.916 22.9957 58.2248 23.2781 58.4407 23.6277C58.6566 23.9773 58.7711 24.3803 58.7712 24.7914L58.7704 55.2939Z" fill="#E8F4FA"/>
<path d="M49.3828 43.0107H54.6833V48.3229H49.3828V43.0107Z" fill="#00B8F0"/>
<path d="M49.6386 48.0665C49.4749 47.9024 49.3829 47.6799 49.3828 47.4479V43.8857C49.3828 43.6537 49.4748 43.4311 49.6385 43.267C49.8023 43.1029 50.0243 43.0107 50.2559 43.0107H53.8094C54.0409 43.0108 54.2629 43.103 54.4266 43.2671L49.6386 48.0665Z" fill="#4ACFFF"/>
<path d="M49.3828 43.0107H54.6833V48.3229H49.3828V43.0107Z" stroke="#45413C" stroke-linecap="round" stroke-linejoin="round"/>
<path d="M45.5184 55.294H25.6426V10.144C25.6428 9.7919 25.7825 9.45428 26.0311 9.20538C26.2796 8.95647 26.6166 8.81665 26.9679 8.81665H44.193C44.3671 8.81654 44.5394 8.85079 44.7002 8.91744C44.861 8.9841 45.0071 9.08185 45.1302 9.20512C45.2532 9.32839 45.3509 9.47476 45.4175 9.63586C45.4841 9.79696 45.5184 9.96964 45.5184 10.144V55.294Z" fill="#E8F4FA"/>
<path d="M28.293 31.3914H33.5935V36.7035H28.293V31.3914Z" fill="#00B8F0"/>
<path d="M28.5488 36.4471C28.4676 36.3658 28.4032 36.2692 28.3593 36.1629C28.3154 36.0566 28.2929 35.9427 28.293 35.8276V32.2664C28.293 32.0343 28.385 31.8117 28.5487 31.6476C28.7124 31.4835 28.9345 31.3914 29.1661 31.3914H32.7195C32.9511 31.3914 33.1731 31.4836 33.3368 31.6477L28.5488 36.4471Z" fill="#4ACFFF"/>
<path d="M28.293 31.3914H33.5935V36.7035H28.293V31.3914Z" stroke="#45413C" stroke-linecap="round" stroke-linejoin="round"/>
<path d="M37.5684 31.3914H42.8689V36.7035H37.5684V31.3914Z" fill="#00B8F0"/>
<path d="M37.8242 36.4471C37.743 36.3658 37.6786 36.2692 37.6347 36.1629C37.5908 36.0566 37.5683 35.9427 37.5684 35.8276V32.2664C37.5684 32.0343 37.6603 31.8117 37.8241 31.6476C37.9878 31.4835 38.2099 31.3914 38.4414 31.3914H41.9958C42.2273 31.3914 42.4494 31.4836 42.6131 31.6477L37.8242 36.4471Z" fill="#4ACFFF"/>
<path d="M37.5684 31.3914H42.8689V36.7035H37.5684V31.3914Z" stroke="#45413C" stroke-linecap="round" stroke-linejoin="round"/>
<path d="M28.293 22.0676H33.5935V27.3797H28.293V22.0676Z" fill="#00B8F0"/>
<path d="M28.5488 27.1225C28.385 26.9584 28.293 26.7359 28.293 26.5039V22.9426C28.293 22.7106 28.385 22.488 28.5487 22.3239C28.7124 22.1598 28.9345 22.0676 29.1661 22.0676H32.7195C32.9511 22.0677 33.1731 22.1599 33.3368 22.324L28.5488 27.1225Z" fill="#4ACFFF"/>
<path d="M28.293 22.0676H33.5935V27.3797H28.293V22.0676Z" stroke="#45413C" stroke-linecap="round" stroke-linejoin="round"/>
<path d="M37.5684 22.0676H42.8689V27.3797H37.5684V22.0676Z" fill="#00B8F0"/>
<path d="M37.8242 27.1225C37.6604 26.9584 37.5684 26.7359 37.5684 26.5039V22.9426C37.5684 22.7106 37.6603 22.488 37.8241 22.3239C37.9878 22.1598 38.2099 22.0676 38.4414 22.0676H41.9958C42.2273 22.0677 42.4494 22.1599 42.6131 22.324L37.8242 27.1225Z" fill="#4ACFFF"/>
<path d="M37.5684 22.0676H42.8689V27.3797H37.5684V22.0676Z" stroke="#45413C" stroke-linecap="round" stroke-linejoin="round"/>
<path d="M28.293 12.8003H33.5935V18.1124H28.293V12.8003Z" fill="#00B8F0"/>
<path d="M28.5488 17.8542C28.385 17.6901 28.293 17.4676 28.293 17.2356V13.6743C28.293 13.4423 28.385 13.2197 28.5487 13.0556C28.7124 12.8915 28.9345 12.7993 29.1661 12.7993H32.7195C32.9509 12.7991 33.1729 12.891 33.3368 13.0548L28.5488 17.8542Z" fill="#4ACFFF"/>
<path d="M28.293 12.8003H33.5935V18.1124H28.293V12.8003Z" stroke="#45413C" stroke-linecap="round" stroke-linejoin="round"/>
<path d="M37.5684 12.8003H42.8689V18.1124H37.5684V12.8003Z" fill="#00B8F0"/>
<path d="M37.8242 17.8542C37.6604 17.6901 37.5684 17.4676 37.5684 17.2356V13.6743C37.5684 13.4423 37.6603 13.2197 37.8241 13.0556C37.9878 12.8915 38.2099 12.7993 38.4414 12.7993H41.9958C42.2272 12.7991 42.4492 12.891 42.6131 13.0548L37.8242 17.8542Z" fill="#4ACFFF"/>
<path d="M37.5684 12.8003H42.8689V18.1124H37.5684V12.8003Z" stroke="#45413C" stroke-linecap="round" stroke-linejoin="round"/>
<path d="M28.293 40.6865H33.5935V45.9986H28.293V40.6865Z" fill="#00B8F0"/>
<path d="M28.5488 45.7423C28.385 45.5782 28.293 45.3557 28.293 45.1236V41.5615C28.293 41.3295 28.385 41.1069 28.5487 40.9428C28.7124 40.7787 28.9345 40.6865 29.1661 40.6865H32.7195C32.9511 40.6866 33.1731 40.7788 33.3368 40.9429L28.5488 45.7423Z" fill="#4ACFFF"/>
<path d="M28.293 40.6865H33.5935V45.9986H28.293V40.6865Z" stroke="#45413C" stroke-linecap="round" stroke-linejoin="round"/>
<path d="M37.5684 40.6865H42.8689V45.9986H37.5684V40.6865Z" fill="#00B8F0"/>
<path d="M37.8242 45.7423C37.6604 45.5782 37.5684 45.3557 37.5684 45.1236V41.5615C37.5684 41.3295 37.6603 41.1069 37.8241 40.9428C37.9878 40.7787 38.2099 40.6865 38.4414 40.6865H41.9958C42.2273 40.6866 42.4494 40.7788 42.6131 40.9429L37.8242 45.7423Z" fill="#4ACFFF"/>
<path d="M37.5684 40.6865H42.8689V45.9986H37.5684V40.6865Z" stroke="#45413C" stroke-linecap="round" stroke-linejoin="round"/>
<path d="M48.1693 18.1117L45.5195 16.7834V55.2939H48.1693V18.1117Z" fill="#DAEDF7"/>
<path d="M58.7704 55.2939H45.5195V16.7834L57.5489 22.8122C57.916 22.9957 58.2248 23.2781 58.4407 23.6277C58.6566 23.9773 58.7711 24.3803 58.7712 24.7914L58.7704 55.2939Z" stroke="#45413C" stroke-linecap="round" stroke-linejoin="round"/>
<path d="M56.3398 22.2064V16.1199" stroke="#45413C" stroke-linecap="round" stroke-linejoin="round"/>
<path d="M44.193 8.81665H26.9679C26.6166 8.81665 26.2796 8.95647 26.0311 9.20538C25.7825 9.45428 25.6428 9.7919 25.6426 10.144V12.8005C25.6426 12.4483 25.7822 12.1104 26.0308 11.8613C26.2793 11.6122 26.6164 11.4723 26.9679 11.4723H44.193C44.5445 11.4723 44.8817 11.6122 45.1302 11.8613C45.3788 12.1104 45.5184 12.4483 45.5184 12.8005V10.144C45.5182 9.7919 45.3784 9.45428 45.1299 9.20538C44.8814 8.95647 44.5444 8.81665 44.193 8.81665Z" fill="white"/>
<path d="M45.5184 55.294H25.6426V10.144C25.6428 9.7919 25.7825 9.45428 26.0311 9.20538C26.2796 8.95647 26.6166 8.81665 26.9679 8.81665H44.193C44.3671 8.81654 44.5394 8.85079 44.7002 8.91744C44.861 8.9841 45.0071 9.08185 45.1302 9.20512C45.2532 9.32839 45.3509 9.47476 45.4175 9.63586C45.4841 9.79696 45.5184 9.96964 45.5184 10.144V55.294Z" stroke="#45413C" stroke-linecap="round" stroke-linejoin="round"/>
<path d="M28.1836 8.81627V3.50415" stroke="#45413C" stroke-linecap="round" stroke-linejoin="round"/>
<path d="M30.9434 8.81672V5.49609" stroke="#45413C" stroke-linecap="round" stroke-linejoin="round"/>
<path d="M29.618 55.2938H17.6934V23.1455C17.6934 22.867 17.8037 22.5999 18.0002 22.403C18.1967 22.2061 18.4632 22.0955 18.7411 22.0955H28.5703C28.7079 22.0955 28.8441 22.1226 28.9712 22.1754C29.0983 22.2282 29.2138 22.3055 29.3111 22.403C29.4084 22.5005 29.4856 22.6162 29.5382 22.7436C29.5909 22.871 29.618 23.0076 29.618 23.1455V55.2938Z" fill="#E8F4FA" stroke="#45413C" stroke-linecap="round" stroke-linejoin="round"/>
<path d="M17.6934 25.9692H29.6188V29.842H17.6934V25.9692Z" fill="#00B8F0"/>
<path d="M17.6934 25.9692V29.842H21.2128L25.1879 25.9692H17.6934Z" fill="#4ACFFF"/>
<path d="M17.6934 25.9692H29.6188V29.842H17.6934V25.9692Z" stroke="#45413C" stroke-linecap="round" stroke-linejoin="round"/>
<path d="M17.6934 34.0471H29.6188V38.031H17.6934V34.0471Z" fill="#00B8F0"/>
<path d="M17.6934 34.0471V38.031H21.2128L25.1879 34.0471H17.6934Z" fill="#4ACFFF"/>
<path d="M17.6934 34.0471H29.6188V38.031H17.6934V34.0471Z" stroke="#45413C" stroke-linecap="round" stroke-linejoin="round"/>
<path d="M17.6934 42.0149H29.6188V45.9988H17.6934V42.0149Z" fill="#00B8F0"/>
<path d="M17.6934 42.0149V45.9988H21.2128L25.1879 42.0149H17.6934Z" fill="#4ACFFF"/>
<path d="M17.6934 42.0149H29.6188V45.9988H17.6934V42.0149Z" stroke="#45413C" stroke-linecap="round" stroke-linejoin="round"/>
<path d="M32.5547 57.2146H33.6583" stroke="#45413C" stroke-linecap="round" stroke-linejoin="round"/>
<path d="M49.3828 24.8623H54.6833V30.1744H49.3828V24.8623Z" fill="#00B8F0"/>
<path d="M49.6386 29.9181C49.5574 29.8367 49.4931 29.7401 49.4492 29.6338C49.4053 29.5275 49.3827 29.4136 49.3828 29.2986V25.7373C49.3828 25.5052 49.4748 25.2827 49.6385 25.1186C49.8023 24.9545 50.0243 24.8623 50.2559 24.8623H53.8094C54.0409 24.8624 54.2629 24.9546 54.4266 25.1187L49.6386 29.9181Z" fill="#4ACFFF"/>
<path d="M49.3828 24.8623H54.6833V30.1744H49.3828V24.8623Z" stroke="#45413C" stroke-linecap="round" stroke-linejoin="round"/>
<path d="M49.3828 33.936H54.6833V39.2482H49.3828V33.936Z" fill="#00B8F0"/>
<path d="M49.6386 38.9918C49.4749 38.8277 49.3829 38.6052 49.3828 38.3732V34.811C49.3828 34.579 49.4748 34.3564 49.6385 34.1923C49.8023 34.0282 50.0243 33.936 50.2559 33.936H53.8094C54.0409 33.9361 54.2629 34.0283 54.4266 34.1924L49.6386 38.9918Z" fill="#4ACFFF"/>
<path d="M49.3828 33.936H54.6833V39.2482H49.3828V33.936Z" stroke="#45413C" stroke-linecap="round" stroke-linejoin="round"/>
<path d="M40.5589 43.9346C40.146 39.8011 39.5985 30.9321 43.0429 30.9321C43.7019 30.9321 44.3339 31.1945 44.7999 31.6615C45.2659 32.1285 45.5277 32.7619 45.5277 33.4224V34.2519C45.5277 40.3384 48.1618 46.7014 53.2571 46.7014L53.2615 59.4274H52.6101C49.426 59.4274 47.9182 61.6411 42.2152 61.6411H32.5536C32.2599 61.647 31.9679 61.594 31.6949 61.4854C31.4218 61.3768 31.1731 61.2148 30.9633 61.0086C30.7536 60.8025 30.5869 60.5566 30.4731 60.2851C30.3594 60.0137 30.3008 59.7222 30.3008 59.4278C30.3008 59.1334 30.3594 58.8419 30.4731 58.5705C30.5869 58.299 30.7536 58.0531 30.9633 57.847C31.1731 57.6409 31.4218 57.4788 31.6949 57.3702C31.9679 57.2616 32.2599 57.2086 32.5536 57.2145H31.4491C30.871 57.203 30.3205 56.9647 29.9157 56.5509C29.5109 56.1371 29.2841 55.5807 29.2841 55.0012C29.2841 54.4217 29.5109 53.8653 29.9157 53.4515C30.3205 53.0376 30.871 52.7994 31.4491 52.7879H30.3447C29.7666 52.7763 29.216 52.5381 28.8112 52.1243C28.4064 51.7105 28.1797 51.1541 28.1797 50.5746C28.1797 49.9951 28.4064 49.4387 28.8112 49.0248C29.216 48.611 29.7666 48.3728 30.3447 48.3612H29.2411C28.9474 48.3671 28.6555 48.3142 28.3824 48.2056C28.1093 48.097 27.8606 47.9349 27.6509 47.7288C27.4411 47.5227 27.2744 47.2767 27.1607 47.0053C27.0469 46.7338 26.9883 46.4424 26.9883 46.1479C26.9883 45.8535 27.0469 45.5621 27.1607 45.2906C27.2744 45.0192 27.4411 44.7732 27.6509 44.5671C27.8606 44.361 28.1093 44.1989 28.3824 44.0903C28.6555 43.9817 28.9474 43.9288 29.2411 43.9346H40.5589Z" fill="#FFCEBF"/>
<path d="M51.1144 48.9842C46.0182 48.9842 43.385 42.6213 43.385 36.5348V35.7044C43.3849 35.3774 43.3205 35.0536 43.1955 34.7515C43.0705 34.4494 42.8874 34.1749 42.6566 33.9438C42.4258 33.7126 42.1518 33.5293 41.8503 33.4042C41.5488 33.2792 41.2256 33.2149 40.8993 33.215C40.8722 33.215 40.8504 33.2264 40.8242 33.2273C41.2442 31.8509 41.9348 30.9321 43.0384 30.9321C43.365 30.9317 43.6885 30.9957 43.9903 31.1207C44.2922 31.2456 44.5665 31.429 44.7976 31.6603C45.0288 31.8916 45.2121 32.1662 45.3372 32.4686C45.4623 32.771 45.5267 33.0951 45.5267 33.4224V34.2519C45.5267 40.3384 48.1608 46.7014 53.2561 46.7014V48.9842H51.1144Z" fill="#FFDCD1"/>
<path d="M29.2402 43.9346H42.2142C42.2142 44.5217 41.9815 45.0848 41.5672 45.4999C41.153 45.9151 40.5912 46.1483 40.0053 46.1483H27.0312C27.0312 45.5612 27.264 44.9981 27.6782 44.583C28.0925 44.1678 28.6543 43.9346 29.2402 43.9346Z" fill="#FFDCD1"/>
<path d="M42.7666 43.9346H40.5586" stroke="#45413C" stroke-linecap="round" stroke-linejoin="round"/>
<path d="M31.4492 52.7878H32.5537" stroke="#45413C" stroke-linecap="round" stroke-linejoin="round"/>
<path d="M30.3438 48.3613H31.4482" stroke="#45413C" stroke-linecap="round" stroke-linejoin="round"/>
<path d="M56.5703 44.4888H64.2997V61.6414H56.5703V44.4888Z" fill="#009FD9"/>
<path d="M56.5703 45.3638C56.5703 45.1317 56.6623 44.9091 56.826 44.7451C56.9898 44.581 57.2118 44.4888 57.4434 44.4888H63.4267C63.6582 44.4888 63.8803 44.581 64.044 44.7451C64.2078 44.9091 64.2997 45.1317 64.2997 45.3638V47.2546H56.5703V45.3638Z" fill="#00B8F0"/>
<path d="M56.5703 44.4888H64.2997V61.6414H56.5703V44.4888Z" stroke="#45413C" stroke-linecap="round" stroke-linejoin="round"/>
<path d="M56.5703 60.5342H54.1309C53.8993 60.5342 53.6773 60.442 53.5135 60.2779C53.3498 60.1138 53.2578 59.8912 53.2578 59.6592V46.4668C53.2578 46.2347 53.3498 46.0122 53.5135 45.8481C53.6773 45.684 53.8993 45.5918 54.1309 45.5918H56.5703V60.5342Z" fill="white" stroke="#45413C" stroke-linecap="round" stroke-linejoin="round"/>
<path d="M40.5589 43.9346C40.146 39.8011 39.5985 30.9321 43.0429 30.9321C43.7019 30.9321 44.3339 31.1945 44.7999 31.6615C45.2659 32.1285 45.5277 32.7619 45.5277 33.4224V34.2519C45.5277 40.3384 48.1618 46.7014 53.2571 46.7014L53.2615 59.4274H52.6101C49.426 59.4274 47.9182 61.6411 42.2152 61.6411H32.5536C32.2599 61.647 31.9679 61.594 31.6949 61.4854C31.4218 61.3768 31.1731 61.2148 30.9633 61.0086C30.7536 60.8025 30.5869 60.5566 30.4731 60.2851C30.3594 60.0137 30.3008 59.7222 30.3008 59.4278C30.3008 59.1334 30.3594 58.8419 30.4731 58.5705C30.5869 58.299 30.7536 58.0531 30.9633 57.847C31.1731 57.6409 31.4218 57.4788 31.6949 57.3702C31.9679 57.2616 32.2599 57.2086 32.5536 57.2145H31.4491C30.871 57.203 30.3205 56.9647 29.9157 56.5509C29.5109 56.1371 29.2841 55.5807 29.2841 55.0012C29.2841 54.4217 29.5109 53.8653 29.9157 53.4515C30.3205 53.0376 30.871 52.7994 31.4491 52.7879H30.3447C29.7666 52.7763 29.216 52.5381 28.8112 52.1243C28.4064 51.7105 28.1797 51.1541 28.1797 50.5746C28.1797 49.9951 28.4064 49.4387 28.8112 49.0248C29.216 48.611 29.7666 48.3728 30.3447 48.3612H29.2411C28.9474 48.3671 28.6555 48.3142 28.3824 48.2056C28.1093 48.097 27.8606 47.9349 27.6509 47.7288C27.4411 47.5227 27.2744 47.2767 27.1607 47.0053C27.0469 46.7338 26.9883 46.4424 26.9883 46.1479C26.9883 45.8535 27.0469 45.5621 27.1607 45.2906C27.2744 45.0192 27.4411 44.7732 27.6509 44.5671C27.8606 44.361 28.1093 44.1989 28.3824 44.0903C28.6555 43.9817 28.9474 43.9288 29.2411 43.9346H40.5589Z" stroke="#45413C" stroke-linecap="round" stroke-linejoin="round"/>
</svg>
