<svg fill="none" height="54" viewBox="0 0 58 54" width="58" xmlns="http://www.w3.org/2000/svg"><path d="m32 54c14.3594 0 26-11.6406 26-26s-11.6406-26-26-26-26 11.6406-26 26 11.6406 26 26 26z" fill="#efc73f"/><path d="m5.52734 24.2806h-1.80183c-.23324.0003-.45856-.0846-.63355-.2389-.17499-.1542-.28756-.367-.31659-.5985l-1.24159-9.8513c-.01687-.1348-.00491-.2717.03512-.4015s.1072-.2496.19705-.3515.20033-.1835.32412-.2395c.12378-.0559.25801-.0849.39385-.085h3.04137" fill="#fff"/><path d="m3.72638 24.8674h1.79978c.15621 0 .306-.062.41645-.1725.11046-.1104.1725-.2603.1725-.4165s-.06204-.306-.1725-.4165c-.11045-.1105-.26024-.1725-.41645-.1725h-1.79978c-.08996.0002-.17692-.0324-.24455-.0917s-.11131-.1413-.1228-.2305l-1.23132-9.8514c-.00614-.0519-.00128-.1044.01428-.1543s.04146-.0959.07601-.1351c.03439-.0396.07697-.0713.1248-.0929s.09978-.0326.15226-.0323h3.04137c.08013.0048.16038-.0069.23583-.0343s.14451-.07.20292-.125c.05841-.0551.10492-.1216.13673-.1953s.04825-.1531.04825-.2334c0-.0802-.01644-.1597-.04825-.2334s-.07832-.1401-.13673-.1952-.12747-.0976-.20292-.125-.1557-.0391-.23583-.0344h-3.04137c-.2192.0001-.43587.0467-.63565.1369s-.37808.2219-.52307.3863-.25337.3578-.3179.5673c-.064522.2095-.083726.4304-.056362.6479l1.231322 9.8513c.04824.373.23026.7157.51224.9645s.64472.3867 1.02074.388z" fill="#dea81e"/><path d="m4.06981 24.2805c.59309 2.1858-2.21022 8.0186-2.0522 9.9725z" fill="#fff"/><g fill="#dea81e"><path d="m2.0129 34.84h.04925c.15526-.0126.29927-.0861.40042-.2046s.15124-.2722.13933-.4275c-.05951-.7389.44534-2.3602.93376-3.9262.72853-2.3376 1.48166-4.7553 1.09995-6.1571-.02021-.0745-.05487-.1443-.10206-.2054s-.10597-.1124-.17295-.1508c-.06699-.0384-.14087-.0632-.21745-.0731-.07658-.0098-.15435-.0045-.22886.0158-.07452.0202-.14432.0549-.20542.102-.06111.0472-.11236.106-.15076.173s-.06321.1409-.07305.2175-.00453.1543.01568.2289c.28936 1.0672-.47402 3.5218-1.08968 5.4941-.56845 1.8267-1.06099 3.4049-.98301 4.3695.01135.1476.07781.2855.18618.3862.10838.1008.25069.1571.39867.1577z"/><path d="m2.23438 36.2275c-.27708-.0883-.52746-.2053-.79838-.3161s-.53776-.2443-.794314-.3859"/><path d="m2.23248 36.8165c.13984-.0012.2747-.0522.38043-.1437.10572-.0916.17544-.2177.19667-.356.02123-.1382-.00744-.2795-.08082-.3985-.07339-.1191-.18672-.2081-.31974-.2513-.20022-.0671-.39686-.1445-.58908-.2319l-.15804-.0657c-.2523-.1069-.49889-.2268-.738846-.3592-.067732-.0468-.144544-.0789-.225438-.0942-.080893-.0153-.164086-.0135-.244228.0054-.080142.0188-.155472.0543-.221078.104-.065606.0498-.12001.1127-.1597952.1848-.0397854.0721-.06403187.1517-.07115391.2337-.0071218.082.00299788.1646.02976441.2425.0267665.0779.0695707.1492.1256217.2095s.124137.1082.199832.1406c.274718.1511.556925.2881.845581.4105l.15598.0678c.21961.0923.44541.1909.69581.2689.05751.0199.11769.0309.17853.0328z"/><path d="m3.23047 37.855c-.27297-.039-.55418-.0883-.84562-.1478-.29145-.0595-.56029-.1499-.84968-.2422"/><path d="m3.22551 38.4421c.15074.003.29686-.0521.40808-.1539s.17897-.2425.18926-.393c.01029-.1504-.03768-.299-.13399-.4151-.09631-.116-.23358-.1905-.38333-.208-.26066-.037-.52745-.0842-.79426-.1396-.26682-.0554-.49673-.1314-.80459-.2278-.14652-.0389-.30237-.0197-.43514.0534-.13277.0732-.23223.1947-.277699.3393s-.033447.3012.033569.4372c.06702.1359.18388.2408.32626.2928.3366.1068.61574.1868.88666.2505h.02055c.29555.0636.59311.1149.8825.156.02713.0047.0546.0074.08213.0082z"/><path d="m4.54688 39.1746c-.26887.0369-.55414.0615-.84969.0759s-.58085-.0123-.88872-.0349"/><path d="m3.69976 39.8499h.02666c.30581-.0143.6157-.041.90099-.08.07996-.0061.15787-.0284.2289-.0657.07102-.0372.13366-.0886.18414-.1509.05049-.0623.08774-.1342.10944-.2114s.02742-.1581.01679-.2375c-.01064-.0795-.03739-.156-.07862-.2248s-.09611-.1284-.1612-.1753c-.06509-.0468-.13901-.0799-.21732-.0971-.07831-.0173-.15937-.0183-.23812-.0032-.2545.0349-.51923.0575-.78604.0698-.26682.0123-.55006-.0123-.82098-.0329-.15541-.0122-.30932.0378-.42787.139-.11855.1013-.19204.2455-.20429.4009s.03777.3093.139.4279c.10123.1185.24541.192.40081.2043.31608.0246.63006.039.93588.039z"/><path d="m6.17578 40.0344c-.5169.2654-1.0702.4528-1.64194.5563z"/><path d="m4.5247 41.1798c.03689.0031.07396.0031.11084 0 .63044-.115 1.24045-.3225 1.81027-.6158.07207-.0337.13654-.0817.18956-.141.05301-.0593.09347-.1288.11891-.2042.02543-.0754.0353-.1552.02906-.2345s-.02848-.1566-.06539-.2271-.08768-.1328-.14933-.1831c-.06164-.0503-.13284-.0876-.2093-.1096-.07645-.0221-.15659-.0284-.23556-.0186-.07896.0097-.15511.0354-.22388.0754-.46681.2385-.96607.4073-1.48186.5009-.14597.0245-.2773.1033-.36764.2206s-.13306.2644-.11956.4118.08219.2843.19232.3832.25356.1526.40156.1502z"/><path d="m7.98438 40.3463c-.41233.4121-.88082.7638-1.39155 1.0448z"/><path d="m6.59971 41.9783c.09827 0 .195-.0247.2812-.0719.56175-.3058 1.0761-.6916 1.52701-1.1453.08825-.114.13165-.2563.12201-.4001s-.07166-.2791-.17433-.3803c-.10266-.1011-.23885-.1611-.38277-.1686-.14393-.0075-.2856.038-.39822.1279-.37086.3738-.79398.6919-1.25611.9443-.11551.0619-.20692.1608-.25971.2808s-.06387.2542-.03152.3813c.03235.127.10625.2396.21.3197.10375.0802.23135.1233.36244.1225z"/><path d="m9.83594 40.1124c-.13957.2402-.29556.4742-.46591.7184-.17035.2443-.36328.4536-.57058.6835"/><path d="m8.79836 42.1077c.08324-.0014.16522-.0204.24057-.0558.07536-.0354.1424-.0863.19663-.1495.24629-.275.4392-.5049.60545-.7245.00267-.0059.00613-.0115.01027-.0164.20522-.2977.36122-.5317.49252-.7615.0779-.1361.0985-.2976.0573-.4489s-.1408-.28-.2769-.3578c-.13606-.0779-.29748-.0985-.44875-.0573-.15126.0412-.27998.1408-.35782.2769-.11288.2053-.24631.4105-.43308.6651-.14162.1888-.30988.392-.53155.6363-.07613.0846-.12614.1894-.14396.3018s-.0027.2276.04355.3316c.04624.104.12161.1924.21702.2544.0954.0621.20672.0952.32054.0953z"/><path d="m11.5977 39.4147c-.1729.5562-.399 1.0944-.6753 1.6071z"/><path d="m10.922 41.6089c.1056 0 .2093-.0285.3003-.0822.091-.0538.1659-.131.2169-.2236.2942-.5463.5355-1.1195.7204-1.7118.0273-.0748.0391-.1544.0349-.2339-.0043-.0795-.0247-.1573-.0599-.2287s-.0845-.135-.1449-.1868c-.0605-.0518-.1308-.0909-.2067-.1147-.076-.0239-.156-.0321-.2352-.0242s-.156.0318-.2258.0702c-.0697.0384-.1309.0905-.1799.1533-.049.0627-.0848.1347-.1052.2117-.1611.5196-.3729 1.0222-.6322 1.5004-.0744.1372-.0914.2984-.0472.4481.0443.1497.1462.2758.2833.3504.086.0477.1828.0724.2812.0718z"/><path d="m13.2109 38.366c-.039.2771-.0862.5583-.1416.8477s-.1313.5665-.2052.858"/><path d="m12.8536 40.6711c.129-.0003.2544-.0427.3571-.1209.1026-.0782.1769-.1879.2114-.3122v-.0349c.0821-.2915.158-.5686.2155-.8662.0575-.2977.1047-.5932.1457-.8786.0143-.0781.0127-.1584-.0048-.236-.0175-.0775-.0506-.1507-.0971-.2151-.0466-.0645-.1057-.1188-.1738-.1598s-.1438-.0678-.2226-.0787c-.0787-.011-.1588-.0059-.2355.015-.0767.0208-.1484.057-.2108.1063-.0623.0492-.1141.1106-.1521.1805-.038.0698-.0615.1466-.0691.2257-.0369.2648-.0821.5419-.1354.821-.0534.2792-.1191.507-.193.778l-.0102.0349c-.0206.0744-.0263.1521-.0168.2287s.0341.1506.0722.2177.0891.126.1501.1734c.0609.0474.1305.0823.205.1027.0536.0137.1088.0199.1642.0185z"/><path d="m14.6361 37.0482c.0153.5825-.0082 1.1653-.0705 1.7447z"/><path d="m14.5636 39.3821c.1462.0002.2871-.0542.3953-.1526.1082-.0983.1758-.2334.1896-.379.064-.6053.0887-1.2142.0739-1.8227.0012-.0798-.0137-.159-.044-.2328s-.0752-.1407-.1321-.1966c-.0569-.056-.1246-.0997-.1989-.1287s-.1538-.0426-.2335-.0399c-.0798.0026-.1581.0214-.2304.0553-.0722.0338-.1368.082-.1899.1416-.0531.0595-.0935.1293-.1188.2049-.0253.0757-.035.1557-.0284.2352.0137.5578-.0089 1.1159-.0678 1.6708-.0149.1551.0323.3098.1311.4302.0989.1204.2414.1967.3964.2123z"/><path d="m15.873 35.5398c.088.5745.1421 1.1536.1622 1.7344z"/><path d="m16.0403 37.8613c.1559-.0032.3042-.0681.4123-.1805.1081-.1123.1672-.2629.1645-.4188-.0209-.6042-.0771-1.2066-.1683-1.8043-.0274-.1493-.1114-.2823-.2344-.3713-.1231-.0889-.2758-.1268-.4262-.1059s-.2868.0991-.381.2182c-.0941.1192-.1386.27-.1242.4212.0837.5521.1358 1.1086.156 1.6667.0043.1557.0699.3034.1825.4111.1126.1076.2631.1664.4188.1636z"/><path d="m16.9273 33.8754c.1535.5625.2782 1.1325.3735 1.7077z"/><path d="m17.2987 36.1702c.0348.0031.0698.0031.1046 0 .1536-.0285.2896-.1165.3785-.245.0888-.1284.1232-.2868.0956-.4406-.1087-.5952-.2196-1.1781-.3858-1.7631-.0451-.1476-.1462-.2715-.2817-.3453s-.2944-.0915-.4428-.0493-.2743.141-.3506.275c-.0764.134-.0972.2927-.0578.4418.1479.541.2684 1.089.3612 1.6421.0245.1357.0958.2586.2016.3471s.2392.1371.3772.1373z"/></g><path d="m12.8737 25.0133 1.1451 3.2633c.0835.2508.2438.469.4582.6237.2143.1547.4719.238.7362.2383h.0801c.1816.0001.3599.0484.5167.14.1569.0916.2866.2231.376.3813l5.0484 8.9565c.1281.2276.3015.4265.5094.5846s.4459.272.6995.3347c.2535.0626.5172.0728.7748.0297.2576-.043.5037-.1383.7231-.2799l1.178-.7615c.4168-.2674.7138-.686.8286-1.1678s.0385-.9894-.213-1.4161l-3.185-5.371c-.1086-.1833-.1628-.3938-.1562-.6067.0065-.213.0735-.4197.1932-.596l.5233-.7779c.1686-.2498.2331-.5555.1798-.8522-.0532-.2966-.2201-.5608-.4651-.7363l-1.4242-1.0262c-.0424-.0305-.0778-.0698-.1039-.115-.0261-.0453-.0423-.0956-.0475-.1475-.0052-.052.0006-.1045.0171-.1541.0166-.0495.0435-.095.0789-.1334l.3817-.4105" fill="#fff"/><path d="m22.9018 40.1801c.4825-.0001.9549-.139 1.3606-.4002l1.18-.7615c.5453-.35.9331-.8984 1.0813-1.5293.1482-.6308.0453-1.2946-.2871-1.8509l-3.183-5.369c-.0514-.0877-.0772-.188-.0743-.2897.0029-.1016.0344-.2003.0908-.2849l.5253-.7758c.256-.3766.3543-.8384.2737-1.2866-.0806-.4481-.3335-.8468-.7047-1.1106l-1.2313-.8763.2052-.234c.057-.056.102-.123.1323-.1969s.0452-.1532.0439-.233c-.0014-.0799-.0189-.1587-.0516-.2315-.0327-.0729-.0799-.1383-.1387-.1924-.0588-.054-.128-.0956-.2033-.1221s-.1553-.0373-.235-.032c-.0796.0054-.1574.0269-.2285.0633s-.1341.0868-.1851.1483l-.3837.4104c-.0916.0998-.1609.2178-.2034.3463s-.0573.2645-.0433.3992c.014.1346.0563.2647.1243.3818.068.117.1601.2183.2701.2971l1.4243 1.0261c.121.0861.2036.216.2301.3622.0264.1461-.0054.2968-.0886.4198l-.5253.7758c-.1808.2694-.2818.5844-.2913.9087-.0094.3243.0731.6446.2379.9241l3.183 5.371c.1773.2932.2336.6439.157.9779s-.2801.6251-.5674.8118l-1.1801.7614c-.1517.0983-.3219.1646-.5003.1946-.1783.03-.3608.0232-.5364-.0201-.1755-.0433-.3404-.1221-.4843-.2315-.144-.1094-.264-.2472-.3526-.4048l-5.0505-8.9586c-.1403-.2489-.3442-.456-.5908-.6003-.2467-.1442-.5272-.2204-.8129-.2206h-.08c-.1406-.0003-.2775-.0446-.3916-.1267s-.1996-.1978-.2446-.331l-1.1492-3.2838c-.0568-.1405-.1654-.2537-.3035-.3162-.1381-.0624-.2949-.0692-.4379-.019-.1429.0502-.261.1536-.3297.2886-.0687.1351-.0827.2914-.0392.4366l1.1472 3.2632c.1236.3659.3587.6839.6723.9092s.69.3466 1.0762.3469h.08c.0771-.0001.1527.0201.2194.0587s.122.0941.1603.1609l5.0484 8.9585c.1678.2972.3945.557.6662.7635s.5827.3552.914.4372c.1974.0537.4008.0827.6054.0862z" fill="#dea81e"/><path d="m5.53167 11.2417h18.03473v13.7714h-18.03473z" fill="#4550e5"/><path d="m5.53069 25.6022h18.03271c.156-.0005.3055-.0627.4158-.1731.1104-.1103.1726-.2598.1731-.4159v-13.7734c-.0005-.1559-.0628-.3052-.1732-.4152s-.2599-.1718-.4157-.1718h-18.03271c-.15586 0-.30536.0618-.41576.1718-.11039.11-.17271.2593-.17325.4152v13.7734c.00054.1561.06277.3056.1731.4159.11034.1104.25987.1726.41591.1731zm17.44371-1.178h-16.85476v-12.5954h16.85476z" fill="#dea81e"/><path d="m53.4141.590088v34.867612l-2.7438-.9605v-32.92813z" fill="#fff"/><path d="m53.411 36.0447c.1559 0 .3054-.0617.4158-.1718.1104-.11.1727-.2593.1732-.4152v-34.869632c-.0002-.094213-.0229-.187024-.0663-.270626-.0435-.083602-.1063-.155562-.1833-.209846-.077-.0542838-.1659-.089298-.2592-.10211713-.0934-.01281916-.1884-.00306601-.2772.02844803l-2.7438.9789831c-.1141.04099-.2128.1162-.2826.21538s-.1072.21747-.1073.33875v32.93026c.0002.122.0382.241.1088.3406.0705.0995.1702.1749.2852.2155l2.7418.9585c.0626.022.1285.0331.1949.0328zm-.589-34.62132v33.20522l-1.5658-.548v-32.09898z" fill="#dea81e"/><path d="m23.5664 11.2419 27.1055-9.67281v32.92811l-27.1055-9.4839z" fill="#fff"/><path d="m50.6688 35.0862c.1562 0 .3061-.0621.4165-.1726.1105-.1104.1725-.2602.1725-.4164v-32.93025c-.0001-.09422-.0229-.18701-.0663-.27062-.0435-.0836-.1063-.15556-.1833-.20984-.077-.05429-.1659-.089313-.2592-.102132-.0934-.012819-.1884-.003053-.2772.028462l-27.1054 9.67278c-.1144.0409-.2133.116-.2835.2152-.0701.0991-.108.2175-.1085.3389v13.7735c.0002.122.0382.241.1088.3406.0705.0996.1702.1749.2852.2156l27.1075 9.4839c.0622.0212.1273.0323.1929.0329zm-.5869-32.68394v31.26574l-25.9295-9.0715v-12.9422z" fill="#dea81e"/><path d="m9.31724 25.6021c.15621 0 .306-.062.41646-.1725.11045-.1104.17255-.2603.17255-.4165v-13.7734c-.00886-.1499-.07469-.2908-.18398-.3939-.10929-.103-.25378-.1604-.40398-.1604-.15019 0-.29473.0574-.40403.1604-.10929.1031-.17506.244-.18392.3939v13.7734c0 .1559.06174.3054.17175.4158s.2593.1727.41515.1732z" fill="#dea81e"/></svg>