<svg width="83" height="84" viewBox="0 0 83 84" fill="none" xmlns="http://www.w3.org/2000/svg">
<g clip-path="url(#clip0_2195_17341)">
<path d="M11.9805 39.97C11.9805 33.8981 13.7811 27.9626 17.1544 22.914C20.5278 17.8654 25.3224 13.9305 30.9321 11.6069C36.5418 9.28332 42.7146 8.67536 48.6698 9.85992C54.625 11.0445 60.0952 13.9684 64.3887 18.2619C68.6821 22.5553 71.6061 28.0255 72.7906 33.9808C73.9752 39.936 73.3672 46.1087 71.0436 51.7184C68.72 57.3281 64.7852 62.1228 59.7366 65.4962C54.688 68.8695 48.7524 70.67 42.6805 70.67C38.6486 70.6714 34.6558 69.8782 30.9305 68.3358C27.2053 66.7935 23.8204 64.5322 20.9694 61.6812C18.1183 58.8301 15.8571 55.4453 14.3147 51.72C12.7723 47.9947 11.9792 44.002 11.9805 39.97Z" fill="#EFC73F"/>
<path d="M56.8003 74.23L41.0903 64.62L25.5203 54.85C22.9788 59.0039 22.1855 63.9951 23.314 68.7323C24.4425 73.4694 27.4011 77.5669 31.5425 80.1287C35.684 82.6905 40.6713 83.5081 45.4139 82.4027C50.1565 81.2973 54.2683 78.3589 56.8503 74.23" fill="white"/>
<path d="M40.9802 63.41L43.8802 45.95C43.0383 45.8373 42.1897 45.7805 41.3402 45.78C38.2993 45.7805 35.3059 46.5342 32.6273 47.9738C29.9487 49.4134 27.6684 51.4941 25.9902 54.03L40.9802 63.41Z" fill="white"/>
<path d="M57.2999 73.4C58.769 70.858 59.6088 68.0015 59.7493 65.0689C59.8897 62.1363 59.3267 59.2126 58.1073 56.5418C56.8879 53.8711 55.0475 51.5307 52.7395 49.716C50.4315 47.9013 47.7229 46.6649 44.8398 46.11L41.8398 63.96L57.2999 73.4Z" fill="#4550E5"/>
<path d="M41.3305 45.8C37.6889 45.8 34.1291 46.88 31.1014 48.9034C28.0736 50.9267 25.714 53.8026 24.3209 57.1671C22.9277 60.5317 22.5638 64.2339 23.275 67.8053C23.9861 71.3768 25.7404 74.6571 28.3161 77.2314C30.8918 79.8057 34.1731 81.5583 37.7449 82.2675C41.3168 82.9767 45.0188 82.6107 48.3826 81.2158C51.7464 79.8208 54.6209 77.4596 56.6426 74.4308C58.6643 71.402 59.7424 67.8416 59.7404 64.2C59.7351 59.32 57.7935 54.6414 54.3418 51.1916C50.8902 47.7418 46.2106 45.8027 41.3305 45.8ZM41.3305 83.63C37.4876 83.63 33.7309 82.4905 30.5357 80.3555C27.3404 78.2205 24.8501 75.1859 23.3794 71.6356C21.9088 68.0852 21.524 64.1785 22.2737 60.4094C23.0234 56.6404 24.874 53.1783 27.5914 50.4609C30.3087 47.7436 33.7708 45.8931 37.5398 45.1434C41.3089 44.3937 45.2156 44.7784 48.7659 46.2491C52.3163 47.7197 55.3509 50.2101 57.4859 53.4053C59.6209 56.6005 60.7604 60.3572 60.7604 64.2C60.7551 69.3516 58.7063 74.2906 55.0636 77.9333C51.421 81.5759 46.482 83.6247 41.3305 83.63Z" fill="#DEA81E"/>
<path d="M41.3306 64.71C41.236 64.7107 41.1429 64.6866 41.0606 64.64L25.0606 54.64C24.9453 54.5696 24.8627 54.4564 24.8308 54.3252C24.799 54.1939 24.8204 54.0554 24.8905 53.94C24.9644 53.8258 25.0802 53.745 25.2129 53.7151C25.3456 53.6852 25.4847 53.7085 25.6005 53.78L41.6005 63.78C41.6939 63.8396 41.7655 63.9281 41.8042 64.0319C41.8429 64.1358 41.8467 64.2494 41.8151 64.3556C41.7834 64.4619 41.718 64.5549 41.6288 64.6207C41.5395 64.6864 41.4314 64.7213 41.3206 64.72" fill="#DEA81E"/>
<path d="M57.5209 74.59C57.4256 74.5868 57.3326 74.5593 57.2509 74.51L41.1209 64.64C41.0344 64.5864 40.9656 64.5085 40.9229 64.416C40.8802 64.3236 40.8656 64.2207 40.8809 64.12L43.9809 45.46C44.0151 45.3401 44.0922 45.2369 44.1974 45.1699C44.3026 45.1029 44.4288 45.0768 44.5519 45.0965C44.6751 45.1162 44.7867 45.1804 44.8658 45.2768C44.9448 45.3733 44.9857 45.4954 44.9809 45.62L41.9809 63.95L57.821 73.64C57.9362 73.7104 58.0187 73.8237 58.0506 73.9549C58.0824 74.0861 58.061 74.2246 57.9909 74.34C57.9449 74.4157 57.8804 74.4784 57.8034 74.5222C57.7264 74.5659 57.6395 74.5893 57.5509 74.59" fill="#DEA81E"/>
<path d="M35.7698 54.31H33.6898C33.622 54.31 33.5548 54.2965 33.4923 54.2702C33.4297 54.244 33.373 54.2055 33.3255 54.1571C33.278 54.1087 33.2407 54.0513 33.2157 53.9883C33.1906 53.9252 33.1785 53.8578 33.1798 53.79V51.68C33.203 51.5645 33.2655 51.4606 33.3567 51.3859C33.4478 51.3113 33.562 51.2705 33.6798 51.2705C33.7976 51.2705 33.9118 51.3113 34.0029 51.3859C34.0941 51.4606 34.1566 51.5645 34.1798 51.68V53.28H35.7497C35.8584 53.311 35.954 53.3766 36.0221 53.4669C36.0901 53.5571 36.1269 53.667 36.1269 53.78C36.1269 53.893 36.0901 54.0029 36.0221 54.0931C35.954 54.1834 35.8584 54.249 35.7497 54.28" fill="#DEA81E"/>
<path d="M35.7716 52.19C35.7038 52.1913 35.6364 52.1791 35.5734 52.1541C35.5103 52.129 35.453 52.0917 35.4045 52.0442C35.3561 51.9967 35.3176 51.94 35.2914 51.8775C35.2651 51.8149 35.2516 51.7478 35.2516 51.68V50.08H33.6917C33.583 50.0489 33.4874 49.9833 33.4193 49.8931C33.3513 49.8029 33.3145 49.693 33.3145 49.58C33.3145 49.467 33.3513 49.357 33.4193 49.2668C33.4874 49.1766 33.583 49.111 33.6917 49.08H35.7716C35.8394 49.0799 35.9066 49.0935 35.9691 49.1197C36.0317 49.146 36.0884 49.1844 36.1359 49.2328C36.1834 49.2813 36.2207 49.3387 36.2457 49.4017C36.2708 49.4648 36.2829 49.5322 36.2816 49.6V51.71C36.2816 51.8452 36.2278 51.9749 36.1322 52.0706C36.0366 52.1662 35.9069 52.22 35.7716 52.22" fill="#DEA81E"/>
<path d="M37.7701 53.2801H38.8302V50.08H37.7701V53.2801ZM39.3401 54.2801H37.2601C37.1923 54.2801 37.1251 54.2665 37.0626 54.2403C37.0001 54.214 36.9433 54.1756 36.8959 54.1272C36.8484 54.0787 36.811 54.0213 36.786 53.9583C36.761 53.8953 36.7488 53.8279 36.7501 53.7601V49.5701C36.7488 49.5023 36.761 49.4349 36.786 49.3718C36.811 49.3088 36.8484 49.2514 36.8959 49.2029C36.9433 49.1545 37.0001 49.1161 37.0626 49.0898C37.1251 49.0636 37.1923 49.05 37.2601 49.05H39.3401C39.4079 49.05 39.475 49.0636 39.5376 49.0898C39.6001 49.1161 39.6568 49.1545 39.7043 49.2029C39.7518 49.2514 39.7892 49.3088 39.8142 49.3718C39.8392 49.4349 39.8514 49.5023 39.8501 49.5701V53.7901C39.8514 53.8579 39.8392 53.9253 39.8142 53.9883C39.7892 54.0513 39.7518 54.1087 39.7043 54.1572C39.6568 54.2056 39.6001 54.244 39.5376 54.2703C39.475 54.2965 39.4079 54.3101 39.3401 54.3101" fill="#DEA81E"/>
<path d="M35.7706 52.1899H33.6907C33.6167 52.2048 33.5402 52.2031 33.4669 52.1848C33.3937 52.1666 33.3254 52.1323 33.267 52.0845C33.2086 52.0367 33.1615 51.9765 33.1292 51.9082C33.0968 51.84 33.0801 51.7654 33.0801 51.6899C33.0801 51.6144 33.0968 51.5399 33.1292 51.4716C33.1615 51.4034 33.2086 51.3432 33.267 51.2954C33.3254 51.2475 33.3937 51.2133 33.4669 51.195C33.5402 51.1768 33.6167 51.1751 33.6907 51.1899H35.7706C35.8446 51.1751 35.921 51.1768 35.9943 51.195C36.0675 51.2133 36.1358 51.2475 36.1942 51.2954C36.2526 51.3432 36.2997 51.4034 36.332 51.4716C36.3643 51.5399 36.3811 51.6144 36.3811 51.6899C36.3811 51.7654 36.3643 51.84 36.332 51.9082C36.2997 51.9765 36.2526 52.0367 36.1942 52.0845C36.1358 52.1323 36.0675 52.1666 35.9943 52.1848C35.921 52.2031 35.8446 52.2048 35.7706 52.1899Z" fill="#DEA81E"/>
<path d="M49.9611 59.7301H47.9611C47.8524 59.699 47.7569 59.6334 47.6888 59.5432C47.6208 59.453 47.584 59.3431 47.584 59.2301C47.584 59.1171 47.6208 59.0071 47.6888 58.9169C47.7569 58.8267 47.8524 58.7611 47.9611 58.7301H49.4211V57.2401C49.4444 57.1245 49.5069 57.0207 49.598 56.946C49.6892 56.8714 49.8033 56.8306 49.9211 56.8306C50.039 56.8306 50.1531 56.8714 50.2443 56.946C50.3354 57.0207 50.3979 57.1245 50.4211 57.2401V59.2401C50.4211 59.3753 50.3674 59.505 50.2717 59.6007C50.1761 59.6963 50.0464 59.7501 49.9111 59.7501" fill="#DEA81E"/>
<path d="M49.9614 57.72C49.8262 57.72 49.6965 57.6662 49.6008 57.5706C49.5052 57.4749 49.4515 57.3452 49.4515 57.21V55.72H47.9915C47.8759 55.6968 47.772 55.6343 47.6974 55.5431C47.6227 55.452 47.582 55.3378 47.582 55.22C47.582 55.1022 47.6227 54.988 47.6974 54.8968C47.772 54.8057 47.8759 54.7432 47.9915 54.72H49.9915C50.1267 54.72 50.2564 54.7737 50.3521 54.8694C50.4477 54.965 50.5015 55.0947 50.5015 55.23V57.23C50.5015 57.3652 50.4477 57.495 50.3521 57.5906C50.2564 57.6863 50.1267 57.74 49.9915 57.74" fill="#DEA81E"/>
<path d="M51.9116 58.7H52.8516V55.7H51.9116V58.7ZM53.3616 59.7H51.3616C51.2263 59.7 51.0966 59.6462 51.001 59.5506C50.9053 59.4549 50.8516 59.3252 50.8516 59.1899V55.1899C50.8516 55.0547 50.9053 54.925 51.001 54.8293C51.0966 54.7337 51.2263 54.6799 51.3616 54.6799H53.3616C53.4968 54.6799 53.6266 54.7337 53.7223 54.8293C53.8179 54.925 53.8716 55.0547 53.8716 55.1899V59.1899C53.8716 59.3252 53.8179 59.4549 53.7223 59.5506C53.6266 59.6462 53.4968 59.7 53.3616 59.7Z" fill="#DEA81E"/>
<path d="M49.9611 57.7199H47.9611C47.8258 57.7199 47.6961 57.6662 47.6005 57.5706C47.5048 57.4749 47.4512 57.3452 47.4512 57.2099C47.4512 57.0747 47.5048 56.9449 47.6005 56.8493C47.6961 56.7537 47.8258 56.7 47.9611 56.7H49.9611C50.0963 56.7 50.2261 56.7537 50.3218 56.8493C50.4174 56.9449 50.4711 57.0747 50.4711 57.2099C50.4711 57.3452 50.4174 57.4749 50.3218 57.5706C50.2261 57.6662 50.0963 57.7199 49.9611 57.7199Z" fill="#DEA81E"/>
<path d="M35.5199 72.36H33.3099C33.1944 72.3368 33.0905 72.2743 33.0159 72.1831C32.9412 72.092 32.9004 71.9778 32.9004 71.86C32.9004 71.7422 32.9412 71.628 33.0159 71.5368C33.0905 71.4457 33.1944 71.3832 33.3099 71.36H35.0099V69.87C35.0086 69.8022 35.0207 69.7348 35.0458 69.6717C35.0708 69.6087 35.1081 69.5513 35.1556 69.5029C35.2031 69.4544 35.2599 69.416 35.3224 69.3897C35.3849 69.3635 35.4521 69.35 35.5199 69.35C35.5877 69.35 35.6549 69.3635 35.7174 69.3897C35.7799 69.416 35.8367 69.4544 35.8842 69.5029C35.9316 69.5513 35.969 69.6087 35.994 69.6717C36.0191 69.7348 36.0312 69.8022 36.0299 69.87V71.87C36.0299 72.0052 35.9761 72.1349 35.8805 72.2306C35.7848 72.3262 35.6552 72.38 35.5199 72.38" fill="#DEA81E"/>
<path d="M37.4504 71.3401H38.4504V68.3401H37.4504V71.3401ZM38.9104 72.3401H36.9104C36.7751 72.3401 36.6454 72.2863 36.5498 72.1907C36.4542 72.095 36.4004 71.9653 36.4004 71.83V67.83C36.4004 67.6948 36.4542 67.5651 36.5498 67.4695C36.6454 67.3738 36.7751 67.3201 36.9104 67.3201H38.9104C39.0457 67.3201 39.1754 67.3738 39.271 67.4695C39.3666 67.5651 39.4204 67.6948 39.4204 67.83V71.83C39.4204 71.9653 39.3666 72.095 39.271 72.1907C39.1754 72.2863 39.0457 72.3401 38.9104 72.3401Z" fill="#DEA81E"/>
<path d="M35.5217 70.36H33.5217C33.4131 70.3289 33.3174 70.2633 33.2494 70.1731C33.1813 70.0829 33.1445 69.973 33.1445 69.86C33.1445 69.747 33.1813 69.637 33.2494 69.5468C33.3174 69.4566 33.4131 69.391 33.5217 69.36H35.5217C35.6304 69.391 35.726 69.4566 35.7941 69.5468C35.8621 69.637 35.8989 69.747 35.8989 69.86C35.8989 69.973 35.8621 70.0829 35.7941 70.1731C35.726 70.2633 35.6304 70.3289 35.5217 70.36Z" fill="#DEA81E"/>
<path d="M33.5217 70.36C33.3865 70.36 33.2568 70.3062 33.1611 70.2106C33.0655 70.115 33.0117 69.9852 33.0117 69.85V67.85C33.0117 67.7147 33.0655 67.585 33.1611 67.4893C33.2568 67.3937 33.3865 67.34 33.5217 67.34H35.5217C35.6372 67.3632 35.7411 67.4257 35.8158 67.5168C35.8904 67.608 35.9313 67.7222 35.9313 67.84C35.9313 67.9578 35.8904 68.072 35.8158 68.1631C35.7411 68.2543 35.6372 68.3167 35.5217 68.34H34.0618V69.8C34.0618 69.9352 34.008 70.0649 33.9124 70.1606C33.8167 70.2562 33.687 70.31 33.5518 70.31" fill="#DEA81E"/>
<path d="M35.5812 59.61C35.4896 59.612 35.3994 59.5877 35.3211 59.54C35.2052 59.473 35.1202 59.363 35.0847 59.2339C35.0492 59.1048 35.0658 58.9669 35.1311 58.85L37.1311 55.43C37.1987 55.312 37.3105 55.2257 37.4418 55.19C37.573 55.1544 37.7131 55.1724 37.8312 55.24C37.9492 55.3076 38.0354 55.4194 38.071 55.5507C38.1067 55.6819 38.0887 55.822 38.0211 55.94L36.0211 59.35C35.9779 59.4289 35.9142 59.4947 35.8368 59.5405C35.7593 59.5862 35.6711 59.6103 35.5812 59.61Z" fill="#DEA81E"/>
<path d="M35.2607 56.11C35.2121 56.1125 35.1663 56.1337 35.1328 56.169C35.0993 56.2044 35.0807 56.2512 35.0808 56.2999C35.0808 56.3236 35.0854 56.347 35.0944 56.3689C35.1035 56.3907 35.1167 56.4105 35.1334 56.4272C35.1501 56.4439 35.17 56.4572 35.1918 56.4663C35.2137 56.4753 35.2371 56.48 35.2607 56.48C35.2843 56.48 35.3077 56.4753 35.3295 56.4663C35.3514 56.4572 35.3713 56.4439 35.388 56.4272C35.4047 56.4105 35.4179 56.3907 35.4269 56.3689C35.436 56.347 35.4407 56.3236 35.4407 56.2999C35.4408 56.2512 35.4221 56.2044 35.3886 56.169C35.3551 56.1337 35.3093 56.1125 35.2607 56.11ZM35.2607 57.5C35.0209 57.4999 34.7867 57.4287 34.5875 57.2953C34.3883 57.1619 34.2332 56.9723 34.1419 56.7507C34.0506 56.529 34.0273 56.2852 34.0748 56.0502C34.1223 55.8152 34.2384 55.5996 34.4086 55.4308C34.5789 55.262 34.7955 55.1476 35.0308 55.102C35.2662 55.0565 35.5097 55.0818 35.7307 55.1749C35.9516 55.2681 36.1399 55.4247 36.2717 55.625C36.4034 55.8253 36.4726 56.0602 36.4707 56.2999C36.4707 56.4584 36.4393 56.6152 36.3784 56.7615C36.3174 56.9077 36.2282 57.0405 36.1157 57.1521C36.0032 57.2636 35.8697 57.3518 35.723 57.4115C35.5762 57.4712 35.4191 57.5013 35.2607 57.5Z" fill="#DEA81E"/>
<path d="M37.9016 58.12C37.866 58.12 37.8312 58.1306 37.8016 58.1504C37.772 58.1701 37.7489 58.1982 37.7353 58.2311C37.7217 58.264 37.7181 58.3002 37.7251 58.3351C37.732 58.3701 37.7491 58.4021 37.7743 58.4273C37.7994 58.4525 37.8315 58.4696 37.8664 58.4766C37.9013 58.4835 37.9375 58.48 37.9704 58.4663C38.0033 58.4527 38.0315 58.4296 38.0512 58.4C38.071 58.3704 38.0816 58.3356 38.0816 58.3C38.0816 58.2523 38.0626 58.2065 38.0289 58.1728C37.9951 58.139 37.9493 58.12 37.9016 58.12ZM37.9016 59.5C37.6614 59.502 37.4261 59.4325 37.2255 59.3003C37.025 59.1681 36.8684 58.9792 36.7756 58.7577C36.6828 58.5362 36.6581 58.2921 36.7044 58.0565C36.7508 57.8208 36.8662 57.6043 37.036 57.4345C37.2058 57.2647 37.4224 57.1492 37.658 57.1028C37.8937 57.0565 38.1377 57.0813 38.3592 57.1741C38.5807 57.2669 38.7696 57.4235 38.9018 57.6241C39.034 57.8246 39.1035 58.0599 39.1015 58.3C39.0989 58.6175 38.9716 58.9212 38.7472 59.1457C38.5227 59.3701 38.219 59.4974 37.9016 59.5Z" fill="#DEA81E"/>
<path d="M49.5212 65.1C49.4296 65.1019 49.3394 65.0776 49.2612 65.03C49.1446 64.961 49.0595 64.8493 49.024 64.7186C48.9885 64.5878 49.0055 64.4484 49.0712 64.33L51.0712 60.92C51.1045 60.8613 51.149 60.8097 51.2022 60.7683C51.2555 60.7269 51.3164 60.6965 51.3815 60.6788C51.4467 60.6612 51.5146 60.6566 51.5815 60.6653C51.6484 60.6741 51.7129 60.6961 51.7712 60.73C51.8296 60.7622 51.8809 60.8058 51.9222 60.8582C51.9635 60.9105 51.9939 60.9706 52.0116 61.0349C52.0293 61.0992 52.034 61.1664 52.0253 61.2325C52.0167 61.2987 51.9948 61.3624 51.9611 61.42L49.9611 64.84C49.918 64.9189 49.8544 64.9847 49.7769 65.0304C49.6995 65.0762 49.6111 65.1002 49.5212 65.1Z" fill="#DEA81E"/>
<path d="M49.171 61.6001C49.1232 61.6001 49.0774 61.619 49.0436 61.6528C49.0099 61.6865 48.9909 61.7323 48.9909 61.7801C48.9909 61.8278 49.0099 61.8736 49.0436 61.9073C49.0774 61.9411 49.1232 61.9601 49.171 61.9601C49.2187 61.9601 49.2644 61.9411 49.2982 61.9073C49.3319 61.8736 49.3509 61.8278 49.3509 61.7801C49.3509 61.7323 49.3319 61.6865 49.2982 61.6528C49.2644 61.619 49.2187 61.6001 49.171 61.6001ZM49.171 62.99C48.9316 62.99 48.6977 62.9191 48.4987 62.7861C48.2997 62.6532 48.1446 62.4642 48.053 62.2431C47.9615 62.022 47.9375 61.7787 47.9842 61.544C48.0309 61.3093 48.1461 61.0937 48.3154 60.9245C48.4846 60.7552 48.7002 60.64 48.9349 60.5933C49.1696 60.5466 49.4129 60.5706 49.634 60.6622C49.8551 60.7538 50.0441 60.9088 50.1771 61.1078C50.31 61.3068 50.3809 61.5407 50.3809 61.7801C50.3809 62.101 50.2535 62.4087 50.0265 62.6356C49.7996 62.8626 49.4919 62.99 49.171 62.99Z" fill="#DEA81E"/>
<path d="M51.8099 63.6C51.7612 63.6026 51.7154 63.6237 51.6819 63.6591C51.6484 63.6944 51.6297 63.7413 51.6298 63.79C51.6298 63.8378 51.6488 63.8835 51.6825 63.9173C51.7163 63.9511 51.7621 63.97 51.8099 63.97C51.8576 63.97 51.9033 63.9511 51.9371 63.9173C51.9708 63.8835 51.9898 63.8378 51.9898 63.79C51.9899 63.7413 51.9713 63.6944 51.9378 63.6591C51.9043 63.6237 51.8585 63.6026 51.8099 63.6ZM51.8099 64.99C51.5697 64.992 51.3344 64.9225 51.1338 64.7903C50.9333 64.6581 50.7767 64.4692 50.6839 64.2477C50.5911 64.0262 50.5662 63.7821 50.6126 63.5464C50.659 63.3108 50.7744 63.0943 50.9443 62.9245C51.1141 62.7546 51.3306 62.6392 51.5662 62.5928C51.8019 62.5465 52.046 62.5713 52.2675 62.6641C52.489 62.7569 52.6779 62.9135 52.8101 63.114C52.9423 63.3146 53.0118 63.5499 53.0098 63.79C53.0072 64.1075 52.8799 64.4112 52.6554 64.6357C52.431 64.8602 52.1273 64.9874 51.8099 64.99Z" fill="#DEA81E"/>
<path d="M35.2902 77.4799C35.2025 77.4769 35.1168 77.4529 35.0402 77.4099C34.9815 77.3767 34.9299 77.3322 34.8885 77.2789C34.8471 77.2257 34.8167 77.1647 34.799 77.0996C34.7814 77.0345 34.7768 76.9665 34.7856 76.8997C34.7944 76.8328 34.8163 76.7683 34.8502 76.7099L36.8502 73.2899C36.8807 73.2267 36.924 73.1705 36.9772 73.1248C37.0305 73.079 37.0927 73.0448 37.1599 73.0242C37.227 73.0036 37.2976 72.997 37.3674 73.005C37.4371 73.013 37.5045 73.0353 37.5653 73.0705C37.626 73.1057 37.6788 73.153 37.7204 73.2096C37.762 73.2662 37.7915 73.3307 37.807 73.3992C37.8225 73.4677 37.8236 73.5386 37.8104 73.6076C37.7972 73.6765 37.7699 73.742 37.7302 73.7999L35.7302 77.2199C35.6862 77.2982 35.6224 77.3634 35.5451 77.409C35.4679 77.4547 35.38 77.4791 35.2902 77.4799Z" fill="#DEA81E"/>
<path d="M34.9817 73.97C34.9339 73.97 34.8882 73.989 34.8545 74.0228C34.8207 74.0565 34.8017 74.1023 34.8017 74.15C34.8017 74.1978 34.8207 74.2436 34.8545 74.2773C34.8882 74.3111 34.9339 74.33 34.9817 74.33C35.0294 74.33 35.0752 74.3111 35.109 74.2773C35.1427 74.2436 35.1617 74.1978 35.1617 74.15C35.1617 74.1023 35.1427 74.0565 35.109 74.0228C35.0752 73.989 35.0294 73.97 34.9817 73.97ZM34.9817 75.36C34.7419 75.362 34.507 75.2927 34.3067 75.161C34.1064 75.0292 33.9498 74.841 33.8567 74.6201C33.7635 74.3991 33.7382 74.1555 33.7838 73.9202C33.8293 73.6848 33.9437 73.4683 34.1125 73.298C34.2813 73.1278 34.4969 73.0116 34.7319 72.9641C34.9669 72.9165 35.2108 72.9399 35.4325 73.0312C35.6541 73.1225 35.8436 73.2776 35.977 73.4768C36.1104 73.676 36.1817 73.9103 36.1817 74.15C36.1817 74.4692 36.0555 74.7755 35.8308 75.0021C35.606 75.2287 35.3008 75.3574 34.9817 75.36Z" fill="#DEA81E"/>
<path d="M37.6104 75.9699C37.5627 75.9699 37.517 75.9889 37.4832 76.0227C37.4495 76.0564 37.4305 76.1022 37.4305 76.1499C37.4305 76.1977 37.4495 76.2435 37.4832 76.2772C37.517 76.311 37.5627 76.3299 37.6104 76.3299C37.6581 76.3299 37.704 76.311 37.7377 76.2772C37.7715 76.2435 37.7905 76.1977 37.7905 76.1499C37.7905 76.1022 37.7715 76.0564 37.7377 76.0227C37.704 75.9889 37.6581 75.9699 37.6104 75.9699ZM37.6104 77.36C37.3711 77.36 37.1372 77.289 36.9382 77.156C36.7392 77.023 36.5841 76.8341 36.4925 76.613C36.4009 76.3919 36.377 76.1486 36.4236 75.9139C36.4703 75.6792 36.5856 75.4636 36.7548 75.2943C36.924 75.1251 37.1396 75.0099 37.3743 74.9632C37.609 74.9165 37.8524 74.9405 38.0735 75.032C38.2946 75.1236 38.4836 75.2787 38.6165 75.4777C38.7495 75.6767 38.8205 75.9106 38.8205 76.1499C38.8205 76.4708 38.6929 76.7786 38.466 77.0056C38.2391 77.2325 37.9313 77.36 37.6104 77.36Z" fill="#DEA81E"/>
<path d="M24.1208 14.43C24.0178 14.5815 23.8791 14.7054 23.7169 14.7909C23.5548 14.8763 23.3742 14.9206 23.1909 14.92C23.0114 14.9196 22.8344 14.8768 22.6746 14.7952C22.5147 14.7135 22.3764 14.5952 22.2709 14.45C21.9736 13.9571 21.8373 13.3839 21.8809 12.81C21.8237 12.1974 21.9489 11.5816 22.2408 11.04C22.3441 10.8917 22.4818 10.7706 22.642 10.687C22.8022 10.6034 22.9802 10.5598 23.1609 10.56C23.3427 10.5553 23.5228 10.5958 23.6851 10.6779C23.8474 10.7599 23.9867 10.8809 24.0908 11.03C24.3907 11.5254 24.5272 12.1027 24.4808 12.68C24.5376 13.2861 24.4123 13.8955 24.1208 14.43ZM25.0109 10.33C24.7737 10.0663 24.4815 9.85795 24.1549 9.71971C23.8283 9.58146 23.4753 9.51669 23.1208 9.52998C22.7537 9.51065 22.3876 9.58494 22.057 9.74586C21.7264 9.90678 21.4421 10.1491 21.2308 10.45C20.7891 11.1566 20.5633 11.9768 20.5811 12.8099C20.5988 13.643 20.8595 14.4528 21.3309 15.14C21.5604 15.4005 21.8439 15.608 22.1616 15.7479C22.4794 15.8877 22.8238 15.9567 23.1709 15.95C23.524 15.9513 23.8731 15.876 24.1942 15.7292C24.5153 15.5825 24.8008 15.3678 25.0309 15.1C25.5256 14.4031 25.7914 13.5696 25.7914 12.715C25.7914 11.8603 25.5256 11.0269 25.0309 10.33" fill="#DEA81E"/>
<path d="M23.2203 20.97L29.4104 9.67999C29.4654 9.56023 29.5546 9.45934 29.6666 9.38997C29.7787 9.3206 29.9087 9.28583 30.0404 9.28999H30.3904C30.4361 9.28691 30.4819 9.29647 30.5226 9.31763C30.5633 9.33879 30.5973 9.37074 30.6211 9.40997C30.6448 9.44921 30.6573 9.49421 30.6572 9.54007C30.6571 9.58593 30.6443 9.63088 30.6204 9.66998L24.4504 20.97C24.4001 21.0932 24.3119 21.1973 24.1987 21.2674C24.0855 21.3375 23.9532 21.3699 23.8204 21.36H23.4504C23.4047 21.3631 23.3589 21.3535 23.3182 21.3323C23.2776 21.3112 23.2435 21.2792 23.2197 21.24C23.196 21.2008 23.1835 21.1558 23.1836 21.1099C23.1837 21.064 23.1964 21.0191 23.2203 20.98" fill="#DEA81E"/>
<path d="M31.7909 19.6199C31.6845 19.7698 31.5435 19.8917 31.3798 19.9753C31.2161 20.0589 31.0346 20.1016 30.8509 20.1C30.6707 20.1029 30.4927 20.0616 30.3323 19.9797C30.1719 19.8977 30.0341 19.7776 29.9309 19.6299C29.62 19.1348 29.4763 18.5529 29.5209 17.9699C29.4562 17.357 29.5819 16.7389 29.8809 16.1999C29.9835 16.051 30.1211 15.9295 30.2814 15.8458C30.4417 15.7622 30.6201 15.719 30.8009 15.7199C30.9823 15.7179 31.1614 15.7595 31.3233 15.8413C31.4851 15.9232 31.6249 16.0427 31.7309 16.1899C32.0327 16.6846 32.1693 17.2625 32.1209 17.8399C32.1772 18.4493 32.052 19.0617 31.7609 19.6L31.7909 19.6199ZM32.6509 15.4999C32.4125 15.2371 32.1204 15.0287 31.7942 14.8889C31.4681 14.7491 31.1156 14.6813 30.7609 14.6899C30.3925 14.6717 30.0254 14.7464 29.6934 14.9072C29.3614 15.0679 29.075 15.3096 28.8609 15.6099C28.4147 16.2621 28.1903 17.0404 28.2209 17.8299C28.155 18.7163 28.4185 19.5958 28.9608 20.2999C29.1952 20.5594 29.4815 20.7667 29.8011 20.9087C30.1206 21.0506 30.4663 21.124 30.8159 21.124C31.1656 21.124 31.5113 21.0506 31.8308 20.9087C32.1504 20.7667 32.4365 20.5594 32.6709 20.2999C33.1657 19.6031 33.4314 18.7696 33.4314 17.915C33.4314 17.0603 33.1657 16.2268 32.6709 15.5299" fill="#DEA81E"/>
<path d="M17.4218 31.79C17.4218 33.79 13.6317 35.34 8.97168 35.34C4.31168 35.34 0.511719 33.75 0.511719 31.79V34.54C0.511719 36.54 4.30168 38.09 8.97168 38.09C13.6417 38.09 17.4218 36.5 17.4218 34.54V31.79Z" fill="#4550E5"/>
<path d="M1.02171 33.6999V34.5399C1.02171 35.9799 4.29171 37.5399 9.02171 37.5399C13.7517 37.5399 16.9616 35.9399 16.9616 34.5399V33.6999C15.4716 34.9899 12.5117 35.8499 9.02171 35.8499C5.53171 35.8499 2.56171 34.9899 1.02171 33.6999ZM9.02171 38.5999C4.02171 38.5999 0.0217066 36.8199 0.0217066 34.5399V31.7899C0.0068295 31.7159 0.0085995 31.6395 0.0268336 31.5663C0.0450677 31.493 0.0793392 31.4247 0.127175 31.3663C0.175012 31.3079 0.235213 31.2608 0.303445 31.2285C0.371677 31.1962 0.44621 31.1794 0.521707 31.1794C0.597203 31.1794 0.671736 31.1962 0.739968 31.2285C0.8082 31.2608 0.868402 31.3079 0.916238 31.3663C0.964074 31.4247 0.998346 31.493 1.01658 31.5663C1.03481 31.6395 1.03658 31.7159 1.02171 31.7899C1.02171 33.2199 4.29171 34.7899 9.02171 34.7899C13.7517 34.7899 16.9616 33.1799 16.9616 31.7899C16.9849 31.6744 17.0474 31.5705 17.1385 31.4959C17.2297 31.4212 17.3438 31.3804 17.4616 31.3804C17.5795 31.3804 17.6937 31.4212 17.7849 31.4959C17.876 31.5705 17.9384 31.6744 17.9616 31.7899V34.5399C17.9616 36.8199 14.0216 38.5999 8.96165 38.5999" fill="#DEA81E"/>
<path d="M17.4215 29.04C17.4215 31.04 13.6414 32.59 8.97144 32.59C4.30144 32.59 0.521484 30.97 0.521484 29.04V31.8C0.521484 33.8 4.30144 35.35 8.97144 35.35C13.6414 35.35 17.4215 33.76 17.4215 31.8V29.04Z" fill="white"/>
<path d="M1.03076 30.97V31.81C1.03076 33.24 4.2907 34.81 8.9707 34.81C13.6507 34.81 16.9108 33.21 16.9108 31.81V30.97C15.4308 32.25 12.4607 33.11 8.9707 33.11C5.4807 33.11 2.52076 32.25 1.03076 30.97ZM8.9707 35.87C3.9707 35.87 -0.0292969 34.08 -0.0292969 31.81V29.05C-0.00608055 28.9345 0.0564354 28.8306 0.147583 28.7559C0.238731 28.6813 0.352887 28.6405 0.470703 28.6405C0.588519 28.6405 0.702798 28.6813 0.793945 28.7559C0.885093 28.8306 0.947487 28.9345 0.970703 29.05C0.970703 30.49 4.23077 32.05 8.91077 32.05C13.5908 32.05 16.8507 30.45 16.8507 29.05C16.8817 28.9413 16.9474 28.8457 17.0376 28.7777C17.1278 28.7096 17.2377 28.6728 17.3507 28.6728C17.4637 28.6728 17.5737 28.7096 17.6639 28.7777C17.7542 28.8457 17.8197 28.9413 17.8507 29.05V31.81C17.8507 34.08 13.9107 35.87 8.85071 35.87" fill="#DEA81E"/>
<path d="M0.521484 18.49V20.72C0.521484 22.72 4.30144 24.27 8.97144 24.27C13.6414 24.27 17.4315 22.68 17.4315 20.72V18.49H0.521484Z" fill="white"/>
<path d="M8.9707 24.7801C3.9707 24.7801 -0.0292969 23.0001 -0.0292969 20.7201V18.4901C-0.00608055 18.3746 0.0564354 18.2706 0.147583 18.196C0.238731 18.1213 0.352887 18.0806 0.470703 18.0806C0.588519 18.0806 0.702798 18.1213 0.793945 18.196C0.885093 18.2706 0.947487 18.3746 0.970703 18.4901V20.7201C0.970703 22.1601 4.23077 23.7201 8.91077 23.7201C13.5908 23.7201 16.8507 22.1201 16.8507 20.7201V18.4901C16.8817 18.3814 16.9474 18.2858 17.0376 18.2178C17.1278 18.1497 17.2377 18.1129 17.3507 18.1129C17.4637 18.1129 17.5737 18.1497 17.6639 18.2178C17.7542 18.2858 17.8197 18.3814 17.8507 18.4901V20.7201C17.8507 23.0001 13.9107 24.7801 8.85071 24.7801" fill="#DEA81E"/>
<path d="M17.4215 20.75C17.4215 22.75 13.6414 24.3 8.97144 24.3C4.30144 24.3 0.521484 22.71 0.521484 20.75V23.5C0.521484 25.5 4.30144 27.05 8.97144 27.05C13.6414 27.05 17.4215 25.46 17.4215 23.5V20.75Z" fill="#4550E5"/>
<path d="M1.03076 22.66V23.5C1.03076 24.94 4.2907 26.5 8.9707 26.5C13.6507 26.5 16.9108 24.9 16.9108 23.5V22.66C15.4308 23.95 12.4607 24.81 8.9707 24.81C5.4807 24.81 2.52076 23.95 1.03076 22.66ZM8.9707 27.56C3.9707 27.56 -0.0292969 25.78 -0.0292969 23.5V20.75C-0.00608055 20.6344 0.0564354 20.5306 0.147583 20.4559C0.238731 20.3813 0.352887 20.3405 0.470703 20.3405C0.588519 20.3405 0.702798 20.3813 0.793945 20.4559C0.885093 20.5306 0.947487 20.6344 0.970703 20.75C0.970703 22.19 4.23077 23.75 8.91077 23.75C13.5908 23.75 16.8507 22.15 16.8507 20.75C16.8817 20.6413 16.9474 20.5457 17.0376 20.4776C17.1278 20.4096 17.2377 20.3728 17.3507 20.3728C17.4637 20.3728 17.5737 20.4096 17.6639 20.4776C17.7542 20.5457 17.8197 20.6413 17.8507 20.75V23.5C17.8507 25.78 13.9107 27.56 8.85071 27.56" fill="#DEA81E"/>
<path d="M17.4215 23.53C17.4215 25.53 13.6414 27.08 8.97144 27.08C4.30144 27.08 0.521484 25.49 0.521484 23.53V26.28C0.521484 28.28 4.30144 29.83 8.97144 29.83C13.6414 29.83 17.4215 28.24 17.4215 26.28V23.53Z" fill="white"/>
<path d="M1.03076 25.44V26.28C1.03076 27.72 4.2907 29.28 8.9707 29.28C13.6507 29.28 16.9108 27.68 16.9108 26.28V25.44C15.4308 26.73 12.4607 27.59 8.9707 27.59C5.4807 27.59 2.52076 26.73 1.03076 25.44ZM8.9707 30.35C3.9707 30.35 -0.0292969 28.56 -0.0292969 26.28V23.53C-0.00608055 23.4145 0.0564354 23.3106 0.147583 23.2359C0.238731 23.1613 0.352887 23.1205 0.470703 23.1205C0.588519 23.1205 0.702798 23.1613 0.793945 23.2359C0.885093 23.3106 0.947487 23.4145 0.970703 23.53C0.970703 24.97 4.23077 26.53 8.91077 26.53C13.5908 26.53 16.8507 24.93 16.8507 23.53C16.8817 23.4213 16.9474 23.3257 17.0376 23.2577C17.1278 23.1896 17.2377 23.1528 17.3507 23.1528C17.4637 23.1528 17.5737 23.1896 17.6639 23.2577C17.7542 23.3257 17.8197 23.4213 17.8507 23.53V26.28C17.8507 28.56 13.9107 30.35 8.85071 30.35" fill="#DEA81E"/>
<path d="M17.4215 26.3101C17.4215 28.3101 13.6414 29.8601 8.97144 29.8601C4.30144 29.8601 0.521484 28.2701 0.521484 26.3101V29.0601C0.521484 31.0601 4.30144 32.6101 8.97144 32.6101C13.6414 32.6101 17.4215 31.0201 17.4215 29.0601V26.3101Z" fill="#4550E5"/>
<path d="M1.03076 28.22V29.06C1.03076 30.5 4.2907 32.06 8.9707 32.06C13.6507 32.06 16.9108 30.46 16.9108 29.06V28.22C15.4308 29.51 12.4607 30.37 8.9707 30.37C5.4807 30.37 2.52076 29.51 1.03076 28.22ZM8.9707 33.13C3.9707 33.13 -0.0292969 31.34 -0.0292969 29.06V26.31C-0.00608055 26.1945 0.0564354 26.0906 0.147583 26.016C0.238731 25.9413 0.352887 25.9005 0.470703 25.9005C0.588519 25.9005 0.702798 25.9413 0.793945 26.016C0.885093 26.0906 0.947487 26.1945 0.970703 26.31C0.970703 27.75 4.23077 29.31 8.91077 29.31C13.5908 29.31 16.8507 27.71 16.8507 26.31C16.8817 26.2014 16.9474 26.1058 17.0376 26.0377C17.1278 25.9697 17.2377 25.9328 17.3507 25.9328C17.4637 25.9328 17.5737 25.9697 17.6639 26.0377C17.7542 26.1058 17.8197 26.2014 17.8507 26.31V29.06C17.8507 31.34 13.9107 33.13 8.85071 33.13" fill="#DEA81E"/>
<path d="M17.4215 18.3199C17.4215 20.1799 13.6414 21.6899 8.97144 21.6899C4.30144 21.6899 0.521484 20.1799 0.521484 18.3199C0.521484 16.4599 4.30144 14.9399 8.97144 14.9399C13.6414 14.9399 17.4215 16.4499 17.4215 18.3199Z" fill="#4550E5"/>
<path d="M8.9707 15.45C4.2907 15.45 1.03076 16.9601 1.03076 18.3201C1.03076 19.6801 4.2907 21.1801 8.9707 21.1801C13.6507 21.1801 16.9108 19.6701 16.9108 18.3201C16.9108 16.9701 13.6507 15.45 8.9707 15.45ZM8.9707 22.2C3.8607 22.2 -0.0292969 20.5301 -0.0292969 18.3201C-0.0292969 16.1101 3.8207 14.4301 8.9707 14.4301C14.1207 14.4301 17.9707 16.1001 17.9707 18.3201C17.9707 20.5401 14.1107 22.2 8.9707 22.2Z" fill="#DEA81E"/>
<path d="M18.7715 26.62V28.86C18.7715 30.86 22.5514 32.41 27.2214 32.41C31.8914 32.41 35.6815 30.82 35.6815 28.86V26.62H18.7715Z" fill="white"/>
<path d="M27.2207 32.97C22.2207 32.97 18.2207 31.18 18.2207 28.91V26.67C18.2439 26.5545 18.3064 26.4506 18.3976 26.3759C18.4887 26.3013 18.6029 26.2605 18.7207 26.2605C18.8385 26.2605 18.9528 26.3013 19.0439 26.3759C19.1351 26.4506 19.1975 26.5545 19.2207 26.67V28.91C19.2207 30.34 22.4808 31.91 27.1608 31.91C31.8408 31.91 35.1007 30.31 35.1007 28.91V26.67C35.1317 26.5613 35.1974 26.4657 35.2876 26.3977C35.3778 26.3296 35.4877 26.2928 35.6007 26.2928C35.7137 26.2928 35.8237 26.3296 35.9139 26.3977C36.0042 26.4657 36.0697 26.5613 36.1007 26.67V28.91C36.1007 31.18 32.1607 32.97 27.1007 32.97" fill="#DEA81E"/>
<path d="M35.6815 28.88C35.6815 30.88 31.8914 32.43 27.2214 32.43C22.5514 32.43 18.7715 30.84 18.7715 28.88V31.64C18.7715 33.64 22.5514 35.19 27.2214 35.19C31.8914 35.19 35.6815 33.6 35.6815 31.64V28.88Z" fill="#4550E5"/>
<path d="M19.2808 30.8V31.64C19.2808 33.07 22.5407 34.64 27.2207 34.64C31.9007 34.64 35.1608 33.03 35.1608 31.64V30.8C33.6808 32.08 30.7107 32.94 27.2207 32.94C23.7307 32.94 20.7708 32.08 19.2808 30.8ZM27.2207 35.7C22.2207 35.7 18.2207 33.91 18.2207 31.64V28.88C18.2439 28.7645 18.3064 28.6605 18.3976 28.5859C18.4887 28.5112 18.6029 28.4705 18.7207 28.4705C18.8385 28.4705 18.9528 28.5112 19.0439 28.5859C19.1351 28.6605 19.1975 28.7645 19.2207 28.88C19.2207 30.32 22.4808 31.88 27.1608 31.88C31.8408 31.88 35.1007 30.28 35.1007 28.88C35.1317 28.7713 35.1974 28.6757 35.2876 28.6077C35.3778 28.5396 35.4877 28.5028 35.6007 28.5028C35.7137 28.5028 35.8237 28.5396 35.9139 28.6077C36.0042 28.6757 36.0697 28.7713 36.1007 28.88V31.64C36.1007 33.91 32.1607 35.7 27.1007 35.7" fill="#DEA81E"/>
<path d="M35.6815 31.66C35.6815 33.66 31.8914 35.21 27.2214 35.21C22.5514 35.21 18.7715 33.62 18.7715 31.66V34.42C18.7715 36.42 22.5514 37.97 27.2214 37.97C31.8914 37.97 35.6815 36.38 35.6815 34.42V31.66Z" fill="white"/>
<path d="M19.2808 33.58V34.42C19.2808 35.85 22.5407 37.42 27.2207 37.42C31.9007 37.42 35.1608 35.81 35.1608 34.42V33.58C33.6808 34.86 30.7107 35.72 27.2207 35.72C23.7307 35.72 20.7708 34.86 19.2808 33.58ZM27.2207 38.48C22.2207 38.48 18.2207 36.69 18.2207 34.42V31.66C18.2439 31.5445 18.3064 31.4406 18.3976 31.3659C18.4887 31.2913 18.6029 31.2505 18.7207 31.2505C18.8385 31.2505 18.9528 31.2913 19.0439 31.3659C19.1351 31.4406 19.1975 31.5445 19.2207 31.66C19.2207 33.1 22.4808 34.66 27.1608 34.66C31.8408 34.66 35.1007 33.06 35.1007 31.66C35.1317 31.5513 35.1974 31.4557 35.2876 31.3877C35.3778 31.3196 35.4877 31.2828 35.6007 31.2828C35.7137 31.2828 35.8237 31.3196 35.9139 31.3877C36.0042 31.4557 36.0697 31.5513 36.1007 31.66V34.42C36.1007 36.69 32.1607 38.48 27.1007 38.48" fill="#DEA81E"/>
<path d="M35.6815 26.4501C35.6815 28.3101 31.8914 29.8301 27.2214 29.8301C22.5514 29.8301 18.7715 28.3101 18.7715 26.4501C18.7715 24.5901 22.5514 23.0701 27.2214 23.0701C31.8914 23.0701 35.6815 24.5901 35.6815 26.4501Z" fill="#4550E5"/>
<path d="M27.2207 23.5901C22.5407 23.5901 19.2808 25.1001 19.2808 26.4501C19.2808 27.8001 22.5407 29.3201 27.2207 29.3201C31.9007 29.3201 35.1608 27.8101 35.1608 26.4501C35.1608 25.0901 31.9007 23.5901 27.2207 23.5901ZM27.2207 30.3401C22.1107 30.3401 18.2207 28.6701 18.2207 26.4501C18.2207 24.2301 22.0707 22.5601 27.2207 22.5601C32.3707 22.5601 36.2207 24.2301 36.2207 26.4501C36.2207 28.6701 32.3607 30.3401 27.2207 30.3401Z" fill="#DEA81E"/>
<path d="M58.1212 12.04C56.9502 11.3463 56.0394 10.2871 55.5292 9.02528C55.0189 7.76348 54.9372 6.36896 55.2969 5.05624C55.6565 3.74353 56.4375 2.58533 57.5196 1.75978C58.6018 0.93423 59.9251 0.487061 61.2862 0.487061C62.6473 0.487061 63.9707 0.93423 65.0528 1.75978C66.135 2.58533 66.9159 3.74353 67.2755 5.05624C67.6351 6.36896 67.5536 7.76348 67.0433 9.02528C66.533 10.2871 65.6223 11.3463 64.4513 12.04H58.1212Z" fill="#4550E5"/>
<path d="M64.4501 12.58C64.3612 12.5812 64.2734 12.5587 64.1961 12.5148C64.1187 12.4708 64.0545 12.407 64.0101 12.33C63.9758 12.2723 63.9533 12.2083 63.9438 12.1418C63.9343 12.0754 63.9379 12.0077 63.9546 11.9426C63.9714 11.8776 64.0008 11.8165 64.0412 11.7628C64.0816 11.7092 64.1322 11.664 64.1901 11.63C65.0482 11.1252 65.7591 10.4045 66.2521 9.53954C66.7451 8.67458 67.003 7.69558 67 6.7C67 5.95325 66.8528 5.21383 66.5667 4.52405C66.2806 3.83427 65.8614 3.20767 65.3329 2.6801C64.8044 2.15253 64.177 1.73435 63.4867 1.44949C62.7965 1.16464 62.0569 1.01869 61.3101 1.02C60.0639 1.01985 58.852 1.42886 57.8608 2.18419C56.8695 2.93952 56.1535 3.9994 55.823 5.20102C55.4925 6.40264 55.5657 7.67953 56.0313 8.83556C56.4968 9.99158 57.329 10.9628 58.4001 11.6C58.5153 11.6704 58.5979 11.7836 58.6298 11.9149C58.6617 12.0461 58.6402 12.1846 58.5701 12.3C58.4995 12.4149 58.387 12.4979 58.2564 12.5315C58.1258 12.5651 57.9873 12.5466 57.87 12.48C56.6122 11.7242 55.6364 10.5774 55.0916 9.21487C54.5468 7.85233 54.463 6.34891 54.853 4.93425C55.2429 3.51959 56.0852 2.27144 57.2511 1.38046C58.4171 0.489482 59.8427 0.00464535 61.3101 0C63.0881 0.00262423 64.7927 0.708727 66.0518 1.96408C67.3109 3.21943 68.0222 4.92202 68.0301 6.7C68.0275 7.87308 67.7201 9.02535 67.1381 10.0439C66.5561 11.0624 65.7193 11.9122 64.71 12.51C64.6318 12.5577 64.5417 12.582 64.4501 12.58Z" fill="#DEA81E"/>
<path d="M54.9501 17.73C54.4553 17.6623 53.9791 17.4956 53.5501 17.24C51.7601 16.19 55.66 15.6 55.66 15.6L54.9501 17.73Z" fill="white"/>
<path d="M54.9508 18.24H54.8406C54.2824 18.1527 53.7461 17.9592 53.2607 17.6699C52.6007 17.2699 52.5208 16.8499 52.5808 16.5599C52.7408 15.6999 54.3008 15.29 55.5808 15.1C55.7159 15.0798 55.8534 15.1135 55.9638 15.194C56.0742 15.2745 56.1486 15.3951 56.1707 15.5299C56.1806 15.5963 56.1773 15.6639 56.1611 15.729C56.1448 15.7941 56.1159 15.8553 56.076 15.9091C56.0361 15.963 55.9858 16.0085 55.9283 16.0429C55.8708 16.0774 55.807 16.1002 55.7407 16.1099C55.0219 16.1985 54.3227 16.4046 53.6707 16.72L53.8007 16.8L53.8707 16.85C54.2483 17.0407 54.6531 17.1722 55.0707 17.24C55.2026 17.2731 55.3161 17.3566 55.3872 17.4725C55.4582 17.5884 55.481 17.7274 55.4508 17.86C55.4237 17.9719 55.3594 18.0713 55.2686 18.1421C55.1778 18.2129 55.0659 18.2509 54.9508 18.2499" fill="#DEA81E"/>
<path d="M69.2715 11.81C69.5215 12.48 67.4015 13.18 67.1015 15.12C66.7815 17.23 68.6316 19.58 70.2016 20.67C71.7716 21.76 73.8516 22.9 75.0616 24.67C76.2715 26.6469 76.7327 28.9921 76.3615 31.28C75.3615 38.39 68.5816 41.19 61.4416 41.23C54.3016 41.27 47.5115 38.39 46.5215 31.28C46.1504 28.9921 46.6117 26.6469 47.8216 24.67C49.0316 22.93 51.0116 21.86 52.6816 20.67C54.3516 19.48 56.6316 17.6 55.7816 15.12C55.1516 13.27 53.3615 12.48 53.6115 11.81C53.8615 11.14 56.9716 12.23 61.3116 12.25C65.8016 12.25 68.9716 10.99 69.3116 11.81" fill="white"/>
<path d="M54.1716 12.03C54.3158 12.2113 54.4693 12.3848 54.6316 12.55C55.352 13.2064 55.91 14.0211 56.2616 14.93C57.2616 17.73 54.8415 19.77 52.9715 21.07L51.9715 21.75C50.5432 22.559 49.2809 23.6313 48.2516 24.91C47.1003 26.7764 46.6701 28.9988 47.0416 31.16C47.8616 37.06 53.2517 40.62 61.4517 40.67C69.6516 40.72 75.0416 37.06 75.8616 31.16C76.2266 28.9989 75.7968 26.7787 74.6516 24.91C73.6202 23.6333 72.3584 22.5614 70.9316 21.75L69.9316 21.07C68.0716 19.79 66.2816 17.23 66.6116 15.02C66.8426 13.9589 67.4457 13.0154 68.3116 12.36C68.4316 12.26 68.5716 12.13 68.6716 12.03C68.0238 12.0568 67.3788 12.1304 66.7416 12.25C64.9544 12.5593 63.1453 12.7232 61.3317 12.74C59.5984 12.7083 57.87 12.5444 56.1616 12.25C55.5022 12.1213 54.8332 12.0477 54.1616 12.03H54.1716ZM61.4316 41.69C52.6716 41.64 46.9016 37.75 46.0016 31.3C45.5958 28.8752 46.0901 26.3858 47.3916 24.3C48.492 22.9075 49.85 21.7396 51.3916 20.86L52.3916 20.2C53.9916 19.09 56.0316 17.37 55.3016 15.2C54.9934 14.4354 54.5146 13.7513 53.9016 13.2C53.3816 12.67 52.9016 12.2 53.1316 11.55C53.4316 10.74 54.4516 10.89 56.2916 11.18C57.9435 11.4679 59.6151 11.6284 61.2916 11.66C63.0514 11.6354 64.8066 11.4749 66.5416 11.18C68.4016 10.89 69.4316 10.73 69.7316 11.55C69.9616 12.16 69.4515 12.62 68.9615 13.06C68.2734 13.5628 67.7848 14.2923 67.5817 15.12C67.2917 17.02 69.1015 19.22 70.4715 20.17L71.4715 20.83C73.0108 21.7128 74.3683 22.8802 75.4715 24.27C76.7766 26.3543 77.2679 28.8464 76.8516 31.27C75.9516 37.72 70.1916 41.61 61.4316 41.66" fill="#DEA81E"/>
<path d="M68.3214 17.73C68.8188 17.6599 69.2977 17.4935 69.7313 17.24C71.5113 16.19 67.6113 15.6 67.6113 15.6L68.3214 17.73Z" fill="white"/>
<path d="M68.3207 18.24C68.2002 18.2332 68.086 18.1839 67.9984 18.1009C67.9109 18.0179 67.8555 17.9065 67.8423 17.7865C67.8291 17.6666 67.8589 17.5458 67.9263 17.4458C67.9937 17.3457 68.0945 17.2728 68.2106 17.24C68.627 17.1672 69.0311 17.0359 69.4107 16.85L69.4706 16.8L69.6006 16.72C68.9517 16.4058 68.256 16.1998 67.5407 16.11C67.4738 16.1015 67.4092 16.0795 67.351 16.0455C67.2928 16.0114 67.2421 15.9659 67.2019 15.9117C67.1618 15.8575 67.1329 15.7958 67.1172 15.7302C67.1015 15.6646 67.0993 15.5965 67.1106 15.53C67.1204 15.4636 67.1432 15.3998 67.1776 15.3423C67.2121 15.2848 67.2576 15.2346 67.3114 15.1947C67.3653 15.1547 67.4265 15.1258 67.4916 15.1096C67.5567 15.0933 67.6244 15.0901 67.6907 15.1C68.9707 15.29 70.5307 15.7 70.6907 16.56C70.7507 16.85 70.6907 17.27 70.0207 17.67C69.5332 17.9549 68.9978 18.1481 68.4407 18.24H68.3207Z" fill="#DEA81E"/>
<path d="M55.5703 18.02C57.6131 18.3184 59.6758 18.4589 61.7402 18.44C63.5775 18.4213 65.4115 18.281 67.2302 18.02H55.5703Z" fill="white"/>
<path d="M61.4008 18.97C59.4262 18.9719 57.4542 18.8281 55.5007 18.54C55.3661 18.5202 55.2446 18.4483 55.1624 18.3399C55.0801 18.2314 55.0436 18.0951 55.0608 17.96C55.0706 17.8937 55.0934 17.8299 55.1278 17.7724C55.1623 17.7148 55.2077 17.6647 55.2616 17.6247C55.3155 17.5848 55.3767 17.5559 55.4418 17.5396C55.5068 17.5234 55.5744 17.5201 55.6407 17.53C57.6566 17.8297 59.6928 17.9702 61.7307 17.95C63.5447 17.9301 65.3554 17.7898 67.1508 17.53C67.2744 17.5279 67.3946 17.5707 67.489 17.6506C67.5834 17.7305 67.6456 17.842 67.6639 17.9643C67.6823 18.0866 67.6556 18.2114 67.5887 18.3155C67.5219 18.4195 67.4196 18.4958 67.3008 18.53C65.4597 18.8028 63.6018 18.9465 61.7407 18.96H61.4008" fill="#DEA81E"/>
<path d="M58.0508 32.28C58.0508 34.05 59.8107 35.49 61.9707 35.49C64.1307 35.49 65.9008 34.05 65.9008 32.28C65.9008 30.51 64.1407 29.07 61.9707 29.07C59.9707 29.07 58.3208 27.73 58.3208 26.07C58.3208 24.41 59.9308 23.13 61.9108 23.13C63.8908 23.13 65.5107 24.44 65.5107 26.07L58.0508 32.28Z" fill="white"/>
</g>
<defs>
<clipPath id="clip0_2195_17341">
<rect width="82.5" height="83.63" fill="white"/>
</clipPath>
</defs>
</svg>
