<svg width="58" height="105" viewBox="0 0 58 105" fill="none" xmlns="http://www.w3.org/2000/svg">
<path d="M51.9163 18.6834H54.2958C54.7717 18.6834 55.2305 18.5121 55.5896 18.2009L57.0486 16.942C57.5559 16.5024 57.4704 15.6917 56.8805 15.3691L53.8912 15.5376C53.2329 15.5747 52.5689 15.8773 52.0332 16.3825L51.1441 17.2275L51.9163 18.6805V18.6834Z" fill="#C95836"/>
<path fill-rule="evenodd" clip-rule="evenodd" d="M53.9014 17.7134C53.9014 17.7134 48.8432 24.6272 45.4549 28.7322C41.927 33.0056 38.2936 26.2658 41.1205 24.279C42.2832 23.4626 51.3651 17.0254 51.3651 17.0254L53.9014 17.7105V17.7134Z" fill="#C95836"/>
<path fill-rule="evenodd" clip-rule="evenodd" d="M28.1175 10.9764C34.8085 10.6338 40.297 16.8455 45.2042 24.9155C45.6031 25.5721 41.34 29.4287 40.7786 28.7436C36.7719 23.8536 31.4259 19.6031 31.4259 19.6031L28.1146 10.9764H28.1175Z" fill="#C95836"/>
<path d="M31.5806 10.5078C31.5806 10.5078 35.063 10.5078 41.0188 18.398L43.6918 21.4639L50.2432 17.3189L52.0955 20.8159L45.2278 29.6252C45.2278 29.6252 42.5263 31.5692 40.845 29.885C39.1636 28.2008 33.6467 22.5886 33.6467 22.5886C33.6467 22.5886 29.7711 11.5155 31.5806 10.5107V10.5078Z" fill="#7988E8"/>
<path fill-rule="evenodd" clip-rule="evenodd" d="M43.7655 102.869C43.7655 103.771 33.9683 104.502 21.8828 104.502C9.79725 104.502 3.43323e-05 103.771 3.43323e-05 102.869C3.43323e-05 101.967 9.79725 101.236 21.8828 101.236C33.9683 101.236 43.7655 101.967 43.7655 102.869Z" fill="#E3E7FA"/>
<path fill-rule="evenodd" clip-rule="evenodd" d="M27.6246 100.018C27.6246 100.018 24.0568 80.1837 27.6417 72.3335L24.7322 45.4258L37.2794 46.2907L31.1297 100.206L27.6275 100.015L27.6246 100.018Z" fill="#E3633D"/>
<path fill-rule="evenodd" clip-rule="evenodd" d="M31.2353 99.2383L33.0905 101.051C33.592 101.499 36.285 102.37 36.285 102.37C36.5671 102.926 36.057 103.22 35.6181 103.292L27.7473 103.126C27.7473 103.126 25.9207 102.749 27.4225 99.2411C28.873 99.8749 30.8962 100.329 31.2353 99.2383Z" fill="#4A2A1A"/>
<path fill-rule="evenodd" clip-rule="evenodd" d="M38.1212 50.4703L32.9661 96.13H23.8044C23.8044 96.13 24.5396 92.1592 24.4 90.8974C24.2603 89.6357 23.5622 77.6834 26.1867 72.1825L25.2805 49.7852L38.1212 50.4703Z" fill="#ABAFD1"/>
<path fill-rule="evenodd" clip-rule="evenodd" d="M26.1199 72.1825L25.2137 49.7852L29.5709 50.0249L30.2349 66.4248C30.3574 69.4821 30.0354 72.5508 29.3743 75.571C28.072 81.5371 28.565 89.8555 28.6818 90.8974C28.8214 92.1563 28.0862 96.13 28.0862 96.13H23.7404C23.7404 96.13 24.4757 92.1592 24.336 90.8974C24.1964 89.6357 23.4982 77.6834 26.1228 72.1825H26.1199Z" fill="#979BC4"/>
<path fill-rule="evenodd" clip-rule="evenodd" d="M19.339 32.0918L36.4514 33.3964C39.2355 34.4212 38.1242 50.4955 38.1242 50.4955L26.8736 51.0179C21.6473 50.9095 15.4635 55.0144 14.8137 46.2907C14.07 36.3166 19.3419 32.0918 19.3419 32.0918H19.339Z" fill="#ABAFD1"/>
<path d="M7.48397 93.6992C7.49821 93.7192 7.51246 93.7392 7.68059 93.9504C7.35288 96.1171 7.68629 96.9735 7.35858 99.143C8.27618 99.28 8.5355 100.722 9.4588 100.841C9.71812 100.876 9.58418 99.6454 9.82925 99.4941L12.4652 93.7906L7.48397 93.6992Z" fill="#C95836"/>
<path d="M29.1234 39.7675C24.0965 58.6023 19.064 77.4456 13.3048 96.5345C10.5805 96.0949 5.44249 96.2405 5.44249 96.2405C5.44249 96.2405 6.4057 92.8634 6.49119 92.3839C8.52587 80.8797 7.57122 79.2298 10.1559 70.3319C12.8032 57.489 13.8918 48.6739 16.9153 38.2402C21.4805 38.6085 24.4613 39.5048 29.0008 39.9873C29.0664 39.9958 29.1319 40.0044 29.2003 40.013C29.2545 40.0672 29.3086 40.1214 29.1262 39.7646L29.1234 39.7675Z" fill="#ABAFD1"/>
<path fill-rule="evenodd" clip-rule="evenodd" d="M9.99677 98.8758C9.99677 98.8758 10.3615 101.14 10.2105 102.558C10.1848 102.801 10.0196 103.061 9.76594 103.26C9.51232 103.46 9.20455 103.572 8.93953 103.563C8.36674 103.54 7.71132 103.515 7.30666 103.5C7.05304 103.492 6.84501 103.403 6.71393 103.249C6.63413 103.158 6.5401 103.046 6.43751 102.929C5.97871 102.398 6.26083 101.807 6.63129 100.977C7.016 100.118 7.31806 99.1384 7.31806 99.1384C8.84549 98.1393 9.99677 98.8729 9.99677 98.8729V98.8758Z" fill="#3D2213"/>
<path fill-rule="evenodd" clip-rule="evenodd" d="M15.4861 44.4815C15.4861 44.4815 26.1668 43.7906 28.9651 43.7764L15.4263 40.248C15.4263 40.248 15.2981 43.2283 15.4833 44.4815H15.4861Z" fill="#728F3B"/>
<path fill-rule="evenodd" clip-rule="evenodd" d="M31.8823 10.5233L27.0806 9.21019L25.234 9.14453L18.0756 11.0714C15.642 12.0677 14.371 14.7453 15.1119 17.3116L15.9868 25.2418C15.3228 32.2556 15.3741 38.3644 15.3285 44.1308C15.3199 45.167 16.058 46.0748 17.0782 46.2746C24.0998 47.6363 35.5527 48.7496 38.6988 44.7559C38.9723 32.1728 36.2024 18.9616 31.8852 10.5262L31.8823 10.5233Z" fill="#7988E8"/>
<path fill-rule="evenodd" clip-rule="evenodd" d="M28.0697 47.5142C28.0697 47.5142 14.9355 34.3372 16.2264 21.166L15.0039 31.9536C15.0039 31.9536 13.9979 39.0759 13.6332 45.0935C13.6332 45.0935 18.7198 47.9509 28.0725 47.5142H28.0697Z" fill="#6B79CF"/>
<path fill-rule="evenodd" clip-rule="evenodd" d="M10.6674 43.9515C11.2259 43.3463 12.4 34.5284 11.1576 30.883C10.5591 29.1275 10.5591 27.6488 9.76976 27.212C8.09985 26.29 7.05401 30.078 7.36177 32.4988C7.547 33.9689 8.49024 42.9952 8.49024 42.9952L10.6703 43.9486L10.6674 43.9515Z" fill="#C95836"/>
<path d="M35.5242 20.9651L34.8945 17.2598" stroke="#5D6DCC" stroke-width="1.23" stroke-linecap="round" stroke-linejoin="round"/>
<path d="M10.8943 43.2162L10.3928 45.4171C10.293 45.8567 10.0366 46.245 9.67465 46.5133L8.20705 47.5952C7.69411 47.972 6.9646 47.7208 6.79077 47.1071L7.58012 44.3752C7.75395 43.7729 8.17285 43.2219 8.75419 42.8366L9.72023 42.1914L10.8972 43.2134L10.8943 43.2162Z" fill="#C95836"/>
<path fill-rule="evenodd" clip-rule="evenodd" d="M29.7596 5.24429C29.7596 5.24429 31.3925 3.35167 29.1868 1.45049C26.984 -0.450684 26.7959 4.1995 26.8672 4.25659C26.9384 4.31368 29.7567 5.24429 29.7567 5.24429H29.7596Z" fill="#572A22"/>
<path fill-rule="evenodd" clip-rule="evenodd" d="M23.2968 5.73548C23.2968 5.73548 23.6644 8.11053 25.4597 8.09911C27.255 8.09054 27.0954 2.91797 27.0954 2.91797L23.2968 5.73263V5.73548Z" fill="#572A22"/>
<path fill-rule="evenodd" clip-rule="evenodd" d="M29.1605 6.87265C29.1605 6.87265 28.5934 9.40184 28.1232 11.4971C27.9978 12.0566 27.5447 12.4905 26.9377 12.6333C26.3308 12.776 25.6639 12.6076 25.1966 12.1908C25.0427 12.0538 24.8916 11.9225 24.752 11.794C24.108 11.2231 23.8629 10.3838 24.1222 9.64449C24.7891 7.74902 26.003 4.29492 26.003 4.29492L29.1633 6.87265H29.1605Z" fill="#C95836"/>
<path fill-rule="evenodd" clip-rule="evenodd" d="M28.9651 8.52194L28.4778 9.91499L27.167 8.31641L28.9651 8.52194Z" fill="#633C1D"/>
<path fill-rule="evenodd" clip-rule="evenodd" d="M24.4255 3.94338C24.2659 3.20118 24.7276 2.46754 25.46 2.30483C26.2408 2.1307 27.2296 1.91374 28.0104 1.73961C28.7428 1.5769 29.3555 2.08217 29.629 2.79011C29.9511 3.62652 30.2075 5.45062 30.2332 6.798C30.2474 7.55733 29.8257 8.35377 29.0933 8.51649C28.3125 8.69062 25.8048 8.45368 25.2719 7.08917C24.8672 6.05009 24.662 5.0367 24.4255 3.94338Z" fill="#C95836"/>
<path fill-rule="evenodd" clip-rule="evenodd" d="M22.9397 6.21175C22.9397 6.21175 22.3755 3.33143 23.4384 2.17531C24.869 0.619543 26.858 -0.299643 29.1862 1.45024C29.1862 1.45024 30.4572 2.12964 26.5246 2.87755C26.0259 2.97175 26.8837 5.3468 26.2568 5.5923C25.4133 5.92343 24.3275 6.15466 22.9369 6.21175H22.9397Z" fill="#572A22"/>
<path fill-rule="evenodd" clip-rule="evenodd" d="M24.2515 7.07096C24.582 7.59907 25.1976 7.80174 25.6279 7.52484C26.0582 7.24795 26.1408 6.59709 25.8103 6.06899C25.4797 5.54088 24.8642 5.3382 24.4339 5.61225C24.0036 5.88915 23.9209 6.54 24.2515 7.06811V7.07096Z" fill="#C95836"/>
<path fill-rule="evenodd" clip-rule="evenodd" d="M29.6058 6.16406L28.5087 6.48093C28.5087 6.48093 28.7452 7.23455 29.2553 7.0176C29.7654 6.8035 29.6058 6.16406 29.6058 6.16406Z" fill="white"/>
<path fill-rule="evenodd" clip-rule="evenodd" d="M15.2351 13.998C15.2351 13.998 8.58967 24.1605 7.62933 25.9389C5.45217 29.9611 5.93661 28.825 6.78867 36.8065L7.36146 41.1769L11.8725 40.5974L12.7217 29.6956L18.8571 20.0042C18.8571 20.0042 19.2902 18.2172 15.2323 14.0009L15.2351 13.998Z" fill="#7988E8"/>
<path d="M19.5744 17.8633L17.782 21.9996" stroke="#5D6DCC" stroke-width="1.23" stroke-linecap="round" stroke-linejoin="round"/>
</svg>
