<svg width="71" height="66" viewBox="0 0 71 66" fill="none" xmlns="http://www.w3.org/2000/svg">
<path d="M67.8008 33.8C67.8014 29.0241 66.733 24.3086 64.6739 19.9994C62.6149 15.6902 59.6174 11.8966 55.9012 8.89667C52.1851 5.89675 47.8447 3.76668 43.1981 2.66265C38.5516 1.55862 33.7169 1.50865 29.0486 2.51639C24.3802 3.52413 19.9967 5.56403 16.2193 8.48648C12.442 11.4089 9.36671 15.1398 7.21901 19.4055C5.07131 23.6713 3.90565 28.3636 3.80754 33.1385C3.70942 37.9133 4.68133 42.6496 6.65198 47H64.9496C66.8322 42.8542 67.8044 38.3531 67.8008 33.8V33.8Z" fill="#DAEDF7"/>
<path d="M6.65039 47C9.18855 52.6031 13.2878 57.356 18.4575 60.6895C23.6271 64.023 29.648 65.7959 35.7992 65.7959C41.9504 65.7959 47.9713 64.023 53.1409 60.6895C58.3105 57.356 62.4098 52.6031 64.948 47H6.65039Z" fill="#F2DFC2"/>
<path d="M4.59961 47.0032H66.9996" stroke="#45413C" stroke-width="0.8" stroke-linecap="round" stroke-linejoin="round"/>
<path d="M1 47.0032H3" stroke="#45413C" stroke-width="0.8" stroke-linecap="round" stroke-linejoin="round"/>
<path d="M68.5996 47.0032H70.5996" stroke="#45413C" stroke-width="0.8" stroke-linecap="round" stroke-linejoin="round"/>
<path d="M64.6008 31.8H45.4008C44.9764 31.8 44.5695 31.9686 44.2694 32.2687C43.9694 32.5687 43.8008 32.9757 43.8008 33.4V47H66.2008V33.4C66.2008 32.9757 66.0322 32.5687 65.7322 32.2687C65.4321 31.9686 65.0251 31.8 64.6008 31.8Z" fill="#FFF0ED" stroke="#45413C" stroke-width="0.8" stroke-linecap="round" stroke-linejoin="round"/>
<path d="M53.7996 34.4337C53.7997 34.2466 53.7342 34.0654 53.6145 33.9215C53.4948 33.7777 53.3284 33.6804 53.1444 33.6465C51.1946 33.3223 49.2046 33.3223 47.2548 33.6465C47.0708 33.6804 46.9044 33.7777 46.7847 33.9215C46.665 34.0654 46.5995 34.2466 46.5996 34.4337V37.1721C46.5995 37.3592 46.665 37.5405 46.7847 37.6843C46.9044 37.8281 47.0708 37.9254 47.2548 37.9593C49.2045 38.2847 51.1947 38.2847 53.1444 37.9593C53.3284 37.9254 53.4948 37.8281 53.6145 37.6843C53.7342 37.5405 53.7997 37.3592 53.7996 37.1721V34.4337Z" fill="#FFCABF" stroke="#45413C" stroke-width="0.8" stroke-linecap="round" stroke-linejoin="round"/>
<path d="M63.3992 34.4337C63.3993 34.2466 63.3338 34.0654 63.2141 33.9215C63.0944 33.7777 62.9281 33.6804 62.744 33.6465C60.7942 33.3223 58.8042 33.3223 56.8544 33.6465C56.6704 33.6804 56.504 33.7777 56.3843 33.9215C56.2646 34.0654 56.1991 34.2466 56.1992 34.4337V37.1721C56.1991 37.3592 56.2646 37.5405 56.3843 37.6843C56.504 37.8281 56.6704 37.9254 56.8544 37.9593C58.8041 38.2847 60.7943 38.2847 62.744 37.9593C62.9281 37.9254 63.0944 37.8281 63.2141 37.6843C63.3338 37.5405 63.3993 37.3592 63.3992 37.1721V34.4337Z" fill="#FFCABF" stroke="#45413C" stroke-width="0.8" stroke-linecap="round" stroke-linejoin="round"/>
<path d="M66.3783 38.792C66.3791 38.6184 66.3231 38.4492 66.2188 38.3104C66.1145 38.1716 65.9677 38.0707 65.8007 38.0232C62.2463 37.3055 58.6265 36.9626 55.0007 37C51.3749 36.9615 47.7551 37.3034 44.2007 38.02C44.0336 38.0675 43.8868 38.1684 43.7825 38.3072C43.6782 38.446 43.6222 38.6152 43.6231 38.7888V40.2H66.3783V38.792Z" fill="#FF866E" stroke="#45413C" stroke-width="0.8" stroke-linecap="round" stroke-linejoin="round"/>
<path d="M66.2 40.2H43.8C43.5878 40.2 43.3843 40.2842 43.2343 40.4343C43.0843 40.5843 43 40.7878 43 41V47H67V41C67 40.7878 66.9157 40.5843 66.7657 40.4343C66.6157 40.2842 66.4122 40.2 66.2 40.2Z" fill="#FFF0ED"/>
<path d="M66.2 40.2H43.8C43.5878 40.2 43.3843 40.2842 43.2343 40.4343C43.0843 40.5843 43 40.7878 43 41V43C43 42.7878 43.0843 42.5843 43.2343 42.4343C43.3843 42.2842 43.5878 42.2 43.8 42.2H66.2C66.4122 42.2 66.6157 42.2842 66.7657 42.4343C66.9157 42.5843 67 42.7878 67 43V41C67 40.7878 66.9157 40.5843 66.7657 40.4343C66.6157 40.2842 66.4122 40.2 66.2 40.2Z" fill="white"/>
<path d="M66.2 40.2H43.8C43.5878 40.2 43.3843 40.2842 43.2343 40.4343C43.0843 40.5843 43 40.7878 43 41V47H67V41C67 40.7878 66.9157 40.5843 66.7657 40.4343C66.6157 40.2842 66.4122 40.2 66.2 40.2Z" stroke="#45413C" stroke-width="0.8" stroke-linecap="round" stroke-linejoin="round"/>
<path d="M48.1816 11.0032H61.7816V26.2032H48.1816V11.0032Z" fill="#FFF0ED" stroke="#45413C" stroke-width="0.8" stroke-linecap="round" stroke-linejoin="round"/>
<path d="M49.8008 12.603H60.2008V24.603H49.8008V12.603Z" fill="#FFAA54" stroke="#45413C" stroke-width="0.8" stroke-linecap="round" stroke-linejoin="round"/>
<path d="M51.3828 18.6032C51.3828 19.558 51.7621 20.4736 52.4372 21.1488C53.1124 21.8239 54.028 22.2032 54.9828 22.2032C55.9376 22.2032 56.8533 21.8239 57.5284 21.1488C58.2035 20.4736 58.5828 19.558 58.5828 18.6032C58.5828 17.6484 58.2035 16.7327 57.5284 16.0576C56.8533 15.3825 55.9376 15.0032 54.9828 15.0032C54.028 15.0032 53.1124 15.3825 52.4372 16.0576C51.7621 16.7327 51.3828 17.6484 51.3828 18.6032V18.6032Z" fill="#FFE500"/>
<path d="M58.7366 17.6305C58.9276 17.446 59.08 17.2253 59.1848 16.9813C59.2896 16.7373 59.3448 16.4748 59.3471 16.2093C59.3494 15.9437 59.2988 15.6804 59.1982 15.4346C59.0977 15.1888 58.9492 14.9655 58.7614 14.7777C58.5736 14.5899 58.3503 14.4414 58.1045 14.3408C57.8587 14.2403 57.5953 14.1897 57.3298 14.192C57.0642 14.1943 56.8018 14.2495 56.5578 14.3543C56.3138 14.4591 56.0931 14.6115 55.9086 14.8025L55.343 15.3681C55.157 15.5538 55.0095 15.7743 54.9087 16.017C54.808 16.2597 54.756 16.5199 54.7559 16.7827C54.7555 17.3134 54.966 17.8225 55.341 18.1981C55.716 18.5736 56.2248 18.7848 56.7556 18.7852C57.0184 18.7854 57.2786 18.7338 57.5215 18.6334C57.7643 18.533 57.985 18.3858 58.171 18.2001L58.7366 17.6305Z" fill="#FFCEBF" stroke="#45413C" stroke-width="0.8" stroke-linecap="round" stroke-linejoin="round"/>
<path d="M58.7355 14.8023C58.5332 14.6006 58.2897 14.445 58.0217 14.3461C57.7537 14.2473 57.4675 14.2075 57.1827 14.2295C56.9727 14.9187 56.9536 15.652 57.1274 16.3512C57.3013 17.0504 57.6616 17.6893 58.1699 18.1999L58.7355 17.6343C58.9217 17.4486 59.0695 17.2279 59.1703 16.9849C59.2712 16.7419 59.3231 16.4814 59.3231 16.2183C59.3231 15.9553 59.2712 15.6948 59.1703 15.4518C59.0695 15.2088 58.9217 14.9881 58.7355 14.8023V14.8023Z" fill="#614B44" stroke="#45413C" stroke-width="0.8" stroke-linecap="round" stroke-linejoin="round"/>
<path d="M60.2008 22.4832V24.6H58.0408C57.0736 24.096 54.556 22.7672 53.9608 21.8392C53.7469 21.5118 53.6337 21.129 53.6351 20.738C53.6365 20.347 53.7525 19.965 53.9688 19.6392L51.3848 17.064L52.5128 15.928L55.3608 18.7752C55.6826 18.7445 56.0071 18.7853 56.3114 18.8946C56.6156 19.0038 56.892 19.1788 57.1208 19.4072L59.3048 21.584L60.2008 22.4832Z" fill="#00B8F0" stroke="#45413C" stroke-width="0.8" stroke-linecap="round" stroke-linejoin="round"/>
<path d="M55.3416 21.0246C55.123 20.8068 54.8566 20.6427 54.5637 20.5455C54.2707 20.4483 53.9591 20.4207 53.6536 20.4646C53.609 20.7707 53.6364 21.0829 53.7336 21.3765C53.8308 21.6701 53.9952 21.9369 54.2136 22.1558C54.6763 22.5894 55.183 22.9734 55.7256 23.3014C55.9059 22.929 55.9658 22.5098 55.897 22.1018C55.8282 21.6938 55.6341 21.3173 55.3416 21.0246V21.0246Z" fill="#FFE500" stroke="#45413C" stroke-width="0.8" stroke-linecap="round" stroke-linejoin="round"/>
<path d="M60.2001 22.4832V22.9552L58.5505 24.6H58.0545C57.6625 24.4 57.2785 24.2 56.8945 23.992L59.3025 21.584L60.2001 22.4832Z" fill="#FF6242" stroke="#45413C" stroke-width="0.8" stroke-linecap="round" stroke-linejoin="round"/>
<path d="M50.8164 16.4993C50.6706 16.3484 50.59 16.1464 50.5918 15.9366C50.5936 15.7268 50.6778 15.5262 50.8261 15.3779C50.9744 15.2295 51.1751 15.1454 51.3848 15.1436C51.5946 15.1418 51.7967 15.2224 51.9476 15.3681L52.5132 15.9337L51.382 17.0649L50.8164 16.4993Z" fill="#FFCEBF" stroke="#45413C" stroke-width="0.8" stroke-linecap="round" stroke-linejoin="round"/>
<path d="M60.1991 20.0911V21.0423C59.2078 20.3639 58.1488 19.7905 57.0391 19.3311C57.0391 19.3311 58.5575 19.6351 60.1991 20.0911Z" fill="#FF6242" stroke="#45413C" stroke-width="0.8" stroke-linecap="round" stroke-linejoin="round"/>
<path d="M33.4004 38.2031H41.4004V42.2031H33.4004V38.2031Z" fill="#FFF0ED"/>
<path d="M40.6004 38.2H34.2004C33.9882 38.2 33.7847 38.2842 33.6347 38.4343C33.4847 38.5843 33.4004 38.7878 33.4004 39V40.6C33.4004 40.3878 33.4847 40.1843 33.6347 40.0343C33.7847 39.8842 33.9882 39.8 34.2004 39.8H40.6004C40.8126 39.8 41.016 39.8842 41.1661 40.0343C41.3161 40.1843 41.4004 40.3878 41.4004 40.6V39C41.4004 38.7878 41.3161 38.5843 41.1661 38.4343C41.016 38.2842 40.8126 38.2 40.6004 38.2Z" fill="white"/>
<path d="M33.4004 38.2031H41.4004V42.2031H33.4004V38.2031Z" stroke="#45413C" stroke-width="0.8" stroke-linecap="round" stroke-linejoin="round"/>
<path d="M34.9992 42.2031L34.1992 47.0031" stroke="#45413C" stroke-width="0.8" stroke-linecap="round" stroke-linejoin="round"/>
<path d="M39.8008 42.2031L40.6008 47.0031" stroke="#45413C" stroke-width="0.8" stroke-linecap="round" stroke-linejoin="round"/>
<path d="M34.5195 45.4033H40.2795" stroke="#45413C" stroke-width="0.8" stroke-linecap="round" stroke-linejoin="round"/>
<path d="M39.4004 35H36.2004C35.9882 35 35.7847 35.0843 35.6347 35.2343C35.4847 35.3843 35.4004 35.5878 35.4004 35.8V38.2H40.2004V35.8C40.2004 35.5878 40.1161 35.3843 39.9661 35.2343C39.816 35.0843 39.6126 35 39.4004 35Z" fill="#656769" stroke="#45413C" stroke-width="0.8" stroke-linecap="round" stroke-linejoin="round"/>
<path d="M12.2 49.4H1V31C1 30.7878 1.08429 30.5843 1.23431 30.4343C1.38434 30.2842 1.58783 30.2 1.8 30.2H11.4C11.6122 30.2 11.8157 30.2842 11.9657 30.4343C12.1157 30.5843 12.2 30.7878 12.2 31V49.4Z" fill="#BF8256"/>
<path d="M12.1992 35.4031C12.1992 35.7214 12.3256 36.0266 12.5507 36.2517C12.7757 36.4767 13.081 36.6031 13.3992 36.6031C13.7175 36.6031 14.0227 36.4767 14.2477 36.2517C14.4728 36.0266 14.5992 35.7214 14.5992 35.4031C14.5992 35.0849 14.4728 34.7796 14.2477 34.5546C14.0227 34.3296 13.7175 34.2031 13.3992 34.2031C13.081 34.2031 12.7757 34.3296 12.5507 34.5546C12.3256 34.7796 12.1992 35.0849 12.1992 35.4031V35.4031Z" fill="#BF8256" stroke="#45413C" stroke-width="0.8" stroke-linecap="round" stroke-linejoin="round"/>
<path d="M12.1992 44.2032C12.1992 44.5214 12.3256 44.8267 12.5507 45.0517C12.7757 45.2767 13.081 45.4032 13.3992 45.4032C13.7175 45.4032 14.0227 45.2767 14.2477 45.0517C14.4728 44.8267 14.5992 44.5214 14.5992 44.2032C14.5992 43.8849 14.4728 43.5797 14.2477 43.3546C14.0227 43.1296 13.7175 43.0032 13.3992 43.0032C13.081 43.0032 12.7757 43.1296 12.5507 43.3546C12.3256 43.5797 12.1992 43.8849 12.1992 44.2032Z" fill="#BF8256" stroke="#45413C" stroke-width="0.8" stroke-linecap="round" stroke-linejoin="round"/>
<path d="M10.28 53.3999H10.128C9.92899 53.4009 9.73675 53.3277 9.58882 53.1945C9.44089 53.0614 9.3479 52.8779 9.328 52.6799L9 49.3999H11.4L11.072 52.6799C11.0522 52.8765 10.9604 53.0589 10.8141 53.1919C10.6679 53.3248 10.4776 53.3989 10.28 53.3999Z" fill="#BF8256" stroke="#45413C" stroke-width="0.8" stroke-linecap="round" stroke-linejoin="round"/>
<path d="M3.08078 53.3999H2.92078C2.72246 53.3999 2.5312 53.3262 2.38412 53.1932C2.23704 53.0602 2.14461 52.8772 2.12478 52.6799L1.80078 49.3999H4.20078L3.87278 52.6799C3.85302 52.8765 3.76117 53.0589 3.61493 53.1919C3.46869 53.3248 3.27842 53.3989 3.08078 53.3999Z" fill="#BF8256" stroke="#45413C" stroke-width="0.8" stroke-linecap="round" stroke-linejoin="round"/>
<path d="M11.4 30.2H1.8C1.58783 30.2 1.38434 30.2842 1.23431 30.4343C1.08429 30.5843 1 30.7878 1 31V33C1 32.7878 1.08429 32.5843 1.23431 32.4343C1.38434 32.2842 1.58783 32.2 1.8 32.2H11.4C11.6122 32.2 11.8157 32.2842 11.9657 32.4343C12.1157 32.5843 12.2 32.7878 12.2 33V31C12.2 30.7878 12.1157 30.5843 11.9657 30.4343C11.8157 30.2842 11.6122 30.2 11.4 30.2Z" fill="#DEA47A"/>
<path d="M12.2 49.4H1V31C1 30.7878 1.08429 30.5843 1.23431 30.4343C1.38434 30.2842 1.58783 30.2 1.8 30.2H11.4C11.6122 30.2 11.8157 30.2842 11.9657 30.4343C12.1157 30.5843 12.2 30.7878 12.2 31V49.4Z" stroke="#45413C" stroke-width="0.8" stroke-linecap="round" stroke-linejoin="round"/>
<path opacity="0.15" d="M11.6719 64.0287C11.6719 64.4959 13.28 64.944 16.1426 65.2743C19.0052 65.6047 22.8876 65.7903 26.9359 65.7903C30.9841 65.7903 34.8666 65.6047 37.7292 65.2743C40.5917 64.944 42.1999 64.4959 42.1999 64.0287C42.1999 63.5615 40.5917 63.1134 37.7292 62.7831C34.8666 62.4527 30.9841 62.2671 26.9359 62.2671C22.8876 62.2671 19.0052 62.4527 16.1426 62.7831C13.28 63.1134 11.6719 63.5615 11.6719 64.0287V64.0287Z" fill="#45413C"/>
<path d="M32.2187 59.9192H32.8059C33.4239 59.9186 34.0311 60.0815 34.5659 60.3912V42.8936H19.3027V60.3912C19.8376 60.0815 20.4447 59.9186 21.0627 59.9192H21.6499C22.2498 59.9189 22.8397 60.0719 23.3637 60.3637C23.8878 60.6555 24.3286 61.0764 24.6443 61.5864L25.0491 48.8288C25.0666 48.3406 25.2727 47.8783 25.6242 47.5391C25.9757 47.2 26.4451 47.0104 26.9335 47.0104C27.422 47.0104 27.8914 47.2 28.2429 47.5391C28.5944 47.8783 28.8005 48.3406 28.8179 48.8288L29.2227 61.5864C29.5386 61.0761 29.9797 60.6551 30.504 60.3633C31.0284 60.0715 31.6186 59.9186 32.2187 59.9192Z" fill="#FFCABF"/>
<path d="M34.5683 45.2416V42.8936H34.5667H19.3035H19.3027L19.3035 45.2416H34.5683Z" fill="#FFA694"/>
<path d="M32.2187 59.9192H32.8059C33.4239 59.9186 34.0311 60.0815 34.5659 60.3912V42.8936H19.3027V60.3912C19.8376 60.0815 20.4447 59.9186 21.0627 59.9192H21.6499C22.2498 59.9189 22.8397 60.0719 23.3637 60.3637C23.8878 60.6555 24.3286 61.0764 24.6443 61.5864L25.0491 48.8288C25.0666 48.3406 25.2727 47.8783 25.6242 47.5391C25.9757 47.2 26.4451 47.0104 26.9335 47.0104C27.422 47.0104 27.8914 47.2 28.2429 47.5391C28.5944 47.8783 28.8005 48.3406 28.8179 48.8288L29.2227 61.5864C29.5386 61.0761 29.9797 60.6551 30.504 60.3633C31.0284 60.0715 31.6186 59.9186 32.2187 59.9192Z" stroke="#45413C" stroke-width="0.8" stroke-linecap="round" stroke-linejoin="round"/>
<path d="M34.8405 63.4416C35.0418 63.4434 35.2402 63.3933 35.4164 63.2961C35.5927 63.1989 35.7409 63.0579 35.8468 62.8866C35.9526 62.7154 36.0125 62.5197 36.0207 62.3186C36.0288 62.1175 35.9849 61.9176 35.8933 61.7384C35.589 61.187 35.1423 60.7273 34.5999 60.4074C34.0574 60.0874 33.4391 59.9188 32.8093 59.9192H32.2221C31.5923 59.9188 30.974 60.0874 30.4315 60.4074C29.8891 60.7273 29.4424 61.187 29.1381 61.7384C29.0464 61.9177 29.0025 62.1176 29.0107 62.3188C29.0189 62.52 29.0789 62.7157 29.1848 62.887C29.2908 63.0582 29.4391 63.1993 29.6155 63.2964C29.7919 63.3936 29.9903 63.4436 30.1917 63.4416H34.8405Z" fill="#E04122" stroke="#45413C" stroke-width="0.8" stroke-linecap="round" stroke-linejoin="round"/>
<path d="M23.6815 63.4416C23.8829 63.4436 24.0813 63.3936 24.2577 63.2964C24.4341 63.1993 24.5824 63.0582 24.6884 62.887C24.7943 62.7157 24.8543 62.52 24.8625 62.3188C24.8706 62.1176 24.8268 61.9177 24.7351 61.7384C24.4308 61.187 23.9841 60.7273 23.4417 60.4074C22.8992 60.0874 22.2809 59.9188 21.6511 59.9192H21.0639C20.4341 59.9188 19.8157 60.0874 19.2733 60.4074C18.7309 60.7273 18.2842 61.187 17.9799 61.7384C17.8882 61.9176 17.8444 62.1175 17.8525 62.3186C17.8607 62.5197 17.9206 62.7154 18.0264 62.8866C18.1322 63.0579 18.2805 63.1989 18.4567 63.2961C18.633 63.3933 18.8314 63.4434 19.0327 63.4416H23.6815Z" fill="#E04122" stroke="#45413C" stroke-width="0.8" stroke-linecap="round" stroke-linejoin="round"/>
<path d="M26.9343 19.9968C23.6648 19.9979 20.5295 21.2972 18.2177 23.609C15.9058 25.9209 14.6065 29.0562 14.6055 32.3256V32.9128C14.6162 34.244 15.0396 35.5391 15.8174 36.6194C16.5951 37.6998 17.6889 38.5123 18.9479 38.9448L18.7687 41.9848C18.7529 42.253 18.8297 42.5184 18.986 42.7368C19.1424 42.9552 19.369 43.1133 19.6279 43.1848C22.0133 43.8034 24.471 44.0994 26.9351 44.0648C29.3989 44.0994 31.8563 43.8034 34.2415 43.1848C34.5005 43.1135 34.7271 42.9553 34.8835 42.7369C35.0399 42.5185 35.1166 42.253 35.1007 41.9848L34.9215 38.9448C36.181 38.5126 37.2754 37.7002 38.0536 36.6196C38.8319 35.5391 39.2556 34.2436 39.2663 32.912V32.3248C39.2652 29.0549 37.9655 25.9192 35.6529 23.6074C33.3403 21.2955 30.2042 19.9968 26.9343 19.9968Z" fill="#FF6242"/>
<path d="M26.9361 22.932C29.4177 22.8895 31.8629 23.533 34.0022 24.7916C36.1415 26.0501 37.8917 27.8749 39.0601 30.0648C38.5321 27.2354 37.0312 24.6797 34.8171 22.8406C32.6031 21.0014 29.8155 19.9946 26.9373 19.9946C24.059 19.9946 21.2714 21.0014 19.0574 22.8406C16.8433 24.6797 15.3424 27.2354 14.8145 30.0648C15.9827 27.8754 17.7326 26.0509 19.8713 24.7923C22.0101 23.5338 24.4548 22.89 26.9361 22.932Z" fill="#FF866E"/>
<path d="M26.9343 19.9968C23.6648 19.9979 20.5295 21.2972 18.2177 23.609C15.9058 25.9209 14.6065 29.0562 14.6055 32.3256V32.9128C14.6162 34.244 15.0396 35.5391 15.8174 36.6194C16.5951 37.6998 17.6889 38.5123 18.9479 38.9448L18.7687 41.9848C18.7529 42.253 18.8297 42.5184 18.986 42.7368C19.1424 42.9552 19.369 43.1133 19.6279 43.1848C22.0133 43.8034 24.471 44.0994 26.9351 44.0648C29.3989 44.0994 31.8563 43.8034 34.2415 43.1848C34.5005 43.1135 34.7271 42.9553 34.8835 42.7369C35.0399 42.5185 35.1166 42.253 35.1007 41.9848L34.9215 38.9448C36.181 38.5126 37.2754 37.7002 38.0536 36.6196C38.8319 35.5391 39.2556 34.2436 39.2663 32.912V32.3248C39.2652 29.0549 37.9655 25.9192 35.6529 23.6074C33.3403 21.2955 30.2042 19.9968 26.9343 19.9968Z" stroke="#45413C" stroke-width="0.8" stroke-linecap="round" stroke-linejoin="round"/>
<path d="M25.7871 36.9527L26.7607 34.0295C26.8112 33.877 26.893 33.7367 27.0007 33.6175L26.9151 33.5703C25.8321 33.2786 24.779 32.8859 23.7695 32.3975C23.4222 32.1629 23.0125 32.038 22.5935 32.0391C22.141 32.0378 21.7001 32.1818 21.3356 32.4498C20.9711 32.7179 20.7023 33.0959 20.5688 33.5282C20.4352 33.9605 20.4439 34.4242 20.5937 34.8512C20.7435 35.2781 21.0263 35.6457 21.4007 35.8999C22.7244 36.6159 24.1251 37.1795 25.5759 37.5799L25.7567 37.6031C25.7057 37.3877 25.7163 37.1624 25.7871 36.9527V36.9527Z" fill="#FFCEBF" stroke="#45413C" stroke-width="0.8" stroke-linecap="round" stroke-linejoin="round"/>
<path d="M39.2674 32.3256V32.9128C39.2611 34.5723 38.6071 36.1638 37.4447 37.3482C36.2822 38.5326 34.7033 39.2163 33.0442 39.2536C30.876 39.2517 28.7159 38.9871 26.6114 38.4656C26.4544 38.4262 26.3072 38.3547 26.1792 38.2556C26.0512 38.1565 25.9451 38.032 25.8676 37.8899C25.7901 37.7478 25.7429 37.5911 25.729 37.4298C25.715 37.2686 25.7346 37.1061 25.7866 36.9528L26.7602 34.0296C26.851 33.7552 27.0403 33.5242 27.2914 33.3812C27.5426 33.2382 27.8379 33.1933 28.1202 33.2552C29.9301 33.6353 31.7732 33.8352 33.6226 33.852C33.7463 33.8524 33.8689 33.8285 33.9833 33.7815C34.0978 33.7345 34.2019 33.6654 34.2896 33.5782C34.3773 33.491 34.447 33.3873 34.4947 33.2732C34.5424 33.159 34.5671 33.0365 34.5674 32.9128V29.3928" fill="#FF6242"/>
<path d="M39.2674 32.3256V32.9128C39.2611 34.5723 38.6071 36.1638 37.4447 37.3482C36.2822 38.5326 34.7033 39.2163 33.0442 39.2536C30.876 39.2517 28.7159 38.9871 26.6114 38.4656C26.4544 38.4262 26.3072 38.3547 26.1792 38.2556C26.0512 38.1565 25.9451 38.032 25.8676 37.8899C25.7901 37.7478 25.7429 37.5911 25.729 37.4298C25.715 37.2686 25.7346 37.1061 25.7866 36.9528L26.7602 34.0296C26.851 33.7552 27.0403 33.5242 27.2914 33.3812C27.5426 33.2382 27.8379 33.1933 28.1202 33.2552C29.9301 33.6353 31.7732 33.8352 33.6226 33.852C33.7463 33.8524 33.8689 33.8285 33.9833 33.7815C34.0978 33.7345 34.2019 33.6654 34.2896 33.5782C34.3773 33.491 34.447 33.3873 34.4947 33.2732C34.5424 33.159 34.5671 33.0365 34.5674 32.9128V29.3928" stroke="#45413C" stroke-width="0.8" stroke-linecap="round" stroke-linejoin="round"/>
<path d="M33.0318 32.9671C32.8375 32.681 32.576 32.4469 32.2704 32.2852C31.9647 32.1234 31.6241 32.0389 31.2782 32.0391C30.8592 32.038 30.4495 32.1629 30.1022 32.3975C29.0935 32.8856 28.0411 33.2779 26.959 33.5695L26.8398 33.5815C26.9631 33.7084 27.056 33.8616 27.1118 34.0295L28.0862 36.9527C28.1588 37.168 28.1675 37.3998 28.111 37.6199L28.2958 37.5791C29.7458 37.1786 31.1457 36.615 32.4686 35.8991C32.9304 35.5836 33.2487 35.0983 33.3542 34.5491C33.4597 33.9999 33.3438 33.4312 33.0318 32.9671Z" fill="#FFCEBF" stroke="#45413C" stroke-width="0.8" stroke-linecap="round" stroke-linejoin="round"/>
<path d="M14.6055 32.3256V32.9128C14.6117 34.5723 15.2657 36.1638 16.4282 37.3482C17.5906 38.5326 19.1696 39.2163 20.8287 39.2536C22.9969 39.2517 25.1569 38.9871 27.2615 38.4656C27.4185 38.4262 27.5656 38.3547 27.6936 38.2556C27.8216 38.1565 27.9277 38.032 28.0052 37.8899C28.0827 37.7478 28.1299 37.5911 28.1439 37.4298C28.1578 37.2686 28.1382 37.1061 28.0863 36.9528L27.1119 34.0296C27.021 33.7552 26.8318 33.5242 26.5806 33.3812C26.3294 33.2382 26.0342 33.1933 25.7519 33.2552C23.9419 33.6353 22.0988 33.8352 20.2495 33.852C20.1257 33.8524 20.0032 33.8285 19.8887 33.7815C19.7743 33.7345 19.6702 33.6654 19.5824 33.5782C19.4947 33.491 19.425 33.3873 19.3773 33.2732C19.3297 33.159 19.305 33.0365 19.3047 32.9128V29.3928" fill="#FF6242"/>
<path d="M14.6055 32.3256V32.9128C14.6117 34.5723 15.2657 36.1638 16.4282 37.3482C17.5906 38.5326 19.1696 39.2163 20.8287 39.2536C22.9969 39.2517 25.1569 38.9871 27.2615 38.4656C27.4185 38.4262 27.5656 38.3547 27.6936 38.2556C27.8216 38.1565 27.9277 38.032 28.0052 37.8899C28.0827 37.7478 28.1299 37.5911 28.1439 37.4298C28.1578 37.2686 28.1382 37.1061 28.0863 36.9528L27.1119 34.0296C27.021 33.7552 26.8318 33.5242 26.5806 33.3812C26.3294 33.2382 26.0342 33.1933 25.7519 33.2552C23.9419 33.6353 22.0988 33.8352 20.2495 33.852C20.1257 33.8524 20.0032 33.8285 19.8887 33.7815C19.7743 33.7345 19.6702 33.6654 19.5824 33.5782C19.4947 33.491 19.425 33.3873 19.3773 33.2732C19.3297 33.159 19.305 33.0365 19.3047 32.9128V29.3928" stroke="#45413C" stroke-width="0.8" stroke-linecap="round" stroke-linejoin="round"/>
<path d="M30.3006 20.4615C30.1329 20.4141 29.9853 20.3133 29.8802 20.1744C29.7751 20.0355 29.7182 19.866 29.7182 19.6919V16.7271H24.1502V19.6927C24.1503 19.8669 24.0936 20.0364 23.9886 20.1755C23.8837 20.3145 23.7362 20.4155 23.5686 20.463C23.5046 20.4806 23.4406 20.4998 23.3774 20.519C23.3703 20.9907 23.4571 21.459 23.6327 21.8968C23.8082 22.3346 24.0691 22.733 24.4002 23.0691C24.7312 23.4051 25.1257 23.6719 25.5608 23.8541C25.9959 24.0362 26.4629 24.13 26.9346 24.13C27.4062 24.13 27.8732 24.0362 28.3083 23.8541C28.7434 23.6719 29.1379 23.4051 29.4689 23.0691C29.8 22.733 30.0609 22.3346 30.2365 21.8968C30.412 21.459 30.4988 20.9907 30.4918 20.519L30.3006 20.4615Z" fill="#FFCEBF" stroke="#45413C" stroke-width="0.8" stroke-linecap="round" stroke-linejoin="round"/>
<path d="M20.0397 13.5903C19.8941 14.4529 19.5008 15.2545 18.9077 15.8975C18.8393 15.984 18.7967 16.088 18.7847 16.1976C18.7727 16.3072 18.7918 16.4179 18.8398 16.5172C18.8878 16.6164 18.9628 16.7001 19.0561 16.7588C19.1495 16.8174 19.2574 16.8486 19.3677 16.8487H21.0661L20.3165 18.3471C20.2718 18.4367 20.2507 18.5362 20.2552 18.6362C20.2597 18.7362 20.2898 18.8333 20.3424 18.9185C20.3951 19.0036 20.4686 19.0738 20.5561 19.1225C20.6435 19.1712 20.742 19.1968 20.8421 19.1967H21.6533C22.3988 19.1967 23.1146 18.9043 23.6469 18.3823C22.7306 17.8975 21.9323 17.2168 21.3089 16.3886C20.6854 15.5604 20.2521 14.605 20.0397 13.5903V13.5903Z" fill="#FFDF3D" stroke="#45413C" stroke-width="0.8" stroke-linecap="round" stroke-linejoin="round"/>
<path d="M33.8338 13.5903C33.6212 14.6049 33.1878 15.5602 32.5643 16.3884C31.9409 17.2166 31.1428 17.8974 30.2266 18.3823C30.7588 18.9043 31.4746 19.1967 32.2202 19.1967H33.0314C33.1314 19.1966 33.2297 19.1709 33.317 19.1221C33.4043 19.0734 33.4778 19.0031 33.5304 18.9181C33.583 18.833 33.6131 18.736 33.6177 18.6361C33.6224 18.5361 33.6015 18.4367 33.557 18.3471L32.8074 16.8487H34.5058C34.616 16.8486 34.724 16.8174 34.8173 16.7588C34.9107 16.7001 34.9856 16.6164 35.0336 16.5172C35.0816 16.4179 35.1007 16.3072 35.0887 16.1976C35.0767 16.088 35.0341 15.984 34.9658 15.8975C34.3727 15.2545 33.9794 14.4529 33.8338 13.5903V13.5903Z" fill="#FFDF3D" stroke="#45413C" stroke-width="0.8" stroke-linecap="round" stroke-linejoin="round"/>
<path d="M35.1559 12.1521C35.1529 11.8178 35.0343 11.4949 34.8202 11.2381C34.6061 10.9813 34.3098 10.8065 33.9815 10.7433V9.80011C33.9617 7.94462 33.2108 6.17183 31.8917 4.86673C30.5726 3.56162 28.7919 2.82959 26.9363 2.82959C25.0807 2.82959 23.3 3.56162 21.9809 4.86673C20.6618 6.17183 19.9109 7.94462 19.8911 9.80011V10.7401C19.551 10.8069 19.2463 10.9941 19.0331 11.2674C18.8199 11.5407 18.7125 11.8817 18.7305 12.2279C18.7485 12.574 18.8907 12.9021 19.1311 13.1518C19.3715 13.4015 19.6939 13.5562 20.0391 13.5873C20.3696 15.1721 21.2358 16.5946 22.4919 17.6158C23.748 18.637 25.3175 19.1945 26.9363 19.1945C28.5551 19.1945 30.1246 18.637 31.3807 17.6158C32.6369 16.5946 33.503 15.1721 33.8335 13.5873C34.1926 13.5546 34.5268 13.3896 34.7712 13.1244C35.0155 12.8592 35.1526 12.5127 35.1559 12.1521Z" fill="#FFCEBF" stroke="#45413C" stroke-width="0.8" stroke-linecap="round" stroke-linejoin="round"/>
<path d="M23.4121 10.684C23.4121 10.9176 23.5049 11.1417 23.6701 11.3068C23.8353 11.472 24.0593 11.5648 24.2929 11.5648C24.5265 11.5648 24.7505 11.472 24.9157 11.3068C25.0809 11.1417 25.1737 10.9176 25.1737 10.684C25.1737 10.4504 25.0809 10.2264 24.9157 10.0612C24.7505 9.89602 24.5265 9.80322 24.2929 9.80322C24.0593 9.80322 23.8353 9.89602 23.6701 10.0612C23.5049 10.2264 23.4121 10.4504 23.4121 10.684V10.684Z" fill="#45413C"/>
<path d="M28.6973 10.684C28.6973 10.9176 28.7901 11.1417 28.9552 11.3068C29.1204 11.472 29.3445 11.5648 29.5781 11.5648C29.8117 11.5648 30.0357 11.472 30.2009 11.3068C30.3661 11.1417 30.4589 10.9176 30.4589 10.684C30.4589 10.4504 30.3661 10.2264 30.2009 10.0612C30.0357 9.89602 29.8117 9.80322 29.5781 9.80322C29.3445 9.80322 29.1204 9.89602 28.9552 10.0612C28.7901 10.2264 28.6973 10.4504 28.6973 10.684V10.684Z" fill="#45413C"/>
<path d="M22.2383 13.0322C22.2383 13.2658 22.3311 13.4898 22.4963 13.655C22.6614 13.8202 22.8855 13.913 23.1191 13.913C23.3527 13.913 23.5767 13.8202 23.7419 13.655C23.9071 13.4898 23.9999 13.2658 23.9999 13.0322C23.9999 12.7986 23.9071 12.5745 23.7419 12.4093C23.5767 12.2442 23.3527 12.1514 23.1191 12.1514C22.8855 12.1514 22.6614 12.2442 22.4963 12.4093C22.3311 12.5745 22.2383 12.7986 22.2383 13.0322Z" fill="#FFB59E"/>
<path d="M29.8711 13.0322C29.8711 13.1478 29.8939 13.2624 29.9381 13.3692C29.9824 13.4761 30.0473 13.5732 30.1291 13.655C30.2109 13.7368 30.308 13.8017 30.4148 13.8459C30.5217 13.8902 30.6362 13.913 30.7519 13.913C30.8676 13.913 30.9821 13.8902 31.089 13.8459C31.1958 13.8017 31.2929 13.7368 31.3747 13.655C31.4565 13.5732 31.5214 13.4761 31.5656 13.3692C31.6099 13.2624 31.6327 13.1478 31.6327 13.0322C31.6327 12.9165 31.6099 12.802 31.5656 12.6951C31.5214 12.5882 31.4565 12.4911 31.3747 12.4093C31.2929 12.3276 31.1958 12.2627 31.089 12.2184C30.9821 12.1741 30.8676 12.1514 30.7519 12.1514C30.6362 12.1514 30.5217 12.1741 30.4148 12.2184C30.308 12.2627 30.2109 12.3276 30.1291 12.4093C30.0473 12.4911 29.9824 12.5882 29.9381 12.6951C29.8939 12.802 29.8711 12.9165 29.8711 13.0322Z" fill="#FFB59E"/>
<path d="M25.7617 15.3999C26.1264 15.5822 26.5284 15.6771 26.9361 15.6771C27.3438 15.6771 27.7459 15.5822 28.1105 15.3999V15.3999" stroke="#45413C" stroke-width="0.8" stroke-linecap="round" stroke-linejoin="round"/>
<path d="M26.9347 1C24.9105 1.00021 22.9693 1.80447 21.538 3.23588C20.1068 4.66728 19.3027 6.60859 19.3027 8.6328V9.8C19.3027 10.1115 19.4265 10.4102 19.6467 10.6304C19.867 10.8507 20.1657 10.9744 20.4771 10.9744C20.7886 10.9744 21.0873 10.8507 21.3076 10.6304C21.5278 10.4102 21.6515 10.1115 21.6515 9.8V9.16C21.6488 9.02611 21.6934 8.89554 21.7773 8.79123C21.8613 8.68692 21.9794 8.61553 22.1107 8.5896C23.1839 8.3248 24.1716 7.79031 24.9803 7.0368C24.9974 7.02231 25.0183 7.01302 25.0406 7.01001C25.0628 7.007 25.0854 7.0104 25.1057 7.01982C25.1261 7.02923 25.1433 7.04427 25.1554 7.06315C25.1675 7.08204 25.1739 7.10398 25.1739 7.1264V8.04C25.1712 8.18627 25.2241 8.32813 25.322 8.43685C25.4198 8.54558 25.5554 8.61305 25.7011 8.6256C27.0707 8.6864 28.2331 6.6192 28.5859 5.9192C28.5955 5.8995 28.6106 5.88303 28.6295 5.87185C28.6483 5.86066 28.67 5.85525 28.6919 5.85627C28.7138 5.85729 28.7349 5.86471 28.7526 5.8776C28.7703 5.89049 28.7838 5.90829 28.7915 5.9288C29.4515 7.6016 31.4235 8.7824 32.0355 9.1176C32.091 9.14789 32.1372 9.19255 32.1695 9.24689C32.2017 9.30122 32.2187 9.36323 32.2187 9.4264V9.8C32.2187 10.1115 32.3425 10.4102 32.5627 10.6304C32.783 10.8507 33.0817 10.9744 33.3931 10.9744C33.7046 10.9744 34.0033 10.8507 34.2236 10.6304C34.4438 10.4102 34.5675 10.1115 34.5675 9.8V8.6296C34.5667 6.60581 33.7621 4.6652 32.3308 3.23446C30.8995 1.80373 28.9585 1 26.9347 1Z" fill="#FFDF3D"/>
<path d="M26.9347 1C24.9105 1.00021 22.9693 1.80447 21.538 3.23588C20.1068 4.66728 19.3027 6.60859 19.3027 8.6328V9.8C19.3028 9.85912 19.3117 9.91791 19.3291 9.9744C19.4871 8.06575 20.3569 6.28625 21.7658 4.98907C23.1748 3.69188 25.02 2.97183 26.9351 2.97183C28.8503 2.97183 30.6955 3.69188 32.1044 4.98907C33.5134 6.28625 34.3832 8.06575 34.5411 9.9744C34.5586 9.91791 34.5675 9.85912 34.5675 9.8V8.6296C34.5667 6.60581 33.7621 4.6652 32.3308 3.23446C30.8995 1.80373 28.9585 1 26.9347 1Z" fill="#FFEF9E"/>
<path d="M26.9347 1C24.9105 1.00021 22.9693 1.80447 21.538 3.23588C20.1068 4.66728 19.3027 6.60859 19.3027 8.6328V9.8C19.3027 10.1115 19.4265 10.4102 19.6467 10.6304C19.867 10.8507 20.1657 10.9744 20.4771 10.9744C20.7886 10.9744 21.0873 10.8507 21.3076 10.6304C21.5278 10.4102 21.6515 10.1115 21.6515 9.8V9.16C21.6488 9.02611 21.6934 8.89554 21.7773 8.79123C21.8613 8.68692 21.9794 8.61553 22.1107 8.5896C23.1839 8.3248 24.1716 7.79031 24.9803 7.0368C24.9974 7.02231 25.0183 7.01302 25.0406 7.01001C25.0628 7.007 25.0854 7.0104 25.1057 7.01982C25.1261 7.02923 25.1433 7.04427 25.1554 7.06315C25.1675 7.08204 25.1739 7.10398 25.1739 7.1264V8.04C25.1712 8.18627 25.2241 8.32813 25.322 8.43685C25.4198 8.54558 25.5554 8.61305 25.7011 8.6256C27.0707 8.6864 28.2331 6.6192 28.5859 5.9192C28.5955 5.8995 28.6106 5.88303 28.6295 5.87185C28.6483 5.86066 28.67 5.85525 28.6919 5.85627C28.7138 5.85729 28.7349 5.86471 28.7526 5.8776C28.7703 5.89049 28.7838 5.90829 28.7915 5.9288C29.4515 7.6016 31.4235 8.7824 32.0355 9.1176C32.091 9.14789 32.1372 9.19255 32.1695 9.24689C32.2017 9.30122 32.2187 9.36323 32.2187 9.4264V9.8C32.2187 10.1115 32.3425 10.4102 32.5627 10.6304C32.783 10.8507 33.0817 10.9744 33.3931 10.9744C33.7046 10.9744 34.0033 10.8507 34.2236 10.6304C34.4438 10.4102 34.5675 10.1115 34.5675 9.8V8.6296C34.5667 6.60581 33.7621 4.6652 32.3308 3.23446C30.8995 1.80373 28.9585 1 26.9347 1Z" stroke="#45413C" stroke-width="0.8" stroke-linecap="round" stroke-linejoin="round"/>
</svg>
