<svg fill="none" height="69" viewBox="0 0 63 69" width="63" xmlns="http://www.w3.org/2000/svg" xmlns:xlink="http://www.w3.org/1999/xlink"><clipPath id="a"><path d="m0 0h63v69h-63z"/></clipPath><g clip-path="url(#a)"><path d="m37.627 45.6841c-3.0849-12.6492-14.0842-8.3836-13.2804-20.4784.3771-5.68-3.0643-4.8063-3.3179-3.1121-1.2186 8.2-.3959 11.7463.742 12.6132-.8569.139-4.6427-3.9051-3.7309-12.2802.3736-3.4485-3.0181-4.0562-3.2563-2.0049-.1851 1.641-.7164 4.1197-.7404 6.7443-.0462 4.9299 3.0249 8.315 3.0249 8.315-.3856-.4584-5.5785-5.6955-5.5785-14.6696 0-3.5533-3.49958-6.1092-3.69495-2.8135-.45588 7.649 1.06428 12.5806 3.67095 16.6505-2.97198-2.3765-5.49562-5.2663-7.45164-8.5329-.82606-1.3939-3.686423-1.2445-3.185987 1.2016.397607 1.9517 2.125137 4.9247 4.241697 8.7029 3.5716 6.3821 9.03523 7.4532 14.27953 10.3542 5.2443 2.9009 7.5597 10.0658 7.5597 10.0658z" fill="#efc73f"/><path d="m26.9092 57.2193c-.1631-.0001-.3219-.052-.4537-.1483-.1318-.0962-.2298-.2318-.2798-.3873-.0223-.0686-2.2931-6.9125-7.198-9.6281-1.2237-.6763-2.4851-1.2634-3.7053-1.8315-3.9418-1.8385-8.03096-3.7387-10.87419-8.8197l-.50215-.8943c-1.91776-3.4193-3.427634-6.1195-3.8218125-8.0317-.3256255-1.5912.4747265-2.513 1.3316325-2.8443 1.1774-.4549 2.64614.0343 3.27168 1.0917 1.16199 1.9517 2.54193 3.7646 4.11317 5.4037-1.51673-3.7541-2.05658-7.9785-1.75495-13.1779.10112-1.6977 1.01287-2.2727 1.82865-2.2504s1.68467.6334 2.35647 1.6307c.6824 1.0315 1.045 2.2421 1.042 3.4794-.0075 2.232.3337 4.4515 1.0112 6.5779 0-.0779 0-.1551 0-.2318.0171-1.9174.2965-3.7472.5141-5.22.0891-.5853.1714-1.1381.2263-1.6033.1353-1.2015 1.0934-1.9791 2.2776-1.847.3858.0512.756.185 1.0854.3923.3295.2074.6105.4834.8238.8093.3565.515.749 1.4282.5964 2.8237-.4181 3.8434.1611 6.6087.9255 8.4575-.1885-2.2693-.012-5.3042.5347-8.9879.0948-.5727.4013-1.0887.8585-1.4455.4573-.3569 1.0318-.5283 1.6094-.4804.6358.0686 2.6856.6471 2.3822 5.2028-.3907 5.8637 2.0926 7.5133 5.2374 9.6024 3.0352 2.0152 6.4748 4.2999 8.0173 10.6426.0484.1991.0158.4094-.0906.5845-.1063.1752-.2778.3008-.4767.3493-.1988.0484-.4088.0158-.5836-.0907-.1749-.1066-.3003-.2783-.3487-.4775-1.3985-5.7573-4.4354-7.7725-7.3694-9.7225-3.2786-2.1783-6.3737-4.2348-5.9247-10.9859.156-2.3586-.413-3.5018-1.0077-3.5653-.1818-.0071-.3601.0511-.5028.1641-.1426.113-.2403.2734-.2753.4521-.5484 3.6958-.7198 6.6791-.5141 8.8694.221 2.2933.7866 2.889.9545 3.016.1188.0918.2082.2162.2574.3581.0493.1419.0561.2951.0197.4408s-.1144.2777-.2244.3797c-.1101.102-.2475.1696-.3954.1946-.4593.0739-.9803-.1716-1.551-.7072-.4096-.3896-3.9778-4.0545-3.0695-12.4192.1714-1.5912-.5878-2.2607-1.1431-2.3225-.2331-.0257-.5227.0378-.5741.4875-.0549.4927-.1423 1.0609-.2331 1.6616-.2159 1.4231-.4867 3.1945-.5021 5.0021-.0412 4.3102 2.5038 7.4137 2.7969 7.7588l.0463.0514c.1335.1543.2006.3553.1866.559s-.1079.3935-.2612.528c-.1534.1346-.3537.2028-.5571.1899-.2034-.013-.3935-.1061-.5286-.2589l-.0634-.0721-.0445-.0498c-2.1063-2.3482-5.6625-7.4309-5.6625-15.0679 0-1.4951-.74209-2.8237-1.47389-3.3627-.27079-.2008-.43531-.2111-.46273-.2025s-.18338.218-.21766.7982c-.40103 6.7374.6941 11.7274 3.55108 16.1784.099.155.1395.3403.1142.5226-.0252.1822-.1146.3494-.252.4716-.1374.1221-.3139.191-.4975.1945-.1837.0034-.3626-.059-.5044-.1759l-.0669-.0549c-3.01466-2.4148-5.5747-5.3492-7.55963-8.6652-.27078-.4549-.95631-.6076-1.38991-.4394-.37018.1425-.49701.515-.37875 1.0934.34276 1.6754 1.80465 4.2828 3.65729 7.5837l.50215.8961c2.59986 4.6467 6.28115 6.3512 10.18005 8.1742 1.2426.5784 2.5279 1.1775 3.7996 1.8882 5.4465 3.0125 7.8236 10.198 7.9212 10.5035.0376.1159.0473.2391.0283.3595-.0191.1204-.0663.2346-.1379.3332-.0715.0986-.1653.1788-.2738.2342-.1084.0553-.2284.0842-.3501.0842z" fill="#dea81e"/><path d="m33.3443 30.6026s-13.3575-21.69712 17.7809-29.668762c6.6222 23.180262-17.7809 29.668762-17.7809 29.668762z" fill="#4550e5"/><path d="m32.9892 31.4952-.3016-.4875c-.2126-.3433-5.1844-8.5827-1.791-16.9938 2.5964-6.43878 9.3386-11.09062 20.0363-13.830224l.7266-.18538498.2057.72094898c1.9589 6.85417 1.4567 12.96506-1.491 18.16796-5.2666 9.2933-16.3619 12.3351-16.8315 12.4586zm17.5923-29.62073c-9.7687 2.62975-15.9093 6.90567-18.2538 12.71963-2.6479 6.5606.401 13.2174 1.3864 15.0884 2.3068-.7467 11.0387-3.9944 15.325-11.5661 2.6273-4.6432 3.1449-10.10356 1.5424-16.24193z" fill="#dea81e"/><path d="m37.0015 44.1169c-.1309.0005-.2598-.0325-.3744-.0959-.1145-.0633-.211-.155-.2803-.2663-.1251-.1991-3.066-4.9642-3.5579-11.6879-.3054-3.8725.3364-7.7612 1.8698-11.3292 1.9041-4.4253 5.2134-8.4523 9.8373-11.96952.1633-.11384.3643-.16006.5608-.129.1966.03107.3735.13702.4939.2957.1203.15868.1748.35783.152.5558-.0228.19798-.1211.37947-.2743.50655-4.408 3.35417-7.5546 7.17347-9.3541 11.35327-1.4324 3.3395-2.0324 6.9779-1.7481 10.6013.4645 6.3513 3.2991 10.9362 3.3265 10.9859.0737.1167.1147.251.1189.3889.0041.138-.0288.2745-.0954.3953-.0665.1209-.1642.2216-.2829.2917s-.254.107-.3918.1068z" fill="#dea81e"/><path d="m24.5898 68.2276c0-22.0473 14.996-14.57 14.0619-28.6148-.3787-5.6818 3.0643-4.8149 3.3163-3.1138 1.2185 8.1999.3976 11.7463-.7421 12.6149.8569.1373 4.6427-3.9069 3.7327-12.2819-.3753-3.4486 3.018-4.0562 3.2563-2.005.1868 1.6411.718 4.1198.742 6.7444.0446 4.9316-3.0249 8.3149-3.0249 8.3149.3788-.4583 5.5785-5.6955 5.5785-14.673 0-3.555 3.4979-6.1109 3.695-2.8152.4542 7.649-1.066 12.5806-3.6727 16.6505 2.9708-2.3703 5.4944-5.2538 7.4517-8.514.8261-1.3922 3.6847-1.2445 3.186 1.2015-.3976 1.9518-2.1269 4.9248-4.2417 8.7047-3.5716 6.3803-9.037 7.4515-14.2796 10.3524-5.2425 2.901-4.4045 7.4413-4.4045 7.4413z" fill="#efc73f"/><path d="m39.2464 69h-14.6549c-.2044-.0004-.4003-.082-.5448-.2267-.1445-.1448-.2259-.341-.2264-.5457 0-12.5394 4.881-15.9639 8.8022-18.7103 3.1569-2.2161 5.6556-3.967 5.2614-9.8479-.1045-1.5723.06-2.8237.4902-3.718.5638-1.1758 1.4276-1.435 1.8852-1.4848.5776-.0479 1.1521.1236 1.6093.4804.4573.3568.7637.8728.8586 1.4455.5587 3.6769.7301 6.7169.5398 8.9827.7644-1.8504 1.3437-4.6158.9255-8.4591-.1508-1.3956.2416-2.3053.5964-2.8237.2139-.3258.4952-.6018.8249-.8091s.7001-.3412 1.086-.3925c1.1825-.1322 2.1406.6454 2.276 1.8487.0531.4635.1371 1.0162.2262 1.6033.2245 1.471.5021 3.3026.5141 5.2183v.2317c.6774-2.1258 1.0186-4.3447 1.0112-6.5761.0001-1.2387.3656-2.4498 1.0506-3.4811.6718-.9974 1.5527-1.6067 2.3565-1.6308.8037-.024 1.7275.5545 1.8286 2.2504.3085 5.1994-.2382 9.4239-1.7532 13.1779 1.5716-1.6387 2.9516-3.4517 4.1131-5.4036.6273-1.0574 2.0943-1.5449 3.2717-1.0918.8569.3331 1.6573 1.2531 1.3334 2.8444-.3908 1.9122-1.9058 4.6123-3.8236 8.0317l-.5021.896c-2.8432 5.0793-6.9256 6.9795-10.8742 8.8179-1.2185.5682-2.4799 1.1552-3.7036 1.8333-4.7027 2.6005-4.0274 6.5846-4.0189 6.6241.0207.1116.0165.2263-.0121.336-.0286.1098-.081.2119-.1535.2991-.0725.0871-.1633.1572-.2659.2053-.1025.0481-.2144.073-.3277.0728zm-13.8819-1.5449h13.0541c0-1.6084.5844-4.9779 4.8536-7.3451 1.2716-.7037 2.557-1.3028 3.8012-1.8882 3.8972-1.8143 7.5785-3.5275 10.1784-8.1741l.5039-.8961c1.8509-3.3009 3.3128-5.9083 3.6555-7.5837.1183-.5819 0-.9509-.377-1.0934-.4336-.1717-1.1208-.0155-1.3899.4394-1.9864 3.3165-4.5482 6.2509-7.5648 8.6651l-.0651.055c-.1419.1169-.3207.1793-.5044.1759-.1837-.0035-.3601-.0724-.4975-.1946-.1375-.1221-.2268-.2893-.2521-.4716-.0253-.1822.0153-.3675.1143-.5225 2.8569-4.451 3.952-9.441 3.551-16.1784-.036-.5802-.1834-.7776-.2211-.7982s-.1885 0-.461.2025c-.7318.539-1.4722 1.8676-1.4722 3.3645 0 7.6352-3.5544 12.7178-5.6727 15.0661l-.0446.0515-.0617.0703c-.1347.1544-.3252.2488-.5294.2625-.2043.0136-.4056-.0545-.5597-.1895s-.2483-.3257-.262-.5303c-.0136-.2046.0544-.4062.1892-.5606l.048-.0532c.2964-.3433 2.8363-3.4502 2.7969-7.757-.0171-1.8076-.2862-3.579-.5039-5.0021-.0908-.6007-.1713-1.1689-.233-1.6616-.0515-.4497-.3428-.5149-.5742-.4875-.5535.0618-1.3162.7313-1.1431 2.3225.6855 6.3512-1.2219 10.6598-3.0694 12.4192-.569.5425-1.0917.7811-1.551.7072-.1479-.025-.2853-.0926-.3954-.1946s-.1881-.234-.2245-.3797-.0295-.2989.0197-.4408.1387-.2663.2574-.3581c.1714-.1287.7318-.7244.9546-3.0177.2108-2.1903.0394-5.1736-.5142-8.8694-.0349-.1784-.1323-.3386-.2746-.4515-.1424-.113-.3203-.1714-.5017-.1647-.5964.0652-1.1654 1.2016-1.0077 3.5653.4473 6.7477-2.6427 8.9174-5.9144 11.2141-3.7242 2.6229-7.9436 5.5857-8.1304 16.6831z" fill="#dea81e"/></g></svg>