<svg width="78" height="73" viewBox="0 0 78 73" fill="none" xmlns="http://www.w3.org/2000/svg">
<path d="M73.9036 36.5046C73.9042 31.0572 72.7382 25.6786 70.491 20.7634C68.2439 15.8482 64.9725 11.5211 60.9169 8.09931C56.8613 4.67754 52.1243 2.24792 47.0533 0.988639C41.9823 -0.27064 36.7059 -0.327643 31.611 0.82181C26.5162 1.97126 21.7321 4.29802 17.6097 7.63145C13.4873 10.9649 10.1311 15.2204 7.78715 20.086C5.44324 24.9516 4.17109 30.3038 4.06401 35.7501C3.95693 41.1965 5.01763 46.5988 7.16832 51.5609H70.7919C72.8461 46.832 73.9071 41.6981 73.9036 36.5046Z" fill="#C7F0FF"/>
<path d="M7.16797 51.5608C9.93801 57.9519 14.4118 63.3731 20.0537 67.1754C25.6957 70.9777 32.2666 72.9999 38.9797 72.9999C45.6929 72.9999 52.2638 70.9777 57.9058 67.1754C63.5477 63.3731 68.0215 57.9519 70.7915 51.5608H7.16797Z" fill="#CCF7AD"/>
<path d="M4.92969 51.5608H73.0304" stroke="#45413C" stroke-linecap="round" stroke-linejoin="round"/>
<path d="M1 51.5608H3.18272" stroke="#45413C" stroke-linecap="round" stroke-linejoin="round"/>
<path d="M74.7754 51.5608H76.9581" stroke="#45413C" stroke-linecap="round" stroke-linejoin="round"/>
<path d="M18.9102 29.4829H28.4181V51.5791H18.9102V29.4829Z" fill="#DAEDF7" stroke="#45413C" stroke-linecap="round" stroke-linejoin="round"/>
<path d="M58.4766 32.7952H67.9845V51.579H58.4766V32.7952Z" fill="#DAEDF7" stroke="#45413C" stroke-linecap="round" stroke-linejoin="round"/>
<path d="M55.8555 54.6177L60.3394 49.9314L65.5686 55.3965L61.0846 60.0828L55.8555 54.6177Z" fill="#ADC4D9" stroke="#45413C" stroke-linecap="round" stroke-linejoin="round"/>
<path d="M76.0273 64.7655C76.8076 65.5964 77.2424 66.7157 77.2372 67.8799C77.2319 69.0442 76.7871 70.1591 75.9993 70.9823C75.2116 71.8055 74.1447 72.2703 73.0307 72.2756C71.9168 72.2809 70.8459 71.8263 70.051 71.0107L61.087 61.642C60.9889 61.5396 60.911 61.4179 60.8578 61.2839C60.8047 61.15 60.7773 61.0064 60.7773 60.8614C60.7773 60.7164 60.8047 60.5728 60.8578 60.4388C60.911 60.3049 60.9889 60.1832 61.087 60.0807L65.5686 55.3932C65.7668 55.1864 66.0354 55.0703 66.3155 55.0703C66.5956 55.0703 66.8642 55.1864 67.0624 55.3932L76.0273 64.7655Z" fill="#BF8256"/>
<path d="M65.5693 55.3932L63.3281 57.7384C63.5265 57.5315 63.7953 57.4154 64.0755 57.4154C64.3557 57.4154 64.6245 57.5315 64.8229 57.7384L73.7868 67.107C74.3812 67.7289 74.7843 68.5223 74.9444 69.3853C75.1044 70.2482 75.0142 71.1415 74.6852 71.9505C75.3237 71.6706 75.8864 71.2305 76.3235 70.6693C76.7607 70.108 77.0588 69.4429 77.1915 68.7326C77.3243 68.0223 77.2875 67.2889 77.0846 66.5969C76.8817 65.905 76.5188 65.276 76.028 64.7655L67.0632 55.3932C66.865 55.1864 66.5963 55.0703 66.3163 55.0703C66.0362 55.0703 65.7676 55.1864 65.5693 55.3932Z" fill="#DEA47A"/>
<path d="M76.0273 64.7655C76.8076 65.5964 77.2424 66.7157 77.2372 67.8799C77.2319 69.0442 76.7871 70.1591 75.9993 70.9823C75.2116 71.8055 74.1447 72.2703 73.0307 72.2756C71.9168 72.2809 70.8459 71.8263 70.051 71.0107L61.087 61.642C60.9889 61.5396 60.911 61.4179 60.8578 61.2839C60.8047 61.15 60.7773 61.0064 60.7773 60.8614C60.7773 60.7164 60.8047 60.5728 60.8578 60.4388C60.911 60.3049 60.9889 60.1832 61.087 60.0807L65.5686 55.3932C65.7668 55.1864 66.0354 55.0703 66.3155 55.0703C66.5956 55.0703 66.8642 55.1864 67.0624 55.3932L76.0273 64.7655Z" stroke="#45413C" stroke-linecap="round" stroke-linejoin="round"/>
<path d="M20.9727 36.6598C20.9727 39.7047 21.5465 42.7198 22.6614 45.5329C23.7763 48.346 25.4105 50.9021 27.4705 53.0552C29.5306 55.2083 31.9763 56.9162 34.6679 58.0814C37.3595 59.2466 40.2444 59.8464 43.1578 59.8464C46.0712 59.8464 48.956 59.2466 51.6477 58.0814C54.3393 56.9162 56.785 55.2083 58.845 53.0552C60.9051 50.9021 62.5393 48.346 63.6542 45.5329C64.7691 42.7198 65.3429 39.7047 65.3429 36.6598C65.3429 33.6149 64.7691 30.5998 63.6542 27.7866C62.5393 24.9735 60.9051 22.4174 58.845 20.2643C56.785 18.1113 54.3393 16.4034 51.6477 15.2381C48.956 14.0729 46.0712 13.4731 43.1578 13.4731C40.2444 13.4731 37.3595 14.0729 34.6679 15.2381C31.9763 16.4034 29.5306 18.1113 27.4705 20.2643C25.4105 22.4174 23.7763 24.9735 22.6614 27.7866C21.5465 30.5998 20.9727 33.6149 20.9727 36.6598Z" fill="#DAEDF7"/>
<path d="M43.156 17.8896C48.6736 17.89 53.993 20.0396 58.0757 23.9185C62.1585 27.7975 64.7115 33.1275 65.2364 38.868C65.3019 38.138 65.3429 37.408 65.3429 36.6598C65.3429 33.6149 64.7691 30.5998 63.6542 27.7866C62.5393 24.9735 60.9051 22.4174 58.845 20.2643C56.785 18.1113 54.3393 16.4034 51.6477 15.2381C48.956 14.0729 46.0712 13.4731 43.1578 13.4731C40.2444 13.4731 37.3595 14.0729 34.6679 15.2381C31.9763 16.4034 29.5306 18.1113 27.4705 20.2643C25.4105 22.4174 23.7763 24.9735 22.6614 27.7866C21.5465 30.5998 20.9727 33.6149 20.9727 36.6598C20.9727 37.4053 21.0137 38.1408 21.0792 38.868C21.6042 33.1282 24.1568 27.7989 28.2387 23.92C32.3207 20.0411 37.6391 17.8912 43.156 17.8896Z" fill="white"/>
<path d="M20.9727 36.6598C20.9727 39.7047 21.5465 42.7198 22.6614 45.5329C23.7763 48.346 25.4105 50.9021 27.4705 53.0552C29.5306 55.2083 31.9763 56.9162 34.6679 58.0814C37.3595 59.2466 40.2444 59.8464 43.1578 59.8464C46.0712 59.8464 48.956 59.2466 51.6477 58.0814C54.3393 56.9162 56.785 55.2083 58.845 53.0552C60.9051 50.9021 62.5393 48.346 63.6542 45.5329C64.7691 42.7198 65.3429 39.7047 65.3429 36.6598C65.3429 33.6149 64.7691 30.5998 63.6542 27.7866C62.5393 24.9735 60.9051 22.4174 58.845 20.2643C56.785 18.1113 54.3393 16.4034 51.6477 15.2381C48.956 14.0729 46.0712 13.4731 43.1578 13.4731C40.2444 13.4731 37.3595 14.0729 34.6679 15.2381C31.9763 16.4034 29.5306 18.1113 27.4705 20.2643C25.4105 22.4174 23.7763 24.9735 22.6614 27.7866C21.5465 30.5998 20.9727 33.6149 20.9727 36.6598V36.6598Z" stroke="#45413C" stroke-linecap="round" stroke-linejoin="round"/>
<path d="M25.7266 36.6597C25.7266 41.4914 27.5631 46.1253 30.832 49.5418C34.101 52.9584 38.5347 54.8778 43.1577 54.8778C47.7808 54.8778 52.2145 52.9584 55.4834 49.5418C58.7524 46.1253 60.5889 41.4914 60.5889 36.6597C60.5889 31.828 58.7524 27.1941 55.4834 23.7776C52.2145 20.361 47.7808 18.4417 43.1577 18.4417C38.5347 18.4417 34.101 20.361 30.832 23.7776C27.5631 27.1941 25.7266 31.828 25.7266 36.6597Z" fill="#00B8F0"/>
<path d="M30.8323 49.5416C27.5872 46.1199 25.7711 41.494 25.7813 36.6762C25.7915 31.8583 27.6273 27.2409 30.8869 23.8343C34.1466 20.4276 38.5646 18.5091 43.1744 18.4986C47.7841 18.4881 52.2101 20.3864 55.4839 23.7781L30.8323 49.5416Z" fill="#4ACFFF"/>
<path d="M25.7266 36.6597C25.7266 41.4914 27.5631 46.1253 30.832 49.5418C34.101 52.9584 38.5347 54.8778 43.1577 54.8778C47.7808 54.8778 52.2145 52.9584 55.4834 49.5418C58.7524 46.1253 60.5889 41.4914 60.5889 36.6597C60.5889 31.828 58.7524 27.1941 55.4834 23.7776C52.2145 20.361 47.7808 18.4417 43.1577 18.4417C38.5347 18.4417 34.101 20.361 30.832 23.7776C27.5631 27.1941 25.7266 31.828 25.7266 36.6597V36.6597Z" stroke="#45413C" stroke-linecap="round" stroke-linejoin="round"/>
<path d="M35.1401 23.9624C34.8854 23.9624 34.6411 24.0682 34.461 24.2564C34.2809 24.4446 34.1797 24.6999 34.1797 24.9662V52.2499C36.5429 53.7457 39.2135 54.6304 41.9696 54.8306C44.7258 55.0307 47.4878 54.5404 50.0262 53.4006V24.9662C50.0262 24.6999 49.925 24.4446 49.7449 24.2564C49.5648 24.0682 49.3205 23.9624 49.0658 23.9624H35.1401Z" fill="#80DDFF"/>
<path d="M50.0262 24.9662C50.0262 24.6999 49.925 24.4446 49.7449 24.2564C49.5648 24.0682 49.3205 23.9624 49.0658 23.9624H35.1401C34.8854 23.9624 34.6411 24.0682 34.461 24.2564C34.2809 24.4446 34.1797 24.6999 34.1797 24.9662V46.0449L50.0262 29.483V24.9662Z" fill="#B8ECFF"/>
<path d="M34.1797 27.2747H41.5747" stroke="#45413C" stroke-linecap="round" stroke-linejoin="round"/>
<path d="M34.1797 30.5869H38.4054" stroke="#45413C" stroke-linecap="round" stroke-linejoin="round"/>
<path d="M35.1401 23.9624C34.8854 23.9624 34.6411 24.0682 34.461 24.2564C34.2809 24.4446 34.1797 24.6999 34.1797 24.9662V52.2499C36.5429 53.7457 39.2135 54.6304 41.9696 54.8306C44.7258 55.0307 47.4878 54.5404 50.0262 53.4006V24.9662C50.0262 24.6999 49.925 24.4446 49.7449 24.2564C49.5648 24.0682 49.3205 23.9624 49.0658 23.9624H35.1401Z" stroke="#45413C" stroke-linecap="round" stroke-linejoin="round"/>
<path d="M51.0808 50.4658C51.0808 50.173 51.1921 49.8921 51.3902 49.6851C51.5883 49.478 51.8571 49.3617 52.1372 49.3617H54.2501C54.4261 49.3644 54.5985 49.4138 54.7513 49.5053C54.904 49.5967 55.0319 49.7272 55.1232 49.8846C56.854 48.1799 58.2329 46.1232 59.1752 43.8411H44.7422V54.7938C46.9535 54.5846 49.1056 53.9321 51.0808 52.8721V50.4658Z" fill="#F7E5C6"/>
<path d="M60.0411 41.1101L54.1119 37.7339C53.8306 37.5741 53.5154 37.4905 53.1952 37.4905C52.875 37.4905 52.5599 37.5741 52.2785 37.7339L43.4961 42.7326V43.8367H59.1776C59.5343 42.9532 59.823 42.0415 60.0411 41.1101Z" fill="#FF6242"/>
<path d="M60.0411 41.1101L54.1119 37.7339C53.8306 37.5741 53.5154 37.4905 53.1952 37.4905C52.875 37.4905 52.5599 37.5741 52.2785 37.7339L43.4961 42.7326V43.8367H44.9358L52.4304 39.5707C52.665 39.4374 52.9277 39.3675 53.1948 39.3675C53.4618 39.3675 53.7246 39.4374 53.9592 39.5707L59.5653 42.7645C59.7477 42.2225 59.9101 41.6713 60.0411 41.1101Z" fill="#FF866E"/>
<path d="M60.0411 41.1101L54.1119 37.7339C53.8306 37.5741 53.5154 37.4905 53.1952 37.4905C52.875 37.4905 52.5599 37.5741 52.2785 37.7339L43.4961 42.7326V43.8367H59.1776C59.5343 42.9532 59.823 42.0415 60.0411 41.1101V41.1101Z" stroke="#45413C" stroke-linecap="round" stroke-linejoin="round"/>
<path d="M44.7422 43.8364V46.0447H58.0768C58.492 45.3358 58.8602 44.598 59.1787 43.8364H44.7422Z" fill="#F0D5A8"/>
<path d="M54.2526 49.3569H52.1424C51.8622 49.3569 51.5935 49.4733 51.3954 49.6803C51.1972 49.8874 51.0859 50.1682 51.0859 50.4611V52.8719C52.5635 52.0806 53.9256 51.0731 55.1309 49.8798C55.0392 49.7217 54.9104 49.5907 54.7567 49.4992C54.603 49.4077 54.4295 49.3587 54.2526 49.3569Z" fill="#915E3A" stroke="#45413C" stroke-linecap="round" stroke-linejoin="round"/>
<path d="M51.0808 50.4658C51.0808 50.173 51.1921 49.8921 51.3902 49.6851C51.5883 49.478 51.8571 49.3617 52.1372 49.3617H54.2501C54.4261 49.3644 54.5985 49.4138 54.7513 49.5053C54.904 49.5967 55.0319 49.7272 55.1232 49.8846C56.854 48.1799 58.2329 46.1232 59.1752 43.8411H44.7422V54.7938C46.9535 54.5846 49.1056 53.9321 51.0808 52.8721V50.4658Z" stroke="#45413C" stroke-linecap="round" stroke-linejoin="round"/>
<path d="M29.8569 35.0039C29.6022 35.0039 29.3579 35.1097 29.1778 35.2979C28.9977 35.4861 28.8965 35.7414 28.8965 36.0077V47.1164C30.3486 49.2829 32.2355 51.0923 34.4254 52.4183C36.6154 53.7444 39.0557 54.5552 41.5763 54.7942V36.0077C41.5763 35.7414 41.4751 35.4861 41.295 35.2979C41.1149 35.1097 40.8706 35.0039 40.6159 35.0039H29.8569Z" fill="#BDBEC0"/>
<path d="M41.5763 36.0077C41.5763 35.7414 41.4751 35.4861 41.295 35.2979C41.1149 35.1097 40.8706 35.0039 40.6159 35.0039H29.8569C29.6022 35.0039 29.3579 35.1097 29.1778 35.2979C28.9977 35.4861 28.8965 35.7414 28.8965 36.0077V47.1164C29.4734 47.9818 30.1208 48.7936 30.8312 49.5428L41.5702 38.319L41.5763 36.0077Z" fill="#E0E0E0"/>
<path d="M28.8965 38.3162H41.5737" stroke="#45413C" stroke-linecap="round" stroke-linejoin="round"/>
<path d="M28.8965 41.6284H41.5737" stroke="#45413C" stroke-linecap="round" stroke-linejoin="round"/>
<path d="M28.8965 44.9407H41.5737" stroke="#45413C" stroke-linecap="round" stroke-linejoin="round"/>
<path d="M32.0664 37.2119V38.316" stroke="#45413C" stroke-linecap="round" stroke-linejoin="round"/>
<path d="M35.2344 37.2119V38.316" stroke="#45413C" stroke-linecap="round" stroke-linejoin="round"/>
<path d="M38.4043 37.2119V38.316" stroke="#45413C" stroke-linecap="round" stroke-linejoin="round"/>
<path d="M32.0664 40.5242V41.6283" stroke="#45413C" stroke-linecap="round" stroke-linejoin="round"/>
<path d="M35.2344 40.5242V41.6283" stroke="#45413C" stroke-linecap="round" stroke-linejoin="round"/>
<path d="M38.4043 40.5242V41.6283" stroke="#45413C" stroke-linecap="round" stroke-linejoin="round"/>
<path d="M32.0664 43.8364V44.9405" stroke="#45413C" stroke-linecap="round" stroke-linejoin="round"/>
<path d="M35.2344 43.8364V44.9405" stroke="#45413C" stroke-linecap="round" stroke-linejoin="round"/>
<path d="M38.4043 43.8364V44.9405" stroke="#45413C" stroke-linecap="round" stroke-linejoin="round"/>
<path d="M32.0664 47.1487V48.2528" stroke="#45413C" stroke-linecap="round" stroke-linejoin="round"/>
<path d="M35.2344 47.1487V48.2528" stroke="#45413C" stroke-linecap="round" stroke-linejoin="round"/>
<path d="M38.4043 47.1487V48.2528" stroke="#45413C" stroke-linecap="round" stroke-linejoin="round"/>
<path d="M35.2344 50.4609V51.5651" stroke="#45413C" stroke-linecap="round" stroke-linejoin="round"/>
<path d="M38.4043 50.4609V51.5651" stroke="#45413C" stroke-linecap="round" stroke-linejoin="round"/>
<path d="M38.4043 53.7737V54.1898" stroke="#45413C" stroke-linecap="round" stroke-linejoin="round"/>
<path d="M33.1562 51.5657C35.6431 53.3964 38.5475 54.5099 41.5772 54.7941V51.5657H33.1562Z" stroke="#45413C" stroke-linecap="round" stroke-linejoin="round"/>
<path d="M33.1553 51.5653H41.5762V48.2529H29.7109C30.7121 49.5131 31.8706 50.6272 33.1553 51.5653V51.5653Z" stroke="#45413C" stroke-linecap="round" stroke-linejoin="round"/>
<path d="M41.5774 48.2534V36.0077C41.5774 35.7414 41.4762 35.4861 41.2961 35.2979C41.116 35.1097 40.8717 35.0039 40.617 35.0039H29.8588C29.6041 35.0039 29.3598 35.1097 29.1797 35.2979C28.9996 35.4861 28.8984 35.7414 28.8984 36.0077V47.1164C29.1604 47.5042 29.4223 47.8884 29.7122 48.2534H41.5774Z" stroke="#45413C" stroke-linecap="round" stroke-linejoin="round"/>
<path opacity="0.15" d="M32.6719 66.2867C32.6719 66.483 32.9431 66.6773 33.4702 66.8587C33.9972 67.04 34.7697 67.2048 35.7436 67.3436C36.7175 67.4824 37.8736 67.5925 39.146 67.6676C40.4184 67.7427 41.7822 67.7813 43.1594 67.7813C44.5366 67.7813 45.9004 67.7427 47.1728 67.6676C48.4452 67.5925 49.6013 67.4824 50.5752 67.3436C51.549 67.2048 52.3215 67.04 52.8486 66.8587C53.3756 66.6773 53.6469 66.483 53.6469 66.2867C53.6469 66.0904 53.3756 65.896 52.8486 65.7147C52.3215 65.5333 51.549 65.3686 50.5752 65.2298C49.6013 65.091 48.4452 64.9809 47.1728 64.9058C45.9004 64.8307 44.5366 64.792 43.1594 64.792C41.7822 64.792 40.4184 64.8307 39.146 64.9058C37.8736 64.9809 36.7175 65.091 35.7436 65.2298C34.7697 65.3686 33.9972 65.5333 33.4702 65.7147C32.9431 65.896 32.6719 66.0904 32.6719 66.2867Z" fill="#45413C"/>
<path d="M19.2927 51.5792H9.32812V45.8687L14.3108 41.4431L19.2927 45.8687V51.5792Z" fill="#DAEDF7" stroke="#45413C" stroke-linecap="round" stroke-linejoin="round"/>
<path d="M19.3641 46.6068C19.1131 46.6077 18.8703 46.5145 18.6796 46.344L14.3814 42.527L10.084 46.344C9.86959 46.5244 9.59627 46.6102 9.32225 46.5831C9.04822 46.556 8.79512 46.4182 8.61683 46.1991C8.43854 45.9799 8.34912 45.6967 8.36763 45.4096C8.38613 45.1226 8.51108 44.8545 8.7159 44.6623L13.6977 40.2358C13.8885 40.0656 14.131 39.9722 14.3818 39.9722C14.6326 39.9722 14.8751 40.0656 15.0659 40.2358L20.0477 44.6623C20.2121 44.8087 20.3296 45.0043 20.3844 45.2226C20.4392 45.441 20.4286 45.6716 20.3541 45.8835C20.2796 46.0954 20.1448 46.2783 19.9678 46.4077C19.7907 46.537 19.58 46.6065 19.3641 46.6068Z" fill="#E8F4FA" stroke="#45413C" stroke-linecap="round" stroke-linejoin="round"/>
<path d="M15.6667 51.5654H13.0273V49.0807C13.0362 48.7208 13.1792 48.3788 13.4259 48.1275C13.6726 47.8762 14.0034 47.7356 14.3479 47.7356C14.6924 47.7356 15.0232 47.8762 15.2699 48.1275C15.5166 48.3788 15.6596 48.7208 15.6684 49.0807L15.6667 51.5654Z" fill="#E8F4FA" stroke="#45413C" stroke-linecap="round" stroke-linejoin="round"/>
</svg>
