<svg width="75" height="60" viewBox="0 0 75 60" fill="none" xmlns="http://www.w3.org/2000/svg">
<g clip-path="url(#clip0_2466_18504)">
<path d="M29.8114 9.44861L13.8296 46.4915C13.3457 47.6101 13.1599 48.8374 13.2907 50.0513C13.4214 51.2651 13.8642 52.4231 14.5748 53.41C15.2854 54.3968 16.2392 55.178 17.341 55.6757C18.4428 56.1735 19.6543 56.3704 20.8547 56.2469C31.9629 55.1102 48.5986 53.372 60.1348 52.1691C61.4371 52.035 62.6804 51.5512 63.736 50.7677C64.7916 49.9841 65.6211 48.9294 66.1387 47.7126C66.6563 46.4958 66.8431 45.1611 66.6799 43.8467C66.5167 42.5323 66.0094 41.2859 65.2104 40.2365L40.7176 8.08934C40.0425 7.19709 39.1486 6.49889 38.1247 6.06397C37.1007 5.62905 35.9822 5.47251 34.88 5.60988C33.7779 5.74724 32.7303 6.17375 31.8412 6.84709C30.9521 7.52044 30.2524 8.41725 29.8114 9.44861Z" fill="#EFC73F"/>
<g opacity="0.5">
<path opacity="0.5" d="M30.6331 11.9327C30.6588 11.8066 30.7029 11.685 30.7638 11.5719C30.8173 11.4576 30.8768 11.3072 30.9659 11.1449L31.3285 10.5855C31.4711 10.387 31.6672 10.1825 31.8693 9.94798C32.1136 9.71283 32.376 9.49765 32.6538 9.30444C33.3482 8.80993 34.1451 8.48282 34.9837 8.34814C35.8124 8.19616 36.6639 8.2288 37.4789 8.44382C38.2939 8.65883 39.0528 9.05104 39.7027 9.59313L40.0712 9.91189C40.1842 10.0262 40.2911 10.1525 40.3981 10.2788C40.6229 10.5226 40.8333 10.7797 41.0281 11.0486L46.5496 18.1817L60.8613 36.8265L62.8999 39.4909C63.6432 40.4697 64.1188 41.6292 64.2788 42.853C64.4072 43.8058 64.3441 44.775 64.0932 45.7025C63.8423 46.63 63.4088 47.4967 62.8188 48.2505C62.2288 49.0042 61.4943 49.6297 60.6595 50.0891C59.8248 50.5486 58.9069 50.8327 57.9609 50.9243L54.3117 51.3032L46.8527 52.0851L32.1487 53.6007L25.1533 54.3165L23.4475 54.4909L22.6035 54.5751L21.7001 54.6052C20.5046 54.5688 19.3423 54.1983 18.3421 53.5346C17.3838 52.9002 16.6018 52.0284 16.0702 51.0021C15.5387 49.9757 15.2752 48.8289 15.305 47.6705C15.3347 47.3878 15.3347 47.1052 15.3823 46.8345C15.4298 46.5639 15.4952 46.2872 15.5665 46.0226L15.8399 45.2527C15.935 45.0061 16.042 44.7776 16.143 44.543C16.5393 43.6128 16.9355 42.6946 17.3317 41.7884L21.7298 31.7443C24.4222 25.6096 26.6153 20.6477 28.1487 17.2315C28.9273 15.5354 29.5276 14.2242 29.9318 13.304C30.1205 12.8368 30.3471 12.3862 30.6093 11.9568C30.4829 12.445 30.3118 12.9202 30.0982 13.3762C29.7237 14.3024 29.1769 15.6497 28.4697 17.3758C27.0373 20.8401 24.9036 25.8381 22.3182 32.0089C21.0047 35.0943 19.5724 38.4744 18.0271 42.1012L16.8384 44.8618C16.7374 45.0963 16.6304 45.3369 16.5412 45.5655L16.3035 46.2511C16.2441 46.4857 16.2025 46.7262 16.149 46.9668C16.0955 47.2074 16.1133 47.448 16.0836 47.6946C16.0657 48.7074 16.3029 49.7082 16.7729 50.6026C17.2429 51.497 17.9302 52.2556 18.77 52.8068C19.6434 53.3773 20.655 53.6936 21.6942 53.721H22.4787L23.3227 53.6368L25.0284 53.4564L32.0179 52.7166L46.7873 51.1228L54.2463 50.353L57.8955 49.974C59.0191 49.8683 60.0923 49.4522 60.998 48.7712C61.8776 48.0997 62.5659 47.2046 62.9929 46.1767C63.4198 45.1488 63.5703 44.0249 63.4289 42.9191C63.294 41.8503 62.8841 40.8362 62.2402 39.9781L60.2194 37.3016L46.0681 18.5607C44.0593 15.8902 42.2465 13.4724 40.6537 11.3433C40.4576 11.0787 40.2614 10.808 40.0593 10.5855C39.9583 10.4712 39.8632 10.3509 39.7622 10.2427L39.4293 9.94798C39 9.57531 38.517 9.27109 37.997 9.04581C37.0704 8.66803 36.0619 8.54358 35.0728 8.68495C34.2774 8.79112 33.5146 9.07237 32.8381 9.50893C32.5675 9.69166 32.3094 9.89259 32.0655 10.1104C31.8634 10.3269 31.6613 10.5133 31.5068 10.7118L31.1264 11.223C31.0253 11.3794 30.954 11.5178 30.8886 11.626C30.7401 11.8305 30.6509 11.9448 30.6331 11.9327Z" fill="white"/>
</g>
<path opacity="0.5" d="M33.1936 20.4009L35.571 35.1663C35.6611 35.7515 35.9614 36.2825 36.4143 36.6576C36.8672 37.0327 37.4409 37.2255 38.0256 37.1992C38.6427 37.1789 39.2277 36.9165 39.6569 36.4675C40.0862 36.0185 40.326 35.4182 40.3257 34.7934L40.4921 19.6972C40.4946 19.4276 40.4405 19.1605 40.3335 18.9136C40.2264 18.6667 40.0689 18.4455 39.8712 18.2648C39.6734 18.084 39.4401 17.9478 39.1865 17.865C38.9329 17.7822 38.6649 17.7548 38.4001 17.7846L34.834 18.1936C34.5805 18.2235 34.3356 18.3052 34.1143 18.4337C33.8929 18.5623 33.6997 18.735 33.5463 18.9414C33.3929 19.1478 33.2825 19.3836 33.2219 19.6345C33.1613 19.8854 33.1516 20.1461 33.1936 20.4009Z" fill="white"/>
<path opacity="0.5" d="M42.442 44.5911C42.2858 45.2946 41.927 45.9353 41.4109 46.4324C40.8948 46.9294 40.2446 47.2604 39.5426 47.3835C38.8406 47.5065 38.1183 47.4161 37.4671 47.1237C36.8159 46.8313 36.265 46.35 35.8841 45.7407C35.5032 45.1314 35.3094 44.4215 35.3273 43.7008C35.3452 42.98 35.5739 42.2808 35.9845 41.6916C36.3951 41.1024 36.9692 40.6497 37.6341 40.3907C38.299 40.1317 39.0249 40.0781 39.7199 40.2367C40.6505 40.4506 41.4594 41.0289 41.9696 41.845C42.4798 42.6611 42.6496 43.6486 42.442 44.5911Z" fill="white"/>
<path d="M12.809 0.685537L0.922166 11.698C0.562594 12.0307 0.29547 12.4529 0.147425 12.9226C-0.000619691 13.3924 -0.0244136 13.8931 0.0784106 14.3751C0.181235 14.857 0.407082 15.3032 0.733451 15.6693C1.05982 16.0354 1.4753 16.3085 1.93849 16.4614C6.21775 17.8868 12.6366 20.0039 17.0883 21.4774C17.5899 21.6401 18.1253 21.665 18.6395 21.5494C19.1538 21.4338 19.6285 21.182 20.0149 20.8197C20.4013 20.4574 20.6857 19.9977 20.8387 19.4876C20.9918 18.9776 21.0082 18.4355 20.8861 17.9169L17.0704 2.02074C16.9709 1.57421 16.7567 1.16213 16.4496 0.826023C16.1426 0.489915 15.7533 0.241657 15.3212 0.106266C14.8891 -0.0291254 14.4294 -0.0468708 13.9883 0.0548271C13.5473 0.156525 13.1405 0.374071 12.809 0.685537Z" fill="#EFC73F"/>
<g opacity="0.5">
<path opacity="0.5" d="M12.7064 1.73813C12.7064 1.73813 12.8074 1.53364 13.1521 1.30509C13.6875 0.979409 14.328 0.880031 14.9352 1.02843C15.3819 1.13286 15.7925 1.35724 16.1238 1.67798C16.5008 2.06928 16.7587 2.56197 16.8668 3.09739C17.1402 4.1439 17.4611 5.32874 17.788 6.63388C18.4477 9.27421 19.2322 12.3957 20.1059 15.866C20.2129 16.3051 20.3199 16.7441 20.4328 17.1892C20.5287 17.5941 20.5443 18.0143 20.4785 18.4253C20.4128 18.8363 20.267 19.23 20.0497 19.5836C19.8325 19.9372 19.548 20.2436 19.2128 20.4851C18.8776 20.7266 18.4983 20.8983 18.0971 20.9903C17.5397 21.118 16.9585 21.091 16.4151 20.9121L15.0065 20.449L12.1299 19.4988L6.45984 17.6102L3.76747 16.7081L3.10775 16.4855L2.78087 16.3773L2.41237 16.2269C2.06191 16.0588 1.74775 15.8222 1.48797 15.5308C1.22818 15.2394 1.0279 14.8989 0.898649 14.5288C0.769395 14.1588 0.713725 13.7666 0.734827 13.3747C0.75593 12.9828 0.853393 12.599 1.02161 12.2453C1.13126 12.0302 1.26486 11.8284 1.41982 11.6439L1.6635 11.3853L1.8953 11.1748L2.79275 10.3628L6.06163 7.41575C8.07051 5.61142 9.699 4.17397 10.8164 3.20565C11.376 2.65613 11.9916 2.16824 12.6529 1.75016C12.1994 2.36994 11.6879 2.94397 11.1254 3.46427C10.0556 4.52281 8.49249 6.04446 6.54305 7.90292L3.34549 10.9402L2.46586 11.7702L2.24596 11.9807L2.06765 12.1732C1.96078 12.311 1.86911 12.4602 1.79426 12.6182C1.64306 12.9508 1.57791 13.3169 1.60495 13.682C1.63198 14.047 1.7503 14.3992 1.94879 14.7052C2.15468 15.0169 2.44017 15.2663 2.77492 15.427L3.04237 15.5352L3.36926 15.6435L4.02304 15.854L6.7273 16.7381L12.4033 18.6026L15.2739 19.5589L16.6825 20.028C17.0654 20.159 17.4764 20.1819 17.8712 20.0942C18.2568 20.0046 18.6124 19.8142 18.9023 19.5418C19.1923 19.2695 19.4065 18.9249 19.5235 18.5425C19.6303 18.1686 19.6426 17.7736 19.5591 17.3937C19.4522 16.9486 19.3511 16.5036 19.2501 16.0705C18.4537 12.5822 17.7286 9.45465 17.1223 6.79627L16.3319 3.22369C16.268 2.76764 16.0762 2.3397 15.7791 1.99073C15.5194 1.70981 15.1915 1.50248 14.8282 1.38929C14.3057 1.22489 13.7422 1.25694 13.2413 1.47951C12.9085 1.62987 12.7361 1.77421 12.7064 1.73813Z" fill="white"/>
</g>
<path opacity="0.5" d="M12.2796 5.28662L10.77 11.1266C10.7092 11.3603 10.7364 11.6084 10.8462 11.8229C10.956 12.0374 11.1407 12.2029 11.3643 12.2874C11.5951 12.3794 11.852 12.3782 12.082 12.2842C12.312 12.1903 12.4976 12.0106 12.6006 11.7822L15.1087 6.24292C15.1532 6.14376 15.1764 6.03616 15.1768 5.92725C15.1772 5.81834 15.1547 5.71059 15.1109 5.61111C15.0671 5.51163 15.0029 5.42269 14.9226 5.35016C14.8423 5.27764 14.7477 5.22319 14.6451 5.1904L13.2603 4.75133C13.1613 4.71641 13.0562 4.70273 12.9517 4.71116C12.8473 4.71959 12.7456 4.74994 12.6534 4.8003C12.5611 4.85065 12.4803 4.91991 12.4159 5.00364C12.3516 5.08737 12.3051 5.18374 12.2796 5.28662Z" fill="white"/>
<path opacity="0.5" d="M11.768 15.7458C11.5964 15.9781 11.3606 16.1537 11.0905 16.2506C10.8203 16.3474 10.5278 16.361 10.25 16.2897C9.97215 16.2184 9.72143 16.0654 9.52948 15.85C9.33753 15.6346 9.21297 15.3665 9.17151 15.0795C9.13004 14.7925 9.17355 14.4995 9.29653 14.2375C9.41951 13.9755 9.61645 13.7563 9.86248 13.6075C10.1085 13.4587 10.3926 13.387 10.6788 13.4015C10.9651 13.416 11.2407 13.516 11.4708 13.6888C11.6241 13.804 11.7534 13.9485 11.8513 14.1143C11.9492 14.2801 12.0138 14.4638 12.0414 14.6549C12.069 14.846 12.0591 15.0407 12.0121 15.2279C11.9652 15.4151 11.8823 15.5911 11.768 15.7458Z" fill="white"/>
<path d="M58.4764 4.10194L55.7781 16.5518C55.6958 16.9278 55.7123 17.3191 55.8261 17.6866C55.94 18.0541 56.1471 18.3849 56.4268 18.646C56.7065 18.9072 57.0491 19.0895 57.4202 19.1748C57.7913 19.26 58.1781 19.2453 58.5418 19.132L70.4286 15.4331C70.8223 15.3093 71.1762 15.0815 71.4539 14.7732C71.7316 14.4648 71.923 14.0871 72.0084 13.679C72.0938 13.2709 72.0701 12.8471 71.9397 12.4513C71.8093 12.0556 71.577 11.7021 71.2666 11.4275L61.7572 3.00731C61.4944 2.77576 61.1766 2.61736 60.8351 2.54767C60.4935 2.47798 60.1399 2.49939 59.809 2.6098C59.478 2.72021 59.1812 2.91582 58.9476 3.17743C58.7139 3.43903 58.5516 3.75764 58.4764 4.10194Z" fill="#EFC73F"/>
<g opacity="0.5">
<path opacity="0.5" d="M58.8823 4.81756C58.8823 4.81756 58.8407 4.63713 58.9596 4.33039C59.053 4.10234 59.1905 3.89548 59.364 3.72196C59.5375 3.54845 59.7435 3.41177 59.97 3.31997C60.3045 3.18084 60.6699 3.13514 61.0279 3.18765C61.4555 3.27368 61.8496 3.48248 62.1631 3.7891L64.3324 5.59343L69.9311 10.405L70.7335 11.1027C71.0621 11.3941 71.31 11.7673 71.4526 12.1852C71.5974 12.6167 71.6269 13.0793 71.5382 13.5261C71.4495 13.9728 71.2457 14.3879 70.9475 14.7294C70.633 15.0771 70.2331 15.3344 69.7885 15.4751L68.683 15.824L66.4245 16.5277L61.967 17.905L59.863 18.5545L59.3459 18.7109L59.0903 18.7891L58.7753 18.8613C58.3502 18.9323 57.914 18.8823 57.5153 18.7169C57.1343 18.5622 56.7994 18.3102 56.5432 17.9856C56.2869 17.661 56.1181 17.2747 56.0533 16.8645C56.0291 16.6647 56.0291 16.4628 56.0533 16.263L56.0949 15.9743L56.1484 15.7338L56.3623 14.8075C56.6476 13.6046 56.9091 12.4679 57.1528 11.4395C57.6402 9.37651 58.0562 7.71652 58.3415 6.56776C58.4641 5.95891 58.6638 5.36862 58.9358 4.81155C58.9432 5.41989 58.8712 6.02656 58.7218 6.61588C58.5257 7.81877 58.2107 9.47273 57.8066 11.5477L57.129 14.9459C57.0636 15.2526 57.0042 15.5473 56.9388 15.8721L56.8913 16.1067V16.3051C56.8765 16.433 56.8765 16.5622 56.8913 16.6901C56.9392 16.9579 57.0539 17.209 57.2244 17.4195C57.395 17.63 57.6158 17.7929 57.866 17.8929C58.1217 17.9912 58.3988 18.0182 58.6684 17.9711L58.8704 17.917L59.126 17.8388L59.6431 17.6764L61.7589 17.0028L66.2105 15.6075L68.4691 14.9098L69.5805 14.567C69.8678 14.4829 70.1268 14.3206 70.3293 14.0978C70.5232 13.8783 70.6565 13.611 70.716 13.3228C70.7755 13.0346 70.759 12.7356 70.6681 12.4559C70.5811 12.1821 70.4231 11.937 70.2105 11.7462L69.3725 11.0425C67.316 9.17201 65.4676 7.48797 63.8986 6.06856L61.8184 4.13793C61.609 3.89395 61.334 3.71685 61.0269 3.62822C60.7198 3.53958 60.3939 3.54324 60.0888 3.63874C59.6907 3.76741 59.35 4.0335 59.126 4.39054C58.9655 4.6672 58.9239 4.82959 58.8823 4.81756Z" fill="#EFC73F"/>
</g>
<path opacity="0.5" d="M60.1886 7.27752L61.8171 11.6981C61.8828 11.8725 62.0088 12.0168 62.1717 12.1042C62.3345 12.1915 62.5233 12.2161 62.7027 12.1733C62.8972 12.1354 63.0688 12.0211 63.1802 11.8554C63.2916 11.6897 63.3336 11.4861 63.297 11.2892L62.4352 6.60992C62.4197 6.52653 62.387 6.44739 62.3391 6.37773C62.2913 6.30806 62.2294 6.24943 62.1575 6.20569C62.0857 6.16195 62.0055 6.1341 61.9222 6.12395C61.839 6.1138 61.7545 6.12159 61.6745 6.14681L60.5928 6.49565C60.5138 6.51737 60.4401 6.55537 60.3763 6.60728C60.3125 6.65918 60.2599 6.72387 60.222 6.79728C60.184 6.87068 60.1615 6.95124 60.1558 7.03388C60.15 7.11652 60.1612 7.19947 60.1886 7.27752Z" fill="white"/>
<path opacity="0.5" d="M64.5152 14.1881C64.5046 14.414 64.4284 14.6316 64.2961 14.8138C64.1638 14.996 63.9813 15.1347 63.7714 15.2124C63.5616 15.2901 63.3338 15.3034 63.1165 15.2507C62.8992 15.198 62.7022 15.0815 62.55 14.9159C62.3978 14.7504 62.2974 14.543 62.2611 14.3199C62.2249 14.0968 62.2545 13.8678 62.3463 13.6617C62.4381 13.4555 62.588 13.2814 62.7771 13.1611C62.9663 13.0407 63.1864 12.9796 63.4097 12.9852C63.5609 12.9891 63.7098 13.0234 63.8476 13.0863C63.9855 13.1491 64.1096 13.2393 64.2126 13.3513C64.3155 13.4634 64.3953 13.5951 64.4473 13.7388C64.4993 13.8825 64.5224 14.0353 64.5152 14.1881Z" fill="white"/>
<path d="M7.98233 59.2421C7.82728 59.1308 7.68739 58.9994 7.56628 58.8511C7.40685 58.6929 7.25794 58.5241 7.12052 58.3459C6.96005 58.1414 6.76392 57.9129 6.58562 57.6362C6.14534 56.997 5.76339 56.3186 5.44449 55.6094C5.06349 54.7362 4.76692 53.8278 4.55891 52.8969C4.36627 51.961 4.26672 51.008 4.26174 50.052C4.26025 49.2731 4.3319 48.4957 4.4757 47.7305C4.52325 47.3997 4.6124 47.129 4.67184 46.8584C4.72341 46.6391 4.79095 46.424 4.87391 46.2148C4.92291 46.029 4.99691 45.8509 5.09383 45.6855C5.15326 45.6855 4.87986 46.4734 4.68967 47.7665C4.58485 48.5216 4.53716 49.2836 4.54702 50.046C4.56976 50.9819 4.67519 51.9138 4.86203 52.8307C5.06371 53.7407 5.34618 54.6305 5.706 55.4891C6.00584 56.1908 6.36164 56.8666 6.76987 57.5099C7.46525 58.6106 8.02393 59.2 7.98233 59.2421Z" fill="#263238"/>
<path d="M13.1594 60.0001C12.9768 59.9128 12.8052 59.8038 12.6482 59.6753C12.4548 59.539 12.2702 59.3903 12.0955 59.2302C11.8549 59.0279 11.6248 58.8131 11.4061 58.5867C10.834 58.0001 10.3186 57.3597 9.86673 56.6741C9.32099 55.8255 8.8667 54.9202 8.51163 53.9736C8.16901 53.0237 7.92597 52.0399 7.78654 51.0386C7.67791 50.2214 7.65202 49.3951 7.70927 48.5726C7.72401 48.2561 7.75775 47.9408 7.81031 47.6284C7.84046 47.3915 7.88412 47.1565 7.94106 46.9247C7.97522 46.7181 8.03306 46.5163 8.11342 46.3232C8.17879 46.3232 7.97078 47.1773 7.92917 48.5606C7.90689 49.365 7.95263 50.1699 8.06588 50.9664C8.21865 51.9441 8.46344 52.9047 8.79692 53.8353C9.1497 54.7589 9.58748 55.6469 10.1045 56.4876C10.5363 57.1686 11.0255 57.8105 11.5666 58.4062C12.4937 59.4467 13.195 59.9519 13.1594 60.0001Z" fill="#263238"/>
<path d="M68.4378 53.5947C68.3843 53.5646 68.8479 52.7286 69.3709 51.2851C69.6763 50.439 69.9245 49.573 70.1139 48.6929C70.3406 47.6173 70.4837 46.5253 70.5418 45.427C70.5844 44.3271 70.5466 43.2255 70.4289 42.1311C70.3214 41.2367 70.1546 40.3506 69.9296 39.4788C69.5492 37.9932 69.1629 37.1091 69.2223 37.073C69.3459 37.2601 69.4457 37.4622 69.5195 37.6744C69.7689 38.2336 69.9775 38.8105 70.1436 39.4006C70.3995 40.2767 70.5883 41.1715 70.7082 42.077C71.0041 44.2993 70.8973 46.5575 70.3932 48.741C70.1897 49.6294 69.9175 50.5001 69.579 51.3452C69.3516 51.9233 69.0835 52.4841 68.7766 53.0233C68.6861 53.2265 68.5724 53.4182 68.4378 53.5947Z" fill="#263238"/>
<path d="M73.2115 52.3556C73.158 52.3556 73.5324 51.6459 73.9247 50.461C74.1587 49.7705 74.3396 49.0627 74.4655 48.344C74.6094 47.4632 74.6829 46.5722 74.6854 45.6796C74.6734 44.7875 74.5859 43.8981 74.4239 43.0212C74.2861 42.3047 74.0974 41.5992 73.8593 40.9101C73.4433 39.7373 73.0629 39.0577 73.1164 39.0276C73.2399 39.1634 73.3422 39.3175 73.4195 39.4847C73.6703 39.9148 73.8851 40.3655 74.0614 40.8319C74.3375 41.5209 74.5523 42.2334 74.7033 42.961C74.8846 43.8559 74.9821 44.7661 74.9945 45.6796C74.9915 46.5914 74.908 47.5012 74.7449 48.3981C74.6084 49.1279 74.4096 49.8443 74.1505 50.5392C73.9773 51.0078 73.7686 51.4623 73.5265 51.8985C73.4465 52.067 73.3402 52.2214 73.2115 52.3556Z" fill="#263238"/>
</g>
<defs>
<clipPath id="clip0_2466_18504">
<rect width="75" height="60" fill="white"/>
</clipPath>
</defs>
</svg>
