<svg fill="none" height="17" viewBox="0 0 9 17" width="9" xmlns="http://www.w3.org/2000/svg"><path d="m4.49602 16.3533h.06667c.77446-.0134 1.53231-.2716 2.19742-.7485s1.21405-1.1558 1.5916-1.9684c.37755-.8127.57042-1.7304.55925-2.661s-.22601-1.84123-.62291-2.64043l-3.57387-7.1966c-.03418-.06895-.08269-.12606-.14075-.165725-.05807-.039662-.12371-.060519-.1905-.060536h-.00532c-.06773.00119-.13401.023791-.19216.065535-.05815.041746-.10611.101156-.13908.172256l-3.4 7.31776c-.374269.80666-.5666996 1.71684-.5582102 2.64034.0084895.9235.2175962 1.8283.6066032 2.6248.389007.7966.944407 1.4572 1.611237 1.9165.66682.4593 1.42193.7013 2.19054.7021zm3.12954-7.54402c.32751.65948.50481 1.41092.51403 2.17882.00923.7679-.14994 1.5252-.46147 2.1958-.31154.6706-.7645 1.2308-1.31333 1.6244-.54883.3935-1.17418.6066-1.81324.6177-.63907.0111-1.26934-.1802-1.82742-.5545-.55807-.3743-1.02427-.9185-1.35182-1.578s-.504875-1.4109-.514137-2.1788.149867-1.52522.461377-2.19581l2.78974-6.00445.28432-.61275z" fill="#3153ce"/></svg>