<svg fill="none" height="73" viewBox="0 0 78 73" width="78" xmlns="http://www.w3.org/2000/svg"><path d="m73.9036 36.5046c.0006-5.4474-1.1654-10.826-3.4126-15.7412-2.2471-4.9152-5.5185-9.2423-9.5741-12.66409-4.0556-3.42177-8.7926-5.85139-13.8636-7.110671-5.071-1.259279-10.3474-1.316282-15.4423-.166829-5.0948 1.14945-9.8789 3.47621-14.0013 6.80964-4.1224 3.33345-7.4786 7.58895-9.82255 12.45455-2.34391 4.8656-3.61606 10.2178-3.72314 15.6641-.10708 5.4464.95362 10.8487 3.10431 15.8108h63.62358c2.0542-4.7289 3.1152-9.8628 3.1117-15.0563z" fill="#c7f0ff"/><path d="m7.16797 51.5608c2.77004 6.3911 7.24383 11.8123 12.88573 15.6146 5.642 3.8023 12.2129 5.8245 18.926 5.8245 6.7132 0 13.2841-2.0222 18.9261-5.8245 5.6419-3.8023 10.1157-9.2235 12.8857-15.6146z" fill="#ccf7ad"/><path d="m4.92969 51.5608h68.10071" stroke="#45413c" stroke-linecap="round" stroke-linejoin="round"/><path d="m1 51.5608h2.18272" stroke="#45413c" stroke-linecap="round" stroke-linejoin="round"/><path d="m74.7754 51.5608h2.1827" stroke="#45413c" stroke-linecap="round" stroke-linejoin="round"/><path d="m18.9102 29.4829h9.5079v22.0962h-9.5079z" fill="#daedf7" stroke="#45413c" stroke-linecap="round" stroke-linejoin="round"/><path d="m58.4766 32.7952h9.5079v18.7838h-9.5079z" fill="#daedf7" stroke="#45413c" stroke-linecap="round" stroke-linejoin="round"/><path d="m55.8555 54.6177 4.4839-4.6863 5.2292 5.4651-4.484 4.6863z" fill="#adc4d9" stroke="#45413c" stroke-linecap="round" stroke-linejoin="round"/><path d="m76.0273 64.7655c.7803.8309 1.2151 1.9502 1.2099 3.1144-.0053 1.1643-.4501 2.2792-1.2379 3.1024-.7877.8232-1.8546 1.288-2.9686 1.2933-1.1139.0053-2.1848-.4493-2.9797-1.2649l-8.964-9.3687c-.0981-.1024-.176-.2241-.2292-.3581-.0531-.1339-.0805-.2775-.0805-.4225s.0274-.2886.0805-.4226c.0532-.1339.1311-.2556.2292-.3581l4.4816-4.6875c.1982-.2068.4668-.3229.7469-.3229s.5487.1161.7469.3229z" fill="#bf8256"/><path d="m65.5693 55.3932-2.2412 2.3452c.1984-.2069.4672-.323.7474-.323s.549.1161.7474.323l8.9639 9.3686c.5944.6219.9975 1.4153 1.1576 2.2783.16.8629.0698 1.7562-.2592 2.5652.6385-.2799 1.2012-.72 1.6383-1.2812.4372-.5613.7353-1.2264.868-1.9367.1328-.7103.096-1.4437-.1069-2.1357-.2029-.6919-.5658-1.3209-1.0566-1.8314l-8.9648-9.3723c-.1982-.2068-.4669-.3229-.7469-.3229-.2801 0-.5487.1161-.747.3229z" fill="#dea47a"/><path d="m76.0273 64.7655c.7803.8309 1.2151 1.9502 1.2099 3.1144-.0053 1.1643-.4501 2.2792-1.2379 3.1024-.7877.8232-1.8546 1.288-2.9686 1.2933-1.1139.0053-2.1848-.4493-2.9797-1.2649l-8.964-9.3687c-.0981-.1024-.176-.2241-.2292-.3581-.0531-.1339-.0805-.2775-.0805-.4225s.0274-.2886.0805-.4226c.0532-.1339.1311-.2556.2292-.3581l4.4816-4.6875c.1982-.2068.4668-.3229.7469-.3229s.5487.1161.7469.3229z" stroke="#45413c" stroke-linecap="round" stroke-linejoin="round"/><path d="m20.9727 36.6598c0 3.0449.5738 6.06 1.6887 8.8731s2.7491 5.3692 4.8091 7.5223c2.0601 2.1531 4.5058 3.861 7.1974 5.0262s5.5765 1.765 8.4899 1.765 5.7982-.5998 8.4899-1.765c2.6916-1.1652 5.1373-2.8731 7.1973-5.0262 2.0601-2.1531 3.6943-4.7092 4.8092-7.5223s1.6887-5.8282 1.6887-8.8731-.5738-6.06-1.6887-8.8732c-1.1149-2.8131-2.7491-5.3692-4.8092-7.5223-2.06-2.153-4.5057-3.8609-7.1973-5.0262-2.6917-1.1652-5.5765-1.765-8.4899-1.765s-5.7983.5998-8.4899 1.765c-2.6916 1.1653-5.1373 2.8732-7.1974 5.0262-2.06 2.1531-3.6942 4.7092-4.8091 7.5223-1.1149 2.8132-1.6887 5.8283-1.6887 8.8732z" fill="#daedf7"/><path d="m43.156 17.8896c5.5176.0004 10.837 2.15 14.9197 6.0289 4.0828 3.879 6.6358 9.209 7.1607 14.9495.0655-.73.1065-1.46.1065-2.2082 0-3.0449-.5738-6.06-1.6887-8.8732-1.1149-2.8131-2.7491-5.3692-4.8092-7.5223-2.06-2.153-4.5057-3.8609-7.1973-5.0262-2.6917-1.1652-5.5765-1.765-8.4899-1.765s-5.7983.5998-8.4899 1.765c-2.6916 1.1653-5.1373 2.8732-7.1974 5.0262-2.06 2.1531-3.6942 4.7092-4.8091 7.5223-1.1149 2.8132-1.6887 5.8283-1.6887 8.8732 0 .7455.041 1.481.1065 2.2082.525-5.7398 3.0776-11.0691 7.1595-14.948 4.082-3.8789 9.4004-6.0288 14.9173-6.0304z" fill="#fff"/><path d="m20.9727 36.6598c0 3.0449.5738 6.06 1.6887 8.8731s2.7491 5.3692 4.8091 7.5223c2.0601 2.1531 4.5058 3.861 7.1974 5.0262s5.5765 1.765 8.4899 1.765 5.7982-.5998 8.4899-1.765c2.6916-1.1652 5.1373-2.8731 7.1973-5.0262 2.0601-2.1531 3.6943-4.7092 4.8092-7.5223s1.6887-5.8282 1.6887-8.8731-.5738-6.06-1.6887-8.8732c-1.1149-2.8131-2.7491-5.3692-4.8092-7.5223-2.06-2.153-4.5057-3.8609-7.1973-5.0262-2.6917-1.1652-5.5765-1.765-8.4899-1.765s-5.7983.5998-8.4899 1.765c-2.6916 1.1653-5.1373 2.8732-7.1974 5.0262-2.06 2.1531-3.6942 4.7092-4.8091 7.5223-1.1149 2.8132-1.6887 5.8283-1.6887 8.8732z" stroke="#45413c" stroke-linecap="round" stroke-linejoin="round"/><path d="m25.7266 36.6597c0 4.8317 1.8365 9.4656 5.1054 12.8821 3.269 3.4166 7.7027 5.336 12.3257 5.336 4.6231 0 9.0568-1.9194 12.3257-5.336 3.269-3.4165 5.1055-8.0504 5.1055-12.8821s-1.8365-9.4656-5.1055-12.8821c-3.2689-3.4166-7.7026-5.3359-12.3257-5.3359-4.623 0-9.0567 1.9193-12.3257 5.3359-3.2689 3.4165-5.1054 8.0504-5.1054 12.8821z" fill="#00b8f0"/><path d="m30.8323 49.5416c-3.2451-3.4217-5.0612-8.0476-5.051-12.8654.0102-4.8179 1.846-9.4353 5.1056-12.8419 3.2597-3.4067 7.6777-5.3252 12.2875-5.3357 4.6097-.0105 9.0357 1.8878 12.3095 5.2795z" fill="#4acfff"/><path d="m25.7266 36.6597c0 4.8317 1.8365 9.4656 5.1054 12.8821 3.269 3.4166 7.7027 5.336 12.3257 5.336 4.6231 0 9.0568-1.9194 12.3257-5.336 3.269-3.4165 5.1055-8.0504 5.1055-12.8821s-1.8365-9.4656-5.1055-12.8821c-3.2689-3.4166-7.7026-5.3359-12.3257-5.3359-4.623 0-9.0567 1.9193-12.3257 5.3359-3.2689 3.4165-5.1054 8.0504-5.1054 12.8821z" stroke="#45413c" stroke-linecap="round" stroke-linejoin="round"/><path d="m35.1401 23.9624c-.2547 0-.499.1058-.6791.294s-.2813.4435-.2813.7098v27.2837c2.3632 1.4958 5.0338 2.3805 7.7899 2.5807 2.7562.2001 5.5182-.2902 8.0566-1.43v-28.4344c0-.2663-.1012-.5216-.2813-.7098s-.4244-.294-.6791-.294z" fill="#80ddff"/><path d="m50.0262 24.9662c0-.2663-.1012-.5216-.2813-.7098s-.4244-.294-.6791-.294h-13.9257c-.2547 0-.499.1058-.6791.294s-.2813.4435-.2813.7098v21.0787l15.8465-16.5619z" fill="#b8ecff"/><path d="m34.1797 27.2747h7.395" stroke="#45413c" stroke-linecap="round" stroke-linejoin="round"/><path d="m34.1797 30.5869h4.2257" stroke="#45413c" stroke-linecap="round" stroke-linejoin="round"/><path d="m35.1401 23.9624c-.2547 0-.499.1058-.6791.294s-.2813.4435-.2813.7098v27.2837c2.3632 1.4958 5.0338 2.3805 7.7899 2.5807 2.7562.2001 5.5182-.2902 8.0566-1.43v-28.4344c0-.2663-.1012-.5216-.2813-.7098s-.4244-.294-.6791-.294z" stroke="#45413c" stroke-linecap="round" stroke-linejoin="round"/><path d="m51.0808 50.4658c0-.2928.1113-.5737.3094-.7807.1981-.2071.4669-.3234.747-.3234h2.1129c.176.0027.3484.0521.5012.1436.1527.0914.2806.2219.3719.3793 1.7308-1.7047 3.1097-3.7614 4.052-6.0435h-14.433v10.9527c2.2113-.2092 4.3634-.8617 6.3386-1.9217z" fill="#f7e5c6"/><path d="m60.0411 41.1101-5.9292-3.3762c-.2813-.1598-.5965-.2434-.9167-.2434s-.6353.0836-.9167.2434l-8.7824 4.9987v1.1041h15.6815c.3567-.8835.6454-1.7952.8635-2.7266z" fill="#ff6242"/><path d="m60.0411 41.1101-5.9292-3.3762c-.2813-.1598-.5965-.2434-.9167-.2434s-.6353.0836-.9167.2434l-8.7824 4.9987v1.1041h1.4397l7.4946-4.266c.2346-.1333.4973-.2032.7644-.2032.267 0 .5298.0699.7644.2032l5.6061 3.1938c.1824-.542.3448-1.0932.4758-1.6544z" fill="#ff866e"/><path d="m60.0411 41.1101-5.9292-3.3762c-.2813-.1598-.5965-.2434-.9167-.2434s-.6353.0836-.9167.2434l-8.7824 4.9987v1.1041h15.6815c.3567-.8835.6454-1.7952.8635-2.7266z" stroke="#45413c" stroke-linecap="round" stroke-linejoin="round"/><path d="m44.7422 43.8364v2.2083h13.3346c.4152-.7089.7834-1.4467 1.1019-2.2083z" fill="#f0d5a8"/><path d="m54.2526 49.3569h-2.1102c-.2802 0-.5489.1164-.747.3234-.1982.2071-.3095.4879-.3095.7808v2.4108c1.4776-.7913 2.8397-1.7988 4.045-2.9921-.0917-.1581-.2205-.2891-.3742-.3806s-.3272-.1405-.5041-.1423z" fill="#915e3a" stroke="#45413c" stroke-linecap="round" stroke-linejoin="round"/><path d="m51.0808 50.4658c0-.2928.1113-.5737.3094-.7807.1981-.2071.4669-.3234.747-.3234h2.1129c.176.0027.3484.0521.5012.1436.1527.0914.2806.2219.3719.3793 1.7308-1.7047 3.1097-3.7614 4.052-6.0435h-14.433v10.9527c2.2113-.2092 4.3634-.8617 6.3386-1.9217z" stroke="#45413c" stroke-linecap="round" stroke-linejoin="round"/><path d="m29.8569 35.0039c-.2547 0-.499.1058-.6791.294s-.2813.4435-.2813.7098v11.1087c1.4521 2.1665 3.339 3.9759 5.5289 5.3019 2.19 1.3261 4.6303 2.1369 7.1509 2.3759v-18.7865c0-.2663-.1012-.5216-.2813-.7098s-.4244-.294-.6791-.294z" fill="#bdbec0"/><path d="m41.5763 36.0077c0-.2663-.1012-.5216-.2813-.7098s-.4244-.294-.6791-.294h-10.759c-.2547 0-.499.1058-.6791.294s-.2813.4435-.2813.7098v11.1087c.5769.8654 1.2243 1.6772 1.9347 2.4264l10.739-11.2238z" fill="#e0e0e0"/><g stroke="#45413c" stroke-linecap="round" stroke-linejoin="round"><path d="m28.8965 38.3162h12.6772"/><path d="m28.8965 41.6284h12.6772"/><path d="m28.8965 44.9407h12.6772"/><path d="m32.0664 37.2119v1.1041"/><path d="m35.2344 37.2119v1.1041"/><path d="m38.4043 37.2119v1.1041"/><path d="m32.0664 40.5242v1.1041"/><path d="m35.2344 40.5242v1.1041"/><path d="m38.4043 40.5242v1.1041"/><path d="m32.0664 43.8364v1.1041"/><path d="m35.2344 43.8364v1.1041"/><path d="m38.4043 43.8364v1.1041"/><path d="m32.0664 47.1487v1.1041"/><path d="m35.2344 47.1487v1.1041"/><path d="m38.4043 47.1487v1.1041"/><path d="m35.2344 50.4609v1.1042"/><path d="m38.4043 50.4609v1.1042"/><path d="m38.4043 53.7737v.4161"/><path d="m33.1562 51.5657c2.4869 1.8307 5.3913 2.9442 8.421 3.2284v-3.2284z"/><path d="m33.1553 51.5653h8.4209v-3.3124h-11.8653c1.0012 1.2602 2.1597 2.3743 3.4444 3.3124z"/><path d="m41.5774 48.2534v-12.2457c0-.2663-.1012-.5216-.2813-.7098s-.4244-.294-.6791-.294h-10.7582c-.2547 0-.499.1058-.6791.294s-.2813.4435-.2813.7098v11.1087c.262.3878.5239.772.8138 1.137z"/></g><path d="m32.6719 66.2867c0 .1963.2712.3906.7983.572.527.1813 1.2995.3461 2.2734.4849s2.13.2489 3.4024.324 2.6362.1137 4.0134.1137 2.741-.0386 4.0134-.1137 2.4285-.1852 3.4024-.324c.9738-.1388 1.7463-.3036 2.2734-.4849.527-.1814.7983-.3757.7983-.572s-.2713-.3907-.7983-.572c-.5271-.1814-1.2996-.3461-2.2734-.4849-.9739-.1388-2.13-.2489-3.4024-.324s-2.6362-.1138-4.0134-.1138-2.741.0387-4.0134.1138-2.4285.1852-3.4024.324-1.7464.3035-2.2734.4849c-.5271.1813-.7983.3757-.7983.572z" fill="#45413c" opacity=".15"/><path d="m19.2927 51.5792h-9.96458v-5.7105l4.98268-4.4256 4.9819 4.4256z" fill="#daedf7" stroke="#45413c" stroke-linecap="round" stroke-linejoin="round"/><path d="m19.3641 46.6068c-.251.0009-.4938-.0923-.6845-.2628l-4.2982-3.817-4.2974 3.817c-.21441.1804-.48773.2662-.76175.2391-.27403-.0271-.52713-.1649-.70542-.384-.17829-.2192-.26771-.5024-.2492-.7895.0185-.287.14345-.5551.34827-.7473l4.9818-4.4265c.1908-.1702.4333-.2636.6841-.2636s.4933.0934.6841.2636l4.9818 4.4265c.1644.1464.2819.342.3367.5603.0548.2184.0442.449-.0303.6609s-.2093.3948-.3863.5242c-.1771.1293-.3878.1988-.6037.1991z" fill="#e8f4fa" stroke="#45413c" stroke-linecap="round" stroke-linejoin="round"/><path d="m15.6667 51.5654h-2.6394v-2.4847c.0089-.3599.1519-.7019.3986-.9532s.5775-.3919.922-.3919.6753.1406.922.3919.3897.5933.3985.9532z" fill="#e8f4fa" stroke="#45413c" stroke-linecap="round" stroke-linejoin="round"/></svg>