<svg xmlns="http://www.w3.org/2000/svg" width="20" height="22" fill="none"><path fill="#0DAF27" d="M10 21c5.523 0 10-4.477 10-10S15.523 1 10 1 0 5.477 0 11s4.477 10 10 10Z"/><path fill="#fff" d="M8.023 8.245a.335.335 0 0 0-.312.213.34.34 0 0 0-.024.131v3.436a.333.333 0 0 0 .336.338.335.335 0 0 0 .316-.207.338.338 0 0 0 .027-.13V8.588a.344.344 0 0 0-.343-.344Zm0 4.788a1.024 1.024 0 0 1-.72-.302 1.033 1.033 0 0 1-.3-.723V8.572c0-.272.108-.533.299-.725a1.018 1.018 0 0 1 1.742.725v3.436a1.027 1.027 0 0 1-1.02 1.025Z"/><path fill="#fff" d="M9.386 8.245a.341.341 0 0 0-.342.344v3.436a.338.338 0 0 0 .342.338.335.335 0 0 0 .342-.338V8.59a.344.344 0 0 0-.342-.344Zm0 4.788c-.271 0-.53-.108-.722-.3a1.027 1.027 0 0 1-.299-.725V8.572c0-.272.108-.533.3-.725a1.018 1.018 0 0 1 1.741.725v3.436c0 .272-.107.533-.299.725-.191.192-.45.3-.721.3Z"/><path fill="#fff" d="M10.749 8.245a.341.341 0 0 0-.342.344v3.436a.338.338 0 0 0 .342.338.329.329 0 0 0 .312-.208.335.335 0 0 0 .024-.13V8.59a.34.34 0 0 0-.336-.344Zm0 4.788c-.27 0-.53-.108-.722-.3a1.027 1.027 0 0 1-.298-.725V8.572c0-.272.107-.533.299-.725a1.018 1.018 0 0 1 1.742.725v3.436c-.002.271-.11.531-.301.723-.191.192-.45.3-.72.302Z"/><path fill="#fff" d="M12.104 8.245a.334.334 0 0 0-.312.213.338.338 0 0 0-.024.131v3.436a.331.331 0 0 0 .336.338.335.335 0 0 0 .343-.338V8.59a.344.344 0 0 0-.343-.344Zm0 4.788a1.033 1.033 0 0 1-1.02-1.025V8.572c0-.272.107-.533.299-.725a1.018 1.018 0 0 1 1.742.725v3.436a1.019 1.019 0 0 1-1.02 1.025ZM5.983 12.347a.337.337 0 0 1-.342-.338V10.64a.345.345 0 0 1 .342-.343.341.341 0 0 1 .342.343v1.37a.34.34 0 0 1-.342.337Z"/><path fill="#fff" d="M3.992 16.695h-1.28a.329.329 0 0 1-.308-.209.333.333 0 0 1-.023-.128.339.339 0 0 1 .33-.344h.95V11.35a.333.333 0 0 1 .331-.338h1.996a.33.33 0 0 1 .336.338.339.339 0 0 1-.336.343h-1.66v4.665a.339.339 0 0 1-.336.337ZM14.146 9.958a.336.336 0 0 1-.336-.343V8.246a.333.333 0 0 1 .336-.338.335.335 0 0 1 .342.338v1.369a.344.344 0 0 1-.342.343Z"/><path fill="#fff" d="M17.343 16.236h-1.829a.32.32 0 0 1-.285-.343V9.3h-1.14a.313.313 0 0 1-.285-.338.322.322 0 0 1 .285-.344h1.42a.319.319 0 0 1 .284.344v6.586h1.545a.313.313 0 0 1 .279.344.315.315 0 0 1-.28.343"/></svg>