<svg width="82" height="84" viewBox="0 0 82 84" fill="none" xmlns="http://www.w3.org/2000/svg">
<g clip-path="url(#clip0_2195_17410)">
<path d="M64.26 56.03C63.8554 56.2462 63.4037 56.3594 62.9449 56.3594C62.4862 56.3594 62.0346 56.2462 61.63 56.03C58.0463 53.8328 54.8133 51.109 52.0399 47.95C47.1199 42.41 44.4299 36.36 44.2699 30.46C44.2315 28.9611 44.495 27.4698 45.0448 26.0749C45.5945 24.6799 46.4193 23.4098 47.4699 22.34C48.4474 21.3386 49.6154 20.543 50.9052 20.0003C52.1951 19.4576 53.5806 19.1787 54.9799 19.18H55.14C56.5782 19.2035 57.9968 19.5166 59.3112 20.1008C60.6257 20.685 61.8087 21.5282 62.7899 22.58C57.8986 17.2558 51.2306 13.9022 44.0399 13.15C44.3539 13.6102 44.5143 14.1578 44.4981 14.7146C44.482 15.2714 44.2901 15.8089 43.9499 16.25L39.1699 22.47C38.8656 22.8649 38.4748 23.1847 38.0275 23.4049C37.5803 23.625 37.0884 23.7397 36.5899 23.74C36.3544 23.7381 36.1198 23.7113 35.89 23.66L33.0199 23.02L31.5799 22.7V28.33L31.7999 28.2C32.3948 27.8125 33.09 27.6074 33.7999 27.61C34.6036 27.6082 35.3862 27.8675 36.0299 28.3488C36.6735 28.8301 37.1435 29.5074 37.3691 30.2788C37.5947 31.0502 37.5636 31.874 37.2806 32.6263C36.9976 33.3785 36.478 34.0185 35.7999 34.45L31.0299 37.5C31.2785 38.0344 31.3869 38.6232 31.3449 39.2111C31.3029 39.799 31.1119 40.3664 30.7899 40.86L30.5899 41.19C30.266 41.6901 29.8214 42.1006 29.2971 42.3838C28.7728 42.6669 28.1858 42.8134 27.5899 42.81C26.9204 42.8102 26.2648 42.6194 25.6999 42.26L24.63 41.57L23.7299 42.15C23.1351 42.5375 22.4399 42.7426 21.7299 42.74C21.4607 42.7403 21.1923 42.7101 20.9299 42.65C20.4522 42.548 19.9999 42.3512 19.5997 42.0713C19.1995 41.7913 18.8595 41.4338 18.5999 41.02C18.2713 40.5075 18.0738 39.9219 18.025 39.315C17.9762 38.7081 18.0774 38.0985 18.3199 37.54L13.3199 34.34C13.0303 34.1617 12.7704 33.939 12.5499 33.68C11.026 38.4765 10.7412 43.5807 11.7221 48.5169C12.7031 53.4532 14.9178 58.0607 18.1599 61.91C18.1599 61.78 18.1599 61.65 18.1599 61.53C18.4399 57.6617 20.0576 54.0114 22.7354 51.2057C25.4132 48.3999 28.9842 46.6137 32.8353 46.1536C36.6864 45.6936 40.5775 46.5882 43.8409 48.6841C47.1043 50.78 49.5365 53.9465 50.7199 57.64L53.7199 69.41C53.7199 69.41 53.7199 69.47 53.7199 69.5C60.823 66.1077 66.2999 60.0486 68.9599 52.64L68.3599 53.13C67.0707 54.1928 65.6998 55.1524 64.26 56" fill="#EFC73F"/>
<path d="M30.8297 16.28L34.8297 17.68L35.8297 18.04L39.8297 13.04C35.7247 13.212 31.6999 14.2335 28.0098 16.04H29.0797C29.6961 16.0421 30.3078 16.1469 30.8898 16.35" fill="#EFC73F"/>
<path d="M68.7697 50.2599V50.08L68.1797 50.5L68.5897 51.94C68.6664 51.9187 68.7475 51.9196 68.8236 51.9426C68.8997 51.9656 68.9676 52.0098 69.0197 52.0699C69.0601 52.119 69.0877 52.1775 69.0997 52.24C69.2097 51.92 69.3097 51.59 69.4097 51.24L69.2297 51.14C69.0809 51.0403 68.9598 50.9046 68.8776 50.7455C68.7954 50.5864 68.7548 50.409 68.7598 50.2299" fill="#ABE8FF"/>
<path d="M17.2396 28.03V24.73C16.5572 25.6303 15.9262 26.5685 15.3496 27.54C16.0138 27.5168 16.6704 27.687 17.2396 28.03Z" fill="#EFC73F"/>
<path d="M18.0681 28.5601L24.6481 32.7601L30.2582 29.18L30.7482 28.8601V22.1901C30.7481 22.1265 30.7624 22.0638 30.7902 22.0067C30.8179 21.9495 30.8582 21.8994 30.9081 21.8601C30.9565 21.821 31.0132 21.7936 31.0739 21.7797C31.1345 21.7658 31.1976 21.766 31.2582 21.7801L32.8281 22.1301L34.0881 18.3301L30.5181 17.0701C30.0279 16.8908 29.5101 16.7994 28.9882 16.8001H19.2981C18.7442 16.7988 18.1948 16.9005 17.6781 17.1001L14.8281 18.1701L15.7582 22.2501L17.2681 21.8001L17.4481 21.7001C17.5112 21.6611 17.5839 21.6405 17.6581 21.6405C17.7322 21.6405 17.805 21.6611 17.8682 21.7001C17.9296 21.7378 17.9802 21.7908 18.0153 21.8539C18.0503 21.9169 18.0685 21.9879 18.0681 22.0601V28.5601Z" fill="#4550E5"/>
<path d="M14.96 22.48L14.0399 18.48L12.84 18.93C12.7564 18.9607 12.6652 18.9647 12.5793 18.9414C12.4933 18.9181 12.4167 18.8687 12.36 18.8L8.18997 13.51C7.88735 13.1436 7.45347 12.9101 6.98099 12.8594C6.50851 12.8087 6.03488 12.9448 5.66141 13.2386C5.28794 13.5324 5.04427 13.9607 4.98233 14.4318C4.9204 14.9029 5.04514 15.3796 5.32999 15.76L10.33 22.24C10.6267 22.6248 11.0328 22.9109 11.495 23.0608C11.9572 23.2107 12.4539 23.2174 12.92 23.08L14.96 22.48Z" fill="white"/>
<path d="M35.8293 18.92L34.8293 18.64L33.6094 22.35L36.0293 22.89C36.4785 22.9864 36.9459 22.954 37.3776 22.7966C37.8092 22.6391 38.1877 22.363 38.4694 22L43.2494 15.79C43.3997 15.5963 43.5092 15.3741 43.571 15.1369C43.6329 14.8997 43.646 14.6524 43.6094 14.41C43.5716 14.1658 43.4847 13.9319 43.3541 13.7222C43.2235 13.5125 43.0518 13.3315 42.8494 13.19C42.4697 12.9256 42.0032 12.8166 41.5457 12.8854C41.0882 12.9542 40.6745 13.1956 40.3894 13.56L36.2094 18.84C36.1559 18.907 36.0828 18.9556 36.0002 18.9789C35.9177 19.0023 35.83 18.9991 35.7494 18.97" fill="white"/>
<path d="M17.2891 8.63999C17.9036 8.62931 18.5107 8.50382 19.0791 8.26999C19.334 7.11192 19.9764 6.07545 20.9 5.33181C21.8237 4.58817 22.9733 4.18186 24.1591 4.17999C24.6012 4.17974 25.0416 4.23688 25.4691 4.34999C25.0191 3.34999 23.6792 0.869995 21.6292 0.869995C21.354 0.870692 21.0806 0.914557 20.8191 0.999992C19.3891 1.43999 19.2291 2.92999 19.1791 4.82999C19.1839 5.34295 19.1404 5.85521 19.0491 6.35999C18.7046 7.27945 18.0913 8.07392 17.2891 8.63999Z" fill="white"/>
<path d="M24.1587 13.73C23.2924 13.73 22.4457 13.4731 21.7254 12.9918C21.0051 12.5105 20.4437 11.8265 20.1122 11.0261C19.7807 10.2258 19.6939 9.34513 19.8629 8.49549C20.032 7.64586 20.4491 6.86541 21.0617 6.25286C21.6742 5.6403 22.4546 5.22315 23.3042 5.05415C24.1539 4.88515 25.0345 4.97188 25.8349 5.30339C26.6352 5.63491 27.3193 6.1963 27.8006 6.91659C28.2818 7.63688 28.5387 8.4837 28.5387 9.34999C28.5361 10.5108 28.0738 11.6234 27.253 12.4442C26.4321 13.265 25.3196 13.7273 24.1587 13.73ZM19.1587 4.78999C19.2087 2.88999 19.3687 1.39999 20.7987 0.959988C21.0603 0.874552 21.3337 0.830688 21.6088 0.82999C23.6088 0.82999 24.9988 3.32999 25.4488 4.30999C24.7713 4.13213 24.0649 4.09324 23.372 4.19567C22.6791 4.29809 22.0141 4.53971 21.417 4.90597C20.82 5.27223 20.3033 5.75555 19.898 6.32682C19.4927 6.89808 19.2072 7.54546 19.0587 8.22998C18.4899 8.46226 17.883 8.58769 17.2687 8.59999C18.071 8.03392 18.6843 7.23945 19.0287 6.31999C19.12 5.81521 19.1636 5.30294 19.1587 4.78999ZM15.9888 9.33998C16.351 9.41154 16.7196 9.44506 17.0888 9.43999C17.7162 9.44203 18.3401 9.34759 18.9388 9.15998C18.9338 9.22322 18.9338 9.28675 18.9388 9.34999C18.9388 10.2806 19.1882 11.1942 19.6609 11.9958C20.1336 12.7974 20.8123 13.4578 21.6266 13.9083C22.4409 14.3588 23.361 14.583 24.2913 14.5575C25.2215 14.5321 26.128 14.2579 26.9164 13.7636C27.7049 13.2692 28.3465 12.5727 28.7747 11.7464C29.2028 10.9202 29.4018 9.9943 29.351 9.06508C29.3002 8.13587 29.0014 7.23722 28.4858 6.46254C27.9701 5.68787 27.2564 5.06545 26.4187 4.65998C26.444 4.58197 26.444 4.498 26.4187 4.41999C25.7287 2.53999 23.6188 -0.770013 20.5788 0.169987C18.4588 0.819987 18.3988 3.09999 18.3488 4.75999C18.3514 5.21565 18.3146 5.67067 18.2388 6.11999C17.9888 7.11999 16.4588 8.23999 15.8888 8.57999C15.8169 8.62149 15.7591 8.68388 15.7234 8.75888C15.6877 8.83388 15.6756 8.91796 15.6888 8.99999C15.7037 9.08146 15.7418 9.15689 15.7986 9.21721C15.8554 9.27752 15.9284 9.32015 16.0088 9.33998" fill="#DEA81E"/>
<path d="M24.1592 4.96997C23.2929 4.96997 22.4462 5.22685 21.7259 5.70813C21.0056 6.18941 20.4442 6.87347 20.1127 7.67381C19.7812 8.47415 19.6945 9.35483 19.8635 10.2045C20.0325 11.0541 20.4496 11.8345 21.0622 12.4471C21.6747 13.0597 22.4551 13.4768 23.3047 13.6458C24.1544 13.8148 25.035 13.7281 25.8354 13.3966C26.6357 13.065 27.3198 12.5037 27.8011 11.7834C28.2824 11.0631 28.5392 10.2162 28.5392 9.34997C28.5366 8.18913 28.0743 7.0766 27.2535 6.25576C26.4326 5.43492 25.3201 4.97261 24.1592 4.96997Z" fill="white"/>
<path d="M31.389 29.44L25.459 33.24L25.949 33.59L26.309 33.83L29.719 36C30.0477 36.2173 30.3411 36.4837 30.589 36.79L35.349 33.79C35.9917 33.377 36.4448 32.7262 36.609 31.98C36.6931 31.6107 36.7019 31.2282 36.6349 30.8553C36.5679 30.4825 36.4264 30.127 36.219 29.81C36.0157 29.4877 35.7503 29.2091 35.4382 28.9905C35.1262 28.7718 34.7737 28.6175 34.4014 28.5365C34.029 28.4555 33.6442 28.4495 33.2695 28.5188C32.8948 28.5881 32.5378 28.7313 32.219 28.94L31.389 29.44Z" fill="white"/>
<path d="M23.879 41.08L19.0589 38C18.9147 38.3877 18.8551 38.8017 18.8841 39.2143C18.9131 39.6269 19.03 40.0286 19.227 40.3923C19.424 40.756 19.6965 41.0733 20.0263 41.323C20.3561 41.5727 20.7355 41.749 21.139 41.84C21.8855 41.9997 22.6647 41.8596 23.3089 41.45L23.879 41.08Z" fill="white"/>
<path d="M13.8292 33.64L26.2092 41.56C26.8109 41.9397 27.5382 42.0666 28.2329 41.913C28.9276 41.7595 29.5336 41.3379 29.9192 40.74L30.1193 40.41C30.3864 39.9846 30.5282 39.4924 30.5282 38.99C30.5282 38.4876 30.3864 37.9954 30.1193 37.57C29.9055 37.2193 29.6148 36.9218 29.2692 36.7L16.8992 28.79C16.4689 28.5158 15.9694 28.3701 15.4592 28.37C15.2611 28.3705 15.0635 28.3906 14.8693 28.43C14.5248 28.505 14.1987 28.6481 13.9103 28.8507C13.6218 29.0533 13.3767 29.3115 13.1892 29.61L12.9792 29.94C12.5965 30.5382 12.4668 31.2638 12.6186 31.9576C12.7705 32.6513 13.1915 33.2564 13.7892 33.64" fill="white"/>
<path d="M21.1392 41.84C20.7357 41.749 20.3563 41.5728 20.0265 41.3231C19.6968 41.0734 19.4242 40.756 19.2272 40.3923C19.0302 40.0286 18.9133 39.627 18.8843 39.2144C18.8553 38.8017 18.9149 38.3877 19.0591 38L23.8792 41.08L23.3091 41.45C22.665 41.8596 21.8857 41.9997 21.1392 41.84ZM33.8292 28.44C34.3135 28.4387 34.7904 28.5599 35.2153 28.7924C35.6401 29.025 35.9993 29.3613 36.2592 29.77C36.4666 30.087 36.608 30.4425 36.675 30.8153C36.742 31.1882 36.7332 31.5707 36.6491 31.94C36.4849 32.6862 36.032 33.337 35.3892 33.75L30.6292 36.75C30.3813 36.4437 30.0879 36.1773 29.7592 35.96L26.3492 33.79L25.9892 33.55L25.4992 33.2L31.4291 29.4L32.2791 28.86C32.7415 28.5624 33.2792 28.4028 33.8292 28.4V28.44ZM36.2791 18.75L40.4491 13.46C40.7388 13.0985 41.1548 12.8604 41.6132 12.7936C42.0716 12.7268 42.5383 12.8363 42.9191 13.1C43.1217 13.24 43.2937 13.4199 43.4244 13.6286C43.555 13.8373 43.6417 14.0705 43.6791 14.3139C43.7166 14.5573 43.7039 14.8057 43.642 15.0441C43.5801 15.2824 43.4703 15.5056 43.3191 15.7L38.5391 21.91C38.2575 22.2731 37.8791 22.5492 37.4474 22.7067C37.0158 22.8641 36.5484 22.8965 36.0992 22.8L33.6791 22.26L34.8292 18.64L35.7392 18.96C35.8198 18.9892 35.9075 18.9923 35.99 18.969C36.0726 18.9457 36.1457 18.8971 36.1991 18.83L36.2791 18.75ZM17.8292 21.7C17.766 21.6611 17.6934 21.6405 17.6192 21.6405C17.545 21.6405 17.4722 21.6611 17.4091 21.7L17.2292 21.8L15.7192 22.24L14.7891 18.17L17.6392 17.1C18.1562 16.9014 18.7054 16.7997 19.2592 16.8H28.9491C29.4711 16.7994 29.989 16.8908 30.4792 17.07L34.0491 18.33L32.7891 22.13L31.2192 21.78C31.1586 21.7659 31.0956 21.7658 31.035 21.7797C30.9743 21.7935 30.9176 21.821 30.8692 21.86C30.8193 21.8994 30.779 21.9495 30.7513 22.0066C30.7236 22.0638 30.7091 22.1265 30.7092 22.19V28.86L30.2192 29.18L24.6092 32.76L18.0291 28.56V22.06C18.0295 21.9879 18.0113 21.9169 17.9762 21.8538C17.9412 21.7908 17.8906 21.7378 17.8292 21.7ZM10.3292 22.23L5.32915 15.75C5.17588 15.556 5.06401 15.3326 5.00042 15.0936C4.93682 14.8547 4.92286 14.6052 4.9594 14.3606C4.99594 14.1161 5.08215 13.8816 5.21282 13.6717C5.34349 13.4617 5.51586 13.2808 5.71917 13.14C6.0992 12.8739 6.56647 12.763 7.02556 12.8299C7.48465 12.8968 7.90087 13.1365 8.18914 13.5L12.3592 18.79C12.4143 18.8579 12.489 18.9069 12.5733 18.9302C12.6575 18.9535 12.747 18.95 12.8292 18.92L14.0391 18.47L14.9592 22.47L12.9592 23.06C12.4931 23.1974 11.9963 23.1908 11.5341 23.0409C11.0719 22.891 10.6659 22.6048 10.3692 22.22L10.3292 22.23ZM12.9792 29.93L13.1891 29.6C13.3749 29.3 13.6195 29.0407 13.9083 28.8379C14.197 28.6351 14.5239 28.4929 14.8692 28.42C15.0634 28.3806 15.261 28.3605 15.4592 28.36C15.9693 28.3601 16.4689 28.5058 16.8991 28.78L29.2691 36.69C29.6147 36.9119 29.9054 37.2094 30.1192 37.56C30.3864 37.9855 30.5281 38.4777 30.5281 38.98C30.5281 39.4824 30.3864 39.9746 30.1192 40.4L29.9191 40.73C29.5337 41.3284 28.9269 41.7496 28.2315 41.9014C27.5361 42.0533 26.8089 41.9233 26.2092 41.54L13.8292 33.64C13.2315 33.2565 12.8105 32.6514 12.6586 31.9576C12.5067 31.2639 12.6363 30.5382 13.0191 29.94L12.9792 29.93ZM13.3892 34.34L18.3892 37.54C18.1714 38.0432 18.0674 38.5883 18.0849 39.1363C18.1023 39.6843 18.2406 40.2217 18.49 40.71C18.7394 41.1983 19.0938 41.6254 19.5275 41.9608C19.9613 42.2962 20.4639 42.5316 20.9992 42.65C21.2616 42.7101 21.5299 42.7403 21.7991 42.74C22.5091 42.7426 23.2043 42.5375 23.7991 42.15L24.6991 41.57L25.7691 42.26C26.1591 42.5083 26.5943 42.6773 27.0496 42.7573C27.5049 42.8374 27.9716 42.827 28.4229 42.7267C28.8742 42.6264 29.3013 42.4382 29.6799 42.1728C30.0584 41.9075 30.381 41.5701 30.6292 41.18L30.8292 40.86C31.1503 40.3661 31.3408 39.7987 31.3827 39.211C31.4247 38.6233 31.3168 38.0346 31.0691 37.5L35.8392 34.45C36.2495 34.1874 36.6041 33.8465 36.8827 33.4468C37.1614 33.0471 37.3586 32.5964 37.4631 32.1205C37.5675 31.6446 37.5772 31.1528 37.4916 30.6732C37.406 30.1935 37.2268 29.7354 36.9642 29.325C36.7015 28.9147 36.3606 28.56 35.9609 28.2814C35.5612 28.0028 35.1106 27.8056 34.6347 27.7011C34.1588 27.5967 33.667 27.5869 33.1873 27.6726C32.7077 27.7582 32.2495 27.9374 31.8392 28.2L31.6192 28.33V22.7L33.0591 23.02L35.9291 23.66C36.159 23.7113 36.3937 23.7381 36.6292 23.74C37.1273 23.7375 37.6183 23.6218 38.0652 23.4018C38.5122 23.1818 38.9033 22.8632 39.2092 22.47L43.9892 16.25C44.3293 15.8089 44.5211 15.2715 44.5373 14.7146C44.5534 14.1578 44.3931 13.6102 44.0792 13.15C43.8988 12.888 43.6756 12.6581 43.4191 12.47C42.864 12.0845 42.183 11.9247 41.5143 12.0232C40.8457 12.1216 40.2396 12.4709 39.8191 13L35.8191 18L34.8191 17.64L30.8191 16.24C30.2372 16.0369 29.6256 15.9321 29.0092 15.93H19.3191C18.6665 15.9301 18.0193 16.0487 17.4091 16.28L14.2192 17.48L12.8492 18L8.84917 12.95C8.60182 12.6356 8.28577 12.382 7.92522 12.2087C7.56467 12.0353 7.16913 11.9469 6.76909 11.95C6.22547 11.9522 5.69545 12.1196 5.2492 12.43C4.95476 12.6362 4.70527 12.9001 4.51604 13.2057C4.32682 13.5113 4.20181 13.8522 4.14849 14.2077C4.09517 14.5631 4.11463 14.9257 4.20586 15.2734C4.29709 15.6211 4.45814 15.9466 4.67913 16.23L9.67913 22.71C9.98085 23.1021 10.3686 23.4196 10.8124 23.638C11.2563 23.8565 11.7445 23.9701 12.2392 23.97C12.5542 23.9676 12.8673 23.9205 13.1691 23.83L15.5291 23.14L17.1991 22.65V28C16.6299 27.6571 15.9733 27.4868 15.3091 27.51C15.0868 27.5122 14.8655 27.539 14.6491 27.59C14.1987 27.6882 13.7723 27.8749 13.3946 28.1393C13.0169 28.4036 12.6956 28.7404 12.4491 29.13L12.2392 29.46C11.9868 29.8475 11.8149 30.2818 11.7342 30.7372C11.6534 31.1925 11.6653 31.6594 11.7691 32.11C11.8872 32.6817 12.1527 33.2125 12.5391 33.65C12.7623 33.9063 13.0217 34.1287 13.3091 34.31" fill="#DEA81E"/>
<path d="M28.3796 70.77V64.52C28.3796 64.2548 28.4849 64.0005 28.6724 63.8129C28.86 63.6254 29.1144 63.52 29.3796 63.52H31.1595V63.4C31.1595 63.0446 31.3008 62.7038 31.5521 62.4525C31.8034 62.2012 32.1442 62.06 32.4996 62.06C32.855 62.06 33.1958 62.2012 33.4471 62.4525C33.6984 62.7038 33.8396 63.0446 33.8396 63.4V63.52H35.8296V61.52H35.7196C35.3615 61.52 35.0182 61.3778 34.765 61.1246C34.5118 60.8714 34.3696 60.5281 34.3696 60.17C34.3696 59.812 34.5118 59.4686 34.765 59.2154C35.0182 58.9623 35.3615 58.82 35.7196 58.82H35.8296V56.45C35.8295 56.3953 35.8404 56.3412 35.8617 56.2908C35.8829 56.2404 35.9141 56.1947 35.9532 56.1565C35.9923 56.1183 36.0387 56.0883 36.0896 56.0683C36.1405 56.0483 36.1949 56.0387 36.2496 56.04H43.1196C43.3848 56.04 43.6391 56.1454 43.8266 56.3329C44.0142 56.5204 44.1196 56.7748 44.1196 57.04V63.91V70.75C44.1196 71.0152 44.0142 71.2696 43.8266 71.4571C43.6391 71.6447 43.3848 71.75 43.1196 71.75H29.4095C29.1443 71.75 28.89 71.6447 28.7025 71.4571C28.5149 71.2696 28.4095 71.0152 28.4095 70.75L28.3796 70.77ZM25.8296 54.01C25.8322 53.682 25.9637 53.3681 26.1956 53.1361C26.4276 52.9041 26.7415 52.7726 27.0695 52.77H33.6096C33.6643 52.77 33.7184 52.7809 33.7688 52.8022C33.8192 52.8234 33.8648 52.8545 33.903 52.8936C33.9412 52.9328 33.9713 52.9791 33.9913 53.0301C34.0113 53.081 34.0208 53.1353 34.0195 53.19V55.98C34.0182 56.0352 34.006 56.0895 33.9837 56.14C33.9614 56.1905 33.9294 56.236 33.8895 56.2741C33.8496 56.3122 33.8025 56.342 33.7511 56.3619C33.6996 56.3818 33.6447 56.3914 33.5896 56.39H33.0395C32.9712 56.39 32.9036 56.4035 32.8405 56.4296C32.7774 56.4557 32.7201 56.494 32.6718 56.5423C32.6236 56.5906 32.5853 56.6479 32.5592 56.711C32.533 56.7741 32.5195 56.8417 32.5195 56.91C32.5195 57.0479 32.5743 57.1802 32.6718 57.2777C32.7694 57.3752 32.9016 57.43 33.0395 57.43H33.6096C33.7183 57.43 33.8226 57.4732 33.8995 57.5501C33.9764 57.627 34.0195 57.7313 34.0195 57.84V60.64C34.0208 60.6947 34.0113 60.7491 33.9913 60.8C33.9713 60.8509 33.9412 60.8973 33.903 60.9364C33.8648 60.9756 33.8192 61.0067 33.7688 61.0279C33.7184 61.0491 33.6643 61.06 33.6096 61.06H30.8296C30.7749 61.06 30.7207 61.0491 30.6703 61.0279C30.6198 61.0067 30.5743 60.9756 30.5361 60.9364C30.4979 60.8973 30.4678 60.8509 30.4478 60.8C30.4278 60.7491 30.4182 60.6947 30.4195 60.64V60.11C30.4208 60.0422 30.4087 59.9748 30.3836 59.9118C30.3586 59.8487 30.3213 59.7913 30.2738 59.7429C30.2263 59.6945 30.1696 59.656 30.107 59.6298C30.0445 59.6035 29.9773 59.59 29.9095 59.59C29.8412 59.59 29.7736 59.6035 29.7105 59.6296C29.6474 59.6557 29.5901 59.694 29.5418 59.7423C29.4935 59.7906 29.4553 59.8479 29.4292 59.911C29.403 59.9741 29.3896 60.0417 29.3896 60.11V60.64C29.3909 60.6952 29.3813 60.7501 29.3614 60.8015C29.3415 60.853 29.3117 60.9 29.2736 60.94C29.2356 60.9799 29.19 61.0119 29.1395 61.0343C29.089 61.0566 29.0347 61.0687 28.9796 61.07H26.7196C26.4906 61.0674 26.2718 60.9746 26.1108 60.8117C25.9498 60.6488 25.8596 60.429 25.8596 60.2L25.8296 54.01ZM43.4095 79.51C43.4094 79.4047 43.4498 79.3033 43.5224 79.227C43.595 79.1506 43.6943 79.1052 43.7995 79.1C47.4195 78.31 49.0395 76.23 49.0395 72.36V70.98C49.0292 70.9339 49.0292 70.8861 49.0395 70.84C49.0395 70.7853 49.0505 70.7312 49.0717 70.6808C49.093 70.6304 49.124 70.5847 49.1632 70.5465C49.2023 70.5083 49.2486 70.4783 49.2995 70.4583C49.3504 70.4383 49.4049 70.4287 49.4596 70.43H52.4596C52.5556 70.4301 52.6503 70.4085 52.7369 70.367C52.8235 70.3255 52.8996 70.265 52.9596 70.19C53.014 70.1124 53.0518 70.0244 53.0708 69.9315C53.0897 69.8386 53.0893 69.7428 53.0695 69.65L50.0695 57.9C49.2882 55.4674 47.9312 53.2594 46.1136 51.4637C44.2961 49.668 42.0717 48.3376 39.6298 47.5857C37.188 46.8339 34.6007 46.6827 32.0879 47.1451C29.575 47.6075 27.2109 48.6697 25.1966 50.2415C23.1823 51.8134 21.5773 53.8483 20.518 56.1734C19.4587 58.4985 18.9765 61.0449 19.1123 63.5963C19.248 66.1477 19.9977 68.6286 21.2978 70.8282C22.5979 73.0277 24.4098 74.8808 26.5796 76.23C26.6377 76.2681 26.6856 76.32 26.7187 76.3811C26.7519 76.4422 26.7693 76.5105 26.7695 76.58V82.78H43.4896L43.4095 79.51Z" fill="white"/>
<path d="M50.8281 57.6399C49.6347 53.9559 47.1988 50.8007 43.9367 48.7136C40.6747 46.6266 36.7891 45.7374 32.9441 46.198C29.099 46.6585 25.5333 48.4403 22.8564 51.2386C20.1795 54.037 18.5576 57.6782 18.268 61.5399C18.268 61.6599 18.268 61.7899 18.268 61.9199C18.1172 64.8585 18.7463 67.7846 20.0916 70.4014C21.4369 73.0183 23.4505 75.2327 25.9281 76.8199V82.8199C25.9281 82.9313 25.9723 83.0382 26.0511 83.1169C26.1299 83.1957 26.2367 83.2399 26.3481 83.2399C26.4028 83.24 26.4569 83.229 26.5073 83.2078C26.5577 83.1866 26.6034 83.1555 26.6416 83.1163C26.6798 83.0772 26.7098 83.0308 26.7298 82.9799C26.7498 82.929 26.7595 82.8746 26.7581 82.8199V76.6199C26.7579 76.5504 26.7404 76.4821 26.7072 76.421C26.6741 76.3599 26.6262 76.308 26.5681 76.2699C24.3983 74.9208 22.5864 73.0676 21.2863 70.8681C19.9863 68.6686 19.2366 66.1877 19.1008 63.6363C18.965 61.0849 19.4473 58.5384 20.5066 56.2133C21.5659 53.8882 23.1708 51.8533 25.1851 50.2815C27.1995 48.7096 29.5636 47.6474 32.0764 47.185C34.5892 46.7226 37.1765 46.8738 39.6184 47.6257C42.0603 48.3775 44.2846 49.7079 46.1021 51.5036C47.9197 53.2993 49.2767 55.5073 50.0581 57.9399L53.0581 69.6899C53.0778 69.7827 53.0782 69.8785 53.0593 69.9714C53.0404 70.0643 53.0025 70.1523 52.9481 70.2299C52.8881 70.3049 52.812 70.3654 52.7254 70.4069C52.6389 70.4485 52.5441 70.47 52.4481 70.4699H49.4481C49.3934 70.4686 49.3391 70.4782 49.2882 70.4982C49.2373 70.5182 49.1908 70.5482 49.1517 70.5864C49.1126 70.6246 49.0815 70.6703 49.0603 70.7207C49.039 70.7711 49.028 70.8253 49.028 70.8799C49.0177 70.926 49.0177 70.9739 49.028 71.0199V72.3999C49.028 76.2699 47.4081 78.3499 43.7881 79.1399C43.6828 79.1451 43.5837 79.1905 43.5111 79.2669C43.4385 79.3432 43.3979 79.4446 43.398 79.5499V82.8199C43.3967 82.8746 43.4064 82.929 43.4264 82.9799C43.4464 83.0308 43.4764 83.0772 43.5146 83.1163C43.5528 83.1555 43.5985 83.1866 43.6489 83.2078C43.6993 83.229 43.7534 83.24 43.8081 83.2399C43.9195 83.2399 44.0263 83.1957 44.1051 83.1169C44.1838 83.0382 44.2281 82.9313 44.2281 82.8199V79.8899C48.0181 78.9699 49.8581 76.5199 49.8581 72.3999V71.2999H52.408C52.6228 71.301 52.8352 71.2544 53.0298 71.1634C53.2243 71.0724 53.3962 70.9393 53.533 70.7738C53.6699 70.6082 53.7682 70.4144 53.821 70.2062C53.8738 69.998 53.8796 69.7807 53.8381 69.5699C53.8381 69.5699 53.8381 69.5099 53.8381 69.4799L50.8281 57.6399Z" fill="#DEA81E"/>
<path d="M35.8297 70.94V69H35.5797C35.2217 69 34.8783 68.8578 34.6251 68.6046C34.3719 68.3515 34.2297 68.0081 34.2297 67.65C34.2297 67.4732 34.2647 67.2981 34.3326 67.1349C34.4006 66.9717 34.5002 66.8235 34.6257 66.699C34.7512 66.5744 34.9001 66.4759 35.0638 66.4091C35.2276 66.3424 35.4029 66.3087 35.5797 66.31H35.8297V64.37H33.4697C33.415 64.37 33.3608 64.3591 33.3104 64.3379C33.26 64.3167 33.2144 64.2856 33.1761 64.2464C33.1379 64.2073 33.108 64.1609 33.088 64.11C33.068 64.0591 33.0584 64.0047 33.0597 63.95V63.42C33.0597 63.2848 33.0059 63.155 32.9103 63.0594C32.8146 62.9638 32.6849 62.91 32.5497 62.91C32.4144 62.91 32.2847 62.9638 32.1891 63.0594C32.0934 63.155 32.0397 63.2848 32.0397 63.42V63.95C32.0397 64.0614 31.9955 64.1682 31.9167 64.247C31.838 64.3258 31.7311 64.37 31.6198 64.37H29.4297C29.3846 64.37 29.3413 64.3879 29.3094 64.4198C29.2776 64.4517 29.2598 64.4949 29.2598 64.54V70.79C29.2622 70.8343 29.2808 70.8762 29.3121 70.9076C29.3435 70.939 29.3854 70.9576 29.4297 70.96L35.8297 70.94Z" fill="#4550E5"/>
<path d="M43.2592 70.7701C43.2592 70.8151 43.2412 70.8584 43.2094 70.8903C43.1775 70.9221 43.1342 70.94 43.0891 70.94H36.6392V68.58C36.6392 68.5254 36.6282 68.4712 36.6069 68.4208C36.5857 68.3704 36.5546 68.3248 36.5155 68.2865C36.4764 68.2483 36.4299 68.2183 36.379 68.1983C36.3281 68.1783 36.2738 68.1687 36.2191 68.17H35.5491C35.4808 68.17 35.4132 68.1566 35.3501 68.1305C35.287 68.1043 35.2297 68.066 35.1814 68.0177C35.1331 67.9695 35.0949 67.9121 35.0687 67.849C35.0426 67.786 35.0291 67.7183 35.0291 67.65C35.029 67.5822 35.0426 67.5151 35.0688 67.4525C35.0951 67.39 35.1336 67.3333 35.182 67.2858C35.2304 67.2384 35.2878 67.201 35.3508 67.176C35.4139 67.1509 35.4813 67.1387 35.5491 67.14H36.2191C36.2738 67.1414 36.3281 67.1318 36.379 67.1118C36.4299 67.0917 36.4764 67.0618 36.5155 67.0236C36.5546 66.9854 36.5857 66.9397 36.6069 66.8893C36.6282 66.8389 36.6392 66.7847 36.6392 66.73V64.37H39.0092C39.0638 64.3701 39.1179 64.3591 39.1683 64.3379C39.2187 64.3167 39.2644 64.2856 39.3026 64.2464C39.3408 64.2073 39.3709 64.1609 39.3909 64.11C39.4109 64.0591 39.4204 64.0047 39.4191 63.95V63.2701C39.4191 63.2022 39.4326 63.1351 39.4589 63.0725C39.4851 63.01 39.5236 62.9533 39.572 62.9058C39.6204 62.8583 39.6778 62.821 39.7408 62.796C39.8039 62.7709 39.8713 62.7587 39.9391 62.76C40.0743 62.76 40.204 62.8138 40.2997 62.9094C40.3953 63.0051 40.4491 63.1348 40.4491 63.2701V63.95C40.4491 64.0614 40.4934 64.1683 40.5721 64.247C40.6509 64.3258 40.7577 64.37 40.8691 64.37H43.2391L43.2592 70.7701ZM35.1691 60.2101C35.1691 60.1422 35.1826 60.0751 35.2089 60.0125C35.2351 59.95 35.2736 59.8933 35.322 59.8458C35.3704 59.7983 35.4278 59.761 35.4908 59.736C35.5539 59.7109 35.6213 59.6987 35.6891 59.7H36.2191C36.2738 59.7001 36.3279 59.6891 36.3783 59.6679C36.4287 59.6467 36.4744 59.6156 36.5126 59.5764C36.5508 59.5373 36.5808 59.4909 36.6008 59.44C36.6208 59.3891 36.6305 59.3347 36.6292 59.28V56.91H43.0891C43.1334 56.9124 43.1753 56.9311 43.2067 56.9625C43.238 56.9939 43.2568 57.0357 43.2592 57.08V63.54H41.2592V63.2701C41.2565 62.9137 41.1131 62.5729 40.8602 62.3219C40.6073 62.0709 40.2654 61.93 39.9091 61.93C39.5527 61.93 39.2109 62.0709 38.958 62.3219C38.7051 62.5729 38.5617 62.9137 38.5591 63.2701V63.54H36.5591V61.14C36.5591 61.0313 36.5159 60.927 36.439 60.8501C36.3621 60.7732 36.2578 60.73 36.149 60.73H35.6191C35.4812 60.73 35.349 60.6753 35.2515 60.5777C35.1539 60.4802 35.0991 60.348 35.0991 60.2101H35.1691ZM29.0991 70.7701V64.5201C29.1015 64.4757 29.1202 64.4339 29.1516 64.4025C29.183 64.3711 29.2247 64.3525 29.269 64.3501H31.4591C31.5705 64.3501 31.6773 64.3058 31.7561 64.227C31.8349 64.1483 31.8792 64.0414 31.8792 63.93V63.4C31.8792 63.2648 31.9328 63.1351 32.0284 63.0394C32.1241 62.9438 32.2539 62.89 32.3892 62.89C32.5244 62.89 32.6541 62.9438 32.7498 63.0394C32.8454 63.1351 32.899 63.2648 32.899 63.4V63.93C32.8977 63.9847 32.9074 64.0391 32.9274 64.09C32.9474 64.1409 32.9774 64.1873 33.0156 64.2264C33.0538 64.2656 33.0995 64.2967 33.1499 64.3179C33.2003 64.3391 33.2544 64.3501 33.3091 64.3501H35.8291V66.29H35.5791C35.4023 66.2887 35.227 66.3224 35.0632 66.3892C34.8995 66.4559 34.7506 66.5544 34.6251 66.679C34.4996 66.8035 34.4 66.9517 34.332 67.1149C34.2641 67.2782 34.2291 67.4532 34.2291 67.6301C34.2291 67.9881 34.3713 68.3315 34.6245 68.5846C34.8777 68.8378 35.2211 68.98 35.5791 68.98H35.8291V70.92H29.4091C29.3648 70.9176 29.3229 70.899 29.2915 70.8676C29.2601 70.8362 29.2415 70.7944 29.2391 70.75L29.0991 70.7701ZM36.2391 71.75H43.1091C43.3743 71.75 43.6286 71.6447 43.8162 71.4572C44.0037 71.2696 44.1091 71.0153 44.1091 70.75V63.91V57.04C44.1091 56.7748 44.0037 56.5205 43.8162 56.3329C43.6286 56.1454 43.3743 56.04 43.1091 56.04H36.2391C36.1845 56.0387 36.13 56.0483 36.0791 56.0683C36.0282 56.0884 35.9819 56.1183 35.9427 56.1565C35.9036 56.1947 35.8724 56.2404 35.8512 56.2908C35.83 56.3412 35.8191 56.3953 35.8191 56.45V58.82H35.7091C35.3511 58.82 35.0077 58.9623 34.7545 59.2155C34.5013 59.4686 34.3591 59.812 34.3591 60.17C34.3591 60.5281 34.5013 60.8715 34.7545 61.1246C35.0077 61.3778 35.3511 61.5201 35.7091 61.5201H35.8191V63.5201H33.8291V63.4C33.8291 63.0446 33.6879 62.7038 33.4366 62.4525C33.1853 62.2012 32.8445 62.06 32.4891 62.06C32.1337 62.06 31.7929 62.2012 31.5416 62.4525C31.2903 62.7038 31.149 63.0446 31.149 63.4V63.5201H29.3691C29.1039 63.5201 28.8495 63.6254 28.662 63.8129C28.4745 64.0005 28.3691 64.2548 28.3691 64.5201V70.7701C28.3691 71.0353 28.4745 71.2896 28.662 71.4772C28.8495 71.6647 29.1039 71.7701 29.3691 71.7701L36.2391 71.75Z" fill="#DEA81E"/>
<path d="M40.4689 63.93V63.25C40.4689 63.1147 40.4151 62.985 40.3195 62.8893C40.2238 62.7937 40.0941 62.74 39.9589 62.74C39.8911 62.7386 39.8237 62.7508 39.7606 62.7759C39.6976 62.8009 39.6402 62.8383 39.5918 62.8857C39.5434 62.9332 39.5049 62.9899 39.4786 63.0525C39.4524 63.115 39.4388 63.1821 39.4388 63.25V63.93C39.4389 64.0396 39.3961 64.145 39.3195 64.2235C39.2428 64.302 39.1385 64.3474 39.0288 64.35H36.6588V66.71C36.6588 66.7647 36.6479 66.8188 36.6267 66.8692C36.6055 66.9196 36.5744 66.9653 36.5353 67.0035C36.4961 67.0417 36.4497 67.0717 36.3988 67.0917C36.3479 67.1117 36.2936 67.1213 36.2389 67.12H35.5688C35.501 67.1186 35.4336 67.1308 35.3706 67.1559C35.3076 67.1809 35.2502 67.2183 35.2018 67.2658C35.1534 67.3132 35.1149 67.3699 35.0886 67.4325C35.0624 67.495 35.0488 67.5621 35.0488 67.63C35.0488 67.6978 35.0624 67.7649 35.0886 67.8275C35.1149 67.89 35.1534 67.9467 35.2018 67.9942C35.2502 68.0417 35.3076 68.079 35.3706 68.104C35.4336 68.1291 35.501 68.1413 35.5688 68.14H36.2389C36.294 68.14 36.3486 68.1508 36.3995 68.1719C36.4505 68.193 36.4969 68.224 36.5359 68.263C36.5749 68.302 36.6057 68.3483 36.6268 68.3992C36.6479 68.4502 36.6588 68.5048 36.6588 68.56V70.92H43.1089C43.154 70.92 43.1972 70.9021 43.2291 70.8702C43.261 70.8383 43.2788 70.795 43.2788 70.75V64.33H40.9088C40.8537 64.33 40.7991 64.3191 40.7482 64.298C40.6972 64.2769 40.6508 64.2459 40.6118 64.2069C40.5728 64.1679 40.542 64.1216 40.5209 64.0707C40.4998 64.0197 40.4889 63.9651 40.4889 63.91" fill="white"/>
<path d="M36.6283 61.14V63.52H38.6283V63.25C38.6309 62.8937 38.7743 62.5529 39.0272 62.3019C39.2801 62.0509 39.622 61.91 39.9783 61.91C40.3346 61.91 40.6764 62.0509 40.9293 62.3019C41.1822 62.5529 41.3256 62.8937 41.3282 63.25V63.52H43.3282V57.06C43.3282 57.0149 43.3103 56.9717 43.2784 56.9398C43.2466 56.9079 43.2033 56.89 43.1582 56.89H36.6982V59.26C36.6982 59.3687 36.655 59.473 36.5781 59.5499C36.5012 59.6268 36.3969 59.67 36.2882 59.67H35.7583C35.6204 59.67 35.488 59.7248 35.3905 59.8223C35.293 59.9198 35.2383 60.0521 35.2383 60.19C35.2383 60.3279 35.293 60.4602 35.3905 60.5577C35.488 60.6552 35.6204 60.71 35.7583 60.71H36.2882C36.3969 60.71 36.5012 60.7532 36.5781 60.8301C36.655 60.907 36.6982 61.0113 36.6982 61.12" fill="#4550E5"/>
<path d="M26.6786 60.23H28.5186V60.12C28.5212 59.7628 28.6643 59.4209 28.9169 59.1683C29.1695 58.9157 29.5114 58.7727 29.8687 58.77C30.2267 58.77 30.5701 58.9123 30.8232 59.1654C31.0764 59.4186 31.2186 59.762 31.2186 60.12V60.23H33.1686V58.23H33.0186C32.6613 58.2274 32.3195 58.0843 32.0669 57.8317C31.8143 57.5791 31.6712 57.2373 31.6686 56.88C31.6712 56.5228 31.8143 56.1809 32.0669 55.9283C32.3195 55.6757 32.6613 55.5326 33.0186 55.53H33.1686V53.53H27.0486C26.9947 53.53 26.9415 53.5406 26.8917 53.5612C26.842 53.5818 26.7967 53.612 26.7587 53.6501C26.7206 53.6882 26.6904 53.7334 26.6698 53.7831C26.6492 53.8329 26.6387 53.8862 26.6387 53.94V60.13" fill="white"/>
<path d="M26.6493 54.01C26.6493 53.9013 26.6925 53.797 26.7694 53.7201C26.8463 53.6432 26.9506 53.6 27.0593 53.6H33.1793V55.6H33.0293C32.6721 55.6027 32.3302 55.7457 32.0776 55.9983C31.825 56.2509 31.6819 56.5928 31.6793 56.95C31.6819 57.3073 31.825 57.6491 32.0776 57.9017C32.3302 58.1543 32.6721 58.2974 33.0293 58.3H33.1793V60.3H31.2294V60.19C31.2294 59.832 31.0872 59.4886 30.834 59.2354C30.5808 58.9823 30.2374 58.84 29.8794 58.84C29.5222 58.8426 29.1802 58.9857 28.9276 59.2383C28.675 59.4909 28.5319 59.8328 28.5293 60.19V60.3H26.6893L26.6493 54.01ZM26.6493 61.07H28.9093C28.9645 61.0687 29.0189 61.0566 29.0693 61.0343C29.1198 61.012 29.1654 60.9799 29.2035 60.94C29.2416 60.9 29.2714 60.853 29.2913 60.8015C29.3111 60.7501 29.3207 60.6952 29.3193 60.64V60.12C29.3193 60.0522 29.3329 59.9851 29.3591 59.9225C29.3854 59.86 29.4239 59.8033 29.4723 59.7558C29.5207 59.7083 29.5781 59.671 29.6411 59.646C29.7041 59.6209 29.7715 59.6087 29.8394 59.61C29.9072 59.6087 29.9746 59.6209 30.0376 59.646C30.1006 59.671 30.158 59.7083 30.2064 59.7558C30.2548 59.8033 30.2933 59.86 30.3196 59.9225C30.3458 59.9851 30.3594 60.0522 30.3594 60.12V60.64C30.358 60.6947 30.3677 60.7491 30.3877 60.8C30.4077 60.8509 30.4376 60.8973 30.4758 60.9364C30.514 60.9756 30.5597 61.0067 30.6101 61.0279C30.6605 61.0491 30.7146 61.06 30.7693 61.06H33.5593C33.614 61.06 33.6682 61.0491 33.7186 61.0279C33.769 61.0067 33.8147 60.9756 33.8529 60.9364C33.8911 60.8973 33.921 60.8509 33.941 60.8C33.961 60.7491 33.9707 60.6947 33.9694 60.64V57.85C33.9694 57.7413 33.9261 57.637 33.8492 57.5601C33.7724 57.4832 33.6681 57.44 33.5593 57.44H32.9894C32.8515 57.44 32.7192 57.3852 32.6217 57.2877C32.5242 57.1902 32.4694 57.0579 32.4694 56.92C32.4694 56.7821 32.5242 56.6499 32.6217 56.5523C32.7192 56.4548 32.8515 56.4 32.9894 56.4H33.5393C33.5945 56.4014 33.6493 56.3918 33.7008 56.3719C33.7523 56.352 33.7993 56.3222 33.8392 56.2841C33.8792 56.246 33.9113 56.2005 33.9336 56.15C33.9559 56.0995 33.9681 56.0452 33.9694 55.99V53.2C33.9707 53.1453 33.961 53.091 33.941 53.0401C33.921 52.9892 33.8911 52.9428 33.8529 52.9036C33.8147 52.8645 33.769 52.8334 33.7186 52.8122C33.6682 52.7909 33.614 52.78 33.5593 52.78H27.0193C26.6912 52.7826 26.3774 52.9141 26.1454 53.1461C25.9134 53.3781 25.7819 53.692 25.7793 54.02V60.21C25.7793 60.4391 25.8696 60.6588 26.0306 60.8217C26.1916 60.9846 26.4104 61.0774 26.6394 61.08" fill="#DEA81E"/>
<path d="M66.4085 40.19C66.4735 41.3645 66.3555 42.5419 66.0585 43.68C65.5585 45.68 64.6285 47.12 64.0585 47.39C63.873 47.4579 63.6759 47.4885 63.4786 47.48C62.2409 47.4019 61.0341 47.061 59.9385 46.48C57.6389 45.3257 55.8064 43.4155 54.7486 41.07C53.6301 38.3248 53.1777 35.3537 53.4285 32.4C53.5785 30.18 54.1285 27.63 54.9585 27.26C55.7885 26.89 58.0585 28.16 59.8185 29.51C60.8504 30.3009 61.8108 31.181 62.6885 32.14C62.8685 31.87 63.0685 31.6 63.2785 31.34C64.824 29.5798 66.7633 28.2092 68.9385 27.34C70.1985 26.82 72.5085 26.09 73.1685 26.64C73.8285 27.19 73.5785 29.59 73.3185 30.92C72.9106 33.226 71.9612 35.4023 70.5485 37.27C69.482 38.6166 68.0524 39.6298 66.4285 40.19H66.4085ZM68.7985 50.08L68.9986 42.39C69.005 42.2016 69.0611 42.0181 69.1612 41.8583C69.2613 41.6985 69.4018 41.568 69.5685 41.48C69.7353 41.3854 69.9259 41.3408 70.1174 41.3514C70.3088 41.362 70.4932 41.4275 70.6485 41.54L72.3985 42.71C75.4685 38.57 77.0885 34.4 77.1985 30.34C77.2208 29.4396 77.0624 28.5438 76.7326 27.7056C76.4028 26.8674 75.9084 26.1039 75.2785 25.46C74.698 24.872 74.0046 24.4075 73.2398 24.0947C72.475 23.7819 71.6547 23.6273 70.8285 23.64C69.8471 23.6601 68.8839 23.9092 68.0158 24.3676C67.1477 24.8259 66.3986 25.4808 65.8285 26.28C65.5037 26.7342 65.0753 27.1043 64.5788 27.3596C64.0822 27.615 63.5319 27.7482 62.9736 27.7482C62.4152 27.7482 61.8649 27.615 61.3683 27.3596C60.8718 27.1043 60.4434 26.7342 60.1186 26.28C59.5485 25.4808 58.7994 24.8259 57.9313 24.3676C57.0632 23.9092 56.1001 23.6601 55.1186 23.64H55.0185C54.2076 23.6427 53.4055 23.8068 52.6586 24.1227C51.9118 24.4386 51.2352 24.9 50.6685 25.48C50.0368 26.1225 49.5411 26.8859 49.2112 27.7244C48.8813 28.5629 48.724 29.4593 48.7486 30.36C49.0386 41.05 59.7486 49.67 62.9786 51.68C64.5465 50.6603 66.025 49.5095 67.3985 48.24C67.4824 48.1788 67.586 48.1508 67.6893 48.1614C67.7926 48.1721 67.8883 48.2206 67.9579 48.2977C68.0275 48.3748 68.0661 48.4749 68.0662 48.5787C68.0663 48.6826 68.028 48.7828 67.9585 48.86L67.7985 49L68.2286 50.52L68.7985 50.08Z" fill="white"/>
<path d="M67.7591 48.98C66.3364 50.2955 64.7928 51.474 63.149 52.5C63.0858 52.5389 63.0132 52.5596 62.939 52.5596C62.8648 52.5596 62.7922 52.5389 62.729 52.5C59.669 50.7 48.1891 41.68 47.8791 30.36C47.8529 29.3484 48.0307 28.3418 48.4018 27.4003C48.7729 26.4589 49.3296 25.6017 50.039 24.88C50.6808 24.219 51.4488 23.6935 52.2973 23.3345C53.1458 22.9755 54.0577 22.7904 54.979 22.79H55.089C56.2042 22.8124 57.2986 23.0953 58.2848 23.6162C59.2711 24.1371 60.1218 24.8816 60.769 25.79C61.0159 26.1368 61.3421 26.4195 61.7205 26.6145C62.0988 26.8096 62.5183 26.9114 62.944 26.9114C63.3697 26.9114 63.7892 26.8096 64.1675 26.6145C64.5459 26.4195 64.8722 26.1368 65.1191 25.79C65.7657 24.881 66.6162 24.1362 67.6026 23.6152C68.589 23.0942 69.6837 22.8116 70.799 22.79H70.8891C71.8202 22.784 72.7429 22.9661 73.6021 23.3252C74.4612 23.6843 75.2391 24.2131 75.8891 24.88C76.5984 25.6017 77.1552 26.4589 77.5263 27.4003C77.8974 28.3418 78.0751 29.3484 78.049 30.36C77.929 34.71 76.179 39.14 72.849 43.53C72.7835 43.615 72.6879 43.6716 72.5819 43.6884C72.4759 43.7051 72.3675 43.6807 72.279 43.62L70.209 42.23C70.1729 42.2079 70.1314 42.1962 70.089 42.1962C70.0467 42.1962 70.0052 42.2079 69.969 42.23C69.9338 42.248 69.9041 42.2751 69.883 42.3085C69.8618 42.342 69.8501 42.3805 69.849 42.42L69.6391 50.3C69.6381 50.3387 69.6477 50.377 69.6671 50.4105C69.6866 50.4441 69.715 50.4716 69.7491 50.49C69.7821 50.5103 69.8202 50.5211 69.859 50.5211C69.8979 50.5211 69.9359 50.5103 69.969 50.49L77.169 47.31C77.2062 47.2923 77.2384 47.2657 77.2629 47.2326C77.2873 47.1994 77.3031 47.1607 77.309 47.12C77.3115 47.0794 77.3037 47.0388 77.2862 47.0021C77.2687 46.9653 77.2421 46.9337 77.209 46.91L75.299 45.63C75.2514 45.6006 75.2107 45.5612 75.1796 45.5146C75.1485 45.468 75.1279 45.4153 75.1191 45.36C75.1095 45.304 75.1116 45.2467 75.1254 45.1916C75.1392 45.1365 75.1642 45.0849 75.199 45.04C78.799 40.27 80.689 35.35 80.829 30.42C80.8564 29.0312 80.6049 27.6511 80.0896 26.3611C79.5743 25.0712 78.8057 23.8977 77.829 22.91C76.9092 21.9713 75.8082 21.2293 74.5928 20.7291C73.3775 20.2288 72.0732 19.9808 70.7591 20C69.3217 20.0237 67.9067 20.3608 66.6131 20.9878C65.3194 21.6147 64.1782 22.5165 63.269 23.63C63.2274 23.6765 63.1766 23.7139 63.1198 23.7397C63.063 23.7655 63.0014 23.7792 62.939 23.78C62.8782 23.7785 62.8184 23.7644 62.7633 23.7385C62.7083 23.7127 62.6591 23.6758 62.6191 23.63C61.7099 22.5165 60.5686 21.6147 59.2749 20.9878C57.9813 20.3608 56.5664 20.0237 55.1291 20C53.8149 19.9802 52.5103 20.228 51.2948 20.7282C50.0794 21.2285 48.9785 21.9708 48.059 22.91C47.0805 23.8964 46.3106 25.0696 45.7952 26.3599C45.2798 27.6501 45.0294 29.0309 45.059 30.42C45.419 43.59 58.499 53.42 61.989 55.29C62.2721 55.4356 62.5857 55.5116 62.904 55.5116C63.2222 55.5116 63.536 55.4356 63.819 55.29C65.2225 54.4649 66.5599 53.5321 67.819 52.5L68.419 52.01C68.4668 51.9735 68.5211 51.9464 68.579 51.93L68.169 50.49L67.7591 48.98Z" fill="white"/>
<path d="M77.6298 46.23L76.0797 45.23C79.6197 40.43 81.4798 35.4701 81.6198 30.4901C81.6581 28.9912 81.3946 27.4999 80.8449 26.1049C80.2951 24.7099 79.4703 23.4398 78.4197 22.37C77.4206 21.3502 76.2247 20.5442 74.9044 20.0009C73.5842 19.4577 72.1673 19.1886 70.7398 19.21C69.2646 19.2348 67.8104 19.5637 66.4683 20.1763C65.1261 20.7888 63.9249 21.6719 62.9397 22.7701L62.7897 22.6001C61.8066 21.5514 60.6229 20.711 59.3087 20.1286C57.9946 19.5463 56.577 19.2339 55.1398 19.21H54.9798C53.5804 19.2087 52.1949 19.4876 50.9051 20.0303C49.6152 20.5731 48.4472 21.3686 47.4698 22.37C46.4175 23.4366 45.5917 24.7047 45.0418 26.0984C44.4919 27.492 44.2292 28.9824 44.2697 30.48C44.4297 36.39 47.1197 42.48 52.0397 47.98C54.8132 51.139 58.0461 53.8628 61.6298 56.06C62.0344 56.2763 62.486 56.3894 62.9447 56.3894C63.4035 56.3894 63.8552 56.2763 64.2598 56.06C65.6996 55.2124 67.0705 54.2528 68.3598 53.1901L68.9597 52.7C69.0181 52.6489 69.0612 52.5826 69.0841 52.5084C69.1071 52.4343 69.109 52.3552 69.0897 52.28C69.0777 52.2176 69.0503 52.1591 69.0098 52.1101C68.9578 52.0499 68.8897 52.0057 68.8136 51.9827C68.7375 51.9597 68.6564 51.9588 68.5797 51.98C68.5204 51.9924 68.4652 52.02 68.4197 52.06L67.8197 52.5501C66.5606 53.5822 65.2233 54.515 63.8197 55.34C63.5367 55.4857 63.223 55.5616 62.9047 55.5616C62.5864 55.5616 62.2728 55.4857 61.9898 55.34C58.4998 53.43 45.4097 43.64 45.0597 30.47C45.0301 29.081 45.2805 27.7002 45.7959 26.4099C46.3113 25.1197 47.0812 23.9464 48.0597 22.9601C48.9792 22.0209 50.0801 21.2786 51.2956 20.7783C52.511 20.278 53.8156 20.0303 55.1298 20.0501C56.5672 20.0738 57.982 20.4109 59.2757 21.0378C60.5693 21.6648 61.7106 22.5665 62.6198 23.68C62.6598 23.7258 62.709 23.7628 62.7641 23.7886C62.8191 23.8144 62.8789 23.8285 62.9397 23.83C63.0021 23.8293 63.0637 23.8156 63.1205 23.7898C63.1773 23.7639 63.2281 23.7266 63.2697 23.68C64.1789 22.5665 65.3201 21.6648 66.6138 21.0378C67.9074 20.4109 69.3224 20.0738 70.7598 20.0501C72.0739 20.0308 73.3782 20.2789 74.5935 20.7791C75.8089 21.2793 76.9099 22.0213 77.8297 22.9601C78.8064 23.9478 79.5751 25.1213 80.0904 26.4112C80.6056 27.7011 80.8571 29.0813 80.8297 30.47C80.6897 35.4 78.8297 40.32 75.1997 45.09C75.165 45.1349 75.1399 45.1866 75.1261 45.2416C75.1124 45.2967 75.1102 45.3541 75.1198 45.4101C75.1286 45.4653 75.1493 45.5181 75.1803 45.5647C75.2114 45.6112 75.2521 45.6506 75.2997 45.68L77.2097 46.9601C77.2428 46.9837 77.2694 47.0154 77.2869 47.0521C77.3044 47.0889 77.3122 47.1294 77.3097 47.17C77.3038 47.2108 77.288 47.2495 77.2636 47.2826C77.2392 47.3158 77.2069 47.3424 77.1697 47.36L69.9698 50.54C69.9367 50.5604 69.8986 50.5712 69.8598 50.5712C69.8209 50.5712 69.7829 50.5604 69.7498 50.54C69.7157 50.5216 69.6873 50.4941 69.6679 50.4606C69.6485 50.427 69.6388 50.3888 69.6398 50.3501L69.8498 42.47C69.8508 42.4305 69.8626 42.392 69.8837 42.3586C69.9048 42.3251 69.9345 42.298 69.9698 42.28C70.0059 42.258 70.0474 42.2463 70.0897 42.2463C70.1321 42.2463 70.1736 42.258 70.2097 42.28L72.2797 43.67C72.3682 43.7307 72.4767 43.7552 72.5827 43.7384C72.6887 43.7217 72.7842 43.665 72.8498 43.58C76.1798 39.1901 77.9297 34.7601 78.0497 30.4101C78.0758 29.3984 77.8981 28.3919 77.527 27.4504C77.1559 26.5089 76.5992 25.6518 75.8898 24.93C75.2399 24.2632 74.462 23.7344 73.6028 23.3752C72.7437 23.0161 71.821 22.8341 70.8898 22.84H70.8297C69.7144 22.8616 68.6197 23.1442 67.6333 23.6652C66.6469 24.1862 65.7963 24.931 65.1497 25.84C64.9028 26.1868 64.5766 26.4695 64.1983 26.6646C63.8199 26.8596 63.4004 26.9614 62.9748 26.9614C62.5491 26.9614 62.1296 26.8596 61.7512 26.6646C61.3729 26.4695 61.0466 26.1868 60.7997 25.84C60.1525 24.9316 59.3018 24.1872 58.3156 23.6663C57.3293 23.1454 56.2349 22.8624 55.1198 22.84H55.0098C54.0885 22.8404 53.1765 23.0256 52.328 23.3846C51.4795 23.7436 50.7116 24.2691 50.0697 24.93C49.3604 25.6518 48.8036 26.5089 48.4325 27.4504C48.0614 28.3919 47.8836 29.3984 47.9097 30.4101C48.2197 41.7301 59.6998 50.7501 62.7598 52.5501C62.8229 52.589 62.8956 52.6096 62.9698 52.6096C63.0439 52.6096 63.1166 52.589 63.1797 52.5501C64.8211 51.5207 66.3643 50.3424 67.7897 49.03C67.8383 48.9782 67.8919 48.9313 67.9497 48.89C68.0192 48.8128 68.0575 48.7126 68.0574 48.6088C68.0573 48.5049 68.0187 48.4048 67.9491 48.3277C67.8795 48.2507 67.7837 48.2021 67.6804 48.1915C67.5771 48.1808 67.4737 48.2088 67.3898 48.2701C66.0194 49.5402 64.5404 50.6879 62.9698 51.7C59.7198 49.7 49.0298 41.08 48.7398 30.39C48.7152 29.4893 48.8725 28.5929 49.2024 27.7544C49.5323 26.9159 50.028 26.1526 50.6597 25.51C51.2257 24.9291 51.9021 24.4671 52.6491 24.1512C53.3961 23.8352 54.1987 23.6716 55.0098 23.67H55.0998C56.0812 23.6901 57.0444 23.9393 57.9125 24.3976C58.7806 24.856 59.5296 25.5109 60.0998 26.31C60.4246 26.7642 60.853 27.1343 61.3495 27.3897C61.8461 27.645 62.3964 27.7782 62.9547 27.7782C63.5131 27.7782 64.0634 27.645 64.56 27.3897C65.0565 27.1343 65.4849 26.7642 65.8097 26.31C66.3798 25.5109 67.1289 24.856 67.997 24.3976C68.8651 23.9393 69.8282 23.6901 70.8097 23.67C71.6366 23.6586 72.4572 23.8149 73.2221 24.1294C73.9869 24.4439 74.6802 24.9102 75.2598 25.5C75.8897 26.1439 76.384 26.9075 76.7138 27.7457C77.0435 28.5838 77.202 29.4796 77.1797 30.3801C77.0697 34.4401 75.4498 38.61 72.3798 42.75L70.6298 41.58C70.4745 41.4675 70.29 41.4021 70.0985 41.3914C69.907 41.3808 69.7165 41.4254 69.5497 41.5201C69.3829 41.6081 69.2425 41.7386 69.1424 41.8984C69.0423 42.0582 68.9862 42.2416 68.9798 42.43L68.7797 50.12V50.3001C68.7748 50.4791 68.8153 50.6565 68.8975 50.8156C68.9797 50.9747 69.1009 51.1104 69.2498 51.2101L69.4297 51.31C69.5625 51.3667 69.7054 51.3959 69.8498 51.3959C69.9941 51.3959 70.1369 51.3667 70.2697 51.31L77.4798 48.1301C77.6548 48.0585 77.8059 47.9388 77.9157 47.7848C78.0254 47.6308 78.0892 47.4488 78.0998 47.26C78.122 47.0672 78.0908 46.872 78.0097 46.6957C77.9286 46.5193 77.8007 46.3686 77.6398 46.26" fill="#DEA81E"/>
<path d="M69.8883 36.74C71.1758 35.029 72.0517 33.0443 72.4482 30.94C72.7768 29.7479 72.835 28.4975 72.6183 27.28C71.3864 27.3158 70.1776 27.6231 69.0782 28.18C67.0918 28.9877 65.3189 30.2438 63.8982 31.85C63.6557 32.1435 63.4352 32.4543 63.2383 32.78C64.0131 33.6783 64.684 34.6612 65.2383 35.71L69.8082 30.12C69.8395 30.0684 69.8816 30.0242 69.9315 29.9902C69.9814 29.9563 70.038 29.9336 70.0975 29.9236C70.157 29.9135 70.2181 29.9164 70.2764 29.9321C70.3347 29.9477 70.3888 29.9757 70.4353 30.0142C70.4818 30.0527 70.5194 30.1008 70.5457 30.1551C70.5719 30.2095 70.5862 30.2688 70.5874 30.3292C70.5886 30.3895 70.5767 30.4494 70.5527 30.5048C70.5287 30.5601 70.4931 30.6097 70.4482 30.65L65.6183 36.55C65.9913 37.4425 66.2435 38.3808 66.3683 39.34C67.766 38.807 68.9952 37.9092 69.9282 36.74" fill="#4550E5"/>
<path d="M65.5793 36.55L70.4092 30.65C70.4541 30.6097 70.4898 30.5601 70.5138 30.5048C70.5378 30.4494 70.5496 30.3895 70.5484 30.3292C70.5471 30.2688 70.5329 30.2095 70.5066 30.1551C70.4804 30.1008 70.4428 30.0527 70.3963 30.0142C70.3498 29.9757 70.2956 29.9477 70.2373 29.9321C70.1791 29.9164 70.1181 29.9135 70.0586 29.9236C69.9991 29.9336 69.9424 29.9564 69.8925 29.9903C69.8426 30.0242 69.8005 30.0684 69.7692 30.12L65.1993 35.71C64.645 34.6612 63.9741 33.6783 63.1993 32.78C63.3986 32.4559 63.6191 32.1452 63.8593 31.85C65.28 30.2438 67.0527 28.9877 69.0392 28.18C70.1364 27.6185 71.347 27.3142 72.5793 27.29C72.7961 28.5041 72.738 29.7514 72.4092 30.94C72.0127 33.0443 71.1368 35.029 69.8493 36.74C68.918 37.9068 67.6926 38.8042 66.2992 39.34C66.1661 38.3814 65.9107 37.4438 65.5392 36.55H65.5793ZM54.1892 32.55C54.3592 29.91 54.9392 28.21 55.1892 27.98C55.5592 27.91 57.1892 28.59 59.3092 30.22C61.5358 31.8843 63.3437 34.0449 64.5893 36.53C65.2981 38.0842 65.608 39.7907 65.491 41.4949C65.374 43.1992 64.8338 44.8473 63.9192 46.29L59.9192 37.38C59.8657 37.2935 59.7827 37.2293 59.6855 37.1994C59.5882 37.1695 59.4834 37.1759 59.3905 37.2175C59.2977 37.259 59.223 37.3329 59.1805 37.4253C59.1379 37.5177 59.1303 37.6225 59.1592 37.72L63.1592 46.63C61.4717 46.3657 59.877 45.6839 58.5201 44.6466C57.1631 43.6092 56.087 42.2491 55.3893 40.69C54.351 38.1093 53.9232 35.3234 54.1393 32.55H54.1892ZM70.4392 37.25C71.852 35.3823 72.8013 33.206 73.2093 30.9C73.4693 29.57 73.7292 27.16 73.0592 26.62C72.3892 26.08 70.0593 26.8 68.8293 27.32C66.654 28.1893 64.7147 29.5598 63.1692 31.32C62.9592 31.58 62.7593 31.85 62.5793 32.12C61.7015 31.161 60.7411 30.2809 59.7093 29.49C57.9493 28.14 55.7093 26.86 54.8493 27.24C53.9893 27.62 53.4692 30.16 53.3192 32.38C53.0685 35.3337 53.5209 38.3048 54.6393 41.05C55.6972 43.3956 57.5296 45.3058 59.8293 46.46C60.9248 47.041 62.1317 47.3819 63.3693 47.46C63.5667 47.4685 63.7637 47.4379 63.9493 47.37C64.5193 47.1 65.4493 45.61 65.9493 43.66C66.2462 42.5219 66.3643 41.3445 66.2992 40.17C67.9231 39.6098 69.3527 38.5966 70.4192 37.25" fill="#DEA81E"/>
<path d="M63.2494 46.64L59.2494 37.73C59.2205 37.6324 59.228 37.5277 59.2705 37.4353C59.313 37.3428 59.3877 37.269 59.4806 37.2274C59.5735 37.1859 59.6783 37.1795 59.7755 37.2093C59.8728 37.2392 59.9559 37.3034 60.0094 37.39L64.0094 46.3C64.924 44.8572 65.4642 43.2091 65.5812 41.5049C65.6982 39.8007 65.3881 38.0942 64.6793 36.54C63.4314 34.0536 61.624 31.8903 59.3993 30.22C57.3093 28.6 55.6493 27.92 55.2793 27.99C54.9793 28.22 54.3993 29.91 54.2793 32.56C54.0629 35.3301 54.4907 38.1128 55.5293 40.69C56.2271 42.2499 57.3032 43.611 58.66 44.65C60.0168 45.689 61.6114 46.373 63.2993 46.64" fill="#4550E5"/>
</g>
<defs>
<clipPath id="clip0_2195_17410">
<rect width="81.81" height="83.19" fill="white"/>
</clipPath>
</defs>
</svg>
