<svg width="61" height="56" viewBox="0 0 61 56" fill="none" xmlns="http://www.w3.org/2000/svg">
<path d="M33.0522 55.1586C47.9493 55.1586 60.0502 43.0821 60.0802 28.1851C60.1103 13.288 48.0582 1.21155 33.1611 1.21155C18.264 1.21155 6.16313 13.288 6.13306 28.1851C6.10299 43.0821 18.1551 55.1586 33.0522 55.1586Z" fill="#EFC73F"/>
<path d="M37.1092 43.2209H14.4319C14.3132 43.2209 14.1994 43.1739 14.1154 43.09C14.0315 43.0062 13.9844 42.8925 13.9844 42.7739C13.9844 42.6554 14.0315 42.5417 14.1154 42.4578C14.1994 42.374 14.3132 42.3269 14.4319 42.3269H37.1092C37.2279 42.3269 37.3417 42.374 37.4256 42.4578C37.5095 42.5417 37.5567 42.6554 37.5567 42.7739C37.5567 42.8925 37.5095 43.0062 37.4256 43.09C37.3417 43.1739 37.2279 43.2209 37.1092 43.2209Z" fill="#DEA81E"/>
<path d="M30.2618 26.0818H21.2891V42.7742H30.2618V26.0818Z" fill="white"/>
<path d="M30.2607 43.2213H21.288C21.1693 43.2213 21.0554 43.1742 20.9713 43.0904C20.8873 43.0066 20.84 42.8929 20.8398 42.7743V26.0818C20.84 25.9632 20.8873 25.8495 20.9713 25.7657C21.0554 25.6818 21.1693 25.6348 21.288 25.6348H30.2607C30.3195 25.6348 30.3777 25.6463 30.4319 25.6688C30.4862 25.6913 30.5356 25.7242 30.5771 25.7657C30.6187 25.8072 30.6516 25.8565 30.6741 25.9107C30.6966 25.965 30.7082 26.0231 30.7082 26.0818V42.7743C30.7082 42.8928 30.661 43.0065 30.5771 43.0903C30.4932 43.1742 30.3794 43.2213 30.2607 43.2213ZM21.7355 42.3272H29.8105V26.5302H21.7355V42.3272Z" fill="#DEA81E"/>
<path d="M47.2231 37.022H4.77953C4.30826 37.0224 3.84152 36.9301 3.40595 36.7504C2.97039 36.5706 2.57453 36.3069 2.24097 35.9744C1.90742 35.6418 1.64271 35.2468 1.46196 34.8121C1.2812 34.3773 1.18794 33.9112 1.1875 33.4404V5.399C1.18839 4.44816 1.56732 3.53661 2.24093 2.86483C2.91455 2.19305 3.8277 1.81606 4.77953 1.81677H47.2231C48.175 1.81606 49.0881 2.19305 49.7617 2.86483C50.4353 3.53661 50.8143 4.44816 50.8152 5.399V33.4404C50.8147 33.9112 50.7215 34.3773 50.5407 34.8121C50.3599 35.2468 50.0952 35.6418 49.7617 35.9744C49.4281 36.3069 49.0323 36.5706 48.5967 36.7504C48.1611 36.9301 47.6944 37.0224 47.2231 37.022Z" fill="#4550E5"/>
<path d="M47.2233 37.4697H4.77969C3.70985 37.4688 2.68402 37.0441 1.92715 36.2888C1.17028 35.5335 0.744147 34.5092 0.742188 33.4404V5.399C0.744147 4.33028 1.17028 3.30595 1.92715 2.55063C2.68402 1.79531 3.70985 1.37064 4.77969 1.36975H47.2233C48.2931 1.37064 49.319 1.79531 50.0758 2.55063C50.8327 3.30595 51.2588 4.33028 51.2608 5.399V33.4404C51.2588 34.5092 50.8327 35.5335 50.0758 36.2888C49.319 37.0441 48.2931 37.4688 47.2233 37.4697ZM4.77969 2.2638C3.94687 2.26398 3.14813 2.59418 2.55874 3.18195C1.96934 3.76972 1.63743 4.56706 1.63582 5.399V33.4404C1.6376 34.2723 1.9696 35.0694 2.55897 35.6571C3.14835 36.2447 3.94699 36.5748 4.77969 36.575H47.2233C48.0561 36.575 48.8549 36.2449 49.4445 35.6573C50.034 35.0696 50.3661 34.2724 50.3678 33.4404V5.399C50.3662 4.56694 50.0342 3.7695 49.4447 3.18171C48.8551 2.59392 48.0562 2.2638 47.2233 2.2638H4.77969Z" fill="#DEA81E"/>
<path d="M3.44646 33.4021C3.43648 33.402 3.42661 33.3999 3.41741 33.396C3.40822 33.3921 3.39989 33.3865 3.39289 33.3794C3.38589 33.3722 3.38036 33.3638 3.37662 33.3546C3.37289 33.3453 3.37101 33.3354 3.3711 33.3255V5.91658C3.3711 4.7886 4.27079 3.87439 5.38043 3.87439H46.5852C47.6948 3.87439 48.5938 4.7886 48.5938 5.9159V33.3228C48.5939 33.3327 48.592 33.3426 48.5883 33.3519C48.5846 33.3611 48.579 33.3696 48.572 33.3767C48.565 33.3838 48.5567 33.3895 48.5475 33.3934C48.5383 33.3973 48.5284 33.3993 48.5185 33.3994L3.44646 33.4021Z" fill="white"/>
<path d="M48.5174 33.8465H3.44541C3.3065 33.8463 3.17334 33.7911 3.07517 33.6929C2.97701 33.5947 2.92187 33.4616 2.92188 33.3228V5.91664C2.92188 4.54398 4.02412 3.42944 5.37937 3.42944H46.5841C47.9387 3.42944 49.041 4.54599 49.041 5.91664V33.3235C49.0408 33.4621 48.9856 33.5951 48.8874 33.6931C48.7893 33.7911 48.6562 33.8463 48.5174 33.8465ZM3.81753 32.9524H48.1453V5.91596C48.1453 5.03671 47.4448 4.32215 46.5841 4.32215H5.37937C4.51804 4.32215 3.81753 5.03738 3.81753 5.91664V32.9524Z" fill="#DEA81E"/>
<path d="M27.7003 35.7024H23.8566C23.7408 35.6979 23.6313 35.6488 23.551 35.5654C23.4706 35.482 23.4258 35.3708 23.4258 35.2551C23.4258 35.1393 23.4706 35.0281 23.551 34.9447C23.6313 34.8613 23.7408 34.8122 23.8566 34.8077H27.7003C27.7606 34.8054 27.8207 34.8152 27.8771 34.8366C27.9334 34.8581 27.9849 34.8906 28.0284 34.9324C28.0718 34.9742 28.1064 35.0243 28.13 35.0797C28.1536 35.1352 28.1658 35.1948 28.1658 35.2551C28.1658 35.3153 28.1536 35.375 28.13 35.4304C28.1064 35.4858 28.0718 35.5359 28.0284 35.5777C27.9849 35.6195 27.9334 35.6521 27.8771 35.6735C27.8207 35.6949 27.7606 35.7048 27.7003 35.7024Z" fill="#DEA81E"/>
<path d="M36.6855 14.7186L35.7804 7.73962H30.7941H25.2634L25.0117 14.7186H36.6855Z" fill="white"/>
<path d="M36.6841 15.1658H25.0103C24.9501 15.1658 24.8906 15.1537 24.8352 15.1303C24.7798 15.1068 24.7298 15.0724 24.688 15.0292C24.6462 14.9859 24.6136 14.9347 24.5921 14.8786C24.5706 14.8225 24.5606 14.7626 24.5628 14.7026L24.8138 7.72367C24.818 7.60787 24.8669 7.4982 24.9504 7.41772C25.0338 7.33724 25.1453 7.29221 25.2613 7.29211H35.7783C35.8871 7.29218 35.9921 7.33178 36.0739 7.40352C36.1556 7.47525 36.2084 7.57423 36.2224 7.682L37.1275 14.6603C37.1357 14.7233 37.1304 14.7873 37.1119 14.8482C37.0934 14.909 37.0621 14.9651 37.0201 15.0129C36.9782 15.0607 36.9265 15.099 36.8685 15.1252C36.8106 15.1515 36.7477 15.165 36.6841 15.1651V15.1658ZM25.4739 14.2717H36.1733L35.388 8.1875H25.698L25.4739 14.2717Z" fill="#DEA81E"/>
<path d="M25.0093 14.7186L25.261 7.73962H16.1779L14.7695 14.7186H25.0093Z" fill="white"/>
<path d="M25.0081 15.1657H14.7684C14.7018 15.1658 14.6361 15.1511 14.576 15.1226C14.5159 15.0941 14.4629 15.0526 14.4209 15.0011C14.3789 14.9496 14.3489 14.8894 14.3331 14.8248C14.3173 14.7603 14.3161 14.693 14.3296 14.6279L15.7367 7.65169C15.7573 7.55044 15.8123 7.45941 15.8924 7.394C15.9725 7.32859 16.0727 7.29282 16.1761 7.29272H25.2605C25.3207 7.29278 25.3802 7.30493 25.4356 7.32847C25.491 7.35201 25.541 7.38646 25.5828 7.42974C25.6246 7.47303 25.6572 7.52427 25.6787 7.58042C25.7002 7.63657 25.7101 7.69647 25.708 7.75655L25.4563 14.7348C25.4523 14.8507 25.4033 14.9605 25.3196 15.041C25.236 15.1214 25.1242 15.1661 25.0081 15.1657ZM15.3181 14.2717H24.5761L24.7955 8.18744H16.5442L15.3181 14.2717Z" fill="#DEA81E"/>
<path d="M14.7751 14.7188L13.1406 22.8176H24.7229L25.0149 14.7188H14.7751Z" fill="white"/>
<path d="M24.7178 23.2652H13.1356C13.069 23.2653 13.0033 23.2506 12.9432 23.2221C12.8831 23.1936 12.8301 23.1521 12.7881 23.1006C12.7461 23.0491 12.7161 22.9889 12.7003 22.9243C12.6845 22.8598 12.6833 22.7925 12.6968 22.7275L14.3313 14.6279C14.3517 14.5268 14.4066 14.4358 14.4866 14.3704C14.5666 14.3051 14.6668 14.2695 14.7701 14.2697H25.0099C25.07 14.2697 25.1294 14.2818 25.1847 14.3054C25.24 14.3289 25.29 14.3633 25.3317 14.4065C25.3734 14.4497 25.406 14.5009 25.4274 14.5569C25.4489 14.613 25.4589 14.6728 25.4567 14.7328L25.1653 22.8317C25.1616 22.9478 25.1129 23.058 25.0294 23.1389C24.9459 23.2198 24.8342 23.2651 24.7178 23.2652ZM13.682 22.3705H24.2845L24.5442 15.1657H15.1361L13.682 22.3705Z" fill="#DEA81E"/>
<path d="M16.1813 7.73962H9.11364L6.37891 14.7186H14.7729L16.1813 7.73962Z" fill="white"/>
<path d="M14.7718 15.1657H6.37784C6.3049 15.1658 6.23304 15.1481 6.16851 15.1141C6.10399 15.0802 6.04876 15.0309 6.00762 14.9708C5.96649 14.9106 5.94071 14.8413 5.93252 14.7689C5.92433 14.6965 5.93398 14.6232 5.96063 14.5553L8.69537 7.57707C8.72825 7.49327 8.78564 7.42132 8.86006 7.3706C8.93449 7.31987 9.02249 7.29274 9.11258 7.29272H16.1782C16.2447 7.29276 16.3103 7.30757 16.3704 7.33609C16.4304 7.3646 16.4834 7.4061 16.5254 7.45758C16.5674 7.50906 16.5974 7.56923 16.6132 7.63373C16.6291 7.69823 16.6303 7.76544 16.617 7.8305L15.2085 14.8088C15.1878 14.9093 15.1331 14.9997 15.0536 15.0647C14.9741 15.1297 14.8746 15.1653 14.7718 15.1657ZM7.03327 14.2717H14.4051L15.6332 8.18744H9.41809L7.03327 14.2717Z" fill="#DEA81E"/>
<path d="M25.0069 14.7188L24.7148 22.8176H37.7311L36.6807 14.7188H25.0069Z" fill="white"/>
<path d="M37.7336 23.2651H24.7173C24.6571 23.2651 24.5976 23.2529 24.5422 23.2294C24.4868 23.2059 24.4368 23.1714 24.395 23.1281C24.3532 23.0848 24.3206 23.0336 24.2991 22.9774C24.2776 22.9213 24.2677 22.8614 24.2698 22.8013L24.5619 14.7025C24.5661 14.5867 24.615 14.4772 24.6985 14.3968C24.782 14.3164 24.8934 14.2715 25.0094 14.2716H36.6831C36.7917 14.2717 36.8966 14.3112 36.9782 14.3828C37.0598 14.4544 37.1125 14.5532 37.1266 14.6608L38.1777 22.7603C38.1859 22.8234 38.1806 22.8875 38.162 22.9484C38.1435 23.0092 38.1121 23.0654 38.0701 23.1132C38.028 23.161 37.9763 23.1993 37.9182 23.2255C37.8602 23.2517 37.7972 23.2652 37.7336 23.2651ZM25.1816 22.3704H37.2268L36.2922 15.1656H25.4407L25.1816 22.3704Z" fill="#DEA81E"/>
<path d="M46.0587 14.7186H36.6863L37.7367 22.8174H49.0149L43.5656 7.73962H35.7812L36.6863 14.7186H46.0587Z" fill="white"/>
<path d="M49.0142 23.2652H37.7361C37.6273 23.2652 37.5222 23.2256 37.4405 23.1538C37.3588 23.0821 37.306 22.9831 37.292 22.8753L36.2415 14.7758L35.3358 7.79755C35.3276 7.73447 35.3329 7.67036 35.3514 7.6095C35.37 7.54864 35.4013 7.49244 35.4434 7.44465C35.4854 7.39686 35.5372 7.35859 35.5952 7.33239C35.6533 7.30619 35.7162 7.29267 35.7799 7.29272H43.5649C43.657 7.29289 43.7468 7.32136 43.8222 7.37427C43.8976 7.42718 43.9548 7.50197 43.9861 7.5885L49.4368 22.6656C49.4612 22.7332 49.4689 22.8056 49.4594 22.8768C49.4499 22.948 49.4233 23.0159 49.382 23.0747C49.3407 23.1335 49.2859 23.1815 49.2221 23.2147C49.1583 23.2478 49.0874 23.2652 49.0155 23.2652H49.0142ZM38.1297 22.3705H48.3769L45.7734 15.1657H37.1951L38.1297 22.3705ZM37.0786 14.2717H45.4491L43.2506 8.18744H36.2893L37.0786 14.2717Z" fill="#DEA81E"/>
<path d="M49.0164 22.8176H37.7383L38.6508 29.8497H51.558L49.0164 22.8176Z" fill="white"/>
<path d="M51.5527 30.2964H38.6455C38.5367 30.2965 38.4316 30.257 38.3498 30.1852C38.2681 30.1134 38.2153 30.0144 38.2014 29.9066L37.2889 22.8752C37.2807 22.8121 37.286 22.748 37.3046 22.6871C37.3231 22.6263 37.3545 22.5701 37.3965 22.5223C37.4386 22.4745 37.4903 22.4362 37.5484 22.41C37.6064 22.3838 37.6694 22.3703 37.733 22.3704H49.0111C49.1032 22.3704 49.193 22.3987 49.2684 22.4515C49.3437 22.5043 49.401 22.579 49.4324 22.6655L51.9733 29.6975C51.9977 29.765 52.0055 29.8373 51.996 29.9085C51.9865 29.9796 51.9601 30.0474 51.9188 30.1061C51.8776 30.1649 51.8228 30.2128 51.759 30.246C51.6953 30.2791 51.6246 30.2964 51.5527 30.2964ZM39.0365 29.4024H50.9128L48.6922 23.2651H38.2424L39.0365 29.4024Z" fill="#DEA81E"/>
<path d="M24.7218 22.8176L24.4688 29.8497H38.6505L37.738 22.8176H24.7218Z" fill="white"/>
<path d="M38.6497 30.2964H24.4673C24.4072 30.2965 24.3476 30.2844 24.2923 30.2609C24.2369 30.2375 24.1868 30.2031 24.145 30.1599C24.1033 30.1166 24.0707 30.0654 24.0491 30.0093C24.0276 29.9532 24.0177 29.8933 24.0198 29.8333L24.2735 22.8013C24.2779 22.6856 24.3269 22.5761 24.4103 22.4957C24.4938 22.4154 24.6051 22.3705 24.721 22.3704H37.7372C37.846 22.3704 37.9511 22.41 38.0328 22.4818C38.1145 22.5535 38.1673 22.6525 38.1814 22.7602L39.0939 29.7916C39.1021 29.8547 39.0968 29.9188 39.0782 29.9797C39.0596 30.0405 39.0283 30.0967 38.9863 30.1445C38.9442 30.1923 38.8924 30.2306 38.8344 30.2568C38.7764 30.283 38.7134 30.2965 38.6497 30.2964ZM24.9316 29.4024H38.1403L37.3422 23.2651H25.153L24.9316 29.4024Z" fill="#DEA81E"/>
<path d="M3.20091 22.8176L0.445312 29.8497H11.7153L13.1345 22.8176H3.20091Z" fill="white"/>
<path d="M11.7182 30.2964H0.448155C0.375214 30.2965 0.303351 30.2788 0.238825 30.2448C0.174299 30.2109 0.119065 30.1617 0.0779333 30.1015C0.0368014 30.0413 0.0110192 29.972 0.00282967 29.8996C-0.00535983 29.8272 0.00429133 29.7539 0.0309453 29.6861L2.78654 22.6547C2.81942 22.5709 2.87681 22.499 2.95123 22.4482C3.02566 22.3975 3.11366 22.3704 3.20375 22.3704H13.1374C13.2039 22.3703 13.2696 22.385 13.3297 22.4135C13.3898 22.442 13.4428 22.4835 13.4848 22.535C13.5268 22.5865 13.5568 22.6467 13.5726 22.7113C13.5884 22.7758 13.5896 22.8431 13.5761 22.9081L12.1569 29.9395C12.1363 30.0404 12.0813 30.1311 12.0013 30.1962C11.9214 30.2612 11.8213 30.2967 11.7182 30.2964ZM1.10425 29.4024H11.3521L12.5903 23.2651H3.50589L1.10425 29.4024Z" fill="#DEA81E"/>
<path d="M14.7713 14.7188H6.37728L3.20312 22.8176H13.1367L14.7713 14.7188Z" fill="white"/>
<path d="M13.1354 23.2652H3.20175C3.12887 23.2651 3.05709 23.2473 2.99265 23.2133C2.92822 23.1793 2.87306 23.13 2.83196 23.0699C2.79086 23.0098 2.76506 22.9406 2.7568 22.8682C2.74853 22.7959 2.75806 22.7226 2.78454 22.6548L5.95869 14.5553C5.99159 14.4716 6.04901 14.3997 6.12345 14.3491C6.19788 14.2985 6.28586 14.2715 6.3759 14.2716H14.7699C14.8364 14.2714 14.9022 14.286 14.9624 14.3145C15.0225 14.3429 15.0756 14.3844 15.1176 14.436C15.1597 14.4875 15.1897 14.5478 15.2054 14.6124C15.2212 14.677 15.2223 14.7443 15.2086 14.8094L13.5741 22.9089C13.5531 23.0096 13.498 23.1 13.4181 23.1649C13.3382 23.2297 13.2383 23.2652 13.1354 23.2652ZM3.85784 22.3704H12.7686L14.2228 15.1656H6.6814L3.85784 22.3704Z" fill="#DEA81E"/>
<path d="M13.1379 22.8176L11.7188 29.8497H24.4672L24.7202 22.8176H13.1379Z" fill="white"/>
<path d="M24.4653 30.2965H11.7176C11.6511 30.2966 11.5854 30.2819 11.5253 30.2534C11.4652 30.2249 11.4122 30.1834 11.3701 30.1319C11.3281 30.0804 11.2981 30.0202 11.2823 29.9556C11.2665 29.8911 11.2653 29.8238 11.2788 29.7587L12.698 22.7274C12.7183 22.6261 12.7731 22.5349 12.8531 22.4694C12.9331 22.404 13.0334 22.3683 13.1368 22.3684H24.719C24.7792 22.3684 24.8387 22.3804 24.8941 22.4039C24.9495 22.4274 24.9995 22.4618 25.0413 22.505C25.0831 22.5482 25.1157 22.5994 25.1372 22.6555C25.1587 22.7116 25.1687 22.7715 25.1665 22.8316L24.9128 29.8636C24.9092 29.9797 24.8604 30.0898 24.7769 30.1706C24.6934 30.2514 24.5816 30.2966 24.4653 30.2965ZM12.2647 29.4025H24.0333L24.2547 23.2651H13.5028L12.2647 29.4025Z" fill="#DEA81E"/>
<path d="M14.1374 17.6474C16.5821 17.6474 18.5638 16.7409 18.5638 15.6227C18.5638 14.5045 16.5821 13.598 14.1374 13.598C11.6927 13.598 9.71094 14.5045 9.71094 15.6227C9.71094 16.7409 11.6927 17.6474 14.1374 17.6474Z" fill="#4550E5"/>
<path d="M14.1357 18.0953C11.3572 18.0953 9.26172 17.0325 9.26172 15.6235C9.26172 14.2146 11.3572 13.1511 14.1357 13.1511C16.9141 13.1511 19.0103 14.2139 19.0103 15.6235C19.0103 17.0332 16.9148 18.0953 14.1357 18.0953ZM14.1357 14.0458C13.0166 14.0458 11.9709 14.2421 11.1923 14.5984C10.5443 14.8949 10.1574 15.278 10.1574 15.6235C10.1574 16.3677 11.8585 17.2006 14.1357 17.2006C15.2554 17.2006 16.3004 17.0043 17.0797 16.6487C17.7277 16.3515 18.1146 15.9684 18.1146 15.6235C18.1146 14.8787 16.4128 14.0458 14.1357 14.0458Z" fill="#DEA81E"/>
<path d="M19.1602 5.42991C19.1602 8.2149 14.1133 14.7737 14.1133 14.7737C14.1133 14.7737 9.06641 8.21221 9.06641 5.42991C9.06641 4.0928 9.59813 2.81044 10.5446 1.86496C11.4911 0.919473 12.7748 0.388306 14.1133 0.388306C15.4518 0.388306 16.7355 0.919473 17.682 1.86496C18.6284 2.81044 19.1602 4.0928 19.1602 5.42991Z" fill="#4550E5"/>
<path d="M14.1129 15.2234C14.0443 15.2233 13.9767 15.2076 13.9152 15.1773C13.8537 15.147 13.8 15.1029 13.7583 15.0486C13.7455 15.0325 12.469 13.3681 11.2106 11.3871C9.48996 8.67535 8.61719 6.67081 8.61719 5.4299C8.6332 3.9843 9.2193 2.60334 10.2483 1.58675C11.2772 0.570169 12.666 0 14.1132 0C15.5604 0 16.9492 0.570169 17.9782 1.58675C19.0072 2.60334 19.5933 3.9843 19.6093 5.4299C19.6093 6.67081 18.7345 8.67535 17.0152 11.3871C15.7568 13.3694 14.481 15.0325 14.4682 15.0486C14.4263 15.103 14.3725 15.147 14.3109 15.1773C14.2493 15.2076 14.1816 15.2234 14.1129 15.2234ZM14.1129 0.833966C12.8932 0.83539 11.7239 1.32008 10.8615 2.18169C9.99912 3.04331 9.51409 4.21148 9.51284 5.4299C9.51284 7.42234 12.5598 11.9403 14.1129 14.0342C15.666 11.941 18.7136 7.42301 18.7136 5.4299C18.7122 4.21142 18.227 3.04325 17.3645 2.18165C16.502 1.32006 15.3327 0.835389 14.1129 0.833966Z" fill="#DEA81E"/>
<path d="M15.8417 7.51572C16.8006 6.5578 16.8006 5.0047 15.8417 4.04678C14.8827 3.08885 13.328 3.08886 12.3691 4.04678C11.4102 5.0047 11.4102 6.5578 12.3691 7.51572C13.328 8.47364 14.8827 8.47364 15.8417 7.51572Z" fill="white"/>
<path d="M14.1107 8.68157C13.5364 8.68157 12.9749 8.51144 12.4974 8.19269C12.0199 7.87394 11.6477 7.42088 11.428 6.89083C11.2082 6.36078 11.1508 5.77753 11.2629 5.21485C11.375 4.65217 11.6516 4.13533 12.0577 3.7297C12.4639 3.32407 12.9813 3.04787 13.5446 2.93602C14.1079 2.82418 14.6918 2.88172 15.2223 3.10136C15.7529 3.321 16.2063 3.69288 16.5253 4.16997C16.8443 4.64706 17.0144 5.20793 17.0143 5.78164C17.0134 6.5506 16.7072 7.28779 16.1628 7.83146C15.6185 8.37513 14.8804 8.68086 14.1107 8.68157ZM14.1107 3.77442C13.7134 3.77428 13.3249 3.89185 12.9945 4.11225C12.6641 4.33266 12.4066 4.64599 12.2544 5.01263C12.1023 5.37927 12.0624 5.78274 12.1399 6.17202C12.2173 6.5613 12.4085 6.9189 12.6894 7.19959C12.9703 7.48028 13.3282 7.67145 13.7179 7.74893C14.1075 7.82641 14.5115 7.78671 14.8785 7.63486C15.2456 7.483 15.5593 7.22582 15.7801 6.89583C16.0008 6.56584 16.1187 6.17786 16.1187 5.78097C16.1179 5.2492 15.9062 4.7394 15.5297 4.36338C15.1533 3.98736 14.643 3.7758 14.1107 3.77509V3.77442Z" fill="#DEA81E"/>
<path d="M30.5753 15.9245C26.4644 21.2586 27.8405 28.4237 28.1696 29.8481H30.113C30.114 29.7659 30.1048 29.684 30.0854 29.6041C30.0659 29.5302 28.1911 22.1492 32.1041 17.0855C34.6343 13.8111 39.0547 12.1507 45.2435 12.1507L44.4717 10.2477C37.8327 10.3142 33.4358 12.2159 30.5753 15.9245Z" fill="#4550E5"/>
<path d="M30.115 30.2965H28.1716C28.0703 30.2965 27.972 30.2622 27.8927 30.1993C27.8133 30.1363 27.7577 30.0483 27.7349 29.9496C27.4072 28.5272 25.9853 21.1524 30.2247 15.6537C31.7321 13.6975 33.6007 12.2758 35.9385 11.3071C38.3038 10.327 41.0937 9.8343 44.4684 9.80069C44.5583 9.79959 44.6464 9.82564 44.7212 9.87542C44.796 9.9252 44.854 9.99638 44.8876 10.0797L45.6615 11.984C45.6892 12.0519 45.6997 12.1256 45.6922 12.1985C45.6847 12.2714 45.6594 12.3414 45.6184 12.4022C45.5774 12.4631 45.5221 12.5129 45.4574 12.5474C45.3926 12.5818 45.3203 12.5998 45.2469 12.5998C39.2041 12.5998 34.9028 14.201 32.4615 17.3597C28.7006 22.2279 30.5033 29.4206 30.5221 29.4925C30.5515 29.6094 30.5656 29.7297 30.5639 29.8502C30.5639 29.9089 30.5522 29.9672 30.5297 30.0214C30.5071 30.0757 30.474 30.125 30.4323 30.1665C30.3906 30.208 30.3411 30.2408 30.2866 30.2631C30.2322 30.2854 30.1739 30.2968 30.115 30.2965ZM28.5323 29.4025H29.5821C29.2665 27.9075 28.1777 21.4394 31.7516 16.8132C34.2777 13.5429 38.5931 11.8281 44.5821 11.7118L44.1709 10.6994C41.0506 10.7573 38.4659 11.2271 36.2796 12.1339C34.0933 13.0408 32.341 14.3704 30.932 16.1988C27.2074 21.0334 28.1373 27.4618 28.5323 29.4025Z" fill="#DEA81E"/>
</svg>
