<svg fill="none" height="23" viewBox="0 0 23 23" width="23" xmlns="http://www.w3.org/2000/svg"><circle cx="11.5" cy="11.5" fill="#fff" r="11.5"/><path d="m10.329 17.0215c-.0833-.0736-.1488-.1628-.1922-.2617-.0433-.0989-.0634-.2052-.0591-.3119-.0194-.1068-.0194-.2159 0-.3227.0394-.098.1061-.1846.1933-.251l3.8656-3.5853h-9.14205c-.11489.0048-.22965-.012-.33733-.0495-.10768-.0374-.20605-.0947-.28916-.1685-.08311-.0737-.14923-.1623-.19437-.2604-.04513-.0981-.06834-.2037-.06822-.3104.00951-.2159.10623-.4205.27095-.5733s.38537-.2425.61813-.2513h9.21935l-3.8656-3.58538c-.0858-.07274-.1543-.16138-.2009-.2602-.0466-.09881-.0703-.2056-.0697-.31346.0024-.2226.0997-.43528.2706-.59158.0891-.08376.2038-.14009.3286-.16134.1087-.01776.2199-.01776.3286 0 .1151-.01805.2327-.01805.3479 0 .1136.0318.2145.09419.2899.17927l5.3538 4.96569c.1576.1557.2471.3602.2512.5737-.0047.2187-.0939.4286-.2512.5916l-5.3538 4.9657c-.0743.0901-.1749.1586-.2899.1972-.1217.0177-.2456.0177-.3673 0-.1216.0177-.2455.0177-.3672 0-.1125-.0511-.2115-.1245-.2899-.2152z" fill="#4550e5"/></svg>