<svg fill="none" height="74" viewBox="0 0 76 74" width="76" xmlns="http://www.w3.org/2000/svg"><path d="m1 37c0 9.5478 3.67943 18.7045 10.2288 25.4558 6.5495 6.7514 15.4324 10.5442 24.6947 10.5442 9.2622 0 18.1452-3.7928 24.6946-10.5442 6.5494-6.7513 10.2288-15.908 10.2288-25.4558s-3.6794-18.7045-10.2288-25.4558c-6.5494-6.75135-15.4324-10.5442-24.6946-10.5442-9.2623 0-18.1452 3.79285-24.6947 10.5442-6.54937 6.7513-10.2288 15.908-10.2288 25.4558z" fill="#e8f4fa" stroke="#daedf7"/><path d="m18.3457 62.0261c0 .529 1.9026 1.0363 5.2893 1.4103s7.9801.5841 12.7696.5841 9.3829-.2101 12.7696-.5841 5.2893-.8813 5.2893-1.4103c0-.5289-1.9026-1.0362-5.2893-1.4102s-7.9801-.5842-12.7696-.5842-9.3829.2102-12.7696.5842-5.2893.8813-5.2893 1.4102z" fill="#45413c" opacity=".15"/><path d="m17.6992 11.4968h37.4083v49.1994h-37.4083z" fill="#e8f4fa"/><path d="m55.1075 13.2968c0-.4774-.184-.9352-.5115-1.2728-.3274-.3375-.7716-.5272-1.2347-.5272h-33.9159c-.4631 0-.9073.1897-1.2347.5272-.3275.3376-.5115.7954-.5115 1.2728v3.519c0-.3492.0668-.6951.1964-1.0177.1297-.3227.3197-.6159.5593-.8628.2395-.247.524-.4429.837-.5765.313-.1337.6485-.2025.9873-.2025h32.2483c.6843 0 1.3405.2802 1.8243.779.4839.4987.7557 1.1752.7557 1.8805z" fill="#fff"/><g stroke="#45413c" stroke-linecap="round" stroke-linejoin="round"><path d="m17.6992 11.4968h37.4083v49.1994h-37.4083z"/><path d="m20.9258 18.1458h30.9588v36.5669h-30.9588z" fill="#9ceb60"/><path d="m39.581 30.887 12.3027 8.7102v-6.0777l-9.5516-6.7617 5.7379-8.6121h-5.8959l-3.8486 5.7762-4.7007-3.33 1.6301-2.4471h-3.7936l-.4156.6228-.8809-.6228h-7.9495c-.1681.0002-.3346.0348-.4898.1017l6.5709 4.6512-7.3706 11.0637v5.6916l.5849-.8793 4.7025 3.33-5.2874 7.9371v3.7728c0 .2387.092.4676.2557.6364s.3858.2636.6174.2636h1.8204l6.6005-9.774 13.9929 9.774h5.875l-17.9855-12.6zm-11.4854 8.3898-4.7007-3.33 7.478-11.2257 4.7015 3.33z" fill="#fff48c"/></g><path d="m36.4706 13.8909c-.1532-.0002-.3031.0465-.4306.1341-.1275.0877-.2268.2124-.2856.3583-.0587.1459-.0741.3065-.0442.4614.0298.1549.1036.2973.2119.409.1084.1117.2465.1877.3968.2185.1503.0307.3061.0149.4476-.0457.1415-.0605.2625-.163.3475-.2944s.1303-.2859.1302-.4438c-.0003-.2114-.0818-.4141-.2269-.5636-.145-.1495-.3416-.2336-.5467-.2338z" fill="#45413c"/><path d="m33.543 32.6438c0 1.2696.4892 2.4872 1.3601 3.385.871.8977 2.0522 1.4021 3.2838 1.4021 1.2317 0 2.4129-.5044 3.2838-1.4021.8709-.8978 1.3602-2.1154 1.3602-3.385s-.4893-2.4872-1.3602-3.385-2.0521-1.4021-3.2838-1.4021c-1.2316 0-2.4128.5043-3.2838 1.4021-.8709.8978-1.3601 2.1154-1.3601 3.385z" fill="#ff6242" stroke="#45413c" stroke-linecap="round" stroke-linejoin="round"/><path d="m35.8242 57.7711c0 .1764.068.3455.189.4703.121.1247.2851.1948.4562.1948s.3353-.0701.4563-.1948c.121-.1248.1889-.2939.1889-.4703s-.0679-.3456-.1889-.4703c-.121-.1248-.2852-.1948-.4563-.1948s-.3352.07-.4562.1948c-.121.1247-.189.2939-.189.4703z" stroke="#45413c" stroke-linecap="round" stroke-linejoin="round"/><path d="m51.6674 53.1569-9.3944-9.6849c-.1952-.1968-.3505-.4315-.457-.6905-.1065-.2591-.1621-.5373-.1636-.8187-.0015-.2813.0511-.5602.1549-.8205.1038-.2602.2566-.4966.4496-.6956.193-.1989.4223-.3565.6748-.4634.2525-.107.523-.1613.7959-.1597.273.0015.5429.0589.7942.1687s.479.2699.6699.471l7.2056 7.4268c-.3801-.4005-.5916-.9393-.5886-1.4995s.2202-1.0967.6045-1.4928.9046-.6201 1.4481-.6231c.5435-.0031 1.0662.2149 1.4547.6067l.7299.7524c-.3668-.4029-.5671-.9371-.5587-1.4895.0085-.5525.2251-1.0799.6041-1.4706.3789-.3908.8905-.6143 1.4264-.6232.5359-.0088 1.0542.1975 1.4452.5755l.7299.7524c-.3801-.4005-.5916-.9393-.5886-1.4995s.2202-1.0967.6045-1.4928.9047-.6201 1.4481-.6231c.5435-.0031 1.0662.2149 1.4547.6067l5.2918 5.4504c3.7595 3.8754 2.9589 6.0588 5.1084 8.2746l2.0081 2.07-8.3912 8.6499c-4.2048-4.3344-7.4492 1.503-14.0916-5.3433-2.5093-2.5812-2.6778-4.4505-.8696-6.3144z" fill="#ffcebf"/><path d="m57.628 47.2642-1.5811-1.6299z" fill="#ffcebf"/><path d="m57.628 47.2642-1.5811-1.6299" stroke="#45413c" stroke-linecap="round" stroke-linejoin="round"/><path d="m54.5873 50.1481-2.1889-2.2572z" fill="#ffcebf"/><path d="m54.5873 50.1481-2.1889-2.2572" stroke="#45413c" stroke-linecap="round" stroke-linejoin="round"/><path d="m60.5466 44.2557-.8513-.8775z" fill="#ffcebf"/><path d="m60.5466 44.2557-.8513-.8775" stroke="#45413c" stroke-linecap="round" stroke-linejoin="round"/><path d="m66.627 64.8153 8.3912-8.6454-2.0081-2.07c-.8269-.9243-1.4491-2.0227-1.8239-3.2193-1.3089 2.844-3.1778 5.3761-5.4876 7.4352-2.3098 2.059-5.0101 3.6-7.9291 4.5249 3.4679.8703 5.9292-1.0431 8.8575 1.9746z" fill="#ffb59e"/><path d="m66.6268 64.8155c-4.2048-4.3344-7.4491 1.503-14.0916-5.3433-2.5075-2.5857-2.676-4.4514-.8678-6.3153l-9.3944-9.6849c-.1952-.1968-.3505-.4315-.457-.6905-.1065-.2591-.1621-.5373-.1636-.8187-.0015-.2813.0511-.5602.1549-.8205.1038-.2602.2566-.4966.4496-.6956.193-.1989.4223-.3565.6748-.4634.2525-.107.523-.1613.7959-.1597.273.0015.5429.0589.7942.1687s.479.2699.6699.471l7.2056 7.4268c-.3801-.4005-.5916-.9393-.5886-1.4995s.2202-1.0967.6045-1.4928.9046-.6201 1.4481-.6231c.5435-.0031 1.0662.2149 1.4547.6067l.7299.7524c-.3668-.4029-.5671-.9371-.5587-1.4895.0085-.5525.2251-1.0799.6041-1.4706.3789-.3908.8905-.6143 1.4264-.6232.5359-.0088 1.0542.1975 1.4452.5755l.7299.7524c-.3801-.4005-.5916-.9393-.5886-1.4995s.2202-1.0967.6045-1.4928.9047-.6201 1.4481-.6231c.5435-.0031 1.0662.2149 1.4547.6067l5.2918 5.4504c3.7595 3.8754 2.9589 6.0588 5.1084 8.2746l2.0081 2.07" stroke="#45413c" stroke-linecap="round" stroke-linejoin="round"/><path d="m54.9516 56.5419-3.2836-3.3849" stroke="#45413c" stroke-linecap="round" stroke-linejoin="round"/></svg>