<svg fill="none" height="63" viewBox="0 0 76 63" width="76" xmlns="http://www.w3.org/2000/svg" xmlns:xlink="http://www.w3.org/1999/xlink"><clipPath id="a"><path d="m.625.181641h75v62.7815h-75z"/></clipPath><g clip-path="url(#a)"><path d="m30.4364 10.0683-15.9818 38.7601c-.4839 1.1704-.6697 2.4546-.5389 3.7248.1307 1.2701.5735 2.4818 1.2841 3.5144.7106 1.0325 1.6644 1.8499 2.7662 2.3707 1.1018.5209 2.3133.7269 3.5137.5977 11.1082-1.1894 27.7439-3.0081 39.2801-4.2668 1.3023-.1403 2.5456-.6466 3.6012-1.4664 1.0556-.8199 1.8851-1.9235 2.4027-3.1967s.7044-2.6698.5412-4.0451c-.1632-1.3754-.6705-2.6795-1.4695-3.7776l-24.4928-33.63742c-.6751-.93362-1.569-1.66418-2.5929-2.11927-1.024-.45508-2.1425-.61887-3.2447-.47514-1.1021.14373-2.1497.59001-3.0388 1.29457-.8891.70457-1.5888 1.64295-2.0298 2.72216z" fill="#e8edff"/><path d="m31.2561 12.6675c.0258-.132.0698-.2593.1308-.3776.0535-.1196.1129-.2769.2021-.4468l.3625-.5853c.1426-.2077.3388-.4217.5409-.6671.2443-.246.5066-.4712.7845-.67336.6943-.51743 1.4913-.85971 2.3298-1.00063.8288-.15903 1.6803-.12487 2.4953.10011s1.5739.63537 2.2238 1.20258l.3685.3336c.1129.1195.2199.2517.3269.3838.2247.2552.4351.5242.63.8056l5.5214 7.4638 14.3118 19.509 2.0385 2.788c.7434 1.0241 1.2189 2.2374 1.3789 3.5179.1284.997.0653 2.0111-.1856 2.9816s-.6843 1.8774-1.2743 2.6661c-.5901.7887-1.3245 1.4431-2.1593 1.9239s-1.7527.778-2.6986.8739l-3.6493.3965-7.459.8181-14.704 1.5859-6.9954.7489-1.7058.1825-.8439.0881-.9034.0315c-1.1956-.038-2.3578-.4257-3.3581-1.1202-.9582-.6638-1.7403-1.576-2.2718-2.6499-.5316-1.0739-.795-2.2739-.7652-3.486.0297-.2958.0297-.5916.0772-.8748.0476-.2832.1129-.5727.1843-.8496l.2734-.8055c.095-.258.202-.4972.3031-.7426.3962-.9734.7924-1.9341 1.1887-2.8823l4.3981-10.5098c2.6924-6.4191 4.8855-11.611 6.4189-15.1856.7786-1.7747 1.3789-3.1466 1.783-4.1095.1887-.4889.4153-.9604.6776-1.4096-.1264.5108-.2975 1.008-.5112 1.4852-.3744.9691-.9212 2.3788-1.6285 4.185-1.4323 3.6249-3.566 8.8546-6.1514 15.3115-1.3135 3.2284-2.7459 6.7652-4.2912 10.56l-1.1886 2.8886c-.1011.2455-.2081.4972-.2972.7363l-.2377.7175c-.0595.2454-.1011.4971-.1546.7489-.0535.2517-.0356.5034-.0654.7615-.0179 1.0597.2193 2.1069.6893 3.0428.47.9358 1.1573 1.7296 1.9972 2.3064.8733.597 1.885.9279 2.9241.9566h.7846l.8439-.0881 1.7058-.1888 6.9894-.7741 14.7694-1.6677 7.459-.8055 3.6493-.3965c1.1235-.1106 2.1968-.546 3.1025-1.2587.8796-.7025 1.5679-1.6392 1.9948-2.7147.427-1.0755.5774-2.2516.436-3.4086-.1349-1.1183-.5448-2.1795-1.1887-3.0774l-2.0207-2.8005-14.1513-19.6098c-2.0089-2.7942-3.8216-5.324-5.4145-7.5519-.1961-.2769-.3922-.56-.5943-.7929-.101-.1196-.1961-.2454-.2972-.3587l-.3328-.3084c-.4294-.3899-.9124-.70825-1.4324-.94398-.9265-.3953-1.935-.52551-2.9241-.37759-.7955.11109-1.5583.40538-2.2348.86217-.2705.1912-.5287.4015-.7726.6293-.2021.2266-.4042.4217-.5587.6294l-.3804.5349c-.101.1636-.1723.3084-.2377.4216-.1486.214-.2377.3336-.2556.321z" fill="#fff" opacity=".25"/><path d="m33.8186 21.5281 2.3774 15.4499c.0901.6123.3904 1.1679.8433 1.5604s1.0266.5943 1.6113.5667c.6171-.0212 1.2021-.2958 1.6313-.7656.4293-.4698.6691-1.098.6688-1.7517l.1664-15.796c.0025-.2821-.0516-.5616-.1586-.82-.1071-.2583-.2646-.4897-.4623-.6789-.1978-.1891-.4311-.3317-.6847-.4183s-.5216-.1152-.7864-.0841l-3.5661.428c-.2535.0312-.4984.1167-.7197.2512-.2214.1345-.4146.3153-.568.5313-.1534.2159-.2638.4627-.3244.7252s-.0703.5353-.0283.8019z" fill="#fc5d00"/><path d="m43.065 46.8401c-.1561.7361-.5149 1.4065-1.031 1.9266s-1.1663.8664-1.8683.9952-1.4243.0342-2.0756-.2718c-.6512-.306-1.2021-.8096-1.583-1.4471-.3809-.6376-.5746-1.3804-.5567-2.1346.0178-.7541.2465-1.4857.6571-2.1022.4107-.6165.9847-1.0902 1.6496-1.3612.665-.271 1.3908-.3271 2.0858-.1612.9306.2238 1.7396.8289 2.2498 1.6829.5101.8539.68 1.8871.4723 2.8734z" fill="#fc5d00"/><path d="m13.434.898944-11.88683 11.522956c-.35958.3481-.6267.7899-.774745 1.2814s-.171839 1.0155-.069014 1.5198c.102824.5043.328669.9712.655039 1.3542.32637.3831.74185.6688 1.20504.8288 4.27926 1.4915 10.69811 3.7068 15.14981 5.2486.5016.1703 1.037.1962 1.5512.0753.5143-.1209.989-.3844 1.3754-.7635s.6708-.8601.8238-1.3938c.1531-.5338.1695-1.101.0474-1.6436l-3.8157-16.63305c-.0995-.46723-.3137-.89842-.6208-1.25011-.307-.351686-.6963-.611452-1.1284-.75312s-.8918-.160236-1.3329-.053824c-.441.106413-.8478.334043-1.1793.659948z" fill="#e8edff"/><path d="m13.3314 2.00046s.101-.21397.4457-.45311c.5354-.34078 1.1759-.44476 1.7831-.28949.4467.10927.8573.34406 1.1886.67967.377.40944.6349.92497.743 1.4852.2734 1.09503.5943 2.3348.9212 3.70044.6597 2.76273 1.4442 6.02893 2.3179 9.66013.107.4594.214.9188.3269 1.3845.0959.4237.1115.8633.0457 1.2934-.0657.4301-.2115.8421-.4288 1.212-.2172.37-.5017.6906-.8369.9433s-.7145.4324-1.1157.5287c-.5574.1335-1.1386.1053-1.682-.0819l-1.4086-.4845-2.8766-.9944-5.67006-1.9761-2.69237-.9439-.65972-.2329-.32688-.1133-.3685-.1573c-.35046-.1759-.66462-.4234-.9244-.7283-.25979-.305-.46007-.6613-.58932-1.0485s-.18493-.7976-.16382-1.2077c.0211-.41.11856-.8116.28678-1.1816.10965-.2252.24325-.4363.39821-.6294l.24368-.2706.2318-.2202.89745-.8496 3.26888-3.08371c2.00888-1.88797 3.63737-3.39206 4.75477-4.40527.5596-.575 1.1752-1.08551 1.8365-1.52297-.4535.64852-.965 1.24916-1.5275 1.79357-1.0698 1.10761-2.63291 2.69981-4.58235 4.64442l-3.19756 3.17806-.87963.8685-.2199.2203-.17831.2014c-.10687.1442-.19854.3003-.27339.4656-.1512.3481-.21635.7311-.18931 1.1131.02703.382.14535.7504.34384 1.0707.20589.3261.49138.5871.82613.7552l.26745.1133.32689.1133.65378.2202 2.70426.9251 5.676 1.9509 2.8706 1.0007 1.4086.4908c.3829.1371.7939.1611 1.1887.0693.3856-.0937.7412-.293 1.0311-.578.29-.2849.5042-.6455.6212-1.0457.1068-.3912.1191-.8045.0356-1.202-.1069-.4657-.208-.9314-.309-1.3845-.7964-3.6501-1.5215-6.9226-2.1278-9.70421l-.7904-3.73819c-.0639-.4772-.2557-.92498-.5528-1.29012-.2597-.29394-.5876-.51089-.9509-.62933-.5225-.17201-1.086-.13848-1.5869.09441-.3328.15733-.5052.30836-.5349.2706z" fill="#fff" opacity=".25"/><path d="m12.9046 5.71307-1.5096 6.11073c-.0608.2445-.0336.5041.0762.7285.1098.2245.2945.3977.5181.4861.2308.0962.4877.095.7177-.0033.23-.0984.4156-.2864.5186-.5253l2.5081-5.7961c.0445-.10376.0677-.21634.0681-.33031.0004-.11396-.0221-.2267-.0659-.33079s-.108-.19716-.1883-.27304c-.0803-.07589-.1749-.13287-.2775-.16718l-1.3848-.45941c-.099-.03655-.2041-.05086-.3086-.04204-.1044.00882-.2061.04058-.2983.09327-.0923.05269-.1731.12515-.2375.21277-.0643.08761-.1108.18845-.1363.2961z" fill="#fff" opacity=".5"/><path d="m12.393 16.657c-.1716.2431-.4074.4269-.6775.5282-.2702.1013-.5627.1155-.8405.0409-.2779-.0746-.5286-.2347-.7205-.46-.19197-.2254-.31653-.506-.35799-.8063-.04147-.3003.00204-.6068.12502-.881.12297-.2741.31987-.5035.56597-.6592.246-.1557.5301-.2307.8163-.2155.2863.0151.5619.1197.792.3006.1533.1205.2826.2718.3805.4452.0979.1735.1625.3657.1901.5657.0276.1999.0177.4037-.0293.5996-.0469.1958-.1298.38-.2441.5418z" fill="#fff" opacity=".5"/><path d="m59.1014 4.47395-2.6983 13.02705c-.0823.3934-.0658.8028.048 1.1873.1139.3846.321.7307.6007 1.004.2797.2732.6223.464.9934.5532s.7579.0738 1.1216-.0447l11.8868-3.8704c.3937-.1295.7476-.3679 1.0253-.6905.2777-.3227.4691-.7179.5545-1.1449.0854-.4271.0617-.8705-.0687-1.2846s-.3627-.7839-.6731-1.0713l-9.5094-8.81053c-.2628-.24228-.5806-.40802-.9221-.48094-.3416-.07293-.6952-.05052-1.0261.06501-.331.11553-.6278.3202-.8614.59394-.2337.27373-.396.6071-.4712.96737z" fill="#e8edff"/><path d="m59.5073 5.22271s-.0416-.18879.0773-.50975c.0934-.23862.2309-.45507.4044-.63663.1735-.18157.3795-.32458.606-.42063.3345-.14558.6999-.1934 1.0579-.13845.4276.09001.8217.30849 1.1352.62932l2.1693 1.88798 5.5987 5.03455.8024.7301c.3286.305.5765.6954.7191 1.1327.1448.4516.1743.9355.0856 1.403s-.2925.9018-.5907 1.2591c-.3145.3639-.7144.6331-1.159.7804l-1.1055.365-2.2585.7363-4.4575 1.4411-2.104.6797-.5171.1636-.2556.0818-.315.0756c-.4251.0743-.8613.022-1.26-.1511-.381-.1619-.7159-.4255-.9721-.7652-.2563-.3397-.4251-.7438-.4899-1.1731-.0242-.209-.0242-.4203 0-.6293l.0416-.3021.0535-.2517.2139-.9692c.2853-1.2586.5468-2.4481.7905-3.5242.4874-2.1586.9034-3.89554 1.1887-5.09755.1226-.63708.3223-1.25473.5943-1.83763.0074.63655-.0646 1.27134-.214 1.88798-.1961 1.25865-.5111 2.9893-.9152 5.1605l-.6776 3.5557c-.0654.3209-.1248.6293-.1902.9691l-.0475.2454v.2077c-.0148.1338-.0148.269 0 .4028.0479.2803.1626.543.3331.7632.1706.2203.3914.3908.6416.4954.2557.1029.5328.1311.8024.0819l.202-.0567.2556-.0818.5171-.1699 2.1158-.7049 4.4516-1.46 2.2586-.73 1.1114-.3587c.2873-.088.5463-.2578.7488-.4909.1939-.2297.3272-.5094.3867-.811s.043-.6144-.0479-.9071c-.087-.2864-.245-.5429-.4576-.7426l-.838-.7363c-2.0565-1.95717-3.9049-3.71928-5.4739-5.20449l-2.0802-2.02013c-.2094-.25529-.4844-.4406-.7915-.53334-.3071-.09275-.633-.08892-.9381.011-.3981.13464-.7388.41306-.9628.78666-.1605.28949-.2021.4594-.2437.44681z" fill="#e8edff" opacity=".25"/><path d="m60.8156 7.79653 1.6285 4.62557c.0656.1824.1916.3334.3545.4248.1629.0915.3516.1172.5311.0723.1944-.0396.3661-.1592.4775-.3326s.1534-.3864.1168-.5925l-.8618-4.89612c-.0155-.08725-.0483-.17006-.0961-.24296-.0479-.07289-.1098-.13424-.1816-.18001-.0719-.04577-.1521-.07491-.2353-.08553-.0833-.01062-.1677-.00247-.2478.02392l-1.0817.36501c-.079.02273-.1527.0625-.2165.11681s-.1163.12199-.1543.1988c-.0379.07681-.0604.1611-.0662.24757-.0057.08647.0055.17327.0329.25494z" fill="#fff" opacity=".5"/><path d="m65.1402 15.0276c-.0106.2363-.0868.4641-.2191.6547-.1323.1907-.3148.3357-.5247.4171-.2098.0813-.4376.0952-.6549.04s-.4143-.177-.5665-.3502c-.1522-.1733-.2526-.3902-.2889-.6237-.0362-.2335-.0066-.473.0852-.6887s.2417-.398.4308-.5239c.1892-.1259.4093-.1899.6326-.184.1512.004.3001.04.4379.1058.1379.0658.262.16.365.2773.1029.1172.1827.2551.2347.4054.052.1504.0751.3102.0679.4702z" fill="#fff" opacity=".5"/><g fill="#000091"><path d="m8.60733 62.1703c-.15505-.1164-.29494-.2539-.41605-.409-.15943-.1656-.30834-.3422-.44576-.5287-.16047-.2139-.3566-.4531-.5349-.7426-.44028-.6688-.82223-1.3787-1.14113-2.1208-.381-.9136-.67757-1.8641-.88558-2.8382-.19264-.9793-.29219-1.9765-.29717-2.9768-.00149-.815.07016-1.6284.21396-2.4291.04755-.3462.1367-.6294.19614-.9126.05157-.2294.11911-.4545.20207-.6733.049-.1944.123-.3808.21992-.5538.05943 0-.21397.8244-.40416 2.1774-.10482.7901-.15251 1.5874-.14265 2.3852.02274.9792.12817 1.9544.31501 2.9137.20168.9522.48415 1.8832.84397 2.7816.29984.7343.65564 1.4415 1.06387 2.1146.69538 1.1517 1.25406 1.7684 1.21246 1.8124z"/><path d="m13.7844 62.9632c-.1826-.0913-.3542-.2054-.5112-.3399-.1934-.1426-.378-.2981-.5527-.4657-.2406-.2117-.4707-.4364-.6894-.6733-.5721-.6138-1.0875-1.2839-1.5394-2.0013-.54571-.8879-1-1.8352-1.35507-2.8256-.34262-.994-.58566-2.0234-.72509-3.0712-.10863-.855-.13452-1.7196-.07727-2.5802.01474-.3312.04848-.6611.10104-.988.03015-.2479.07381-.4938.13075-.7363.03416-.2162.092-.4274.17236-.6294.06537 0-.14264.8937-.18425 2.3411-.02228.8417.02346 1.6839.13671 2.5173.15277 1.023.39756 2.0282.73104 3.0019.35278.9664.79058 1.8956 1.30758 2.7753.4318.7125.921 1.3842 1.4621 2.0076.9271 1.0887 1.6284 1.6173 1.5928 1.6677z"/><path d="m69.0628 56.2612c-.0535-.0315.4101-.9062.9331-2.4166.3054-.8853.5536-1.7915.743-2.7124.2267-1.1255.3698-2.2681.4279-3.4172.0426-1.151.0048-2.3037-.1129-3.4487-.1075-.936-.2743-1.8631-.4993-2.7754-.3804-1.5544-.7667-2.4795-.7073-2.5173.1236.1958.2234.4072.2972.6294.2494.5851.458 1.1887.6241 1.8061.2559.9167.4447 1.853.5646 2.8005.2959 2.3253.1891 4.6882-.315 6.9729-.2035.9296-.4757 1.8407-.8142 2.725-.2274.6049-.4955 1.1917-.8024 1.7558-.0905.2126-.2042.4133-.3388.5979z"/><path d="m73.8345 54.9644c-.0535 0 .321-.7426.7132-1.9824.2341-.7225.4149-1.4631.5409-2.2152.1439-.9215.2174-1.8539.2199-2.7879-.0121-.9334-.0996-1.864-.2615-2.7816-.1379-.7497-.3266-1.488-.5647-2.209-.416-1.2271-.7964-1.9383-.7429-1.9697.1236.142.2258.3033.3031.4782.2509.4501.4656.9216.6419 1.4097.2761.721.4909 1.4665.6419 2.2278.1813.9364.2788 1.8888.2912 2.8446-.003.9542-.0865 1.9061-.2496 2.8445-.1364.7637-.3353 1.5133-.5943 2.2404-.1733.4904-.3819.9659-.6241 1.4223-.0799.1764-.1863.3379-.315.4783z"/></g></g></svg>