<svg width="66" height="66" viewBox="0 0 66 66" fill="none" xmlns="http://www.w3.org/2000/svg">
<path d="M33 65C50.6731 65 65 50.6731 65 33C65 15.3269 50.6731 1 33 1C15.3269 1 1 15.3269 1 33C1 50.6731 15.3269 65 33 65Z" fill="#C7F0FF" stroke="#ACE5FA" stroke-width="0.8" stroke-miterlimit="10"/>
<path d="M31.0165 37.292C31.0165 37.292 31.5021 28.5544 23.2501 28.5544C18.0725 28.5544 15.4805 34.36 15.4805 34.36C24.6253 33.388 24.3829 40.528 31.0165 37.292V37.292Z" fill="#6DD627"/>
<path d="M42.5103 19.8535C42.5103 19.8535 44.9471 26.1207 42.5103 30.2983C38.5455 37.0983 31.0215 33.1783 31.0215 33.1783C31.2511 22.2943 37.7471 28.7047 42.5103 19.8535V19.8535Z" fill="#6DD627"/>
<path d="M15.6289 54.6568L21.1241 47.048C22.1165 45.674 23.4209 44.5551 24.9301 43.7835C26.4392 43.0119 28.11 42.6096 29.8049 42.6096H32.2401C33.935 42.6097 35.6058 43.012 37.1149 43.7836C38.624 44.5552 39.9285 45.674 40.9209 47.048L46.4161 54.6568H15.6289Z" fill="#DEBB7E"/>
<path d="M21.9841 50.3944C22.8322 49.054 24.0012 47.9462 25.3851 47.1713C26.7691 46.3963 28.3245 45.9786 29.9105 45.956H32.1345C33.7204 45.9786 35.2757 46.3963 36.6595 47.1713C38.0434 47.9462 39.2122 49.054 40.0601 50.3944L42.8705 54.6568H46.4161L40.9209 47.048C39.9283 45.674 38.6238 44.5551 37.1145 43.7835C35.6052 43.0119 33.9344 42.6096 32.2393 42.6096H29.8049C28.1099 42.6097 26.439 43.012 24.9298 43.7836C23.4205 44.5552 22.1159 45.674 21.1233 47.048L15.6289 54.6568H19.1737L21.9841 50.3944Z" fill="#F0D5A8"/>
<path d="M15.6289 54.6568L21.1241 47.048C22.1165 45.674 23.4209 44.5551 24.9301 43.7835C26.4392 43.0119 28.11 42.6096 29.8049 42.6096H32.2401C33.935 42.6097 35.6058 43.012 37.1149 43.7836C38.624 44.5552 39.9285 45.674 40.9209 47.048L46.4161 54.6568H15.6289Z" stroke="#45413C" stroke-width="0.8" stroke-linecap="round" stroke-linejoin="round"/>
<path d="M43.4615 23.8215C43.2886 22.4684 42.9697 21.1379 42.5103 19.8535C37.7471 28.7039 31.2511 22.2943 31.0215 33.1775C31.6934 33.4981 32.3952 33.7521 33.1167 33.9359C33.8615 25.8695 39.1031 29.7999 43.4615 23.8215Z" fill="#9CEB60"/>
<path d="M31.0215 31.9007V42.6095M42.5103 19.8535C42.5103 19.8535 44.9471 26.1207 42.5103 30.2983C38.5455 37.0983 31.0215 33.1783 31.0215 33.1783C31.2511 22.2943 37.7471 28.7047 42.5103 19.8535V19.8535Z" stroke="#45413C" stroke-width="0.8" stroke-linecap="round" stroke-linejoin="round"/>
<path d="M23.2501 28.5544C18.0725 28.5544 15.4805 34.36 15.4805 34.36C15.8845 34.3176 16.2485 34.3088 16.6181 34.2952C17.3277 33.3809 18.2289 32.633 19.2584 32.1041C20.2879 31.5752 21.4207 31.2781 22.5773 31.2336C28.0493 31.2336 29.6717 35.0672 30.1493 37.656C30.4285 37.5488 30.7093 37.4432 31.0133 37.2936C31.0165 37.292 31.5021 28.5544 23.2501 28.5544V28.5544Z" fill="#9CEB60"/>
<path d="M31.0165 37.292C31.0165 37.292 31.5021 28.5544 23.2501 28.5544C18.0725 28.5544 15.4805 34.36 15.4805 34.36C24.6253 33.388 24.3829 40.528 31.0165 37.292V37.292Z" stroke="#45413C" stroke-width="0.8" stroke-linecap="round" stroke-linejoin="round"/>
<path d="M43.0688 57.3447C40.0297 58.3263 36.9346 59.1253 33.8 59.7375C30.2765 60.4458 26.6222 60.0973 23.296 58.7359C20.0304 57.4047 15.5072 55.4351 10.728 52.9663C10.3412 52.7771 10.0261 52.4676 9.82998 52.0843C9.63383 51.7009 9.56719 51.2643 9.64004 50.8399C9.69326 50.5812 9.79927 50.3363 9.95145 50.1204C10.1036 49.9045 10.2987 49.7224 10.5245 49.5854C10.7503 49.4483 11.0019 49.3594 11.2636 49.324C11.5254 49.2886 11.7916 49.3077 12.0456 49.3799L23.664 54.3711C24.1023 54.5593 24.5743 54.6565 25.0512 54.6567H27.6744C25.2104 54.6567 23.6464 53.8983 23.088 52.4303C23.0149 52.2283 22.9916 52.0116 23.0201 51.7987C23.0487 51.5858 23.1281 51.3829 23.2518 51.2072C23.3755 51.0316 23.5397 50.8883 23.7305 50.7897C23.9214 50.6911 24.1332 50.64 24.348 50.6407H30.42C31.2632 50.6407 34.0416 46.6255 38.0088 46.6255H43.0688V57.3447Z" fill="#FFDA8F"/>
<path d="M38.0094 46.6255C34.0422 46.6255 31.2638 50.6407 30.4206 50.6407H24.3486C24.1404 50.6373 23.9343 50.683 23.747 50.7741C23.5598 50.8652 23.3966 50.9992 23.2709 51.1652C23.1451 51.3312 23.0602 51.5245 23.0231 51.7294C22.986 51.9344 22.9978 52.1452 23.0574 52.3447C23.148 52.5942 23.2721 52.8302 23.4262 53.0463C23.677 52.8129 24.0061 52.6822 24.3486 52.6799H30.4206C31.2638 52.6799 34.0422 48.6647 38.0094 48.6647H43.0694V46.6255H38.0094Z" fill="#FFE9BD"/>
<path d="M25.0507 54.6568C24.5738 54.6565 24.1018 54.5594 23.6636 54.3711L12.0467 49.376C11.6741 49.269 11.2777 49.2778 10.9102 49.4012C10.5427 49.5246 10.2213 49.7566 9.98855 50.0667C9.75584 50.3768 9.6228 50.7502 9.60705 51.1376C9.5913 51.525 9.69358 51.908 9.90035 52.2359C10.1217 51.8859 10.4504 51.6169 10.8372 51.469C11.224 51.3211 11.6483 51.3022 12.0467 51.4151L23.5868 56.3752C24.0757 56.5858 24.6024 56.6947 25.1347 56.6952H32.7708C33.0413 56.6952 33.3007 56.5877 33.492 56.3964C33.6833 56.2051 33.7907 55.9457 33.7907 55.6752C33.7907 55.4046 33.6833 55.1452 33.492 54.9539C33.3007 54.7626 33.0413 54.6552 32.7708 54.6552L25.0507 54.6568Z" fill="#FFE9BD"/>
<path d="M54.3156 45.2864H43.8684C43.4265 45.2864 43.0684 45.6445 43.0684 46.0864V57.872C43.0684 58.3138 43.4265 58.672 43.8684 58.672H54.3156C54.7574 58.672 55.1156 58.3138 55.1156 57.872V46.0864C55.1156 45.6445 54.7574 45.2864 54.3156 45.2864Z" fill="#E8F4FA"/>
<path d="M54.1892 45.2864H43.994C43.7484 45.2866 43.513 45.3843 43.3394 45.558C43.1659 45.7317 43.0684 45.9672 43.0684 46.2128V48.6648H55.1156V46.2128C55.1153 45.9671 55.0177 45.7316 54.844 45.5579C54.6703 45.3843 54.4348 45.2866 54.1892 45.2864Z" fill="white"/>
<path d="M54.3156 45.2864H43.8684C43.4265 45.2864 43.0684 45.6445 43.0684 46.0864V57.872C43.0684 58.3138 43.4265 58.672 43.8684 58.672H54.3156C54.7574 58.672 55.1156 58.3138 55.1156 57.872V46.0864C55.1156 45.6445 54.7574 45.2864 54.3156 45.2864Z" stroke="#45413C" stroke-width="0.8" stroke-linecap="round" stroke-linejoin="round"/>
<path d="M33.7936 54.6567H27.6744M43.0688 57.3447C40.0297 58.3263 36.9346 59.1253 33.8 59.7375C30.2765 60.4458 26.6222 60.0973 23.296 58.7359C20.0304 57.4047 15.5072 55.4351 10.728 52.9663C10.3412 52.7771 10.0261 52.4676 9.82998 52.0843C9.63383 51.7009 9.56719 51.2643 9.64004 50.8399C9.69326 50.5812 9.79927 50.3363 9.95145 50.1204C10.1036 49.9045 10.2987 49.7224 10.5245 49.5854C10.7503 49.4483 11.0019 49.3594 11.2636 49.324C11.5254 49.2886 11.7916 49.3077 12.0456 49.3799L23.664 54.3711C24.1023 54.5593 24.5743 54.6565 25.0512 54.6567H27.6744C25.2104 54.6567 23.6464 53.8983 23.088 52.4303C23.0149 52.2283 22.9916 52.0116 23.0201 51.7987C23.0487 51.5858 23.1281 51.3829 23.2518 51.2072C23.3755 51.0316 23.5397 50.8883 23.7305 50.7897C23.9214 50.6911 24.1332 50.64 24.348 50.6407H30.42C31.2632 50.6407 34.0416 46.6255 38.0088 46.6255H43.0688V57.3447Z" stroke="#45413C" stroke-width="0.8" stroke-linecap="round" stroke-linejoin="round"/>
<path d="M21.6504 9.25137C24.6895 8.2697 27.7846 7.47094 30.9192 6.85937C34.4426 6.15021 38.0971 6.4984 41.4232 7.86017C44.6896 9.19137 49.212 11.1618 53.9912 13.6298C54.3788 13.8192 54.6944 14.1293 54.8906 14.5135C55.0868 14.8977 55.153 15.3351 55.0792 15.7602C55.026 16.0189 54.92 16.2638 54.7678 16.4797C54.6156 16.6955 54.4205 16.8777 54.1947 17.0147C53.9689 17.1517 53.7173 17.2407 53.4556 17.2761C53.1939 17.3114 52.9276 17.2924 52.6736 17.2202L41.0552 12.225C40.6169 12.0368 40.145 11.9396 39.668 11.9394H37.0448C39.5088 11.9394 41.0728 12.6986 41.6312 14.1658C41.7043 14.3678 41.7276 14.5844 41.6991 14.7974C41.6706 15.0103 41.5911 15.2132 41.4674 15.3888C41.3438 15.5645 41.1795 15.7077 40.9887 15.8063C40.7978 15.905 40.586 15.9561 40.3712 15.9554H34.2992C33.456 15.9554 30.6776 19.9706 26.7104 19.9706H21.6504V9.25137Z" fill="#FFDA8F"/>
<path d="M41.4247 9.9112C44.6911 11.2416 49.2135 13.212 53.9927 15.68C54.3242 15.852 54.6049 16.1076 54.8071 16.4216C54.9374 16.2195 55.0295 15.9953 55.0791 15.76C55.153 15.3352 55.0871 14.8978 54.8912 14.5136C54.6952 14.1295 54.38 13.8193 53.9927 13.6296C49.2135 11.1616 44.6911 9.1912 41.4247 7.86C38.0984 6.49883 34.4442 6.15066 30.9207 6.8592C27.7869 7.47086 24.6926 8.26962 21.6543 9.2512V11.3016C24.6926 10.32 27.7869 9.52126 30.9207 8.9096C34.4442 8.20074 38.0986 8.5492 41.4247 9.9112V9.9112Z" fill="#FFE9BD"/>
<path d="M30.9256 11.9394H37.0448M21.6504 9.25137C24.6895 8.2697 27.7846 7.47094 30.9192 6.85937C34.4426 6.15021 38.0971 6.4984 41.4232 7.86017C44.6896 9.19137 49.212 11.1618 53.9912 13.6298C54.3788 13.8192 54.6944 14.1293 54.8906 14.5135C55.0868 14.8977 55.153 15.3351 55.0792 15.7602C55.026 16.0189 54.92 16.2638 54.7678 16.4797C54.6156 16.6955 54.4205 16.8777 54.1947 17.0147C53.9689 17.1517 53.7173 17.2407 53.4556 17.2761C53.1939 17.3114 52.9276 17.2924 52.6736 17.2202L41.0552 12.225C40.6169 12.0368 40.145 11.9396 39.668 11.9394H37.0448C39.5088 11.9394 41.0728 12.6986 41.6312 14.1658C41.7043 14.3678 41.7276 14.5844 41.6991 14.7974C41.6706 15.0103 41.5911 15.2132 41.4674 15.3888C41.3438 15.5645 41.1795 15.7077 40.9887 15.8063C40.7978 15.905 40.586 15.9561 40.3712 15.9554H34.2992C33.456 15.9554 30.6776 19.9706 26.7104 19.9706H21.6504V9.25137Z" stroke="#45413C" stroke-width="0.8" stroke-linecap="round" stroke-linejoin="round"/>
<path d="M20.8507 7.92383H10.4035C9.96169 7.92383 9.60352 8.282 9.60352 8.72383V20.5094C9.60352 20.9513 9.96169 21.3094 10.4035 21.3094H20.8507C21.2925 21.3094 21.6507 20.9513 21.6507 20.5094V8.72383C21.6507 8.282 21.2925 7.92383 20.8507 7.92383Z" fill="#E8F4FA"/>
<path d="M20.7251 7.92383H10.5299C10.2844 7.92383 10.0488 8.02132 9.87514 8.19488C9.70143 8.36844 9.60373 8.60387 9.60352 8.84943V11.3014H21.6507V8.84943C21.6507 8.72788 21.6268 8.60752 21.5803 8.49522C21.5337 8.38292 21.4656 8.28088 21.3796 8.19493C21.2937 8.10898 21.1916 8.0408 21.0793 7.99428C20.967 7.94777 20.8467 7.92383 20.7251 7.92383Z" fill="white"/>
<path d="M20.8507 7.92383H10.4035C9.96169 7.92383 9.60352 8.282 9.60352 8.72383V20.5094C9.60352 20.9513 9.96169 21.3094 10.4035 21.3094H20.8507C21.2925 21.3094 21.6507 20.9513 21.6507 20.5094V8.72383C21.6507 8.282 21.2925 7.92383 20.8507 7.92383Z" stroke="#45413C" stroke-width="0.8" stroke-linecap="round" stroke-linejoin="round"/>
</svg>
