<svg width="63" height="62" viewBox="0 0 63 62" fill="none" xmlns="http://www.w3.org/2000/svg">
<path d="M35.0522 61.1584C49.9493 61.1584 62.0502 49.0819 62.0802 34.1848C62.1103 19.2878 50.0582 7.2113 35.1611 7.2113C20.264 7.2113 8.16313 19.2878 8.13306 34.1848C8.10299 49.0819 20.1551 61.1584 35.0522 61.1584Z" fill="#EFC73F"/>
<g clip-path="url(#clip0_2585_16730)">
<path d="M18.3832 19.0977L21.2527 21.9218C21.3675 22.0361 21.5043 22.1268 21.655 22.1885C21.8058 22.2503 21.9675 22.2818 22.1308 22.2813C22.2944 22.2816 22.4564 22.25 22.6074 22.1883C22.7585 22.1266 22.8957 22.036 23.0109 21.9218L25.8804 19.0977C26.0926 18.8869 26.3454 18.72 26.624 18.6068C26.9026 18.4936 27.2014 18.4364 27.5027 18.4386H30.0356C30.833 18.4381 31.5977 18.1258 32.1615 17.5705C32.7254 17.0151 33.0425 16.2621 33.043 15.4767V4.69166C33.0414 3.90697 32.7239 3.15494 32.1601 2.60045C31.5963 2.04597 30.8323 1.73429 30.0356 1.73376H14.441C13.6436 1.73429 12.8789 2.04652 12.315 2.60187C11.7511 3.15721 11.4341 3.91028 11.4336 4.69565V15.4807C11.4341 16.2661 11.7511 17.0191 12.315 17.5745C12.8789 18.1298 13.6436 18.4421 14.441 18.4426H16.765C17.0653 18.4406 17.3631 18.4976 17.6409 18.61C17.9187 18.7225 18.1711 18.8883 18.3832 19.0977ZM16.2742 11.3784C15.9688 10.9065 15.7749 10.3732 15.7069 9.81768C15.6388 9.26217 15.6982 8.69869 15.8808 8.16884C16.0476 7.66854 16.3262 7.21146 16.6961 6.83124C17.066 6.45103 17.5178 6.15737 18.0182 5.97188C18.4438 5.81588 18.8944 5.73606 19.3485 5.73621C19.8628 5.73555 20.3718 5.8377 20.8449 6.03647C21.3179 6.23525 21.745 6.5265 22.1004 6.89261C22.456 6.52678 22.8832 6.23571 23.3561 6.03696C23.8291 5.83821 24.338 5.7359 24.8522 5.73621C25.6431 5.73472 26.4147 5.97706 27.0586 6.42925C27.792 6.9518 28.3042 7.72219 28.4972 8.59319C28.6903 9.46419 28.5506 10.3747 28.105 11.1507L28.0928 11.1727C27.6265 11.946 27.0139 12.624 26.288 13.1699L22.4695 16.0958C22.3787 16.166 22.2665 16.204 22.1511 16.2037C22.0362 16.2031 21.9245 16.166 21.8327 16.0978L17.9999 13.1739C17.356 12.6911 16.791 12.1139 16.3249 11.4623C16.3087 11.4283 16.2904 11.4023 16.2742 11.3764V11.3784Z" fill="white"/>
<path d="M22.126 23.3018C22.4274 23.304 22.7261 23.2468 23.0047 23.1336C23.2833 23.0204 23.5362 22.8535 23.7483 22.6427L26.6178 19.8187C26.7331 19.7044 26.8702 19.6138 27.0213 19.5521C27.1724 19.4904 27.3344 19.4588 27.4979 19.4592H30.0348C30.7797 19.4579 31.5098 19.2546 32.1451 18.8717C32.7804 18.4887 33.2964 17.9409 33.6364 17.2882C33.929 16.7271 34.0813 16.1054 34.0805 15.4747V4.68965C34.0805 3.63198 33.6546 2.61748 32.8962 1.86866C32.1378 1.11984 31.1088 0.697835 30.0348 0.69519H14.4402C13.3663 0.697835 12.3373 1.11984 11.5789 1.86866C10.8205 2.61748 10.3945 3.63198 10.3945 4.68965V15.4747C10.3945 16.5323 10.8205 17.5468 11.5789 18.2957C12.3373 19.0445 13.3663 19.4665 14.4402 19.4691H16.7642C16.9278 19.4688 17.0897 19.5004 17.2408 19.5621C17.3919 19.6238 17.529 19.7144 17.6443 19.8286L19.0943 21.2567L20.5138 22.6547C20.7261 22.8618 20.9777 23.0255 21.2544 23.1366C21.531 23.2476 21.8273 23.3038 22.126 23.3018ZM11.4328 15.4747V4.68965C11.4334 3.90427 11.7504 3.15121 12.3143 2.59586C12.8781 2.04051 13.6428 1.72829 14.4402 1.72776H30.0348C30.8323 1.72829 31.5969 2.04051 32.1608 2.59586C32.7247 3.15121 33.0417 3.90427 33.0422 4.68965V15.4747C33.0417 16.2601 32.7247 17.0131 32.1608 17.5685C31.5969 18.1238 30.8323 18.436 30.0348 18.4366H27.4898C27.1884 18.4344 26.8897 18.4916 26.6111 18.6048C26.3325 18.718 26.0796 18.8849 25.8675 19.0957L23.0102 21.9197C22.8949 22.034 22.7578 22.1246 22.6067 22.1863C22.4556 22.248 22.2936 22.2796 22.1301 22.2792C21.9668 22.2798 21.805 22.2483 21.6543 22.1865C21.5035 22.1248 21.3667 22.0341 21.252 21.9197L18.3825 19.0977C18.1702 18.887 17.9173 18.7203 17.6388 18.6071C17.3602 18.4939 17.0615 18.4366 16.7602 18.4386H14.4362C13.6398 18.4359 12.8769 18.1225 12.3148 17.5669C11.7526 17.0114 11.4369 16.259 11.4369 15.4747H11.4328Z" fill="#DEA81E"/>
<path d="M17.1757 10.8651C17.5809 11.4322 18.0727 11.9342 18.6338 12.3531L22.1502 15.0334L25.6503 12.3511C26.2714 11.8839 26.7971 11.3051 27.1997 10.6455L27.6539 10.8891L27.1956 10.6355C27.5148 10.0798 27.6149 9.42787 27.4769 8.80413C27.3388 8.18038 26.9723 7.62859 26.4473 7.25416C25.9788 6.9262 25.418 6.75027 24.8432 6.75086C24.3844 6.75181 23.9331 6.8649 23.5296 7.07997C23.1261 7.29504 22.7831 7.60538 22.5314 7.98315C22.4842 8.05408 22.4198 8.11237 22.344 8.1528C22.2683 8.19323 22.1836 8.21454 22.0975 8.21482C22.0114 8.21436 21.9267 8.19297 21.851 8.15256C21.7753 8.11214 21.7109 8.05395 21.6635 7.98315C21.4113 7.6044 21.0674 7.29344 20.6628 7.07831C20.2581 6.86317 19.8054 6.75064 19.3456 6.75086C19.0153 6.75043 18.6876 6.80861 18.3783 6.92262C18.0224 7.05551 17.7014 7.26537 17.4389 7.53671C17.1763 7.80806 16.979 8.13398 16.8614 8.49044C16.7285 8.87619 16.6852 9.2864 16.7347 9.69083C16.7842 10.0953 16.9252 10.4836 17.1473 10.8272C17.1556 10.8407 17.1651 10.8534 17.1757 10.8651Z" fill="#4550E5"/>
<path d="M18.0001 13.1619L21.8329 16.0859C21.9247 16.154 22.0364 16.1911 22.1513 16.1917C22.2667 16.1921 22.3788 16.1541 22.4696 16.0839L26.2882 13.1579C27.014 12.6121 27.6267 11.9341 28.093 11.1607L28.1052 11.1387C28.5508 10.3627 28.6904 9.45222 28.4974 8.58123C28.3044 7.71023 27.7922 6.93984 27.0588 6.41729C26.4149 5.9651 25.6433 5.72276 24.8524 5.72425C24.3382 5.72394 23.8293 5.82625 23.3563 6.025C22.8833 6.22375 22.4562 6.51482 22.1006 6.88065C21.7452 6.51454 21.318 6.22328 20.845 6.02451C20.372 5.82574 19.863 5.72359 19.3487 5.72425C18.8946 5.7241 18.444 5.80392 18.0184 5.95992C17.518 6.14541 17.0662 6.43907 16.6963 6.81928C16.3264 7.19949 16.0478 7.65658 15.881 8.15687C15.6984 8.68673 15.6389 9.25021 15.707 9.80572C15.7751 10.3612 15.969 10.8946 16.2744 11.3664C16.2906 11.3924 16.3088 11.4183 16.3251 11.4403C16.7904 12.0955 17.3554 12.6761 18.0001 13.1619ZM16.8645 8.49041C16.9821 8.13395 17.1795 7.80803 17.442 7.53668C17.7045 7.26533 18.0256 7.05548 18.3814 6.92259C18.6907 6.80858 19.0184 6.7504 19.3487 6.75083C19.8086 6.75061 20.2612 6.86314 20.6659 7.07828C21.0705 7.29341 21.4144 7.60437 21.6666 7.98311C21.714 8.05392 21.7784 8.11211 21.8541 8.15253C21.9298 8.19294 22.0145 8.21433 22.1006 8.21479C22.1867 8.21451 22.2714 8.19319 22.3471 8.15276C22.4229 8.11233 22.4873 8.05405 22.5345 7.98311C22.7868 7.6045 23.1307 7.29363 23.5354 7.07852C23.94 6.8634 24.3926 6.75079 24.8524 6.75083C25.4272 6.75024 25.988 6.92617 26.4565 7.25413C26.9802 7.62972 27.3451 8.18205 27.4816 8.80571C27.6181 9.42937 27.5167 10.0807 27.1967 10.6354L27.6469 10.8891L27.1967 10.6454C26.7941 11.3051 26.2684 11.8838 25.6474 12.3511L22.1472 15.0333L18.6308 12.353C18.0698 11.9341 17.5779 11.4322 17.1728 10.8651C17.1628 10.8533 17.154 10.8406 17.1464 10.8272C16.9249 10.4832 16.7846 10.0948 16.7358 9.69034C16.6871 9.28592 16.731 8.87587 16.8645 8.49041Z" fill="#DEA81E"/>
<path d="M25.8555 37.2366C27.089 37.6347 28.1848 38.3648 29.0191 39.3442C29.8534 40.3236 30.3928 41.5134 30.5764 42.7789V42.7949H40.2637C40.4873 42.795 40.7082 42.7479 40.9117 42.6567C41.1152 42.5656 41.2965 42.4325 41.4433 42.2665C41.5901 42.1005 41.6992 41.9054 41.7629 41.6944C41.8267 41.4834 41.8438 41.2614 41.8131 41.0433L41.2453 37.0249C41.0683 35.8113 40.5071 34.6835 39.6417 33.8021C38.7763 32.9207 37.6506 32.3306 36.4249 32.1157C35.5601 32.6241 34.5717 32.8925 33.5646 32.8925C32.5574 32.8925 31.569 32.6241 30.7042 32.1157C29.4513 32.3354 28.3036 32.9468 27.4312 33.8593C27.2979 35.0885 26.7478 36.2375 25.8697 37.1208L25.8555 37.2366Z" fill="#4550E5"/>
<path d="M33.5666 31.8699C36.0843 31.8699 38.1253 29.8598 38.1253 27.3802C38.1253 24.9005 36.0843 22.8904 33.5666 22.8904C31.0488 22.8904 29.0078 24.9005 29.0078 27.3802C29.0078 29.8598 31.0488 31.8699 33.5666 31.8699Z" fill="white"/>
<path d="M2.29231 42.2656C2.43883 42.4317 2.61985 42.5649 2.8231 42.6562C3.02636 42.7475 3.24714 42.7948 3.47054 42.7949H13.1579V42.7789C13.3415 41.5134 13.881 40.3236 14.7152 39.3442C15.5495 38.3648 16.6453 37.6347 17.8788 37.2366L17.8626 37.1208C16.9845 36.2375 16.4344 35.0885 16.3011 33.8593C15.4294 32.947 14.2824 32.3356 13.0301 32.1157C12.1653 32.6241 11.1769 32.8925 10.1697 32.8925C9.16255 32.8925 8.17417 32.6241 7.30935 32.1157C6.08342 32.33 4.95748 32.92 4.09193 33.8014C3.22639 34.6829 2.66541 35.811 2.48901 37.0249L1.92124 41.0433C1.89028 41.2614 1.9074 41.4834 1.97144 41.6943C2.03548 41.9053 2.14491 42.1001 2.29231 42.2656Z" fill="#4550E5"/>
<path d="M13.0104 43.8174L12.5927 46.7953C12.5413 47.1582 12.5696 47.5277 12.6756 47.8789C12.7817 48.2302 12.9629 48.5549 13.2072 48.8313C13.4515 49.1076 13.7531 49.3292 14.0918 49.481C14.4304 49.6328 14.7981 49.7113 15.1701 49.7112H28.5706C28.9424 49.711 29.3099 49.6323 29.6483 49.4804C29.9867 49.3284 30.2881 49.1068 30.5321 48.8305C30.7762 48.5542 30.9573 48.2295 31.0632 47.8785C31.1691 47.5274 31.1973 47.158 31.146 46.7953L30.7262 43.8174H40.2574C40.6294 43.8175 40.9972 43.739 41.3358 43.5872C41.6744 43.4354 41.976 43.2138 42.2203 42.9375C42.4646 42.6611 42.6458 42.3363 42.7519 41.9851C42.8579 41.6339 42.8862 41.2644 42.8348 40.9014L42.2671 36.885C42.0812 35.6059 41.532 34.4045 40.6827 33.4196C39.8333 32.4347 38.7185 31.7064 37.467 31.3187C38.2632 30.5532 38.8097 29.5713 39.0366 28.4985C39.2635 27.4256 39.1606 26.3105 38.7409 25.2955C38.3213 24.2805 37.604 23.4118 36.6807 22.8002C35.7574 22.1886 34.6699 21.862 33.5572 21.862C32.4444 21.862 31.357 22.1886 30.4337 22.8002C29.5103 23.4118 28.793 24.2805 28.3734 25.2955C27.9538 26.3105 27.8509 27.4256 28.0778 28.4985C28.3047 29.5713 28.8512 30.5532 29.6474 31.3187C28.8313 31.5724 28.0697 31.9718 27.4005 32.4971C27.2122 31.1819 26.548 29.9779 25.53 29.1067C24.5121 28.2355 23.2088 27.7558 21.8602 27.7558C20.5116 27.7558 19.2083 28.2355 18.1904 29.1067C17.1724 29.9779 16.5082 31.1819 16.3199 32.4971C15.6505 31.9723 14.8889 31.5729 14.0731 31.3187C14.8697 30.553 15.4165 29.5707 15.6435 28.4974C15.8706 27.4242 15.7677 26.3086 15.348 25.2932C14.9282 24.2778 14.2107 23.4086 13.287 22.7968C12.3633 22.1849 11.2754 21.8582 10.1622 21.8582C9.04903 21.8582 7.96115 22.1849 7.03746 22.7968C6.11377 23.4086 5.39623 24.2778 4.97648 25.2932C4.55673 26.3086 4.45382 27.4242 4.68091 28.4974C4.908 29.5707 5.45478 30.553 6.2514 31.3187C5.00008 31.7065 3.88562 32.4349 3.03665 33.4198C2.18767 34.4047 1.63881 35.606 1.45339 36.885L0.885562 40.9014C0.832861 41.2638 0.859907 41.6331 0.964876 41.9842C1.06985 42.3354 1.25028 42.6602 1.49393 42.9366C1.62545 43.0866 1.77451 43.2206 1.93803 43.3361C2.38009 43.6488 2.91061 43.8172 3.45491 43.8174H13.0104ZM1.91981 41.0432L2.48759 37.0248C2.66399 35.8109 3.22497 34.6829 4.09051 33.8014C4.95605 32.9199 6.082 32.3299 7.30793 32.1156C8.17274 32.624 9.16113 32.8925 10.1683 32.8925C11.1755 32.8925 12.1638 32.624 13.0287 32.1156C14.2809 32.3355 15.428 32.9469 16.2997 33.8592C16.433 35.0884 16.9831 36.2374 17.8612 37.1207L17.8774 37.2365C16.6439 37.6347 15.5481 38.3647 14.7138 39.3441C13.8795 40.3235 13.3401 41.5133 13.1564 42.7788V42.7948H3.46708C3.24372 42.7946 3.02298 42.7473 2.81975 42.656C2.61651 42.5647 2.43547 42.4316 2.28886 42.2657C2.14225 42.0997 2.03349 41.9047 1.96982 41.6939C1.90615 41.483 1.88911 41.2611 1.91981 41.0432ZM5.60857 27.3802C5.61057 26.4923 5.87985 25.6249 6.38235 24.8877C6.88485 24.1505 7.598 23.5766 8.43165 23.2386C9.26529 22.9005 10.182 22.8135 11.0658 22.9885C11.9497 23.1635 12.761 23.5927 13.3972 24.2218C14.0335 24.8509 14.466 25.6517 14.6401 26.5229C14.8143 27.394 14.7223 28.2965 14.3757 29.1162C14.0291 29.9359 13.4436 30.6359 12.693 31.1279C11.9425 31.6198 11.0607 31.8815 10.1592 31.88C8.95027 31.8763 7.7922 31.4004 6.93908 30.5568C6.08597 29.7133 5.60749 28.5708 5.60857 27.3802ZM17.3076 33.278C17.3076 32.39 17.5749 31.522 18.0758 30.7836C18.5768 30.0453 19.2887 29.4698 20.1217 29.13C20.9547 28.7902 21.8714 28.7013 22.7557 28.8745C23.64 29.0478 24.4522 29.4754 25.0898 30.1033C25.7274 30.7312 26.1615 31.5312 26.3374 32.4021C26.5133 33.273 26.423 34.1758 26.078 34.9962C25.733 35.8166 25.1487 36.5178 24.399 37.0111C23.6493 37.5045 22.7679 37.7678 21.8663 37.7678C20.6577 37.7662 19.4991 37.2927 18.6446 36.451C17.79 35.6094 17.3092 34.4683 17.3076 33.278ZM30.7039 32.1196C31.5687 32.628 32.5571 32.8965 33.5643 32.8965C34.5714 32.8965 35.5598 32.628 36.4246 32.1196C37.6503 32.3345 38.776 32.9246 39.6414 33.806C40.5069 34.6874 41.068 35.8152 41.245 37.0288L41.8128 41.0472C41.8435 41.2653 41.8264 41.4873 41.7627 41.6983C41.6989 41.9093 41.5899 42.1044 41.443 42.2704C41.2962 42.4364 41.1149 42.5695 40.9114 42.6606C40.708 42.7518 40.487 42.7989 40.2635 42.7988H30.5761V42.7828C30.3925 41.5173 29.8531 40.3275 29.0188 39.3481C28.1845 38.3687 27.0887 37.6387 25.8552 37.2405L25.8714 37.1247C26.7495 36.2414 27.2996 35.0924 27.4329 33.8632C28.3042 32.9496 29.4512 32.3368 30.7039 32.1156V32.1196ZM29.0045 27.3842C29.0057 26.4965 29.2741 25.629 29.7758 24.8915C30.2774 24.1539 30.9898 23.5794 31.8229 23.2405C32.656 22.9016 33.5724 22.8135 34.4563 22.9874C35.3403 23.1613 36.152 23.5894 36.7889 24.2176C37.4259 24.8457 37.8594 25.6457 38.0348 26.5165C38.2103 27.3872 38.1196 28.2897 37.7744 29.1097C37.4292 29.9298 36.8449 30.6306 36.0953 31.1237C35.3458 31.6168 34.4646 31.88 33.5632 31.88C32.3529 31.8784 31.1928 31.4035 30.338 30.5597C29.4831 29.7158 29.0034 28.5722 29.0045 27.3802V27.3842ZM30.1138 46.9411C30.1445 47.159 30.1274 47.3808 30.0638 47.5917C30.0001 47.8025 29.8913 47.9975 29.7447 48.1635C29.5981 48.3295 29.4171 48.4626 29.2138 48.5538C29.0106 48.6451 28.7899 48.6924 28.5665 48.6926H15.1661C14.9425 48.6927 14.7216 48.6456 14.5181 48.5544C14.3146 48.4633 14.1333 48.3302 13.9865 48.1642C13.8397 47.9982 13.7307 47.8032 13.6669 47.5921C13.6031 47.3811 13.586 47.1591 13.6168 46.9411L14.1846 42.9226C14.3616 41.709 14.9227 40.5812 15.7882 39.6998C16.6536 38.8184 17.7793 38.2283 19.0049 38.0134C19.8698 38.5218 20.8581 38.7903 21.8653 38.7903C22.8725 38.7903 23.8608 38.5218 24.7257 38.0134C25.9515 38.228 27.0772 38.8181 27.9427 39.6995C28.8082 40.5809 29.3693 41.7089 29.546 42.9226L30.1138 46.9411Z" fill="#DEA81E"/>
<path d="M10.1681 31.8699C12.6858 31.8699 14.7268 29.8598 14.7268 27.3802C14.7268 24.9005 12.6858 22.8904 10.1681 22.8904C7.65039 22.8904 5.60938 24.9005 5.60938 27.3802C5.60938 29.8598 7.65039 31.8699 10.1681 31.8699Z" fill="white"/>
<path d="M29.5495 42.9187C29.3728 41.7049 28.8118 40.577 27.9463 39.6956C27.0808 38.8141 25.955 38.2241 24.7292 38.0095C23.8644 38.5179 22.876 38.7863 21.8688 38.7863C20.8617 38.7863 19.8733 38.5179 19.0085 38.0095C17.7828 38.2244 16.6571 38.8145 15.7917 39.6959C14.9263 40.5773 14.3651 41.7051 14.1881 42.9187L13.6203 46.9371C13.5896 47.1552 13.6067 47.3772 13.6705 47.5882C13.7343 47.7992 13.8432 47.9943 13.9901 48.1603C14.1369 48.3263 14.3182 48.4594 14.5216 48.5505C14.7251 48.6417 14.9461 48.6888 15.1696 48.6887H28.57C28.7934 48.6885 29.0142 48.6412 29.2174 48.5499C29.4206 48.4586 29.6016 48.3255 29.7482 48.1596C29.8948 47.9936 30.0036 47.7986 30.0673 47.5877C30.131 47.3769 30.148 47.155 30.1173 46.9371L29.5495 42.9187Z" fill="#4550E5"/>
<path d="M22.1184 37.7598C24.6323 37.6226 26.5573 35.5044 26.4181 33.0286C26.2789 30.5527 24.1281 28.6568 21.6143 28.794C19.1004 28.9311 17.1754 31.0493 17.3146 33.5251C17.4538 36.001 19.6046 37.8969 22.1184 37.7598Z" fill="white"/>
</g>
<defs>
<clipPath id="clip0_2585_16730">
<rect width="42" height="49" fill="white" transform="translate(0.867188 0.711182)"/>
</clipPath>
</defs>
</svg>
