<svg fill="none" height="84" viewBox="0 0 82 84" width="82" xmlns="http://www.w3.org/2000/svg" xmlns:xlink="http://www.w3.org/1999/xlink"><clipPath id="a"><path d="m0 0h81.81v83.19h-81.81z"/></clipPath><g clip-path="url(#a)"><path d="m64.26 56.03c-.4046.2162-.8563.3294-1.3151.3294-.4587 0-.9103-.1132-1.3149-.3294-3.5837-2.1972-6.8167-4.921-9.5901-8.08-4.92-5.54-7.61-11.59-7.77-17.49-.0384-1.4989.2251-2.9902.7749-4.3851.5497-1.395 1.3745-2.6651 2.4251-3.7349.9775-1.0014 2.1455-1.797 3.4353-2.3397 1.2899-.5427 2.6754-.8216 4.0747-.8203h.1601c1.4382.0235 2.8568.3366 4.1712.9208 1.3145.5842 2.4975 1.4274 3.4787 2.4792-4.8913-5.3242-11.5593-8.6778-18.75-9.43.314.4602.4744 1.0078.4582 1.5646-.0161.5568-.208 1.0943-.5482 1.5354l-4.78 6.22c-.3043.3949-.6951.7147-1.1424.9349-.4472.2201-.9391.3348-1.4376.3351-.2355-.0019-.4701-.0287-.6999-.08l-2.8701-.64-1.44-.32v5.63l.22-.13c.5949-.3875 1.2901-.5926 2-.59.8037-.0018 1.5863.2575 2.23.7388.6436.4813 1.1136 1.1586 1.3392 1.93s.1945 1.5952-.0885 2.3475c-.283.7522-.8026 1.3922-1.4807 1.8237l-4.77 3.05c.2486.5344.357 1.1232.315 1.7111s-.233 1.1553-.555 1.6489l-.2.33c-.3239.5001-.7685.9106-1.2928 1.1938-.5243.2831-1.1113.4296-1.7072.4262-.6695.0002-1.3251-.1906-1.89-.55l-1.0699-.69-.9001.58c-.5948.3875-1.29.5926-2 .59-.2692.0003-.5376-.0299-.8-.09-.4777-.102-.93-.2988-1.3302-.5787-.4002-.28-.7402-.6375-.9998-1.0513-.3286-.5125-.5261-1.0981-.5749-1.705s.0524-1.2165.2949-1.775l-5-3.2c-.2896-.1783-.5495-.401-.77-.66-1.5239 4.7965-1.8087 9.9007-.8278 14.8369.981 4.9363 3.1957 9.5438 6.4378 13.3931 0-.13 0-.26 0-.38.28-3.8683 1.8977-7.5186 4.5755-10.3243 2.6778-2.8058 6.2488-4.592 10.0999-5.0521 3.8511-.46 7.7422.4346 11.0056 2.5305s5.6956 5.2624 6.879 8.9559l3 11.77v.09c7.1031-3.3923 12.58-9.4514 15.24-16.86l-.6.49c-1.2892 1.0628-2.6601 2.0224-4.0999 2.87" fill="#efc73f"/><path d="m30.8297 16.28 4 1.4 1 .36 4-5c-4.105.172-8.1298 1.1935-11.8199 3h1.0699c.6164.0021 1.2281.1069 1.8101.31" fill="#efc73f"/><path d="m68.7697 50.2599v-.1799l-.59.42.41 1.44c.0767-.0213.1578-.0204.2339.0026s.144.0672.1961.1273c.0404.0491.068.1076.08.1701.11-.32.21-.65.31-1l-.18-.1c-.1488-.0997-.2699-.2354-.3521-.3945s-.1228-.3365-.1178-.5156" fill="#abe8ff"/><path d="m17.2396 28.03v-3.3c-.6824.9003-1.3134 1.8385-1.89 2.81.6642-.0232 1.3208.147 1.89.49z" fill="#efc73f"/><path d="m18.0681 28.5601 6.58 4.2 5.6101-3.5801.49-.3199v-6.67c-.0001-.0636.0142-.1263.042-.1834.0277-.0572.068-.1073.1179-.1466.0484-.0391.1051-.0665.1658-.0804.0606-.0139.1237-.0137.1843.0004l1.5699.35 1.26-3.8-3.57-1.26c-.4902-.1793-1.008-.2707-1.5299-.27h-9.6901c-.5539-.0013-1.1033.1004-1.62.3l-2.85 1.07.9301 4.08 1.5099-.45.18-.1c.0631-.039.1358-.0596.21-.0596.0741 0 .1469.0206.2101.0596.0614.0377.112.0907.1471.1538.035.063.0532.134.0528.2062z" fill="#4550e5"/><path d="m14.96 22.48-.9201-4-1.1999.45c-.0836.0307-.1748.0347-.2607.0114-.086-.0233-.1626-.0727-.2193-.1414l-4.17003-5.29c-.30262-.3664-.7365-.5999-1.20898-.6506s-.94611.0854-1.31958.3792-.61714.7221-.67908 1.1932c-.06193.4711.06281.9478.34766 1.3282l5.00001 6.48c.2967.3848.7028.6709 1.165.8208s.9589.1566 1.425.0192z" fill="#fff"/><path d="m35.8293 18.92-1-.28-1.2199 3.71 2.4199.54c.4492.0964.9166.064 1.3483-.0934.4316-.1575.8101-.4336 1.0918-.7966l4.78-6.21c.1503-.1937.2598-.4159.3216-.6531.0619-.2372.075-.4845.0384-.7269-.0378-.2442-.1247-.4781-.2553-.6878s-.3023-.3907-.5047-.5322c-.3797-.2644-.8462-.3734-1.3037-.3046s-.8712.3102-1.1563.6746l-4.18 5.28c-.0535.067-.1266.1156-.2092.1389-.0825.0234-.1702.0202-.2508-.0089" fill="#fff"/><path d="m17.2891 8.63999c.6145-.01068 1.2216-.13617 1.79-.37.2549-1.15807.8973-2.19454 1.8209-2.93818.9237-.74364 2.0733-1.14995 3.2591-1.15182.4421-.00025.8825.05689 1.31.17-.45-1-1.7899-3.479995-3.8399-3.479995-.2752.000697-.5486.044562-.8101.129997-1.43.439998-1.59 1.929998-1.64 3.829998.0048.51296-.0387 1.02522-.13 1.53-.3445.91946-.9578 1.71393-1.76 2.28z" fill="#fff"/><path d="m24.1587 13.73c-.8663 0-1.713-.2569-2.4333-.7382s-1.2817-1.1653-1.6132-1.9657c-.3315-.8003-.4183-1.68097-.2493-2.53061.1691-.84963.5862-1.63008 1.1988-2.24263.6125-.61256 1.3929-1.02971 2.2425-1.19871.8497-.169 1.7303-.08227 2.5307.24924.8003.33152 1.4844.89291 1.9657 1.6132.4812.72029.7381 1.56711.7381 2.4334-.0026 1.16081-.4649 2.27341-1.2857 3.09421-.8209.8208-1.9334 1.2831-3.0943 1.2858zm-5-8.94001c.05-1.9.21-3.39 1.64-3.830002.2616-.085436.535-.1293.8101-.129998 2 0 3.39 2.5 3.84 3.48-.6775-.17786-1.3839-.21675-2.0768-.11432-.6929.10242-1.3579.34404-1.955.7103-.597.36626-1.1137.84958-1.519 1.42085-.4053.57126-.6908 1.21864-.8393 1.90316-.5688.23228-1.1757.35771-1.79.37001.8023-.56607 1.4156-1.36054 1.76-2.28.0913-.50478.1349-1.01705.13-1.53zm-3.1699 4.54999c.3622.07156.7308.10508 1.1.10001.6274.00204 1.2513-.0924 1.85-.28001-.005.06324-.005.12677 0 .19001 0 .93061.2494 1.84421.7221 2.64581s1.1514 1.462 1.9657 1.9125 1.7344.6747 2.6647.6492c.9302-.0254 1.8367-.2996 2.6251-.7939.7885-.4944 1.4301-1.1909 1.8583-2.0172.4281-.8262.6271-1.7521.5763-2.68132-.0508-.92921-.3496-1.82786-.8652-2.60254-.5157-.77467-1.2294-1.39709-2.0671-1.80256.0253-.07801.0253-.16198 0-.23999-.69-1.88-2.7999-5.190003-5.8399-4.250003-2.12.65-2.18 2.930003-2.23 4.590003.0026.45566-.0342.91068-.11 1.36-.25 1-1.78 2.12-2.35 2.46-.0719.0415-.1297.10389-.1654.17889s-.0478.15908-.0346.24111c.0149.08147.053.1569.1098.21722.0568.06031.1298.10294.2102.12277" fill="#dea81e"/><g fill="#fff"><path d="m24.1592 4.96997c-.8663 0-1.713.25688-2.4333.73816s-1.2817 1.16534-1.6132 1.96568-.4182 1.68102-.2492 2.53069c.169.8496.5861 1.63 1.1987 2.2426.6125.6126 1.3929 1.0297 2.2425 1.1987.8497.169 1.7303.0823 2.5307-.2492.8003-.3316 1.4844-.8929 1.9657-1.6132s.7381-1.5672.7381-2.43343c-.0026-1.16084-.4649-2.27337-1.2857-3.09421-.8209-.82084-1.9334-1.28315-3.0943-1.28579z"/><path d="m31.389 29.44-5.93 3.8.49.35.36.24 3.41 2.17c.3287.2173.6221.4837.87.79l4.76-3c.6427-.413 1.0958-1.0638 1.26-1.81.0841-.3693.0929-.7518.0259-1.1247-.067-.3728-.2085-.7283-.4159-1.0453-.2033-.3223-.4687-.6009-.7808-.8195-.312-.2187-.6645-.373-1.0368-.454-.3724-.081-.7572-.087-1.1319-.0177s-.7317.2125-1.0505.4212z"/><path d="m23.879 41.08-4.8201-3.08c-.1442.3877-.2038.8017-.1748 1.2143s.1459.8143.3429 1.178.4695.681.7993.9307.7092.426 1.1127.517c.7465.1597 1.5257.0196 2.1699-.39z"/><path d="m13.8292 33.64 12.38 7.92c.6017.3797 1.329.5066 2.0237.353.6947-.1535 1.3007-.5751 1.6863-1.173l.2001-.33c.2671-.4254.4089-.9176.4089-1.42s-.1418-.9946-.4089-1.42c-.2138-.3507-.5045-.6482-.8501-.87l-12.37-7.91c-.4303-.2742-.9298-.4199-1.44-.42-.1981.0005-.3957.0206-.5899.06-.3445.075-.6706.2181-.959.4207-.2885.2026-.5336.4608-.7211.7593l-.21.33c-.3827.5982-.5124 1.3238-.3606 2.0176.1519.6937.5729 1.2988 1.1706 1.6824"/></g><path d="m21.1392 41.84c-.4035-.091-.7829-.2672-1.1127-.5169-.3297-.2497-.6023-.5671-.7993-.9308s-.3139-.7653-.3429-1.1779c-.029-.4127.0306-.8267.1748-1.2144l4.8201 3.08-.5701.37c-.6441.4096-1.4234.5497-2.1699.39zm12.69-13.4c.4843-.0013.9612.1199 1.3861.3524.4248.2326.784.5689 1.0439.9776.2074.317.3488.6725.4158 1.0453.067.3729.0582.7554-.0259 1.1247-.1642.7462-.6171 1.397-1.2599 1.81l-4.76 3c-.2479-.3063-.5413-.5727-.87-.79l-3.41-2.17-.36-.24-.49-.35 5.9299-3.8.85-.54c.4624-.2976 1.0001-.4572 1.5501-.46zm2.4499-9.69 4.17-5.29c.2897-.3615.7057-.5996 1.1641-.6664s.9251.0427 1.3059.3064c.2026.14.3746.3199.5053.5286.1306.2087.2173.4419.2547.6853.0375.2434.0248.4918-.0371.7302-.0619.2383-.1717.4615-.3229.6559l-4.78 6.21c-.2816.3631-.66.6392-1.0917.7967-.4316.1574-.899.1898-1.3482.0933l-2.4201-.54 1.1501-3.62.91.32c.0806.0292.1683.0323.2508.009.0826-.0233.1557-.0719.2091-.139zm-18.4499 2.95c-.0632-.0389-.1358-.0595-.21-.0595s-.147.0206-.2101.0595l-.1799.1-1.51.44-.9301-4.07 2.8501-1.07c.517-.1986 1.0662-.3003 1.62-.3h9.6899c.522-.0006 1.0399.0908 1.5301.27l3.5699 1.26-1.26 3.8-1.5699-.35c-.0606-.0141-.1236-.0142-.1842-.0003-.0607.0138-.1174.0413-.1658.0803-.0499.0394-.0902.0895-.1179.1466-.0277.0572-.0422.1199-.0421.1834v6.67l-.49.32-5.61 3.58-6.5801-4.2v-6.5c.0004-.0721-.0178-.1431-.0529-.2062-.035-.063-.0856-.116-.147-.1538zm-7.5.53-5.00005-6.48c-.15327-.194-.26514-.4174-.32873-.6564-.0636-.2389-.07756-.4884-.04102-.733.03654-.2445.12275-.479.25342-.6889.13067-.21.30304-.3909.50635-.5317.38003-.2661.8473-.377 1.30639-.3101s.87531.3066 1.16358.6701l4.17006 5.29c.0551.0679.1298.1169.2141.1402.0842.0233.1737.0198.2559-.0102l1.2099-.45.9201 4-2 .59c-.4661.1374-.9629.1308-1.4251-.0191s-.8682-.4361-1.1649-.8209zm2.65 7.7.2099-.33c.1858-.3.4304-.5593.7192-.7621.2887-.2028.6156-.345.9609-.4179.1942-.0394.3918-.0595.59-.06.5101.0001 1.0097.1458 1.4399.42l12.37 7.91c.3456.2219.6363.5194.8501.87.2672.4255.4089.9177.4089 1.42 0 .5024-.1417.9946-.4089 1.42l-.2001.33c-.3854.5984-.9922 1.0196-1.6876 1.1714-.6954.1519-1.4226.0219-2.0223-.3614l-12.38-7.9c-.5977-.3835-1.0187-.9886-1.1706-1.6824-.1519-.6937-.0223-1.4194.3605-2.0176zm.41 4.41 5 3.2c-.2178.5032-.3218 1.0483-.3043 1.5963.0174.548.1557 1.0854.4051 1.5737s.6038.9154 1.0375 1.2508c.4338.3354.9364.5708 1.4717.6892.2624.0601.5307.0903.7999.09.71.0026 1.4052-.2025 2-.59l.9-.58 1.07.69c.39.2483.8252.4173 1.2805.4973.4553.0801.922.0697 1.3733-.0306s.8784-.2885 1.257-.5539c.3785-.2653.7011-.6027.9493-.9928l.2-.32c.3211-.4939.5116-1.0613.5535-1.649.042-.5877-.0659-1.1764-.3136-1.711l4.7701-3.05c.4103-.2626.7649-.6035 1.0435-1.0032.2787-.3997.4759-.8504.5804-1.3263.1044-.4759.1141-.9677.0285-1.4473-.0856-.4797-.2648-.9378-.5274-1.3482-.2627-.4103-.6036-.765-1.0033-1.0436s-.8503-.4758-1.3262-.5803c-.4759-.1044-.9677-.1142-1.4474-.0285-.4796.0856-.9378.2648-1.3481.5274l-.22.13v-5.63l1.4399.32 2.87.64c.2299.0513.4646.0781.7001.08.4981-.0025.9891-.1182 1.436-.3382.447-.22.8381-.5386 1.144-.9318l4.78-6.22c.3401-.4411.5319-.9785.5481-1.5354.0161-.5568-.1442-1.1044-.4581-1.5646-.1804-.262-.4036-.4919-.6601-.68-.5551-.3855-1.2361-.5453-1.9048-.4468-.6686.0984-1.2747.4477-1.6952.9768l-4 5-1-.36-4-1.4c-.5819-.2031-1.1935-.3079-1.8099-.31h-9.6901c-.6526.0001-1.2998.1187-1.91.35l-3.1899 1.2-1.37.52-4.00003-5.05c-.24735-.3144-.5634-.568-.92395-.7413-.36055-.1734-.75609-.2618-1.15613-.2587-.54362.0022-1.07364.1696-1.51989.48-.29444.2062-.54393.4701-.73316.7757-.18922.3056-.31423.6465-.36755 1.002-.05332.3554-.03386.718.05737 1.0657s.25228.6732.47327.9566l5 6.48c.30172.3921.68947.7096 1.13327.928.4439.2185.9321.3321 1.4268.332.315-.0024.6281-.0495.9299-.14l2.36-.69 1.67-.49v5.35c-.5692-.3429-1.2258-.5132-1.89-.49-.2223.0022-.4436.029-.66.08-.4504.0982-.8768.2849-1.2545.5493-.3777.2643-.699.6011-.9455.9907l-.2099.33c-.2524.3875-.4243.8218-.505 1.2772-.0808.4553-.0689.9222.0349 1.3728.1181.5717.3836 1.1025.77 1.54.2232.2563.4826.4787.77.66" fill="#dea81e"/><path d="m28.3796 70.77v-6.25c0-.2652.1053-.5195.2928-.7071.1876-.1875.442-.2929.7072-.2929h1.7799v-.12c0-.3554.1413-.6962.3926-.9475s.5921-.3925.9475-.3925.6962.1412.9475.3925.3925.5921.3925.9475v.12h1.99v-2h-.11c-.3581 0-.7014-.1422-.9546-.3954s-.3954-.5965-.3954-.9546c0-.358.1422-.7014.3954-.9546.2532-.2531.5965-.3954.9546-.3954h.11v-2.37c-.0001-.0547.0108-.1088.0321-.1592.0212-.0504.0524-.0961.0915-.1343s.0855-.0682.1364-.0882.1053-.0296.16-.0283h6.87c.2652 0 .5195.1054.707.2929.1876.1875.293.4419.293.7071v6.87 6.84c0 .2652-.1054.5196-.293.7071-.1875.1876-.4418.2929-.707.2929h-13.7101c-.2652 0-.5195-.1053-.707-.2929-.1876-.1875-.293-.4419-.293-.7071zm-2.55-16.76c.0026-.328.1341-.6419.366-.8739.232-.232.5459-.3635.8739-.3661h6.5401c.0547 0 .1088.0109.1592.0322.0504.0212.096.0523.1342.0914.0382.0392.0683.0855.0883.1365.02.0509.0295.1052.0282.1599v2.79c-.0013.0552-.0135.1095-.0358.16s-.0543.096-.0942.1341-.087.0679-.1384.0878c-.0515.0199-.1064.0295-.1615.0281h-.5501c-.0683 0-.1359.0135-.199.0396s-.1204.0644-.1687.1127c-.0482.0483-.0865.1056-.1126.1687-.0262.0631-.0397.1307-.0397.199 0 .1379.0548.2702.1523.3677.0976.0975.2298.1523.3677.1523h.5701c.1087 0 .213.0432.2899.1201s.12.1812.12.2899v2.8c.0013.0547-.0082.1091-.0282.16s-.0501.0973-.0883.1364c-.0382.0392-.0838.0703-.1342.0915s-.1045.0321-.1592.0321h-2.78c-.0547 0-.1089-.0109-.1593-.0321-.0505-.0212-.096-.0523-.1342-.0915-.0382-.0391-.0683-.0855-.0883-.1364s-.0296-.1053-.0283-.16v-.53c.0013-.0678-.0108-.1352-.0359-.1982-.025-.0631-.0623-.1205-.1098-.1689s-.1042-.0869-.1668-.1131c-.0625-.0263-.1297-.0398-.1975-.0398-.0683 0-.1359.0135-.199.0396s-.1204.0644-.1687.1127-.0865.1056-.1126.1687c-.0262.0631-.0396.1307-.0396.199v.53c.0013.0552-.0083.1101-.0282.1615-.0199.0515-.0497.0985-.0878.1385-.038.0399-.0836.0719-.1341.0943-.0505.0223-.1048.0344-.1599.0357h-2.26c-.229-.0026-.4478-.0954-.6088-.2583s-.2512-.3827-.2512-.6117zm17.5799 25.5c-.0001-.1053.0403-.2067.1129-.283.0726-.0764.1719-.1218.2771-.127 3.62-.79 5.24-2.87 5.24-6.74v-1.38c-.0103-.0461-.0103-.0939 0-.14 0-.0547.011-.1088.0322-.1592.0213-.0504.0523-.0961.0915-.1343.0391-.0382.0854-.0682.1363-.0882s.1054-.0296.1601-.0283h3c.096.0001.1907-.0215.2773-.063s.1627-.102.2227-.177c.0544-.0776.0922-.1656.1112-.2585.0189-.0929.0185-.1887-.0013-.2815l-3-11.75c-.7813-2.4326-2.1383-4.6406-3.9559-6.4363-1.8175-1.7957-4.0419-3.1261-6.4838-3.878-2.4418-.7518-5.0291-.903-7.5419-.4406-2.5129.4624-4.877 1.5246-6.8913 3.0964-2.0143 1.5719-3.6193 3.6068-4.6786 5.9319s-1.5415 4.8715-1.4057 7.4229c.1357 2.5514.8854 5.0323 2.1855 7.2319 1.3001 2.1995 3.112 4.0526 5.2818 5.4018.0581.0381.106.09.1391.1511.0332.0611.0506.1294.0508.1989v6.2h16.7201z" fill="#fff"/><path d="m50.8281 57.6399c-1.1934-3.684-3.6293-6.8392-6.8914-8.9263-3.262-2.087-7.1476-2.9762-10.9926-2.5156-3.8451.4605-7.4108 2.2423-10.0877 5.0406-2.6769 2.7984-4.2988 6.4396-4.5884 10.3013v.38c-.1508 2.9386.4783 5.8647 1.8236 8.4815 1.3453 2.6169 3.3589 4.8313 5.8365 6.4185v6c0 .1114.0442.2183.123.297.0788.0788.1856.123.297.123.0547.0001.1088-.0109.1592-.0321s.0961-.0523.1343-.0915c.0382-.0391.0682-.0855.0882-.1364s.0297-.1053.0283-.16v-6.2c-.0002-.0695-.0177-.1378-.0509-.1989-.0331-.0611-.081-.113-.1391-.1511-2.1698-1.3491-3.9817-3.2023-5.2818-5.4018-1.3-2.1995-2.0497-4.6804-2.1855-7.2318s.3465-5.0979 1.4058-7.423 2.6642-4.36 4.6785-5.9318c2.0144-1.5719 4.3785-2.6341 6.8913-3.0965s5.1001-.3112 7.542.4407c2.4419.7518 4.6662 2.0822 6.4837 3.8779 1.8176 1.7957 3.1746 4.0037 3.956 6.4363l3 11.75c.0197.0928.0201.1886.0012.2815s-.0568.1809-.1112.2585c-.06.075-.1361.1355-.2227.177-.0865.0416-.1813.0631-.2773.063h-3c-.0547-.0013-.109.0083-.1599.0283s-.0974.05-.1365.0882-.0702.0839-.0914.1343c-.0213.0504-.0323.1046-.0323.1592-.0103.0461-.0103.094 0 .14v1.38c0 3.87-1.6199 5.95-5.2399 6.74-.1053.0052-.2044.0506-.277.127-.0726.0763-.1132.1777-.1131.283v3.27c-.0013.0547.0084.1091.0284.16s.05.0973.0882.1364c.0382.0392.0839.0703.1343.0915s.1045.0322.1592.0321c.1114 0 .2182-.0442.297-.123.0787-.0787.123-.1856.123-.297v-2.93c3.79-.92 5.63-3.37 5.63-7.49v-1.1h2.5499c.2148.0011.4272-.0455.6218-.1365.1945-.091.3664-.2241.5032-.3896.1369-.1656.2352-.3594.288-.5676s.0586-.4255.0171-.6363c0 0 0-.06 0-.09z" fill="#dea81e"/><path d="m35.8297 70.94v-1.94h-.25c-.358 0-.7014-.1422-.9546-.3954-.2532-.2531-.3954-.5965-.3954-.9546 0-.1768.035-.3519.1029-.5151.068-.1632.1676-.3114.2931-.4359.1255-.1246.2744-.2231.4381-.2899.1638-.0667.3391-.1004.5159-.0991h.25v-1.94h-2.36c-.0547 0-.1089-.0109-.1593-.0321s-.096-.0523-.1343-.0915c-.0382-.0391-.0681-.0855-.0881-.1364s-.0296-.1053-.0283-.16v-.53c0-.1352-.0538-.265-.1494-.3606-.0957-.0956-.2254-.1494-.3606-.1494-.1353 0-.265.0538-.3606.1494-.0957.0956-.1494.2254-.1494.3606v.53c0 .1114-.0442.2182-.123.297-.0787.0788-.1856.123-.2969.123h-2.1901c-.0451 0-.0884.0179-.1203.0498-.0318.0319-.0496.0751-.0496.1202v6.25c.0024.0443.021.0862.0523.1176.0314.0314.0733.05.1176.0524z" fill="#4550e5"/><path d="m43.2592 70.7701c0 .045-.018.0883-.0498.1202-.0319.0318-.0752.0497-.1203.0497h-6.4499v-2.36c0-.0546-.011-.1088-.0323-.1592-.0212-.0504-.0523-.096-.0914-.1343-.0391-.0382-.0856-.0682-.1365-.0882s-.1052-.0296-.1599-.0283h-.67c-.0683 0-.1359-.0134-.199-.0395-.0631-.0262-.1204-.0645-.1687-.1128-.0483-.0482-.0865-.1056-.1127-.1687-.0261-.063-.0396-.1307-.0396-.199-.0001-.0678.0135-.1349.0397-.1975.0263-.0625.0648-.1192.1132-.1667.0484-.0474.1058-.0848.1688-.1098.0631-.0251.1305-.0373.1983-.036h.67c.0547.0014.109-.0082.1599-.0282.0509-.0201.0974-.05.1365-.0882s.0702-.0839.0914-.1343c.0213-.0504.0323-.1046.0323-.1593v-2.36h2.37c.0546.0001.1087-.0109.1591-.0321s.0961-.0523.1343-.0915c.0382-.0391.0683-.0855.0883-.1364s.0295-.1053.0282-.16v-.6799c0-.0679.0135-.135.0398-.1976.0262-.0625.0647-.1192.1131-.1667s.1058-.0848.1688-.1098c.0631-.0251.1305-.0373.1983-.036.1352 0 .2649.0538.3606.1494.0956.0957.1494.2254.1494.3607v.6799c0 .1114.0443.2183.123.297.0788.0788.1856.123.297.123h2.37zm-8.0901-10.56c0-.0679.0135-.135.0398-.1976.0262-.0625.0647-.1192.1131-.1667s.1058-.0848.1688-.1098c.0631-.0251.1305-.0373.1983-.036h.53c.0547.0001.1088-.0109.1592-.0321s.0961-.0523.1343-.0915c.0382-.0391.0682-.0855.0882-.1364s.0297-.1053.0284-.16v-2.37h6.4599c.0443.0024.0862.0211.1176.0525.0313.0314.0501.0732.0525.1175v6.46h-2v-.2699c-.0027-.3564-.1461-.6972-.399-.9482s-.5948-.3919-.9511-.3919c-.3564 0-.6982.1409-.9511.3919s-.3963.5918-.3989.9482v.2699h-2v-2.4c0-.1087-.0432-.213-.1201-.2899s-.1812-.1201-.29-.1201h-.5299c-.1379 0-.2701-.0547-.3676-.1523-.0976-.0975-.1524-.2297-.1524-.3676zm-6.07 10.56v-6.25c.0024-.0444.0211-.0862.0525-.1176s.0731-.05.1174-.0524h2.1901c.1114 0 .2182-.0443.297-.1231.0788-.0787.1231-.1856.1231-.297v-.53c0-.1352.0536-.2649.1492-.3606.0957-.0956.2255-.1494.3608-.1494.1352 0 .2649.0538.3606.1494.0956.0957.1492.2254.1492.3606v.53c-.0013.0547.0084.1091.0284.16s.05.0973.0882.1364c.0382.0392.0839.0703.1343.0915s.1045.0322.1592.0322h2.52v1.9399h-.25c-.1768-.0013-.3521.0324-.5159.0992-.1637.0667-.3126.1652-.4381.2898-.1255.1245-.2251.2727-.2931.4359-.0679.1633-.1029.3383-.1029.5152 0 .358.1422.7014.3954.9545.2532.2532.5966.3954.9546.3954h.25v1.94h-6.42c-.0443-.0024-.0862-.021-.1176-.0524s-.05-.0732-.0524-.1176zm7.14.9799h6.87c.2652 0 .5195-.1053.7071-.2928.1875-.1876.2929-.4419.2929-.7072v-6.84-6.87c0-.2652-.1054-.5195-.2929-.7071-.1876-.1875-.4419-.2929-.7071-.2929h-6.87c-.0546-.0013-.1091.0083-.16.0283-.0509.0201-.0972.05-.1364.0882-.0391.0382-.0703.0839-.0915.1343s-.0321.1045-.0321.1592v2.37h-.11c-.358 0-.7014.1423-.9546.3955-.2532.2531-.3954.5965-.3954.9545 0 .3581.1422.7015.3954.9546.2532.2532.5966.3955.9546.3955h.11v2h-1.99v-.1201c0-.3554-.1412-.6962-.3925-.9475s-.5921-.3925-.9475-.3925-.6962.1412-.9475.3925-.3926.5921-.3926.9475v.1201h-1.7799c-.2652 0-.5196.1053-.7071.2928-.1875.1876-.2929.4419-.2929.7072v6.25c0 .2652.1054.5195.2929.7071.1875.1875.4419.2929.7071.2929z" fill="#dea81e"/><path d="m40.4689 63.93v-.68c0-.1353-.0538-.265-.1494-.3607-.0957-.0956-.2254-.1493-.3606-.1493-.0678-.0014-.1352.0108-.1983.0359-.063.025-.1204.0624-.1688.1098-.0484.0475-.0869.1042-.1132.1668-.0262.0625-.0398.1296-.0398.1975v.68c.0001.1096-.0427.215-.1193.2935-.0767.0785-.181.1239-.2907.1265h-2.37v2.36c0 .0547-.0109.1088-.0321.1592s-.0523.0961-.0914.1343c-.0392.0382-.0856.0682-.1365.0882s-.1052.0296-.1599.0283h-.6701c-.0678-.0014-.1352.0108-.1982.0359-.063.025-.1204.0624-.1688.1099-.0484.0474-.0869.1041-.1132.1667-.0262.0625-.0398.1296-.0398.1975 0 .0678.0136.1349.0398.1975.0263.0625.0648.1192.1132.1667s.1058.0848.1688.1098c.063.0251.1304.0373.1982.036h.6701c.0551 0 .1097.0108.1606.0319.051.0211.0974.0521.1364.0911s.0698.0853.0909.1362c.0211.051.032.1056.032.1608v2.36h6.4501c.0451 0 .0883-.0179.1202-.0498s.0497-.0752.0497-.1202v-6.42h-2.37c-.0551 0-.1097-.0109-.1606-.032-.051-.0211-.0974-.0521-.1364-.0911s-.0698-.0853-.0909-.1362c-.0211-.051-.032-.1056-.032-.1607" fill="#fff"/><path d="m36.6283 61.14v2.38h2v-.27c.0026-.3563.146-.6971.3989-.9481s.5948-.3919.9511-.3919.6981.1409.951.3919.3963.5918.3989.9481v.27h2v-6.46c0-.0451-.0179-.0883-.0498-.1202-.0318-.0319-.0751-.0498-.1202-.0498h-6.46v2.37c0 .1087-.0432.213-.1201.2899s-.1812.1201-.2899.1201h-.5299c-.1379 0-.2703.0548-.3678.1523s-.1522.2298-.1522.3677.0547.2702.1522.3677.2299.1523.3678.1523h.5299c.1087 0 .213.0432.2899.1201s.1201.1812.1201.2899" fill="#4550e5"/><path d="m26.6786 60.23h1.84v-.11c.0026-.3572.1457-.6991.3983-.9517s.5945-.3956.9518-.3983c.358 0 .7014.1423.9545.3954.2532.2532.3954.5966.3954.9546v.11h1.95v-2h-.15c-.3573-.0026-.6991-.1457-.9517-.3983s-.3957-.5944-.3983-.9517c.0026-.3572.1457-.6991.3983-.9517s.5944-.3957.9517-.3983h.15v-2h-6.12c-.0539 0-.1071.0106-.1569.0312-.0497.0206-.095.0508-.133.0889-.0381.0381-.0683.0833-.0889.133-.0206.0498-.0311.1031-.0311.1569v6.19" fill="#fff"/><path d="m26.6493 54.01c0-.1087.0432-.213.1201-.2899s.1812-.1201.2899-.1201h6.12v2h-.15c-.3572.0027-.6991.1457-.9517.3983s-.3957.5945-.3983.9517c.0026.3573.1457.6991.3983.9517s.5945.3957.9517.3983h.15v2h-1.9499v-.11c0-.358-.1422-.7014-.3954-.9546-.2532-.2531-.5966-.3954-.9546-.3954-.3572.0026-.6992.1457-.9518.3983s-.3957.5945-.3983.9517v.11h-1.84zm0 7.06h2.26c.0552-.0013.1096-.0134.16-.0357.0505-.0223.0961-.0544.1342-.0943.0381-.04.0679-.087.0878-.1385.0198-.0514.0294-.1063.028-.1615v-.52c0-.0678.0136-.1349.0398-.1975.0263-.0625.0648-.1192.1132-.1667s.1058-.0848.1688-.1098c.063-.0251.1304-.0373.1983-.036.0678-.0013.1352.0109.1982.036.063.025.1204.0623.1688.1098s.0869.1042.1132.1667c.0262.0626.0398.1297.0398.1975v.52c-.0014.0547.0083.1091.0283.16s.0499.0973.0881.1364c.0382.0392.0839.0703.1343.0915s.1045.0321.1592.0321h2.79c.0547 0 .1089-.0109.1593-.0321s.0961-.0523.1343-.0915c.0382-.0391.0681-.0855.0881-.1364s.0297-.1053.0284-.16v-2.79c0-.1087-.0433-.213-.1202-.2899-.0768-.0769-.1811-.1201-.2899-.1201h-.5699c-.1379 0-.2702-.0548-.3677-.1523s-.1523-.2298-.1523-.3677.0548-.2701.1523-.3677c.0975-.0975.2298-.1523.3677-.1523h.5499c.0552.0014.11-.0082.1615-.0281s.0985-.0497.1384-.0878c.04-.0381.0721-.0836.0944-.1341s.0345-.1048.0358-.16v-2.79c.0013-.0547-.0084-.109-.0284-.1599s-.0499-.0973-.0881-.1365c-.0382-.0391-.0839-.0702-.1343-.0914-.0504-.0213-.1046-.0322-.1593-.0322h-6.54c-.3281.0026-.6419.1341-.8739.3661s-.3635.5459-.3661.8739v6.19c0 .2291.0903.4488.2513.6117s.3798.2557.6088.2583" fill="#dea81e"/><path d="m66.4085 40.19c.065 1.1745-.053 2.3519-.35 3.49-.5 2-1.43 3.44-2 3.71-.1855.0679-.3826.0985-.5799.09-1.2377-.0781-2.4445-.419-3.5401-1-2.2996-1.1543-4.1321-3.0645-5.1899-5.41-1.1185-2.7452-1.5709-5.7163-1.3201-8.67.15-2.22.7-4.77 1.53-5.14s3.1.9 4.86 2.25c1.0319.7909 1.9923 1.671 2.87 2.63.18-.27.38-.54.59-.8 1.5455-1.7602 3.4848-3.1308 5.66-4 1.26-.52 3.57-1.25 4.23-.7s.41 2.95.15 4.28c-.4079 2.306-1.3573 4.4823-2.77 6.35-1.0665 1.3466-2.4961 2.3598-4.12 2.92zm2.39 9.89.2001-7.69c.0064-.1884.0625-.3719.1626-.5317s.2406-.2903.4073-.3783c.1668-.0946.3574-.1392.5489-.1286.1914.0106.3758.0761.5311.1886l1.75 1.17c3.07-4.14 4.69-8.31 4.8-12.37.0223-.9004-.1361-1.7962-.4659-2.6344s-.8242-1.6017-1.4541-2.2456c-.5805-.588-1.2739-1.0525-2.0387-1.3653s-1.5851-.4674-2.4113-.4547c-.9814.0201-1.9446.2692-2.8127.7276-.8681.4583-1.6172 1.1132-2.1873 1.9124-.3248.4542-.7532.8243-1.2497 1.0796-.4966.2554-1.0469.3886-1.6052.3886-.5584 0-1.1087-.1332-1.6053-.3886-.4965-.2553-.9249-.6254-1.2497-1.0796-.5701-.7992-1.3192-1.4541-2.1873-1.9124-.8681-.4584-1.8312-.7075-2.8127-.7276h-.1001c-.8109.0027-1.613.1668-2.3599.4827-.7468.3159-1.4234.7773-1.9901 1.3573-.6317.6425-1.1274 1.4059-1.4573 2.2444s-.4872 1.7349-.4626 2.6356c.29 10.69 11 19.31 14.23 21.32 1.5679-1.0197 3.0464-2.1705 4.4199-3.44.0839-.0612.1875-.0892.2908-.0786.1033.0107.199.0592.2686.1363s.1082.1772.1083.281c.0001.1039-.0382.2041-.1077.2813l-.16.14.4301 1.52z" fill="#fff"/><path d="m67.7591 48.98c-1.4227 1.3155-2.9663 2.494-4.6101 3.52-.0632.0389-.1358.0596-.21.0596s-.1468-.0207-.21-.0596c-3.06-1.8-14.5399-10.82-14.8499-22.14-.0262-1.0116.1516-2.0182.5227-2.9597.3711-.9414.9278-1.7986 1.6372-2.5203.6418-.661 1.4098-1.1865 2.2583-1.5455s1.7604-.5441 2.6817-.5445h.11c1.1152.0224 2.2096.3053 3.1958.8262.9863.5209 1.837 1.2654 2.4842 2.1738.2469.3468.5731.6295.9515.8245.3783.1951.7978.2969 1.2235.2969s.8452-.1018 1.2235-.2969c.3784-.195.7047-.4777.9516-.8245.6466-.909 1.4971-1.6538 2.4835-2.1748s2.0811-.8036 3.1964-.8252h.0901c.9311-.006 1.8538.1761 2.713.5352.8591.3591 1.637.8879 2.287 1.5548.7093.7217 1.2661 1.5789 1.6372 2.5203.3711.9415.5488 1.9481.5227 2.9597-.12 4.35-1.87 8.78-5.2 13.17-.0655.085-.1611.1416-.2671.1584-.106.0167-.2144-.0077-.3029-.0684l-2.07-1.39c-.0361-.0221-.0776-.0338-.12-.0338-.0423 0-.0838.0117-.12.0338-.0352.018-.0649.0451-.086.0785-.0212.0335-.0329.072-.034.1115l-.2099 7.88c-.001.0387.0086.077.028.1105.0195.0336.0479.0611.082.0795.033.0203.0711.0311.1099.0311.0389 0 .0769-.0108.11-.0311l7.2-3.18c.0372-.0177.0694-.0443.0939-.0774.0244-.0332.0402-.0719.0461-.1126.0025-.0406-.0053-.0812-.0228-.1179-.0175-.0368-.0441-.0684-.0772-.0921l-1.91-1.28c-.0476-.0294-.0883-.0688-.1194-.1154s-.0517-.0993-.0605-.1546c-.0096-.056-.0075-.1133.0063-.1684s.0388-.1067.0736-.1516c3.6-4.77 5.49-9.69 5.63-14.62.0274-1.3888-.2241-2.7689-.7394-4.0589-.5153-1.2899-1.2839-2.4634-2.2606-3.4511-.9198-.9387-2.0208-1.6807-3.2362-2.1809-1.2153-.5003-2.5196-.7483-3.8337-.7291-1.4374.0237-2.8524.3608-4.146.9878-1.2937.6269-2.4349 1.5287-3.3441 2.6422-.0416.0465-.0924.0839-.1492.1097s-.1184.0395-.1808.0403c-.0608-.0015-.1206-.0156-.1757-.0415-.055-.0258-.1042-.0627-.1442-.1085-.9092-1.1135-2.0505-2.0153-3.3442-2.6422-1.2936-.627-2.7085-.9641-4.1458-.9878-1.3142-.0198-2.6188.228-3.8343.7282-1.2154.5003-2.3163 1.2426-3.2358 2.1818-.9785.9864-1.7484 2.1596-2.2638 3.4499-.5154 1.2902-.7658 2.671-.7362 4.0601.36 13.17 13.44 23 16.93 24.87.2831.1456.5967.2216.915.2216.3182 0 .632-.076.915-.2216 1.4035-.8251 2.7409-1.7579 4-2.79l.6-.49c.0478-.0365.1021-.0636.16-.08l-.41-1.44z" fill="#fff"/><path d="m77.6298 46.23-1.5501-1c3.54-4.8 5.4001-9.7599 5.5401-14.7399.0383-1.4989-.2252-2.9902-.7749-4.3852-.5498-1.395-1.3746-2.6651-2.4252-3.7349-.9991-1.0198-2.195-1.8258-3.5153-2.3691-1.3202-.5432-2.7371-.8123-4.1646-.7909-1.4752.0248-2.9294.3537-4.2715.9663-1.3422.6125-2.5434 1.4956-3.5286 2.5938l-.15-.17c-.9831-1.0487-2.1668-1.8891-3.481-2.4715-1.3141-.5823-2.7317-.8947-4.1689-.9186h-.16c-1.3994-.0013-2.7849.2776-4.0747.8203-1.2899.5428-2.4579 1.3383-3.4353 2.3397-1.0523 1.0666-1.8781 2.3347-2.428 3.7284-.5499 1.3936-.8126 2.884-.7721 4.3816.16 5.91 2.85 12 7.77 17.5 2.7735 3.159 6.0064 5.8828 9.5901 8.08.4046.2163.8562.3294 1.3149.3294.4588 0 .9105-.1131 1.3151-.3294 1.4398-.8476 2.8107-1.8072 4.1-2.8699l.5999-.4901c.0584-.0511.1015-.1174.1244-.1916.023-.0741.0249-.1532.0056-.2284-.012-.0624-.0394-.1209-.0799-.1699-.052-.0602-.1201-.1044-.1962-.1274s-.1572-.0239-.2339-.0027c-.0593.0124-.1145.04-.16.08l-.6.4901c-1.2591 1.0321-2.5964 1.9649-4 2.7899-.283.1457-.5967.2216-.915.2216s-.6319-.0759-.9149-.2216c-3.49-1.91-16.5801-11.7-16.9301-24.87-.0296-1.389.2208-2.7698.7362-4.0601.5154-1.2902 1.2853-2.4635 2.2638-3.4498.9195-.9392 2.0204-1.6815 3.2359-2.1818 1.2154-.5003 2.52-.748 3.8342-.7282 1.4374.0237 2.8522.3608 4.1459.9877 1.2936.627 2.4349 1.5287 3.3441 2.6422.04.0458.0892.0828.1443.1086.055.0258.1148.0399.1756.0414.0624-.0007.124-.0144.1808-.0402.0568-.0259.1076-.0632.1492-.1098.9092-1.1135 2.0504-2.0152 3.3441-2.6422 1.2936-.6269 2.7086-.964 4.146-.9877 1.3141-.0193 2.6184.2288 3.8337.729 1.2154.5002 2.3164 1.2422 3.2362 2.181.9767.9877 1.7454 2.1612 2.2607 3.4511.5152 1.2899.7667 2.6701.7393 4.0588-.14 4.93-2 9.85-5.63 14.62-.0347.0449-.0598.0966-.0736.1516-.0137.0551-.0159.1125-.0063.1685.0088.0552.0295.108.0605.1546.0311.0465.0718.0859.1194.1153l1.91 1.2801c.0331.0236.0597.0553.0772.092.0175.0368.0253.0773.0228.1179-.0059.0408-.0217.0795-.0461.1126-.0244.0332-.0567.0598-.0939.0774l-7.1999 3.18c-.0331.0204-.0712.0312-.11.0312-.0389 0-.0769-.0108-.11-.0312-.0341-.0184-.0625-.0459-.0819-.0794-.0194-.0336-.0291-.0718-.0281-.1105l.21-7.8801c.001-.0395.0128-.078.0339-.1114.0211-.0335.0508-.0606.0861-.0786.0361-.022.0776-.0337.1199-.0337.0424 0 .0839.0117.12.0337l2.07 1.39c.0885.0607.197.0852.303.0684.106-.0167.2015-.0734.2671-.1584 3.33-4.3899 5.0799-8.8199 5.1999-13.1699.0261-1.0117-.1516-2.0182-.5227-2.9597s-.9278-1.7986-1.6372-2.5204c-.6499-.6668-1.4278-1.1956-2.287-1.5548-.8591-.3591-1.7818-.5411-2.713-.5352h-.0601c-1.1153.0216-2.21.3042-3.1964.8252s-1.837 1.2658-2.4836 2.1748c-.2469.3468-.5731.6295-.9514.8246-.3784.195-.7979.2968-1.2235.2968-.4257 0-.8452-.1018-1.2236-.2968-.3783-.1951-.7046-.4778-.9515-.8246-.6472-.9084-1.4979-1.6528-2.4841-2.1737-.9863-.5209-2.0807-.8039-3.1958-.8263h-.11c-.9213.0004-1.8333.1856-2.6818.5446s-1.6164.8845-2.2583 1.5454c-.7093.7218-1.2661 1.5789-1.6372 2.5204s-.5489 1.948-.5228 2.9597c.31 11.32 11.7901 20.34 14.8501 22.14.0631.0389.1358.0595.21.0595.0741 0 .1468-.0206.2099-.0595 1.6414-1.0294 3.1846-2.2077 4.61-3.5201.0486-.0518.1022-.0987.16-.14.0695-.0772.1078-.1774.1077-.2812-.0001-.1039-.0387-.204-.1083-.2811-.0696-.077-.1654-.1256-.2687-.1362-.1033-.0107-.2067.0173-.2906.0786-1.3704 1.2701-2.8494 2.4178-4.42 3.4299-3.25-2-13.94-10.62-14.23-21.31-.0246-.9007.1327-1.7971.4626-2.6356s.8256-1.6018 1.4573-2.2444c.566-.5809 1.2424-1.0429 1.9894-1.3588.747-.316 1.5496-.4796 2.3607-.4812h.09c.9814.0201 1.9446.2693 2.8127.7276.8681.4584 1.6171 1.1133 2.1873 1.9124.3248.4542.7532.8243 1.2497 1.0797.4966.2553 1.0469.3885 1.6052.3885.5584 0 1.1087-.1332 1.6053-.3885.4965-.2554.9249-.6255 1.2497-1.0797.5701-.7991 1.3192-1.454 2.1873-1.9124.8681-.4583 1.8312-.7075 2.8127-.7276.8269-.0114 1.6475.1449 2.4124.4594.7648.3145 1.4581.7808 2.0377 1.3706.6299.6439 1.1242 1.4075 1.454 2.2457.3297.8381.4882 1.7339.4659 2.6344-.11 4.06-1.7299 8.2299-4.7999 12.3699l-1.75-1.17c-.1553-.1125-.3398-.1779-.5313-.1886-.1915-.0106-.382.034-.5488.1287-.1668.088-.3072.2185-.4073.3783s-.1562.3432-.1626.5316l-.2001 7.69v.1801c-.0049.179.0356.3564.1178.5155s.2034.2948.3523.3945l.1799.0999c.1328.0567.2757.0859.4201.0859.1443 0 .2871-.0292.4199-.0859l7.2101-3.1799c.175-.0716.3261-.1913.4359-.3453.1097-.154.1735-.336.1841-.5248.0222-.1928-.009-.388-.0901-.5643-.0811-.1764-.209-.3271-.3699-.4357" fill="#dea81e"/><path d="m69.8883 36.74c1.2875-1.711 2.1634-3.6957 2.5599-5.8.3286-1.1921.3868-2.4425.1701-3.66-1.2319.0358-2.4407.3431-3.5401.9-1.9864.8077-3.7593 2.0638-5.18 3.67-.2425.2935-.463.6043-.6599.93.7748.8983 1.4457 1.8812 2 2.93l4.5699-5.59c.0313-.0516.0734-.0958.1233-.1298.0499-.0339.1065-.0566.166-.0666.0595-.0101.1206-.0072.1789.0085.0583.0156.1124.0436.1589.0821s.0841.0866.1104.1409c.0262.0544.0405.1137.0417.1741.0012.0603-.0107.1202-.0347.1756-.024.0553-.0596.1049-.1045.1452l-4.8299 5.9c.373.8925.6252 1.8308.75 2.79 1.3977-.533 2.6269-1.4308 3.5599-2.6" fill="#4550e5"/><path d="m65.5793 36.55 4.8299-5.9c.0449-.0403.0806-.0899.1046-.1452.024-.0554.0358-.1153.0346-.1756-.0013-.0604-.0155-.1197-.0418-.1741-.0262-.0543-.0638-.1024-.1103-.1409s-.1007-.0665-.159-.0821c-.0582-.0157-.1192-.0186-.1787-.0085-.0595.01-.1162.0328-.1661.0667s-.092.0781-.1233.1297l-4.5699 5.59c-.5543-1.0488-1.2252-2.0317-2-2.93.1993-.3241.4198-.6348.66-.93 1.4207-1.6062 3.1934-2.8623 5.1799-3.67 1.0972-.5615 2.3078-.8658 3.5401-.89.2168 1.2141.1587 2.4614-.1701 3.65-.3965 2.1043-1.2724 4.089-2.5599 5.8-.9313 1.1668-2.1567 2.0642-3.5501 2.6-.1331-.9586-.3885-1.8962-.76-2.79zm-11.3901-4c.17-2.64.75-4.34 1-4.57.37-.07 2 .61 4.12 2.24 2.2266 1.6643 4.0345 3.8249 5.2801 6.31.7088 1.5542 1.0187 3.2607.9017 4.9649-.117 1.7043-.6572 3.3524-1.5718 4.7951l-4-8.91c-.0535-.0865-.1365-.1507-.2337-.1806-.0973-.0299-.2021-.0235-.295.0181-.0928.0415-.1675.1154-.21.2078-.0426.0924-.0502.1972-.0213.2947l4 8.91c-1.6875-.2643-3.2822-.9461-4.6391-1.9834-1.357-1.0374-2.4331-2.3975-3.1308-3.9566-1.0383-2.5807-1.4661-5.3666-1.25-8.14zm16.25 4.7c1.4128-1.8677 2.3621-4.044 2.7701-6.35.26-1.33.5199-3.74-.1501-4.28s-2.9999.18-4.2299.7c-2.1753.8693-4.1146 2.2398-5.6601 4-.21.26-.4099.53-.5899.8-.8778-.959-1.8382-1.8391-2.87-2.63-1.76-1.35-4-2.63-4.86-2.25s-1.3801 2.92-1.5301 5.14c-.2507 2.9537.2017 5.9248 1.3201 8.67 1.0579 2.3456 2.8903 4.2558 5.19 5.41 1.0955.581 2.3024.9219 3.54 1 .1974.0085.3944-.0221.58-.09.57-.27 1.5-1.76 2-3.71.2969-1.1381.415-2.3155.3499-3.49 1.6239-.5602 3.0535-1.5734 4.12-2.92" fill="#dea81e"/><path d="m63.2494 46.64-4-8.91c-.0289-.0976-.0214-.2023.0211-.2947.0425-.0925.1172-.1663.2101-.2079.0929-.0415.1977-.0479.2949-.0181.0973.0299.1804.0941.2339.1807l4 8.91c.9146-1.4428 1.4548-3.0909 1.5718-4.7951s-.1931-3.4107-.9019-4.9649c-1.2479-2.4864-3.0553-4.6497-5.28-6.32-2.09-1.62-3.75-2.3-4.12-2.23-.3.23-.88 1.92-1 4.57-.2164 2.7701.2114 5.5528 1.25 8.13.6978 1.5599 1.7739 2.921 3.1307 3.96s2.9514 1.723 4.6393 1.99" fill="#4550e5"/></g></svg>