<svg width="79" height="81" viewBox="0 0 79 81" fill="none" xmlns="http://www.w3.org/2000/svg">
<path d="M41.8693 64.7701C42.8222 64.3961 43.8549 64.2722 44.8693 64.41C45.2829 62.8534 46.278 61.5148 47.6493 60.67C48.2541 60.3052 48.927 60.0673 49.6267 59.9711C50.3265 59.8748 51.0385 59.9221 51.7194 60.11C52.1446 60.2315 52.5541 60.4027 52.9393 60.62C53.6682 59.9017 54.5821 59.3998 55.5793 59.17C55.4959 57.9744 55.2709 56.7928 54.9093 55.65C54.3288 53.8222 53.3406 52.1501 52.0193 50.76C51.6542 51.2738 51.1851 51.7049 50.6423 52.0254C50.0996 52.3459 49.4955 52.5485 48.8693 52.62C48.6104 52.6516 48.3501 52.6683 48.0894 52.67C47.1493 52.6713 46.2228 52.4449 45.3893 52.01C42.5693 50.57 39.7693 45.15 39.6493 44.92C39.6019 44.8266 39.5922 44.7186 39.6219 44.6182C39.6517 44.5178 39.7187 44.4326 39.8093 44.3801H39.8893C40.1293 44.2901 45.8893 42.3 48.8893 43.2C49.9652 43.5087 50.9301 44.1195 51.6693 44.9601C52.237 45.5952 52.6194 46.3741 52.7745 47.2118C52.9297 48.0495 52.8518 48.9137 52.5493 49.7101L52.3993 50.06C53.7218 51.4074 54.7442 53.0194 55.3993 54.79C55.8078 53.5238 56.3615 52.309 57.0493 51.17C58.2867 49.1101 59.8083 47.235 61.5693 45.6001C61.0355 44.6967 60.8673 43.6234 61.0994 42.6001C61.2655 41.8052 61.5937 41.0531 62.0634 40.3907C62.5331 39.7283 63.1342 39.1698 63.8293 38.75C65.0977 38.1165 66.4834 37.7522 67.8993 37.68C67.5907 33.8945 66.5373 30.2072 64.7993 26.83C64.3683 27.3148 63.9109 27.7755 63.4293 28.2101C61.834 29.2896 60.0331 30.0283 58.1393 30.3801C54.1393 31.43 50.1393 32.52 50.2693 37.97C50.2748 38.0507 50.2559 38.1311 50.2148 38.2007C50.1738 38.2703 50.1126 38.3259 50.0393 38.36C49.2277 38.7466 48.3382 38.9416 47.4393 38.93C45.6481 38.8754 43.9112 38.3023 42.4393 37.28C41.2354 36.5609 40.246 35.5323 39.5742 34.3012C38.9024 33.0702 38.5727 31.6817 38.6193 30.28C38.63 30.183 38.6736 30.0924 38.7427 30.0234C38.8117 29.9543 38.9022 29.9108 38.9993 29.9L40.1393 29.81C43.7693 29.54 46.9493 29.3 49.3893 27.01C47.0403 27.0209 44.7211 26.4843 42.6156 25.4429C40.5101 24.4014 38.6761 22.8837 37.2593 21.01C35.2432 18.3527 33.744 15.3406 32.8394 12.1301C32.8347 12.0868 32.8347 12.0433 32.8394 12C32.8394 11.89 32.7693 11.78 32.7393 11.67C26.0637 13.1396 20.1192 16.9139 15.9493 22.33C19.5722 21.9491 23.2267 22.6516 26.4502 24.3485C29.6737 26.0455 32.3213 28.6606 34.0579 31.8629C35.7944 35.0652 36.542 38.7107 36.2058 42.3381C35.8696 45.9654 34.4648 49.4114 32.1693 52.2401L33.8293 53.89C33.9193 53.984 33.9824 54.1003 34.0123 54.2269C34.0422 54.3535 34.0376 54.4858 33.9993 54.61C33.9643 54.7359 33.8939 54.8491 33.7964 54.936C33.6989 55.0229 33.5784 55.0798 33.4493 55.1001L28.4493 56.1001H28.3193C28.1314 56.099 27.9517 56.0234 27.8193 55.89C27.7351 55.8086 27.6726 55.7074 27.6377 55.5956C27.6028 55.4837 27.5964 55.3649 27.6193 55.25L28.6193 50.25C28.6428 50.1223 28.701 50.0035 28.7874 49.9065C28.8737 49.8096 28.9852 49.7381 29.1094 49.7C29.2337 49.6617 29.3658 49.6572 29.4924 49.6871C29.619 49.717 29.7354 49.7801 29.8293 49.87L31.6493 51.7C33.8659 48.9427 35.199 45.5807 35.4744 42.0536C35.7497 38.5265 34.9544 34.9983 33.1925 31.9304C31.4306 28.8625 28.7841 26.3976 25.5989 24.8578C22.4137 23.3181 18.838 22.7751 15.3394 23.3C13.8626 25.3847 12.6657 27.6541 11.7793 30.05C14.2304 28.5654 17.1175 27.9687 19.9563 28.3602C22.7951 28.7517 25.413 30.1074 27.3708 32.2C29.3287 34.2927 30.5073 36.9949 30.7091 39.8535C30.9109 42.7121 30.1237 45.5531 28.4794 47.9C28.4619 47.9371 28.4382 47.9709 28.4093 48C26.656 50.4649 24.0684 52.2104 21.1262 52.9128C18.1841 53.6152 15.087 53.227 12.4093 51.82C13.423 54.1254 14.7305 56.29 16.2993 58.26C18.6453 58.5498 21.0255 58.3662 23.2993 57.72C23.3512 57.7033 23.4059 57.6973 23.4601 57.7025C23.5143 57.7077 23.567 57.7239 23.6147 57.7501C23.6625 57.7763 23.7043 57.812 23.7378 57.855C23.7713 57.8979 23.7956 57.9473 23.8093 58C23.8405 58.1061 23.8285 58.2202 23.7761 58.3176C23.7237 58.4149 23.635 58.4877 23.5293 58.5201C21.8803 58.9903 20.1741 59.2292 18.4594 59.23C17.9694 59.23 17.4593 59.23 17.0093 59.17C19.7062 62.2974 23.04 64.8127 26.7875 66.5476C30.535 68.2825 34.6098 69.1971 38.7393 69.23C39.1093 67.47 39.9593 65.57 41.9093 64.89" fill="#EFC73F"/>
<path d="M64.8495 47.53C63.8125 47.4537 62.8434 46.9852 62.1394 46.22C56.9094 51.22 56.0395 55.64 55.9395 56.22C56.1737 57.1416 56.3276 58.0818 56.3994 59.03H56.6394C57.8372 59.0224 59.0017 59.4246 59.9395 60.17C63.4095 56.5674 65.8926 52.1314 67.1494 47.29C66.5837 47.4521 65.9979 47.5329 65.4094 47.53H64.8495Z" fill="#EFC73F"/>
<path d="M67.6695 68.73C67.5488 68.0006 67.2819 67.3031 66.885 66.6793C66.4881 66.0555 65.9692 65.5184 65.3596 65.1C64.8704 64.7753 64.3205 64.5529 63.743 64.4463C63.1656 64.3398 62.5724 64.3512 61.9995 64.48C61.9424 64.5098 61.879 64.5254 61.8146 64.5254C61.7501 64.5254 61.6866 64.5098 61.6295 64.48C61.5713 64.4502 61.5205 64.4079 61.4807 64.356C61.4409 64.3041 61.4132 64.244 61.3995 64.18C61.2141 63.099 60.7131 62.097 59.9596 61.3C59.5378 60.8471 59.0269 60.4863 58.459 60.2402C57.8911 59.9941 57.2784 59.8681 56.6595 59.87H56.4696C56.5325 61.5237 56.4218 63.1794 56.1395 64.81C56.9711 65.1292 57.698 65.6727 58.2395 66.38C58.3008 66.4701 58.3257 66.5801 58.3089 66.6878C58.2922 66.7954 58.2352 66.8927 58.1495 66.96C58.0757 67.0104 57.9889 67.0382 57.8995 67.04C57.8352 67.0389 57.7719 67.0229 57.7147 66.9935C57.6575 66.964 57.6079 66.9217 57.5696 66.87C57.0592 66.2125 56.3621 65.7245 55.5696 65.47C54.7296 65.19 52.7395 65.47 52.2595 66.2C52.2306 66.246 52.193 66.2858 52.1487 66.3172C52.1044 66.3486 52.0544 66.371 52.0015 66.3831C51.9485 66.3952 51.8937 66.3967 51.8402 66.3876C51.7867 66.3785 51.7355 66.3589 51.6896 66.33C51.6436 66.3011 51.6038 66.2635 51.5724 66.2192C51.541 66.1749 51.5185 66.1249 51.5065 66.072C51.4944 66.019 51.4928 65.9642 51.5019 65.9107C51.511 65.8572 51.5307 65.806 51.5596 65.76C52.2296 64.7 54.1895 64.41 55.3695 64.58C55.6176 63.0634 55.7148 61.5259 55.6595 59.99C54.7684 60.2245 53.9655 60.7146 53.3496 61.4C53.2815 61.4722 53.1905 61.5186 53.092 61.5314C52.9936 61.5441 52.8938 61.5225 52.8096 61.47C52.4186 61.2036 51.986 61.0043 51.5295 60.88C50.9569 60.7223 50.3581 60.6835 49.7699 60.7661C49.1817 60.8486 48.6167 61.0508 48.1096 61.36C47.4843 61.7481 46.9434 62.2579 46.519 62.8592C46.0947 63.4604 45.7956 64.1409 45.6395 64.86C45.6369 64.9222 45.6205 64.9829 45.5915 65.038C45.5626 65.093 45.5217 65.1409 45.4719 65.1782C45.4222 65.2155 45.3648 65.2413 45.3038 65.2537C45.2429 65.2662 45.1799 65.2649 45.1195 65.25C44.1446 65.0291 43.1254 65.1128 42.1996 65.49C38.9896 66.61 39.3296 72.13 39.3496 72.43L67.7895 69.27C67.7767 69.0723 67.7533 68.8753 67.7196 68.68" fill="#4550E5"/>
<path d="M51.4092 50.17C49.9863 48.9032 48.3329 47.9221 46.5392 47.28C46.4876 47.2621 46.4401 47.2341 46.3995 47.1977C46.3589 47.1612 46.326 47.117 46.3027 47.0676C46.2794 47.0182 46.2662 46.9647 46.2639 46.9102C46.2616 46.8557 46.2702 46.8012 46.2892 46.75C46.3081 46.6981 46.3372 46.6504 46.3746 46.6097C46.4121 46.569 46.4572 46.5361 46.5073 46.5129C46.5575 46.4897 46.6118 46.4766 46.667 46.4744C46.7222 46.4722 46.7774 46.4809 46.8292 46.5C48.6581 47.1551 50.3524 48.1378 51.8292 49.4C52.0842 48.7457 52.152 48.0334 52.0248 47.3427C51.8976 46.6521 51.5806 46.0106 51.1093 45.49C50.4744 44.7673 49.6446 44.243 48.7192 43.98C46.3892 43.28 42.0091 44.56 40.6191 44.98C41.3391 46.28 43.6192 50.18 45.7692 51.28C46.6914 51.7594 47.7385 51.9444 48.7692 51.81C49.3024 51.7457 49.8154 51.5667 50.2728 51.2854C50.7303 51.004 51.1213 50.6269 51.4192 50.18" fill="#4550E5"/>
<path d="M70.4184 38.3101C68.4984 38.3101 65.7785 38.4801 64.3185 39.3601C63.7197 39.7271 63.2023 40.2128 62.7982 40.7872C62.3941 41.3616 62.1118 42.0125 61.9685 42.7001C61.7868 43.4669 61.8897 44.2736 62.2584 44.9701C64.0864 43.3452 66.0654 41.8986 68.1684 40.6501C68.2641 40.5952 68.3776 40.5802 68.4842 40.6083C68.5909 40.6364 68.6821 40.7052 68.7384 40.8001C68.7673 40.8465 68.7867 40.8982 68.7953 40.9522C68.8039 41.0063 68.8016 41.0614 68.7886 41.1146C68.7755 41.1677 68.752 41.2176 68.7193 41.2615C68.6867 41.3054 68.6456 41.3423 68.5985 41.3701C66.5117 42.6045 64.5492 44.0378 62.7384 45.6501C63.3034 46.2612 64.0786 46.6362 64.9084 46.7001C65.6119 46.7731 66.323 46.7007 66.9973 46.4874C67.6716 46.274 68.2949 45.9244 68.8285 45.4601C70.5585 43.9201 71.7385 39.7601 72.0885 38.3501C71.7085 38.3501 71.0884 38.3501 70.4184 38.3501" fill="#4550E5"/>
<path d="M68.8296 45.45C68.2976 45.9171 67.6747 46.2692 67.0002 46.4843C66.3256 46.6994 65.6138 46.7728 64.9096 46.7C64.0797 46.6361 63.3046 46.2611 62.7395 45.65C64.5503 44.0377 66.5129 42.6044 68.5997 41.37C68.6468 41.3422 68.6879 41.3053 68.7205 41.2614C68.7532 41.2175 68.7767 41.1676 68.7897 41.1145C68.8028 41.0614 68.805 41.0062 68.7964 40.9521C68.7878 40.8981 68.7685 40.8464 68.7395 40.8C68.6833 40.7051 68.592 40.6363 68.4854 40.6082C68.3787 40.5801 68.2653 40.5951 68.1696 40.65C66.0666 41.8985 64.0875 43.3451 62.2596 44.97C61.8909 44.2735 61.7879 43.4668 61.9696 42.7C62.1129 42.0124 62.3952 41.3615 62.7994 40.7871C63.2035 40.2127 63.7209 39.727 64.3196 39.36C65.7796 38.48 68.4996 38.31 70.4096 38.31C71.1196 38.31 71.7096 38.31 72.0896 38.31C71.7396 39.72 70.5596 43.87 68.8296 45.41V45.45ZM45.7596 51.23C43.6096 50.13 41.3197 46.23 40.6097 44.93C41.9997 44.48 46.3796 43.21 48.7096 43.93C49.6338 44.2008 50.4625 44.7278 51.0997 45.45C51.569 45.9717 51.8847 46.6131 52.0118 47.3033C52.1388 47.9934 52.0723 48.7053 51.8196 49.36C50.3475 48.0912 48.6519 47.1078 46.8196 46.46C46.7678 46.4408 46.7126 46.4321 46.6574 46.4343C46.6022 46.4365 46.5479 46.4496 46.4977 46.4728C46.4476 46.4961 46.4025 46.529 46.365 46.5697C46.3276 46.6103 46.2985 46.658 46.2796 46.71C46.2606 46.7611 46.252 46.8156 46.2543 46.8701C46.2566 46.9246 46.2699 46.9782 46.2931 47.0275C46.3164 47.0769 46.3493 47.1211 46.3899 47.1576C46.4305 47.1941 46.478 47.2221 46.5296 47.24C48.3214 47.8795 49.972 48.861 51.3896 50.13C51.0927 50.5778 50.7019 50.9555 50.2443 51.237C49.7867 51.5185 49.2731 51.697 48.7395 51.76C47.7088 51.8957 46.6614 51.7106 45.7395 51.23H45.7596ZM72.7395 37.54H72.6496C71.0984 37.423 69.5407 37.423 67.9895 37.54C66.5734 37.6107 65.1875 37.9751 63.9196 38.61C63.2245 39.0297 62.6233 39.5882 62.1536 40.2506C61.6839 40.913 61.3558 41.6651 61.1896 42.46C60.9576 43.4833 61.1257 44.5566 61.6596 45.46C59.8963 47.0928 58.3744 48.9683 57.1396 51.03C56.4518 52.169 55.8981 53.3837 55.4895 54.65C54.8345 52.8793 53.8121 51.2673 52.4895 49.92L52.6396 49.57C52.9421 48.7736 53.02 47.9094 52.8648 47.0717C52.7096 46.2341 52.3273 45.4551 51.7596 44.82C51.0204 43.9794 50.0556 43.3686 48.9797 43.06C45.9797 42.16 40.1797 44.15 39.9797 44.24H39.8996C39.8107 44.2941 39.7458 44.38 39.7179 44.4803C39.6901 44.5806 39.7014 44.6877 39.7496 44.78C39.8696 45.01 42.6695 50.43 45.4895 51.87C46.323 52.3048 47.2495 52.5313 48.1896 52.53C48.4504 52.5282 48.7108 52.5115 48.9696 52.48C49.5958 52.4084 50.1999 52.2058 50.7426 51.8853C51.2853 51.5648 51.7545 51.1337 52.1196 50.62C53.4408 52.01 54.4291 53.6821 55.0096 55.51C55.3712 56.6527 55.5961 57.8343 55.6796 59.03C54.6824 59.2597 53.7685 59.7617 53.0396 60.48C52.6544 60.2626 52.2449 60.0915 51.8196 59.97C51.1388 59.782 50.4267 59.7347 49.727 59.831C49.0272 59.9273 48.3544 60.1651 47.7496 60.53C46.3782 61.3747 45.3833 62.7134 44.9696 64.27C43.9553 64.1321 42.9226 64.256 41.9696 64.63C39.9696 65.31 39.1696 67.21 38.7996 68.97C38.5739 70.1085 38.4966 71.2715 38.5696 72.43C38.5794 72.5326 38.6266 72.628 38.7022 72.6981C38.7778 72.7682 38.8766 72.808 38.9797 72.81C39.0894 72.7998 39.1907 72.7469 39.2618 72.6627C39.3328 72.5786 39.368 72.4698 39.3597 72.36C39.3597 72.06 38.9996 66.54 42.2096 65.42C43.1354 65.0428 44.1546 64.959 45.1296 65.18C45.19 65.1948 45.2529 65.1961 45.3139 65.1837C45.3748 65.1712 45.4322 65.1454 45.482 65.1081C45.5317 65.0708 45.5726 65.0229 45.6016 64.9679C45.6306 64.9129 45.6469 64.8521 45.6496 64.79C45.8057 64.0708 46.1048 63.3904 46.5291 62.7891C46.9534 62.1878 47.4943 61.678 48.1196 61.29C48.8312 60.8561 49.6525 60.6358 50.4858 60.6553C51.319 60.6748 52.1291 60.9333 52.8196 61.4C52.9039 61.4524 53.0037 61.4741 53.1021 61.4613C53.2005 61.4486 53.2916 61.4022 53.3597 61.33C53.9755 60.6446 54.7785 60.1544 55.6696 59.92C55.7197 61.4557 55.6225 62.9927 55.3796 64.51C54.1996 64.34 52.2396 64.63 51.5696 65.68C51.5125 65.7748 51.494 65.888 51.5182 65.996C51.5424 66.1041 51.6075 66.1986 51.6996 66.26C51.7929 66.3166 51.9045 66.3347 52.0109 66.3104C52.1173 66.2862 52.2101 66.2214 52.2696 66.13C52.7496 65.39 54.7296 65.13 55.5796 65.4C56.3721 65.6544 57.0693 66.1424 57.5796 66.8C57.6168 66.8529 57.6662 66.896 57.7237 66.9256C57.7811 66.9552 57.8449 66.9704 57.9096 66.97C57.9989 66.9681 58.0858 66.9403 58.1596 66.89C58.2453 66.8227 58.3022 66.7254 58.3189 66.6177C58.3356 66.51 58.3108 66.4001 58.2496 66.31C57.7107 65.6 56.983 65.0559 56.1496 64.74C56.4319 63.1094 56.5426 61.4536 56.4797 59.8H56.6696C57.2885 59.798 57.9011 59.924 58.469 60.1701C59.0369 60.4162 59.5479 60.777 59.9696 61.23C60.7232 62.0269 61.2242 63.0289 61.4096 64.11C61.4232 64.1739 61.451 64.234 61.4908 64.2859C61.5306 64.3378 61.5814 64.3802 61.6396 64.41C61.698 64.435 61.761 64.4479 61.8246 64.4479C61.8882 64.4479 61.9511 64.435 62.0096 64.41C62.5825 64.2812 63.1755 64.2697 63.753 64.3763C64.3304 64.4828 64.8803 64.7052 65.3696 65.03C65.9792 65.4483 66.4981 65.9855 66.8951 66.6092C67.292 67.233 67.5588 67.9305 67.6796 68.66C67.7134 68.8553 67.7367 69.0522 67.7496 69.25C67.7622 69.3579 67.8162 69.4567 67.9001 69.5257C67.984 69.5947 68.0913 69.6285 68.1996 69.62C68.3093 69.6098 68.4107 69.5569 68.4817 69.4727C68.5528 69.3886 68.588 69.2798 68.5796 69.17C68.5796 68.94 68.5795 68.73 68.4895 68.5C68.3499 67.659 68.0415 66.855 67.5826 66.1366C67.1237 65.4182 66.5239 64.8002 65.8196 64.32C64.7339 63.5992 63.4152 63.3169 62.1296 63.53C61.8633 62.4536 61.3224 61.4647 60.5596 60.66C60.3661 60.466 60.1625 60.2824 59.9496 60.11C59.0143 59.3603 57.8482 58.9575 56.6496 58.97H56.4096C56.3369 58.0252 56.1831 57.0884 55.9496 56.17C56.0496 55.56 56.9496 51.17 62.1496 46.17C62.8496 46.9391 63.8217 47.4054 64.8597 47.47C65.0462 47.4799 65.2331 47.4799 65.4196 47.47C66.0081 47.4729 66.5939 47.3921 67.1596 47.23C67.986 46.9931 68.7483 46.5726 69.3896 46C71.6796 44 72.9696 38.23 73.0296 38C73.0541 37.8966 73.0377 37.7878 72.9836 37.6964C72.9295 37.605 72.8419 37.5382 72.7395 37.51" fill="#DEA81E"/>
<path d="M63.4202 12.6401C63.5392 12.6381 63.6562 12.6716 63.7562 12.7363C63.8562 12.801 63.9346 12.894 63.9816 13.0034C64.0285 13.1129 64.0418 13.2338 64.0198 13.3509C63.9978 13.4679 63.9415 13.5757 63.858 13.6607C63.7745 13.7456 63.6676 13.8037 63.5509 13.8277C63.4342 13.8517 63.3131 13.8404 63.2029 13.7953C63.0927 13.7502 62.9984 13.6733 62.932 13.5744C62.8656 13.4755 62.8302 13.3592 62.8302 13.2401C62.8289 13.1617 62.8431 13.0839 62.8722 13.0112C62.9012 12.9385 62.9445 12.8722 62.9994 12.8164C63.0543 12.7605 63.1198 12.7162 63.192 12.6859C63.2643 12.6556 63.3418 12.64 63.4202 12.6401ZM33.5702 11.6401C35.1861 12.1803 36.8684 12.4966 38.5702 12.5801C38.6816 12.5801 38.7884 12.6243 38.8672 12.7031C38.946 12.7818 38.9901 12.8887 38.9901 13.0001C38.9901 13.0548 38.9792 13.1089 38.958 13.1593C38.9368 13.2097 38.9057 13.2554 38.8666 13.2936C38.8274 13.3318 38.781 13.3618 38.7301 13.3818C38.6792 13.4018 38.6249 13.4114 38.5702 13.4101C36.9749 13.3461 35.3948 13.0738 33.8701 12.6001C34.3965 14.2228 35.0658 15.7956 35.8701 17.3001C37.285 17.5799 38.7478 17.4939 40.1201 17.0501C40.2223 17.0103 40.3361 17.0121 40.437 17.0551C40.5379 17.0981 40.618 17.1788 40.6602 17.2801C40.6812 17.3305 40.692 17.3847 40.6918 17.4394C40.6916 17.4941 40.6804 17.5482 40.6589 17.5985C40.6375 17.6488 40.6063 17.6944 40.567 17.7324C40.5277 17.7705 40.4812 17.8003 40.4302 17.8201C39.5056 18.1453 38.53 18.3011 37.5502 18.2801C37.1768 18.2801 36.7868 18.2601 36.3801 18.2201C36.8511 19.018 37.3757 19.7831 37.9502 20.5101C38.2958 20.9448 38.6629 21.362 39.0502 21.7601C40.4355 21.7464 41.8009 21.4289 43.0502 20.8301C43.0993 20.8066 43.1527 20.7931 43.2072 20.7904C43.2616 20.7878 43.316 20.796 43.3672 20.8146C43.4184 20.8333 43.4654 20.8619 43.5054 20.8989C43.5454 20.9359 43.5776 20.9805 43.6002 21.0301C43.6241 21.0786 43.638 21.1314 43.6414 21.1854C43.6447 21.2394 43.6373 21.2935 43.6196 21.3446C43.602 21.3957 43.5744 21.4429 43.5385 21.4833C43.5025 21.5237 43.4589 21.5566 43.4102 21.5801C42.3028 22.094 41.1218 22.4314 39.9102 22.5801C41.3331 23.8396 42.9927 24.8031 44.792 25.4143C46.5913 26.0255 48.4944 26.2722 50.3901 26.1401C50.4708 26.1345 50.5512 26.1535 50.6208 26.1946C50.6905 26.2356 50.746 26.2968 50.7802 26.3701C50.8237 26.4389 50.8468 26.5186 50.8468 26.6001C50.8468 26.6815 50.8237 26.7613 50.7802 26.8301C48.0302 30.0401 44.4402 30.3101 40.2802 30.6201L39.5101 30.6801C39.508 31.7762 39.798 32.8531 40.3502 33.8001C40.8831 33.8213 41.4166 33.781 41.9402 33.6801L42.9402 33.4001C43.4843 33.1984 43.9963 32.9188 44.4602 32.5701C44.5033 32.5367 44.5527 32.5123 44.6053 32.4983C44.658 32.4842 44.713 32.4808 44.767 32.4883C44.821 32.4957 44.873 32.5139 44.9199 32.5416C44.9668 32.5694 45.0077 32.6063 45.0402 32.6501C45.0735 32.6932 45.0979 32.7425 45.1119 32.7952C45.126 32.8479 45.1294 32.9029 45.1219 32.9569C45.1145 33.0109 45.0964 33.0628 45.0686 33.1098C45.0408 33.1567 45.004 33.1976 44.9602 33.2301C43.8017 34.0966 42.4061 34.5886 40.9602 34.6401C41.5481 35.392 42.2539 36.0438 43.0502 36.5701C43.7209 37.0237 44.4468 37.39 45.2102 37.6601C45.8773 37.2419 46.4439 36.682 46.8701 36.0201C46.894 35.9114 46.9602 35.8166 47.054 35.7566C47.1477 35.6966 47.2614 35.6763 47.3701 35.7001C47.4756 35.7284 47.5664 35.7959 47.624 35.8887C47.6816 35.9816 47.7017 36.0929 47.6802 36.2001C47.3628 36.9006 46.8574 37.4994 46.2202 37.9301C47.3344 38.1665 48.4937 38.0655 49.5502 37.6401C49.5502 31.7701 54.0402 30.5601 58.0302 29.4901C60.0302 28.9701 61.8302 28.4901 63.0302 27.4901C67.2701 23.7001 66.8501 20.3801 66.5101 17.7101C66.2801 15.8901 66.0602 14.1701 67.6002 12.9701C67.0474 12.6489 66.5672 12.2164 66.1902 11.7001C65.8733 11.2084 65.4443 10.7989 64.9385 10.5051C64.4326 10.2113 63.8643 10.0417 63.2802 10.0101C61.0002 9.93006 59.3602 12.1101 57.6002 15.4001C57.5639 15.4731 57.5062 15.5334 57.4347 15.5727C57.3632 15.612 57.2813 15.6286 57.2002 15.6201C57.1207 15.6097 57.0453 15.5783 56.9821 15.529C56.9188 15.4798 56.8698 15.4146 56.8402 15.3401C54.4902 8.34006 50.2902 8.21006 44.4802 8.01006C40.8502 7.88006 36.7602 7.74006 32.4102 5.81006C32.6932 7.75336 33.1108 9.67465 33.6602 11.5601" fill="white"/>
<path d="M44.389 8.00002C50.199 8.20002 54.389 8.35002 56.749 15.33C56.7786 15.4045 56.8277 15.4698 56.891 15.519C56.9543 15.5682 57.0296 15.5997 57.1091 15.61C57.1903 15.6185 57.272 15.602 57.3435 15.5627C57.415 15.5234 57.4727 15.4631 57.509 15.39C59.269 12.1 60.9091 9.92002 63.1891 10C63.7732 10.0316 64.3414 10.2013 64.8473 10.495C65.3531 10.7888 65.7822 11.1983 66.0991 11.69C66.4762 12.2064 66.9562 12.6388 67.509 12.96C65.969 14.16 66.189 15.88 66.419 17.7C66.759 20.37 67.1791 23.7 62.9391 27.48C61.7791 28.48 59.9391 28.95 57.9391 29.48C53.9391 30.55 49.4291 31.76 49.4591 37.63C48.3723 38.0518 47.1826 38.132 46.049 37.86C46.6863 37.4294 47.1916 36.8306 47.509 36.13C47.5305 36.0229 47.5106 35.9116 47.453 35.8187C47.3954 35.7258 47.3046 35.6584 47.1991 35.63C47.0903 35.6062 46.9765 35.6265 46.8828 35.6865C46.789 35.7465 46.723 35.8413 46.6991 35.95C46.2729 36.612 45.7061 37.1719 45.039 37.59C44.2756 37.3199 43.5498 36.9536 42.879 36.5C42.0827 35.9737 41.3769 35.322 40.789 34.57C42.2349 34.5185 43.6305 34.0266 44.789 33.16C44.8328 33.1275 44.8696 33.0866 44.8974 33.0397C44.9252 32.9928 44.9433 32.9408 44.9508 32.8868C44.9582 32.8328 44.9549 32.7779 44.9409 32.7252C44.9268 32.6725 44.9023 32.6231 44.869 32.58C44.8365 32.5362 44.7957 32.4994 44.7487 32.4716C44.7018 32.4438 44.6498 32.4257 44.5958 32.4182C44.5418 32.4108 44.4869 32.4142 44.4342 32.4282C44.3815 32.4423 44.3322 32.4667 44.289 32.5C43.5463 33.0538 42.6884 33.4331 41.779 33.61C41.2554 33.711 40.7219 33.7512 40.1891 33.73C39.6369 32.7831 39.347 31.7062 39.3491 30.61L40.119 30.55C44.279 30.24 47.869 29.97 50.619 26.76C50.6625 26.6912 50.6858 26.6114 50.6858 26.53C50.6858 26.4486 50.6625 26.3688 50.619 26.3C50.5848 26.2268 50.5293 26.1656 50.4597 26.1245C50.3901 26.0835 50.3097 26.0645 50.2291 26.07C48.3334 26.2022 46.4303 25.9555 44.6309 25.3443C42.8316 24.733 41.172 23.7695 39.749 22.51C40.9607 22.3613 42.1416 22.0239 43.249 21.51C43.2977 21.4865 43.3413 21.4536 43.3773 21.4132C43.4132 21.3728 43.4408 21.3257 43.4585 21.2746C43.4761 21.2234 43.4835 21.1693 43.4802 21.1153C43.4768 21.0614 43.4629 21.0086 43.4391 20.96C43.4165 20.9104 43.3842 20.8658 43.3442 20.8288C43.3042 20.7919 43.2572 20.7632 43.206 20.7446C43.1548 20.726 43.1004 20.7178 43.046 20.7204C42.9916 20.723 42.9382 20.7365 42.889 20.76C41.6397 21.3589 40.2743 21.6763 38.889 21.69C38.5017 21.292 38.1346 20.8748 37.789 20.44C37.2145 19.7131 36.69 18.948 36.2191 18.15C36.6324 18.19 37.0223 18.21 37.389 18.21C38.3689 18.2311 39.3445 18.0753 40.269 17.75C40.32 17.7302 40.3666 17.7004 40.4059 17.6624C40.4451 17.6243 40.4765 17.5788 40.4979 17.5285C40.5193 17.4782 40.5304 17.4241 40.5306 17.3694C40.5308 17.3147 40.52 17.2605 40.499 17.21C40.4568 17.1088 40.3768 17.028 40.2758 16.985C40.1749 16.9421 40.0613 16.9402 39.9591 16.98C38.5868 17.4238 37.1239 17.5099 35.7091 17.23C34.9048 15.7256 34.2355 14.1527 33.7091 12.53C35.2337 13.0038 36.8137 13.2761 38.409 13.34C38.4637 13.3413 38.5182 13.3317 38.5691 13.3117C38.62 13.2917 38.6663 13.2617 38.7054 13.2235C38.7445 13.1853 38.7756 13.1397 38.7968 13.0893C38.8181 13.0389 38.8291 12.9847 38.8291 12.93C38.8291 12.8186 38.7848 12.7118 38.706 12.633C38.6273 12.5543 38.5204 12.51 38.409 12.51C36.7072 12.4265 35.0249 12.1103 33.409 11.57C32.8597 9.6846 32.442 7.76331 32.159 5.82001C36.509 7.75001 40.5991 7.89002 44.2291 8.02002L44.389 8.00002ZM32.6891 12.08C33.5937 15.2905 35.093 18.3027 37.1091 20.96C38.5259 22.8336 40.3598 24.3514 42.4653 25.3928C44.5708 26.4343 46.89 26.9709 49.239 26.96C46.799 29.25 43.619 29.49 39.989 29.76L38.8491 29.85C38.7513 29.859 38.6597 29.9019 38.5903 29.9713C38.5209 30.0407 38.478 30.1322 38.4691 30.23C38.4225 31.6316 38.7521 33.0202 39.4239 34.2512C40.0957 35.4822 41.0851 36.5108 42.289 37.23C43.7609 38.2522 45.4978 38.8254 47.289 38.88C48.1879 38.8916 49.0774 38.6966 49.889 38.31C49.9623 38.2759 50.0235 38.2203 50.0645 38.1507C50.1056 38.0811 50.1245 38.0006 50.119 37.92C49.969 32.47 54.039 31.38 57.989 30.33C59.8828 29.9783 61.6837 29.2396 63.279 28.16C63.7606 27.7254 64.218 27.2647 64.649 26.78C67.749 23.23 67.339 20.05 67.029 17.64C66.759 15.53 66.5891 14.13 68.5891 13.21C68.6755 13.1693 68.7455 13.1003 68.7874 13.0145C68.8294 12.9286 68.8409 12.8311 68.8199 12.7378C68.7989 12.6446 68.7468 12.5613 68.6721 12.5017C68.5974 12.4421 68.5046 12.4098 68.409 12.41C67.559 12.41 67.099 11.89 66.529 11.2C66.1393 10.6148 65.618 10.1291 65.0067 9.78181C64.3954 9.4345 63.7112 9.23523 63.009 9.20001C60.509 9.11001 58.769 11.11 57.009 14.2C54.389 7.53001 49.6591 7.37001 44.2091 7.20001C40.4691 7.07001 36.209 6.92001 31.769 4.76001C31.704 4.72126 31.6297 4.70081 31.554 4.70081C31.4784 4.70081 31.4041 4.72126 31.3391 4.76001C31.2786 4.80399 31.2309 4.86334 31.201 4.9319C31.1711 5.00046 31.1601 5.07575 31.169 5.15001C31.4595 7.32624 31.9073 9.47855 32.509 11.59C32.509 11.7 32.5691 11.81 32.6091 11.92C32.5999 11.9629 32.5999 12.0072 32.6091 12.05" fill="#DEA81E"/>
<path d="M63.4201 13.78C63.5396 13.782 63.657 13.7482 63.7572 13.6831C63.8573 13.6179 63.9359 13.5243 63.9825 13.4143C64.0292 13.3042 64.0418 13.1828 64.019 13.0655C63.9962 12.9481 63.9388 12.8403 63.8543 12.7558C63.7698 12.6713 63.662 12.614 63.5446 12.5911C63.4273 12.5683 63.3059 12.581 63.1959 12.6277C63.0858 12.6743 62.9922 12.7528 62.9271 12.853C62.8619 12.9531 62.8282 13.0705 62.8302 13.19C62.8302 13.3465 62.8922 13.4965 63.0029 13.6072C63.1135 13.7178 63.2636 13.78 63.4201 13.78Z" fill="#DEA81E"/>
<path d="M42.8594 33.3201L41.8594 33.6001C42.1999 33.5347 42.5344 33.441 42.8594 33.3201Z" fill="white"/>
<path d="M28.4185 55.15L29.2885 50.5L33.0585 54.26L28.4185 55.15ZM34.6185 35.28C35.4788 38.0408 35.6488 40.9705 35.1136 43.8124C34.5784 46.6542 33.3543 49.3213 31.5485 51.58L29.7286 49.75C29.6346 49.6601 29.5183 49.5969 29.3917 49.567C29.2651 49.5371 29.1328 49.5416 29.0085 49.58C28.8832 49.616 28.7707 49.6868 28.684 49.7842C28.5973 49.8815 28.5399 50.0014 28.5185 50.13L27.5185 55.13C27.4956 55.2449 27.502 55.3637 27.5369 55.4755C27.5719 55.5873 27.6343 55.6886 27.7186 55.77C27.8509 55.9034 28.0307 55.9789 28.2186 55.98H28.3486L33.3486 54.98C33.4776 54.9598 33.5981 54.9028 33.6956 54.8159C33.7932 54.729 33.8636 54.6159 33.8985 54.49C33.9369 54.3657 33.9413 54.2335 33.9114 54.1069C33.8816 53.9803 33.8185 53.864 33.7286 53.77L32.0685 52.12C33.848 49.9151 35.0999 47.3327 35.7286 44.57C36.372 41.7174 36.3265 38.7525 35.596 35.9209C34.8656 33.0893 33.4712 30.4725 31.5281 28.287C29.5851 26.1016 27.1493 24.4105 24.4227 23.3537C21.696 22.2969 18.7569 21.9049 15.8486 22.21C14.6226 22.3347 13.4127 22.5861 12.2385 22.96C12.1866 22.9764 12.1385 23.0029 12.0969 23.0379C12.0552 23.0729 12.0209 23.1158 11.9958 23.1641C11.9707 23.2124 11.9554 23.2651 11.9508 23.3193C11.9461 23.3735 11.9522 23.4281 11.9686 23.48C11.985 23.5319 12.0114 23.58 12.0465 23.6216C12.0815 23.6633 12.1243 23.6976 12.1726 23.7227C12.2208 23.7478 12.2736 23.7631 12.3278 23.7678C12.382 23.7725 12.4366 23.7664 12.4885 23.75C13.3618 23.4772 14.2543 23.27 15.1585 23.13C19.2997 22.5158 23.5243 23.3961 27.0755 25.6133C30.6267 27.8304 33.2723 31.2396 34.5385 35.23" fill="#DEA81E"/>
<path d="M29.2902 50.5L28.4102 55.15L33.0602 54.26L29.2902 50.5Z" fill="white"/>
<path d="M7.99936 25.96L7.11936 30.61L3.34946 26.85L7.99936 25.96ZM23.4894 58.4C23.5951 58.3676 23.6839 58.2949 23.7363 58.1975C23.7887 58.1002 23.8006 57.9861 23.7694 57.88C23.7557 57.8273 23.7313 57.7779 23.6978 57.7349C23.6644 57.6919 23.6226 57.6562 23.5748 57.63C23.527 57.6038 23.4744 57.5876 23.4201 57.5824C23.3659 57.5773 23.3112 57.5832 23.2594 57.6C19.6531 58.6335 15.8109 58.4863 12.2943 57.1799C8.77767 55.8736 5.77108 53.4765 3.7142 50.3393C1.65733 47.202 0.658035 43.489 0.862276 39.7432C1.06652 35.9973 2.46367 32.415 4.84946 29.52L6.68942 31.36C6.82406 31.4899 7.0024 31.5648 7.18942 31.57C7.26245 31.5795 7.33637 31.5795 7.4094 31.57C7.53302 31.5309 7.64383 31.4592 7.73007 31.3624C7.81632 31.2656 7.8748 31.1473 7.89939 31.02L8.89939 26.02C8.92087 25.905 8.9141 25.7865 8.87949 25.6747C8.84488 25.563 8.7835 25.4613 8.70078 25.3786C8.61805 25.2959 8.51639 25.2346 8.40463 25.2C8.29288 25.1654 8.17442 25.1585 8.05942 25.18L3.05942 26.18C2.93094 26.2054 2.81185 26.2654 2.71494 26.3535C2.61802 26.4416 2.5469 26.5545 2.50937 26.68C2.46971 26.8033 2.46558 26.9353 2.49741 27.0608C2.52924 27.1864 2.5958 27.3005 2.68942 27.39L4.33945 29.04C2.18299 31.6347 0.780942 34.7721 0.286593 38.1096C-0.207757 41.447 0.224535 44.8561 1.53623 47.9645C2.84792 51.0729 4.98864 53.7612 7.72446 55.7355C10.4603 57.7099 13.686 58.8945 17.0494 59.16C17.5294 59.16 18.0494 59.22 18.4994 59.22C20.2141 59.2192 21.9204 58.9802 23.5694 58.51" fill="#DEA81E"/>
<path d="M7.11961 30.62L7.99961 25.97L3.34961 26.85L7.11961 30.62Z" fill="white"/>
<path d="M10.8307 40.22C10.8829 38.704 11.1731 37.2057 11.6907 35.78C10.4831 35.4636 9.29726 35.0695 8.14062 34.6C7.1111 36.299 6.53607 38.2344 6.4707 40.22H10.8307Z" fill="white"/>
<path d="M16.0599 52.1199C14.4997 50.5314 13.2064 48.7011 12.23 46.7C11.1069 46.9963 10.0017 47.3569 8.91992 47.78C10.6821 50.059 13.2255 51.605 16.0599 52.1199Z" fill="white"/>
<path d="M8.60938 33.89C9.70884 34.3288 10.8343 34.6995 11.9794 35C12.8952 32.8583 14.1815 30.8948 15.7793 29.2C12.8803 29.7958 10.3169 31.4726 8.60938 33.89Z" fill="white"/>
<path d="M11.8906 45.9299C11.2437 44.3812 10.8845 42.7275 10.8307 41.0499H6.4707C6.55402 43.1901 7.22518 45.2661 8.41064 47.0499C9.54552 46.5916 10.7077 46.2042 11.8906 45.8899" fill="white"/>
<path d="M17.7206 45.9299C16.152 45.9624 14.5907 46.1534 13.0605 46.4999C14.1403 48.6375 15.5854 50.57 17.3306 52.2099V52.2799H17.6705L17.7206 45.9299Z" fill="white"/>
<path d="M18.5488 40.22H24.5488C24.4655 38.779 24.1619 37.3592 23.6488 36.01C21.9782 36.3923 20.2724 36.6001 18.5588 36.63L18.5488 40.22Z" fill="white"/>
<path d="M24.1191 46.73C23.1846 48.7178 21.9162 50.5307 20.3691 52.09C23.1477 51.549 25.6352 50.0174 27.3691 47.78C26.313 47.3838 25.2345 47.0499 24.1392 46.78" fill="white"/>
<path d="M19.0588 52.2099C20.8119 50.5918 22.2495 48.6625 23.2988 46.5199C21.7395 46.1631 20.148 45.9654 18.5488 45.9299V52.2899H19.0088V52.2299" fill="white"/>
<path d="M18.5488 35.81C20.1576 35.778 21.7591 35.5837 23.3289 35.23C22.3195 32.9078 20.8849 30.7948 19.0989 29H18.5488V35.81Z" fill="white"/>
<path d="M25.3806 40.22H29.7906C29.7253 38.2344 29.1501 36.299 28.1206 34.6C26.9322 35.084 25.7129 35.4882 24.4707 35.81C24.9844 37.2286 25.2908 38.7139 25.3806 40.22Z" fill="white"/>
<path d="M24.5488 41.0499H18.5488V45.0999C20.2608 45.1309 21.9642 45.3488 23.6288 45.7499C24.2314 44.2556 24.5469 42.6611 24.5588 41.0499" fill="white"/>
<path d="M17.7202 40.22V36.64C15.9659 36.6095 14.2196 36.395 12.5101 36C12.0072 37.3568 11.7205 38.7842 11.6602 40.23L17.7202 40.22Z" fill="white"/>
<path d="M17.7203 35.81V28.97H17.1603C15.3137 30.7296 13.838 32.8411 12.8203 35.18C14.4289 35.5463 16.0708 35.7474 17.7203 35.78" fill="white"/>
<path d="M25.3892 41.0499C25.38 42.7272 25.0614 44.3883 24.4492 45.9499C25.6042 46.2622 26.7395 46.6428 27.8492 47.0899C29.0347 45.3061 29.7059 43.2301 29.7892 41.0899L25.3892 41.0499Z" fill="white"/>
<path d="M17.7202 41.0499H11.6602C11.7058 42.6578 12.0447 44.2438 12.6602 45.7299C14.3004 45.3465 15.9761 45.1353 17.6602 45.0999L17.7202 41.0499Z" fill="white"/>
<path d="M20.4297 29.1899C21.9889 30.9158 23.2495 32.8895 24.1597 35.0299C25.3477 34.7303 26.5138 34.3494 27.6497 33.8899C25.9277 31.4627 23.3462 29.7822 20.4297 29.1899Z" fill="white"/>
<path d="M12.2299 46.7C13.2063 48.7011 14.4996 50.5314 16.0599 52.12C13.2235 51.6028 10.6776 50.0575 8.90984 47.78C9.99708 47.3628 11.1053 47.0023 12.2299 46.7ZM11.9799 35C10.8348 34.6995 9.70938 34.3288 8.60991 33.89C10.3174 31.4727 12.8809 29.7958 15.7798 29.2C14.182 30.8949 12.8957 32.8583 11.9799 35ZM24.1598 35C23.2496 32.8596 21.989 30.8859 20.4299 29.16C23.3463 29.7523 25.9278 31.4328 27.6498 33.86C26.514 34.3194 25.3479 34.7003 24.1598 35ZM20.3698 52.06C21.9169 50.5007 23.1853 48.6878 24.1198 46.7C25.2151 46.9699 26.2937 47.3038 27.3499 47.7C25.6159 49.9374 23.1284 51.469 20.3499 52.01L20.3698 52.06ZM18.5298 45.85C20.129 45.8854 21.7205 46.0831 23.2798 46.44C22.2305 48.5825 20.7929 50.5118 19.0398 52.13V52.19H18.5799L18.5298 45.85ZM11.6398 40.97H17.6899V45.02C16.0058 45.0547 14.3299 45.2659 12.6899 45.65C12.0744 44.1639 11.7355 42.5778 11.6899 40.97H11.6398ZM17.7398 36.55V40.14H11.6899C11.7453 38.6936 12.0322 37.2655 12.5398 35.91C14.2461 36.3043 15.9889 36.5188 17.7398 36.55ZM24.5699 40.14H18.5699V36.64C20.2834 36.61 21.9892 36.4022 23.6598 36.02C24.1682 37.3705 24.4716 38.7896 24.5599 40.23L24.5699 40.14ZM18.5599 41.06H24.5599C24.548 42.6712 24.2324 44.2657 23.6298 45.76C21.9652 45.3589 20.2618 45.1409 18.5499 45.11L18.5599 41.06ZM27.8599 47.06C26.7502 46.6129 25.6148 46.2322 24.4599 45.92C25.072 44.3584 25.3907 42.6972 25.3998 41.02H29.7999C29.7165 43.1602 29.0454 45.2361 27.8599 47.02V47.06ZM29.7999 40.15H25.3898C25.3016 38.6427 24.9916 37.1568 24.4699 35.74C25.7158 35.4198 26.9385 35.0155 28.1298 34.53C29.1593 36.229 29.7345 38.1644 29.7999 40.15ZM19.1099 28.93C20.8959 30.7248 22.3306 32.8378 23.3399 35.16C21.7701 35.5137 20.1687 35.708 18.5599 35.74V28.9H19.1099V28.93ZM17.1698 28.9H17.7199V35.74C16.0737 35.7068 14.4352 35.5057 12.8299 35.14C13.8476 32.8011 15.3232 30.6896 17.1698 28.93V28.9ZM8.16985 34.53C9.32648 34.9995 10.5123 35.3936 11.7199 35.71C11.2023 37.1358 10.9121 38.634 10.8599 40.15H6.4998C6.56517 38.1644 7.14032 36.229 8.16985 34.53ZM6.4998 40.98H10.8599C10.9138 42.6575 11.2729 44.3112 11.9198 45.86C10.737 46.1742 9.57474 46.5617 8.43987 47.02C7.2544 45.2361 6.58312 43.1602 6.4998 41.02V40.98ZM17.4098 52.25V52.18C15.6626 50.5394 14.2143 48.6073 13.1298 46.47C14.6602 46.1246 16.2214 45.9336 17.7898 45.9V52.26H17.4599L17.4098 52.25ZM28.3898 47.86C28.4187 47.8309 28.4424 47.797 28.4599 47.76C29.7696 45.8864 30.5404 43.6896 30.6885 41.4085C30.8367 39.1274 30.3565 36.8493 29.3002 34.8221C28.2439 32.7949 26.6519 31.0961 24.6974 29.9106C22.7429 28.7251 20.5008 28.0983 18.2149 28.0983C15.929 28.0983 13.6867 28.7251 11.7322 29.9106C9.77773 31.0961 8.18576 32.7949 7.12944 34.8221C6.07313 36.8493 5.59297 39.1274 5.74114 41.4085C5.88931 43.6896 6.66021 45.8864 7.9699 47.76L8.02983 47.85C9.17101 49.4446 10.667 50.7522 12.3998 51.67C15.0775 53.0769 18.1746 53.4651 21.1167 52.7627C24.0589 52.0603 26.6465 50.3148 28.3998 47.85" fill="#DEA81E"/>
</svg>
