<svg fill="none" height="15" viewBox="0 0 11 15" width="11" xmlns="http://www.w3.org/2000/svg"><path d="m3.74206 14.9682c.07684.0317.1608.0399.24204.0237s.15622-.0561.21613-.115c.05993-.0591.10262-.1345.12289-.2174.02027-.083.01736-.1701-.00825-.2515-.23597-.8366-.30914-1.7131-.21515-2.579.06531-.6902.28289-1.3559.63583-1.94607.35295-.59014.83188-1.08911 1.40044-1.4587-.03206.18311-.05279.36813-.06223.55396-.03819.88802.20097 2.16201 1.50958 3.19311.89251.7324.41409 2.2076.40203 2.2305-.029.0854-.03219.178-.00923.2654.02297.0874.07114.1656.138.2242.06694.059.1496.0958.23714.1054.08754.0097.17575-.0083.25323-.0514.68986-.4013 1.25903-.9915 1.64449-1.7055.5918-1.0587.8439-2.2836.7204-3.49923-.1235-1.21567-.6164-2.35986-1.4081-3.26886-1.27243-1.48972-3.27042-4.22224-2.35781-5.77213.05666-.08625.08238-.190183.07283-.293925-.00955-.103741-.05385-.200811-.12524-.274498-.07139-.0736867-.16529-.1193847-.2658-.12924536-.10051-.00986064-.20128.01673736-.28484.07522226-2.79612 1.8154661-3.78512 4.0956761-4.12081 5.6870561-.08821.42152-.14401.84958-.16686 1.28018-.18775-.55131-.27423-1.13391-.2552-1.71796.00238-.1008-.02814-.1995-.08657-.2803s-.14146-.139-.23576-.16531-.19453-.01918-.28444.02024c-.08991.03941-.16429.10883-.21142.19714-1.24428847 2.33418-1.553915 4.44012-.918706 6.25762.896526 2.5624 3.318866 3.5708 3.421386 3.6123zm5.10371-2.4524c-.13873-.4155-.39078-.7807-.72574-1.052-1.93578-1.5125-.9005-3.65164-.85628-3.73463.04221-.0826.05843-.17669.04653-.26926-.0119-.09256-.05127-.17902-.11288-.2474-.0616-.06837-.14227-.1153-.23085-.13426-.08858-.01895-.18077-.00899-.26364.02847-2.56093 1.15775-3.29871 3.17448-3.46555 4.66008-.06785.6436-.0543 1.2936.04024 1.9337-.96574-.6162-1.71127-1.5394-2.1246-2.6309-.422129-1.20753-.345916-2.58727.22497-4.11849.19363.8242.61221 1.57378 1.20609 2.15987.07049.06084.15784.09716.2495.10376.09167.00661.18309-.01682.26109-.06696.07799-.05014.13866-.12444.17333-.21227.03468-.08783.04146-.1847.01963-.27683-.16193-.90276-.1406-1.83037.06243-2.72424.30519-1.38997.99265-2.65942 1.97992-3.65583.24518-.25448.50498-.49353.77796-.71582-.03016 1.44199.90859 3.2886 2.81421 5.51488.6724.76543 1.09287 1.73084 1.20117 2.758.1083 1.02713-.101 2.06333-.59812 2.96023-.15132.2545-.32853.4917-.52865.7075.00514-.3357-.04586-.6698-.15076-.9876z" fill="#3153ce"/></svg>