<svg fill="none" height="70" viewBox="0 0 78 70" width="78" xmlns="http://www.w3.org/2000/svg"><path d="m73.9036 35.0044c.0006-5.2236-1.1654-10.3811-3.4126-15.0943-2.2471-4.7132-5.5185-8.8625-9.5741-12.14364-4.0556-3.28115-8.7926-5.61092-13.8636-6.81845-5.071-1.207528-10.3474-1.262188-15.4423-.159973-5.0948 1.102213-9.8789 3.333353-14.0013 6.529793-4.1224 3.19647-7.4786 7.27707-9.82255 11.94267-2.34391 4.6657-3.61606 9.7979-3.72314 15.0204s.95362 10.4028 3.10431 15.161h63.62358c2.0542-4.5345 3.1152-9.4575 3.1117-14.4375z" fill="#c7f0ff"/><path d="m7.16797 49.4417c2.77004 6.1284 7.24383 11.3268 12.88573 14.9729 5.642 3.646 12.2129 5.5851 18.926 5.5851 6.7132 0 13.2841-1.9391 18.9261-5.5851 5.6419-3.6461 10.1157-8.8445 12.8857-14.9729z" fill="#ccf7ad"/><path d="m4.92969 49.4417h68.10071" stroke="#45413c" stroke-linecap="round" stroke-linejoin="round"/><path d="m1 49.4417h2.18272" stroke="#45413c" stroke-linecap="round" stroke-linejoin="round"/><path d="m74.7754 49.4417h2.1827" stroke="#45413c" stroke-linecap="round" stroke-linejoin="round"/><path d="m58.7704 55.2939h-13.2509v-38.5105l12.0294 6.0288c.3671.1835.6759.4659.8918.8155s.3304.7526.3305 1.1637z" fill="#e8f4fa"/><path d="m49.3828 43.0107h5.3005v5.3122h-5.3005z" fill="#00b8f0"/><path d="m49.6386 48.0665c-.1637-.1641-.2557-.3866-.2558-.6186v-3.5622c0-.232.092-.4546.2557-.6187.1638-.1641.3858-.2563.6174-.2563h3.5535c.2315.0001.4535.0923.6172.2564z" fill="#4acfff"/><path d="m49.3828 43.0107h5.3005v5.3122h-5.3005z" stroke="#45413c" stroke-linecap="round" stroke-linejoin="round"/><path d="m45.5184 55.294h-19.8758v-45.15c.0002-.3521.1399-.68972.3885-.93862.2485-.24891.5855-.38873.9368-.38873h17.2251c.1741-.00011.3464.03414.5072.10079.1608.06666.3069.16441.43.28768.123.12327.2207.26964.2873.43074s.1009.33378.1009.50814z" fill="#e8f4fa"/><path d="m28.293 31.3914h5.3005v5.3121h-5.3005z" fill="#00b8f0"/><path d="m28.5488 36.4471c-.0812-.0813-.1456-.1779-.1895-.2842s-.0664-.2202-.0663-.3353v-3.5612c0-.2321.092-.4547.2557-.6188s.3858-.2562.6174-.2562h3.5534c.2316 0 .4536.0922.6173.2563z" fill="#4acfff"/><path d="m28.293 31.3914h5.3005v5.3121h-5.3005z" stroke="#45413c" stroke-linecap="round" stroke-linejoin="round"/><path d="m37.5684 31.3914h5.3005v5.3121h-5.3005z" fill="#00b8f0"/><path d="m37.8242 36.4471c-.0812-.0813-.1456-.1779-.1895-.2842s-.0664-.2202-.0663-.3353v-3.5612c0-.2321.0919-.4547.2557-.6188.1637-.1641.3858-.2562.6173-.2562h3.5544c.2315 0 .4536.0922.6173.2563z" fill="#4acfff"/><path d="m37.5684 31.3914h5.3005v5.3121h-5.3005z" stroke="#45413c" stroke-linecap="round" stroke-linejoin="round"/><path d="m28.293 22.0676h5.3005v5.3121h-5.3005z" fill="#00b8f0"/><path d="m28.5488 27.1225c-.1638-.1641-.2558-.3866-.2558-.6186v-3.5613c0-.232.092-.4546.2557-.6187s.3858-.2563.6174-.2563h3.5534c.2316.0001.4536.0923.6173.2564z" fill="#4acfff"/><path d="m28.293 22.0676h5.3005v5.3121h-5.3005z" stroke="#45413c" stroke-linecap="round" stroke-linejoin="round"/><path d="m37.5684 22.0676h5.3005v5.3121h-5.3005z" fill="#00b8f0"/><path d="m37.8242 27.1225c-.1638-.1641-.2558-.3866-.2558-.6186v-3.5613c0-.232.0919-.4546.2557-.6187.1637-.1641.3858-.2563.6173-.2563h3.5544c.2315.0001.4536.0923.6173.2564z" fill="#4acfff"/><path d="m37.5684 22.0676h5.3005v5.3121h-5.3005z" stroke="#45413c" stroke-linecap="round" stroke-linejoin="round"/><path d="m28.293 12.8003h5.3005v5.3121h-5.3005z" fill="#00b8f0"/><path d="m28.5488 17.8542c-.1638-.1641-.2558-.3866-.2558-.6186v-3.5613c0-.232.092-.4546.2557-.6187s.3858-.2563.6174-.2563h3.5534c.2314-.0002.4534.0917.6173.2555z" fill="#4acfff"/><path d="m28.293 12.8003h5.3005v5.3121h-5.3005z" stroke="#45413c" stroke-linecap="round" stroke-linejoin="round"/><path d="m37.5684 12.8003h5.3005v5.3121h-5.3005z" fill="#00b8f0"/><path d="m37.8242 17.8542c-.1638-.1641-.2558-.3866-.2558-.6186v-3.5613c0-.232.0919-.4546.2557-.6187.1637-.1641.3858-.2563.6173-.2563h3.5544c.2314-.0002.4534.0917.6173.2555z" fill="#4acfff"/><path d="m37.5684 12.8003h5.3005v5.3121h-5.3005z" stroke="#45413c" stroke-linecap="round" stroke-linejoin="round"/><path d="m28.293 40.6865h5.3005v5.3121h-5.3005z" fill="#00b8f0"/><path d="m28.5488 45.7423c-.1638-.1641-.2558-.3866-.2558-.6187v-3.5621c0-.232.092-.4546.2557-.6187s.3858-.2563.6174-.2563h3.5534c.2316.0001.4536.0923.6173.2564z" fill="#4acfff"/><path d="m28.293 40.6865h5.3005v5.3121h-5.3005z" stroke="#45413c" stroke-linecap="round" stroke-linejoin="round"/><path d="m37.5684 40.6865h5.3005v5.3121h-5.3005z" fill="#00b8f0"/><path d="m37.8242 45.7423c-.1638-.1641-.2558-.3866-.2558-.6187v-3.5621c0-.232.0919-.4546.2557-.6187.1637-.1641.3858-.2563.6173-.2563h3.5544c.2315.0001.4536.0923.6173.2564z" fill="#4acfff"/><path d="m37.5684 40.6865h5.3005v5.3121h-5.3005z" stroke="#45413c" stroke-linecap="round" stroke-linejoin="round"/><path d="m48.1693 18.1117-2.6498-1.3283v38.5105h2.6498z" fill="#daedf7"/><path d="m58.7704 55.2939h-13.2509v-38.5105l12.0294 6.0288c.3671.1835.6759.4659.8918.8155s.3304.7526.3305 1.1637z" stroke="#45413c" stroke-linecap="round" stroke-linejoin="round"/><path d="m56.3398 22.2064v-6.0865" stroke="#45413c" stroke-linecap="round" stroke-linejoin="round"/><path d="m44.193 8.81665h-17.2251c-.3513 0-.6883.13982-.9368.38873-.2486.2489-.3883.58652-.3885.93862v2.6565c0-.3522.1396-.6901.3882-.9392.2485-.2491.5856-.389.9371-.389h17.2251c.3515 0 .6887.1399.9372.389.2486.2491.3882.587.3882.9392v-2.6565c-.0002-.3521-.14-.68972-.3885-.93862-.2485-.24891-.5855-.38873-.9369-.38873z" fill="#fff"/><g stroke="#45413c" stroke-linecap="round" stroke-linejoin="round"><path d="m45.5184 55.294h-19.8758v-45.15c.0002-.3521.1399-.68972.3885-.93862.2485-.24891.5855-.38873.9368-.38873h17.2251c.1741-.00011.3464.03414.5072.10079.1608.06666.3069.16441.43.28768.123.12327.2207.26964.2873.43074s.1009.33378.1009.50814z"/><path d="m28.1836 8.81627v-5.31212"/><path d="m30.9434 8.81672v-3.32063"/><path d="m29.618 55.2938h-11.9246v-32.1483c0-.2785.1103-.5456.3068-.7425s.463-.3075.7409-.3075h9.8292c.1376 0 .2738.0271.4009.0799s.2426.1301.3399.2276.1745.2132.2271.3406c.0527.1274.0798.264.0798.4019z" fill="#e8f4fa"/></g><path d="m17.6934 25.9692h11.9254v3.8728h-11.9254z" fill="#00b8f0"/><path d="m17.6934 25.9692v3.8728h3.5194l3.9751-3.8728z" fill="#4acfff"/><path d="m17.6934 25.9692h11.9254v3.8728h-11.9254z" stroke="#45413c" stroke-linecap="round" stroke-linejoin="round"/><path d="m17.6934 34.0471h11.9254v3.9839h-11.9254z" fill="#00b8f0"/><path d="m17.6934 34.0471v3.9839h3.5194l3.9751-3.9839z" fill="#4acfff"/><path d="m17.6934 34.0471h11.9254v3.9839h-11.9254z" stroke="#45413c" stroke-linecap="round" stroke-linejoin="round"/><path d="m17.6934 42.0149h11.9254v3.9839h-11.9254z" fill="#00b8f0"/><path d="m17.6934 42.0149v3.9839h3.5194l3.9751-3.9839z" fill="#4acfff"/><path d="m17.6934 42.0149h11.9254v3.9839h-11.9254z" stroke="#45413c" stroke-linecap="round" stroke-linejoin="round"/><path d="m32.5547 57.2146h1.1036" stroke="#45413c" stroke-linecap="round" stroke-linejoin="round"/><path d="m49.3828 24.8623h5.3005v5.3121h-5.3005z" fill="#00b8f0"/><path d="m49.6386 29.9181c-.0812-.0814-.1455-.178-.1894-.2843s-.0665-.2202-.0664-.3352v-3.5613c0-.2321.092-.4546.2557-.6187.1638-.1641.3858-.2563.6174-.2563h3.5535c.2315.0001.4535.0923.6172.2564z" fill="#4acfff"/><path d="m49.3828 24.8623h5.3005v5.3121h-5.3005z" stroke="#45413c" stroke-linecap="round" stroke-linejoin="round"/><path d="m49.3828 33.936h5.3005v5.3122h-5.3005z" fill="#00b8f0"/><path d="m49.6386 38.9918c-.1637-.1641-.2557-.3866-.2558-.6186v-3.5622c0-.232.092-.4546.2557-.6187.1638-.1641.3858-.2563.6174-.2563h3.5535c.2315.0001.4535.0923.6172.2564z" fill="#4acfff"/><path d="m49.3828 33.936h5.3005v5.3122h-5.3005z" stroke="#45413c" stroke-linecap="round" stroke-linejoin="round"/><path d="m40.5589 43.9346c-.4129-4.1335-.9604-13.0025 2.484-13.0025.659 0 1.291.2624 1.757.7294s.7278 1.1004.7278 1.7609v.8295c0 6.0865 2.6341 12.4495 7.7294 12.4495l.0044 12.726h-.6514c-3.1841 0-4.6919 2.2137-10.3949 2.2137h-9.6616c-.2937.0059-.5857-.0471-.8587-.1557-.2731-.1086-.5218-.2706-.7316-.4768-.2097-.2061-.3764-.452-.4902-.7235-.1137-.2714-.1723-.5629-.1723-.8573s.0586-.5859.1723-.8573c.1138-.2715.2805-.5174.4902-.7235.2098-.2061.4585-.3682.7316-.4768.273-.1086.565-.1616.8587-.1557h-1.1045c-.5781-.0115-1.1286-.2498-1.5334-.6636s-.6316-.9702-.6316-1.5497.2268-1.1359.6316-1.5497c.4048-.4139.9553-.6521 1.5334-.6636h-1.1044c-.5781-.0116-1.1287-.2498-1.5335-.6636s-.6315-.9702-.6315-1.5497.2267-1.1359.6315-1.5498c.4048-.4138.9554-.652 1.5335-.6636h-1.1036c-.2937.0059-.5856-.047-.8587-.1556s-.5218-.2707-.7315-.4768c-.2098-.2061-.3765-.4521-.4902-.7235-.1138-.2715-.1724-.5629-.1724-.8574 0-.2944.0586-.5858.1724-.8573.1137-.2714.2804-.5174.4902-.7235.2097-.2061.4584-.3682.7315-.4768s.565-.1615.8587-.1557z" fill="#ffcebf"/><path d="m51.1144 48.9842c-5.0962 0-7.7294-6.3629-7.7294-12.4494v-.8304c-.0001-.327-.0645-.6508-.1895-.9529s-.3081-.5766-.5389-.8077c-.2308-.2312-.5048-.4145-.8063-.5396-.3015-.125-.6247-.1893-.951-.1892-.0271 0-.0489.0114-.0751.0123.42-1.3764 1.1106-2.2952 2.2142-2.2952.3266-.0004.6501.0636.9519.1886.3019.1249.5762.3083.8073.5396.2312.2313.4145.5059.5396.8083s.1895.6265.1895.9538v.8295c0 6.0865 2.6341 12.4495 7.7294 12.4495v2.2828z" fill="#ffdcd1"/><path d="m29.2402 43.9346h12.974c0 .5871-.2327 1.1502-.647 1.5653-.4142.4152-.976.6484-1.5619.6484h-12.9741c0-.5871.2328-1.1502.647-1.5653.4143-.4152.9761-.6484 1.562-.6484z" fill="#ffdcd1"/><path d="m42.7666 43.9346h-2.208" stroke="#45413c" stroke-linecap="round" stroke-linejoin="round"/><path d="m31.4492 52.7878h1.1045" stroke="#45413c" stroke-linecap="round" stroke-linejoin="round"/><path d="m30.3438 48.3613h1.1044" stroke="#45413c" stroke-linecap="round" stroke-linejoin="round"/><path d="m56.5703 44.4888h7.7294v17.1526h-7.7294z" fill="#009fd9"/><path d="m56.5703 45.3638c0-.2321.092-.4547.2557-.6187.1638-.1641.3858-.2563.6174-.2563h5.9833c.2315 0 .4536.0922.6173.2563.1638.164.2557.3866.2557.6187v1.8908h-7.7294z" fill="#00b8f0"/><path d="m56.5703 44.4888h7.7294v17.1526h-7.7294z" stroke="#45413c" stroke-linecap="round" stroke-linejoin="round"/><path d="m56.5703 60.5342h-2.4394c-.2316 0-.4536-.0922-.6174-.2563-.1637-.1641-.2557-.3867-.2557-.6187v-13.1924c0-.2321.092-.4546.2557-.6187.1638-.1641.3858-.2563.6174-.2563h2.4394z" fill="#fff" stroke="#45413c" stroke-linecap="round" stroke-linejoin="round"/><path d="m40.5589 43.9346c-.4129-4.1335-.9604-13.0025 2.484-13.0025.659 0 1.291.2624 1.757.7294s.7278 1.1004.7278 1.7609v.8295c0 6.0865 2.6341 12.4495 7.7294 12.4495l.0044 12.726h-.6514c-3.1841 0-4.6919 2.2137-10.3949 2.2137h-9.6616c-.2937.0059-.5857-.0471-.8587-.1557-.2731-.1086-.5218-.2706-.7316-.4768-.2097-.2061-.3764-.452-.4902-.7235-.1137-.2714-.1723-.5629-.1723-.8573s.0586-.5859.1723-.8573c.1138-.2715.2805-.5174.4902-.7235.2098-.2061.4585-.3682.7316-.4768.273-.1086.565-.1616.8587-.1557h-1.1045c-.5781-.0115-1.1286-.2498-1.5334-.6636s-.6316-.9702-.6316-1.5497.2268-1.1359.6316-1.5497c.4048-.4139.9553-.6521 1.5334-.6636h-1.1044c-.5781-.0116-1.1287-.2498-1.5335-.6636s-.6315-.9702-.6315-1.5497.2267-1.1359.6315-1.5498c.4048-.4138.9554-.652 1.5335-.6636h-1.1036c-.2937.0059-.5856-.047-.8587-.1556s-.5218-.2707-.7315-.4768c-.2098-.2061-.3765-.4521-.4902-.7235-.1138-.2715-.1724-.5629-.1724-.8574 0-.2944.0586-.5858.1724-.8573.1137-.2714.2804-.5174.4902-.7235.2097-.2061.4584-.3682.7315-.4768s.565-.1615.8587-.1557z" stroke="#45413c" stroke-linecap="round" stroke-linejoin="round"/></svg>