<svg fill="none" height="60" viewBox="0 0 75 60" width="75" xmlns="http://www.w3.org/2000/svg" xmlns:xlink="http://www.w3.org/1999/xlink"><clipPath id="a"><path d="m0 0h75v60h-75z"/></clipPath><g clip-path="url(#a)"><path d="m29.8114 9.44861-15.9818 37.04289c-.4839 1.1186-.6697 2.3459-.5389 3.5598.1307 1.2138.5735 2.3718 1.2841 3.3587.7106.9868 1.6644 1.768 2.7662 2.2657 1.1018.4978 2.3133.6947 3.5137.5712 11.1082-1.1367 27.7439-2.8749 39.2801-4.0778 1.3023-.1341 2.5456-.6179 3.6012-1.4014 1.0556-.7836 1.8851-1.8383 2.4027-3.0551s.7044-2.5515.5412-3.8659-.6705-2.5608-1.4695-3.6102l-24.4928-32.14716c-.6751-.89225-1.569-1.59045-2.5929-2.02537-1.024-.43492-2.1425-.59146-3.2447-.45409-1.1021.13736-2.1497.56387-3.0388 1.23721-.8891.67335-1.5888 1.57016-2.0298 2.60152z" fill="#efc73f"/><path d="m30.6331 11.9327c.0257-.1261.0698-.2477.1307-.3608.0535-.1143.113-.2647.2021-.427l.3626-.5594c.1426-.1985.3387-.403.5408-.63752.2443-.23515.5067-.45033.7845-.64354.6944-.49451 1.4913-.82162 2.3299-.9563.8287-.15198 1.6802-.11934 2.4952.09568.815.21501 1.5739.60722 2.2238 1.14931l.3685.31876c.113.11431.2199.24061.3269.36691.2248.2438.4352.5009.63.7698l5.5215 7.1331 14.3117 18.6448 2.0386 2.6644c.7433.9788 1.2189 2.1383 1.3789 3.3621.1284.9528.0653 1.922-.1856 2.8495s-.6844 1.7942-1.2744 2.548c-.59.7537-1.3245 1.3792-2.1593 1.8386-.8347.4595-1.7526.7436-2.6986.8352l-3.6492.3789-7.459.7819-14.704 1.5156-6.9954.7158-1.7058.1744-.844.0842-.9034.0301c-1.1955-.0364-2.3578-.4069-3.358-1.0706-.9583-.6344-1.7403-1.5062-2.2719-2.5325-.5315-1.0264-.795-2.1732-.7652-3.3316.0297-.2827.0297-.5653.0773-.836.0475-.2706.1129-.5473.1842-.8119l.2734-.7699c.0951-.2466.2021-.4751.3031-.7097.3963-.9302.7925-1.8484 1.1887-2.7546l4.3981-10.0441c2.6924-6.1347 4.8855-11.0966 6.4189-14.5128.7786-1.6961 1.3789-3.0073 1.7831-3.9275.1887-.4672.4153-.9178.6775-1.3472-.1264.4882-.2975.9634-.5111 1.4194-.3745.9262-.9213 2.2735-1.6285 3.9996-1.4324 3.4643-3.5661 8.4623-6.1515 14.6331-1.3135 3.0854-2.7458 6.4655-4.2911 10.0923l-1.1887 2.7606c-.101.2345-.208.4751-.2972.7037l-.2377.6856c-.0594.2346-.101.4751-.1545.7157s-.0357.4812-.0654.7278c-.0179 1.0128.2193 2.0136.6893 2.908s1.1573 1.653 1.9971 2.2042c.8734.5705 1.885.8868 2.9242.9142h.7845l.844-.0842 1.7057-.1804 6.9895-.7398 14.7694-1.5938 7.459-.7698 3.6492-.379c1.1236-.1057 2.1968-.5218 3.1025-1.2028.8796-.6715 1.5679-1.5666 1.9949-2.5945.4269-1.0279.5774-2.1518.436-3.2576-.1349-1.0688-.5448-2.0829-1.1887-2.941l-2.0208-2.6765-14.1513-18.7409c-2.0088-2.6705-3.8216-5.0883-5.4144-7.2174-.1961-.2646-.3923-.5353-.5944-.7578-.101-.1143-.1961-.2346-.2971-.3428l-.3329-.29472c-.4293-.37267-.9123-.67689-1.4323-.90217-.9266-.37778-1.9351-.50223-2.9242-.36086-.7954.10617-1.5582.38742-2.2347.82398-.2706.18273-.5287.38366-.7726.60147-.2021.2165-.4042.4029-.5587.6014l-.3804.5112c-.1011.1564-.1724.2948-.2378.403-.1485.2045-.2377.3188-.2555.3067z" fill="#fff" opacity=".25"/><path d="m33.1936 20.4009 2.3774 14.7654c.0901.5852.3904 1.1162.8433 1.4913s1.0266.5679 1.6113.5416c.6171-.0203 1.2021-.2827 1.6313-.7317.4293-.449.6691-1.0493.6688-1.6741l.1664-15.0962c.0025-.2696-.0516-.5367-.1586-.7836-.1071-.2469-.2646-.4681-.4623-.6488-.1978-.1808-.4311-.317-.6847-.3998s-.5216-.1102-.7864-.0804l-3.5661.409c-.2535.0299-.4984.1116-.7197.2401-.2214.1286-.4146.3013-.568.5077s-.2638.4422-.3244.6931-.0703.5116-.0283.7664z" fill="#fff" opacity=".5"/><path d="m42.442 44.5911c-.1562.7035-.515 1.3442-1.0311 1.8413-.5161.497-1.1663.828-1.8683.9511-.702.123-1.4243.0326-2.0755-.2598s-1.2021-.7737-1.583-1.383-.5747-1.3192-.5568-2.0399c.0179-.7208.2466-1.42.6572-2.0092s.9847-1.0419 1.6496-1.3009 1.3908-.3126 2.0858-.154c.9306.2139 1.7395.7922 2.2497 1.6083s.68 1.8036.4724 2.7461z" fill="#fff" opacity=".5"/><path d="m12.809.685537-11.886834 11.012463c-.359572.3327-.626696.7549-.774741 1.2246-.14804469.4698-.1718386.9705-.0690144 1.4525.1028244.4819.3286714.9281.6550404 1.2942s.741849.6392 1.205039.7921c4.27926 1.4254 10.69811 3.5425 15.14981 5.016.5016.1627 1.037.1876 1.5512.072.5143-.1156.989-.3674 1.3754-.7297s.6708-.822.8238-1.3321c.1531-.51.1695-1.0521.0474-1.5707l-3.8157-15.89616c-.0995-.44653-.3137-.85861-.6208-1.194717-.307-.336108-.6963-.584366-1.1284-.719757-.4321-.1353914-.8918-.1531368-1.3329-.0514389-.441.1016979-.8478.3192439-1.1793.6307099z" fill="#efc73f"/><path d="m12.7064 1.73813s.101-.20449.4457-.43304c.5354-.325681 1.1759-.425059 1.7831-.27666.4467.10443.8573.32881 1.1886.64955.377.3913.6349.88399.743 1.41941.2734 1.04651.5943 2.23135.9212 3.53649.6597 2.64033 1.4442 5.76182 2.3179 9.23212.107.4391.214.8781.3269 1.3232.0959.4049.1115.8251.0457 1.2361-.0657.411-.2115.8047-.4288 1.1583-.2172.3536-.5017.66-.8369.9015s-.7145.4132-1.1157.5052c-.5574.1277-1.1386.1007-1.682-.0782l-1.4086-.4631-2.8766-.9502-5.67006-1.8886-2.69237-.9021-.65972-.2226-.32688-.1082-.3685-.1504c-.35046-.1681-.66462-.4047-.9244-.6961-.25979-.2914-.46007-.6319-.589321-1.002-.129254-.37-.184924-.7622-.163822-1.1541.021103-.3919.118566-.7757.286783-1.1294.10965-.2151.24325-.4169.39821-.6014l.24368-.2586.2318-.2105.89745-.812 3.26888-2.94705c2.00888-1.80433 3.63737-3.24178 4.75477-4.2101.5596-.54952 1.1752-1.03741 1.8365-1.45549-.4535.61978-.965 1.19381-1.5275 1.71411-1.0698 1.05854-2.63291 2.58019-4.58235 4.43865l-3.19756 3.03728-.87963.83-.2199.2105-.17831.1925c-.10687.1378-.19854.287-.27339.445-.1512.3326-.21635.6987-.18931 1.0638.02703.365.14535.7172.34384 1.0232.20589.3117.49138.5611.82613.7218l.26745.1082.32689.1083.65378.2105 2.70426.8841 5.676 1.8645 2.8706.9563 1.4086.4691c.3829.131.7939.1539 1.1887.0662.3856-.0896.7412-.28 1.0311-.5524.29-.2723.5042-.6169.6212-.9993.1068-.3739.1191-.7689.0356-1.1488-.1069-.4451-.208-.8901-.309-1.3232-.7964-3.4883-1.5215-6.61585-2.1278-9.27423l-.7904-3.57258c-.0639-.45605-.2557-.88399-.5528-1.23296-.2597-.28092-.5876-.48825-.9509-.60144-.5225-.1644-1.086-.13235-1.5869.09022-.3328.15036-.5052.2947-.5349.25862z" fill="#fff" opacity=".25"/><path d="m12.2796 5.28662-1.5096 5.83998c-.0608.2337-.0336.4818.0762.6963s.2945.38.5181.4645c.2308.092.4877.0908.7177-.0032.23-.0939.4156-.2736.5186-.502l2.5081-5.53928c.0445-.09916.0677-.20676.0681-.31567s-.0221-.21666-.0659-.31614-.108-.18842-.1883-.26095c-.0803-.07252-.1749-.12697-.2775-.15976l-1.3848-.43907c-.099-.03492-.2041-.0486-.3086-.04017-.1044.00843-.2061.03878-.2983.08914-.0923.05035-.1731.11961-.2375.20334-.0643.08373-.1108.1801-.1363.28298z" fill="#fff" opacity=".5"/><path d="m11.768 15.7458c-.1716.2323-.4074.4079-.6775.5048-.2702.0968-.5627.1104-.8405.0391-.27785-.0713-.52857-.2243-.72052-.4397s-.31651-.4835-.35797-.7705c-.04147-.287.00204-.58.12502-.842s.31992-.4812.56595-.63c.24602-.1488.53012-.2205.81632-.206.2863.0145.5619.1145.792.2873.1533.1152.2826.2597.3805.4255s.1625.3495.1901.5406.0177.3858-.0293.573c-.0469.1872-.1298.3632-.2441.5179z" fill="#fff" opacity=".5"/><path d="m58.4764 4.10194-2.6983 12.44986c-.0823.376-.0658.7673.048 1.1348.1139.3675.321.6983.6007.9594.2797.2612.6223.4435.9934.5288.3711.0852.7579.0705 1.1216-.0428l11.8868-3.6989c.3937-.1238.7476-.3516 1.0253-.6599.2777-.3084.4691-.6861.5545-1.0942s.0617-.8319-.0687-1.2277c-.1304-.3957-.3627-.7492-.6731-1.0238l-9.5094-8.42019c-.2628-.23155-.5806-.38995-.9221-.45964-.3416-.06969-.6952-.04828-1.0261.06213-.331.11041-.6278.30602-.8614.56763-.2337.2616-.396.58021-.4712.92451z" fill="#efc73f"/><path d="m58.8823 4.81756s-.0416-.18043.0773-.48717c.0934-.22805.2309-.43491.4044-.60843.1735-.17351.3795-.31019.606-.40199.3345-.13913.6999-.18483 1.0579-.13232.4276.08603.8217.29483 1.1352.60145l2.1693 1.80433 5.5987 4.81157.8024.6977c.3286.2914.5765.6646.7191 1.0825.1448.4315.1743.8941.0856 1.3409-.0887.4467-.2925.8618-.5907 1.2033-.3145.3477-.7144.605-1.159.7457l-1.1055.3489-2.2585.7037-4.4575 1.3773-2.104.6495-.5171.1564-.2556.0782-.315.0722c-.4251.071-.8613.021-1.26-.1444-.381-.1547-.7159-.4067-.9721-.7313-.2563-.3246-.4251-.7109-.4899-1.1211-.0242-.1998-.0242-.4017 0-.6015l.0416-.2887.0535-.2405.2139-.9263c.2853-1.2029.5468-2.3396.7905-3.368.4874-2.06299.9034-3.72298 1.1887-4.87174.1226-.60885.3223-1.19914.5943-1.75621.0074.60834-.0646 1.21501-.214 1.80433-.1961 1.20289-.5111 2.85685-.9152 4.93182l-.6776 3.3982c-.0654.3067-.1248.6014-.1902.9262l-.0475.2346v.1984c-.0148.1279-.0148.2571 0 .385.0479.2678.1626.5189.3331.7294.1706.2105.3914.3734.6416.4734.2557.0983.5328.1253.8024.0782l.202-.0541.2556-.0782.5171-.1624 2.1158-.6736 4.4516-1.3953 2.2586-.6977 1.1114-.3428c.2873-.0841.5463-.2464.7488-.4692.1939-.2195.3272-.4868.3867-.775s.043-.5872-.0479-.8669c-.087-.2738-.245-.5189-.4576-.7097l-.838-.7037c-2.0565-1.87049-3.9049-3.55453-5.4739-4.97394l-2.0802-1.93063c-.2094-.24398-.4844-.42108-.7915-.50971-.3071-.08864-.633-.08498-.9381.01052-.3981.12867-.7388.39476-.9628.7518-.1605.27666-.2021.43905-.2437.42702z" fill="#efc73f" opacity=".25"/><path d="m60.1886 7.27752 1.6285 4.42058c.0657.1744.1917.3187.3546.4061.1628.0873.3516.1119.531.0691.1945-.0379.3661-.1522.4775-.3179s.1534-.3693.1168-.5662l-.8618-4.67928c-.0155-.08339-.0482-.16253-.0961-.23219-.0478-.06967-.1097-.1283-.1816-.17204-.0718-.04374-.152-.07159-.2353-.08174-.0832-.01015-.1677-.00236-.2477.02286l-1.0817.34884c-.079.02172-.1527.05972-.2165.11163-.0638.0519-.1164.11659-.1543.19-.038.0734-.0605.15396-.0662.2366-.0058.08264.0054.16559.0328.24364z" fill="#fff" opacity=".5"/><path d="m64.5152 14.1881c-.0106.2259-.0868.4435-.2191.6257s-.3148.3209-.5247.3986c-.2098.0777-.4376.091-.6549.0383s-.4143-.1692-.5665-.3348c-.1522-.1655-.2526-.3729-.2889-.596-.0362-.2231-.0066-.4521.0852-.6582.0918-.2062.2417-.3803.4308-.5006.1892-.1204.4093-.1815.6326-.1759.1512.0039.3001.0382.4379.1011.1379.0628.262.153.365.265.1029.1121.1827.2438.2347.3875s.0751.2965.0679.4493z" fill="#fff" opacity=".5"/><g fill="#263238"><path d="m7.98233 59.2421c-.15505-.1113-.29494-.2427-.41605-.391-.15943-.1582-.30834-.327-.44576-.5052-.16047-.2045-.3566-.433-.5349-.7097-.44028-.6392-.82223-1.3176-1.14113-2.0268-.381-.8732-.67757-1.7816-.88558-2.7125-.19264-.9359-.29219-1.8889-.29717-2.8449-.00149-.7789.07016-1.5563.21396-2.3215.04755-.3308.1367-.6015.19614-.8721.05157-.2193.11911-.4344.20207-.6436.049-.1858.123-.3639.21992-.5293.05943 0-.21397.7879-.40416 2.081-.10482.7551-.15251 1.5171-.14265 2.2795.02274.9359.12817 1.8678.31501 2.7847.20168.91.48415 1.7998.84397 2.6584.29984.7017.65564 1.3775 1.06387 2.0208.69538 1.1007 1.25406 1.6901 1.21246 1.7322z"/><path d="m13.1594 60.0001c-.1826-.0873-.3542-.1963-.5112-.3248-.1934-.1363-.378-.285-.5527-.4451-.2406-.2023-.4707-.4171-.6894-.6435-.5721-.5866-1.0875-1.227-1.53937-1.9126-.54574-.8486-1.00003-1.7539-1.3551-2.7005-.34262-.9499-.58566-1.9337-.72509-2.935-.10863-.8172-.13452-1.6435-.07727-2.466.01474-.3165.04848-.6318.10104-.9442.03015-.2369.07381-.4719.13075-.7037.03416-.2066.092-.4084.17236-.6015.06537 0-.14264.8541-.18425 2.2374-.02228.8044.02346 1.6093.13671 2.4058.15277.9777.39756 1.9383.73104 2.8689.35278.9236.79056 1.8116 1.30758 2.6523.4318.681.921 1.3229 1.4621 1.9186.9271 1.0405 1.6284 1.5457 1.5928 1.5939z"/><path d="m68.4378 53.5947c-.0535-.0301.4101-.8661.9331-2.3096.3054-.8461.5536-1.7121.743-2.5922.2267-1.0756.3698-2.1676.4279-3.2659.0426-1.0999.0048-2.2015-.1129-3.2959-.1075-.8944-.2743-1.7805-.4993-2.6523-.3804-1.4856-.7667-2.3697-.7073-2.4058.1236.1871.2234.3892.2972.6014.2494.5592.458 1.1361.6241 1.7262.2559.8761.4447 1.7709.5646 2.6764.2959 2.2223.1891 4.4805-.315 6.664-.2035.8884-.4757 1.7591-.8142 2.6042-.2274.5781-.4955 1.1389-.8024 1.6781-.0905.2032-.2042.3949-.3388.5714z"/><path d="m73.2115 52.3556c-.0535 0 .3209-.7097.7132-1.8946.234-.6905.4149-1.3983.5408-2.117.1439-.8808.2174-1.7718.2199-2.6644-.012-.8921-.0995-1.7815-.2615-2.6584-.1378-.7165-.3265-1.422-.5646-2.1111-.416-1.1728-.7964-1.8524-.7429-1.8825.1235.1358.2258.2899.3031.4571.2508.4301.4656.8808.6419 1.3472.2761.689.4909 1.4015.6419 2.1291.1813.8949.2788 1.8051.2912 2.7186-.003.9118-.0865 1.8216-.2496 2.7185-.1365.7298-.3353 1.4462-.5944 2.1411-.1732.4686-.3819.9231-.624 1.3593-.08.1685-.1863.3229-.315.4571z"/></g></g></svg>