<svg width="97" height="77" viewBox="0 0 97 77" fill="none" xmlns="http://www.w3.org/2000/svg">
<g clip-path="url(#clip0_1828_18932)">
<path d="M38.5562 12.1259L17.8863 59.6643C17.2605 61.0998 17.0202 62.6749 17.1893 64.2326C17.3584 65.7904 17.931 67.2765 18.8501 68.5429C19.7692 69.8094 21.0027 70.8119 22.4277 71.4507C23.8527 72.0894 25.4196 72.3422 26.9721 72.1837C41.3388 70.7249 62.8542 68.4943 77.7743 66.9506C79.4587 66.7785 81.0668 66.1575 82.432 65.152C83.7972 64.1465 84.87 62.7929 85.5394 61.2313C86.2088 59.6698 86.4505 57.957 86.2394 56.2701C86.0284 54.5833 85.3722 52.9837 84.3389 51.637L52.6615 10.3815C51.7883 9.23642 50.6323 8.3404 49.308 7.78226C47.9836 7.22411 46.5371 7.02322 45.1116 7.1995C43.6861 7.37579 42.3312 7.92314 41.1814 8.78727C40.0315 9.6514 39.1265 10.8023 38.5562 12.1259Z" fill="#FB8048"/>
<g opacity="0.5">
<path opacity="0.5" d="M39.6183 15.3136C39.6516 15.1517 39.7086 14.9957 39.7874 14.8505C39.8566 14.7039 39.9334 14.5109 40.0487 14.3025L40.5176 13.5847C40.7021 13.33 40.9558 13.0675 41.2171 12.7665C41.5331 12.4647 41.8724 12.1886 42.2318 11.9406C43.1298 11.306 44.1605 10.8862 45.245 10.7134C46.3169 10.5183 47.4181 10.5602 48.4722 10.8362C49.5263 11.1121 50.5078 11.6154 51.3483 12.3111L51.8249 12.7202C51.971 12.8669 52.1093 13.029 52.2477 13.191C52.5384 13.504 52.8105 13.8339 53.0625 14.179L60.2036 23.3332L78.7134 47.2606L81.35 50.6799C82.3114 51.936 82.9264 53.4241 83.1334 54.9946C83.2994 56.2173 83.2178 57.4612 82.8933 58.6515C82.5688 59.8418 82.0082 60.954 81.2451 61.9214C80.482 62.8887 79.5321 63.6913 78.4525 64.281C77.3728 64.8707 76.1857 65.2352 74.9623 65.3528L70.2426 65.8391L60.5956 66.8425L41.5784 68.7876L32.531 69.7061L30.3249 69.9299L29.2334 70.038L28.065 70.0766C26.5187 70.03 25.0155 69.5544 23.7219 68.7027C22.4826 67.8886 21.4711 66.7698 20.7836 65.4526C20.0961 64.1355 19.7555 62.6637 19.794 61.1771C19.8324 60.8143 19.8324 60.4516 19.8939 60.1042C19.9554 59.7569 20.0399 59.4019 20.1322 59.0622L20.4858 58.0743C20.6087 57.7578 20.7471 57.4645 20.8778 57.1635C21.3903 55.9697 21.9027 54.7913 22.4152 53.6284L28.1034 40.7385C31.5855 32.8656 34.422 26.4978 36.4052 22.1137C37.4121 19.937 38.1885 18.2544 38.7112 17.0735C38.9553 16.4738 39.2484 15.8955 39.5875 15.3445C39.4241 15.971 39.2028 16.5809 38.9265 17.1661C38.4422 18.3547 37.735 20.0837 36.8203 22.2989C34.9677 26.7448 32.2082 33.1589 28.8644 41.0781C27.1656 45.0377 25.3131 49.3755 23.3145 54.0298L21.7772 57.5726C21.6465 57.8736 21.5081 58.1823 21.3928 58.4756L21.0853 59.3555C21.0085 59.6566 20.9547 59.9653 20.8855 60.274C20.8163 60.5828 20.8394 60.8915 20.8009 61.208C20.7778 62.5078 21.0846 63.7921 21.6924 64.9399C22.3003 66.0877 23.1892 67.0613 24.2754 67.7687C25.4049 68.5009 26.7133 68.9068 28.0573 68.9419H29.0719L30.1635 68.8339L32.3696 68.6023L41.4093 67.6529L60.511 65.6075L70.158 64.6196L74.8777 64.1333C76.3308 63.9976 77.7189 63.4636 78.8902 62.5896C80.0279 61.7279 80.918 60.5791 81.4702 59.26C82.0225 57.9409 82.217 56.4985 82.0341 55.0795C81.8596 53.7079 81.3295 52.4064 80.4968 51.3051L77.8833 47.8704L59.5809 23.8195C56.9828 20.3924 54.6383 17.2896 52.5782 14.5572C52.3246 14.2176 52.0709 13.8703 51.8096 13.5847C51.6789 13.438 51.5559 13.2837 51.4252 13.1447L50.9948 12.7665C50.4395 12.2883 49.8148 11.8979 49.1422 11.6087C47.9439 11.1239 46.6396 10.9642 45.3603 11.1456C44.3315 11.2819 43.345 11.6428 42.4701 12.2031C42.1201 12.4376 41.7863 12.6954 41.4708 12.9749C41.2094 13.2528 40.9481 13.4921 40.7482 13.7468L40.2563 14.4029C40.1256 14.6035 40.0333 14.7811 39.9488 14.92C39.7566 15.1824 39.6413 15.3291 39.6183 15.3136Z" fill="white"/>
</g>
<path opacity="0.5" d="M42.9316 26.1811L46.0063 45.1301C46.1229 45.8811 46.5113 46.5625 47.097 47.0439C47.6828 47.5252 48.4248 47.7727 49.181 47.739C49.979 47.7129 50.7357 47.3762 51.2908 46.7999C51.846 46.2237 52.1562 45.4533 52.1558 44.6516L52.371 25.2781C52.3742 24.932 52.3043 24.5893 52.1658 24.2724C52.0274 23.9555 51.8236 23.6717 51.5679 23.4398C51.3122 23.2078 51.0104 23.0329 50.6824 22.9267C50.3544 22.8205 50.0078 22.7853 49.6653 22.8236L45.0532 23.3484C44.7253 23.3868 44.4086 23.4916 44.1223 23.6566C43.836 23.8216 43.5861 24.0432 43.3877 24.3081C43.1893 24.573 43.0466 24.8756 42.9682 25.1976C42.8898 25.5196 42.8773 25.8542 42.9316 26.1811Z" fill="white"/>
<path opacity="0.5" d="M54.8906 57.2252C54.6887 58.1279 54.2246 58.9502 53.5571 59.5881C52.8896 60.226 52.0487 60.6507 51.1408 60.8087C50.2329 60.9666 49.2987 60.8506 48.4564 60.4753C47.6142 60.1001 46.9017 59.4824 46.409 58.7005C45.9164 57.9185 45.6658 57.0075 45.689 56.0825C45.7121 55.1576 46.0079 54.2603 46.5389 53.5041C47.07 52.748 47.8125 52.167 48.6724 51.8347C49.5324 51.5023 50.4712 51.4335 51.3701 51.637C52.5736 51.9115 53.6199 52.6537 54.2797 53.701C54.9395 54.7484 55.1592 56.0155 54.8906 57.2252Z" fill="white"/>
<path d="M16.5656 0.879992L1.19199 15.0126C0.726945 15.4396 0.381464 15.9815 0.189993 16.5843C-0.00147855 17.1871 -0.032252 17.8297 0.100734 18.4482C0.23372 19.0667 0.525816 19.6394 0.947919 20.1091C1.37002 20.5789 1.90738 20.9294 2.50643 21.1257C8.04094 22.955 16.3427 25.6719 22.1001 27.5629C22.7489 27.7717 23.4414 27.8036 24.1065 27.6553C24.7716 27.507 25.3855 27.1838 25.8852 26.7189C26.385 26.2539 26.7528 25.6639 26.9508 25.0093C27.1488 24.3547 27.1699 23.6591 27.012 22.9936L22.0771 2.59351C21.9483 2.02046 21.6714 1.49162 21.2742 1.06028C20.877 0.628944 20.3736 0.310346 19.8148 0.136594C19.2559 -0.0371579 18.6613 -0.0599311 18.0909 0.0705812C17.5204 0.201094 16.9944 0.480277 16.5656 0.879992Z" fill="#FB8048"/>
<g opacity="0.5">
<path opacity="0.5" d="M16.4342 2.23072C16.4342 2.23072 16.5648 1.96829 17.0107 1.67499C17.703 1.25703 18.5314 1.1295 19.3167 1.31994C19.8945 1.45396 20.4256 1.74192 20.8541 2.15353C21.3416 2.6557 21.6751 3.28799 21.8149 3.97511C22.1685 5.31813 22.5836 6.83868 23.0064 8.5136C23.8596 11.902 24.8743 15.908 26.0042 20.3615C26.1426 20.925 26.281 21.4884 26.427 22.0596C26.5511 22.5792 26.5712 23.1184 26.4861 23.6459C26.4011 24.1734 26.2126 24.6787 25.9316 25.1324C25.6506 25.5862 25.2826 25.9794 24.8491 26.2893C24.4156 26.5992 23.9251 26.8196 23.4061 26.9377C22.6852 27.1015 21.9336 27.0669 21.2307 26.8374L19.409 26.2431L15.6885 25.0235L8.3553 22.5999L4.87317 21.4421L4.01993 21.1565L3.59717 21.0176L3.12057 20.8246C2.66731 20.6089 2.261 20.3053 1.92501 19.9313C1.58902 19.5574 1.32999 19.1204 1.16283 18.6455C0.995657 18.1706 0.923657 17.6672 0.95095 17.1643C0.978242 16.6614 1.10429 16.1688 1.32186 15.715C1.46367 15.4388 1.63646 15.1799 1.83688 14.9431L2.15204 14.6112L2.45182 14.3411L3.61253 13.2991L7.84028 9.51701C10.4384 7.20145 12.5446 5.35673 13.9897 4.11404C14.7135 3.40883 15.5097 2.7827 16.365 2.24616C15.7785 3.04156 15.1169 3.77823 14.3895 4.44594C13.0058 5.8044 10.9842 7.75719 8.46291 10.1422L4.32741 14.0401L3.18975 15.1052L2.90534 15.3754L2.67474 15.6224C2.53651 15.7993 2.41795 15.9908 2.32115 16.1935C2.1256 16.6204 2.04134 17.0901 2.0763 17.5586C2.11126 18.0272 2.26429 18.4791 2.521 18.8719C2.78729 19.2719 3.15652 19.5919 3.58947 19.7981L3.93538 19.937L4.35815 20.0759L5.20371 20.3461L8.70121 21.4807L16.0421 23.8735L19.7549 25.1007L21.5766 25.7028C22.0719 25.8709 22.6034 25.9002 23.114 25.7877C23.6127 25.6727 24.0725 25.4283 24.4476 25.0788C24.8226 24.7293 25.0996 24.2871 25.2509 23.7963C25.3891 23.3165 25.405 22.8096 25.2971 22.322C25.1587 21.7509 25.028 21.1797 24.8973 20.624C23.8673 16.1472 22.9295 12.1336 22.1455 8.722L21.1231 4.1372C21.0406 3.55193 20.7925 3.00274 20.4082 2.5549C20.0723 2.19439 19.6483 1.92831 19.1783 1.78305C18.5027 1.57207 17.7739 1.61319 17.126 1.89883C16.6955 2.0918 16.4726 2.27703 16.4342 2.23072Z" fill="white"/>
</g>
<path opacity="0.5" d="M15.8802 6.78458L13.9277 14.2793C13.8491 14.5791 13.8843 14.8975 14.0263 15.1728C14.1684 15.448 14.4072 15.6605 14.6964 15.769C14.9949 15.887 15.3271 15.8855 15.6246 15.7649C15.922 15.6442 16.1621 15.4136 16.2953 15.1206L19.5391 8.01183C19.5967 7.88458 19.6267 7.74649 19.6272 7.60672C19.6277 7.46695 19.5987 7.32868 19.542 7.20101C19.4853 7.07334 19.4023 6.9592 19.2985 6.86613C19.1946 6.77306 19.0723 6.70318 18.9395 6.66109L17.1485 6.09763C17.0205 6.05281 16.8846 6.03525 16.7495 6.04607C16.6143 6.05689 16.4829 6.09584 16.3636 6.16047C16.2443 6.22509 16.1397 6.31397 16.0564 6.42142C15.9732 6.52887 15.9132 6.65255 15.8802 6.78458Z" fill="white"/>
<path opacity="0.5" d="M15.2197 20.2071C14.9977 20.5053 14.6928 20.7307 14.3434 20.8549C13.9939 20.9792 13.6157 20.9966 13.2563 20.9051C12.897 20.8136 12.5728 20.6173 12.3245 20.3409C12.0763 20.0644 11.9152 19.7204 11.8615 19.3521C11.8079 18.9837 11.8642 18.6077 12.0232 18.2715C12.1823 17.9353 12.437 17.654 12.7552 17.463C13.0734 17.272 13.4408 17.1801 13.811 17.1986C14.1812 17.2172 14.5377 17.3455 14.8353 17.5674C15.0335 17.7151 15.2007 17.9007 15.3273 18.1134C15.454 18.3262 15.5375 18.5619 15.5732 18.8072C15.6089 19.0524 15.5961 19.3023 15.5354 19.5425C15.4747 19.7828 15.3675 20.0086 15.2197 20.2071Z" fill="white"/>
<path d="M75.6307 5.26413L72.1409 21.2415C72.0344 21.724 72.0558 22.2261 72.203 22.6978C72.3502 23.1694 72.6181 23.5939 72.9799 23.9291C73.3417 24.2642 73.7847 24.4982 74.2647 24.6076C74.7446 24.717 75.2448 24.6981 75.7152 24.5527L91.0889 19.8058C91.598 19.6469 92.0558 19.3546 92.4149 18.9589C92.7741 18.5632 93.0216 18.0785 93.1321 17.5547C93.2425 17.0309 93.2118 16.4871 93.0432 15.9792C92.8746 15.4713 92.5741 15.0177 92.1727 14.6653L79.8738 3.85935C79.534 3.5622 79.123 3.35892 78.6812 3.26948C78.2394 3.18004 77.7821 3.20752 77.3541 3.34922C76.9261 3.49091 76.5422 3.74194 76.2401 4.07767C75.9379 4.4134 75.7279 4.82227 75.6307 5.26413Z" fill="#FB8048"/>
<g opacity="0.5">
<path opacity="0.5" d="M76.153 6.18258C76.153 6.18258 76.0992 5.95102 76.253 5.55738C76.3738 5.26471 76.5516 4.99924 76.776 4.77656C77.0004 4.55388 77.2668 4.37848 77.5597 4.26067C77.9924 4.08212 78.465 4.02348 78.928 4.09086C79.481 4.20126 79.9907 4.46922 80.3962 4.86271L83.2018 7.17827L90.4428 13.3531L91.4806 14.2484C91.9056 14.6225 92.2261 15.1014 92.4107 15.6378C92.5979 16.1915 92.636 16.7851 92.5213 17.3585C92.4065 17.9318 92.143 18.4645 91.7573 18.9027C91.3505 19.349 90.8334 19.6792 90.2584 19.8598L88.8286 20.3075L85.9076 21.2105L80.1425 22.9781L77.4214 23.8117L76.7526 24.0124L76.4221 24.1127L76.0147 24.2053C75.4649 24.2965 74.9007 24.2323 74.3851 24.0201C73.8923 23.8215 73.4591 23.4982 73.1277 23.0816C72.7963 22.665 72.578 22.1693 72.4941 21.6428C72.4629 21.3864 72.4629 21.1273 72.4941 20.8709L72.5479 20.5004L72.6171 20.1917L72.8938 19.003C73.2628 17.4593 73.601 16.0005 73.9162 14.6807C74.5465 12.0332 75.0846 9.90291 75.4535 8.42867C75.6121 7.64731 75.8704 6.88977 76.2222 6.17486C76.2317 6.95557 76.1387 7.73413 75.9455 8.49042C75.6918 10.0341 75.2844 12.1567 74.7617 14.8196L73.8854 19.1806C73.8009 19.5742 73.724 19.9524 73.6394 20.3692L73.578 20.6702V20.925C73.5588 21.0891 73.5588 21.2548 73.578 21.4189C73.6399 21.7627 73.7882 22.0849 74.0088 22.355C74.2294 22.6251 74.515 22.8343 74.8386 22.9627C75.1693 23.0888 75.5277 23.1235 75.8763 23.063L76.1377 22.9935L76.4682 22.8932L77.137 22.6848L79.8735 21.8203L85.6309 20.0296L88.5519 19.1343L89.9893 18.6943C90.3609 18.5864 90.6959 18.3782 90.9578 18.0923C91.2085 17.8105 91.381 17.4675 91.4579 17.0976C91.5349 16.7277 91.5135 16.3441 91.396 15.9851C91.2835 15.6338 91.0791 15.3192 90.8041 15.0743L89.7203 14.1713C87.0606 11.7708 84.67 9.6096 82.6407 7.78803L79.9503 5.31039C79.6795 4.99728 79.3239 4.77 78.9267 4.65625C78.5295 4.54251 78.108 4.5472 77.7135 4.66975C77.1986 4.83488 76.7579 5.17636 76.4682 5.63457C76.2607 5.98962 76.2069 6.19801 76.153 6.18258Z" fill="white"/>
</g>
<path opacity="0.5" d="M77.8452 9.33948L79.9514 15.0126C80.0363 15.2363 80.1992 15.4215 80.4099 15.5337C80.6206 15.6458 80.8646 15.6773 81.0967 15.6224C81.3482 15.5737 81.5703 15.427 81.7143 15.2144C81.8584 15.0017 81.9127 14.7405 81.8654 14.4877L80.7508 8.48272C80.7308 8.37571 80.6884 8.27415 80.6265 8.18474C80.5646 8.09533 80.4845 8.02009 80.3916 7.96396C80.2987 7.90783 80.195 7.87208 80.0873 7.85906C79.9796 7.84603 79.8704 7.85603 79.7669 7.88839L78.3679 8.33607C78.2657 8.36395 78.1704 8.41272 78.0879 8.47933C78.0053 8.54594 77.9374 8.62896 77.8883 8.72316C77.8392 8.81737 77.8101 8.92074 77.8027 9.0268C77.7953 9.13285 77.8097 9.23931 77.8452 9.33948Z" fill="white"/>
<path opacity="0.5" d="M83.4406 18.208C83.4268 18.4978 83.3283 18.7772 83.1572 19.011C82.986 19.2448 82.75 19.4228 82.4786 19.5225C82.2073 19.6222 81.9126 19.6393 81.6316 19.5716C81.3506 19.504 81.0957 19.3545 80.8989 19.142C80.7021 18.9296 80.5722 18.6635 80.5253 18.3771C80.4784 18.0908 80.5168 17.797 80.6355 17.5324C80.7542 17.2679 80.948 17.0444 81.1927 16.8899C81.4373 16.7355 81.7219 16.657 82.0108 16.6643C82.2063 16.6692 82.3989 16.7133 82.5772 16.794C82.7555 16.8747 82.916 16.9903 83.0492 17.1341C83.1823 17.2779 83.2856 17.447 83.3528 17.6314C83.42 17.8158 83.4498 18.0118 83.4406 18.208Z" fill="white"/>
<path d="M10.3237 76.0275C10.1232 75.8847 9.94225 75.716 9.78562 75.5257C9.57942 75.3226 9.38683 75.106 9.20911 74.8774C9.00156 74.6149 8.7479 74.3216 8.5173 73.9666C7.94787 73.1462 7.45389 72.2756 7.04143 71.3655C6.54868 70.2449 6.16511 69.0791 5.89609 67.8844C5.64694 66.6834 5.51819 65.4603 5.51175 64.2335C5.50982 63.2339 5.60248 62.2363 5.78847 61.2542C5.84997 60.8297 5.96527 60.4823 6.04214 60.135C6.10883 59.8536 6.19619 59.5775 6.30349 59.3091C6.36686 59.0707 6.46257 58.8421 6.58791 58.6299C6.66478 58.6299 6.31118 59.641 6.0652 61.3005C5.92963 62.2695 5.86796 63.2474 5.88071 64.2258C5.91012 65.4269 6.04647 66.6228 6.28812 67.7995C6.54897 68.9674 6.91429 70.1092 7.37965 71.2111C7.76745 72.1116 8.22761 72.979 8.75559 73.8045C9.65495 75.217 10.3775 75.9734 10.3237 76.0275Z" fill="#263238"/>
<path d="M17.0187 76.9999C16.7826 76.8879 16.5607 76.748 16.3576 76.5831C16.1075 76.4082 15.8687 76.2174 15.6428 76.0119C15.3316 75.7523 15.0339 75.4766 14.7511 75.1861C14.0113 74.4333 13.3446 73.6114 12.7602 72.7316C12.0544 71.6426 11.4668 70.4807 11.0076 69.266C10.5645 68.0469 10.2502 66.7844 10.0698 65.4993C9.92935 64.4506 9.89586 63.3902 9.9699 62.3347C9.98896 61.9285 10.0326 61.5238 10.1006 61.1229C10.1396 60.8189 10.196 60.5174 10.2697 60.2199C10.3139 59.9547 10.3887 59.6957 10.4926 59.448C10.5772 59.448 10.3081 60.544 10.2543 62.3193C10.2255 63.3516 10.2846 64.3845 10.4311 65.4067C10.6287 66.6614 10.9453 67.8942 11.3766 69.0884C11.8329 70.2737 12.399 71.4134 13.0677 72.4923C13.6262 73.3662 14.2589 74.19 14.9587 74.9545C16.1578 76.2898 17.0648 76.9382 17.0187 76.9999Z" fill="#263238"/>
<path d="M88.5133 68.7797C88.4441 68.7411 89.0437 67.6682 89.7201 65.8158C90.115 64.73 90.436 63.6185 90.681 62.4891C90.9742 61.1087 91.1592 59.7074 91.2344 58.2979C91.2895 56.8863 91.2407 55.4726 91.0884 54.0682C90.9493 52.9203 90.7336 51.7831 90.4427 50.6643C89.9507 48.7578 89.4511 47.6232 89.5279 47.5769C89.6877 47.817 89.8168 48.0763 89.9123 48.3488C90.2348 49.0664 90.5046 49.8068 90.7194 50.564C91.0504 51.6883 91.2946 52.8367 91.4496 53.9987C91.8323 56.8506 91.6942 59.7486 91.0422 62.5508C90.7791 63.6909 90.4269 64.8084 89.9891 65.893C89.6951 66.6348 89.3483 67.3545 88.9514 68.0464C88.8344 68.3072 88.6873 68.5533 88.5133 68.7797Z" fill="#263238"/>
<path d="M94.6862 67.1897C94.617 67.1897 95.1013 66.2789 95.6086 64.7584C95.9113 63.8722 96.1451 62.9639 96.3081 62.0414C96.4942 60.9112 96.5893 59.7677 96.5925 58.6221C96.5769 57.4773 96.4637 56.336 96.2543 55.2105C96.076 54.291 95.8319 53.3856 95.524 52.5014C94.9859 50.9962 94.494 50.124 94.5632 50.0854C94.7229 50.2597 94.8552 50.4575 94.9552 50.6721C95.2796 51.224 95.5573 51.8024 95.7854 52.401C96.1425 53.2852 96.4203 54.1996 96.6155 55.1334C96.85 56.2818 96.9761 57.4499 96.9922 58.6221C96.9883 59.7924 96.8803 60.96 96.6694 62.1109C96.4929 63.0475 96.2357 63.9669 95.9007 64.8587C95.6766 65.4601 95.4068 66.0433 95.0936 66.6031C94.9902 66.8194 94.8526 67.0175 94.6862 67.1897Z" fill="#263238"/>
</g>
<defs>
<clipPath id="clip0_1828_18932">
<rect width="97" height="77" fill="white"/>
</clipPath>
</defs>
</svg>
