<svg fill="none" height="28" viewBox="0 0 28 28" width="28" xmlns="http://www.w3.org/2000/svg"><circle cx="14" cy="14" fill="#4550e5" r="14"/><path d="m13.1559 19.149c-.0824-.0728-.1472-.1611-.1901-.2589-.0428-.0978-.0628-.203-.0584-.3085-.0193-.1056-.0193-.2135 0-.3192.0389-.0969.1049-.1826.1911-.2482l3.8236-3.5464h-9.04269c-.11364.0048-.22715-.0118-.33366-.0489-.10651-.037-.20381-.0938-.28601-.1667-.08221-.0729-.14761-.1606-.19226-.2576-.04464-.0971-.0676-.2015-.06748-.307.00941-.2135.10508-.416.26801-.5671.16292-.1511.38118-.2398.6114-.2486h9.11909l-3.8235-3.54635c-.0849-.07195-.1526-.15963-.1987-.25737s-.0696-.20336-.0689-.31005c.0023-.22018.0985-.43055.2676-.58515.0881-.08285.2016-.13857.325-.15959.1075-.01756.2175-.01756.325 0 .1139-.01785.2302-.01785.3441 0 .1124.03146.2122.09317.2868.17732l5.2956 4.91169c.1559.154.2444.3563.2485.5675-.0047.2163-.0929.4239-.2485.5851l-5.2956 4.9118c-.0735.0891-.173.1568-.2868.195-.1203.0176-.2429.0176-.3632 0-.1204.0176-.2429.0176-.3633 0-.1113-.0505-.2092-.1231-.2867-.2128z" fill="#ffca05"/></svg>