<svg width="76" height="63" viewBox="0 0 76 63" fill="none" xmlns="http://www.w3.org/2000/svg">
<g clip-path="url(#clip0_8248_22574)">
<path d="M30.4364 10.0683L14.4546 48.8284C13.9707 49.9988 13.7849 51.283 13.9157 52.5532C14.0464 53.8233 14.4892 55.035 15.1998 56.0676C15.9104 57.1001 16.8642 57.9175 17.966 58.4383C19.0678 58.9592 20.2793 59.1652 21.4797 59.036C32.5879 57.8466 49.2236 56.0279 60.7598 54.7692C62.0621 54.6289 63.3054 54.1226 64.361 53.3028C65.4166 52.4829 66.2461 51.3793 66.7637 50.1061C67.2813 48.8329 67.4681 47.4363 67.3049 46.061C67.1417 44.6856 66.6344 43.3815 65.8354 42.2834L41.3426 8.64598C40.6675 7.71236 39.7736 6.9818 38.7497 6.52671C37.7257 6.07163 36.6072 5.90784 35.505 6.05157C34.4029 6.1953 33.3553 6.64158 32.4662 7.34614C31.5771 8.05071 30.8774 8.98909 30.4364 10.0683Z" fill="#E8EDFF"/>
<g opacity="0.5">
<path opacity="0.5" d="M31.2561 12.6675C31.2819 12.5355 31.3259 12.4082 31.3869 12.2899C31.4404 12.1703 31.4998 12.013 31.589 11.8431L31.9515 11.2578C32.0941 11.0501 32.2903 10.8361 32.4924 10.5907C32.7367 10.3447 32.999 10.1195 33.2769 9.91734C33.9712 9.39991 34.7682 9.05763 35.6067 8.91671C36.4355 8.75768 37.287 8.79184 38.102 9.01682C38.917 9.2418 39.6759 9.65219 40.3258 10.2194L40.6943 10.553C40.8072 10.6725 40.9142 10.8047 41.0212 10.9368C41.2459 11.192 41.4563 11.461 41.6512 11.7424L47.1726 19.2062L61.4844 38.7152L63.5229 41.5032C64.2663 42.5273 64.7418 43.7406 64.9018 45.0211C65.0302 46.0181 64.9671 47.0322 64.7162 48.0027C64.4653 48.9732 64.0319 49.8801 63.4419 50.6688C62.8518 51.4575 62.1174 52.1119 61.2826 52.5927C60.4478 53.0735 59.5299 53.3707 58.584 53.4666L54.9347 53.8631L47.4757 54.6812L32.7717 56.2671L25.7763 57.016L24.0705 57.1985L23.2266 57.2866L22.3232 57.3181C21.1276 57.2801 19.9654 56.8924 18.9651 56.1979C18.0069 55.5341 17.2248 54.6219 16.6933 53.548C16.1617 52.4741 15.8983 51.2741 15.9281 50.062C15.9578 49.7662 15.9578 49.4704 16.0053 49.1872C16.0529 48.904 16.1182 48.6145 16.1896 48.3376L16.463 47.5321C16.558 47.2741 16.665 47.0349 16.7661 46.7895C17.1623 45.8161 17.5585 44.8554 17.9548 43.9072L22.3529 33.3974C25.0453 26.9783 27.2384 21.7864 28.7718 18.2118C29.5504 16.4371 30.1507 15.0652 30.5548 14.1023C30.7435 13.6134 30.9701 13.1419 31.2324 12.6927C31.106 13.2035 30.9349 13.7007 30.7212 14.1779C30.3468 15.147 29.8 16.5567 29.0927 18.3629C27.6604 21.9878 25.5267 27.2175 22.9413 33.6744C21.6278 36.9028 20.1954 40.4396 18.6501 44.2344L17.4615 47.123C17.3604 47.3685 17.2534 47.6202 17.1643 47.8593L16.9266 48.5768C16.8671 48.8222 16.8255 49.0739 16.772 49.3257C16.7185 49.5774 16.7364 49.8291 16.7066 50.0872C16.6887 51.1469 16.9259 52.1941 17.3959 53.13C17.8659 54.0658 18.5532 54.8596 19.3931 55.4364C20.2664 56.0334 21.2781 56.3643 22.3172 56.393H23.1018L23.9457 56.3049L25.6515 56.1161L32.6409 55.342L47.4103 53.6743L54.8693 52.8688L58.5186 52.4723C59.6421 52.3617 60.7154 51.9263 61.6211 51.2136C62.5007 50.5111 63.189 49.5744 63.6159 48.4989C64.0429 47.4234 64.1933 46.2473 64.0519 45.0903C63.917 43.972 63.5071 42.9108 62.8632 42.0129L60.8425 39.2124L46.6912 19.6026C44.6823 16.8084 42.8696 14.2786 41.2767 12.0507C41.0806 11.7738 40.8845 11.4907 40.6824 11.2578C40.5814 11.1382 40.4863 11.0124 40.3852 10.8991L40.0524 10.5907C39.623 10.2008 39.14 9.88245 38.62 9.64672C37.6935 9.25142 36.685 9.12121 35.6959 9.26913C34.9004 9.38022 34.1376 9.67451 33.4611 10.1313C33.1906 10.3225 32.9324 10.5328 32.6885 10.7606C32.4864 10.9872 32.2843 11.1823 32.1298 11.39L31.7494 11.9249C31.6484 12.0885 31.5771 12.2333 31.5117 12.3465C31.3631 12.5605 31.274 12.6801 31.2561 12.6675Z" fill="white"/>
</g>
<path d="M33.8186 21.5281L36.196 36.978C36.2861 37.5903 36.5864 38.1459 37.0393 38.5384C37.4922 38.9309 38.0659 39.1327 38.6506 39.1051C39.2677 39.0839 39.8527 38.8093 40.2819 38.3395C40.7112 37.8697 40.951 37.2415 40.9507 36.5878L41.1171 20.7918C41.1196 20.5097 41.0655 20.2302 40.9585 19.9718C40.8514 19.7135 40.6939 19.4821 40.4962 19.2929C40.2984 19.1038 40.0651 18.9612 39.8115 18.8746C39.5579 18.788 39.2899 18.7594 39.0251 18.7905L35.459 19.2185C35.2055 19.2497 34.9606 19.3352 34.7393 19.4697C34.5179 19.6042 34.3247 19.785 34.1713 20.001C34.0179 20.2169 33.9075 20.4637 33.8469 20.7262C33.7863 20.9887 33.7766 21.2615 33.8186 21.5281Z" fill="#FC5D00"/>
<path d="M43.065 46.8401C42.9089 47.5762 42.5501 48.2466 42.034 48.7667C41.5179 49.2868 40.8677 49.6331 40.1657 49.7619C39.4637 49.8907 38.7414 49.7961 38.0901 49.4901C37.4389 49.1841 36.888 48.6805 36.5071 48.043C36.1262 47.4054 35.9325 46.6626 35.9504 45.9084C35.9682 45.1543 36.1969 44.4227 36.6075 43.8062C37.0182 43.1897 37.5922 42.716 38.2571 42.445C38.9221 42.174 39.6479 42.1179 40.3429 42.2838C41.2735 42.5076 42.0825 43.1127 42.5927 43.9667C43.1028 44.8206 43.2727 45.8538 43.065 46.8401Z" fill="#FC5D00"/>
<path d="M13.434 0.898944L1.54717 12.4219C1.18759 12.77 0.92047 13.2118 0.772425 13.7033C0.62438 14.1948 0.600586 14.7188 0.703411 15.2231C0.806235 15.7274 1.03208 16.1943 1.35845 16.5773C1.68482 16.9604 2.1003 17.2461 2.56349 17.4061C6.84275 18.8976 13.2616 21.1129 17.7133 22.6547C18.2149 22.825 18.7503 22.8509 19.2645 22.73C19.7788 22.6091 20.2535 22.3456 20.6399 21.9665C21.0263 21.5874 21.3107 21.1064 21.4637 20.5727C21.6168 20.0389 21.6332 19.4717 21.5111 18.9291L17.6954 2.29605C17.5959 1.82882 17.3817 1.39763 17.0746 1.04594C16.7676 0.694254 16.3783 0.434488 15.9462 0.29282C15.5141 0.151152 15.0544 0.132584 14.6133 0.238996C14.1723 0.345409 13.7655 0.573039 13.434 0.898944Z" fill="#E8EDFF"/>
<g opacity="0.5">
<path opacity="0.5" d="M13.3314 2.00046C13.3314 2.00046 13.4324 1.78649 13.7771 1.54735C14.3125 1.20657 14.953 1.10259 15.5602 1.25786C16.0069 1.36713 16.4175 1.60192 16.7488 1.93753C17.1258 2.34697 17.3837 2.8625 17.4918 3.42273C17.7652 4.51776 18.0861 5.75753 18.413 7.12317C19.0727 9.8859 19.8572 13.1521 20.7309 16.7833C20.8379 17.2427 20.9449 17.7021 21.0578 18.1678C21.1537 18.5915 21.1693 19.0311 21.1035 19.4612C21.0378 19.8913 20.892 20.3033 20.6747 20.6732C20.4575 21.0432 20.173 21.3638 19.8378 21.6165C19.5026 21.8692 19.1233 22.0489 18.7221 22.1452C18.1647 22.2787 17.5835 22.2505 17.0401 22.0633L15.6315 21.5788L12.7549 20.5844L7.08484 18.6083L4.39247 17.6644L3.73275 17.4315L3.40587 17.3182L3.03737 17.1609C2.68691 16.985 2.37275 16.7375 2.11297 16.4326C1.85318 16.1276 1.6529 15.7713 1.52365 15.3841C1.3944 14.9969 1.33872 14.5865 1.35983 14.1764C1.38093 13.7664 1.47839 13.3648 1.64661 12.9948C1.75626 12.7696 1.88986 12.5585 2.04482 12.3654L2.2885 12.0948L2.5203 11.8746L3.41775 11.025L6.68663 7.94129C8.69551 6.05332 10.324 4.54923 11.4414 3.53602C12.001 2.96102 12.6166 2.45051 13.2779 2.01305C12.8244 2.66157 12.3129 3.26221 11.7504 3.80662C10.6806 4.91423 9.11749 6.50643 7.16805 8.45104L3.97049 11.6291L3.09086 12.4976L2.87096 12.7179L2.69265 12.9193C2.58578 13.0635 2.49411 13.2196 2.41926 13.3849C2.26806 13.733 2.20291 14.116 2.22995 14.498C2.25698 14.88 2.3753 15.2484 2.57379 15.5687C2.77968 15.8948 3.06517 16.1558 3.39992 16.3239L3.66737 16.4372L3.99426 16.5505L4.64804 16.7707L7.3523 17.6958L13.0283 19.6467L15.8989 20.6474L17.3075 21.1382C17.6904 21.2753 18.1014 21.2993 18.4962 21.2075C18.8818 21.1138 19.2374 20.9145 19.5273 20.6295C19.8173 20.3446 20.0315 19.984 20.1485 19.5838C20.2553 19.1926 20.2676 18.7793 20.1841 18.3818C20.0772 17.9161 19.9761 17.4504 19.8751 16.9973C19.0787 13.3472 18.3536 10.0747 17.7473 7.29309L16.9569 3.5549C16.893 3.0777 16.7012 2.62992 16.4041 2.26478C16.1444 1.97084 15.8165 1.75389 15.4532 1.63545C14.9307 1.46344 14.3672 1.49697 13.8663 1.72986C13.5335 1.88719 13.3611 2.03822 13.3314 2.00046Z" fill="white"/>
</g>
<path opacity="0.5" d="M12.9046 5.71307L11.395 11.8238C11.3342 12.0683 11.3614 12.3279 11.4712 12.5523C11.581 12.7768 11.7657 12.95 11.9893 13.0384C12.2201 13.1346 12.477 13.1334 12.707 13.0351C12.937 12.9367 13.1226 12.7487 13.2256 12.5098L15.7337 6.7137C15.7782 6.60994 15.8014 6.49736 15.8018 6.38339C15.8022 6.26943 15.7797 6.15669 15.7359 6.0526C15.6921 5.94851 15.6279 5.85544 15.5476 5.77956C15.4673 5.70367 15.3727 5.64669 15.2701 5.61238L13.8853 5.15297C13.7863 5.11642 13.6812 5.10211 13.5767 5.11093C13.4723 5.11975 13.3706 5.15151 13.2784 5.2042C13.1861 5.25689 13.1053 5.32935 13.0409 5.41697C12.9766 5.50458 12.9301 5.60542 12.9046 5.71307Z" fill="white"/>
<path opacity="0.5" d="M12.393 16.657C12.2214 16.9001 11.9856 17.0839 11.7155 17.1852C11.4453 17.2865 11.1528 17.3007 10.875 17.2261C10.5971 17.1515 10.3464 16.9914 10.1545 16.7661C9.96253 16.5407 9.83797 16.2601 9.79651 15.9598C9.75504 15.6595 9.79855 15.353 9.92153 15.0788C10.0445 14.8047 10.2414 14.5753 10.4875 14.4196C10.7335 14.2639 11.0176 14.1889 11.3038 14.2041C11.5901 14.2192 11.8657 14.3238 12.0958 14.5047C12.2491 14.6252 12.3784 14.7765 12.4763 14.9499C12.5742 15.1234 12.6388 15.3156 12.6664 15.5156C12.694 15.7155 12.6841 15.9193 12.6371 16.1152C12.5902 16.311 12.5073 16.4952 12.393 16.657Z" fill="white"/>
<path d="M59.1014 4.47395L56.4031 17.501C56.3208 17.8944 56.3373 18.3038 56.4511 18.6883C56.565 19.0729 56.7721 19.419 57.0518 19.6923C57.3315 19.9655 57.6741 20.1563 58.0452 20.2455C58.4163 20.3347 58.8031 20.3193 59.1668 20.2008L71.0536 16.3304C71.4473 16.2009 71.8012 15.9625 72.0789 15.6399C72.3566 15.3172 72.548 14.922 72.6334 14.495C72.7188 14.0679 72.6951 13.6245 72.5647 13.2104C72.4343 12.7963 72.202 12.4265 71.8916 12.1391L62.3822 3.32857C62.1194 3.08629 61.8016 2.92055 61.4601 2.84763C61.1185 2.7747 60.7649 2.79711 60.434 2.91264C60.103 3.02817 59.8062 3.23284 59.5726 3.50658C59.3389 3.78031 59.1766 4.11368 59.1014 4.47395Z" fill="#E8EDFF"/>
<g opacity="0.5">
<path opacity="0.5" d="M59.5073 5.22271C59.5073 5.22271 59.4657 5.03392 59.5846 4.71296C59.678 4.47434 59.8155 4.25789 59.989 4.07633C60.1625 3.89476 60.3685 3.75175 60.595 3.6557C60.9295 3.51012 61.2949 3.4623 61.6529 3.51725C62.0805 3.60726 62.4746 3.82574 62.7881 4.14657L64.9574 6.03455L70.5561 11.0691L71.3585 11.7992C71.6871 12.1042 71.935 12.4946 72.0776 12.9319C72.2224 13.3835 72.2519 13.8674 72.1632 14.3349C72.0745 14.8024 71.8707 15.2367 71.5725 15.594C71.258 15.9579 70.8581 16.2271 70.4135 16.3744L69.308 16.7394L67.0495 17.4757L62.592 18.9168L60.488 19.5965L59.9709 19.7601L59.7153 19.8419L59.4003 19.9175C58.9752 19.9918 58.539 19.9395 58.1403 19.7664C57.7593 19.6045 57.4244 19.3409 57.1682 19.0012C56.9119 18.6615 56.7431 18.2574 56.6783 17.8281C56.6541 17.6191 56.6541 17.4078 56.6783 17.1988L56.7199 16.8967L56.7734 16.645L56.9873 15.6758C57.2726 14.4172 57.5341 13.2277 57.7778 12.1516C58.2652 9.993 58.6812 8.25606 58.9665 7.05405C59.0891 6.41697 59.2888 5.79932 59.5608 5.21642C59.5682 5.85297 59.4962 6.48776 59.3468 7.1044C59.1507 8.36305 58.8357 10.0937 58.4316 12.2649L57.754 15.8206C57.6886 16.1415 57.6292 16.4499 57.5638 16.7897L57.5163 17.0351V17.2428C57.5015 17.3766 57.5015 17.5118 57.5163 17.6456C57.5642 17.9259 57.6789 18.1886 57.8494 18.4088C58.02 18.6291 58.2408 18.7996 58.491 18.9042C58.7467 19.0071 59.0238 19.0353 59.2934 18.9861L59.4954 18.9294L59.751 18.8476L60.2681 18.6777L62.3839 17.9728L66.8355 16.5128L69.0941 15.7828L70.2055 15.4241C70.4928 15.3361 70.7518 15.1663 70.9543 14.9332C71.1482 14.7035 71.2815 14.4238 71.341 14.1222C71.4005 13.8206 71.384 13.5078 71.2931 13.2151C71.2061 12.9287 71.0481 12.6722 70.8355 12.4725L69.9975 11.7362C67.941 9.77903 66.0926 8.01692 64.5236 6.53171L62.4434 4.51158C62.234 4.25629 61.959 4.07098 61.6519 3.97824C61.3448 3.88549 61.0189 3.88932 60.7138 3.98924C60.3157 4.12388 59.975 4.4023 59.751 4.7759C59.5905 5.06539 59.5489 5.2353 59.5073 5.22271Z" fill="#E8EDFF"/>
</g>
<path opacity="0.5" d="M60.8156 7.79653L62.4441 12.4221C62.5097 12.6045 62.6357 12.7555 62.7986 12.8469C62.9615 12.9384 63.1502 12.9641 63.3297 12.9192C63.5241 12.8796 63.6958 12.76 63.8072 12.5866C63.9186 12.4132 63.9606 12.2002 63.924 11.9941L63.0622 7.09798C63.0467 7.01073 63.0139 6.92792 62.9661 6.85502C62.9182 6.78213 62.8563 6.72078 62.7845 6.67501C62.7126 6.62924 62.6324 6.6001 62.5492 6.58948C62.4659 6.57886 62.3815 6.58701 62.3014 6.6134L61.2197 6.97841C61.1407 7.00114 61.067 7.04091 61.0032 7.09522C60.9394 7.14953 60.8869 7.21721 60.8489 7.29402C60.811 7.37083 60.7885 7.45512 60.7827 7.54159C60.777 7.62806 60.7882 7.71486 60.8156 7.79653Z" fill="white"/>
<path opacity="0.5" d="M65.1402 15.0276C65.1296 15.2639 65.0534 15.4917 64.9211 15.6823C64.7888 15.873 64.6063 16.018 64.3964 16.0994C64.1866 16.1807 63.9588 16.1946 63.7415 16.1394C63.5242 16.0842 63.3272 15.9624 63.175 15.7892C63.0228 15.6159 62.9224 15.399 62.8861 15.1655C62.8499 14.932 62.8795 14.6925 62.9713 14.4768C63.0631 14.2611 63.213 14.0788 63.4021 13.9529C63.5913 13.827 63.8114 13.763 64.0347 13.7689C64.1859 13.7729 64.3348 13.8089 64.4726 13.8747C64.6105 13.9405 64.7346 14.0347 64.8376 14.152C64.9405 14.2692 65.0203 14.4071 65.0723 14.5574C65.1243 14.7078 65.1474 14.8676 65.1402 15.0276Z" fill="white"/>
<path d="M8.60733 62.1703C8.45228 62.0539 8.31239 61.9164 8.19128 61.7613C8.03185 61.5957 7.88294 61.4191 7.74552 61.2326C7.58505 61.0187 7.38892 60.7795 7.21062 60.49C6.77034 59.8212 6.38839 59.1113 6.06949 58.3692C5.68849 57.4556 5.39192 56.5051 5.18391 55.531C4.99127 54.5517 4.89172 53.5545 4.88674 52.5542C4.88525 51.7392 4.9569 50.9258 5.1007 50.1251C5.14825 49.7789 5.2374 49.4957 5.29684 49.2125C5.34841 48.9831 5.41595 48.758 5.49891 48.5392C5.54791 48.3448 5.62191 48.1584 5.71883 47.9854C5.77826 47.9854 5.50486 48.8098 5.31467 50.1628C5.20985 50.9529 5.16216 51.7502 5.17202 52.548C5.19476 53.5272 5.30019 54.5024 5.48703 55.4617C5.68871 56.4139 5.97118 57.3449 6.331 58.2433C6.63084 58.9776 6.98664 59.6848 7.39487 60.3579C8.09025 61.5096 8.64893 62.1263 8.60733 62.1703Z" fill="#000091"/>
<path d="M13.7844 62.9632C13.6018 62.8719 13.4302 62.7578 13.2732 62.6233C13.0798 62.4807 12.8952 62.3252 12.7205 62.1576C12.4799 61.9459 12.2498 61.7212 12.0311 61.4843C11.459 60.8705 10.9436 60.2004 10.4917 59.483C9.94599 58.5951 9.4917 57.6478 9.13663 56.6574C8.79401 55.6634 8.55097 54.634 8.41154 53.5862C8.30291 52.7312 8.27702 51.8666 8.33427 51.006C8.34901 50.6748 8.38275 50.3449 8.43531 50.018C8.46546 49.7701 8.50912 49.5242 8.56606 49.2817C8.60022 49.0655 8.65806 48.8543 8.73842 48.6523C8.80379 48.6523 8.59578 49.546 8.55417 50.9934C8.53189 51.8351 8.57763 52.6773 8.69088 53.5107C8.84365 54.5337 9.08844 55.5389 9.42192 56.5126C9.7747 57.479 10.2125 58.4082 10.7295 59.2879C11.1613 60.0004 11.6505 60.6721 12.1916 61.2955C13.1187 62.3842 13.82 62.9128 13.7844 62.9632Z" fill="#000091"/>
<path d="M69.0628 56.2612C69.0093 56.2297 69.4729 55.355 69.9959 53.8446C70.3013 52.9593 70.5495 52.0531 70.7389 51.1322C70.9656 50.0067 71.1087 48.8641 71.1668 47.715C71.2094 46.564 71.1716 45.4113 71.0539 44.2663C70.9464 43.3303 70.7796 42.4032 70.5546 41.4909C70.1742 39.9365 69.7879 39.0114 69.8473 38.9736C69.9709 39.1694 70.0707 39.3808 70.1445 39.603C70.3939 40.1881 70.6025 40.7917 70.7686 41.4091C71.0245 42.3258 71.2133 43.2621 71.3332 44.2096C71.6291 46.5349 71.5223 48.8978 71.0182 51.1825C70.8147 52.1121 70.5425 53.0232 70.204 53.9075C69.9766 54.5124 69.7085 55.0992 69.4016 55.6633C69.3111 55.8759 69.1974 56.0766 69.0628 56.2612Z" fill="#000091"/>
<path d="M73.8345 54.9644C73.781 54.9644 74.1555 54.2218 74.5477 52.982C74.7818 52.2595 74.9626 51.5189 75.0886 50.7668C75.2325 49.8453 75.306 48.9129 75.3085 47.9789C75.2964 47.0455 75.2089 46.1149 75.047 45.1973C74.9091 44.4476 74.7204 43.7093 74.4823 42.9883C74.0663 41.7612 73.6859 41.05 73.7394 41.0186C73.863 41.1606 73.9652 41.3219 74.0425 41.4968C74.2934 41.9469 74.5081 42.4184 74.6844 42.9065C74.9605 43.6275 75.1753 44.373 75.3263 45.1343C75.5076 46.0707 75.6051 47.0231 75.6175 47.9789C75.6145 48.9331 75.531 49.885 75.3679 50.8234C75.2315 51.5871 75.0326 52.3367 74.7736 53.0638C74.6003 53.5542 74.3917 54.0297 74.1495 54.4861C74.0696 54.6625 73.9632 54.824 73.8345 54.9644Z" fill="#000091"/>
</g>
<defs>
<clipPath id="clip0_8248_22574">
<rect width="75" height="62.7815" fill="white" transform="translate(0.625 0.181641)"/>
</clipPath>
</defs>
</svg>
