<svg fill="none" height="61" viewBox="0 0 62 61" width="62" xmlns="http://www.w3.org/2000/svg"><path d="m34.185 60.4473c14.8971 0 26.998-12.0765 27.0281-26.9735.03-14.8971-12.0221-26.97356-26.9192-26.97356s-26.99796 12.07646-27.02803 26.97356c-.03007 14.897 12.02203 26.9735 26.91913 26.9735z" fill="#efc73f"/><path d="m8.81025 5.85901h-6.10993c-.58563 0-1.14727.23311-1.56138.64805-.414105.41494-.646752.97773-.646752 1.56455v35.18029c0 .5868.232647 1.1496.646752 1.5645.41411.415.97575.6481 1.56138.6481h42.19308c.5856 0 1.1473-.2331 1.5614-.6481.4141-.4149.6467-.9777.6467-1.5645v-35.18029c0-.58682-.2326-1.14961-.6467-1.56455s-.9758-.64805-1.5614-.64805z" fill="#fff"/><path d="m44.8936 45.9712h-42.19305c-.71567-.0006-1.4019-.2855-1.90816-.7924-.506262-.5069-.79122084-1.1943-.79239-1.9114v-35.18028c.00116782-.71732.286057-1.40492.792255-1.91215.506195-.50722 1.192415-.79269 1.908295-.79386h6.10992c.12289.00832.23802.0631.32214.15327.08411.09016.13091.20898.13091.3324s-.0468.24223-.13091.33239c-.08412.09017-.19925.14495-.32214.15327h-6.10992c-.45914 0-.89947.18276-1.22413.50808-.32466.32531-.507045.76654-.507045 1.2266v35.18028c.000584.4599.183165.9008.507695 1.226s.76452.5081 1.22348.5087h42.19305c.459-.0006.899-.1835 1.2235-.5087s.5071-.7661.5077-1.226v-35.18028c-.0006-.45988-.1832-.90077-.5077-1.22596-.3245-.32518-.7645-.50814-1.2235-.50872h-18.8509c-.0664.00449-.133-.00473-.1956-.02711-.0627-.02237-.1202-.05741-.1688-.10295s-.0874-.1006-.1139-.16177-.0402-.12714-.0402-.19383.0137-.13267.0402-.19384.0653-.11623.1139-.16177.1061-.08058.1688-.10295c.0626-.02238.1292-.0316.1956-.02711h18.8509c.7157.00117 1.4017.28671 1.9075.794.5059.50728.7903 1.1949.7909 1.91201v35.18028c-.0006.7169-.2851 1.4043-.791 1.9113-.5059.5069-1.1919.7919-1.9074.7925z" fill="#dea81e"/><path d="m11.3984 6.80378c0 3.48702 6.3043 11.87502 6.3043 11.87502s6.3042-8.388 6.3042-11.87502c0-.82955-.1631-1.65098-.4799-2.41739s-.7812-1.46279-1.3666-2.04938c-.5854-.58658-1.2803-1.05189-2.0452-1.369348-.7649-.317457-1.5847-.480846-2.4125-.480846-.8279 0-1.6477.163389-2.4126.480846-.7648.317458-1.4598.782768-2.0452 1.369348-.5854.58659-1.0498 1.28297-1.3666 2.04938s-.4799 1.58784-.4799 2.41739z" fill="#4550e5"/><path d="m17.7041 19.1633c-.0749.0003-.1489-.017-.2159-.0504-.0671-.0334-.1255-.0821-.1705-.1421-.2606-.3474-6.4036-8.5583-6.4036-12.16928 0-1.80387.7151-3.53387 1.9881-4.8094 1.2729-1.275532 2.9994-1.99212 4.7997-1.99212 1.8002 0 3.5267.716588 4.7997 1.99212 1.273 1.27553 1.9881 3.00553 1.9881 4.8094 0 3.60878-6.1386 11.81968-6.4036 12.16928-.0446.0594-.1022.1077-.1685.1411s-.1393.051-.2135.0514zm0-18.191966c-1.5432.001756-3.0227.616806-4.1139 1.710216-1.0912 1.0934-1.705 2.57588-1.7068 4.12219 0 2.80115 4.4627 9.18006 5.8207 11.06296 1.358-1.8763 5.8207-8.25518 5.8207-11.06296-.0006-1.54688-.614-3.03026-1.7054-4.12427-1.0914-1.09402-2.5716-1.709179-4.1153-1.710351z" fill="#dea81e"/><path d="m14.3125 6.74176c.0004.65983.1961 1.30471.5623 1.85311.3661.54841.8863.97573 1.4948 1.22793s1.278.318 1.9237.189c.6458-.12903 1.239-.44698 1.7044-.9137.4655-.46672.7824-1.06125.9107-1.70843.1283-.64717.0623-1.31794-.1898-1.92749s-.6789-1.13053-1.2265-1.49706c-.5475-.36653-1.1912-.56217-1.8497-.56217-.8834.00059-1.7303.35261-2.3547.9787-.6244.62608-.9752 1.47499-.9752 2.36011z" fill="#fff"/><path d="m17.6382 10.5651c-.7549.0004-1.4929-.2235-2.1207-.64345s-1.1172-1.01706-1.4063-1.71578-.3648-1.46766-.2177-2.20953c.1472-.74186.5106-1.42333 1.0444-1.95817s1.2138-.89902 1.9542-1.04648c.7404-.14745 1.5078-.07155 2.2051.21811s1.2932.78004 1.7123 1.40913.6426 1.36861.6421 2.12499c-.0011 1.01307-.4033 1.98432-1.1182 2.70067-.7149.71631-1.6842 1.11931-2.6952 1.12051zm0-6.67322c-.563 0-1.1133.16727-1.5813.48065-.4681.31339-.8329.75882-1.0483 1.27996-.2155.52114-.2718 1.09459-.162 1.64783s.3809 1.06143.779 1.46029c.398.39887.9052.6705 1.4573.78054.5521.11005 1.1244.05358 1.6445-.16229.5201-.21586.9646-.58142 1.2774-1.05044.3127-.46901.4797-1.02042.4797-1.5845-.0006-.75623-.3007-1.48132-.8343-2.01605-.5337-.53474-1.2573-.83541-2.012-.83599z" fill="#dea81e"/><path d="m31.293 20.9356c0 3.4893 6.3042 11.8772 6.3042 11.8772s6.3042-8.3879 6.3042-11.8772c0-1.6753-.6642-3.2821-1.8464-4.4668-1.1823-1.1846-2.7858-1.8501-4.4578-1.8501s-3.2755.6655-4.4578 1.8501c-1.1822 1.1847-1.8464 2.7915-1.8464 4.4668z" fill="#4550e5"/><path d="m37.5947 33.2973c-.0749.0003-.1489-.017-.216-.0504-.067-.0334-.1254-.082-.1704-.1421-.2606-.3473-6.4036-8.5583-6.4036-12.1692 0-1.8039.7151-3.5339 1.9881-4.8094 1.273-1.2756 2.9995-1.9922 4.7997-1.9922s3.5267.7166 4.7997 1.9922c1.273 1.2755 1.9881 3.0055 1.9881 4.8094 0 3.6109-6.1386 11.8219-6.4036 12.1692-.0446.0595-.1022.1077-.1685.1411s-.1393.051-.2135.0514zm0-18.1919c-1.5428.0017-3.022.6165-4.1131 1.7094s-1.7052 2.5748-1.7075 4.1208c0 2.8033 4.4626 9.1822 5.8206 11.0629 1.358-1.8762 5.8206-8.2552 5.8206-11.0629-.0017-1.5462-.6156-3.0284-1.7069-4.1215-1.0912-1.093-2.5707-1.7076-4.1137-1.7087z" fill="#dea81e"/><path d="m34.2031 20.8825c0 .6599.1953 1.305.5612 1.8537s.8859.9764 1.4944 1.2289c.6084.2525 1.278.3186 1.9239.1899.646-.1288 1.2393-.4465 1.705-.9132.4657-.4666.7828-1.0611.9113-1.7084.1285-.6472.0625-1.3181-.1895-1.9278s-.6788-1.1308-1.2264-1.4974-1.1914-.5623-1.85-.5623c-.8832 0-1.7301.3515-2.3546.9773-.6245.6257-.9753 1.4744-.9753 2.3593z" fill="#fff"/><g fill="#dea81e"><path d="m37.5327 24.6992c-.7551.0005-1.4932-.2236-2.1212-.6437-.6279-.4202-1.1173-1.0175-1.4062-1.7165-.289-.699-.3644-1.4681-.2169-2.2101s.5114-1.4235 1.0456-1.9581c.5342-.5347 1.2147-.8985 1.9553-1.0455.7407-.1469 1.5082-.0704 2.2054.2199.6973.2904 1.2929.7814 1.7115 1.4111.4185.6297.6412 1.3696.6399 2.1262-.0023 1.0123-.405 1.9824-1.1197 2.6978-.7148.7154-1.6834 1.1178-2.6937 1.1189zm0-6.6754c-.5627 0-1.1127.1671-1.5806.4802-.468.3131-.8328.7582-1.0484 1.2789-.2156.5208-.2724 1.0939-.1631 1.6469.1093.5531.3797 1.0613.7771 1.4604s.904.6713 1.4557.7821c.5516.1108 1.1237.0552 1.6439-.1596s.9652-.5794 1.2788-1.0475c.3135-.4681.4816-1.0189.4829-1.5827.0006-.375-.0726-.7465-.2154-1.0931-.1427-.3467-.3523-.6618-.6166-.9272-.2643-.2655-.5783-.4762-.9239-.6201-.3456-.1438-.7162-.218-1.0904-.2183z"/><path d="m37.1136 45.9711c-.1283 0-.2513-.051-.342-.1419s-.1416-.2141-.1416-.3426v-10.001c-.0045-.0665.0047-.1333.027-.1961.0224-.0628.0574-.1203.1028-.1691.0454-.0487.1004-.0875.1615-.1141.061-.0265.1268-.0402.1934-.0402.0665 0 .1324.0137.1934.0402.0611.0266.116.0654.1615.1141.0454.0488.0804.1063.1027.1691s.0316.1296.0271.1961v10.001c-.0006.1287-.0521.2519-.1431.3427-.091.0909-.2143.1418-.3427.1418z"/><path d="m37.1164 13.435c-.1283 0-.2513-.0511-.342-.1419-.0907-.0909-.1416-.2142-.1416-.3427v-7.08029c.0083-.12314.063-.23853.153-.32281.0899-.08428.2085-.13116.3317-.13116s.2417.04688.3317.13116.1447.19967.153.32281v7.08029c-.0006.1287-.0521.252-.1431.3428s-.2143.1418-.3427.1418z"/><path d="m28.7883 45.9711c-.1283 0-.2513-.0511-.342-.1419-.0907-.0909-.1416-.2142-.1416-.3427v-9.3216c0-.1286.0509-.2518.1416-.3427s.2137-.1419.342-.1419c.1282 0 .2512.051.3419.1419s.1417.2141.1417.3427v9.3216c0 .1285-.051.2518-.1417.3427-.0907.0908-.2137.1419-.3419.1419z"/><path d="m28.7883 24.5399c-.1283 0-.2513-.051-.342-.1419s-.1416-.2141-.1416-.3426v-18.19645c0-.12851.0509-.25177.1416-.34264s.2137-.14192.342-.14192c.1282 0 .2512.05105.3419.14192s.1417.21413.1417.34264v18.19645c0 .1285-.051.2517-.1417.3426s-.2137.1419-.3419.1419z"/><path d="m28.7895 24.5399c-.063.0003-.1255-.0118-.1839-.0357-.0583-.024-.1114-.0592-.1561-.1037l-6.9579-6.9077c-.0913-.0904-.1431-.2134-.1439-.3421-.0009-.1286.0493-.2523.1395-.3438.0902-.0916.213-.1435.3414-.1443.1283-.0008.2518.0495.3431.1398l6.9579 6.9078c.045.045.0807.0984.105.1573.0244.0588.0369.1219.0369.1856s-.0125.1268-.0369.1857c-.0243.0588-.06.1123-.105.1573-.0444.0453-.0973.0813-.1557.106-.0583.0247-.121.0375-.1844.0378z"/><path d="m8.81172 11.7666c-.06351 0-.1264-.0125-.18507-.0369s-.11197-.06-.15688-.105c-.0449-.045-.08052-.0985-.10482-.1572-.02431-.0588-.03683-.1218-.03683-.1855v-5.42305c.00001-.12851.05096-.25177.14165-.34264s.21369-.14192.34195-.14192c.12825 0 .25123.05105.34192.14192s.14164.21413.14164.34264v5.42305c0 .1285-.05095.2518-.14164.3427-.09069.0908-.21367.1419-.34192.1419z"/><path d="m28.7923 36.6518c-.0663 0-.132-.0138-.1928-.0405-.0608-.0266-.1154-.0656-.1605-.1144l-15.4216-16.5414c-.0878-.0942-.1348-.2194-.1304-.3483.0043-.1288.0596-.2507.1536-.3387s.219-.135.3476-.1306c.1286.0043.2502.0597.338.1538l15.4194 16.5414c.0875.0941.1343.219.1301.3475-.0041.1286-.0588.2502-.1521.3384-.0899.0844-.2081.1318-.3313.1328z"/><path d="m9.47992 45.9711c-.06642.0004-.13219-.0132-.19305-.0398-.06085-.0267-.11544-.0659-.16024-.1151l-8.995946-9.6889c-.0434965-.0467-.0773847-.1014-.0997596-.1612-.02237499-.0597-.03280059-.1233-.03064763-.1871.00215297-.0638.01682843-.1266.04318153-.1847.0263532-.0581.0638657-.1104.1104067-.154s.101195-.0776.160839-.1.123131-.0329.186797-.0307.126267.0169.184263.0433.110227.064.153723.1106l8.995973 9.6912c.08691.0946.13289.2199.12793.3484-.00497.1285-.0605.2499-.15446.3375-.08903.084-.20673.1307-.32901.1305z"/><path d="m3.23485 28.0602c-.06614-.0002-.13159-.0138-.19232-.04-.06074-.0262-.11551-.0646-.161-.1127l-2.74912-2.9051c-.0736912-.0958-.1092054-.2155-.0996251-.336.0095802-.1205.0635745-.2332.1514591-.316.087884-.0828.203373-.1299.323996-.1321.120623-.0021.237757.0407.328578.1203l2.749112 2.9073c.08776.0938.13492.2186.13119.3471-.00372.1285-.05802.2503-.15105.3388-.08993.0837-.20849.1297-.33122.1284z"/><path d="m20.1752 45.971c-.0656 0-.1305-.0133-.1909-.0392-.0603-.0258-.1148-.0637-.1601-.1112l-4.7784-5.0514c-.0789-.0947-.1187-.2161-.1113-.3392.0073-.1232.0613-.2389.1508-.3235.0896-.0847.208-.1319.3311-.1321.1232-.0002.2417.0467.3315.131l4.7784 5.0514c.0653.0687.1091.1552.1258.2486s.0057.1896-.0317.2768-.0995.1615-.1786.2136c-.0792.0521-.1718.0798-.2666.0797z"/><path d="m8.81047 11.7666h-8.326901c-.128254 0-.251259-.051-.341949-.1419-.0906888-.0909-.14162-.2141-.14162-.3427 0-.1285.0509312-.2517.14162-.3426.09069-.0909.213695-.1419.341949-.1419h8.326901c.12825 0 .25123.051.34192.1419s.14164.2141.14164.3426c0 .1286-.05095.2518-.14164.3427s-.21367.1419-.34192.1419z"/><path d="m13.371 20.1104h-12.886694c-.122893-.0083-.238026-.0631-.322137-.1533-.0841107-.0902-.130919-.209-.130919-.3324s.0468083-.2422.130919-.3324c.084111-.0902.199244-.1449.322137-.1533h12.886694c.0664-.0044.133.0048.1957.0271.0627.0224.1201.0575.1688.103.0486.0455.0873.1006.1138.1618.0266.0612.0402.1271.0402.1938s-.0136.1327-.0402.1938c-.0265.0612-.0652.1163-.1138.1618-.0487.0456-.1061.0806-.1688.103-.0627.0223-.1293.0316-.1957.0271z"/><path d="m47.1089 35.9613h-9.9918c-.1229-.0083-.238-.0631-.3221-.1532-.0842-.0902-.1309-.209-.1309-.3324 0-.1235.0467-.2423.1309-.3324.0841-.0902.1992-.145.3221-.1533h9.9918c.1229.0083.2381.0631.3222.1533.0841.0901.1309.2089.1309.3324 0 .1234-.0468.2422-.1309.3324-.0841.0901-.1993.1449-.3222.1532z"/><path d="m47.1071 27.2017h-3.3298c-.1229-.0083-.2381-.0631-.3222-.1533s-.1309-.209-.1309-.3324.0468-.2422.1309-.3324.1993-.1449.3222-.1533h3.3298c.1229.0084.2381.0631.3222.1533s.1309.209.1309.3324-.0468.2422-.1309.3324-.1993.145-.3222.1533z"/></g><path d="m5.17969 30.2706c0 3.4892 6.30421 11.8772 6.30421 11.8772s6.3042-8.388 6.3042-11.8772c0-1.6754-.6642-3.2821-1.8464-4.4668-1.1823-1.1847-2.7858-1.8502-4.4578-1.8502-1.67197 0-3.27549.6655-4.45776 1.8502s-1.84645 2.7914-1.84645 4.4668z" fill="#4550e5"/><path d="m11.4814 42.6323c-.0751-.0002-.1491-.0178-.2161-.0516-.0671-.0338-.1254-.0828-.1703-.1431-.2606-.3474-6.40359-8.5561-6.40359-12.1693 0-1.8039.71514-3.5338 1.9881-4.8094 1.27296-1.2755 2.99946-1.9921 4.79969-1.9921 1.8003 0 3.5268.7166 4.7997 1.9921 1.273 1.2756 1.9881 3.0055 1.9881 4.8094 0 3.611-6.1386 11.8197-6.4036 12.1693-.0444.0597-.102.1083-.1683.1421-.0662.0338-.1394.0518-.2137.0526zm0-18.192c-1.54279.0018-3.02195.6165-4.11309 1.7095-1.09114 1.0929-1.70519 2.5748-1.70753 4.1207 0 2.8034 4.46262 9.1823 5.82062 11.063 1.358-1.8741 5.8207-8.2552 5.8207-11.063-.0018-1.5461-.6157-3.0283-1.7069-4.1214-1.0913-1.093-2.5708-1.7076-4.1138-1.7088z" fill="#dea81e"/><path d="m8.08203 30.2109c0 .6599.19528 1.305.56117 1.8537s.88595.9763 1.4944 1.2289c.6085.2525 1.278.3186 1.9239.1899.646-.1288 1.2393-.4466 1.705-.9132s.7828-1.0612.9113-1.7084.0625-1.3181-.1895-1.9278-.6788-1.1308-1.2264-1.4974-1.1914-.5623-1.85-.5623c-.8831 0-1.73009.3515-2.35456.9772-.62448.6258-.97531 1.4744-.97531 2.3594z" fill="#fff"/><path d="m11.4111 34.032c-.7542 0-1.49153-.2241-2.11865-.644s-1.11587-1.0167-1.40451-1.7149c-.28863-.6982-.36415-1.4665-.21701-2.2078.14714-.7412.51034-1.4221 1.04366-1.9565s1.21282-.8983 1.95251-1.0457c.7398-.1475 1.5065-.0718 2.2034.2174.6968.2892 1.2923.779 1.7114 1.4074.419.6284.6427 1.3672.6427 2.1229-.0012 1.0131-.4034 1.9843-1.1183 2.7007-.7149.7163-1.6842 1.1193-2.6952 1.1205zm0-6.6732c-.5629 0-1.1132.1672-1.5813.4806-.46807.3134-.8329.7588-1.04833 1.28-.21543.5211-.2718 1.0946-.16197 1.6478.10982.5533.3809 1.0614.77896 1.4603.39807.3989.90524.6705 1.45734.7805.5522.1101 1.1245.0536 1.6445-.1622.5201-.2159.9646-.5815 1.2774-1.0505s.4797-1.0204.4797-1.5845c-.0006-.7562-.3007-1.4813-.8343-2.016-.5337-.5348-1.2573-.8354-2.012-.836z" fill="#dea81e"/></svg>