<svg fill="none" height="33" viewBox="0 0 33 33" width="33" xmlns="http://www.w3.org/2000/svg" xmlns:xlink="http://www.w3.org/1999/xlink"><clipPath id="a"><path d="m0 0h32.9v32.9h-32.9z"/></clipPath><g clip-path="url(#a)"><path d="m31.6439 22.7492c3.4767-8.3935-.5091-18.01621-8.9027-21.49292-8.3935-3.47672-18.01622.50914-21.49293 8.90262-3.47671 8.3936.50916 18.0163 8.90273 21.493 8.3935 3.4767 18.0162-.5091 21.4929-8.9027z" fill="#f7ffe9"/><path d="m5.06971 16.84 8.50999 8.5c.266.2638.6254.4118 1 .4118s.7341-.148 1-.4118l.42-.42 1.11-1.11 9.86-9.86c.2638-.266.4119-.6254.4119-1s-.1481-.7341-.4119-1l-1.43-1.44c-.2684-.2591-.6269-.4038-1-.4038s-.7316.1447-1 .4038l-8.85 8.85-6.05999-6.06c-.26596-.2638-.6254-.4118-1-.4118-.37461 0-.73404.148-1 .4118l-1.53 1.53c-.2661.265-.41816.6234-.42377.9989-.0056.3755.1357.7383.39377 1.0111z" fill="#ffa904"/></g></svg>