<svg xmlns="http://www.w3.org/2000/svg" width="21" height="22" fill="none"><path fill="#000" d="M10.302.697C4.612.697 0 5.31 0 11c0 5.69 4.613 10.302 10.302 10.302 5.689 0 10.302-4.613 10.302-10.302C20.604 5.31 15.99.697 10.302.697Z"/><path fill="#fff" d="M10.302 17.998a4.853 4.853 0 0 1-4.853-4.853c0-2.68 4.853-9.387 4.853-9.387s4.853 6.705 4.853 9.387a4.852 4.852 0 0 1-4.853 4.853Z"/><path fill="#000" d="M6.34 13.078c.048.713.588.966 1.036.966.518 0 1.076-.331 1.076-1.06V8.502c-1.287 2.03-2.12 3.749-2.12 4.413 0 .054.002.109.005.163h.002Z"/></svg>