<svg fill="none" height="84" viewBox="0 0 83 84" width="83" xmlns="http://www.w3.org/2000/svg" xmlns:xlink="http://www.w3.org/1999/xlink"><clipPath id="a"><path d="m0 0h82.5v83.63h-82.5z"/></clipPath><g clip-path="url(#a)"><path d="m11.9805 39.97c0-6.0719 1.8006-12.0074 5.1739-17.056 3.3734-5.0486 8.168-8.9835 13.7777-11.3071 5.6097-2.32358 11.7825-2.93154 17.7377-1.74698 5.9552 1.18458 11.4254 4.10848 15.7189 8.40198 4.2934 4.2934 7.2174 9.7636 8.4019 15.7189 1.1846 5.9552.5766 12.1279-1.747 17.7376s-6.2584 10.4044-11.307 13.7778c-5.0486 3.3733-10.9842 5.1738-17.0561 5.1738-4.0319.0014-8.0247-.7918-11.75-2.3342-3.7252-1.5423-7.1101-3.8036-9.9611-6.6546-2.8511-2.8511-5.1123-6.2359-6.6547-9.9612s-2.3355-7.718-2.3342-11.75z" fill="#efc73f"/><path d="m56.8003 74.23-15.71-9.61-15.57-9.77c-2.5415 4.1539-3.3348 9.1451-2.2063 13.8823 1.1285 4.7371 4.0871 8.8346 8.2285 11.3964 4.1415 2.5618 9.1288 3.3794 13.8714 2.274s8.8544-4.0438 11.4364-8.1727" fill="#fff"/><path d="m40.9802 63.41 2.9-17.46c-.8419-.1127-1.6905-.1695-2.54-.17-3.0409.0005-6.0343.7542-8.7129 2.1938s-4.9589 3.5203-6.6371 6.0562z" fill="#fff"/><path d="m57.2999 73.4c1.4691-2.542 2.3089-5.3985 2.4494-8.3311.1404-2.9326-.4226-5.8563-1.642-8.5271-1.2194-2.6707-3.0598-5.0111-5.3678-6.8258s-5.0166-3.0511-7.8997-3.606l-3 17.85z" fill="#4550e5"/><g fill="#dea81e"><path d="m41.3305 45.8c-3.6416 0-7.2014 1.08-10.2291 3.1034-3.0278 2.0233-5.3874 4.8992-6.7805 8.2637-1.3932 3.3646-1.7571 7.0668-1.0459 10.6382.7111 3.5715 2.4654 6.8518 5.0411 9.4261s5.857 4.3269 9.4288 5.0361c3.5719.7092 7.2739.3432 10.6377-1.0517 3.3638-1.395 6.2383-3.7562 8.26-6.785s3.0998-6.5892 3.0978-10.2308c-.0053-4.88-1.9469-9.5586-5.3986-13.0084-3.4516-3.4498-8.1312-5.3889-13.0113-5.3916zm0 37.83c-3.8429 0-7.5996-1.1395-10.7948-3.2745-3.1953-2.135-5.6856-5.1696-7.1563-8.7199-1.4706-3.5504-1.8554-7.4571-1.1057-11.2262.7497-3.769 2.6003-7.2311 5.3177-9.9485 2.7173-2.7173 6.1794-4.5678 9.9484-5.3175 3.7691-.7497 7.6758-.365 11.2261 1.1057 3.5504 1.4706 6.585 3.961 8.72 7.1562s3.2745 6.9519 3.2745 10.7947c-.0053 5.1516-2.0541 10.0906-5.6968 13.7333-3.6426 3.6426-8.5816 5.6914-13.7331 5.6967z"/><path d="m41.3306 64.71c-.0946.0007-.1877-.0234-.27-.07l-16-10c-.1153-.0704-.1979-.1836-.2298-.3148-.0318-.1313-.0104-.2698.0597-.3852.0739-.1142.1897-.195.3224-.2249s.2718-.0066.3876.0649l16 10c.0934.0596.165.1481.2037.2519.0387.1039.0425.2175.0109.3237-.0317.1063-.0971.1993-.1863.2651-.0893.0657-.1974.1006-.3082.0993"/><path d="m57.5209 74.59c-.0953-.0032-.1883-.0307-.27-.08l-16.13-9.87c-.0865-.0536-.1553-.1315-.198-.224-.0427-.0924-.0573-.1953-.042-.296l3.1-18.66c.0342-.1199.1113-.2231.2165-.2901s.2314-.0931.3545-.0734c.1232.0197.2348.0839.3139.1803.079.0965.1199.2186.1151.3432l-3 18.33 15.8401 9.69c.1152.0704.1977.1837.2296.3149.0318.1312.0104.2697-.0597.3851-.046.0757-.1105.1384-.1875.1822-.077.0437-.1639.0671-.2525.0678"/><path d="m35.7698 54.31h-2.08c-.0678 0-.135-.0135-.1975-.0398-.0626-.0262-.1193-.0647-.1668-.1131s-.0848-.1058-.1098-.1688c-.0251-.0631-.0372-.1305-.0359-.1983v-2.11c.0232-.1155.0857-.2194.1769-.2941.0911-.0746.2053-.1154.3231-.1154s.232.0408.3231.1154c.0912.0747.1537.1786.1769.2941v1.6h1.5699c.1087.031.2043.0966.2724.1869.068.0902.1048.2001.1048.3131s-.0368.2229-.1048.3131c-.0681.0903-.1637.1559-.2724.1869"/><path d="m35.7716 52.19c-.0678.0013-.1352-.0109-.1982-.0359-.0631-.0251-.1204-.0624-.1689-.1099-.0484-.0475-.0869-.1042-.1131-.1667-.0263-.0626-.0398-.1297-.0398-.1975v-1.6h-1.5599c-.1087-.0311-.2043-.0967-.2724-.1869-.068-.0902-.1048-.2001-.1048-.3131s.0368-.223.1048-.3132c.0681-.0902.1637-.1558.2724-.1868h2.0799c.0678-.0001.135.0135.1975.0397.0626.0263.1193.0647.1668.1131.0475.0485.0848.1059.1098.1689.0251.0631.0372.1305.0359.1983v2.11c0 .1352-.0538.2649-.1494.3606-.0956.0956-.2253.1494-.3606.1494"/><path d="m37.7701 53.2801h1.0601v-3.2001h-1.0601zm1.57 1h-2.08c-.0678 0-.135-.0136-.1975-.0398-.0625-.0263-.1193-.0647-.1667-.1131-.0475-.0485-.0849-.1059-.1099-.1689s-.0372-.1304-.0359-.1982v-4.19c-.0013-.0678.0109-.1352.0359-.1983.025-.063.0624-.1204.1099-.1689.0474-.0484.1042-.0868.1667-.1131.0625-.0262.1297-.0398.1975-.0398h2.08c.0678 0 .1349.0136.1975.0398.0625.0263.1192.0647.1667.1131.0475.0485.0849.1059.1099.1689.025.0631.0372.1305.0359.1983v4.22c.0013.0678-.0109.1352-.0359.1982s-.0624.1204-.1099.1689c-.0475.0484-.1042.0868-.1667.1131-.0626.0262-.1297.0398-.1975.0398"/><path d="m35.7706 52.1899h-2.0799c-.074.0149-.1505.0132-.2238-.0051-.0732-.0182-.1415-.0525-.1999-.1003s-.1055-.108-.1378-.1763c-.0324-.0682-.0491-.1428-.0491-.2183s.0167-.15.0491-.2183c.0323-.0682.0794-.1284.1378-.1762.0584-.0479.1267-.0821.1999-.1004.0733-.0182.1498-.0199.2238-.0051h2.0799c.074-.0148.1504-.0131.2237.0051.0732.0183.1415.0525.1999.1004.0584.0478.1055.108.1378.1762.0323.0683.0491.1428.0491.2183s-.0168.1501-.0491.2183c-.0323.0683-.0794.1285-.1378.1763s-.1267.0821-.1999.1003c-.0733.0183-.1497.02-.2237.0051z"/><path d="m49.9611 59.7301h-2c-.1087-.0311-.2042-.0967-.2723-.1869-.068-.0902-.1048-.2001-.1048-.3131s.0368-.223.1048-.3132c.0681-.0902.1636-.1558.2723-.1868h1.46v-1.49c.0233-.1156.0858-.2194.1769-.2941.0912-.0746.2053-.1154.3231-.1154.1179 0 .232.0408.3232.1154.0911.0747.1536.1785.1768.2941v2c0 .1352-.0537.2649-.1494.3606-.0956.0956-.2253.1494-.3606.1494"/><path d="m49.9614 57.72c-.1352 0-.2649-.0538-.3606-.1494-.0956-.0957-.1493-.2254-.1493-.3606v-1.49h-1.46c-.1156-.0232-.2195-.0857-.2941-.1769-.0747-.0911-.1154-.2053-.1154-.3231s.0407-.232.1154-.3232c.0746-.0911.1785-.1536.2941-.1768h2c.1352 0 .2649.0537.3606.1494.0956.0956.1494.2253.1494.3606v2c0 .1352-.0538.265-.1494.3606-.0957.0957-.2254.1494-.3606.1494"/><path d="m51.9116 58.7h.94v-3h-.94zm1.45 1h-2c-.1353 0-.265-.0538-.3606-.1494-.0957-.0957-.1494-.2254-.1494-.3607v-4c0-.1352.0537-.2649.1494-.3606.0956-.0956.2253-.1494.3606-.1494h2c.1352 0 .265.0538.3607.1494.0956.0957.1493.2254.1493.3606v4c0 .1353-.0537.265-.1493.3607-.0957.0956-.2255.1494-.3607.1494z"/><path d="m49.9611 57.7199h-2c-.1353 0-.265-.0537-.3606-.1493-.0957-.0957-.1493-.2254-.1493-.3607 0-.1352.0536-.265.1493-.3606.0956-.0956.2253-.1493.3606-.1493h2c.1352 0 .265.0537.3607.1493.0956.0956.1493.2254.1493.3606 0 .1353-.0537.265-.1493.3607-.0957.0956-.2255.1493-.3607.1493z"/><path d="m35.5199 72.36h-2.21c-.1155-.0232-.2194-.0857-.294-.1769-.0747-.0911-.1155-.2053-.1155-.3231s.0408-.232.1155-.3232c.0746-.0911.1785-.1536.294-.1768h1.7v-1.49c-.0013-.0678.0108-.1352.0359-.1983.025-.063.0623-.1204.1098-.1688.0475-.0485.1043-.0869.1668-.1132.0625-.0262.1297-.0397.1975-.0397s.135.0135.1975.0397c.0625.0263.1193.0647.1668.1132.0474.0484.0848.1058.1098.1688.0251.0631.0372.1305.0359.1983v2c0 .1352-.0538.2649-.1494.3606-.0957.0956-.2253.1494-.3606.1494"/><path d="m37.4504 71.3401h1v-3h-1zm1.46 1h-2c-.1353 0-.265-.0538-.3606-.1494-.0956-.0957-.1494-.2254-.1494-.3607v-4c0-.1352.0538-.2649.1494-.3605.0956-.0957.2253-.1494.3606-.1494h2c.1353 0 .265.0537.3606.1494.0956.0956.1494.2253.1494.3605v4c0 .1353-.0538.265-.1494.3607-.0956.0956-.2253.1494-.3606.1494z"/><path d="m35.5217 70.36h-2c-.1086-.0311-.2043-.0967-.2723-.1869-.0681-.0902-.1049-.2001-.1049-.3131s.0368-.223.1049-.3132c.068-.0902.1637-.1558.2723-.1868h2c.1087.031.2043.0966.2724.1868.068.0902.1048.2002.1048.3132s-.0368.2229-.1048.3131c-.0681.0902-.1637.1558-.2724.1869z"/><path d="m33.5217 70.36c-.1352 0-.2649-.0538-.3606-.1494-.0956-.0956-.1494-.2254-.1494-.3606v-2c0-.1353.0538-.265.1494-.3607.0957-.0956.2254-.1493.3606-.1493h2c.1155.0232.2194.0857.2941.1768.0746.0912.1155.2054.1155.3232s-.0409.232-.1155.3231c-.0747.0912-.1786.1536-.2941.1769h-1.4599v1.46c0 .1352-.0538.2649-.1494.3606-.0957.0956-.2254.1494-.3606.1494"/><path d="m35.5812 59.61c-.0916.002-.1818-.0223-.2601-.07-.1159-.067-.2009-.177-.2364-.3061s-.0189-.267.0464-.3839l2-3.42c.0676-.118.1794-.2043.3107-.24.1312-.0356.2713-.0176.3894.05.118.0676.2042.1794.2398.3107.0357.1312.0177.2713-.0499.3893l-2 3.41c-.0432.0789-.1069.1447-.1843.1905-.0775.0457-.1657.0698-.2556.0695z"/><path d="m35.2607 56.11c-.0486.0025-.0944.0237-.1279.059-.0335.0354-.0521.0822-.052.1309 0 .0237.0046.0471.0136.069.0091.0218.0223.0416.039.0583s.0366.03.0584.0391c.0219.009.0453.0137.0689.0137s.047-.0047.0688-.0137c.0219-.0091.0418-.0224.0585-.0391s.0299-.0365.0389-.0583c.0091-.0219.0138-.0453.0138-.069.0001-.0487-.0186-.0955-.0521-.1309-.0335-.0353-.0793-.0565-.1279-.059zm0 1.39c-.2398-.0001-.474-.0713-.6732-.2047s-.3543-.323-.4456-.5446c-.0913-.2217-.1146-.4655-.0671-.7005s.1636-.4506.3338-.6194c.1703-.1688.3869-.2832.6222-.3288.2354-.0455.4789-.0202.6999.0729.2209.0932.4092.2498.541.4501.1317.2003.2009.4352.199.6749 0 .1585-.0314.3153-.0923.4616-.061.1462-.1502.279-.2627.3906-.1125.1115-.246.1997-.3927.2594-.1468.0597-.3039.0898-.4623.0885z"/><path d="m37.9016 58.12c-.0356 0-.0704.0106-.1.0304-.0296.0197-.0527.0478-.0663.0807s-.0172.0691-.0102.104c.0069.035.024.067.0492.0922.0251.0252.0572.0423.0921.0493.0349.0069.0711.0034.104-.0103.0329-.0136.0611-.0367.0808-.0663.0198-.0296.0304-.0644.0304-.1 0-.0477-.019-.0935-.0527-.1272-.0338-.0338-.0796-.0528-.1273-.0528zm0 1.38c-.2402.002-.4755-.0675-.6761-.1997-.2005-.1322-.3571-.3211-.4499-.5426s-.1175-.4656-.0712-.7012c.0464-.2357.1618-.4522.3316-.622s.3864-.2853.622-.3317c.2357-.0463.4797-.0215.7012.0713s.4104.2494.5426.45c.1322.2005.2017.4358.1997.6759-.0026.3175-.1299.6212-.3543.8457-.2245.2244-.5282.3517-.8456.3543z"/><path d="m49.5212 65.1c-.0916.0019-.1818-.0224-.26-.07-.1166-.069-.2017-.1807-.2372-.3114-.0355-.1308-.0185-.2702.0472-.3886l2-3.41c.0333-.0587.0778-.1103.131-.1517.0533-.0414.1142-.0718.1793-.0895.0652-.0176.1331-.0222.2-.0135.0669.0088.1314.0308.1897.0647.0584.0322.1097.0758.151.1282.0413.0523.0717.1124.0894.1767s.0224.1315.0137.1976c-.0086.0662-.0305.1299-.0642.1875l-2 3.42c-.0431.0789-.1067.1447-.1842.1904-.0774.0458-.1658.0698-.2557.0696z"/><path d="m49.171 61.6001c-.0478 0-.0936.0189-.1274.0527-.0337.0337-.0527.0795-.0527.1273 0 .0477.019.0935.0527.1272.0338.0338.0796.0528.1274.0528.0477 0 .0934-.019.1272-.0528.0337-.0337.0527-.0795.0527-.1272 0-.0478-.019-.0936-.0527-.1273-.0338-.0338-.0795-.0527-.1272-.0527zm0 1.3899c-.2394 0-.4733-.0709-.6723-.2039-.199-.1329-.3541-.3219-.4457-.543-.0915-.2211-.1155-.4644-.0688-.6991s.1619-.4503.3312-.6195c.1692-.1693.3848-.2845.6195-.3312s.478-.0227.6991.0689.4101.2466.5431.4456c.1329.199.2038.4329.2038.6723 0 .3209-.1274.6286-.3544.8555-.2269.227-.5346.3544-.8555.3544z"/><path d="m51.8099 63.6c-.0487.0026-.0945.0237-.128.0591-.0335.0353-.0522.0822-.0521.1309 0 .0478.019.0935.0527.1273.0338.0338.0796.0527.1274.0527.0477 0 .0934-.0189.1272-.0527.0337-.0338.0527-.0795.0527-.1273.0001-.0487-.0185-.0956-.052-.1309-.0335-.0354-.0793-.0565-.1279-.0591zm0 1.39c-.2402.002-.4755-.0675-.6761-.1997-.2005-.1322-.3571-.3211-.4499-.5426s-.1177-.4656-.0713-.7013c.0464-.2356.1618-.4521.3317-.6219.1698-.1699.3863-.2853.6219-.3317.2357-.0463.4798-.0215.7013.0713s.4104.2494.5426.4499c.1322.2006.2017.4359.1997.676-.0026.3175-.1299.6212-.3544.8457-.2244.2245-.5281.3517-.8455.3543z"/><path d="m35.2902 77.4799c-.0877-.003-.1734-.027-.25-.07-.0587-.0332-.1103-.0777-.1517-.131-.0414-.0532-.0718-.1142-.0895-.1793-.0176-.0651-.0222-.1331-.0134-.1999.0088-.0669.0307-.1314.0646-.1898l2-3.42c.0305-.0632.0738-.1194.127-.1651.0533-.0458.1155-.08.1827-.1006.0671-.0206.1377-.0272.2075-.0192.0697.008.1371.0303.1979.0655.0607.0352.1135.0825.1551.1391s.0711.1211.0866.1896.0166.1394.0034.2084c-.0132.0689-.0405.1344-.0802.1923l-2 3.42c-.044.0783-.1078.1435-.1851.1891-.0772.0457-.1651.0701-.2549.0709z"/><path d="m34.9817 73.97c-.0478 0-.0935.019-.1272.0528-.0338.0337-.0528.0795-.0528.1272 0 .0478.019.0936.0528.1273.0337.0338.0794.0527.1272.0527.0477 0 .0935-.0189.1273-.0527.0337-.0337.0527-.0795.0527-.1273 0-.0477-.019-.0935-.0527-.1272-.0338-.0338-.0796-.0528-.1273-.0528zm0 1.39c-.2398.002-.4747-.0673-.675-.199-.2003-.1318-.3569-.32-.45-.5409-.0932-.221-.1185-.4646-.0729-.6999.0455-.2354.1599-.4519.3287-.6222.1688-.1702.3844-.2864.6194-.3339.235-.0476.4789-.0242.7006.0671.2216.0913.4111.2464.5445.4456s.2047.4335.2047.6732c0 .3192-.1262.6255-.3509.8521-.2248.2266-.53.3553-.8491.3579z"/><path d="m37.6104 75.9699c-.0477 0-.0934.019-.1272.0528-.0337.0337-.0527.0795-.0527.1272 0 .0478.019.0936.0527.1273.0338.0338.0795.0527.1272.0527s.0936-.0189.1273-.0527c.0338-.0337.0528-.0795.0528-.1273 0-.0477-.019-.0935-.0528-.1272-.0337-.0338-.0796-.0528-.1273-.0528zm0 1.3901c-.2393 0-.4732-.071-.6722-.204s-.3541-.3219-.4457-.543-.1155-.4644-.0689-.6991c.0467-.2347.162-.4503.3312-.6196.1692-.1692.3848-.2844.6195-.3311s.4781-.0227.6992.0688c.2211.0916.4101.2467.543.4457.133.199.204.4329.204.6722 0 .3209-.1276.6287-.3545.8557-.2269.2269-.5347.3544-.8556.3544z"/><path d="m24.1208 14.43c-.103.1515-.2417.2754-.4039.3609-.1621.0854-.3427.1297-.526.1291-.1795-.0004-.3565-.0432-.5163-.1248-.1599-.0817-.2982-.2-.4037-.3452-.2973-.4929-.4336-1.0661-.39-1.64-.0572-.6126.068-1.2284.3599-1.77.1033-.1483.241-.2694.4012-.353s.3382-.1272.5189-.127c.1818-.0047.3619.0358.5242.1179.1623.082.3016.203.4057.3521.2999.4954.4364 1.0727.39 1.65.0568.6061-.0685 1.2155-.36 1.75zm.8901-4.1c-.2372-.2637-.5294-.47205-.856-.61029-.3266-.13825-.6796-.20302-1.0341-.18973-.3671-.01933-.7332.05496-1.0638.21588s-.6149.40324-.8262.70414c-.4417.7066-.6675 1.5268-.6497 2.3599.0177.8331.2784 1.6429.7498 2.3301.2295.2605.513.468.8307.6079.3178.1398.6622.2088 1.0093.2021.3531.0013.7022-.074 1.0233-.2208.3211-.1467.6066-.3614.8367-.6292.4947-.6969.7605-1.5304.7605-2.385 0-.8547-.2658-1.6881-.7605-2.385"/><path d="m23.2203 20.97 6.1901-11.29001c.055-.11976.1442-.22065.2562-.29002.1121-.06937.2421-.10414.3738-.09998h.35c.0457-.00308.0915.00648.1322.02764s.0747.05311.0985.09234c.0237.03924.0362.08424.0361.1301s-.0129.09081-.0368.12991l-6.17 11.30002c-.0503.1232-.1385.2273-.2517.2974s-.2455.1025-.3783.0926h-.37c-.0457.0031-.0915-.0065-.1322-.0277-.0406-.0211-.0747-.0531-.0985-.0923-.0237-.0392-.0362-.0842-.0361-.1301s.0128-.0908.0367-.1299"/><path d="m31.7909 19.6199c-.1064.1499-.2474.2718-.4111.3554s-.3452.1263-.5289.1247c-.1802.0029-.3582-.0384-.5186-.1203-.1604-.082-.2982-.2021-.4014-.3498-.3109-.4951-.4546-1.077-.41-1.66-.0647-.6129.061-1.231.36-1.77.1026-.1489.2402-.2704.4005-.3541.1603-.0836.3387-.1268.5195-.1259.1814-.002.3605.0396.5224.1214.1618.0819.3016.2014.4076.3486.3018.4947.4384 1.0726.39 1.65.0563.6094-.0689 1.2218-.36 1.7601zm.86-4.12c-.2384-.2628-.5305-.4712-.8567-.611-.3261-.1398-.6786-.2076-1.0333-.199-.3684-.0182-.7355.0565-1.0675.2173-.332.1607-.6184.4024-.8325.7027-.4462.6522-.6706 1.4305-.64 2.22-.0659.8864.1976 1.7659.7399 2.47.2344.2595.5207.4668.8403.6088.3195.1419.6652.2153 1.0148.2153.3497 0 .6954-.0734 1.0149-.2153.3196-.142.6057-.3493.8401-.6088.4948-.6968.7605-1.5303.7605-2.3849 0-.8547-.2657-1.6882-.7605-2.3851"/></g><path d="m17.4218 31.79c0 2-3.7901 3.55-8.45012 3.55-4.66 0-8.459961-1.59-8.459961-3.55v2.75c0 2 3.789961 3.55 8.459961 3.55 4.67002 0 8.45012-1.59 8.45012-3.55z" fill="#4550e5"/><path d="m1.02171 33.6999v.84c0 1.44 3.27 3 8 3 4.72999 0 7.93989-1.6 7.93989-3v-.84c-1.49 1.29-4.4499 2.15-7.93989 2.15-3.49 0-6.46-.86-8-2.15zm8 4.9c-5 0-9.0000034-1.78-9.0000034-4.06v-2.75c-.0148771-.074-.0131071-.1504.005127-.2236.0182341-.0733.0525056-.1416.1003414-.2.047837-.0584.108038-.1055.17627-.1378s.142765-.0491.218262-.0491c.075496 0 .150029.0168.218261.0491s.128434.0794.17627.1378.082108.1267.100342.2c.01823.0732.02.1496.00513.2236 0 1.43 3.27 3 8 3 4.72999 0 7.93989-1.61 7.93989-3 .0233-.1155.0858-.2194.1769-.294.0912-.0747.2053-.1155.3231-.1155.1179 0 .2321.0408.3233.1155.0911.0746.1535.1785.1767.294v2.75c0 2.28-3.94 4.06-8.99995 4.06" fill="#dea81e"/><path d="m17.4215 29.04c0 2-3.7801 3.55-8.45006 3.55-4.67 0-8.449956-1.62-8.449956-3.55v2.76c0 2 3.779956 3.55 8.449956 3.55 4.66996 0 8.45006-1.59 8.45006-3.55z" fill="#fff"/><path d="m1.03076 30.97v.84c0 1.43 3.25994 3 7.93994 3s7.9401-1.6 7.9401-3v-.84c-1.48 1.28-4.4501 2.14-7.9401 2.14s-6.44994-.86-7.93994-2.14zm7.93994 4.9c-5 0-8.9999969-1.79-8.9999969-4.06v-2.76c.02321635-.1155.0857323-.2194.1768799-.2941.091148-.0746.205304-.1154.32312-.1154s.232095.0408.323242.1154c.091148.0747.153542.1786.176758.2941 0 1.44 3.260067 3 7.940067 3 4.68003 0 7.93993-1.6 7.93993-3 .031-.1087.0967-.2043.1869-.2723.0902-.0681.2001-.1049.3131-.1049s.223.0368.3132.1049c.0903.068.1558.1636.1868.2723v2.76c0 2.27-3.94 4.06-8.99999 4.06" fill="#dea81e"/><path d="m.521484 18.49v2.23c0 2 3.779956 3.55 8.449956 3.55 4.66996 0 8.46006-1.59 8.46006-3.55v-2.23z" fill="#fff"/><path d="m8.9707 24.7801c-5 0-8.9999969-1.78-8.9999969-4.06v-2.23c.02321635-.1155.0857323-.2195.1768799-.2941.091148-.0747.205304-.1154.32312-.1154s.232095.0407.323242.1154c.091148.0746.153542.1786.176758.2941v2.23c0 1.44 3.260067 3 7.940067 3 4.68003 0 7.93993-1.6 7.93993-3v-2.23c.031-.1087.0967-.2043.1869-.2723.0902-.0681.2001-.1049.3131-.1049s.223.0368.3132.1049c.0903.068.1558.1636.1868.2723v2.23c0 2.28-3.94 4.06-8.99999 4.06" fill="#dea81e"/><path d="m17.4215 20.75c0 2-3.7801 3.55-8.45006 3.55-4.67 0-8.449956-1.59-8.449956-3.55v2.75c0 2 3.779956 3.55 8.449956 3.55 4.66996 0 8.45006-1.59 8.45006-3.55z" fill="#4550e5"/><path d="m1.03076 22.66v.84c0 1.44 3.25994 3 7.93994 3s7.9401-1.6 7.9401-3v-.84c-1.48 1.29-4.4501 2.15-7.9401 2.15s-6.44994-.86-7.93994-2.15zm7.93994 4.9c-5 0-8.9999969-1.78-8.9999969-4.06v-2.75c.02321635-.1156.0857323-.2194.1768799-.2941.091148-.0746.205304-.1154.32312-.1154s.232095.0408.323242.1154c.091148.0747.153542.1785.176758.2941 0 1.44 3.260067 3 7.940067 3 4.68003 0 7.93993-1.6 7.93993-3 .031-.1087.0967-.2043.1869-.2724.0902-.068.2001-.1048.3131-.1048s.223.0368.3132.1048c.0903.0681.1558.1637.1868.2724v2.75c0 2.28-3.94 4.06-8.99999 4.06" fill="#dea81e"/><path d="m17.4215 23.53c0 2-3.7801 3.55-8.45006 3.55-4.67 0-8.449956-1.59-8.449956-3.55v2.75c0 2 3.779956 3.55 8.449956 3.55 4.66996 0 8.45006-1.59 8.45006-3.55z" fill="#fff"/><path d="m1.03076 25.44v.84c0 1.44 3.25994 3 7.93994 3s7.9401-1.6 7.9401-3v-.84c-1.48 1.29-4.4501 2.15-7.9401 2.15s-6.44994-.86-7.93994-2.15zm7.93994 4.91c-5 0-8.9999969-1.79-8.9999969-4.07v-2.75c.02321635-.1155.0857323-.2194.1768799-.2941.091148-.0746.205304-.1154.32312-.1154s.232095.0408.323242.1154c.091148.0747.153542.1786.176758.2941 0 1.44 3.260067 3 7.940067 3 4.68003 0 7.93993-1.6 7.93993-3 .031-.1087.0967-.2043.1869-.2723.0902-.0681.2001-.1049.3131-.1049s.223.0368.3132.1049c.0903.068.1558.1636.1868.2723v2.75c0 2.28-3.94 4.07-8.99999 4.07" fill="#dea81e"/><path d="m17.4215 26.3101c0 2-3.7801 3.55-8.45006 3.55-4.67 0-8.449956-1.59-8.449956-3.55v2.75c0 2 3.779956 3.55 8.449956 3.55 4.66996 0 8.45006-1.59 8.45006-3.55z" fill="#4550e5"/><path d="m1.03076 28.22v.84c0 1.44 3.25994 3 7.93994 3s7.9401-1.6 7.9401-3v-.84c-1.48 1.29-4.4501 2.15-7.9401 2.15s-6.44994-.86-7.93994-2.15zm7.93994 4.91c-5 0-8.9999969-1.79-8.9999969-4.07v-2.75c.02321635-.1155.0857323-.2194.1768799-.294.091148-.0747.205304-.1155.32312-.1155s.232095.0408.323242.1155c.091148.0746.153542.1785.176758.294 0 1.44 3.260067 3 7.940067 3 4.68003 0 7.93993-1.6 7.93993-3 .031-.1086.0967-.2042.1869-.2723.0902-.068.2001-.1049.3131-.1049s.223.0369.3132.1049c.0903.0681.1558.1637.1868.2723v2.75c0 2.28-3.94 4.07-8.99999 4.07" fill="#dea81e"/><path d="m17.4215 18.3199c0 1.86-3.7801 3.37-8.45006 3.37-4.67 0-8.449956-1.51-8.449956-3.37s3.779956-3.38 8.449956-3.38c4.66996 0 8.45006 1.51 8.45006 3.38z" fill="#4550e5"/><path d="m8.9707 15.45c-4.68 0-7.93994 1.5101-7.93994 2.8701s3.25994 2.86 7.93994 2.86 7.9401-1.51 7.9401-2.86-3.2601-2.8701-7.9401-2.8701zm0 6.75c-5.11 0-8.9999969-1.6699-8.9999969-3.8799s3.8499969-3.89 8.9999969-3.89 9 1.67 9 3.89-3.86 3.8799-9 3.8799z" fill="#dea81e"/><path d="m18.7715 26.62v2.24c0 2 3.7799 3.55 8.4499 3.55s8.4601-1.59 8.4601-3.55v-2.24z" fill="#fff"/><path d="m27.2207 32.97c-5 0-9-1.79-9-4.06v-2.24c.0232-.1155.0857-.2194.1769-.2941.0911-.0746.2053-.1154.3231-.1154s.2321.0408.3232.1154c.0912.0747.1536.1786.1768.2941v2.24c0 1.43 3.2601 3 7.9401 3s7.9399-1.6 7.9399-3v-2.24c.031-.1087.0967-.2043.1869-.2723.0902-.0681.2001-.1049.3131-.1049s.223.0368.3132.1049c.0903.068.1558.1636.1868.2723v2.24c0 2.27-3.94 4.06-9 4.06" fill="#dea81e"/><path d="m35.6815 28.88c0 2-3.7901 3.55-8.4601 3.55s-8.4499-1.59-8.4499-3.55v2.76c0 2 3.7799 3.55 8.4499 3.55s8.4601-1.59 8.4601-3.55z" fill="#4550e5"/><path d="m19.2808 30.8v.84c0 1.43 3.2599 3 7.9399 3s7.9401-1.61 7.9401-3v-.84c-1.48 1.28-4.4501 2.14-7.9401 2.14s-6.4499-.86-7.9399-2.14zm7.9399 4.9c-5 0-9-1.79-9-4.06v-2.76c.0232-.1155.0857-.2195.1769-.2941.0911-.0747.2053-.1154.3231-.1154s.2321.0407.3232.1154c.0912.0746.1536.1786.1768.2941 0 1.44 3.2601 3 7.9401 3s7.9399-1.6 7.9399-3c.031-.1087.0967-.2043.1869-.2723.0902-.0681.2001-.1049.3131-.1049s.223.0368.3132.1049c.0903.068.1558.1636.1868.2723v2.76c0 2.27-3.94 4.06-9 4.06" fill="#dea81e"/><path d="m35.6815 31.66c0 2-3.7901 3.55-8.4601 3.55s-8.4499-1.59-8.4499-3.55v2.76c0 2 3.7799 3.55 8.4499 3.55s8.4601-1.59 8.4601-3.55z" fill="#fff"/><path d="m19.2808 33.58v.84c0 1.43 3.2599 3 7.9399 3s7.9401-1.61 7.9401-3v-.84c-1.48 1.28-4.4501 2.14-7.9401 2.14s-6.4499-.86-7.9399-2.14zm7.9399 4.9c-5 0-9-1.79-9-4.06v-2.76c.0232-.1155.0857-.2194.1769-.2941.0911-.0746.2053-.1154.3231-.1154s.2321.0408.3232.1154c.0912.0747.1536.1786.1768.2941 0 1.44 3.2601 3 7.9401 3s7.9399-1.6 7.9399-3c.031-.1087.0967-.2043.1869-.2723.0902-.0681.2001-.1049.3131-.1049s.223.0368.3132.1049c.0903.068.1558.1636.1868.2723v2.76c0 2.27-3.94 4.06-9 4.06" fill="#dea81e"/><path d="m35.6815 26.4501c0 1.86-3.7901 3.38-8.4601 3.38s-8.4499-1.52-8.4499-3.38 3.7799-3.38 8.4499-3.38 8.4601 1.52 8.4601 3.38z" fill="#4550e5"/><path d="m27.2207 23.5901c-4.68 0-7.9399 1.51-7.9399 2.86s3.2599 2.87 7.9399 2.87 7.9401-1.51 7.9401-2.87-3.2601-2.86-7.9401-2.86zm0 6.75c-5.11 0-9-1.67-9-3.89s3.85-3.89 9-3.89 9 1.67 9 3.89-3.86 3.89-9 3.89z" fill="#dea81e"/><path d="m58.1212 12.04c-1.171-.6937-2.0818-1.7529-2.592-3.01472-.5103-1.2618-.592-2.65632-.2323-3.96904.3596-1.31271 1.1406-2.47091 2.2227-3.29646 1.0822-.82555 2.4055-1.272719 3.7666-1.272719s2.6845.447169 3.7666 1.272719c1.0822.82555 1.8631 1.98375 2.2227 3.29646.3596 1.31272.2781 2.70724-.2322 3.96904-.5103 1.26182-1.421 2.32102-2.592 3.01472z" fill="#4550e5"/><path d="m64.4501 12.58c-.0889.0012-.1767-.0213-.254-.0652-.0774-.044-.1416-.1078-.186-.1848-.0343-.0577-.0568-.1217-.0663-.1882-.0095-.0664-.0059-.1341.0108-.1992.0168-.065.0462-.1261.0866-.1798.0404-.0536.091-.0988.1489-.1328.8581-.5048 1.569-1.2255 2.062-2.09046s.7509-1.84396.7479-2.83954c0-.74675-.1472-1.48617-.4333-2.17595s-.7053-1.31638-1.2338-1.84395-1.1559-.94575-1.8462-1.23061c-.6902-.28485-1.4298-.4308-2.1766-.42949-1.2462-.00015-2.4581.40886-3.4493 1.16419-.9913.75533-1.7073 1.81521-2.0378 3.01683s-.2573 2.47851.2083 3.63454c.4655 1.15602 1.2977 2.12724 2.3688 2.76444.1152.0704.1978.1836.2297.3149.0319.1312.0104.2697-.0597.3851-.0706.1149-.1831.1979-.3137.2315s-.2691.0151-.3864-.0515c-1.2578-.7558-2.2336-1.9026-2.7784-3.26513-.5448-1.36254-.6286-2.86596-.2386-4.28062.3899-1.41466 1.2322-2.66281 2.3981-3.55379 1.166-.890978 2.5916-1.37581465 4.059-1.38046 1.778.00262423 3.4826.708727 4.7417 1.96408 1.2591 1.25535 1.9704 2.95794 1.9783 4.73592-.0026 1.17308-.31 2.32535-.892 3.3439-.582 1.0185-1.4188 1.8683-2.4281 2.4661-.0782.0477-.1683.072-.2599.07z" fill="#dea81e"/><path d="m54.9501 17.73c-.4948-.0677-.971-.2344-1.4-.49-1.79-1.05 2.1099-1.64 2.1099-1.64z" fill="#fff"/><path d="m54.9508 18.24h-.1102c-.5582-.0873-1.0945-.2808-1.5799-.5701-.66-.4-.7399-.82-.6799-1.11.16-.86 1.72-1.2699 3-1.4599.1351-.0202.2726.0135.383.094s.1848.2011.2069.3359c.0099.0664.0066.134-.0096.1991-.0163.0651-.0452.1263-.0851.1801-.0399.0539-.0902.0994-.1477.1338-.0575.0345-.1213.0573-.1876.067-.7188.0886-1.418.2947-2.07.6101l.13.08.07.05c.3776.1907.7824.3222 1.2.39.1319.0331.2454.1166.3165.2325.071.1159.0938.2549.0636.3875-.0271.1119-.0914.2113-.1822.2821s-.2027.1088-.3178.1078" fill="#dea81e"/><path d="m69.2715 11.81c.25.67-1.87 1.37-2.17 3.31-.32 2.11 1.5301 4.46 3.1001 5.55s3.65 2.23 4.86 4c1.2099 1.9769 1.6711 4.3221 1.2999 6.61-1 7.11-7.7799 9.91-14.9199 9.95s-13.9301-2.84-14.9201-9.95c-.3711-2.2879.0902-4.6331 1.3001-6.61 1.21-1.74 3.19-2.81 4.86-4s3.95-3.07 3.1-5.55c-.63-1.85-2.4201-2.64-2.1701-3.31s3.3601.42 7.7001.44c4.49 0 7.66-1.26 8-.44" fill="#fff"/><path d="m54.1716 12.03c.1442.1813.2977.3548.46.52.7204.6564 1.2784 1.4711 1.63 2.38 1 2.8-1.4201 4.84-3.2901 6.14l-1 .68c-1.4283.809-2.6906 1.8813-3.7199 3.16-1.1513 1.8664-1.5815 4.0888-1.21 6.25.82 5.9 6.2101 9.46 14.4101 9.51 8.1999.05 13.5899-3.61 14.4099-9.51.365-2.1611-.0648-4.3813-1.21-6.25-1.0314-1.2767-2.2932-2.3486-3.72-3.16l-1-.68c-1.86-1.28-3.65-3.84-3.32-6.05.231-1.0611.8341-2.0046 1.7-2.66.12-.1.26-.23.36-.33-.6478.0268-1.2928.1004-1.93.22-1.7872.3093-3.5963.4732-5.4099.49-1.7333-.0317-3.4617-.1956-5.1701-.49-.6594-.1287-1.3284-.2023-2-.22zm7.26 29.66c-8.76-.05-14.53-3.94-15.43-10.39-.4058-2.4248.0885-4.9142 1.39-7 1.1004-1.3925 2.4584-2.5604 4-3.44l1-.66c1.6-1.11 3.64-2.83 2.91-5-.3082-.7646-.787-1.4487-1.4-2-.52-.53-1-1-.77-1.65.3-.81 1.32-.66 3.16-.37 1.6519.2879 3.3235.4484 5 .48 1.7598-.0246 3.515-.1851 5.25-.48 1.86-.29 2.89-.45 3.19.37.23.61-.2801 1.07-.7701 1.51-.6881.5028-1.1767 1.2323-1.3798 2.06-.29 1.9 1.5198 4.1 2.8898 5.05l1 .66c1.5393.8828 2.8968 2.0502 4 3.44 1.3051 2.0843 1.7964 4.5764 1.3801 7-.9 6.45-6.66 10.34-15.42 10.39" fill="#dea81e"/><path d="m68.3214 17.73c.4974-.0701.9763-.2365 1.4099-.49 1.78-1.05-2.12-1.64-2.12-1.64z" fill="#fff"/><path d="m68.3207 18.24c-.1205-.0068-.2347-.0561-.3223-.1391-.0875-.083-.1429-.1944-.1561-.3144-.0132-.1199.0166-.2407.084-.3407.0674-.1001.1682-.173.2843-.2058.4164-.0728.8205-.2041 1.2001-.39l.0599-.05.13-.08c-.6489-.3142-1.3446-.5202-2.0599-.61-.0669-.0085-.1315-.0305-.1897-.0645-.0582-.0341-.1089-.0796-.1491-.1338-.0401-.0542-.069-.1159-.0847-.1815s-.0179-.1337-.0066-.2002c.0098-.0664.0326-.1302.067-.1877.0345-.0575.08-.1077.1338-.1476.0539-.04.1151-.0689.1802-.0851.0651-.0163.1328-.0195.1991-.0096 1.28.19 2.84.6 3 1.46.06.29 0 .71-.67 1.11-.4875.2849-1.0229.4781-1.58.57z" fill="#dea81e"/><path d="m55.5703 18.02c2.0428.2984 4.1055.4389 6.1699.42 1.8373-.0187 3.6713-.159 5.49-.42z" fill="#fff"/><path d="m61.4008 18.97c-1.9746.0019-3.9466-.1419-5.9001-.43-.1346-.0198-.2561-.0917-.3383-.2001-.0823-.1085-.1188-.2448-.1016-.3799.0098-.0663.0326-.1301.067-.1876.0345-.0576.0799-.1077.1338-.1477.0539-.0399.1151-.0688.1802-.0851.065-.0162.1326-.0195.1989-.0096 2.0159.2997 4.0521.4402 6.09.42 1.814-.0199 3.6247-.1602 5.4201-.42.1236-.0021.2438.0407.3382.1206s.1566.1914.1749.3137c.0184.1223-.0083.2471-.0752.3512-.0668.104-.1691.1803-.2879.2145-1.8411.2728-3.699.4165-5.5601.43h-.3399" fill="#dea81e"/><path d="m58.0508 32.28c0 1.77 1.7599 3.21 3.9199 3.21s3.9301-1.44 3.9301-3.21-1.7601-3.21-3.9301-3.21c-2 0-3.6499-1.34-3.6499-3s1.61-2.94 3.59-2.94 3.5999 1.31 3.5999 2.94z" fill="#fff"/></g></svg>