<svg width="75" height="66" viewBox="0 0 75 66" fill="none" xmlns="http://www.w3.org/2000/svg">
<path d="M3.48438 33C3.48438 41.4869 6.85579 49.6263 12.857 55.6274C18.8581 61.6286 26.9974 65 35.4844 65C43.9713 65 52.1106 61.6286 58.1118 55.6274C64.113 49.6263 67.4844 41.4869 67.4844 33C67.4844 24.5131 64.113 16.3737 58.1118 10.3726C52.1106 4.37142 43.9713 1 35.4844 1C26.9974 1 18.8581 4.37142 12.857 10.3726C6.85579 16.3737 3.48438 24.5131 3.48438 33V33Z" fill="#E8F4FA" stroke="#DAEDF7" stroke-width="0.8"/>
<path d="M28.2295 47.6481C28.5867 47.6893 28.9486 47.6399 29.2817 47.5046C29.6149 47.3693 29.9086 47.1523 30.1359 46.8737C32.4317 43.8206 33.635 40.0847 33.5527 36.2657C33.5427 35.9843 33.4774 35.7076 33.3605 35.4514C33.2436 35.1953 33.0774 34.9646 32.8714 34.7727C32.6653 34.5808 32.4235 34.4313 32.1597 34.3329C31.8959 34.2344 31.6153 34.1889 31.3339 34.1989C31.0525 34.2088 30.7758 34.2741 30.5197 34.3911C30.2635 34.508 30.0329 34.6742 29.841 34.8802C29.6491 35.0862 29.4996 35.3281 29.4011 35.5919C29.3027 35.8557 29.2571 36.1363 29.2671 36.4177C29.3234 39.1984 28.461 41.92 26.8135 44.1609C26.5701 44.459 26.4113 44.8172 26.354 45.1979C26.2967 45.5785 26.3428 45.9676 26.4877 46.3243C26.6325 46.6809 26.8706 46.992 27.1771 47.225C27.4836 47.4579 27.8471 47.604 28.2295 47.6481V47.6481Z" fill="#FFBE3D" stroke="#45413C" stroke-width="0.8" stroke-linecap="round" stroke-linejoin="round"/>
<path d="M32.4487 48.5336C32.8059 48.5748 33.1678 48.5254 33.5009 48.3901C33.8341 48.2548 34.1278 48.0378 34.3551 47.7592C36.6509 44.7061 37.8542 40.9702 37.7719 37.1512C37.7518 36.5829 37.5067 36.0458 37.0906 35.6582C36.6745 35.2706 36.1214 35.0642 35.5531 35.0844C34.9848 35.1045 34.4478 35.3496 34.0602 35.7657C33.6726 36.1818 33.4662 36.7349 33.4863 37.3032C33.5419 40.0842 32.6787 42.8058 31.0303 45.0464C30.7869 45.3445 30.6281 45.7027 30.5708 46.0834C30.5135 46.464 30.5596 46.8531 30.7045 47.2098C30.8493 47.5664 31.0874 47.8775 31.3939 48.1105C31.7004 48.3434 32.0639 48.4895 32.4463 48.5336H32.4487Z" fill="#FFBE3D" stroke="#45413C" stroke-width="0.8" stroke-linecap="round" stroke-linejoin="round"/>
<path d="M36.3898 49.4552C36.747 49.4962 37.1088 49.4469 37.4419 49.3115C37.7751 49.1762 38.0688 48.9593 38.2962 48.6808C40.592 45.6277 41.7953 41.8918 41.713 38.0728C41.703 37.7914 41.6377 37.5147 41.5208 37.2586C41.4039 37.0024 41.2377 36.7718 41.0317 36.5799C40.8256 36.3879 40.5838 36.2385 40.32 36.14C40.0562 36.0415 39.7756 35.996 39.4942 36.006C39.2128 36.016 38.9361 36.0813 38.68 36.1982C38.4238 36.3151 38.1932 36.4813 38.0013 36.6873C37.8094 36.8934 37.6599 37.1352 37.5614 37.399C37.463 37.6628 37.4174 37.9434 37.4274 38.2248C37.4832 41.0058 36.6205 43.7276 34.973 45.9688C34.7297 46.267 34.5712 46.6252 34.514 47.0058C34.4569 47.3864 34.5031 47.7754 34.648 48.1319C34.7929 48.4885 35.0311 48.7995 35.3376 49.0323C35.644 49.2651 36.0075 49.4112 36.3898 49.4552V49.4552Z" fill="#FFBE3D" stroke="#45413C" stroke-width="0.8" stroke-linecap="round" stroke-linejoin="round"/>
<path d="M17.0882 51.0369C20.0482 45.6193 22.7402 47.1345 26.2282 45.7721L26.4762 45.6609C26.4762 45.6609 35.0058 41.7769 42.7962 37.9513C42.8578 37.9922 42.9149 38.0394 42.9666 38.0921C43.3601 38.4327 43.8642 38.6183 44.3846 38.614C44.905 38.6097 45.406 38.416 45.7939 38.069C46.1818 37.722 46.4299 37.2456 46.4919 36.7289C46.5539 36.2122 46.4254 35.6906 46.1306 35.2617L44.7186 33.1993C42.3986 29.8105 38.6866 27.8761 34.6482 27.1361C23.3274 25.0625 11.1642 38.1377 6.625 45.4321L17.0882 51.0369Z" fill="#FFDA8F"/>
<path d="M8.4922 46.4321C13.0306 39.1377 24.9434 26.4601 36.2642 28.5337C38.7897 28.9597 41.1854 29.9538 43.2706 31.4409C40.9074 29.1536 37.8966 27.6504 34.6482 27.1361C23.3274 25.0625 11.1642 38.1377 6.625 45.4321L8.4922 46.4321Z" fill="#FFE9BD"/>
<path d="M17.0882 51.0369C20.0482 45.6193 22.7402 47.1345 26.2282 45.7721L26.4762 45.6609C26.4762 45.6609 35.0058 41.7769 42.7962 37.9513C42.8578 37.9922 42.9149 38.0394 42.9666 38.0921C43.3601 38.4327 43.8642 38.6183 44.3846 38.614C44.905 38.6097 45.406 38.416 45.7939 38.069C46.1818 37.722 46.4299 37.2456 46.4919 36.7289C46.5539 36.2122 46.4254 35.6906 46.1306 35.2617L44.7186 33.1993C42.3986 29.8105 38.6866 27.8761 34.6482 27.1361C23.3274 25.0625 11.1642 38.1377 6.625 45.4321L17.0882 51.0369Z" stroke="#45413C" stroke-width="0.8"/>
<path d="M1 49.668L3.984 45.2136C4.1423 44.9775 4.3879 44.8139 4.6668 44.7588C4.9457 44.7038 5.23504 44.7617 5.4712 44.92L17.4984 52.976C17.7345 53.1345 17.8982 53.3801 17.9534 53.6591C18.0086 53.9381 17.9508 54.2276 17.7928 54.464L14.8088 58.92L1 49.668Z" fill="#009FD9"/>
<path d="M1 49.668L3.984 45.2136C4.1423 44.9775 4.3879 44.8139 4.6668 44.7588C4.9457 44.7038 5.23504 44.7617 5.4712 44.92L17.4984 52.976C17.7345 53.1345 17.8982 53.3801 17.9534 53.6591C18.0086 53.9381 17.9508 54.2276 17.7928 54.464L14.8088 58.92" stroke="#45413C" stroke-width="0.8" stroke-linecap="round" stroke-linejoin="round"/>
<path d="M17.4979 52.9759L18.6915 51.1943C18.8497 50.958 18.9076 50.6684 18.8524 50.3894C18.7972 50.1104 18.6334 49.8647 18.3971 49.7063L8.1499 42.8439C8.03289 42.7655 7.90157 42.7109 7.76344 42.6832C7.62531 42.6556 7.48308 42.6554 7.34489 42.6827C7.20669 42.7101 7.07524 42.7644 6.95805 42.8426C6.84086 42.9207 6.74023 43.0213 6.6619 43.1383L5.4707 44.9199L17.4979 52.9759Z" fill="white" stroke="#45413C" stroke-width="0.8" stroke-linecap="round" stroke-linejoin="round"/>
<path d="M27.4295 34.7352C27.1999 35.172 27.1895 35.6688 27.7751 35.768L28.0479 35.7976C29.8201 35.8792 31.5959 35.756 33.3399 35.4304C33.4519 35.4024 33.5663 35.3856 33.6791 35.3552L39.4519 33.764C35.5007 30.44 30.4887 29.4536 27.4295 34.7352Z" fill="#FFBE3D" stroke="#45413C" stroke-width="0.8" stroke-linecap="round" stroke-linejoin="round"/>
<path d="M74.5018 13.6599C74.5018 13.4477 74.4175 13.2442 74.2675 13.0942C74.1174 12.9441 73.914 12.8599 73.7018 12.8599H29.2922C29.08 12.8599 28.8765 12.9441 28.7265 13.0942C28.5765 13.2442 28.4922 13.4477 28.4922 13.6599V39.3703C28.4921 39.5142 28.5203 39.6567 28.5753 39.7896C28.6303 39.9226 28.711 40.0434 28.8127 40.1452C28.9144 40.247 29.0352 40.3277 29.1681 40.3828C29.301 40.4379 29.4435 40.4663 29.5874 40.4663H67.2482C67.6839 40.4666 68.102 40.2939 68.4106 39.9863L74.021 34.3751C74.1733 34.2226 74.2942 34.0416 74.3765 33.8424C74.4589 33.6433 74.5012 33.4298 74.501 33.2143L74.5018 13.6599Z" fill="white"/>
<path d="M74.5018 13.6599C74.5018 13.4477 74.4175 13.2442 74.2675 13.0942C74.1174 12.9441 73.914 12.8599 73.7018 12.8599H29.2922C29.08 12.8599 28.8765 12.9441 28.7265 13.0942C28.5765 13.2442 28.4922 13.4477 28.4922 13.6599V39.3703C28.4921 39.5142 28.5203 39.6567 28.5753 39.7896C28.6303 39.9226 28.711 40.0434 28.8127 40.1452C28.9144 40.247 29.0352 40.3277 29.1681 40.3828C29.301 40.4379 29.4435 40.4663 29.5874 40.4663H67.2482C67.6839 40.4666 68.102 40.2939 68.4106 39.9863L74.021 34.3751C74.1733 34.2226 74.2942 34.0416 74.3765 33.8424C74.4589 33.6433 74.5012 33.4298 74.501 33.2143L74.5018 13.6599Z" stroke="#45413C" stroke-width="0.8" stroke-linecap="round" stroke-linejoin="round"/>
<path d="M28.4922 18.1199V13.6599C28.4922 13.4477 28.5765 13.2442 28.7265 13.0942C28.8765 12.9441 29.08 12.8599 29.2922 12.8599H73.7018C73.914 12.8599 74.1174 12.9441 74.2675 13.0942C74.4175 13.2442 74.5018 13.4477 74.5018 13.6599V18.1199H28.4922Z" fill="#FF6242"/>
<path d="M33.0918 26.6631H50.1814" stroke="#45413C" stroke-width="0.8" stroke-linecap="round" stroke-linejoin="round"/>
<path d="M33.0918 22.72H45.5814" stroke="#45413C" stroke-width="0.8" stroke-linecap="round" stroke-linejoin="round"/>
<path d="M49.6368 31.2646C49.3312 31.5704 49.1057 31.9468 48.9803 32.3605C48.8548 32.7742 48.8334 33.2124 48.9178 33.6364C49.0022 34.0603 49.1898 34.457 49.4641 34.7911C49.7384 35.1252 50.0909 35.3866 50.4903 35.5519C50.8897 35.7173 51.3237 35.7817 51.7539 35.7392C52.1841 35.6968 52.5972 35.549 52.9566 35.3088C53.3161 35.0686 53.6107 34.7435 53.8144 34.3622C54.0182 33.981 54.1248 33.5553 54.1248 33.123V33.6494C54.1248 34.2073 54.3464 34.7422 54.7408 35.1366C55.1352 35.5311 55.6702 35.7526 56.228 35.7526C56.7858 35.7526 57.3208 35.5311 57.7152 35.1366C58.1096 34.7422 58.3312 34.2073 58.3312 33.6494C58.3314 34.2071 58.5531 34.7419 58.9475 35.1361C59.3419 35.5304 59.8767 35.7518 60.4344 35.7518H62.0128" stroke="#45413C" stroke-width="0.8" stroke-linecap="round" stroke-linejoin="round"/>
<path d="M74.3517 33.8936H69.0229C68.7325 33.8936 68.4539 34.0089 68.2485 34.2143C68.0431 34.4197 67.9277 34.6983 67.9277 34.9888V40.316" stroke="#45413C" stroke-width="0.8" stroke-linecap="round" stroke-linejoin="round"/>
<path d="M28.4922 14.8327V13.6599C28.4922 13.4477 28.5765 13.2442 28.7265 13.0942C28.8765 12.9441 29.08 12.8599 29.2922 12.8599H73.7018C73.914 12.8599 74.1174 12.9441 74.2675 13.0942C74.4175 13.2442 74.5018 13.4477 74.5018 13.6599V14.8327H28.4922Z" fill="#FF866E"/>
<path d="M28.4922 18.1199V13.6599C28.4922 13.4477 28.5765 13.2442 28.7265 13.0942C28.8765 12.9441 29.08 12.8599 29.2922 12.8599H73.7018C73.914 12.8599 74.1174 12.9441 74.2675 13.0942C74.4175 13.2442 74.5018 13.4477 74.5018 13.6599V18.1199H28.4922Z" stroke="#45413C" stroke-width="0.8" stroke-linecap="round" stroke-linejoin="round"/>
<path d="M26.4766 45.6616C32.6646 42.88 35.1502 41.7096 43.495 37.608C43.9368 37.4464 44.3298 37.1743 44.6368 36.8178C44.9437 36.4613 45.1543 36.0322 45.2486 35.5712C45.2925 35.1838 45.2411 34.7915 45.0987 34.4285C44.9563 34.0655 44.7273 33.7428 44.4317 33.4886C44.136 33.2343 43.7827 33.0562 43.4025 32.9698C43.0222 32.8834 42.6266 32.8913 42.2502 32.9928L41.751 33.1304L33.6782 35.3552C33.5654 35.3856 33.451 35.4024 33.339 35.4304C31.595 35.7561 29.8192 35.8793 28.047 35.7976L27.7742 35.768C27.1918 35.6688 27.199 35.172 27.4286 34.7352" fill="#FFDA8F"/>
<path d="M43.1425 32.9257C42.8436 32.8913 42.5409 32.9141 42.2505 32.9929L41.7513 33.1305L33.6785 35.3553C33.5657 35.3857 33.4513 35.4025 33.3393 35.4305C31.9964 35.7007 30.629 35.8307 29.2593 35.8185C28.8593 36.2913 28.6593 37.0409 29.3913 37.1657L29.6633 37.1953C31.4355 37.277 33.2113 37.1538 34.9553 36.8281C35.0673 36.8001 35.1825 36.7833 35.2945 36.7537L43.3681 34.5281L43.8673 34.3905C44.2638 34.2835 44.6813 34.2808 45.0793 34.3825C44.9161 33.9888 44.6503 33.6459 44.3097 33.3897C43.9691 33.1335 43.566 32.9733 43.1425 32.9257V32.9257Z" fill="#FFE9BD"/>
<path d="M26.4766 45.6616C32.6646 42.88 35.1502 41.7096 43.495 37.608C43.9368 37.4464 44.3298 37.1743 44.6368 36.8178C44.9437 36.4613 45.1543 36.0322 45.2486 35.5712C45.2925 35.1838 45.2411 34.7915 45.0987 34.4285C44.9563 34.0655 44.7273 33.7428 44.4317 33.4886C44.136 33.2343 43.7827 33.0562 43.4025 32.9698C43.0222 32.8834 42.6266 32.8913 42.2502 32.9928L41.751 33.1304L33.6782 35.3552C33.5654 35.3856 33.451 35.4024 33.339 35.4304C31.595 35.7561 29.8192 35.8793 28.047 35.7976L27.7742 35.768C27.1918 35.6688 27.199 35.172 27.4286 34.7352" stroke="#45413C" stroke-width="0.8" stroke-linecap="round" stroke-linejoin="round"/>
</svg>
