<svg xmlns="http://www.w3.org/2000/svg" width="21" height="22" fill="none"><path fill="#fff" d="M10.302.697C4.612.697 0 5.31 0 11c0 5.69 4.613 10.302 10.302 10.302 5.689 0 10.302-4.613 10.302-10.302C20.604 5.31 15.99.697 10.302.697Z"/><path fill="#4585E5" d="M10.302.697C4.612.697 0 5.31 0 11c0 5.69 4.613 10.302 10.302 10.302 5.689 0 10.302-4.613 10.302-10.302C20.604 5.31 15.99.697 10.302.697Zm1.893 17.348c1.449-1.373 1.64-2.982 1.265-4.642-.538-2.39-2.865-3.493-3.2-3.646.162.459.376 1.27.262 2.284a5.353 5.353 0 0 1-.75 2.173 2.3 2.3 0 0 0-1.347-1.753c-.056 1.713-1.192 1.645-.918 3.94.077.644.351 1.153.702 1.555a4.854 4.854 0 0 1-2.764-4.382c0-2.68 3.999-6.671 3.999-9.38 3.47 2.414 5.709 6.7 5.709 9.38 0 2.009-1.22 3.732-2.96 4.47h.002Z"/></svg>