<svg fill="currentColor" height="24" viewBox="0 0 23 24" width="23" xmlns="http://www.w3.org/2000/svg">
  <path d="m21.8761 8.75696h-2.8103v-5.62058h2.8103c.4992-.00003.8112-.54049.5616-.97282-.1158-.20064-.3299-.32424-.5616-.32425h-2.9584c-.2502-.52741-.7814-.863901-1.3652-.864701h-1.7294c-.5837.0008-1.1149.337291-1.3651.864701h-2.0937c-6.08596.00716-11.01784 4.93903-11.02499 11.02499v2.0937c-.527412.2502-.863901.7814-.864701 1.3651v1.7294c.0008.5838.337289 1.115.864701 1.3652v2.9584c0 .4992.54044.8112.9728.5616.20066-.1158.32427-.3299.32427-.5616v-2.8103h5.62058v2.8103c0 .4992.54044.8112.97279.5616.20066-.1158.32427-.3299.32427-.5616v-2.9584c.52738-.2502.86388-.7814.86468-1.3652v-1.7294c-.0008-.5837-.3373-1.1149-.86468-1.3651v-2.0937c0-1.5521 1.25818-2.8104 2.81028-2.8103h2.0937c.2502.5274.7814.8639 1.3651.8647h1.7294c.5838-.0008 1.115-.3373 1.3652-.8647h2.9584c.4992 0 .8112-.54042.5616-.97277-.1158-.20066-.3299-.32427-.5616-.32427zm-12.97061 7.35004c.11939 0 .21618.0968.21618.2161v1.7294c0 .1194-.09679.2162-.21618.2162h-6.91764c-.1194 0-.21619-.0968-.21619-.2162v-1.7294c0-.1194.09679-.2161.21619-.2161zm-.64853-3.2427v1.9456h-5.62058v-1.9456c.00595-5.37011 4.35781-9.72197 9.72792-9.72792h1.9456v5.62058h-1.9456c-2.2684 0-4.10734 1.83894-4.10734 4.10734zm9.29554-3.24263h-1.7294c-.1194.00001-.2161-.09678-.2161-.21618v-6.91764c0-.1194.0967-.21619.2161-.21619h1.7294c.1194.00001.2162.0968.2162.21619v6.91764c0 .11939-.0968.21618-.2162.21618z" fill="currentColor" stroke="currentColor" stroke-width="0.8"/>
</svg>
