<svg fill="none" height="64" viewBox="0 0 64 64" width="64" xmlns="http://www.w3.org/2000/svg"><rect fill="#e3e3fd" height="64" rx="10" transform="matrix(-1 0 0 1 64 0)" width="64"/><path d="m32.0002 13.3359c7.2741 0 13.1717 5.8788 13.1717 13.329 0 9.3668-13.1702 23.9984-13.1702 23.9984s-13.1717-14.6316-13.1717-23.9984c0-7.4502 5.8976-13.329 13.1717-13.329z" fill="#faa996"/><path d="m32 51c.0918 0 .1792-.0396.2409-.1087.542-.6006 13.2591-14.8358 13.2591-24.226 0-7.5354-6.0567-13.6653-13.5-13.6653s-13.5 6.1299-13.5 13.6653c0 9.3902 12.7171 23.6239 13.2577 24.226.0616.0691.1491.1087.2409.1087zm0-37.3274c7.0819 0 12.8433 5.8289 12.8433 12.9927 0 8.4327-11.0567 21.4489-12.8419 23.4961-1.7866-2.0472-12.8418-15.0634-12.8418-23.4961 0-7.1638 5.7613-12.9927 12.8418-12.9927z" fill="#0c0c0c"/><path d="m24.2188 27.0897c0 2.15.8302 4.0989 2.1824 5.5322 1.4152 1.5024 3.3997 2.435 5.5979 2.435 2.1981 0 4.184-.9341 5.5993-2.435 1.3507-1.4333 2.1809-3.3836 2.1809-5.5322 0-4.4014-3.4829-7.9686-7.7802-7.9686-4.2974 0-7.7803 3.5672-7.7803 7.9686z" fill="#f8f2ed"/><path d="m32.0008 35.3935c2.2211 0 4.293-.9017 5.8344-2.5377 1.4669-1.5552 2.2742-3.6025 2.2742-5.7657 0-4.5791-3.6378-8.3049-8.1086-8.3049-4.4709 0-8.1086 3.7258-8.1086 8.3049 0 2.1632.8072 4.2105 2.2741 5.7657 1.5429 1.6375 3.6148 2.5377 5.8345 2.5377zm0-15.9357c4.108 0 7.4519 3.4233 7.4519 7.6323 0 1.9885-.7414 3.8697-2.0892 5.2987-1.4181 1.5038-3.3209 2.3321-5.3627 2.3321-2.0419 0-3.9446-.8283-5.3613-2.3321-1.3479-1.429-2.0892-3.3117-2.0892-5.2987 0-4.209 3.3424-7.6323 7.4519-7.6323z" fill="#0c0c0c"/><path d="m26.4024 32.6239c1.4153 1.5024 3.3998 2.4349 5.5979 2.4349s4.1841-.934 5.5993-2.4349c-1.4152-1.5009-3.3997-2.4364-5.5993-2.4364s-4.1826.934-5.5979 2.4364z" fill="#6a6af4"/><path d="m32.0008 35.3955c2.2211 0 4.293-.9017 5.8344-2.5377.1234-.1307.1234-.3363 0-.467-1.5428-1.6375-3.6148-2.5392-5.8344-2.5392-2.2197 0-4.2916.9017-5.8345 2.5392-.1233.1307-.1233.3363 0 .467 1.5429 1.6375 3.6148 2.5377 5.8345 2.5377zm5.1333-2.7712c-1.3909 1.3555-3.2004 2.0986-5.1333 2.0986s-3.7424-.7431-5.1319-2.0986c1.3909-1.3555 3.2004-2.0986 5.1319-2.0986 1.9314 0 3.7424.7431 5.1333 2.0986z" fill="#0c0c0c"/><path d="m28.4301 26.5318c0 2.0193 1.5988 3.6568 3.5704 3.6568s3.5718-1.6375 3.5718-3.6568-1.5988-3.6568-3.5718-3.6568c-1.9731 0-3.5704 1.6375-3.5704 3.6568z" fill="#6a6af4"/><path d="m32.0002 30.5214c2.1509 0 3.9002-1.7917 3.9002-3.9931 0-2.2015-1.7493-3.9931-3.9002-3.9931-2.1508 0-3.8987 1.7916-3.8987 3.9931 0 2.2014 1.7493 3.9931 3.8987 3.9931zm0-7.3136c1.7881 0 3.242 1.4906 3.242 3.3205s-1.4539 3.3205-3.242 3.3205c-1.788 0-3.242-1.4892-3.242-3.3205 0-1.8314 1.454-3.3205 3.242-3.3205z" fill="#0c0c0c"/></svg>