<svg fill="none" height="64" viewBox="0 0 64 64" width="64" xmlns="http://www.w3.org/2000/svg" xmlns:xlink="http://www.w3.org/1999/xlink"><clipPath id="a"><path d="m13 13h38v38h-38z"/></clipPath><rect fill="#e3e3fd" height="64" rx="10" transform="matrix(-1 0 0 1 64 0)" width="64"/><g clip-path="url(#a)"><path d="m32.0195 31.9648v12.5293h-12.5175v-3.02c0-.6533.6336-1.1176 1.2562-.9204.765.2424 1.675.4999 2.1116.4999 1.5573 0 2.8204-1.2641 2.8204-2.8241s-1.2631-2.8242-2.8204-2.8242c-.4366 0-1.3466.2561-2.1116.4999-.6226.1973-1.2562-.267-1.2562-.9204v-3.02z" fill="#9a9af7"/><path d="m32.0184 44.8075h-12.5175c-.1724 0-.3134-.1411-.3134-.3136v-3.02c0-.4137.1902-.7889.5228-1.0327.3325-.2425.7485-.3109 1.1413-.1863 1.3274.4218 1.8337.4848 2.0157.4848 1.3822 0 2.5071-1.1258 2.5071-2.5091s-1.1249-2.5105-2.5071-2.5105c-.1833 0-.6883.063-2.0157.4848-.3928.1247-.8088.0562-1.1413-.1862-.3326-.2438-.5228-.6205-.5228-1.0327v-3.02c0-.1726.141-.3137.3134-.3137h12.5189c.1724 0 .3133.1411.3133.3137v12.5292c0 .1726-.1409.3137-.3133.3137zm-12.2041-.6273h11.8907v-11.9019h-11.8907v2.7063c0 .2109.0971.4027.2668.526.1683.1232.3805.1575.5803.0945 1.0742-.3411 1.8159-.515 2.2059-.515 1.7284 0 3.1339 1.4079 3.1339 3.1378 0 1.7298-1.4055 3.1378-3.1339 3.1378-.39 0-1.1317-.1726-2.2059-.5136-.1985-.0644-.4106-.0288-.5803.0945-.1697.1246-.2668.3163-.2668.5259v2.7064z" fill="#0c0c0c"/><path d="m29.0008 19.5073c-.6528 0-1.1167-.6342-.9196-1.2573.2422-.7656.4995-1.6764.4995-2.1134 0-1.5599-1.2632-2.8241-2.8205-2.8241s-2.8204 1.2642-2.8204 2.8241c0 .437.2559 1.3478.4995 2.1134.197.6231-.2669 1.2573-.9197 1.2573h-3.0175v3.02c0 .6533-.6336 1.1176-1.2562.9204-.765-.2425-1.675-.5-2.1116-.5-1.5587 0-2.8218 1.2642-2.8218 2.8242s1.2631 2.8228 2.8218 2.8228c.4366 0 1.3466-.2561 2.1116-.4999.6226-.1973 1.2562.267 1.2562.9203v3.0201h12.5189v-12.5279h-3.0175z" fill="#6a6af4"/><path d="m32.0205 32.3497h-12.5188c-.1725 0-.3134-.141-.3134-.3136v-3.02c0-.2109-.0972-.4027-.2669-.5259-.1683-.1247-.3804-.1589-.5802-.0945-1.0743.341-1.816.5149-2.206.5149-1.7284 0-3.1352-1.4066-3.1352-3.1364s1.4068-3.1378 3.1352-3.1378c.39 0 1.1317.1726 2.206.515.1998.063.4119.0288.5802-.0945.1697-.1246.2669-.3164.2669-.5259v-3.02c0-.1726.1409-.3137.3134-.3137h3.0175c.2107 0 .4023-.0972.5255-.2671.1231-.1684.1587-.3807.0944-.5807-.3408-1.0738-.5146-1.8175-.5146-2.2078 0-1.7298 1.4055-3.1378 3.1339-3.1378 1.7283 0 3.1351 1.408 3.1351 3.1378 0 .3903-.1724 1.1327-.5145 2.2078-.063.2-.0287.4123.0944.5807.1246.1699.3161.2671.5255.2671h3.0175c.1725 0 .3134.1411.3134.3137v12.5292c0 .1726-.1409.3136-.3134.3136zm-12.2055-.6286h11.8921v-11.9006h-2.7041c-.4119 0-.7882-.1904-1.0318-.5232s-.3107-.7492-.1861-1.1423c.4215-1.3285.4844-1.8339.4844-2.0174 0-1.3833-1.1249-2.5091-2.507-2.5091-1.3822 0-2.5071 1.1258-2.5071 2.5091 0 .1835.063.6889.4844 2.0174.1246.3931.0562.8095-.1861 1.1423-.2436.3328-.6199.5232-1.0318.5232h-2.7041v2.7063c0 .4137-.1902.7889-.5228 1.0327-.3325.2438-.7472.3109-1.1413.1863-1.3274-.4218-1.8324-.4848-2.0158-.4848-1.3821 0-2.507 1.1258-2.507 2.5105 0 1.3846 1.1249 2.5091 2.507 2.5091.1834 0 .6884-.063 2.0158-.4848.3928-.1247.8088-.0562 1.1413.1862.3326.2438.5228.6205.5228 1.0327v2.7064z" fill="#0c0c0c"/><path d="m44.5384 44.4941v-12.5293h-12.5189v12.5293h3.0175c.6528 0 1.1167.6341.9197 1.2573-.2423.7656-.4995 1.6764-.4995 2.1133 0 1.56 1.2631 2.8242 2.8204 2.8242s2.8218-1.2642 2.8218-2.8242c0-.4369-.2559-1.3477-.4995-2.1133-.1971-.6232.2669-1.2573.9196-1.2573h3.0175z" fill="#f8f2ed"/><path d="m38.2785 50.9984c-1.7284 0-3.1352-1.408-3.1352-3.1378 0-.3904.1724-1.1327.5145-2.2078.063-.2.0288-.4123-.0944-.5808-.1245-.1698-.3161-.267-.5255-.267h-3.0175c-.1724 0-.3134-.1411-.3134-.3137v-12.5292c0-.1726.141-.3137.3134-.3137h12.5189c.1724 0 .3134.1411.3134.3137v12.5292c0 .1726-.141.3137-.3134.3137h-3.0175c-.2108 0-.4024.0972-.5255.267-.1232.1699-.1574.3808-.0944.5808.3407 1.0751.5145 1.8174.5145 2.2078 0 1.7298-1.4068 3.1378-3.1352 3.1378zm-5.9447-6.8207h2.7041c.4133 0 .7883.1904 1.0319.5232.2435.3328.3106.7492.1861 1.1409-.4215 1.3285-.4845 1.8339-.4845 2.0174 0 1.3847 1.1249 2.5105 2.5071 2.5105 1.3821 0 2.5084-1.1258 2.5084-2.5105 0-.1835-.0629-.6889-.4844-2.0174-.1246-.3931-.0575-.8095.1861-1.1409.2436-.3328.6199-.5232 1.0318-.5232h2.7041v-11.902h-11.8921v11.902z" fill="#0c0c0c"/><path d="m47.8646 22.9634c-.4325 0-1.3179.252-2.0678.493-.6226.2-1.259-.2643-1.259-.919v-3.0296h-3.2898c-.6528 0-1.1167.6341-.9196 1.2573.2422.7656.4995 1.6764.4995 2.1133 0 1.5587-1.2632 2.8228-2.8205 2.8228s-2.8218-1.2641-2.8218-2.8228c0-.4369.2559-1.3477.4995-2.1133.1984-.6232-.2669-1.2573-.9196-1.2573h-2.7452v2.8872c0 .6533-.6336 1.1176-1.2563.9203-.7649-.2424-1.675-.4999-2.1115-.4999-1.5574 0-2.8205 1.2642-2.8205 2.8242s1.2631 2.8241 2.8205 2.8241c.4365 0 1.3466-.2561 2.1115-.4999.6227-.1972 1.2563.2671 1.2563.9204v3.1542h3.0175c.6528 0 1.1167.6342.9196 1.2573-.2436.7657-.4995 1.6764-.4995 2.112 0 1.56 1.2631 2.8241 2.8218 2.8241s2.8219-1.2641 2.8219-2.8241c0-.4369-.256-1.3477-.4995-2.1133-.1971-.6232.2668-1.2573.9196-1.2573h3.0175v-2.9995c0-.6547.6363-1.119 1.259-.919.7499.241 1.6353.4931 2.0678.4931 1.5587 0 2.8218-1.2642 2.8218-2.8242s-1.2631-2.8241-2.8218-2.8241z" fill="#faa996"/><path d="m38.2779 38.5413c-1.7284 0-3.1352-1.4079-3.1352-3.1377 0-.3904.1724-1.1327.5145-2.2079.063-.1999.0288-.4122-.0944-.5821-.1245-.1698-.3161-.267-.5255-.267h-3.0175c-.1724 0-.3134-.1411-.3134-.3137v-3.1542c0-.2109-.0971-.4027-.2668-.5259-.1697-.1247-.3805-.1589-.5803-.0945-1.0728.341-1.8159.5149-2.2059.5149-1.7284 0-3.1339-1.4079-3.1339-3.1377 0-1.7299 1.4055-3.1378 3.1339-3.1378.39 0 1.1331.1725 2.2059.5149.2012.0644.412.0302.5803-.0945.1697-.1246.2668-.3163.2668-.5259v-2.8872c0-.1725.141-.3136.3134-.3136h2.7452c.4133 0 .7896.1904 1.0318.5232.2436.3328.3107.7492.1861 1.1423-.4214 1.3285-.4844 1.8339-.4844 2.0174 0 1.3833 1.1249 2.5091 2.5084 2.5091 1.3836 0 2.5071-1.1258 2.5071-2.5091 0-.1835-.063-.6889-.4845-2.0174-.1245-.3931-.0574-.8095.1862-1.1409.2435-.3328.6199-.5232 1.0318-.5232h3.2898c.1724 0 .3134.141.3134.3136v3.0296c0 .2109.0972.4027.2669.5273.1696.1233.3818.1575.5829.0931 1.0483-.3369 1.7763-.5081 2.1636-.5081 1.7284 0 3.1352 1.4066 3.1352 3.1364 0 1.7299-1.4068 3.1378-3.1352 3.1378-.3873 0-1.1153-.1712-2.1636-.5081-.1998-.063-.4133-.0301-.5829.0931-.1697.1247-.2669.3164-.2669.526v2.9994c0 .1726-.141.3137-.3134.3137h-3.0175c-.2107 0-.4023.0972-.5255.267-.1231.1685-.1587.3808-.0944.5808.3407 1.0737.5145 1.8174.5145 2.2078 0 1.7298-1.4068 3.1378-3.1351 3.1378zm-5.9447-6.8206h2.7041c.4133 0 .7883.1903 1.0319.5231.2435.3329.3106.7492.1861 1.1423-.4215 1.3285-.4858 1.8339-.4858 2.0175 0 1.3846 1.1249 2.5105 2.5084 2.5105s2.507-1.1259 2.507-2.5105c0-.1836-.0629-.689-.4844-2.0175-.1245-.3931-.0561-.8094.1861-1.1423.2436-.3328.6199-.5231 1.0318-.5231h2.7042v-2.6859c0-.4136.1916-.7902.5241-1.034.3339-.2424.7513-.3096 1.1441-.1836 1.2932.415 1.7899.478 1.9719.478 1.3836 0 2.5085-1.1258 2.5085-2.5105 0-1.3846-1.1249-2.5091-2.5085-2.5091-.182 0-.6787.0616-1.9719.478-.3942.126-.8102.0589-1.1441-.1835-.3339-.2438-.5241-.6205-.5241-1.0341v-2.7159h-2.9765c-.2107 0-.4023.0972-.5255.267-.1231.1685-.1573.3808-.0944.5808.3408 1.0751.5132 1.8174.5132 2.2078 0 1.7298-1.4055 3.1378-3.1338 3.1378-1.7284 0-3.1352-1.408-3.1352-3.1378 0-.3904.1724-1.1327.5145-2.2078.063-.2.0288-.4123-.0944-.5808-.1245-.1698-.3161-.267-.5255-.267h-2.4318v2.5721c0 .4136-.1902.7889-.5228 1.0327-.3325.2424-.7485.3109-1.1413.1863-1.3274-.4219-1.8324-.4849-2.0157-.4849-1.3822 0-2.5071 1.1258-2.5071 2.5105s1.1249 2.5092 2.5071 2.5092c.1833 0 .6897-.063 2.0157-.4849.3914-.1246.8088-.0561 1.1413.1863.3326.2438.5228.6204.5228 1.0327z" fill="#0c0c0c"/></g></svg>