<svg fill="none" height="64" viewBox="0 0 64 64" width="64" xmlns="http://www.w3.org/2000/svg" xmlns:xlink="http://www.w3.org/1999/xlink"><clipPath id="a"><path d="m13 13h38v38h-38z"/></clipPath><rect fill="#e3e3fd" height="64" rx="10" transform="matrix(-1 0 0 1 64 0)" width="64"/><g clip-path="url(#a)"><path d="m26.7149 35.4923-3.0235 3.0233 1.7936 1.7936 3.0235-3.0234z" fill="#f8f2ed"/><path d="m25.4862 40.6742c-.0948 0-.188-.0354-.2604-.1077l-1.7939-1.7938c-.0691-.0692-.1077-.1624-.1077-.2604 0-.0981.0386-.1913.1077-.2604l3.0236-3.0235c.1431-.1431.3762-.1431.5208 0l1.7939 1.7938c.0692.0691.1077.1624.1077.2604 0 .0981-.0385.1913-.1077.2604l-3.0236 3.0235c-.0723.0723-.1655.1077-.2604.1077zm-1.2731-2.1603 1.2731 1.273 2.5028-2.5027-1.2731-1.273z" fill="#0c0c0c"/><path d="m23.1991 37.4336-9.1351 9.1363c-.9291.9291-.9291 2.4352 0 3.3643.9291.929 2.4353.929 3.3644 0l9.1367-9.1364-3.3644-3.3642z" fill="#6a6af4"/><path d="m15.7447 51.0004c-.733 0-1.4242-.2862-1.9418-.8053-1.0705-1.0706-1.0705-2.8146 0-3.8851l9.1367-9.1363c.1431-.1431.3762-.1431.5208 0l3.3644 3.3642c.0692.0692.1077.1624.1077.2604 0 .0981-.0385.1913-.1077.2604l-9.1367 9.1364c-.5192.5191-1.2088.8053-1.9434.8053zm7.4537-13.0439-8.8763 8.8759c-.7844.7844-.7844 2.0591 0 2.8435.7603.7603 2.0849.7603 2.8436 0l8.8747-8.876-2.8436-2.8434z" fill="#0c0c0c"/><path d="m46.5712 37.0354c-5.4155 5.4153-14.1937 5.4153-19.6092 0-5.4155-5.4152-5.4155-14.1931 0-19.6068 5.4155-5.4152 14.1937-5.4152 19.6092 0 5.4155 5.4137 5.4155 14.1932 0 19.6068z" fill="#faa996"/><path d="m36.7652 41.4586c-3.6457 0-7.2898-1.3872-10.0642-4.1615-2.6877-2.6875-4.1698-6.2623-4.1698-10.0638 0-3.8014 1.4805-7.3762 4.1698-10.0638 2.6892-2.6891 6.2626-4.1695 10.0642-4.1695s7.3765 1.4804 10.0642 4.1695c2.6892 2.6876 4.1697 6.2624 4.1697 10.0638 0 3.8015-1.4805 7.3763-4.1697 10.0638-2.7745 2.7743-6.4201 4.1615-10.0642 4.1615zm0-27.7224c-3.6055 0-6.994 1.4032-9.5434 3.9525s-3.9527 5.9377-3.9527 9.543c0 3.6054 1.4033 6.9937 3.9527 9.543 5.2628 5.2626 13.8256 5.2626 19.0884 0 2.5494-2.5493 3.9527-5.9392 3.9527-9.543 0-3.6037-1.4033-6.9937-3.9527-9.543s-5.9379-3.9525-9.5434-3.9525z" fill="#0c0c0c"/><path d="m44.2811 34.7471c-4.1504 4.1503-10.8792 4.1503-15.0296 0-4.1504-4.1502-4.1504-10.8787 0-15.0289 4.1504-4.1503 10.8792-4.1503 15.0296 0 4.1504 4.1502 4.1504 10.8787 0 15.0289z" fill="#f8f2ed"/><path d="m36.7661 38.2265c-2.9368 0-5.6984-1.1428-7.7752-3.2212-2.0769-2.0767-3.2214-4.8382-3.2214-7.7749 0-2.9366 1.1445-5.6981 3.2214-7.7748 2.0768-2.0768 4.8384-3.2212 7.7752-3.2212s5.6984 1.1428 7.7752 3.2212c2.0768 2.0767 3.2213 4.8382 3.2213 7.7748 0 2.9367-1.1429 5.6982-3.2213 7.7749-2.0768 2.0768-4.8384 3.2212-7.7752 3.2212zm0-21.2543c-2.7407 0-5.3159 1.0673-7.2544 3.0041-1.9386 1.9385-3.0044 4.5136-3.0044 7.2541 0 2.7406 1.0674 5.3172 3.0044 7.2541 1.9385 1.9369 4.5137 3.0042 7.2544 3.0042s5.3174-1.0673 7.2544-3.0042c1.9369-1.9385 3.0043-4.5135 3.0043-7.2541 0-2.7405-1.0674-5.3172-3.0043-7.2541-1.9386-1.9368-4.5137-3.0041-7.2544-3.0041z" fill="#0c0c0c"/><path d="m40.4349 26.4442h-10.7474l.4517-1.0367h10.7281l-.434 1.0367zm-.8857 2.072h-9.8617l.4517-1.0368h9.8617zm2.0623 3.2581c-1.0866.9355-2.4304 1.4032-4.0314 1.4032-1.7586 0-3.2342-.5963-4.4269-1.789-1.1928-1.1926-1.7891-2.6682-1.7891-4.4267 0-1.7584.5963-3.234 1.7891-4.4267 1.1927-1.1927 2.6683-1.789 4.4269-1.789 1.7585 0 3.2518.6156 4.4831 1.8453l-.4517 1.0448c-1.1493-1.2361-2.4931-1.855-4.0314-1.855-1.4435 0-2.6684.5032-3.6731 1.5078-1.0046 1.0046-1.5077 2.2294-1.5077 3.6728s.5015 2.6683 1.5077 3.6729c1.0047 1.0046 2.2296 1.5077 3.6731 1.5077 1.5704 0 2.9126-.6317 4.0314-1.8935z" fill="#000091"/></g></svg>