<svg fill="none" height="64" viewBox="0 0 64 64" width="64" xmlns="http://www.w3.org/2000/svg" xmlns:xlink="http://www.w3.org/1999/xlink"><clipPath id="a"><path d="m13 13h38v38h-38z"/></clipPath><rect fill="#e3e3fd" height="64" rx="10" transform="matrix(-1 0 0 1 64 0)" width="64"/><g clip-path="url(#a)"><path d="m45.9706 31.2442-2.5122.4535-1.8581-.7477-.3744-2.7486-.236-1.7295-.2727-2.0123-1.0893-8.0005c-.1837-1.3427.6146-2.6024 1.7817-2.8121s2.2607.7087 2.4444 2.0513l1.8298 13.4345.2882 2.1147z" fill="#f8f2ed"/><path d="m43.4575 32.0707c-.0367 0-.0721-.0065-.1074-.0212l-1.8594-.7477c-.1131-.0455-.195-.1577-.2134-.2942l-.8789-6.4612c-.0028-.0097-.0042-.0211-.0056-.0325l-1.0894-7.9989c-.2105-1.5426.7107-2.9957 2.053-3.2379 1.3367-.2438 2.6027.816 2.8146 2.3602l2.1181 15.5491c.0127.0975-.0085.1967-.058.2763-.0494.0797-.1271.1333-.2119.148l-2.5123.4535c-.0169.0032-.0339.0048-.0494.0048zm-1.5684-1.3979 1.5995.6436 2.1123-.3803-2.0685-15.1802c-.1554-1.1378-1.0852-1.9197-2.0742-1.7409-.9891.1788-1.6687 1.25-1.5119 2.3878l1.0852 7.9681c.0028.0113.0042.0211.0056.0325l.8534 6.271z" fill="#0c0c0c"/><path d="m38.7781 29.8175-3.5055-5.6566-4.2756-6.8968c-.6853-1.1053-.4621-2.643.4987-3.4314.9623-.7899 2.2989-.5315 2.9856.5755l6.234 10.055 1.5726 2.539.1371.2195-1.1996.985-2.1237 1.7425" fill="#f8f2ed"/><path d="m39.1012 30.3163c-.0947 0-.1893-.0471-.2529-.1382-.1229.0309-.2557-.0211-.3335-.1479l-7.7811-12.5534c-.3815-.6161-.5327-1.3654-.4239-2.1131.1088-.7461.4635-1.3995.999-1.8384 1.1077-.907 2.6479-.6096 3.4363.6616l7.9422 12.8135c.0495.0796.0706.1804.0565.2779s-.0622.1853-.1314.2422l-3.3233 2.7275c-.0579.0472-.1229.0699-.1879.0699zm-6.3639-16.5716c-.3646 0-.7334.1252-1.0513.3869-.8152.6681-1.0046 1.9749-.4239 2.9128l7.7558 12.5128 2.9573-2.4252-7.7572-12.5111c-.3546-.5706-.9141-.8745-1.4821-.8745z" fill="#0c0c0c"/><path d="m18.4834 21.6523 30.1157 12.1097-1.3818 4.5334-30.1157-12.1113z" fill="#faa69d"/><path d="m47.2175 38.6672c-.0353 0-.072-.0065-.1073-.0211l-30.1158-12.1097c-.0805-.0325-.1469-.1008-.1851-.1902-.0367-.0894-.0423-.1918-.0141-.2844l1.3819-4.5318c.0593-.1934.2444-.2959.4126-.2276l30.1157 12.1097c.0805.0325.1469.1008.1851.1902.0367.0894.0424.1918.0141.2844l-1.3819 4.5334c-.0466.1528-.1723.2487-.3052.2487zm-29.7031-12.7111 29.5053 11.8659 1.1671-3.8312-29.5053-11.8643z" fill="#0c0c0c"/><path d="m50.5589 37.1427c-.3815 1.2516-1.574 1.9099-2.662 1.4711l-.6938-.2812 1.3819-4.5318.6938.2796c1.0879.4388 1.6602 1.8107 1.2787 3.0623z" fill="#6a6af4"/><path d="m48.5877 39.1221c-.2642 0-.5326-.0504-.7955-.1561l-.6951-.2812c-.1682-.0682-.2572-.2812-.1978-.4746l1.3832-4.5318c.0594-.1934.2431-.2958.4126-.2275l.6952.2795c1.2547.5056 1.916 2.092 1.4779 3.5354-.3475 1.1411-1.2829 1.8563-2.279 1.8563zm-.9707-1.0176.39.1577c.9184.3706 1.9273-.1869 2.2494-1.2435.3222-1.0565-.1639-2.2171-1.0809-2.5877l-.3885-.156-1.1685 3.8295z" fill="#0c0c0c"/><path d="m18.4843 21.6484-1.3847 4.5383-2.0714-2.2399-1.704-1.8335 2.3257-.2064z" fill="#6a6af4"/><path d="m17.0995 26.5596c-.0806 0-.1611-.0358-.2219-.1008l-3.7754-4.0734c-.0933-.1008-.1258-.2552-.0848-.395s.1526-.2373.2812-.247l5.1587-.4649c.1088-.0098.2148.0439.2812.1446.0664.0992.0862.2309.0494.3511l-1.3847 4.5367c-.0367.1187-.1215.2081-.2289.2389-.0254.0065-.0508.0114-.0763.0114zm-3.0167-4.1401 2.8768 3.1031 1.0554-3.4574-3.9308.3543z" fill="#0c0c0c"/><path d="m45.6827 29.1297c.9367 1.4808.5948 3.2883.4549 3.6264 0 .0065-.0042.0114-.007.0179l-2.6733-1.0761-1.8581-.7477-1.3677-.551-1.1304-.4552-.3221-.13-14.8318-5.9719c-.9114-.3706-1.3918-1.5215-1.0696-2.5683.3221-1.0468 1.3225-1.5994 2.2324-1.2288l10.1634 4.114 5.7154 2.3131 1.2999.5266 1.6687.6762c.8195.3706 1.3664.8891 1.7253 1.458" fill="#f8f2ed"/><path d="m46.1287 33.1467c-.0353 0-.0706-.0065-.1045-.0211l-22.1834-8.9335c-.5228-.2113-.9425-.6453-1.1827-1.2208-.2402-.5754-.2698-1.2223-.0861-1.8237.3829-1.2402 1.5683-1.8953 2.6464-1.4564l18.8474 7.6282c.8167.3707 1.4455.9038 1.8792 1.5897.9821 1.5507.7065 3.4541.4903 3.9938-.0056.0163-.0127.0325-.0183.0455-.0594.1219-.171.1951-.2869.1951zm-21.5984-12.846c-.5878 0-1.1402.4226-1.3479 1.0956-.1258.4128-.106.8582.0593 1.2532.1653.3966.4536.6941.8124.8404l21.8655 8.8051c.106-.5852.1894-1.8579-.4988-2.9454-.3603-.5705-.8929-1.0191-1.5825-1.3312l-18.8361-7.6234c-.1554-.0634-.3151-.0943-.4719-.0943z" fill="#0c0c0c"/><path d="m36.0861 33.8474c.2176.512.3391 1.0874.3391 1.6937 0 2.1375-1.5062 3.8703-3.3642 3.8703-1.2589 0-2.3568-.7949-2.9333-1.975-.7291-1.3995-2.378-5.273-3.2286-7.2967-.3221-.7672-.5298-1.2678-.5298-1.2678-1.7012-3.5256-4.9298-1.6352-4.9298-1.6352l6.7807 23.392h12.564l4.0241-13.2605-8.7207-3.5192z" fill="#f8f2ed"/><path d="m40.7854 50.9997h-12.564c-.1385 0-.2628-.1024-.3066-.2552l-6.7808-23.392c-.0509-.1755.017-.3657.1597-.4502.0353-.0211 3.5281-2.0091 5.3593 1.7864.0099.0211.2176.5217.5383 1.2873.8944 2.1245 2.501 5.8956 3.2145 7.2675.5426 1.1102 1.5585 1.7945 2.6564 1.7945 1.6757 0 3.0392-1.5686 3.0392-3.4964 0-.5364-.1031-1.0517-.3066-1.5312-.0579-.1349-.0381-.2974.0495-.4112.0876-.1122.2246-.1544.349-.104l8.7207 3.5191c.1682.0682.2572.2796.1978.4746l-4.0241 13.2605c-.0452.1496-.1681.2503-.3052.2503zm-12.3309-.7461h12.1006l3.8418-12.659-7.7656-3.1339c.0805.3495.1201.7103.1201 1.0809 0 2.339-1.6546 4.2425-3.6878 4.2425-1.331 0-2.5631-.829-3.2159-2.1652-.722-1.3881-2.3399-5.1803-3.2385-7.3161-.3236-.7689-.5313-1.2695-.5313-1.2695-1.2716-2.6365-3.4857-1.9295-4.2374-1.5914l6.614 22.815z" fill="#0c0c0c"/></g></svg>