<svg fill="none" height="64" viewBox="0 0 64 64" width="64" xmlns="http://www.w3.org/2000/svg" xmlns:xlink="http://www.w3.org/1999/xlink"><clipPath id="a"><path d="m0 0h42v37.0019h-42z" transform="matrix(-1 0 0 1 53 13.5)"/></clipPath><rect fill="#e3e3fd" height="64" rx="10" transform="matrix(-1 0 0 1 64 0)" width="64"/><g clip-path="url(#a)"><path d="m11.4206 38.1908c0-.6977.5807-1.2689 1.2901-1.2689h10.6282l.0166 11.8935c0 .6977-.5808 1.2689-1.2902 1.2689h-4.6607s-.0129 0-.0202 0c-.0515 0-.103 0-.1544-.0018-3.2162-.0796-5.7966-2.668-5.8021-5.8474l-.0073-.0072v-6.0353z" fill="#f8f2ed"/><path d="m17.3854 50.5019h4.6809c.9428 0 1.711-.7555 1.711-1.6828l-.0165-11.8935c0-.2277-.1893-.4139-.4209-.4139h-10.6282c-.9428 0-1.711.7556-1.711 1.6828v6.0353c0 .029.0037.0561.0092.0832.0441 3.3891 2.7586 6.1004 6.2119 6.1853h.1636zm5.5355-13.1605.0166 11.4796c0 .4699-.3897.8531-.8693.8531h-4.8188c-3.0251-.0759-5.3922-2.4637-5.3959-5.4352 0-.0271-.0037-.0542-.0074-.0814v-5.9612c0-.4717.3897-.8549.8693-.8549h10.2073z" fill="#0c0c0c"/><path d="m17.5383 50.0844h20.3926.0735c2.674-.0199 4.8335-2.1564 4.8335-4.7899v-26.5905l-9.7405.009c0-2.6498-2.1852-4.7989-4.8795-4.7989-2.6942 0-4.793 2.066-4.8776 4.6453v25.6686c0 3.1849-2.584 5.7751-5.802 5.8564z" fill="#faa69d"/><path d="m37.9299 50.5h.0735c2.8983-.0217 5.2544-2.3552 5.2544-5.2039v-26.5922c0-.1103-.0441-.2151-.1231-.2929-.079-.0777-.1856-.1211-.2978-.1211l-9.3361.0091c-.2151-2.6824-2.5032-4.799-5.2857-4.799-2.7824 0-5.2065 2.216-5.2984 5.0466v25.6813c0 2.9264-2.4186 5.3683-5.3904 5.4424-.2297.0055-.4135.1916-.4098.4194.0036.2277.1911.4085.4208.4085h20.3926zm4.488-31.3822v26.1765c0 2.395-1.9812 4.358-4.4163 4.376h-17.4208c1.9113-1.0809 3.1794-3.1053 3.1794-5.4424v-25.6686c.0754-2.3661 2.0345-4.2315 4.4568-4.2315 2.4222 0 4.4586 1.9666 4.4586 4.3851 0 .1103.0441.2151.1231.2928s.1856.1211.2977.1211l9.3197-.009z" fill="#0c0c0c"/><path d="m37.132 40.7031h-8.5128c-.5771 0-1.0458.4609-1.0458 1.0285v2.7149c0 .5676.4687 1.0285 1.0458 1.0285h8.5128c.5771 0 1.0457-.4609 1.0457-1.0285v-2.7149c0-.5676-.4686-1.0285-1.0457-1.0285z" fill="#6a6af4"/><path d="m28.6182 45.8945h8.5129c.8086 0 1.4666-.6471 1.4666-1.4442v-2.7149c0-.7953-.658-1.4424-1.4666-1.4424h-8.5129c-.8086 0-1.4666.6471-1.4666 1.4424v2.7149c0 .7953.658 1.4442 1.4666 1.4442zm8.5147-4.7737c.3437 0 .6249.2748.6249.6146v2.7149c0 .3398-.2812.6145-.6249.6145h-8.5128c-.3437 0-.6249-.2747-.6249-.6145v-2.7149c0-.338.2812-.6146.6249-.6146z" fill="#0c0c0c"/><path d="m28.2178 13.9141c2.6961 0 4.8794 2.1491 4.8794 4.7989v16.942c0 .6977.5808 1.2688 1.2902 1.2688h16.9025c.7094 0 1.2902-.5711 1.2902-1.2688v-16.951c0-2.6462-2.1815-4.7899-4.8703-4.7899z" fill="#f8f2ed"/><g fill="#0c0c0c"><path d="m34.3883 37.3394h16.9007c.9446 0 1.711-.7555 1.711-1.6828v-16.9527c0-2.8686-2.3745-5.2039-5.2911-5.2039h-19.4921c-.2315 0-.4208.1862-.4208.4139 0 .2278.1893.4139.4208.4139 2.459 0 4.4586 1.9666 4.4586 4.3851v16.9419c0 .9273.7682 1.6828 1.711 1.6828zm13.3206-23.0116c2.4535 0 4.4494 1.963 4.4494 4.3761v16.9509c0 .4718-.3896.855-.8693.855h-16.9007c-.4797 0-.8693-.3832-.8693-.855v-16.9419c0-1.8383-.9722-3.456-2.437-4.3851z"/><path d="m37.6275 21.5622h10.4223c.2316 0 .4209-.1862.4209-.4139s-.1893-.4139-.4209-.4139h-10.4223c-.2316 0-.4209.1862-.4209.4139s.1893.4139.4209.4139z"/><path d="m37.6275 26.3083h10.4223c.2316 0 .4209-.1862.4209-.4139 0-.2278-.1893-.4139-.4209-.4139h-10.4223c-.2316 0-.4209.1861-.4209.4139 0 .2277.1893.4139.4209.4139z"/><path d="m37.6275 31.0505h10.4223c.2316 0 .4209-.1862.4209-.4139 0-.2278-.1893-.4139-.4209-.4139h-10.4223c-.2316 0-.4209.1861-.4209.4139 0 .2277.1893.4139.4209.4139z"/><path d="m15.6422 41.1208h4.5541c.2316 0 .4209-.1862.4209-.4139 0-.2278-.1893-.4139-.4209-.4139h-4.5541c-.2316 0-.4209.1861-.4209.4139 0 .2277.1893.4139.4209.4139z"/><path d="m15.6422 45.0896h4.5541c.2316 0 .4209-.1862.4209-.414 0-.2277-.1893-.4139-.4209-.4139h-4.5541c-.2316 0-.4209.1862-.4209.4139 0 .2278.1893.414.4209.414z"/><path d="m27.5712 21.5622h2.4572c.2315 0 .4208-.1862.4208-.4139s-.1893-.4139-.4208-.4139h-2.4572c-.2316 0-.4209.1862-.4209.4139s.1893.4139.4209.4139z"/><path d="m27.5712 26.3083h2.4572c.2315 0 .4208-.1862.4208-.4139 0-.2278-.1893-.4139-.4208-.4139h-2.4572c-.2316 0-.4209.1861-.4209.4139 0 .2277.1893.4139.4209.4139z"/><path d="m27.5712 31.0505h2.4572c.2315 0 .4208-.1862.4208-.4139 0-.2278-.1893-.4139-.4208-.4139h-2.4572c-.2316 0-.4209.1861-.4209.4139 0 .2277.1893.4139.4209.4139z"/><path d="m27.5712 35.7927h2.4572c.2315 0 .4208-.1862.4208-.4139 0-.2278-.1893-.414-.4208-.414h-2.4572c-.2316 0-.4209.1862-.4209.414 0 .2277.1893.4139.4209.4139z"/></g></g></svg>