<svg fill="none" height="64" viewBox="0 0 64 64" width="64" xmlns="http://www.w3.org/2000/svg" xmlns:xlink="http://www.w3.org/1999/xlink"><clipPath id="a"><path d="m13 13h38v38h-38z"/></clipPath><rect fill="#e3e3fd" height="64" rx="10" transform="matrix(-1 0 0 1 64 0)" width="64"/><g clip-path="url(#a)"><path d="m17.7397 13.3633c-2.3543 0-4.2651 1.4672-4.2651 3.2749v30.7198h8.5301v-30.7198c0-1.8093-1.9087-3.2749-4.265-3.2749z" fill="#f8f2ed"/><path d="m22.0047 47.7251h-8.5301c-.2632 0-.4746-.1639-.4746-.3644v-30.7214c0-2.0066 2.1263-3.6393 4.7396-3.6393 2.6134 0 4.7397 1.6327 4.7397 3.6393v30.7214c0 .2021-.2135.3644-.4746.3644zm-8.0555-.7288h7.5788v-30.357c0-1.604-1.6994-2.9105-3.7904-2.9105-2.0911 0-3.7884 1.3065-3.7884 2.9105v30.3554z" fill="#0c0c0c"/><path d="m22.0047 47.3608c0-1.8077-1.9087-3.2749-4.265-3.2749-2.3564 0-4.2651 1.4656-4.2651 3.2749s1.9087 3.2749 4.2651 3.2749h22.0899c.6694 0 1.2186-.4201 1.2186-.9357v-2.3392z" fill="#faa69d"/><path d="m39.8296 51.0012h-22.09c-2.6133 0-4.7396-1.6326-4.7396-3.6393 0-2.0066 2.1263-3.6392 4.7396-3.6392 2.4538 0 4.4786 1.4385 4.7169 3.2748h18.5917c.2632 0 .4746.1639.4746.3644v2.3392c0 .7177-.7606 1.3001-1.6932 1.3001zm-22.09-6.5497c-2.089 0-3.7904 1.3048-3.7904 2.9104s1.6994 2.9105 3.7904 2.9105h22.09c.4104 0 .744-.2562.744-.5713v-1.9748h-18.5689c-.2632 0-.4746-.1639-.4746-.3644 0-1.604-1.6994-2.9104-3.7905-2.9104z" fill="#0c0c0c"/><path d="m50.5246 46.4264c0 .514-.5471.9357-1.2186.9357h-27.3021v-30.7215h27.3021c.6694 0 1.2186.4201 1.2186.9357z" fill="#6a6af4"/><g fill="#0c0c0c"><path d="m49.306 47.7237h-27.3021c-.2632 0-.4746-.1639-.4746-.3644v-30.7215c0-.2021.2135-.3644.4746-.3644h27.3c.9347 0 1.6932.584 1.6932 1.3001v28.8501c0 .7177-.7606 1.3001-1.6932 1.3001zm-26.8275-.7288h26.8254c.4104 0 .744-.2562.744-.5713v-28.8501c0-.3151-.3336-.5713-.744-.5713h-26.8254v29.9911z"/><path d="m44.278 34.4241h-16.0261c-.2632 0-.4746-.1639-.4746-.3644s.2135-.3644.4746-.3644h16.0261c.2632 0 .4746.1639.4746.3644s-.2135.3644-.4746.3644z"/><path d="m44.278 38.4788h-16.0261c-.2632 0-.4746-.1639-.4746-.3644s.2135-.3644.4746-.3644h16.0261c.2632 0 .4746.1639.4746.3644s-.2135.3644-.4746.3644z"/><path d="m44.278 42.5335h-16.0261c-.2632 0-.4746-.1639-.4746-.3644s.2135-.3644.4746-.3644h16.0261c.2632 0 .4746.1639.4746.3644s-.2135.3644-.4746.3644z"/></g><path d="m36.0359 20.8516h-5.7344c-1.1309 0-2.0476.7039-2.0476 1.5722v4.4031c0 .8683.9167 1.5722 2.0476 1.5722h5.7344c1.1308 0 2.0475-.7039 2.0475-1.5722v-4.4031c0-.8683-.9167-1.5722-2.0475-1.5722z" fill="#f8f2ed"/><path d="m36.0339 28.7623h-5.7344c-1.3906 0-2.5222-.8689-2.5222-1.9366v-4.4031c0-1.0694 1.1316-1.9382 2.5222-1.9382h5.7344c1.3906 0 2.5221.8688 2.5221 1.9382v4.4031c0 1.0677-1.1315 1.9366-2.5221 1.9366zm-5.7323-7.5491c-.8684 0-1.573.541-1.573 1.2078v4.4031c0 .6667.7046 1.2078 1.573 1.2078h5.7344c.8683 0 1.5729-.5411 1.5729-1.2078v-4.4031c0-.6668-.7046-1.2078-1.5729-1.2078z" fill="#0c0c0c"/></g></svg>