<svg fill="none" height="64" viewBox="0 0 64 64" width="64" xmlns="http://www.w3.org/2000/svg" xmlns:xlink="http://www.w3.org/1999/xlink"><clipPath id="a"><path d="m13 13h38v38h-38z"/></clipPath><rect fill="#e3e3fd" height="64" rx="10" transform="matrix(-1 0 0 1 64 0)" width="64"/><g clip-path="url(#a)"><path d="m31.9844 50.6436 2.6588-.0156v-11.5983l-2.6588-.0141v5.8617z" fill="#f8f2ed"/><path d="m31.9827 51.0003c-.0953 0-.1859-.0375-.253-.1047-.0672-.0673-.1047-.1595-.1047-.2533v-11.628c0-.0954.0375-.1861.1047-.2533.0671-.0672.1812-.0891.2546-.1048l2.6604.0141c.1968 0 .3562.1611.3562.3581v11.5982c0 .197-.1594.3565-.3562.3581l-2.6604.0156zm.3578-11.6248v10.9071l1.9449-.0109v-10.8853z" fill="#0c0c0c"/><path d="m40.4367 44.8265c0-3.2021-2.5932-5.7992-5.7941-5.7992v11.5983c3.2009 0 5.7941-2.5955 5.7941-5.7991z" fill="#faa996"/><path d="m34.6448 50.9862c-.1968 0-.3577-.161-.3577-.358v-11.5983c0-.197.1609-.358.3577-.358 3.3915 0 6.1519 2.7612 6.1519 6.1572 0 3.3959-2.7588 6.1571-6.1519 6.1571zm.3578-11.5857v10.8571c2.8307-.1845 5.0771-2.5485 5.0771-5.4285 0-2.8801-2.2464-5.2441-5.0771-5.4286z" fill="#0c0c0c"/><path d="m44.8488 37.7327c3.1994 0 5.7941-2.5954 5.7941-5.7991h-11.5882c0 3.2037 2.5932 5.7991 5.7941 5.7991z" fill="#faa996"/><path d="m38.6953 31.9362c0-.197.1609-.3581.3578-.3581h11.5882c.1968 0 .3577.1611.3577.3581 0 3.3944-2.7588 6.1571-6.1518 6.1571-3.3931 0-6.1519-2.7611-6.1519-6.1571zm11.5758.358h-10.8478c.1843 2.8331 2.5463 5.0815 5.4239 5.0815 2.8775 0 5.2395-2.2484 5.4239-5.0815z" fill="#0c0c0c"/><path d="m31.9837 19.125c-7.1048 0-12.8646 5.7647-12.8646 12.8757 0 7.1109 5.7598 12.8756 12.8646 12.8756v-5.8616c-3.8695 0-7.008-3.1412-7.008-7.014 0-3.8729 3.1385-7.014 7.008-7.014s7.0079 3.1411 7.0079 7.014h5.8551c0-7.111-5.7598-12.8757-12.8646-12.8757z" fill="#6a6af4"/><path d="m31.984 45.233c-7.2907 0-13.2223-5.9367-13.2223-13.2337s5.9316-13.2337 13.2223-13.2337 13.2223 5.9367 13.2223 13.2337c0 .197-.1609.3581-.3578.3581h-5.855c-.1968 0-.3577-.1611-.3577-.3581 0-3.6696-2.9838-6.6559-6.6502-6.6559-3.6665 0-6.6502 2.9863-6.6502 6.6559s2.9837 6.656 6.6502 6.656c.1968 0 .3577.161.3577.358v5.8617c0 .197-.1609.358-.3577.358zm0-25.7513c-6.8955 0-12.5052 5.6147-12.5052 12.5176 0 6.903 5.4176 12.3222 12.1475 12.513v-5.1487c-3.8961-.1877-7.008-3.4195-7.008-7.3643s3.304-7.372 7.3657-7.372 7.1704 3.1145 7.3579 7.014h5.1442c-.1906-6.7373-5.7254-12.1596-12.5021-12.1596z" fill="#0c0c0c"/><path d="m31.9833 13.3594c-10.2854 0-18.6259 8.3477-18.6259 18.6419 0 10.2943 8.3389 18.642 18.6259 18.642v-5.7663c-7.1048 0-12.8646-5.7647-12.8646-12.8757 0-7.1109 5.7598-12.8756 12.8646-12.8756s12.8645 5.7647 12.8645 12.8756h5.7613c0-10.2942-8.3404-18.6419-18.6258-18.6419z" fill="#f8f2ed"/><path d="m31.9836 51c-10.4682 0-18.9836-8.5228-18.9836-19s8.5154-19 18.9836-19 18.9836 8.5228 18.9836 19c0 .197-.1609.358-.3577.358h-5.7614c-.1968 0-.3577-.161-.3577-.358 0-6.9014-5.6098-12.5176-12.5068-12.5176s-12.5068 5.6162-12.5068 12.5176 5.6098 12.5176 12.5052 12.5176c.1969 0 .3578.1611.3578.3581v5.7663c0 .197-.1609.358-.3578.358zm0-37.2839c-10.0729 0-18.2681 8.2023-18.2681 18.2839s8.0015 18.0885 17.9104 18.2792v-5.0517c-7.1251-.1908-12.8646-6.0509-12.8646-13.2291 0-7.1781 5.9316-13.2321 13.2223-13.2321s13.027 5.7428 13.2176 12.8757h5.0474c-.1906-9.9175-8.3108-17.9259-18.265-17.9259z" fill="#0c0c0c"/></g></svg>