<svg fill="none" height="64" viewBox="0 0 65 64" width="65" xmlns="http://www.w3.org/2000/svg" xmlns:xlink="http://www.w3.org/1999/xlink"><clipPath id="a"><path d="m13.5 13h38v38h-38z"/></clipPath><rect fill="#e3e3fd" height="64" rx="10" transform="matrix(-1 0 0 1 64.5 0)" width="64"/><g clip-path="url(#a)"><path d="m22.4046 46.1344c1.1162-1.1161 1.1162-2.9233 0-4.0395-1.1161-1.1161-2.9233-1.1161-4.0395 0-.5166.5166-.6368 1.1738-.8316 1.858-.0085.022-.1643.603-.1643.603-.1473.547-.3861 1.4413-.5335 1.9884l-.1423.5352c-.1473.5471.1813.874.7283.7283l.5352-.144c.5471-.1473 1.4414-.3861 1.9885-.5335 0 0 .5809-.1575.6029-.1643.6352-.1693 1.3414-.315 1.858-.8316z" fill="#f8f2ed"/><path d="m17.1748 48.2263c-.2592 0-.4878-.0863-.6521-.2523-.2371-.2371-.3099-.6013-.2032-.9993l.6757-2.5236s.1643-.6047.1728-.6284l.0694-.254c.1643-.6064.3354-1.2331.8537-1.7513.6131-.6132 1.4278-.9502 2.2933-.9502.8654 0 1.6818.337 2.2932.9502.6132.6131.9502 1.4278.9502 2.2932 0 .8655-.337 1.6819-.9502 2.2933-.5437.5437-1.2432.7266-1.8597.8875l-.1727.0457-.6013.1643-2.5236.6758c-.1186.0322-.2354.0474-.3455.0474zm3.2096-6.58c-.6318 0-1.2636.2405-1.7446.7215-.3726.3726-.503.8519-.6537 1.4058l-.0779.2828c-.0187.0627-.1626.5962-.1626.5962l-.6758 2.522c-.039.1422-.0187.2269.0034.2489.022.022.1067.0424.2489.0034l2.5237-.6758s.5386-.1456.5894-.1609l.1897-.0508c.547-.1423 1.111-.2896 1.5057-.6842.4657-.4658.7232-1.0857.7232-1.7463 0-.6605-.2575-1.2787-.7232-1.7445-.4811-.481-1.1128-.7215-1.7446-.7215z" fill="#0c0c0c"/><path d="m38.4373 50.6127c6.7799-6.7799 6.7799-17.7704 0-24.5486-6.7783-6.7782-17.7704-6.7782-24.5486 0z" fill="#faa996"/><path d="m38.4381 50.9993c-.1033 0-.2015-.0407-.2743-.1135l-24.5503-24.5503c-.0729-.0728-.1135-.1711-.1135-.2744s.0406-.2015.1135-.2744c6.9188-6.9187 18.1785-6.9187 25.099 0 6.9188 6.9188 6.9188 18.1786 0 25.0974-.0728.0728-.171.1135-.2744.1135zm-23.9981-24.9348 23.9947 23.9948c6.3447-6.6377 6.2532-17.1979-.2709-23.7238-6.5259-6.5258-17.0862-6.6139-23.7221-.271z" fill="#0c0c0c"/><path d="m28.9354 43.3837c-.625.625-1.6734.603-2.3254-.0508l-5.4419-5.4419c-.6538-.6537-.6775-1.7004-.0508-2.3271.6266-.625 1.6734-.603 2.3271.0508l5.4419 5.4419c.6538.6538.6758 1.7005.0508 2.3271z" fill="#faa996"/><path d="m27.8195 44.2268c-.5336 0-1.0722-.2083-1.4854-.6199l-5.4402-5.4418c-.8062-.8062-.8299-2.0968-.0525-2.8743.3777-.3777.8705-.5826 1.4362-.5674.5403.0119 1.0518.2321 1.4397.6199l5.4419 5.4419c.8062.8062.8282 2.0968.0508 2.8759-.3794.3794-.8824.5691-1.3905.5691zm-5.5876-8.7293c-.3235 0-.6216.1202-.8418.3421-.4759.4759-.4522 1.2737.0526 1.7767l5.4401 5.4419c.5031.503 1.3025.5267 1.7767.0508.476-.4759.4539-1.2737-.0508-1.7784l-5.4419-5.4419c-.2455-.2456-.5673-.3845-.9078-.3912-.0101 0-.0186 0-.0288 0z" fill="#0c0c0c"/><path d="m44.3822 36.6907c-2.632 2.632-5.7434 4.4917-9.0529 5.5791l-13.1008-13.1008c1.0874-3.3095 2.9471-6.4226 5.5791-9.0546 2.8962-2.8962 6.3734-4.8575 10.0555-5.8839l12.403 12.403c-1.0264 3.6821-2.9877 7.1593-5.8839 10.0555z" fill="#9a9af7"/><path d="m35.3269 42.6594c-.1017 0-.1999-.039-.2744-.1135l-13.0992-13.1008c-.1033-.1033-.1405-.2558-.0931-.3963 1.1466-3.4925 3.0571-6.5902 5.6722-9.207 2.8421-2.8421 6.3785-4.9118 10.2266-5.9839.1338-.0372.2795 0 .3794.0999l12.403 12.4031c.0999.0982.1372.2438.0999.3793-1.0738 3.8498-3.1435 7.3846-5.9838 10.2266-2.6168 2.6168-5.7146 4.5256-9.207 5.674-.039.0135-.0796.0186-.122.0186zm-12.6554-13.5937 12.7604 12.7604c3.2841-1.1162 6.2023-2.9352 8.6751-5.4097 2.693-2.693 4.6696-6.033 5.7231-9.6677l-12.0812-12.0795c-3.6347 1.0535-6.9747 3.03-9.6677 5.723-2.4728 2.4745-4.2936 5.3911-5.4097 8.6752z" fill="#0c0c0c"/><path d="m35.3265 42.2727c-1.3939.4573-2.8217.7791-4.2647.9637l-9.7981-9.7981c.1846-1.443.5047-2.8725.9637-4.2664z" fill="#6a6af4"/><path d="m31.0627 43.6237c-.1017 0-.2016-.0406-.2744-.1134l-9.7981-9.7981c-.0847-.0847-.1253-.205-.1101-.3235.188-1.4736.5183-2.9335.979-4.3376.0423-.1287.1473-.2253.2794-.2558.1321-.0304.2693.0085.3642.1034l13.0991 13.1008c.0948.0948.1338.2337.1033.3641s-.1287.2371-.2557.2795c-1.4075.4624-2.8658.791-4.3376.979-.017.0016-.0339.0033-.0491.0033zm-9.3883-10.3248 9.5255 9.5271c1.1483-.1575 2.2898-.4031 3.3992-.7334l-12.1913-12.193c-.3302 1.1094-.5758 2.2493-.7317 3.3993z" fill="#0c0c0c"/><path d="m50.2643 26.6345-12.403-12.403c4.0497-1.1281 8.3483-1.1264 12.398.005 1.1314 4.048 1.1331 8.3466.005 12.398z" fill="#6a6af4"/><path d="m50.2656 27.0235c-.1016 0-.1998-.0407-.2743-.1135l-12.4031-12.403c-.0965-.0966-.1354-.2388-.1016-.3726.0339-.1338.1389-.2389.271-.2744 4.1242-1.1484 8.4838-1.1467 12.6063.0051.1304.0372.232.1388.2693.2693 1.1517 4.1224 1.1551 8.482.0051 12.6062-.0373.1321-.1423.2354-.2744.271-.0322.0085-.0661.0119-.0983.0119zm-11.651-12.586 11.4478 11.4478c.9197-3.7228.8807-7.6217-.1186-11.3292-3.7075-.9976-7.6064-1.0382-11.3292-.1186z" fill="#0c0c0c"/><path d="m41.1741 30.6135c-2.0122 2.0121-5.2759 2.0121-7.2881 0-2.0121-2.0121-2.0121-5.2759 0-7.288 2.0122-2.0121 5.2759-2.0121 7.2881 0 2.0121 2.0121 2.0121 5.2759 0 7.288z" fill="#f8f2ed"/><path d="m37.5284 32.506c-1.4193 0-2.8387-.5403-3.9175-1.6209-1.0468-1.0467-1.6226-2.4389-1.6226-3.9192s.5758-2.8725 1.6226-3.9175c1.0467-1.0468 2.4372-1.6226 3.9175-1.6226s2.8725.5758 3.9192 1.6226c2.1612 2.1611 2.1612 5.6756 0 7.8367-1.0806 1.0806-2.4999 1.6209-3.9192 1.6209zm0-10.3028c-1.272 0-2.4694.4962-3.3688 1.3956-.8993.8994-1.3956 2.0968-1.3956 3.3688s.4963 2.4694 1.3956 3.3705c1.858 1.858 4.8813 1.858 6.7393 0 .8993-.8994 1.3956-2.0968 1.3956-3.3705s-.4963-2.4694-1.3956-3.3688c-.8994-.8994-2.0968-1.3956-3.3688-1.3956z" fill="#0c0c0c"/></g></svg>