<svg xmlns="http://www.w3.org/2000/svg" xml:space="preserve" id="Calque_1" x="0" y="0" style="enable-background:new 0 0 516 352" version="1.1" viewBox="0 0 516 352"><style>.st1{fill:url(#SVGID_00000161605636438380655670000014754328803999048114_)}.st2{fill:url(#SVGID_00000080175272870356715860000011967621207714578567_)}.st4{fill:url(#SVGID_00000010295200271176327190000014118117280457888929_)}.st5{fill:url(#SVGID_00000065054309605559387940000016058996153722176168_)}.st6{fill:url(#SVGID_00000174603477935114725850000001139724797271038594_)}</style><linearGradient id="SVGID_1_" x1="17.694" x2="217.372" y1="298.961" y2="131.566" gradientUnits="userSpaceOnUse"><stop offset="0" style="stop-color:#008f64"/><stop offset=".223" style="stop-color:#009580"/><stop offset=".703" style="stop-color:#00a5c8"/><stop offset="1" style="stop-color:#00b0f7"/></linearGradient><path d="M192.5 175.4c0-52.4 25.6-98.7 65-127.3-25.9-18.8-57.7-29.9-92.1-29.9C78.6 18.2 8.2 88.6 8.2 175.4c0 86.8 70.4 157.2 157.2 157.2 34.4 0 66.2-11.1 92.1-29.9-39.3-28.5-65-74.9-65-127.3z" style="fill:url(#SVGID_1_)"/><linearGradient id="SVGID_00000054949703952102872860000016701432492427161002_" x1="229.075" x2="465.819" y1="297.444" y2="60.7" gradientUnits="userSpaceOnUse"><stop offset="0" style="stop-color:#ff5e31"/><stop offset=".119" style="stop-color:#ff6630"/><stop offset=".299" style="stop-color:#fe7a2c"/><stop offset=".518" style="stop-color:#fc9d26"/><stop offset=".765" style="stop-color:#facc1e"/><stop offset="1" style="stop-color:#f8ff15"/></linearGradient><path d="M349.7 18.2c-34.4 0-66.2 11.1-92.1 29.9 39.4 28.6 65 74.9 65 127.3 0 52.4-25.6 98.7-65 127.3 25.9 18.8 57.7 29.9 92.1 29.9 86.8 0 157.2-70.4 157.2-157.2 0-86.8-70.4-157.2-157.2-157.2z" style="fill:url(#SVGID_00000054949703952102872860000016701432492427161002_)"/><linearGradient id="SVGID_00000086689641351251410410000012859311916840413591_" x1="55.861" x2="255.539" y1="344.489" y2="177.094" gradientUnits="userSpaceOnUse"><stop offset="0" style="stop-color:#008f64"/><stop offset=".223" style="stop-color:#009580"/><stop offset=".703" style="stop-color:#00a5c8"/><stop offset="1" style="stop-color:#00b0f7"/></linearGradient><path d="M322.6 175.4c0-52.4-25.6-98.7-65-127.3-39.4 28.6-65 74.9-65 127.3 0 52.4 25.6 98.7 65 127.3 39.3-28.5 65-74.9 65-127.3z" style="fill:url(#SVGID_00000086689641351251410410000012859311916840413591_)"/><path d="M322.6 175.4c0-52.4-25.6-98.7-65-127.3-39.4 28.6-65 74.9-65 127.3 0 52.4 25.6 98.7 65 127.3 39.3-28.5 65-74.9 65-127.3z" style="fill:#009364"/></svg>