<?xml version="1.0" encoding="UTF-8"?>
<svg xmlns="http://www.w3.org/2000/svg" width="132" height="117" viewBox="0 0 132 117" fill="none">
  <rect width="55" height="20" fill="white"></rect>
  <path d="M17.7649 17.5888C17.7716 17.5888 17.7782 17.579 17.7782 17.579C17.8313 17.5397 17.8844 17.4907 17.9309 17.4319C17.9243 17.4319 17.9176 17.4319 17.911 17.422C17.8645 17.4711 17.8114 17.5299 17.7649 17.5888Z" fill="#000091"></path>
  <path d="M25.1222 15.1098L25.006 15.2098C25.0724 15.1932 25.1222 15.1765 25.1222 15.1098Z" fill="#000091"></path>
  <path fill-rule="evenodd" clip-rule="evenodd" d="M22.7435 17.6421C22.9566 17.4277 23.1697 17.2004 23.3828 16.9665H23.3764C23.7767 16.5119 24.1642 16.0766 24.6291 15.6804C24.7712 15.5505 24.9068 15.4401 25.0359 15.3491C25.0549 15.3301 25.0646 15.3016 25.0741 15.2738C25.084 15.2447 25.0937 15.2163 25.1134 15.1997C25.0214 15.2349 24.948 15.2904 24.8743 15.3463C24.7979 15.4041 24.7211 15.4622 24.6227 15.4985C24.5839 15.4985 24.5452 15.4596 24.5839 15.4206C24.7195 15.3232 24.8551 15.2192 24.9843 15.1153H24.9585C24.9197 15.1153 24.9197 15.0763 24.9197 15.0374C24.439 14.961 24.0698 15.2898 23.7392 15.5841L23.7186 15.6025C23.6671 15.6283 23.6185 15.6027 23.5803 15.5825C23.561 15.5723 23.5444 15.5635 23.5313 15.5635C23.2389 15.6615 22.9867 15.8423 22.7329 16.0243C22.499 16.1919 22.2638 16.3605 21.9944 16.4664V16.3884C21.903 16.42 21.8126 16.4611 21.7219 16.5023C21.5886 16.563 21.4548 16.6238 21.3164 16.6548C21.0637 16.7134 20.8292 16.7059 20.602 16.6985C20.5274 16.6961 20.4535 16.6937 20.38 16.6937C19.9665 16.7347 19.5581 16.8233 19.1503 16.9118L19.0175 16.9406C19.011 16.9438 19.0046 16.9454 18.9981 16.9471C18.9917 16.9487 18.9852 16.9503 18.9788 16.9536C18.7334 17.0185 18.5074 17.1095 18.2813 17.2394L18.2555 17.2524C18.2466 17.2643 18.2378 17.2748 18.2295 17.2846C18.2197 17.2962 18.2108 17.3068 18.2038 17.3173C18.1264 17.4083 18.0553 17.4862 17.9455 17.5447C17.7834 17.6262 17.6433 17.752 17.5054 17.8757C17.4457 17.9293 17.3861 17.9828 17.3256 18.0318C17.3127 18.0448 17.2869 18.0513 17.2675 18.0513C17.0673 18.2462 16.8671 18.4411 16.6605 18.6294C16.6476 18.6424 16.5895 18.6489 16.5443 18.6424C16.5443 18.6424 16.5507 18.6424 16.5507 18.6359L16.5701 18.5969L16.667 18.4411C16.6863 18.4118 16.7041 18.3826 16.7218 18.3534C16.7396 18.3241 16.7574 18.2949 16.7767 18.2657C16.8283 18.1878 16.8801 18.1097 16.9382 18.0383C16.9511 18.0188 16.9511 17.9994 16.9382 17.9864C16.9253 17.9734 16.9059 17.9669 16.8865 17.9669C17.0738 17.785 17.2933 17.6291 17.5193 17.4927V17.4862C17.4935 17.4927 17.4548 17.4732 17.4741 17.4472C17.4931 17.4234 17.5086 17.3961 17.5231 17.3704L17.5387 17.3433C17.5419 17.3368 17.5436 17.3319 17.5452 17.3271C17.5468 17.3222 17.5484 17.3173 17.5516 17.3108C17.5484 17.3043 17.5436 17.2994 17.5387 17.2946C17.5339 17.2897 17.529 17.2848 17.5258 17.2783L17.4866 17.3042C17.4398 17.3348 17.3917 17.3663 17.3515 17.4018C17.3229 17.4263 17.2963 17.46 17.2691 17.4945C17.2098 17.5694 17.1472 17.6486 17.0544 17.6486C17.0479 17.6486 17.0157 17.6486 16.9963 17.6421C16.9769 17.6421 16.964 17.6356 16.9575 17.6291C16.9575 17.6259 16.9575 17.6242 16.9583 17.6234C16.9592 17.6226 16.9608 17.6226 16.964 17.6226C16.964 17.6226 16.9705 17.6161 16.9705 17.6096C16.9705 17.6096 16.9705 17.6031 16.9769 17.6031C16.9801 17.5966 16.9834 17.5918 16.9866 17.5869C16.9898 17.582 16.9931 17.5771 16.9963 17.5706C16.9995 17.5641 17.0027 17.5593 17.006 17.5544C17.0092 17.5495 17.0124 17.5447 17.0157 17.5382C17.0189 17.5349 17.0205 17.53 17.0221 17.5252C17.0237 17.5203 17.0253 17.5154 17.0286 17.5122L17.0359 17.4988C17.0423 17.4874 17.0499 17.4738 17.0544 17.4602C17.0576 17.4537 17.0609 17.4489 17.0641 17.444C17.0673 17.4391 17.0706 17.4342 17.0738 17.4277C17.0835 17.4147 17.0915 17.4001 17.0996 17.3855C17.1077 17.3709 17.1158 17.3563 17.1254 17.3433C17.1319 17.3303 17.1384 17.3173 17.1513 17.3043C17.1577 17.2913 17.1642 17.28 17.1706 17.2686C17.1771 17.2572 17.1836 17.2459 17.19 17.2329C17.2094 17.2004 17.19 17.1744 17.1642 17.1679C17.2352 17.077 17.3192 16.999 17.4225 16.9406H17.4096C17.4987 16.8957 17.5904 16.8432 17.6815 16.7911C17.7352 16.7603 17.7896 16.7291 17.8422 16.7002C17.8616 16.6807 17.881 16.6613 17.9068 16.6483C17.6937 16.7197 17.5 16.8172 17.3127 16.9471C17.3127 16.9471 17.261 16.9665 17.2481 16.9795C17.2481 16.9795 17.2094 16.9925 17.1577 16.9471C17.1513 16.9406 17.1513 16.9341 17.1513 16.9211C17.1737 16.8759 17.22 16.846 17.27 16.8137C17.3064 16.7902 17.3447 16.7655 17.3773 16.7327C17.416 16.7327 17.4483 16.7327 17.4483 16.7717C18.192 16.1885 19.1091 16.0536 20.0292 15.9182C20.5951 15.8349 21.1622 15.7515 21.6909 15.5635C21.7458 15.5245 21.8023 15.4872 21.8588 15.4498C21.9153 15.4125 21.9718 15.3751 22.0267 15.3361C22.1209 15.2969 22.2053 15.2298 22.2947 15.1587C22.383 15.0884 22.4762 15.0143 22.5885 14.9594C22.8856 14.7321 23.1116 14.4722 23.2278 14.089C23.2278 14.05 23.1891 14.011 23.1891 14.011C22.6983 14.5372 22.1365 14.9529 21.5359 15.2582C20.9633 15.5604 20.3497 15.6052 19.7423 15.6495C19.5141 15.6661 19.2867 15.6827 19.0627 15.7129C19.1014 15.6349 19.1789 15.6349 19.25 15.6349C19.25 15.5427 19.2942 15.503 19.3509 15.4521C19.366 15.4385 19.3821 15.424 19.3985 15.4076H19.5083C19.5276 15.4076 19.5373 15.3881 19.547 15.3686C19.5567 15.3491 19.5664 15.3297 19.5858 15.3297C19.6633 15.3297 19.773 15.2907 19.7343 15.2907C19.6751 15.2145 19.589 15.2447 19.494 15.2779C19.4027 15.3099 19.3031 15.3448 19.2112 15.2907C19.2454 15.2532 19.2556 15.2082 19.265 15.1673C19.2751 15.1231 19.2841 15.0836 19.321 15.0633H19.4695C19.4695 14.9854 19.547 14.9139 19.547 14.9139C19.8838 14.7114 20.209 14.5346 20.5281 14.3611C20.7413 14.2452 20.952 14.1307 21.1614 14.011C21.119 14.011 21.0815 14.0285 21.045 14.0454C20.987 14.0723 20.9318 14.0979 20.8644 14.05C20.9031 14.05 20.9031 14.0224 20.9031 13.9948C20.9031 13.9672 20.9031 13.9396 20.9419 13.9396C21.1841 13.8749 21.3997 13.77 21.62 13.6628C21.7754 13.5872 21.9332 13.5104 22.1042 13.4459C22.0534 13.4459 22.0065 13.4596 21.9607 13.4729C21.8725 13.4985 21.7887 13.5229 21.6909 13.4459C21.7166 13.433 21.7373 13.4166 21.7577 13.4003C21.799 13.3675 21.8392 13.3355 21.9169 13.3355V13.2251C21.9169 13.1861 21.9557 13.1861 21.9944 13.1861C21.9557 13.1861 21.9169 13.1471 21.9169 13.1471C21.9375 13.1059 21.9779 13.0974 22.0229 13.0879C22.0629 13.0795 22.1065 13.0703 22.143 13.0367C22.1042 13.0367 22.0332 13.0367 22.0332 12.9977C22.143 12.8483 22.3302 12.8094 22.5175 12.7704C22.4981 12.7314 22.461 12.7314 22.4287 12.7314C22.3964 12.7314 22.369 12.7314 22.369 12.6924C22.369 12.6535 22.4077 12.6535 22.4465 12.6535H22.369C22.3082 12.6229 22.3189 12.5683 22.3264 12.5305C22.3284 12.5201 22.3302 12.5111 22.3302 12.5041C22.4819 12.3253 22.5318 12.1144 22.5814 11.9046C22.6057 11.8019 22.6299 11.6994 22.666 11.6012C22.6273 11.6012 22.5885 11.6012 22.5885 11.5622C22.2254 11.9652 21.6499 12.1179 21.1032 12.263L21.0516 12.2767H20.8644C20.6771 12.3547 20.4123 12.3547 20.2251 12.2377C20.136 12.191 20.0725 12.1326 20.0039 12.0695C19.9581 12.0274 19.91 11.9832 19.8505 11.9389C19.547 11.7506 19.25 11.6012 18.9142 11.4842C17.9778 11.1855 17.0027 11.0296 16.0277 11.0685C16.2999 10.9187 16.5891 10.8592 16.8821 10.7988C17.0338 10.7676 17.1865 10.7361 17.3385 10.6918C17.4344 10.6635 17.5294 10.6344 17.6239 10.6054C18.1595 10.4412 18.6791 10.2819 19.25 10.315C19.1753 10.2885 19.0796 10.2981 18.9915 10.3069C18.9502 10.3111 18.9105 10.315 18.8754 10.315C18.4438 10.2829 18.0078 10.379 17.5528 10.4793C17.4564 10.5005 17.3592 10.5219 17.261 10.5424C17.0829 10.5795 16.9134 10.6327 16.7438 10.6861C16.5568 10.7448 16.3695 10.8037 16.1697 10.8412C16.0831 10.8711 16.0135 10.9219 15.9458 10.9715C15.8368 11.0512 15.7324 11.1275 15.5692 11.1075V10.9906C15.9437 10.5359 16.3957 10.0877 16.9963 10.0487C17.5768 9.95418 18.1242 10.0215 18.6952 10.0918C18.7911 10.1036 18.8877 10.1155 18.9852 10.1267C19.4533 10.1643 19.8912 10.2687 20.3632 10.3813L20.4123 10.393C20.5157 10.393 20.5738 10.4839 20.63 10.572C20.6758 10.6436 20.7203 10.7133 20.7869 10.7308C20.8788 10.7625 20.9707 10.7684 21.0627 10.7743C21.1968 10.7829 21.3308 10.7915 21.4649 10.8802C21.4649 10.8539 21.4605 10.8284 21.4562 10.8032C21.4476 10.7534 21.4392 10.7045 21.4649 10.6528C21.5482 10.569 21.6437 10.5915 21.7378 10.6136C21.8114 10.6309 21.884 10.6481 21.9492 10.6138C22.154 10.4867 21.9619 10.2916 21.7697 10.0964C21.677 10.0022 21.5843 9.908 21.5359 9.82137C21.5359 9.7824 21.5747 9.74342 21.5747 9.74342C21.6595 9.81945 21.7385 9.89813 21.8168 9.97613C22.0129 10.1713 22.2047 10.3623 22.4723 10.4969C22.6596 10.5749 23.1116 10.6853 23.0341 10.4579C22.9015 10.1635 22.6749 9.90815 22.4461 9.65037C22.3519 9.5442 22.2573 9.4376 22.1688 9.3277V9.17831C22.1099 9.17831 22.0958 9.15582 22.0782 9.12793C22.0727 9.1191 22.0668 9.10973 22.059 9.10036V8.95096C21.9643 8.90128 21.9431 8.82257 21.9218 8.74343C21.9097 8.6984 21.8975 8.65323 21.8717 8.61319C21.807 8.50829 21.8024 8.37921 21.7976 8.24616C21.7937 8.14028 21.7898 8.03189 21.7555 7.93115C21.678 7.7038 21.6457 7.51543 21.607 7.28808C21.5649 7.0555 21.5187 6.83311 21.4734 6.61538C21.3934 6.23115 21.3165 5.86139 21.2712 5.4758C21.2114 4.92468 21.4897 4.45857 21.7742 3.98209C21.8586 3.84084 21.9435 3.69866 22.0203 3.5531C22.285 3.09841 22.5821 2.65021 23.0728 2.34492C23.1799 1.90144 23.4713 1.53212 23.7612 1.16462L23.7832 1.13673C24.0693 0.7801 24.5471 0.56208 24.8993 0.401401L24.9391 0.383241C25.4621 0.149399 25.9335 0 25.94 0H0V20H18.404C18.8962 19.6432 19.3854 19.418 19.9677 19.15C20.2334 19.0278 20.5185 18.8966 20.8321 18.7399C20.8985 18.7065 20.9774 18.6676 21.065 18.6245C21.5906 18.3659 22.428 17.9539 22.7435 17.6421ZM16.9037 14.9438C16.8307 14.9511 16.7533 14.9589 16.7825 14.9002C16.8096 14.7688 16.9442 14.7293 17.0757 14.6909C17.132 14.6744 17.1877 14.6581 17.2341 14.6348L17.2553 14.6238L17.2709 14.6156C17.3437 14.5769 17.4328 14.5295 17.4986 14.5571C17.543 14.6202 17.598 14.6365 17.6514 14.6523C17.6912 14.6641 17.7301 14.6756 17.7631 14.706C17.6236 14.8461 17.4607 14.8599 17.2955 14.8739C17.1858 14.8832 17.0752 14.8926 16.9696 14.9391C16.9506 14.9391 16.9274 14.9414 16.9037 14.9438ZM11.1906 14.0304C11.1906 14.0693 11.2293 14.1083 11.2293 14.1083C12.1334 13.0885 12.9535 12.2181 14.1159 11.4971C14.147 11.484 14.1354 11.5003 14.12 11.5219C14.0971 11.5542 14.0657 11.5983 14.1546 11.575C14.5394 11.4873 14.7123 11.1576 14.8804 10.8369C14.9239 10.7539 14.967 10.6716 15.0135 10.5942C15.1898 10.3073 15.4403 10.1236 15.6927 9.9384C15.8747 9.80486 16.0577 9.67059 16.2146 9.49641C16.2146 9.53539 16.2146 9.57436 16.1758 9.61333C16.2146 9.65231 16.2533 9.65231 16.2921 9.65231C16.3602 9.60091 16.4346 9.57964 16.5058 9.55925C16.5967 9.53325 16.6826 9.50869 16.7441 9.42496C16.447 9.30804 16.0661 9.26907 15.769 9.38599C14.9812 9.76273 14.3096 10.3668 13.6703 11.0489C13.2828 11.4581 12.8825 11.8413 12.3917 12.1076C12.0559 12.7832 11.6814 13.3873 11.1906 14.0304ZM14.3432 11.6145C14.3229 11.6552 14.3027 11.6763 14.2834 11.6965C14.2658 11.7149 14.2489 11.7326 14.2335 11.7635C14.1948 11.8411 14.1561 11.8735 14.0851 11.9124C14.0464 11.9124 14.0077 11.9124 14.0077 11.8735C14.0464 11.7246 14.1561 11.5757 14.3045 11.5368C14.3432 11.5433 14.3432 11.5822 14.3432 11.6145ZM15.9945 17.3831C16.0267 17.3506 16.0654 17.3116 16.0848 17.2726C16.1171 17.1947 15.9171 17.2142 15.8848 17.2337C15.8555 17.2572 15.8369 17.2808 15.8144 17.3093L15.8074 17.3181C15.7805 17.3491 15.749 17.3777 15.717 17.4068C15.6953 17.4266 15.6734 17.4465 15.6526 17.4675C15.5622 17.5585 15.4719 17.6494 15.3751 17.7338C15.3106 17.7923 15.5171 17.8183 15.5622 17.7793C15.6138 17.7403 15.659 17.6949 15.7042 17.6494C15.7214 17.6494 15.7386 17.6465 15.75 17.6446L15.7579 17.6433L15.7622 17.6429C15.8692 17.607 15.9488 17.5325 16.0262 17.4601L16.0461 17.4415C16.0719 17.4155 16.0396 17.3896 15.9945 17.3831ZM15.4106 16.9607C15.4099 16.9608 15.4094 16.961 15.409 16.9613C15.4082 16.9621 15.4082 16.9638 15.4082 16.967C15.3686 16.9942 15.3295 17.0219 15.2905 17.0495C15.1895 17.1209 15.0891 17.1919 14.982 17.2528C14.8796 17.3105 14.7746 17.3604 14.6686 17.4107C14.6075 17.4397 14.5462 17.4688 14.4848 17.4997C14.4848 17.4997 14.4848 17.4932 14.4783 17.4932C14.4654 17.4737 14.4396 17.4672 14.4138 17.4802C14.2717 17.5581 14.149 17.6621 14.0392 17.7725C14.0199 17.7855 14.0005 17.805 13.9876 17.8244L13.9294 17.8829V17.8894C13.9036 17.9154 13.8778 17.9414 13.8455 17.9803C13.8388 17.9871 13.8336 17.9938 13.8287 18.0003C13.8193 18.0125 13.8107 18.0238 13.7938 18.0323C13.768 18.0453 13.7034 18.0453 13.7099 18.0063V17.9998C13.6905 18.0128 13.6647 18.0258 13.6453 18.0323C13.6356 18.0388 13.6259 18.0437 13.6163 18.0485C13.6066 18.0534 13.5969 18.0583 13.5872 18.0648C13.5807 18.0583 13.5678 18.0583 13.5614 18.0583C13.5549 18.0583 13.542 18.0583 13.5355 18.0648C13.5205 18.0778 13.5054 18.09 13.4903 18.1023C13.4602 18.1269 13.4301 18.1514 13.3999 18.1817C13.3224 18.2532 13.2514 18.3311 13.1804 18.4155C13.1804 18.4155 13.1804 18.422 13.1739 18.422C13.1739 18.4253 13.1723 18.4269 13.1707 18.4285C13.1691 18.4302 13.1675 18.4318 13.1675 18.435L13.1545 18.448C13.1521 18.4505 13.1505 18.453 13.1492 18.4551C13.1471 18.4585 13.1456 18.461 13.1416 18.461L13.1352 18.4675C13.1287 18.4805 13.1223 18.4935 13.1093 18.5065C13.1029 18.513 13.09 18.5195 13.077 18.5195C13.0706 18.513 13.0641 18.5065 13.0641 18.5C13.0609 18.4967 13.0593 18.4935 13.0577 18.4902C13.0561 18.487 13.0544 18.4837 13.0512 18.4805C13.0448 18.4708 13.0399 18.461 13.0351 18.4513C13.0302 18.4415 13.0254 18.4318 13.0189 18.422V18.4155C13.0189 18.4123 13.0173 18.409 13.0157 18.4058C13.0141 18.4026 13.0125 18.3993 13.0125 18.3961L13.1287 18.2596L13.1352 18.2532C13.1416 18.2467 13.1481 18.2386 13.1545 18.2304C13.161 18.2223 13.1675 18.2142 13.1739 18.2077C13.1836 18.1947 13.1949 18.1817 13.2062 18.1687C13.2175 18.1557 13.2288 18.1427 13.2385 18.1297C13.2417 18.1232 13.2449 18.1184 13.2482 18.1135C13.2514 18.1086 13.2546 18.1038 13.2579 18.0973C13.2966 18.0453 13.3354 17.9933 13.3741 17.9349V17.9284C13.3806 17.9219 13.387 17.9154 13.387 17.9024C13.4064 17.8764 13.4258 17.8504 13.4387 17.8244L13.4774 17.7465V17.74L13.4839 17.7335C13.4839 17.7303 13.4855 17.7286 13.4871 17.727C13.4887 17.7254 13.4903 17.7238 13.4903 17.7205C13.4968 17.7043 13.5032 17.6897 13.5097 17.6751C13.5161 17.6605 13.5226 17.6458 13.5291 17.6296V17.6231L13.5355 17.5971C13.5388 17.5906 13.5404 17.5841 13.542 17.5776C13.5436 17.5711 13.5452 17.5646 13.5485 17.5581V17.5516C13.5517 17.5419 13.5533 17.5321 13.5549 17.5224C13.5565 17.5127 13.5581 17.5029 13.5614 17.4932C13.5614 17.4867 13.5614 17.4737 13.5549 17.4672C13.5937 17.3957 13.6453 17.3308 13.7034 17.2658C13.7002 17.2658 13.697 17.2674 13.6937 17.2691C13.6919 17.27 13.69 17.2709 13.6882 17.2716C13.6868 17.272 13.6854 17.2723 13.6841 17.2723C13.6553 17.2904 13.6306 17.3145 13.6054 17.339C13.5853 17.3586 13.5649 17.3784 13.542 17.3957C13.5032 17.4282 13.4258 17.3762 13.4774 17.3373C13.5097 17.3113 13.5355 17.2853 13.5613 17.2593C13.5613 17.2593 13.5614 17.2528 13.5678 17.2528C13.5936 17.2295 13.6183 17.2031 13.6432 17.1765C13.6808 17.1364 13.7188 17.0957 13.7615 17.0645C13.8068 17.032 13.839 17.006 13.8778 16.9735C13.8842 16.967 13.8907 16.9605 13.8972 16.9605C13.923 16.928 13.9488 16.8956 13.9811 16.8631C13.9811 16.8631 13.9876 16.8631 13.9876 16.8566C14.2093 16.6415 14.5209 16.5656 14.839 16.4882C15.0396 16.4394 15.2428 16.3899 15.4276 16.3045C15.532 16.261 15.6484 16.2781 15.7635 16.295C15.8548 16.3084 15.9453 16.3217 16.0282 16.3045C16.1379 16.3045 16.2542 16.3045 16.3639 16.3824C16.1086 16.5184 15.8649 16.6739 15.6238 16.8277C15.554 16.8723 15.4843 16.9168 15.4147 16.9605C15.4129 16.9605 15.4116 16.9605 15.4106 16.9607ZM16.2176 14.3132C16.1874 14.3167 16.1678 14.3189 16.1846 14.3358C16.2943 14.4463 16.5204 14.4073 16.6753 14.3228C16.7851 14.2449 16.9014 14.2449 17.0499 14.2449C17.0886 14.2449 17.0886 14.1734 17.0886 14.1345C17.1984 14.1734 17.2759 14.1734 17.3857 14.1734C18.2833 13.9851 19.1486 13.7967 19.9751 13.381C19.1388 12.7347 18.1077 12.4468 17.0978 12.1649C16.9302 12.1181 16.7632 12.0715 16.5978 12.0234C16.6342 12.0234 16.6706 12.0355 16.7072 12.0477C16.781 12.0723 16.8559 12.0973 16.9336 12.0234C16.8312 11.9417 16.7171 11.926 16.6041 11.9106C16.5106 11.8977 16.4179 11.885 16.3331 11.835C16.3419 11.835 16.3525 11.8371 16.3639 11.8393C16.4026 11.8467 16.4517 11.8562 16.4816 11.7961C16.2855 11.6974 16.0893 11.6639 15.8913 11.6301C15.7894 11.6127 15.6871 11.5952 15.584 11.5687C15.7713 11.5297 15.8875 11.3803 15.8875 11.192C15.8875 11.153 15.81 11.153 15.7713 11.153C15.3257 11.3803 15.0222 11.7961 14.8349 12.2832C15.0038 12.3826 15.1857 12.3711 15.3641 12.3598C15.4654 12.3534 15.5656 12.347 15.6615 12.3612C15.5768 12.4416 15.4545 12.4635 15.3368 12.4845C15.293 12.4923 15.2498 12.5 15.2095 12.5106C15.0932 12.5366 14.9835 12.621 15.0222 12.6989C15.048 12.7314 15.0739 12.7444 15.1062 12.7509C15.0222 12.7769 14.9447 12.8159 14.8737 12.8873C14.98 12.971 15.0896 12.9549 15.1978 12.9389C15.2408 12.9326 15.2835 12.9263 15.3257 12.9263C15.3257 12.9735 15.3567 12.9895 15.3889 13.0062C15.4054 13.0147 15.4223 13.0235 15.4355 13.0367C15.2482 13.1082 15.0997 13.2641 15.0609 13.3745C15.0147 13.487 14.9292 13.5601 14.8445 13.6326C14.7874 13.6815 14.7306 13.73 14.6864 13.7902V13.9071C14.5617 14.0177 14.4334 14.1165 14.307 14.2139C14.0472 14.414 13.7949 14.6084 13.5951 14.888C13.6338 14.888 13.6338 14.9269 13.6338 14.9659C13.5981 15.0198 13.5473 15.0572 13.4991 15.0926C13.4427 15.134 13.3899 15.1727 13.3691 15.2322C13.3691 15.2712 13.3691 15.3102 13.4078 15.3102C13.6448 15.2319 13.8498 15.1 14.0508 14.9707C14.2332 14.8534 14.4123 14.7382 14.6089 14.6671C14.7696 14.6285 14.9095 14.5556 15.046 14.4845C15.1618 14.4242 15.2752 14.3651 15.3967 14.3293C15.4904 14.3099 15.5937 14.2823 15.697 14.2546C15.8003 14.227 15.9037 14.1994 15.9973 14.1799C15.9973 14.2189 15.9973 14.2579 16.036 14.2579H16.3331C16.3148 14.3021 16.2571 14.3087 16.2176 14.3132Z" fill="#000091"></path>
  <path d="M55 0H33.4884C33.4884 0 33.5274 0.00650195 33.69 0.0910273C33.8656 0.182055 34.0932 0.305592 34.2297 0.377113C34.5094 0.520156 34.776 0.702211 34.9516 0.981795C35.0296 1.09233 35.1401 1.3199 35.0686 1.46944C34.9906 1.658 34.9516 1.96359 34.763 2.03511C34.5354 2.15215 34.2362 2.15215 33.9696 2.11313C33.8201 2.11313 33.6705 2.07412 33.5144 2.03511C34.0802 2.26268 34.6134 2.52926 34.9906 3.05592C35.0296 3.13394 35.1792 3.16645 35.3287 3.16645C35.3677 3.16645 35.3677 3.24447 35.3677 3.27698C35.2897 3.35501 35.2182 3.39402 35.2572 3.50455H35.3677C35.5563 3.42653 35.5173 3.04941 35.7839 3.16645C35.9725 3.27698 36.0505 3.54356 35.9335 3.73212C35.7839 3.88166 35.6344 3.9987 35.4783 4.10923C35.4393 4.18726 35.4393 4.29779 35.4783 4.37581C35.5888 4.52536 35.6279 4.6749 35.6669 4.83095C35.7839 5.09753 35.8164 5.39662 35.9335 5.6632C36.0831 6.22887 36.2326 6.79454 36.2001 7.36671C36.2001 7.6658 36.0505 7.93238 36.1611 8.23797C36.2391 8.53706 36.4277 8.76463 36.5773 9.03121C36.7268 9.25878 36.8764 9.40832 36.9935 9.63589C37.2211 10.013 37.6373 10.3901 37.4487 10.8453C37.3381 11.1118 36.9219 11.0728 36.6553 11.2224C36.4277 11.4109 36.6163 11.7165 36.7334 11.9051C36.9219 12.2432 36.5057 12.4707 36.2391 12.5878C36.3172 12.7048 36.4667 12.6658 36.5057 12.7373C36.5448 12.9259 36.7334 13.0364 36.6163 13.2315C36.4667 13.459 36.0115 13.5696 36.2391 13.9142C36.3887 14.1808 36.2912 14.4733 36.2001 14.7464C36.0896 15.0845 35.7839 15.2341 35.5173 15.3121C35.2897 15.3901 35.0231 15.3901 34.802 15.3511C34.724 15.3121 34.6524 15.2731 34.5744 15.2731C33.9306 15.1951 33.2868 15.013 32.6495 15.013C32.461 15.052 32.2724 15.0845 32.1228 15.1625C31.9537 15.2861 31.7977 15.4226 31.6676 15.5657C31.6676 15.5657 31.6676 15.5657 31.6611 15.5722C31.6351 15.6047 31.6026 15.6307 31.5766 15.6632C31.5636 15.6827 31.544 15.7022 31.531 15.7217C31.518 15.7347 31.5115 15.7477 31.4985 15.7607C31.388 15.8973 31.2904 16.0468 31.1994 16.1964C31.1929 16.2094 31.1864 16.2159 31.1799 16.2224C31.1734 16.2419 31.1604 16.2549 31.1474 16.2744C31.0238 16.5019 30.9328 16.736 30.8612 16.9701C30.6011 17.8349 30.7182 18.5761 30.9003 18.7581C30.9523 18.8101 32.1488 19.1808 32.9812 19.5514C33.3714 19.7269 33.6445 19.857 33.8721 20H54.9935V0H55Z" fill="#E1000F"></path>
  <path d="M34.7665 7.2946C34.9161 7.33356 35.1437 7.33356 35.1437 7.41148C35.0657 7.71018 34.6169 7.78811 34.3892 8.0933H34.2722C34.1616 8.17122 34.1941 8.35953 34.0835 8.35953C33.973 8.32057 33.8559 8.35953 33.7453 8.39849C33.8949 8.54784 34.0835 8.66472 34.3112 8.62576C34.3502 8.62576 34.4218 8.70368 34.4218 8.77511C34.4218 8.77511 34.4608 8.77511 34.4998 8.73615C34.5388 8.73615 34.5779 8.73615 34.5779 8.77511V8.92446C34.4673 9.07381 34.2722 9.00238 34.1226 9.03485C34.4283 9.11277 34.7275 9.11277 34.9941 9.03485C35.2218 8.95693 34.9941 8.58031 35.1437 8.392C35.0657 8.392 35.1437 8.27511 35.0657 8.27511C35.1437 8.19719 35.2153 8.0868 35.2933 8.04784C35.3714 8.04784 35.4819 8.00888 35.521 7.93096C35.521 7.85304 35.3714 7.82057 35.4039 7.74265C35.6315 7.5933 35.8202 7.36603 35.7421 7.13876C35.7031 7.02188 35.4039 7.02188 35.2153 6.95045C35.0267 6.87902 34.799 6.95045 34.5714 6.98941C34.3827 6.98941 34.1941 7.10629 34.0055 7.13876C33.7388 7.21668 33.5112 7.36603 33.29 7.51538C33.5567 7.40499 33.8169 7.36603 34.1226 7.28811C34.3502 7.2946 34.5388 7.24265 34.7665 7.2946" fill="#808080"></path>
  <path d="M2.06 47H4.9V41.34H6.36L10.1 47H13.44L9.06 40.8C10.5 40.14 11.32 38.88 11.32 37.18C11.32 34.58 9.42 33 6.34 33H2.06V47ZM6.5 35.36C7.7 35.36 8.4 36.08 8.4 37.14C8.4 38.28 7.7 38.98 6.5 38.98H4.9V35.36H6.5ZM20.8789 31.8L23.4789 29.1H20.5589L18.2989 31.8H20.8789ZM15.5389 47H23.6989V44.64H18.3789V41.04H22.8989V38.68H18.3789V35.36H23.6989V33H15.5389V47ZM27.2991 47H30.1391V41.34H31.9191C34.9991 41.34 36.8791 39.76 36.8791 37.18C36.8791 34.58 34.9991 33 31.9191 33H27.2991V47ZM32.0391 35.36C33.2391 35.36 33.9591 36.08 33.9591 37.14C33.9591 38.28 33.2391 38.98 32.0391 38.98H30.1391V35.36H32.0391ZM47.7842 41.76C47.7842 43.64 46.7042 44.74 44.9642 44.74C43.1842 44.74 42.1242 43.64 42.1242 41.76V33H39.2842V41.52C39.2842 45.2 41.4442 47.4 44.9442 47.4C48.4642 47.4 50.6242 45.2 50.6242 41.52V33H47.7842V41.76ZM54.4522 47H58.8722C62.0922 47 64.0722 45.44 64.0722 42.88C64.0722 41.42 63.2522 40.22 61.7722 39.56C62.7522 38.92 63.2722 37.94 63.2722 36.8C63.2722 34.44 61.4922 33 58.5722 33H54.4522V47ZM58.6322 35.36C59.7122 35.36 60.3522 35.94 60.3522 36.92C60.3522 37.94 59.7122 38.52 58.6322 38.52H57.2922V35.36H58.6322ZM59.0322 40.88C60.3522 40.88 61.1522 41.56 61.1522 42.76C61.1522 43.94 60.3522 44.64 59.0322 44.64H57.2922V40.88H59.0322ZM67.2866 47H75.4466V44.42H70.1266V33H67.2866V47ZM78.2459 47H81.0859V33H78.2459V47ZM97.0391 46.64L96.1991 45.84C97.9191 44.48 98.9591 42.34 98.9591 40C98.9591 36 95.9391 32.6 91.5391 32.6C87.1191 32.6 84.0991 36 84.0991 40C84.0991 44 87.1191 47.4 91.5391 47.4C92.2191 47.4 92.8591 47.32 93.4591 47.16L95.1191 48.64C96.4991 49.84 97.9391 50.48 99.4991 50.48C100.119 50.48 100.519 50.4 100.979 50.22V47.82C100.679 47.94 100.279 47.98 99.9791 47.98C99.0791 47.98 98.1191 47.62 97.0391 46.64ZM91.5391 44.74C88.8991 44.74 87.0191 42.68 87.0191 40C87.0191 37.32 88.8991 35.26 91.5391 35.26C94.1591 35.26 96.0391 37.32 96.0391 40C96.0391 42.68 94.1591 44.74 91.5391 44.74ZM110.237 41.76C110.237 43.64 109.157 44.74 107.417 44.74C105.637 44.74 104.577 43.64 104.577 41.76V33H101.737V41.52C101.737 45.2 103.897 47.4 107.397 47.4C110.917 47.4 113.077 45.2 113.077 41.52V33H110.237V41.76ZM116.905 47H125.065V44.64H119.745V41.04H124.265V38.68H119.745V35.36H125.065V33H116.905V47ZM2.06 71H4.9V65.04H9.42V62.68H4.9V59.36H10.22V57H2.06V71ZM13.0194 71H15.8594V65.34H17.3194L21.0594 71H24.3994L20.0194 64.8C21.4594 64.14 22.2794 62.88 22.2794 61.18C22.2794 58.58 20.3794 57 17.2994 57H13.0194V71ZM17.4594 59.36C18.6594 59.36 19.3594 60.08 19.3594 61.14C19.3594 62.28 18.6594 62.98 17.4594 62.98H15.8594V59.36H17.4594ZM25.3438 71H28.3638L29.7038 67.36H35.3038L36.6438 71H39.6638L34.3638 57H30.6438L25.3438 71ZM30.5838 64.94L32.5038 59.68L34.4238 64.94H30.5838ZM42.1256 71H44.9656V60.88L51.2256 71H54.8656V57H52.0256V67.12L45.7656 57H42.1256V71ZM65.3211 68.74C62.6811 68.74 60.8011 66.68 60.8011 64C60.8011 61.32 62.6811 59.26 65.3211 59.26C66.9211 59.26 68.1811 60.04 68.9811 61.18L71.2211 59.44C69.9411 57.74 67.8611 56.6 65.3211 56.6C60.9011 56.6 57.8811 60 57.8811 64C57.8811 67.56 60.2811 70.64 63.9211 71.28L62.1611 74.22H64.6811L66.4211 71.32C68.4611 71.06 70.1411 70.02 71.2211 68.54L68.9811 66.82C68.1811 67.96 66.9211 68.74 65.3211 68.74ZM72.1281 71H75.1481L76.4881 67.36H82.0881L83.4281 71H86.4481L81.1481 57H77.4281L72.1281 71ZM77.3681 64.94L79.2881 59.68L81.2081 64.94H77.3681ZM88.91 71H91.75V57H88.91V71ZM94.7031 69.06C95.9431 70.54 97.5231 71.4 99.8831 71.4C102.463 71.4 104.503 69.82 104.543 67.18C104.543 62.38 98.1831 63.1 98.1831 60.56C98.1831 59.72 98.8431 59.08 99.8431 59.08C100.903 59.08 101.823 59.78 102.643 60.84L104.723 58.96C103.523 57.54 101.923 56.6 99.8231 56.6C97.1431 56.6 95.3031 58.44 95.3031 60.66C95.3031 65.4 101.663 64.7 101.663 67.28C101.663 68.28 100.983 68.88 99.8631 68.88C98.7231 68.88 97.6031 68.24 96.7631 67.16L94.7031 69.06ZM107.821 71H115.981V68.64H110.661V65.04H115.181V62.68H110.661V59.36H115.981V57H107.821V71Z" fill="#161616"></path>
  <path fill-rule="evenodd" clip-rule="evenodd" d="M51.96 107.7L50.1 109.4H49.62L50.72 107.46H51.96V107.7ZM50.62 114.279H50.22C49.72 114.879 49.16 115.359 48.62 115.359C48.06 115.359 47.78 115.019 47.78 114.279C47.78 113.979 47.82 113.659 47.88 113.379L51.14 112.299C51.78 110.779 51.02 110.119 50.12 110.119C48.58 110.119 46.82 112.819 46.82 114.979C46.82 115.999 47.3 116.559 48.06 116.559C48.94 116.539 49.86 115.679 50.62 114.279ZM49.5012 111C49.9412 111 50.3213 111.34 50.1212 112.12L48.1012 112.66C48.4212 111.7 49.0212 111 49.5012 111ZM43.1421 111.039H44.2221L42.5021 115.759C42.3421 116.159 42.5621 116.559 42.9821 116.559C44.2021 116.559 45.6621 115.519 46.2221 114.039H45.9221C45.4821 114.659 44.5221 115.339 43.8021 115.459L45.3821 111.039H47.0021L47.2021 110.359H45.6221L46.2221 108.659H45.6021L44.4821 110.359L43.1421 110.539V111.039ZM41.6409 110.14C41.8609 110.14 42.161 110.38 42.021 110.82L40.0809 115.52C40.5809 115.44 41.1009 114.96 41.4009 114.52H41.7209C41.2609 115.7 40.2209 116.56 39.3209 116.56C39.1009 116.56 38.7809 116.32 38.9409 115.88L40.7409 111.18C40.2409 111.26 39.7209 111.74 39.4209 112.18H39.1209C39.5809 110.98 40.7009 110.14 41.6409 110.14ZM42.2023 108.94C42.6023 108.94 42.9423 108.62 42.9423 108.2C42.9423 107.8 42.6023 107.46 42.2023 107.46C41.7823 107.46 41.4623 107.8 41.4623 108.2C41.4623 108.6 41.8023 108.94 42.2023 108.94ZM33.4619 112.84C33.9019 111.88 33.7419 111.44 33.4619 111.44C33.2219 111.44 32.9418 111.7 32.6618 112.18H32.3618C32.8218 111.16 33.4219 110.14 34.0819 110.14C34.6419 110.14 34.8419 110.7 34.8419 111.32V112.2C34.9319 112.096 35.0195 111.993 35.1051 111.892L35.1067 111.89L35.108 111.889C35.9529 110.897 36.5981 110.14 37.3419 110.14C37.9219 110.14 38.2219 110.5 38.2219 111.04C38.2219 111.36 38.1219 111.76 37.9019 112.18L36.2419 115.52C36.7419 115.44 37.2619 114.96 37.5619 114.52H37.8619C37.4019 115.72 36.2819 116.56 35.3419 116.56C34.9219 116.56 34.6819 116.12 34.8619 115.76L36.7819 112.06C37.0019 111.64 37.0419 111.36 36.7019 111.36C36.2419 111.36 35.1619 112.12 34.5819 112.82L33.3219 116.14C33.1819 116.48 33.0419 116.56 32.7218 116.56C32.2018 116.56 31.9418 116.22 32.1818 115.68L33.4619 112.84ZM32.1604 111.559C32.3804 110.799 32.2604 110.119 31.6803 110.119C30.957 110.119 30.7305 110.597 30.0296 112.075L29.9803 112.179V111.299C29.9803 110.679 29.7803 110.119 29.2203 110.119C28.5603 110.119 27.9603 111.139 27.5003 112.159H27.8003C28.1203 111.699 28.4203 111.419 28.6603 111.419C28.9403 111.419 29.1003 111.859 28.6603 112.819L27.3803 115.659C27.1403 116.199 27.4003 116.539 27.9203 116.539C28.2403 116.539 28.3803 116.459 28.5203 116.119L29.7803 112.799C30.1403 112.359 30.4603 111.979 30.8603 111.559H32.1604ZM25.8407 112.12C26.0407 111.34 25.6607 111 25.2207 111C24.7407 111 24.1407 111.7 23.8207 112.66L25.8407 112.12ZM26.3395 114.279H25.9395C25.4395 114.879 24.8795 115.359 24.3394 115.359C23.7794 115.359 23.4994 115.019 23.4994 114.279C23.4994 113.979 23.5394 113.659 23.5994 113.379L26.8595 112.299C27.4995 110.779 26.7395 110.119 25.8395 110.119C24.2994 110.119 22.5394 112.819 22.5394 114.979C22.5394 115.999 23.0194 116.559 23.7794 116.559C24.6595 116.539 25.5795 115.679 26.3395 114.279ZM19.9415 111.039H18.8615V110.539L20.2016 110.359L21.3216 108.659H21.9416L21.3416 110.359H22.9216L22.7216 111.039H21.1016L19.5215 115.459C20.2416 115.339 21.2016 114.659 21.6416 114.039H21.9416C21.3816 115.519 19.9215 116.559 18.7015 116.559C18.2815 116.559 18.0615 116.159 18.2215 115.759L19.9415 111.039ZM13.1424 114.699C13.1424 113.239 14.7625 111.28 15.6625 111.28C15.8625 111.28 16.0625 111.3 16.2225 111.36L15.2825 113.879C14.7425 114.539 13.9025 115.339 13.5024 115.339C13.2824 115.339 13.1424 115.139 13.1424 114.699ZM17.603 109.82L18.103 109.86L16.363 113.859C15.943 114.819 16.123 115.259 16.363 115.259C16.603 115.259 16.903 114.979 17.223 114.519H17.523C17.063 115.539 16.463 116.559 15.803 116.559C15.243 116.559 14.903 115.959 15.003 114.879L15.043 114.499L14.9341 114.652C14.2176 115.653 13.5693 116.559 12.9029 116.559C12.3229 116.559 12.0229 116.199 12.0229 115.659C12.0229 113.34 14.563 110.38 16.943 110.38H17.043L17.603 109.82ZM13.0217 111.559C13.2417 110.799 13.1217 110.119 12.5417 110.119C11.8183 110.119 11.5918 110.597 10.8909 112.075L10.8417 112.179V111.299C10.8417 110.679 10.6417 110.119 10.0816 110.119C9.42163 110.119 8.82162 111.139 8.36162 112.159H8.66162C8.98163 111.699 9.28163 111.419 9.50164 111.419C9.78164 111.419 9.94164 111.859 9.50164 112.819L8.22161 115.679C7.98161 116.219 8.24161 116.559 8.76162 116.559C9.08163 116.559 9.22163 116.479 9.36163 116.139L10.6217 112.819C10.9817 112.379 11.3017 111.999 11.7017 111.579H13.0217V111.559ZM4.78008 115.958L4.66008 116.318H0L0.120002 115.938C1.56003 115.678 1.80003 115.558 2.40004 113.938L3.70006 110.458C4.28007 108.838 4.16007 108.718 2.90005 108.458L3.02005 108.098H9.08015L8.72014 110.038H8.28014C8.28014 108.878 8.16014 108.578 7.06012 108.578H6.78011C5.70009 108.578 5.56009 108.738 5.26009 109.578L4.40007 111.918H5.66009C6.50011 111.918 6.82011 111.398 7.20012 110.718H7.64013L6.60011 113.558H6.1601C6.2601 112.698 6.2601 112.358 5.48009 112.358H4.22007L3.64006 113.958C3.01309 115.623 3.19225 115.657 4.68522 115.94C4.71627 115.946 4.74789 115.952 4.78008 115.958Z" fill="black"></path>
  <path fill-rule="evenodd" clip-rule="evenodd" d="M8.73971 92.4L6.87971 93.74V93.76H6.39972L7.49971 92.16H8.73971V92.4ZM21.7415 101.78L24.7214 93.8599L24.6214 93.7399L22.5615 93.9799V94.2199L22.9615 94.5199C23.3029 94.7855 23.2125 95.0331 22.9292 95.809L22.8815 95.9399L20.6015 102.02C20.4215 102.38 20.6615 102.82 21.0815 102.82C22.0215 102.82 23.0215 101.96 23.4815 100.78H23.1815C22.8615 101.22 22.2215 101.7 21.7415 101.78ZM35.4 95.6799L37.26 93.9799V93.7399H36.02L34.92 95.6799H35.4ZM35.5187 100.54H35.9187C35.1787 101.96 34.2587 102.82 33.3787 102.82C32.6187 102.82 32.1387 102.26 32.1387 101.24C32.1387 99.0798 33.8987 96.3798 35.4387 96.3798C36.3187 96.3798 37.0987 97.0398 36.4587 98.5598L33.1787 99.6398C33.1187 99.9198 33.0787 100.24 33.0787 100.54C33.0787 101.28 33.3587 101.62 33.9187 101.62C34.4587 101.62 35.0187 101.14 35.5187 100.54ZM35.4177 98.3799C35.6177 97.6199 35.2377 97.2799 34.7977 97.2799C34.3377 97.2799 33.7377 97.9799 33.3977 98.9199L35.4177 98.3799ZM29.5377 97.3194H28.4577V96.8194L29.7977 96.6394L30.9177 94.9394H31.5377L30.9377 96.6394H32.5177L32.3177 97.3194H30.6977L29.1177 101.739C29.8377 101.619 30.7977 100.939 31.2377 100.319H31.5377C30.9777 101.799 29.5177 102.839 28.2977 102.839C27.8777 102.839 27.6577 102.439 27.8177 102.039L29.5377 97.3194ZM27.3376 97.0794C27.4576 96.6394 27.1776 96.3994 26.9376 96.3994C25.9976 96.3994 24.8776 97.2594 24.4176 98.4394H24.7176C25.0176 97.9994 25.5376 97.5194 26.0376 97.4394L24.2376 102.139C24.0776 102.579 24.3976 102.819 24.6176 102.819C25.5176 102.819 26.5576 101.959 27.0176 100.779H26.7176C26.4176 101.219 25.8976 101.699 25.3976 101.779L27.3376 97.0794ZM28.2591 94.4799C28.2591 94.8799 27.9191 95.2199 27.5191 95.2199C27.1191 95.2199 26.7791 94.8799 26.7791 94.4799C26.7791 94.0799 27.0991 93.7399 27.5191 93.7399C27.9191 93.7399 28.2591 94.0799 28.2591 94.4799ZM18.1612 97.5598C17.2612 97.5598 15.6412 99.5198 15.6412 100.98C15.6412 101.42 15.7812 101.62 16.0212 101.62C16.4012 101.62 17.2412 100.82 17.7812 100.16L18.7212 97.6398C18.5412 97.5798 18.3612 97.5598 18.1612 97.5598ZM20.6017 96.1399L20.1017 96.0999L19.5417 96.6599H19.4417C17.0617 96.6599 14.5217 99.6199 14.5217 101.94C14.5217 102.48 14.8217 102.84 15.4017 102.84C16.0681 102.84 16.7164 101.934 17.4328 100.932L17.5417 100.78L17.5017 101.16C17.4017 102.24 17.7417 102.84 18.3017 102.84C18.9617 102.84 19.5617 101.82 20.0217 100.8H19.7217C19.4017 101.26 19.1017 101.54 18.8617 101.54C18.6217 101.54 18.4417 101.1 18.8617 100.14L20.6017 96.1399ZM10.5206 102.62C9.66062 102.96 9.06062 103.36 9.06062 103.98C9.06062 104.56 9.60062 104.8 10.7206 104.8C12.2206 104.8 13.0406 104.36 13.0406 103.78C13.0406 103.52 12.7006 103.4 11.8006 103.1C11.2206 102.92 10.8006 102.76 10.5206 102.62ZM11.5193 100.16C11.1193 100.16 10.9793 99.82 10.9793 99.46C10.9793 98.3 11.5393 96.86 12.4393 96.86C12.8393 96.86 12.9793 97.2 12.9793 97.56C12.9593 98.74 12.3993 100.16 11.5193 100.16ZM12.2813 102.04C13.3813 102.38 14.0613 102.64 14.0613 103.4C14.0613 104.38 12.2613 105.54 10.0813 105.52C8.82132 105.52 7.74133 105.18 7.74133 104.36C7.74133 103.58 8.46132 102.94 10.2213 102.42C9.98132 102.26 9.88132 102.06 9.88132 101.78C9.88132 101.3 10.3213 100.92 11.0813 100.56C10.3413 100.46 9.86132 99.8998 9.86132 99.0798C9.86132 97.8198 10.9013 96.3798 12.5413 96.3798C12.8813 96.3798 13.1813 96.4598 13.4213 96.6198H15.2213L15.0213 97.2998H13.9613C14.0213 97.4798 14.0613 97.6798 14.0613 97.8998C14.0613 99.1198 13.0813 100.52 11.5213 100.6C11.1213 100.82 10.9213 101.12 10.9213 101.36C10.9213 101.642 11.2485 101.738 11.9715 101.949C12.0677 101.977 12.1709 102.007 12.2813 102.04ZM5.93998 98.62C6.71998 98.62 6.73998 98.96 6.61998 99.82H7.05997L8.09997 96.98H7.65997C7.27997 97.66 6.95997 98.18 6.11998 98.18H4.39998L5.23998 95.84C5.53998 95 5.67998 94.84 6.75998 94.84H7.51997C8.61997 94.84 8.73997 95.14 8.73997 96.3H9.17997L9.53996 94.36H3.01999L2.89999 94.72C4.15998 94.98 4.27998 95.1 3.69999 96.72L2.39999 100.22C1.79999 101.84 1.55999 101.96 0.0999996 102.22L0 102.6H7.23997L8.53997 100.54H8.03997C7.19997 101.36 6.35998 102.12 4.71998 102.12C2.91611 102.12 2.94824 102.032 3.48949 100.545C3.52432 100.449 3.56129 100.348 3.59999 100.24L4.19998 98.64H5.93998V98.62Z" fill="black"></path>
  <path fill-rule="evenodd" clip-rule="evenodd" d="M11.9182 81.4799C12.3182 81.4799 12.6582 81.1399 12.6582 80.7399C12.6582 80.34 12.3182 80 11.9182 80C11.4982 80 11.1782 80.34 11.1782 80.7399C11.1782 81.1599 11.4982 81.4799 11.9182 81.4799ZM17.8403 83.9992C17.8403 83.0392 17.6003 82.6793 16.9203 82.6793C16.0803 82.6793 15.3003 83.5792 14.5203 84.6591L16.2003 80.1595L16.1003 80.0195L14.0403 80.2595V80.4994L14.4403 80.7994C14.7886 81.0703 14.6876 81.3411 14.391 82.1371L14.3603 82.2193L12.5403 86.9789C12.3803 87.3789 12.2003 87.8589 12.2003 87.9789C12.2003 88.5388 12.9603 89.0788 13.6603 89.0788C15.2203 89.0988 17.8403 86.219 17.8403 83.9992ZM35.18 81.9593L37.04 80.2595V80.0195H35.8L34.7 81.9593H35.18ZM35.3005 86.819H35.7005C34.9405 88.2389 34.0205 89.0988 33.1405 89.0788C32.3805 89.0788 31.9005 88.5388 31.9005 87.5189C31.9005 85.3591 33.6605 82.6593 35.2005 82.6593C36.0805 82.6593 36.8605 83.3192 36.2205 84.8391L32.9605 85.919C32.9005 86.199 32.8605 86.519 32.8605 86.819C32.8605 87.5589 33.1405 87.8989 33.7005 87.8989C34.2405 87.8989 34.8005 87.4189 35.3005 86.819ZM35.1986 84.6592C35.3985 83.8993 35.0186 83.5593 34.5786 83.5593C34.0986 83.5593 33.4986 84.2592 33.1786 85.1992L35.1986 84.6592ZM29.2964 83.6004H28.2164V83.1005L29.5564 82.9205L30.6764 81.2206H31.2964L30.6964 82.9205H32.2764L32.0764 83.6004H30.4564L28.8764 88.0201C29.5964 87.9001 30.5564 87.2201 30.9964 86.6002H31.2964C30.7364 88.0801 29.2764 89.12 28.0564 89.12C27.6364 89.12 27.4164 88.72 27.5764 88.3201L29.2964 83.6004ZM27.6602 84.1203C27.8802 83.3604 27.7602 82.6805 27.1802 82.6805C26.4569 82.6805 26.2304 83.1582 25.5295 84.6365L25.4802 84.7403V83.8604C25.4802 83.2404 25.2802 82.6805 24.7202 82.6805C24.0603 82.6805 23.4603 83.7004 23.0003 84.7203H23.3003C23.6203 84.2603 23.9203 83.9804 24.1403 83.9804C24.4203 83.9804 24.5803 84.4203 24.1403 85.3802L22.8603 88.22C22.6203 88.76 22.8803 89.1 23.4003 89.1C23.7203 89.1 23.8603 89.02 24.0003 88.68L25.2602 85.3602C25.6202 84.9203 25.9402 84.5403 26.3402 84.1203H27.6602ZM21.3208 84.6592C21.5208 83.8993 21.1408 83.5593 20.7008 83.5593C20.2208 83.5593 19.6408 84.2592 19.3008 85.1992L21.3208 84.6592ZM21.8195 86.819H21.4195C20.9195 87.4189 20.3595 87.8989 19.8195 87.8989C19.2595 87.8989 18.9796 87.5589 18.9796 86.819C18.9796 86.519 19.0196 86.199 19.0796 85.919L22.3395 84.8391C22.9795 83.3192 22.2195 82.6593 21.3195 82.6593C19.7795 82.6593 18.0196 85.3591 18.0196 87.5189C18.0196 88.5388 18.4996 89.0788 19.2595 89.0788C20.1395 89.0988 21.0595 88.2389 21.8195 86.819ZM13.4211 87.5796C13.4211 87.8396 13.8811 88.1396 14.2011 88.1396C15.5011 88.1396 16.7211 85.7998 16.7011 84.4999C16.7011 84.0599 16.4811 83.8799 16.1811 83.8799C15.7011 83.8799 14.8211 84.5999 14.2611 85.2798L13.7411 86.6797C13.5611 87.1397 13.4211 87.4996 13.4211 87.5796ZM11.3215 82.6805C11.5615 82.6805 11.8415 82.9204 11.7215 83.3604L9.80153 88.06C10.3015 87.98 10.8215 87.5001 11.1215 87.0601H11.4215C10.9615 88.24 9.92153 89.1 9.02154 89.1C8.78154 89.1 8.46155 88.86 8.62155 88.42L10.4215 83.7204C9.92153 83.8004 9.40154 84.2803 9.10154 84.7203H8.80154C9.26154 83.5404 10.3815 82.6805 11.3215 82.6805ZM3.01996 80.6005H7.3199L7.1999 80.9805C5.73992 81.2405 5.49992 81.3605 4.89993 82.9804L3.61995 86.5001C2.99996 88.18 3.15996 88.3799 4.25994 88.3799C5.61896 88.3799 6.51009 87.3922 7.2882 86.5298C7.34601 86.4657 7.40319 86.4023 7.45989 86.3401H7.95989L6.53991 88.8599H0L0.119998 88.4999C1.55998 88.2399 1.79997 88.12 2.39997 86.5001L3.69995 82.9604C4.27994 81.3405 4.15994 81.2205 2.89996 80.9605L3.01996 80.6005Z" fill="black"></path>
</svg>
