<svg xmlns="http://www.w3.org/2000/svg" width="275" height="75" viewBox="0 0 275 75">
    <defs>
        <path d="M237.338.48h37.127v51.153h-37.127z"/>
        <path d="M190.855.48h46.89V51.94h-46.89z"/>
        <path d="M.5 74.809h273.966V.48H.5z"/>
    </defs>
    <path fill="#0099c3" d="M270.832.48h-29.926c-.832 0-1.58.295-2.161.852-.598.57-.913 1.29-.913 2.06l-.088 8.072a19.818 19.818 0 0 1 2.05 3.795c.233.558.283 1.121.142 1.657-.124.472-.367.89-.725 1.245-.32.319-.7.561-1.131.724a3.526 3.526 0 0 1-.418.13l-.136 12.512h.355c.644 0 1.23.19 1.694.55.386.297.689.673.903 1.116.2.418.309.869.329 1.346v.004a3.75 3.75 0 0 1-.146 1.232 24.283 24.283 0 0 1-3.252 6.573l-.07 6.422c0 .857.344 1.618.967 2.142.56.471 1.22.72 1.91.72h31.371c.805 0 1.523-.316 2.077-.913.524-.565.802-1.24.802-1.97l-.067-4.804a2.027 2.027 0 0 0-.007-.132c-.115-1.137-.703-1.744-1.18-2.054a3.18 3.18 0 0 0-1.755-.525H248.05l-.123-11.628h21.033c.714 0 1.373-.278 1.903-.806.67-.666.81-1.38.81-1.861l-.099-4.4c-.005-.656-.263-1.28-.746-1.808a2.615 2.615 0 0 0-1.967-.87H247.82l-.123-9.57h23.266l.106-.003a2.922 2.922 0 0 0 1.72-.714c.405-.35.888-.996.888-2.086l-.098-4.324c-.004-.513-.164-1.255-.888-1.92-.69-.631-1.391-.763-1.86-.763"/>
    <path fill="#0099c3" d="M131.264 1.168c2.342 0 4.627.311 6.792.925 2.157.612 4.2 1.49 6.07 2.611a25.56 25.56 0 0 1 5.137 4.067 26.126 26.126 0 0 1 3.961 5.242c.293.512.57 1.036.827 1.572l-.26 24.028a25.866 25.866 0 0 1-4.378 6.345 24.437 24.437 0 0 1-1.881 1.79c-10.973.185-21.182.736-30.645 1.565a24.751 24.751 0 0 1-3.903-3.355 26.33 26.33 0 0 1-4.619-6.802l-.251-23.135a24.75 24.75 0 0 1 1.045-2.027 26.248 26.248 0 0 1 3.958-5.239 25.03 25.03 0 0 1 5.16-4.055 25.399 25.399 0 0 1 12.986-3.531m-.081 42.741c1.478 0 2.885-.238 4.178-.707a13.939 13.939 0 0 0 3.63-1.956 16.193 16.193 0 0 0 2.974-2.908 19.472 19.472 0 0 0 2.24-3.572 19.789 19.789 0 0 0 1.406-3.882c.32-1.3.482-2.568.482-3.767 0-1.181-.152-2.433-.453-3.719a18.046 18.046 0 0 0-1.35-3.778 19.073 19.073 0 0 0-2.207-3.491 15.45 15.45 0 0 0-2.947-2.836 14.037 14.037 0 0 0-3.648-1.912c-1.308-.462-2.757-.696-4.305-.696-1.572 0-3.045.235-4.378.698a13.642 13.642 0 0 0-3.666 1.92c-1.106.821-2.1 1.782-2.954 2.859a18.365 18.365 0 0 0-2.186 3.48 18.741 18.741 0 0 0-1.339 3.775 16.161 16.161 0 0 0-.453 3.7c0 1.27.158 2.58.469 3.895.314 1.324.78 2.632 1.385 3.884a19.485 19.485 0 0 0 2.226 3.558 14.967 14.967 0 0 0 2.954 2.843 14.332 14.332 0 0 0 3.67 1.917c1.307.461 2.744.695 4.272.695"/>
    <path fill="#0099c3" d="M177.158 1.168c2.21 0 4.335.373 6.317 1.11 1.993.74 3.767 1.809 5.276 3.176 1.516 1.378 2.733 3.064 3.616 5.01a14.995 14.995 0 0 1 1.208 4.404 28.6 28.6 0 0 0-.874 2.057c-1.11 2.923-1.725 6.051-1.831 9.313-.42.598-.87 1.15-1.353 1.654-1.167 1.221-2.45 2.215-3.808 2.952-.896.485-1.745.885-2.536 1.196l12.764 15.188c.465.486.734 1.075.781 1.707.009.115.008.227.004.34-4.5-.34-8.906-.623-13.217-.85l-11.838-15.19h-7.362l.144 14.515a499.297 499.297 0 0 0-10.746-.068l.088-8.069c.34-.691.653-1.402.942-2.133 1.268-3.226 1.91-6.728 1.91-10.408 0-2.367-.298-4.682-.888-6.881a26.37 26.37 0 0 0-1.703-4.606l.125-11.505c0-.77.315-1.489.91-2.06a3.07 3.07 0 0 1 2.165-.852zm-.165 22.354c1.057 0 2.012-.159 2.84-.471.806-.304 1.467-.723 2.017-1.278.558-.562.98-1.22 1.289-2.01.312-.798.47-1.72.47-2.74 0-.987-.158-1.864-.472-2.607a5.085 5.085 0 0 0-1.292-1.843c-.563-.507-1.253-.9-2.054-1.167-.845-.283-1.797-.427-2.83-.427h-12.918l.154 12.543z"/>
    <path fill="#0099c3" d="M216.398.48c-3.773 0-7.272.717-10.404 2.13-3.122 1.408-5.839 3.353-8.077 5.783a25.823 25.823 0 0 0-4.341 6.474c.084.694.126 1.407.126 2.137 0 2.403-.41 4.54-1.215 6.352a17.112 17.112 0 0 1-1.615 2.88c-.013.342-.017.685-.017 1.03 0 2.251.277 4.482.822 6.63a25.844 25.844 0 0 0 2.401 6.112 26.218 26.218 0 0 0 3.816 5.256 24.127 24.127 0 0 0 5.092 4.135c.261.16.535.301.805.451a643.767 643.767 0 0 1 20.235 2.089c.221-.067.444-.133.663-.206 2.58-.864 4.947-2.074 7.036-3.598a24.786 24.786 0 0 0 5.684-5.787l.118-10.82h-4.573c-.966 0-1.588.396-1.942.73a4.257 4.257 0 0 0-.813 1.042l-.048.093a19.625 19.625 0 0 1-2.573 4.155 17.127 17.127 0 0 1-3.271 3.107 13.856 13.856 0 0 1-3.758 1.913 13.241 13.241 0 0 1-4.151.659 13.33 13.33 0 0 1-5.54-1.22 15.456 15.456 0 0 1-4.829-3.452c-1.407-1.479-2.553-3.273-3.408-5.334-.85-2.048-1.28-4.326-1.28-6.772 0-2.224.38-4.364 1.134-6.36.75-1.992 1.812-3.76 3.157-5.256a15.005 15.005 0 0 1 4.773-3.545c1.809-.856 3.826-1.29 5.993-1.29 1.216 0 2.463.14 3.703.42 1.22.273 2.412.716 3.546 1.313a15.37 15.37 0 0 1 3.253 2.335c1.019.944 1.952 2.11 2.773 3.463l.035.056c.274.41.593.75.94 1.004.47.345 1.051.526 1.683.526h4.5a3.5 3.5 0 0 0 .832-.1l.082-7.551a22.316 22.316 0 0 0-1.529-1.974 25.846 25.846 0 0 0-5.376-4.673c-2.036-1.335-4.308-2.402-6.754-3.17A25.592 25.592 0 0 0 216.398.48"/>
    <path fill="#0099c3" d="M27.64 2.081s.611-1.65-.738-.514l-7.957 6.694s-1.35 1.136-3.064 1.563l-6.947 1.733L.77 13.67s-.302.078-.266.385l.151 1.274s.187 1.583 1.496 2.764l10.267 9.26s1.31 1.181 1.417 2.936l.472 7.73-.016.068s-.017.069.594-1.581z"/>
    <path fill="#0099c3" d="M34.662 11.96s-.573-1.664-1.14.002l-4.96 14.586s-.567 1.665 1.2 1.665h8.733s1.767 0 1.194-1.663z"/>
    <path fill="#0099c3" d="M43.67 39.947s-.589-1.659-2.357-1.659H26.607s-1.767 0-2.694 1.498l-5.773 9.33s-.926 1.497.734 2.098l12.878 4.654s1.661.6 3.35.08l11.158-3.441s1.689-.52 1.1-2.18z"/>
    <path fill="#74b958" d="M54.786 7.932l-.032-.016-13.023-6.331s-1.588-.772-.968.875L54.45 38.81z"/>
    <path fill="#6f6f6e" d="M82.607 69.678c0 .612-.112 1.145-.335 1.595a2.38 2.38 0 0 1-.958 1.036c-.417.24-.899.359-1.447.359H78.2v-5.826h1.44c.962 0 1.697.242 2.205.725.508.484.762 1.188.762 2.11m1.019 0c0-1.165-.344-2.064-1.033-2.695-.688-.633-1.666-.948-2.933-.948h-2.474v7.441h2.798c.722 0 1.36-.152 1.91-.46a3.126 3.126 0 0 0 1.28-1.323c.302-.575.452-1.246.452-2.014"/>
    <path fill="#6f6f6e" d="M87.977 65.396l1.646-1.146v-.154h-1.1l-1.151 1.194v.106zm3.26 8.081v-.824h-4.883V70.06H90.7v-.814h-4.346V66.86h4.664v-.823h-5.68v7.441z"/>
    <path fill="#6f6f6e" d="M96.211 66.748c-.828 0-1.472.265-1.932.794-.46.531-.69 1.257-.69 2.18 0 .912.24 1.644.719 2.2.48.553 1.128.83 1.946.83 1.047 0 1.834-.514 2.362-1.547l.828.413c-.307.64-.74 1.129-1.298 1.463-.557.334-1.204.502-1.94.502-.754 0-1.406-.156-1.956-.469a3.066 3.066 0 0 1-1.259-1.335c-.288-.579-.433-1.265-.433-2.057 0-1.187.323-2.117.967-2.79.644-.672 1.536-1.009 2.676-1.009.796 0 1.461.155 1.996.465.534.31.927.77 1.178 1.379l-.96.317a1.973 1.973 0 0 0-.837-.993c-.384-.23-.84-.343-1.367-.343"/>
    <path fill="#6f6f6e" d="M106.113 73.48v-3.45h-4.045v3.45h-1.014v-7.442h1.014v3.148h4.045v-3.148h1.015v7.442z"/>
    <path fill="#6f6f6e" d="M109.21 73.48v-7.442h5.68v.824h-4.664v2.387h4.346v.814h-4.346v2.593h4.883v.824z"/>
    <path fill="#6f6f6e" d="M119.7 66.858v6.618h-1.01v-6.618h-2.569v-.824h6.148v.824z"/>
    <path fill="#6f6f6e" d="M129.576 71.422c0 .687-.27 1.218-.81 1.594-.539.378-1.3.566-2.28.566-1.822 0-2.88-.63-3.17-1.89l.983-.197c.113.448.354.777.722.985.367.21.869.315 1.503.315.654 0 1.16-.111 1.515-.336.356-.223.534-.55.534-.985 0-.242-.056-.44-.168-.59a1.246 1.246 0 0 0-.47-.375 3.52 3.52 0 0 0-.721-.249c-.28-.068-.59-.139-.93-.217-.59-.13-1.04-.26-1.345-.391a2.575 2.575 0 0 1-.725-.435 1.639 1.639 0 0 1-.406-.563 1.83 1.83 0 0 1-.14-.74c0-.637.244-1.128.735-1.473.49-.345 1.191-.518 2.105-.518.85 0 1.499.13 1.948.388.45.259.765.7.945 1.324l-.998.174c-.11-.394-.319-.681-.627-.859-.307-.177-.734-.265-1.28-.265-.597 0-1.054.098-1.369.295-.315.197-.473.49-.473.882 0 .228.062.418.184.567.122.15.298.277.528.38.23.104.688.233 1.375.383l.687.161c.229.056.447.12.656.196.209.076.405.164.587.267.182.103.34.227.475.375.135.148.24.322.316.522.076.201.114.438.114.71"/>
    <path fill="#6f6f6e" d="M134.673 74.808h.881v-10.13h-.881z"/>
    <path fill="#6f6f6e" d="M143.686 65.396l1.645-1.146v-.154h-1.098l-1.152 1.194v.106zm3.254 8.081v-.824h-4.878V70.06h4.342v-.814h-4.342V66.86h4.66v-.823h-5.675v7.441z"/>
    <path fill="#6f6f6e" d="M153.458 73.48l-4.003-6.339.026.513.027.883v4.943h-.903v-7.442h1.18l4.045 6.38c-.042-.69-.064-1.19-.064-1.5v-4.88h.913v7.442z"/>
    <path fill="#6f6f6e" d="M156.762 73.48v-7.442h5.68v.824h-4.664v2.387h4.345v.814h-4.345v2.593h4.882v.824z"/>
    <path fill="#6f6f6e" d="M169.454 68.177c0 .447-.145.795-.438 1.044-.29.247-.704.372-1.237.372h-2.446v-2.747h2.403c.554 0 .98.114 1.275.34.296.228.443.558.443.991zm1.321 5.303l-2.124-3.206c.57-.098 1.017-.336 1.341-.712.325-.378.487-.842.487-1.396 0-.668-.23-1.19-.689-1.566-.457-.375-1.108-.562-1.95-.562h-3.52v7.442h1.013v-3.09h2.331l1.943 3.09z"/>
    <path fill="#6f6f6e" d="M172.13 69.72c0-1.208.325-2.143.976-2.805.651-.661 1.567-.992 2.745-.992.828 0 1.501.139 2.017.417.517.278.916.724 1.195 1.336l-.966.286c-.213-.423-.505-.732-.88-.925-.372-.193-.837-.291-1.393-.291-.863 0-1.523.26-1.98.78-.456.52-.685 1.25-.685 2.194 0 .94.243 1.682.728 2.227.485.544 1.155.815 2.012.815.489 0 .944-.073 1.367-.222.423-.147.765-.348 1.027-.602v-1.341h-2.235v-.846h3.17v2.567a4.051 4.051 0 0 1-1.458.933c-.575.22-1.2.33-1.87.33-.783 0-1.458-.155-2.024-.465a3.1 3.1 0 0 1-1.298-1.34c-.298-.582-.449-1.266-.449-2.056"/>
    <path fill="#6f6f6e" d="M181.35 73.475h1.014v-7.441h-1.014z"/>
    <path fill="#6f6f6e" d="M184.563 73.48v-7.442h5.68v.824h-4.664v2.387h4.345v.814h-4.345v2.593h4.882v.824z"/>
    <path fill="#6f6f6e" d="M195.523 74.808h.881v-10.13h-.88z"/>
    <path fill="#6f6f6e" d="M201.897 73.48v-7.442h5.68v.824h-4.664v2.387h4.345v.814h-4.345v2.593h4.882v.824z"/>
    <path fill="#6f6f6e" d="M212.344 67.238c.099.306.198.582.297.825l.96 2.46h-2.797l.955-2.45c.174-.458.305-.833.393-1.127l.048-.147zm3.45 6.242l-3.004-7.442h-1.152l-3.053 7.442h1.05l.862-2.176h3.407l.855 2.176z"/>
    <path fill="#6f6f6e" d="M220.002 73.586c-.613 0-1.147-.11-1.603-.333a2.454 2.454 0 0 1-1.063-.966c-.25-.423-.376-.927-.376-1.512v-4.737h1.014v4.653c0 .68.173 1.196.52 1.547.348.353.848.53 1.502.53.673 0 1.196-.183 1.57-.548.373-.364.56-.896.56-1.597v-4.585h1.008v4.643c0 .602-.128 1.121-.384 1.557-.257.437-.62.772-1.089 1.001-.469.232-1.022.347-1.659.347"/>
    <path fill="#e53616" d="M30.993 72.56c9.363-4.046 19.057-7.316 28.892-10.05 4.92-1.362 9.885-2.563 14.87-3.679 4.992-1.07 10.003-2.073 15.043-2.913 20.15-3.428 40.586-5.074 61.026-5.5 20.449-.391 40.911.497 61.283 2.309 20.368 1.877 40.65 4.659 60.794 8.21l-.66 3.53c-19.997-3.828-40.146-6.894-60.398-9.061-20.256-2.101-40.62-3.285-60.997-3.193-20.368.125-40.757 1.466-60.902 4.591-5.039.763-10.05 1.69-15.048 2.685-4.989 1.04-9.961 2.166-14.894 3.454-9.857 2.586-19.587 5.708-29.01 9.616"/>
    <path fill="#0099c3" d="M108.366 39.154a28.853 28.853 0 0 1-.714-1.634c-1.281-3.205-1.93-6.698-1.93-10.384 0-2.386.298-4.717.887-6.926a26.315 26.315 0 0 1 1.505-4.19l-.13-11.924c0-.786-.314-1.504-.913-2.079a3.024 3.024 0 0 0-2.128-.849h-7.03c-.51 0-1.003.133-1.466.396a2.626 2.626 0 0 0-1.128 1.224L81.374 35.874 67.536 2.987c-.125-.425-.42-.955-1.102-1.37a2.997 2.997 0 0 0-1.567-.449H57.87c-.81 0-1.547.294-2.13.851-.597.573-.912 1.291-.912 2.06l-.04 3.722-.001.13 3.573 1.737c1.588.772.976 2.422.976 2.422l-2.679 7.223c-.612 1.65-.67 3.407-.67 3.407l-.431 18.996-.006.028-1.099-2.933-.115 10.602c-.037.884.309 1.666.973 2.204.565.46 1.224.703 1.904.703h5.026c.701 0 1.37-.262 1.935-.758.617-.544.943-1.272.942-2.121l-.317-30.048 11.302 31.152c.388 1.112 1.334 1.775 2.53 1.775h5.683a2.57 2.57 0 0 0 1.572-.527c.37-.282.667-.64.88-1.066.028-.054.053-.111.073-.169l11.175-31.116-.318 30.015c0 .743.26 1.414.736 1.92 3.217-.442 6.533-.855 9.963-1.232.052-.224.083-.46.082-.704z"/>
    <path fill="#007ba0" d="M108.115 16.02a26.28 26.28 0 0 0-1.505 4.189c-.59 2.21-.888 4.54-.888 6.927 0 3.685.65 7.178 1.93 10.383.224.556.461 1.101.715 1.635z"/>
    <path fill="#007ba0" d="M154.051 15.582l-.26 24.028c.34-.69.653-1.403.941-2.133 1.269-3.226 1.911-6.728 1.911-10.408 0-2.367-.299-4.681-.889-6.881a26.394 26.394 0 0 0-1.703-4.606"/>
    <path fill="#007ba0" d="M237.747 11.466l-.082 7.55c.14-.033.28-.077.416-.128.432-.163.81-.406 1.13-.725.356-.355.599-.774.724-1.245.14-.535.09-1.098-.143-1.657a19.876 19.876 0 0 0-2.045-3.795m.137 20.063h-.355l-.118 10.825a24.29 24.29 0 0 0 3.253-6.575 3.79 3.79 0 0 0 .146-1.232v-.004a3.434 3.434 0 0 0-.33-1.348 3.082 3.082 0 0 0-.902-1.116c-.464-.36-1.05-.55-1.694-.55"/>
    <path fill="#007ba0" d="M193.575 14.865a28.415 28.415 0 0 0-.874 2.057c-1.11 2.922-1.725 6.051-1.831 9.312a17.204 17.204 0 0 0 1.615-2.88c.807-1.81 1.216-3.948 1.216-6.352 0-.73-.042-1.443-.126-2.137"/>
    <path fill="#008952" d="M55.559 41.717l.43-18.996s.06-1.758.671-3.408l2.679-7.222s.612-1.65-.976-2.422L54.79 7.933l-.333 30.68-.003.199 1.099 2.933z"/>

</svg>
