<?xml version="1.0" encoding="utf-8"?>
<!-- Generator: Adobe Illustrator 24.0.3, SVG Export Plug-In . SVG Version: 6.00 Build 0)  -->
<svg version="1.1" id="Calque_1" xmlns="http://www.w3.org/2000/svg" xmlns:xlink="http://www.w3.org/1999/xlink" x="0px" y="0px"
	 viewBox="0 0 133.9 67.4" style="enable-background:new 0 0 133.9 67.4;" xml:space="preserve">
<style type="text/css">
	.st0{fill:#7DC6BD;}
	.st1{fill:#00787F;}
</style>
<g>
	<path class="st0" d="M94,40.1c-0.2,1-0.5,2.6-0.3,3.7c0.2,1.1,0.1,1.8,0.1,2.7c0.1,0.9,0.2,2.2,0.6,3.3c0.4,1.1,0.6,1.8,0.7,2.7
		c0.1,0.9,0.1,1.7,0.3,1.6c0.2,0,0-1.1,0.6-1.9c0.6-0.7,1.8-2.2,2.4-2.2c0.6,0,1.9,0.7,2.9,2.3c1.3,1.9,1,0.8,1.7,1.4
		c0.7,0.6,1.5,1.4,2,2.3c0.4,1,0.6,1,0.7,0.6c0.1-0.4,0.2-1.1,1.4-1.2c1.3-0.1,2.4,0.1,3.9,1.2c1.5,1.1,1.7,1.3,1.2,0.5
		c-0.5-0.9-0.6-1.5-0.6-2.5c0-1,0.4-0.4,0.4-0.8c0-0.4-0.3,0.1-0.4-0.9c-0.1-1-0.1-1.4,0-2c0.1-0.7,0.1-0.8,0-1.1
		c-0.1-0.4,0.2-0.5,0.7-0.3c0.4,0.2,1.9,0.3,3.3,0.3c1.4,0,2.4,0.2,3,0.2c0.6,0,1.2,0,1.9,0.3c0.7,0.3,0.7,0.1,0.1-0.3
		c-0.6-0.4-1-1.7-0.5-2.7c0.5-0.9,1.6-1.6,2.7-1.7c1-0.1,1.2,0.1,1.3,0c0.1-0.1-0.5-0.4-0.3-1c0.2-0.6,0.9-1.4,2.5-1.6
		c1-0.2,0.2-0.4-0.2-0.6c-0.4-0.2-2.2-1.2-2.8-2.5c-0.6-1.2-0.3-1.5,0.1-1.7c0.4-0.1-0.8-0.2-1.8-0.4c-1-0.2-3.1-0.7-3.6-1.1
		c-0.5-0.4-0.8-0.7-0.9-0.4c-0.2,0.3-0.5,0,0.1-0.6c0.6-0.7,2.4-2.8,3.1-3.3c0.7-0.5,1.3-0.4,2.2-1c0.8-0.6,1.1-0.9,2.2-1.1
		c1.1-0.2,1.1-0.5,0.5-0.5c-0.6,0-1.2-0.2-1.6-0.8c-0.4-0.5,0-0.6-0.3-1.7c-0.2-0.7,0.2-1.4,0.7-1.9c0.5-0.5,0.6-0.4,0.3-0.7
		c-0.3-0.3,0-1.5,1-2c0.7-0.4,1.5-0.8,0.5-0.7c-1,0.1-1.5,0.1-1.8,0.2c-0.3,0.1-1.7-0.4-1.8-0.8c0-0.4-0.4-0.2-0.7-0.2
		c-0.3,0.1-1.5-0.3-1.8-0.4c-0.3-0.1-0.4-0.7-1.1-1c-0.7-0.3-0.4-0.8-0.3-1.3c0.1-0.5,0-0.6-0.5,0c-0.5,0.6-3,1.7-3.7,2.1
		c-0.7,0.4-0.9,0.2-1.9,0.1c-1-0.2-1.7-0.1-2,0c-0.3,0.1-0.5,0-0.7-0.8c-0.1-0.8-0.8-2.4,0.2-4.6c1-2.2,0.9-1.9,0.5-1.8
		c-0.4,0.1-1.2-0.6-1.3-2c-0.1-1.4-0.1-0.8-0.4-1.2c-0.2-0.3-0.5-0.9-0.3-1.7s0.3-0.8,0.2-0.9c-0.1-0.1-0.4,0.5-1.2,1.1
		c-0.8,0.6-2.9,1.1-3.2-0.1c-0.3-1-0.3-0.1-0.6,0.3c-0.2,0.4-0.6,1.4-2.4,2.3c-1.9,0.9-3,0.4-3.5-1.1c-0.6-1.5-0.5-0.3-0.6,0.2
		c0,0.5-1.5,3.9-2.8,5.9c-1.4,2-1.3,1.5-1.7,1.4c-0.4-0.2-0.6,0-0.8,0.1c-0.2,0.1-2.1-1.2-2.7-1.8c-0.6-0.6-0.5-0.9-1.1-0.7
		c-0.6,0.1-1.7-0.6-2.4-1.6c-0.7-1-0.6-0.2-0.4,0.9c0.3,1,0.2,3.2-0.6,3.5c-0.7,0.3-0.8,0.2-0.5,1c0.3,0.8,0.4,2.7-0.2,3.3
		c-0.6,0.6-0.5,0.9-1.5,1.1s-0.1,0.7,0.6,1.2c0.6,0.5,2.7,2.3,2.5,3.5c-0.2,1.2-0.4,1.5-1.4,2.1c-0.9,0.6-2,1-3.3,0.9
		c-1.4-0.1-0.6,0.2,0.2,0.4c0.8,0.2,2.4,0.7,3.6,1.7c1.1,1,4.9,2.9,6.4,3.5c1.5,0.6,2.4,0.9,2.4,1.1c-0.1,0.2-0.8,1.4-4.6,3.2
		c-1.8,0.9-6.2,2.3-6.5,2.3c-0.3,0.1-1.7,0.4-2,0.2c-0.4-0.2-0.8-0.1-0.4,0.1c0.3,0.2,0.6,0.8,0.3,1.2c-0.3,0.4,0.1,0.4,0.5,0
		c0.4-0.3,5.6-2.1,8.3-3.2C91.5,41.2,94.2,38.6,94,40.1"/>
	<path class="st1" d="M15.9,37.9c2.8-4,4.3-6.8,4.3-8.3c0-0.6-0.3-1.1-0.9-1.4l1.9-2c0.8,0.4,1.1,1,1.1,1.8c0,1-1,3-3,6
		c-0.4,0.6-0.7,1.1-0.9,1.4l-0.4,0.7l-0.7,1.1c-0.4,0.6-0.8,1.3-1.2,2.1L14,41.4c-0.4-3.3-1-6.3-1.9-9c-0.9-2.7-1.7-4.1-2.4-4.1
		c-0.8,0-1.3,0.8-1.6,2.3c-0.3-0.1-0.4-0.3-0.4-0.5c0-0.8,0.3-1.6,1-2.5c0.7-0.9,1.3-1.4,1.9-1.4C12.8,26,14.6,29.9,15.9,37.9"/>
	<path class="st1" d="M31.3,36.5c0.3,0.2,0.4,0.3,0.4,0.5c0,0.4-0.4,1.1-1.3,2.2c-1.2,1.5-2.3,2.2-3.3,2.2c-0.8,0-1.1-0.5-1.1-1.5
		c0-0.4,0.2-1.7,0.5-3.9l0.6-4.2l0.2-1.1l0.1-0.8c0.1-0.4,0.1-0.7,0.1-0.9c0-0.5-0.1-0.8-0.4-0.8c-0.8,0-1.6,0.9-2.6,2.6
		c-0.2-0.2-0.3-0.3-0.3-0.5c0-0.6,0.6-1.5,1.7-2.5c1.2-1.1,2.1-1.6,2.8-1.6c0.8,0,1.2,0.5,1.2,1.6c0,0.2,0,0.6-0.1,1.3l-0.1,1
		c0,0.1-0.1,0.5-0.2,1.2l-0.6,4.4l-0.2,1c-0.1,1-0.2,1.6-0.2,2c0,0.4,0.1,0.7,0.4,0.7C29.5,39.4,30.4,38.4,31.3,36.5 M28.3,24.2
		l1.3-3.2c1.2-0.5,2.1-1.1,2.8-2c0.1,0.1,0.2,0.3,0.2,0.4C32.5,20.9,31.1,22.4,28.3,24.2"/>
	<path class="st1" d="M43.5,34.8c-1.2,1.9-2.4,3.5-3.8,4.7s-2.6,1.8-3.6,1.8c-1.4,0-2.1-1.1-2.1-3.4c0-3.1,1-5.8,3.1-8.1
		c2.1-2.3,4.5-3.4,7.3-3.4c1.1,0,2,0.1,2.7,0.4C47,27,47,27.1,47,27.1L46.8,28c-0.1,0.6-0.2,0.9-0.2,1l-1,6.8l-0.1,1
		c-0.1,1-0.2,1.6-0.2,2c0,0.4,0.1,0.7,0.4,0.7c0.9,0,1.7-1,2.6-2.9c0.3,0.2,0.4,0.3,0.4,0.5c0,0.4-0.4,1.1-1.3,2.2
		c-1.2,1.5-2.3,2.2-3.4,2.2c-0.8,0-1.1-0.5-1.1-1.5c0-0.3,0-0.7,0.1-1.3l0.2-1.2l0.2-1.4L43.5,34.8z M44.4,28.7
		c-0.9-0.5-1.9-0.8-2.8-0.8c-1.4,0-2.7,0.9-3.6,2.6c-1,1.8-1.5,3.9-1.5,6.5c0,1.3,0.4,2,1.2,2c0.9,0,2-0.7,3.3-2.1
		c1.8-1.9,2.8-4.1,3.2-6.6L44.4,28.7z"/>
	<path class="st1" d="M55.2,40.5l2.1-1.8c0.8,0.9,1.8,1.3,3,1.3c1.5,0,2.2-0.7,2.2-2.2c0-0.8-0.7-1.9-2.1-3.3l-0.9-0.9
		c-1.3-1.4-1.9-2.4-1.9-3.3c0-1.2,0.5-2.2,1.6-3c1-0.8,2.3-1.2,3.8-1.2c0.8,0,1.7,0.2,2.7,0.5l-1.9,1.7c-0.8-0.6-1.7-0.9-2.6-0.9
		c-1.1,0-1.7,0.5-1.7,1.4c0,0.7,0.6,1.7,1.9,3l1,1c1.4,1.5,2.1,2.7,2.1,3.6c0,1.3-0.6,2.5-1.9,3.5c-1.2,1-2.7,1.5-4.3,1.5
		C57.3,41.4,56.2,41.1,55.2,40.5"/>
	<path class="st1" d="M77.2,36c0.3,0.2,0.4,0.4,0.4,0.6c0,0.3-0.3,0.9-1,1.6c-1.8,2-3.5,3.1-5.2,3.1c-1.1,0-1.9-0.4-2.6-1.3
		c-0.7-0.8-1-1.9-1-3.2c0-2.3,0.9-4.7,2.7-7.1c1.8-2.4,3.5-3.6,5.3-3.6c1.3,0,1.9,0.7,1.9,2c0,1.5-0.7,3-2.2,4.4
		c-1.5,1.4-3.2,2.4-5.3,3c0.2,2.5,1.2,3.7,2.9,3.7C74.7,39.4,76.1,38.3,77.2,36 M70.1,33.8c0.3,0.1,0.6,0.2,0.8,0.2
		c1.3,0,2.4-0.4,3.3-1.2c1-0.8,1.4-1.7,1.4-2.7c0-1.2-0.6-1.8-1.8-1.8c-0.9,0-1.7,0.5-2.4,1.6C70.7,30.8,70.3,32.2,70.1,33.8
		 M75.8,24.2c-1.3-0.8-2.3-2.3-3.1-4.4l1.3-1.3c0.9,2,2,3.4,3.2,4.2L75.8,24.2z"/>
	<path class="st1" d="M87.5,37.9c2.8-4,4.3-6.8,4.3-8.3c0-0.6-0.3-1.1-0.9-1.4l1.9-2c0.8,0.4,1.1,1,1.1,1.8c0,1-1,3-3,6
		c-0.4,0.6-0.7,1.1-0.9,1.4l-0.4,0.7L89,37.2c-0.4,0.6-0.8,1.3-1.2,2.1l-2.2,2.1c-0.4-3.3-1-6.3-1.9-9c-0.9-2.7-1.7-4.1-2.4-4.1
		c-0.8,0-1.3,0.8-1.6,2.3c-0.3-0.1-0.4-0.3-0.4-0.5c0-0.8,0.3-1.6,1-2.5c0.7-0.9,1.3-1.4,1.9-1.4C84.4,26,86.2,29.9,87.5,37.9"/>
	<path class="st1" d="M104.4,34.8c-1.2,1.9-2.4,3.5-3.8,4.7s-2.6,1.8-3.6,1.8c-1.4,0-2.1-1.1-2.1-3.4c0-3.1,1-5.8,3.1-8.1
		c2.1-2.3,4.5-3.4,7.3-3.4c1.1,0,2,0.1,2.7,0.4c-0.1,0.2-0.1,0.3-0.1,0.3l-0.2,0.8c-0.1,0.6-0.2,0.9-0.2,1l-1,6.8l-0.1,1
		c-0.1,1-0.2,1.6-0.2,2c0,0.4,0.1,0.7,0.4,0.7c0.9,0,1.7-1,2.6-2.9c0.3,0.2,0.4,0.3,0.4,0.5c0,0.4-0.4,1.1-1.3,2.2
		c-1.2,1.5-2.3,2.2-3.4,2.2c-0.8,0-1.1-0.5-1.1-1.5c0-0.3,0-0.7,0.1-1.3l0.2-1.2l0.2-1.4L104.4,34.8z M105.3,28.7
		c-0.9-0.5-1.9-0.8-2.8-0.8c-1.4,0-2.7,0.9-3.6,2.6c-1,1.8-1.5,3.9-1.5,6.5c0,1.3,0.4,2,1.2,2c0.9,0,2-0.7,3.3-2.1
		c1.8-1.9,2.8-4.1,3.2-6.6L105.3,28.7z"/>
</g>
</svg>
