<?xml version="1.0" encoding="UTF-8"?><svg id="Calque_2" xmlns="http://www.w3.org/2000/svg" width="233" height="83" viewBox="0 0 29.6871 10.571"><g id="Components"><g id="_690bda42-68df-4780-89ce-d17c7e386359_1"><polygon points="5.2147 .0195 4.851 .0195 4.851 4.7607 5.3446 4.7607 5.3446 2.5715 7.3125 2.5655 7.3125 2.1173 5.3446 2.1234 5.3446 .4612 7.436 .4612 7.436 .0195 5.3446 .0195 5.2147 .0195" style="fill:#123828; stroke-width:0px;"/><polygon points="8.9817 2.5719 11.0145 2.5719 11.0145 2.1303 8.9817 2.1303 8.9817 .4676 11.1639 .4676 11.1639 .0195 8.9817 .0195 8.8648 .0195 8.4881 .0195 8.4881 4.7607 8.8648 4.7607 8.9817 4.7607 11.2354 4.7607 11.2354 4.3126 8.9817 4.3126 8.9817 2.5719" style="fill:#123828; stroke-width:0px;"/><path d="m15.8922.7242c-.2079-.223-.4677-.3994-.7794-.5293-.3117-.1299-.6798-.1949-1.1041-.1949h-1.6043v4.7867h1.6043c.4286,0,.7998-.0682,1.1138-.2046.3139-.1364.5725-.3182.7761-.5455.2035-.2273.355-.4795.4546-.7567.0996-.2771.1494-.5563.1494-.8379v-.1234c0-.2858-.0498-.5672-.1494-.8443-.0996-.2771-.2533-.5271-.4611-.7501Zm-.013,2.4063c-.0823.2338-.2057.4406-.3702.6203-.1646.1797-.3669.3215-.6073.4254-.2403.1039-.5207.1559-.8411.1559h-1.1626V.4546h1.1626c.3161,0,.5943.0477.8346.1429.2403.0953.4427.2317.6073.4092.1645.1776.289.3832.3734.617.0844.2338.1267.4871.1267.7599,0,.2642-.0413.5131-.1234.7469Z" style="fill:#123828; stroke-width:0px;"/><polygon points="18.0614 2.5719 20.0943 2.5719 20.0943 2.1303 18.0614 2.1303 18.0614 .4676 20.2436 .4676 20.2436 .0195 18.0614 .0195 17.9445 .0195 17.5678 .0195 17.5678 4.7607 17.9445 4.7607 18.0614 4.7607 20.3151 4.7607 20.3151 4.3126 18.0614 4.3126 18.0614 2.5719" style="fill:#123828; stroke-width:0px;"/><polygon points="24.9849 4.3126 24.9069 4.3126 22.309 .0195 21.4842 .0195 21.4842 4.7607 21.9518 4.7607 21.9518 .4676 22.0298 .4676 24.6277 4.7607 25.459 4.7607 25.459 .0195 24.9849 .0195 24.9849 4.3126" style="fill:#123828; stroke-width:0px;"/><polygon points="27.4334 4.3126 27.4334 2.5719 29.4662 2.5719 29.4662 2.1303 27.4334 2.1303 27.4334 .4676 29.6156 .4676 29.6156 .0195 27.4334 .0195 27.3164 .0195 26.9397 .0195 26.9397 4.7607 27.3164 4.7607 27.4334 4.7607 29.6871 4.7607 29.6871 4.3126 27.4334 4.3126" style="fill:#123828; stroke-width:0px;"/><path d="m1.3732.0213C.6148.0213,0,.6362,0,1.3945v.7314h1.3219v-.782h2.1502V.0213H1.3732Z" style="fill:#ff6e69; stroke-width:0px;"/><path d="m1.322,3.4418c.7268,0,1.3159-.5891,1.3159-1.3159h-1.3159v1.3159Z" style="fill:#ff6e69; stroke-width:0px;"/><path d="m1.322,4.7577v-1.3159H.0062c0,.7268.5891,1.3159,1.3159,1.3159Z" style="fill:#ff6e69; stroke-width:0px;"/><path d="m4.8742,7.8469v-1.652h.2206v1.652h-.2206Zm.1373-.5942v-.1958h.4411c.069,0,.1283-.0143.1778-.0428.0495-.0285.0878-.0679.1148-.1182.027-.0502.0405-.1076.0405-.1722,0-.0645-.0135-.1219-.0405-.1722-.027-.0502-.0653-.09-.1148-.1193s-.1088-.0439-.1778-.0439h-.4411v-.1936h.4006c.12,0,.2251.018.3151.054.09.036.1598.0916.2093.1666.0495.075.0743.1718.0743.2903v.036c0,.1186-.0251.2153-.0754.2903-.0503.075-.1201.1306-.2093.1666-.0893.036-.1939.054-.314.054h-.4006Zm.8777.5942l-.5446-.7314h.2588l.5537.7314h-.2678Z" style="fill:#123828; stroke-width:0px;"/><path d="m6.9066,7.8874c-.105,0-.1958-.018-.2723-.0541-.0766-.036-.1388-.0836-.1868-.1429-.048-.0592-.0837-.1256-.1069-.1992-.0232-.0735-.0349-.1485-.0349-.225v-.0405c0-.078.0116-.1538.0349-.2273s.0589-.1399.1069-.1992c.048-.0592.1091-.1065.1834-.1418.0743-.0352.1617-.0529.2622-.0529.1306,0,.2382.0281.323.0844.0848.0562.1478.1287.1891.2172.0412.0885.0619.1831.0619.2836v.0968h-1.0668v-.1621h.9093l-.0495.0878c0-.0855-.0135-.1594-.0405-.2217-.027-.0622-.0675-.1106-.1215-.1452-.054-.0345-.1223-.0518-.2048-.0518-.0855,0-.1564.0195-.2127.0585-.0562.039-.0983.0922-.126.1598-.0278.0675-.0417.1456-.0417.2341,0,.0855.0139.1625.0417.2307.0277.0683.0709.1223.1294.162.0585.0398.1328.0597.2228.0597.0945,0,.1714-.021.2307-.063.0592-.042.0949-.0908.1069-.1463h.2025c-.0165.0825-.0495.1538-.099.2138s-.1118.1058-.1868.1373c-.075.0315-.1598.0473-.2543.0473Zm-.1238-1.4179l.198-.4457h.2273l-.2498.4457h-.1755Z" style="fill:#123828; stroke-width:0px;"/><path d="m8.1669,7.8829c-.1576,0-.2795-.0337-.3657-.1013-.0863-.0675-.131-.1598-.1339-.2768h.2026c.003.0465.0266.0904.0709.1316.0442.0413.1196.0619.2262.0619.096,0,.1695-.0191.2206-.0574.051-.0382.0765-.0851.0765-.1406,0-.0495-.0188-.0881-.0562-.1159s-.0983-.0461-.1823-.0552l-.1305-.0135c-.1141-.012-.2071-.0461-.2791-.1024-.072-.0563-.108-.1354-.108-.2375,0-.0765.0195-.1421.0585-.1969s.093-.0968.1621-.1261c.069-.0292.1485-.0439.2386-.0439.1351,0,.2445.0301.3286.09.084.0601.1275.1493.1305.2678h-.2025c-.0015-.048-.0236-.0889-.0664-.1227-.0428-.0337-.1062-.0506-.1902-.0506s-.1478.0173-.1913.0518c-.0436.0346-.0653.078-.0653.1306,0,.045.0154.081.0461.108s.0814.0443.152.0518l.1305.0135c.129.0135.2326.0492.3106.1069.078.0578.117.1392.117.2442,0,.075-.0214.1414-.0642.1992s-.1017.1028-.1767.135c-.075.0323-.1613.0484-.2588.0484Z" style="fill:#123828; stroke-width:0px;"/><path d="m9.4903,7.8874c-.105,0-.1958-.018-.2723-.0541-.0766-.036-.1388-.0836-.1868-.1429-.048-.0592-.0837-.1256-.1069-.1992-.0232-.0735-.0349-.1485-.0349-.225v-.0405c0-.078.0116-.1538.0349-.2273s.0589-.1399.1069-.1992c.048-.0592.1091-.1065.1834-.1418.0743-.0352.1617-.0529.2622-.0529.1306,0,.2382.0281.323.0844.0848.0562.1478.1287.1891.2172.0412.0885.0619.1831.0619.2836v.0968h-1.0668v-.1621h.9093l-.0495.0878c0-.0855-.0135-.1594-.0405-.2217-.027-.0622-.0675-.1106-.1215-.1452-.054-.0345-.1223-.0518-.2048-.0518-.0855,0-.1564.0195-.2127.0585-.0562.039-.0983.0922-.126.1598-.0278.0675-.0417.1456-.0417.2341,0,.0855.0139.1625.0417.2307.0277.0683.0709.1223.1294.162.0585.0398.1328.0597.2228.0597.0945,0,.1714-.021.2307-.063.0592-.042.0949-.0908.1069-.1463h.2025c-.0165.0825-.0495.1538-.099.2138s-.1118.1058-.1868.1373c-.075.0315-.1598.0473-.2543.0473Z" style="fill:#123828; stroke-width:0px;"/><path d="m10.6899,7.8784c-.09,0-.1676-.0154-.2329-.0461-.0653-.0307-.1156-.0754-.1508-.1339-.0353-.0585-.0529-.1291-.0529-.2116,0-.0855.0191-.1568.0574-.2138.0382-.057.0941-.1001.1677-.1294.0735-.0293.162-.0439.2656-.0439h.3263v.1621h-.3354c-.087,0-.1538.021-.2003.063-.0465.042-.0698.096-.0698.1621,0,.0661.0232.1193.0698.1598.0465.0405.1133.0607.2003.0607.051,0,.0998-.0093.1463-.0281.0465-.0187.0852-.0502.1159-.0945.0308-.0442.0476-.1054.0506-.1834l.0585.0855c-.0075.0855-.0281.1572-.0619.2149-.0337.0578-.0803.1017-.1396.1316-.0593.03-.1309.045-.2149.045Zm.3939-.0315v-.3601h-.036v-.4164c0-.0825-.0213-.1448-.0641-.1868-.0428-.042-.1054-.063-.1879-.063-.0465,0-.0945.0008-.144.0022-.0495.0015-.0968.003-.1418.0045s-.084.0038-.117.0067v-.1891c.033-.003.0679-.0056.1046-.0079s.0747-.0038.1137-.0045c.039-.0007.0765-.0011.1125-.0011.123,0,.2235.0146.3016.0439s.1358.0769.1733.1429c.0375.0661.0562.1553.0562.2678v.7607h-.171Z" style="fill:#123828; stroke-width:0px;"/><path d="m12.0673,7.8829c-.1426,0-.2521-.0465-.3286-.1395s-.1148-.2273-.1148-.4029v-.6977h.2161v.7405c0,.0945.0255.1685.0766.2217.051.0533.12.0799.207.0799.09,0,.1635-.0289.2206-.0866s.0855-.1369.0855-.2375v-.718h.2161v1.2041h-.171v-.5154h.027c0,.1185-.0158.2187-.0473.3004-.0315.0818-.0784.144-.1407.1868s-.1414.0641-.2375.0641h-.009Z" style="fill:#123828; stroke-width:0px;"/><path d="m12.9204,7.8469l.4299-.6324-.0068.045-.4029-.6145h.2386l.2903.4524h.0315l.2746-.4524h.2229l-.3804.5987.0067-.0405.4501.6437h-.2386l-.3376-.4884h-.0315l-.3241.4884h-.2228Z" style="fill:#123828; stroke-width:0px;"/><path d="m15.3398,7.8874c-.0855,0-.1643-.0158-.2363-.0473-.072-.0315-.1347-.0758-.1879-.1328-.0533-.057-.0945-.123-.1238-.198-.0293-.075-.0439-.1561-.0439-.2431v-.0405c0-.0855.0143-.1658.0428-.2408.0285-.075.0687-.141.1204-.198s.1132-.1017.1845-.1339c.0713-.0322.1504-.0484.2375-.0484.0915,0,.1748.0191.2499.0574.075.0382.1365.0979.1845.1789s.075.1861.0811.3151l-.09-.144v-.808h.2161v1.643h-.171v-.5334h.063c-.006.1365-.0345.2472-.0855.332-.051.0848-.1152.1463-.1924.1845-.0773.0383-.1602.0574-.2487.0574Zm.0292-.1891c.0735,0,.1403-.0165.2003-.0495s.1081-.0807.144-.1429c.036-.0623.054-.1354.054-.2194v-.1036c0-.0825-.0184-.1526-.0551-.2104s-.0855-.1021-.1463-.1328c-.0608-.0307-.1271-.0461-.1992-.0461-.0795,0-.1497.0188-.2104.0563-.0608.0375-.1081.09-.1418.1576s-.0506.1471-.0506.2386c0,.0916.0172.1714.0518.2397.0345.0683.0825.1208.144.1576s.1313.0551.2093.0551Z" style="fill:#123828; stroke-width:0px;"/><path d="m16.8995,7.8874c-.105,0-.1958-.018-.2723-.0541-.0766-.036-.1388-.0836-.1868-.1429-.048-.0592-.0837-.1256-.1069-.1992-.0232-.0735-.0349-.1485-.0349-.225v-.0405c0-.078.0116-.1538.0349-.2273s.0589-.1399.1069-.1992c.048-.0592.1091-.1065.1834-.1418.0743-.0352.1617-.0529.2622-.0529.1306,0,.2382.0281.323.0844.0848.0562.1478.1287.1891.2172.0412.0885.0619.1831.0619.2836v.0968h-1.0668v-.1621h.9093l-.0495.0878c0-.0855-.0135-.1594-.0405-.2217-.027-.0622-.0675-.1106-.1215-.1452-.054-.0345-.1223-.0518-.2048-.0518-.0855,0-.1564.0195-.2127.0585-.0562.039-.0983.0922-.126.1598-.0278.0675-.0417.1456-.0417.2341,0,.0855.0139.1625.0417.2307.0277.0683.0709.1223.1294.162.0585.0398.1328.0597.2228.0597.0945,0,.1714-.021.2307-.063.0592-.042.0949-.0908.1069-.1463h.2025c-.0165.0825-.0495.1538-.099.2138s-.1118.1058-.1868.1373c-.075.0315-.1598.0473-.2543.0473Z" style="fill:#123828; stroke-width:0px;"/><path d="m5.3581,10.571c-.1035,0-.1932-.018-.2689-.0541-.0758-.036-.1384-.0844-.1879-.1452-.0495-.0607-.0867-.1279-.1114-.2014-.0248-.0735-.0371-.147-.0371-.2206v-.0405c0-.0765.0124-.1515.0371-.225.0248-.0735.0623-.1399.1125-.1992.0502-.0592.1129-.1069.1879-.1429.075-.036.1628-.0541.2633-.0541s.1909.0188.2712.0563.1448.0904.1936.1586c.0487.0683.0762.1489.0822.2419h-.2071c-.0105-.075-.045-.1376-.1035-.1879-.0585-.0502-.1373-.0754-.2363-.0754-.0855,0-.1568.0195-.2138.0585-.057.039-.0998.0923-.1283.1598-.0285.0675-.0428.144-.0428.2296,0,.0825.0143.1579.0428.2262.0285.0683.0716.1223.1294.1621.0578.0398.1302.0597.2172.0597.0675,0,.126-.012.1755-.036.0495-.024.0893-.0562.1193-.0968s.048-.0863.0541-.1373h.207c-.0045.0945-.0319.1764-.0821.2454-.0503.069-.1163.1227-.198.1609-.0818.0383-.1737.0574-.2757.0574Z" style="fill:#123828; stroke-width:0px;"/><path d="m6.2066,10.5305v-1.643h.2161v.9812h-.0541c0-.1185.0154-.2209.0461-.3072s.0784-.1527.1429-.1992c.0645-.0465.147-.0698.2476-.0698h.009c.144,0,.2528.0477.3264.1429.0735.0953.1103.2315.1103.4085v.6865h-.2161v-.7314c0-.0976-.0274-.1733-.0821-.2273-.0548-.054-.1257-.081-.2127-.081-.096,0-.1729.0319-.2307.0957s-.0866.1474-.0866.2509v.6932h-.2161Z" style="fill:#123828; stroke-width:0px;"/><path d="m7.9801,10.562c-.09,0-.1676-.0154-.2329-.0461-.0653-.0307-.1156-.0754-.1508-.1339-.0353-.0585-.0529-.1291-.0529-.2116,0-.0855.0191-.1568.0574-.2138.0382-.057.0941-.1001.1677-.1294.0735-.0293.162-.0439.2656-.0439h.3263v.1621h-.3354c-.087,0-.1538.021-.2003.063-.0465.042-.0698.096-.0698.1621,0,.0661.0232.1193.0698.1598.0465.0405.1133.0607.2003.0607.051,0,.0998-.0093.1463-.0281.0465-.0187.0852-.0502.1159-.0945.0308-.0442.0476-.1054.0506-.1834l.0585.0855c-.0075.0855-.0281.1572-.0619.2149-.0337.0578-.0803.1017-.1396.1316-.0593.03-.1309.045-.2149.045Zm.3939-.0315v-.3601h-.036v-.4164c0-.0825-.0213-.1448-.0641-.1868-.0428-.042-.1054-.063-.1879-.063-.0465,0-.0945.0008-.144.0022-.0495.0015-.0968.003-.1418.0045s-.084.0038-.117.0067v-.1891c.033-.003.0679-.0056.1046-.0079s.0747-.0038.1137-.0045c.039-.0007.0765-.0011.1125-.0011.123,0,.2235.0146.3016.0439s.1358.0769.1733.1429c.0375.0661.0563.1553.0563.2678v.7607h-.171Z" style="fill:#123828; stroke-width:0px;"/><path d="m8.7881,9.0585v-.171h.3826v.171h-.3826Zm.1666,1.4719v-1.643h.2161v1.643h-.2161Z" style="fill:#123828; stroke-width:0px;"/><path d="m10.0957,10.571c-.105,0-.1958-.018-.2723-.0541-.0766-.036-.1388-.0836-.1868-.1429-.048-.0592-.0837-.1256-.1069-.1992-.0232-.0735-.0349-.1485-.0349-.225v-.0405c0-.078.0116-.1538.0349-.2273s.0589-.1399.1069-.1992c.048-.0592.1091-.1065.1834-.1418.0743-.0352.1617-.0529.2622-.0529.1306,0,.2382.0281.323.0844.0848.0562.1478.1287.1891.2172.0412.0885.0619.1831.0619.2836v.0968h-1.0668v-.1621h.9093l-.0495.0878c0-.0855-.0135-.1594-.0405-.2217-.027-.0622-.0675-.1106-.1215-.1452-.054-.0345-.1223-.0518-.2048-.0518-.0855,0-.1564.0195-.2127.0585-.0563.039-.0983.0922-.126.1598-.0278.0675-.0417.1456-.0417.2341,0,.0855.0139.1625.0417.2307.0277.0683.0709.1223.1294.162.0585.0398.1328.0597.2228.0597.0945,0,.1714-.021.2307-.063.0592-.042.0949-.0908.1069-.1463h.2025c-.0165.0825-.0495.1538-.099.2138s-.1118.1058-.1868.1373c-.075.0315-.1598.0473-.2543.0473Z" style="fill:#123828; stroke-width:0px;"/><path d="m11.3786,10.5665c-.1426,0-.2521-.0465-.3286-.1395s-.1148-.2273-.1148-.4029v-.6977h.2161v.7405c0,.0945.0255.1685.0766.2217.051.0533.12.0799.207.0799.09,0,.1635-.0289.2206-.0866s.0855-.1369.0855-.2375v-.718h.2161v1.2041h-.171v-.5154h.027c0,.1185-.0158.2187-.0473.3004-.0315.0818-.0784.144-.1407.1868s-.1414.0641-.2375.0641h-.009Z" style="fill:#123828; stroke-width:0px;"/><path d="m12.3756,10.5305v-1.2019h.171v.4952h-.009c0-.1756.0386-.3042.1159-.386.0773-.0817.1932-.1227.3478-.1227h.0405v.1936h-.0765c-.1201,0-.2123.0319-.2768.0957-.0646.0638-.0968.1557-.0968.2757v.6504h-.2161Z" style="fill:#123828; stroke-width:0px;"/><path d="m14.2549,10.571c-.1156,0-.2168-.0218-.3039-.0653s-.1545-.1027-.2025-.1778c-.048-.075-.072-.1583-.072-.2499v-.0337c0-.1081.0304-.2037.0912-.287.0607-.0833.1361-.1504.2262-.2015l.1125.1508c-.0661.033-.1197.0814-.1609.1452s-.0619.1339-.0619.2104c0,.0705.0168.1298.0506.1778.0337.048.0788.0844.135.1091.0563.0248.1182.0372.1857.0372.105,0,.1958-.0296.2723-.0889.0766-.0592.1354-.147.1767-.2633.0413-.1163.0619-.2607.0619-.4333h.1936c0,.15-.0154.2847-.0461.404-.0308.1193-.0762.2209-.1362.305-.0601.084-.1339.1485-.2217.1936-.0878.045-.1879.0675-.3005.0675Zm.5582-.0405l-.6774-.7225c-.069-.075-.1227-.1396-.1609-.1936-.0382-.054-.0652-.105-.081-.1531-.0158-.048-.0236-.0998-.0236-.1553,0-.0975.0184-.1786.0551-.2431s.0949-.1129.1745-.1452c.0795-.0323.1823-.0484.3083-.0484.0496,0,.105.0022.1666.0067s.1163.0098.1643.0158v.1891c-.03-.003-.069-.0064-.117-.0102-.048-.0037-.0953-.0067-.1418-.009-.0465-.0022-.0848-.0034-.1147-.0034-.1066,0-.1812.0214-.224.0641-.0427.0428-.0641.1055-.0641.1879,0,.0661.0153.1268.0461.1823.0307.0555.0791.1186.1452.1891l.799.8485h-.2543Zm-.3083-.9002v-.1711h.5897v.1711h-.5897Z" style="fill:#123828; stroke-width:0px;"/><path d="m15.738,9.5041v-.162h.754v.162h-.754Zm.1666,1.0263v-1.2626c0-.1335.0353-.2318.1058-.2948.0705-.063.1741-.0945.3106-.0945h.1485v.1801h-.1845c-.0555,0-.0983.0154-.1283.0461s-.045.0731-.045.1271v1.2986h-.2071Z" style="fill:#123828; stroke-width:0px;"/><path d="m16.7216,10.5305v-1.2019h.171v.4952h-.009c0-.1756.0386-.3042.1159-.386.0773-.0817.1932-.1227.3478-.1227h.0405v.1936h-.0765c-.1201,0-.2123.0319-.2768.0957-.0646.0638-.0968.1557-.0968.2757v.6504h-.2161Z" style="fill:#123828; stroke-width:0px;"/><path d="m18.1845,10.571c-.1051,0-.1973-.018-.2769-.0541-.0795-.036-.1467-.0836-.2014-.1429-.0548-.0592-.096-.1256-.1238-.1992-.0278-.0735-.0417-.1485-.0417-.225v-.0405c0-.0765.0143-.1519.0428-.2262.0285-.0743.0705-.141.126-.2003.0555-.0592.123-.1065.2025-.1418.0795-.0352.1703-.0529.2724-.0529s.1928.0177.2723.0529c.0795.0353.147.0826.2025.1418.0555.0593.0976.1261.1261.2003.0285.0743.0427.1497.0427.2262v.0405c0,.0765-.0139.1516-.0416.225-.0278.0735-.069.1399-.1238.1992-.0548.0593-.1219.1069-.2015.1429-.0795.036-.1718.0541-.2768.0541Zm0-.1936c.09,0,.1669-.0199.2307-.0597.0638-.0397.1125-.0934.1463-.1609.0338-.0675.0506-.1433.0506-.2273,0-.0855-.0172-.1621-.0518-.2296-.0345-.0675-.0836-.1208-.1474-.1598s-.1399-.0585-.2284-.0585c-.0871,0-.1628.0195-.2273.0585s-.114.0923-.1485.1598c-.0345.0675-.0518.144-.0518.2296,0,.084.0169.1598.0506.2273.0337.0675.0825.1212.1463.1609.0638.0398.1407.0597.2307.0597Z" style="fill:#123828; stroke-width:0px;"/><path d="m19.0262,9.4997v-.171h.4006v.171h-.4006Zm.2454-.3646c-.048,0-.0837-.0127-.1069-.0383-.0233-.0255-.0349-.0577-.0349-.0968,0-.039.0116-.0712.0349-.0968.0232-.0255.0589-.0382.1069-.0382.048,0,.0836.0127.1069.0382.0232.0255.0349.0578.0349.0968,0,.0391-.0116.0713-.0349.0968-.0233.0255-.0589.0383-.1069.0383Zm-.0608,1.3954v-1.2019h.2161v1.2019h-.2161Z" style="fill:#123828; stroke-width:0px;"/><path d="m20.3474,10.571c-.0855,0-.1643-.0158-.2363-.0473-.072-.0315-.1347-.0758-.1879-.1328-.0533-.057-.0945-.123-.1238-.198-.0293-.075-.0439-.1561-.0439-.2431v-.0405c0-.0855.0143-.1658.0428-.2408.0285-.075.0687-.141.1204-.198s.1132-.1017.1845-.1339c.0713-.0322.1504-.0484.2375-.0484.0915,0,.1748.0191.2499.0574.075.0382.1365.0979.1845.1789s.075.1861.0811.3151l-.09-.144v-.808h.2161v1.643h-.171v-.5334h.063c-.006.1365-.0345.2472-.0855.332-.051.0848-.1152.1463-.1924.1845-.0773.0383-.1602.0574-.2487.0574Zm.0292-.1891c.0735,0,.1403-.0165.2003-.0495s.1081-.0807.144-.1429c.036-.0623.054-.1354.054-.2194v-.1036c0-.0825-.0184-.1526-.0551-.2104s-.0855-.1021-.1463-.1328c-.0608-.0307-.1271-.0461-.1992-.0461-.0795,0-.1497.0188-.2104.0563-.0608.0375-.1081.09-.1418.1576s-.0506.1471-.0506.2386c0,.0916.0172.1714.0518.2397.0345.0683.0825.1208.144.1576s.1313.0551.2093.0551Z" style="fill:#123828; stroke-width:0px;"/></g></g></svg>