<?xml version="1.0" encoding="UTF-8" standalone="no"?>
<!-- Generator: Adobe Illustrator 25.3.1, SVG Export Plug-In . SVG Version: 6.00 Build 0)  -->

<svg
   version="1.1"
   id="Calque_1"
   x="0px"
   y="0px"
   viewBox="0 0 906.23346 186.48"
   xml:space="preserve"
   sodipodi:docname="logo-DRIEAT.svg"
   width="906.23346"
   height="186.48"
   inkscape:version="1.2 (dc2aeda, 2022-05-15)"
   xmlns:inkscape="http://www.inkscape.org/namespaces/inkscape"
   xmlns:sodipodi="http://sodipodi.sourceforge.net/DTD/sodipodi-0.dtd"
   xmlns="http://www.w3.org/2000/svg"
   xmlns:svg="http://www.w3.org/2000/svg"><defs
   id="defs95" /><sodipodi:namedview
   id="namedview93"
   pagecolor="#ffffff"
   bordercolor="#000000"
   borderopacity="0.25"
   inkscape:showpageshadow="2"
   inkscape:pageopacity="0.0"
   inkscape:pagecheckerboard="0"
   inkscape:deskcolor="#d1d1d1"
   showgrid="false"
   inkscape:zoom="0.472"
   inkscape:cx="472.45763"
   inkscape:cy="106.99153"
   inkscape:window-width="1440"
   inkscape:window-height="847"
   inkscape:window-x="0"
   inkscape:window-y="25"
   inkscape:window-maximized="1"
   inkscape:current-layer="Calque_1" />
<style
   type="text/css"
   id="style2">
	.st0{fill:#010202;}
	.st1{fill:#293173;}
	.st2{fill:#E10814;}
	.st3{fill:#9D9D9C;}
	.st4{fill:none;stroke:#000000;stroke-width:2;stroke-linecap:round;stroke-miterlimit:10;}
	.st5{fill:none;}
	.st6{fill:#030305;}
	.st7{font-family:'Marianne-Bold';}
	.st8{font-size:25px;}
</style>
<g
   id="g78"
   transform="translate(-27.54,-143.18)">
	<path
   class="st0"
   d="m 31.82,188.11 v 5.19 h 2.82 c 1.78,0 2.85,-0.95 2.85,-2.64 0,-1.57 -1.07,-2.55 -2.85,-2.55 z m -4.21,-3.59 h 6.85 c 4.57,0 7.35,2.34 7.35,6.2 0,3.83 -2.79,6.17 -7.35,6.17 h -2.64 v 8.39 h -4.21 z"
   id="path4" />
	<path
   class="st0"
   d="m 49.5,188.11 v 5.19 h 2.37 c 1.78,0 2.82,-0.95 2.82,-2.64 0,-1.57 -1.04,-2.55 -2.82,-2.55 z m -4.21,-3.59 h 6.35 c 4.57,0 7.38,2.34 7.38,6.2 0,2.49 -1.22,4.36 -3.32,5.37 l 6.52,9.19 h -5.04 l -5.52,-8.39 H 49.5 v 8.39 h -4.21 z"
   id="path6" />
	<path
   class="st0"
   d="m 68.92,182.74 3.35,-4 h 4.33 l -3.86,4 z m -4.09,1.78 h 12.1 v 3.59 h -7.89 v 4.8 h 6.7 v 3.59 h -6.7 v 5.19 h 7.89 v 3.59 h -12.1 z"
   id="path8" />
	<polygon
   class="st0"
   points="93.93,188.11 86.04,188.11 86.04,192.92 92.74,192.92 92.74,196.5 86.04,196.5 86.04,205.28 81.83,205.28 81.83,184.52 93.93,184.52 "
   id="polygon10" />
	<polygon
   class="st0"
   points="109.73,188.11 101.84,188.11 101.84,192.92 108.55,192.92 108.55,196.5 101.84,196.5 101.84,201.69 109.73,201.69 109.73,205.28 97.63,205.28 97.63,184.52 109.73,184.52 "
   id="polygon12" />
	<polygon
   class="st0"
   points="129.96,188.35 123.55,188.35 123.55,205.28 119.34,205.28 119.34,188.35 112.94,188.35 112.94,184.52 129.96,184.52 "
   id="polygon14" />
	<path
   class="st0"
   d="m 31.82,218.28 v 13.11 h 4 c 3.86,0 6.64,-2.88 6.64,-6.55 0,-3.71 -2.79,-6.55 -6.64,-6.55 h -4 z m -4.21,-3.82 h 8.16 c 6.58,0 11.03,4.77 11.03,10.38 0,5.6 -4.45,10.38 -11.03,10.38 h -8.16 z"
   id="path16" />
	<polygon
   class="st0"
   points="62.96,218.05 55.07,218.05 55.07,222.85 61.78,222.85 61.78,226.44 55.07,226.44 55.07,231.63 62.96,231.63 62.96,235.22 50.86,235.22 50.86,214.46 62.96,214.46 "
   id="polygon18" />
	<polygon
   class="st0"
   points="79.78,231.39 87.67,231.39 87.67,235.22 75.57,235.22 75.57,214.46 79.78,214.46 "
   id="polygon20" />
	<path
   class="st0"
   d="m 103.12,226.23 -2.85,-7.8 -2.85,7.8 z m -5.61,-11.77 h 5.52 l 7.86,20.76 h -4.48 l -1.99,-5.4 h -8.3 l -1.99,5.4 h -4.48 z"
   id="path22" />
	<path
   class="st0"
   d="m 126.01,218.05 v 5.19 h 2.37 c 1.78,0 2.82,-0.95 2.82,-2.64 0,-1.57 -1.04,-2.55 -2.82,-2.55 z m -4.21,-3.59 h 6.35 c 4.57,0 7.38,2.34 7.38,6.2 0,2.49 -1.22,4.36 -3.32,5.37 l 6.52,9.19 h -5.04 l -5.52,-8.39 H 126 v 8.39 h -4.21 v -20.76 z"
   id="path24" />
	<path
   class="st0"
   d="m 145.44,212.68 3.35,-4 h 4.33 l -3.86,4 z m -4.09,1.78 h 12.1 v 3.59 h -7.89 v 4.8 h 6.7 v 3.59 h -6.7 v 5.19 h 7.89 v 3.59 h -12.1 z"
   id="path26" />
	<path
   class="st0"
   d="m 172.25,230.06 v -3.5 h -5.28 v -3.83 h 9.49 v 8.84 c -1.93,2.58 -5.16,4.24 -9.05,4.24 -6.73,0 -11.33,-5.04 -11.33,-10.97 0,-5.93 4.48,-10.97 11.03,-10.97 3.77,0 6.85,1.69 8.75,4.21 l -3.32,2.58 c -1.19,-1.69 -3.05,-2.85 -5.43,-2.85 -3.91,0 -6.7,3.05 -6.7,7.03 0,3.97 2.94,7.03 7,7.03 1.96,0 3.65,-0.69 4.84,-1.81 z"
   id="path28" />
	<polygon
   class="st0"
   points="185.36,235.22 181.15,235.22 181.15,214.46 185.36,214.46 "
   id="polygon30" />
	<path
   class="st0"
   d="m 207.1,224.84 c 0,-3.97 -2.79,-7.03 -6.67,-7.03 -3.91,0 -6.7,3.05 -6.7,7.03 0,3.97 2.79,7.03 6.7,7.03 3.88,0 6.67,-3.06 6.67,-7.03 z m 4.33,0 c 0,5.93 -4.48,10.97 -11,10.97 -6.55,0 -11.03,-5.04 -11.03,-10.97 0,-5.93 4.48,-10.97 11.03,-10.97 6.52,-0.01 11,5.04 11,10.97 z"
   id="path32" />
	<polygon
   class="st0"
   points="230.14,229.32 230.14,214.46 234.35,214.46 234.35,235.22 228.96,235.22 219.67,220.3 219.67,235.22 215.46,235.22 215.46,214.46 220.86,214.46 "
   id="polygon34" />
	<path
   class="st0"
   d="m 31.82,248.22 v 13.11 h 4 c 3.86,0 6.64,-2.88 6.64,-6.55 0,-3.71 -2.79,-6.55 -6.64,-6.55 h -4 z m -4.21,-3.83 h 8.16 c 6.58,0 11.03,4.77 11.03,10.38 0,5.6 -4.45,10.38 -11.03,10.38 h -8.16 z"
   id="path36" />
	<polygon
   class="st0"
   points="55.07,244.39 51.63,252.93 48.13,252.93 50.8,244.39 "
   id="polygon38" />
	<path
   class="st0"
   d="m 58.34,244.39 h 4.21 v 20.76 h -4.21 z m -3.41,-1.78 3.38,-4 h 4.3 l 3.32,4 h -3.35 l -2.14,-2.22 -2.17,2.22 z"
   id="path40" />
	<polygon
   class="st0"
   points="72.57,261.33 80.46,261.33 80.46,265.15 68.36,265.15 68.36,244.39 72.57,244.39 "
   id="polygon42" />
	<polygon
   class="st0"
   points="96.27,247.98 88.38,247.98 88.38,252.79 95.08,252.79 95.08,256.37 88.38,256.37 88.38,261.56 96.27,261.56 96.27,265.15 84.17,265.15 84.17,244.39 96.27,244.39 "
   id="polygon44" />
	<polygon
   class="st0"
   points="98.7,259.4 98.7,255.75 106.71,255.75 106.71,259.4 "
   id="polygon46" />
	<path
   class="st0"
   d="m 114.27,248.22 v 13.11 h 4 c 3.86,0 6.64,-2.88 6.64,-6.55 0,-3.71 -2.79,-6.55 -6.64,-6.55 h -4 z m -4.21,-3.83 h 8.16 c 6.58,0 11.03,4.77 11.03,10.38 0,5.6 -4.45,10.38 -11.03,10.38 h -8.16 z"
   id="path48" />
	<polygon
   class="st0"
   points="145.41,247.98 137.52,247.98 137.52,252.79 144.23,252.79 144.23,256.37 137.52,256.37 137.52,261.56 145.41,261.56 145.41,265.15 133.31,265.15 133.31,244.39 145.41,244.39 "
   id="polygon50" />
	<polygon
   class="st0"
   points="147.84,259.4 147.84,255.75 155.85,255.75 155.85,259.4 "
   id="polygon52" />
	<polygon
   class="st0"
   points="171.3,247.98 163.41,247.98 163.41,252.79 170.12,252.79 170.12,256.37 163.41,256.37 163.41,265.15 159.2,265.15 159.2,244.39 171.3,244.39 "
   id="polygon54" />
	<path
   class="st0"
   d="m 179.22,247.98 v 5.19 h 2.37 c 1.78,0 2.82,-0.95 2.82,-2.64 0,-1.57 -1.04,-2.55 -2.82,-2.55 z m -4.21,-3.59 h 6.35 c 4.57,0 7.38,2.34 7.38,6.2 0,2.49 -1.22,4.36 -3.32,5.37 l 6.52,9.19 h -5.04 l -5.52,-8.39 h -2.16 v 8.39 h -4.21 z"
   id="path56" />
	<path
   class="st0"
   d="m 206.3,256.17 -2.85,-7.8 -2.85,7.8 z m -5.61,-11.78 h 5.52 l 7.86,20.76 h -4.48 l -1.99,-5.4 h -8.3 l -1.99,5.4 h -4.48 z"
   id="path58" />
	<polygon
   class="st0"
   points="231.95,259.25 231.95,244.39 236.16,244.39 236.16,265.15 230.77,265.15 221.48,250.23 221.48,265.15 217.27,265.15 217.27,244.39 222.67,244.39 "
   id="polygon60" />
	<path
   class="st0"
   d="m 256.66,258.95 3.32,2.55 c -1.9,2.58 -4.98,4.24 -8.75,4.24 -6.55,0 -11.03,-5.04 -11.03,-10.97 0,-5.93 4.48,-10.97 11.03,-10.97 3.77,0 6.85,1.69 8.75,4.21 l -3.32,2.58 c -1.19,-1.69 -3.05,-2.85 -5.43,-2.85 -3.91,0 -6.7,3.05 -6.7,7.03 0,3.97 2.79,7.03 6.7,7.03 2.37,0 4.24,-1.16 5.43,-2.85 z"
   id="path62" />
	<polygon
   class="st0"
   points="275.73,247.98 267.84,247.98 267.84,252.79 274.54,252.79 274.54,256.37 267.84,256.37 267.84,261.56 275.73,261.56 275.73,265.15 263.63,265.15 263.63,244.39 275.73,244.39 "
   id="polygon64" />
	<path
   class="st0"
   d="m 33.6,329.36 0.15,-0.47 c -2.02,-0.38 -2.28,-0.38 -1.48,-2.59 l 0.82,-2.27 h 2.24 c 1,0 1.02,0.41 0.87,1.51 h 0.58 l 1.34,-3.67 h -0.58 c -0.5,0.87 -0.9,1.51 -1.99,1.51 h -2.21 l 1.17,-3.21 c 0.37,-1.02 0.58,-1.23 1.95,-1.23 h 0.97 c 1.42,0 1.58,0.38 1.58,1.81 h 0.56 l 0.47,-2.5 h -8.4 l -0.15,0.47 c 1.63,0.33 1.78,0.49 1.02,2.59 l -1.83,4.99 c -0.76,2.09 -1.08,2.25 -2.95,2.59 l -0.14,0.47 z m 11.66,-6.12 c 0.29,-0.99 0.14,-1.86 -0.62,-1.86 -0.9,0 -1.13,0.68 -2.04,2.65 v -1.13 c 0,-0.81 -0.26,-1.52 -0.99,-1.52 -0.85,0 -1.63,1.32 -2.22,2.63 h 0.4 c 0.41,-0.59 0.79,-0.94 1.1,-0.94 0.37,0 0.56,0.56 0,1.81 l -1.64,3.65 c -0.3,0.68 0.02,1.13 0.68,1.13 0.41,0 0.59,-0.11 0.76,-0.55 l 1.61,-4.28 c 0.46,-0.56 0.87,-1.05 1.38,-1.6 h 1.58 z m 7.39,-2.21 -0.64,-0.05 -0.72,0.7 h -0.15 c -3.47,0 -6.47,3.9 -6.47,6.73 0,0.79 0.49,1.25 1.25,1.25 0.9,0 1.78,-1.28 2.77,-2.65 l -0.05,0.49 c -0.12,1.4 0.3,2.16 1.04,2.16 0.85,0 1.63,-1.32 2.22,-2.63 h -0.4 c -0.41,0.59 -0.79,0.94 -1.1,0.94 -0.32,0 -0.55,-0.58 0,-1.81 z m -6.41,6.26 c 0,-1.87 2.09,-4.41 3.26,-4.41 0.26,0 0.5,0.03 0.72,0.09 L 49,326.2 c -0.7,0.85 -1.78,1.89 -2.28,1.89 -0.29,0 -0.48,-0.24 -0.48,-0.8 m 7.69,-4.74 h 1.4 l -2.22,6.07 c -0.2,0.52 0.08,1.04 0.61,1.04 1.26,0 3.3,-1.25 4.02,-2.95 h -0.4 c -0.56,0.59 -1.64,1.38 -2.57,1.55 l 2.04,-5.71 h 2.09 l 0.26,-0.87 h -2.02 l 0.78,-2.19 H 57.1 l -1.45,2.19 -1.72,0.24 z m 9.94,4.17 h -0.52 c -0.65,0.78 -1.35,1.39 -2.06,1.39 -0.72,0 -1.08,-0.43 -1.08,-1.39 0,-0.4 0.05,-0.79 0.12,-1.16 l 4.22,-1.39 c 0.82,-1.95 -0.17,-2.8 -1.32,-2.8 -1.99,0 -4.26,3.33 -4.26,6.26 0,1.31 0.62,2.02 1.6,2.02 1.14,0.01 2.33,-1.1 3.3,-2.93 m -1.45,-4.21 c 0.56,0 1.05,0.43 0.79,1.51 l -2.62,0.61 c 0.46,-1.23 1.23,-2.12 1.83,-2.12 m 9.35,0.73 c 0.29,-0.99 0.14,-1.86 -0.62,-1.86 -0.9,0 -1.13,0.68 -2.04,2.65 v -1.13 c 0,-0.81 -0.26,-1.52 -0.99,-1.52 -0.85,0 -1.63,1.32 -2.22,2.63 h 0.4 c 0.41,-0.59 0.79,-0.94 1.1,-0.94 0.37,0 0.56,0.56 0,1.81 l -1.64,3.65 c -0.3,0.68 0.02,1.13 0.68,1.13 0.41,0 0.59,-0.11 0.76,-0.55 l 1.61,-4.28 c 0.46,-0.56 0.87,-1.05 1.39,-1.6 h 1.57 z m 0.03,5.29 c -0.3,0.68 0.02,1.13 0.69,1.13 0.41,0 0.59,-0.11 0.76,-0.55 l 1.61,-4.28 c 0.75,-0.91 2.28,-1.89 2.89,-1.89 0.44,0 0.38,0.37 0.09,0.91 l -2.48,4.76 c -0.24,0.47 0.08,1.04 0.61,1.04 1.22,0 2.66,-1.1 3.24,-2.63 h -0.4 c -0.4,0.56 -1.07,1.19 -1.69,1.29 L 79.25,324 c 0.27,-0.55 0.41,-1.07 0.41,-1.48 0,-0.7 -0.4,-1.16 -1.13,-1.16 -1.05,0 -2.12,1.19 -3.38,2.65 v -1.13 c 0,-0.81 -0.26,-1.52 -0.99,-1.52 -0.46,0 -0.9,0.4 -1.31,0.96 v 0.15 c 0.79,-0.05 1.14,1.14 0.58,2.39 z m 13.41,-9.31 c 0.55,0 1,-0.44 1,-1 0,-0.55 -0.46,-1 -1,-1 -0.56,0 -1,0.46 -1,1 -0.01,0.56 0.44,1 1,1 m -0.43,3.04 c 0.17,-0.56 -0.21,-0.88 -0.5,-0.88 -1.22,0 -2.66,1.1 -3.24,2.63 h 0.4 c 0.4,-0.56 1.07,-1.19 1.69,-1.29 l -2.33,6.06 c -0.21,0.56 0.21,0.88 0.5,0.88 1.16,0 2.51,-1.11 3.09,-2.63 h -0.4 c -0.4,0.56 -1.07,1.19 -1.69,1.29 z m 1.89,0.29 h 1.4 l -2.22,6.07 c -0.2,0.52 0.08,1.04 0.61,1.04 1.26,0 3.3,-1.25 4.02,-2.95 h -0.4 c -0.56,0.59 -1.64,1.38 -2.57,1.55 l 2.04,-5.71 h 2.09 l 0.26,-0.87 h -2.02 l 0.78,-2.19 h -0.81 l -1.45,2.19 -1.72,0.24 v 0.63 z m 9.1,-1.95 2.97,-2.77 v -0.32 h -1.6 l -1.83,3.09 z m 0.84,6.12 h -0.52 c -0.65,0.78 -1.35,1.39 -2.06,1.39 -0.72,0 -1.08,-0.43 -1.08,-1.39 0,-0.4 0.05,-0.79 0.12,-1.16 l 4.22,-1.39 c 0.82,-1.95 -0.17,-2.8 -1.32,-2.8 -1.99,0 -4.26,3.33 -4.26,6.26 0,1.31 0.62,2.02 1.6,2.02 1.14,0.01 2.33,-1.1 3.3,-2.93 m -1.45,-4.21 c 0.56,0 1.05,0.43 0.79,1.51 l -2.62,0.61 c 0.46,-1.23 1.22,-2.12 1.83,-2.12"
   id="path66" />
	<path
   class="st0"
   d="m 36.61,298.47 2.97,-2.04 v -0.32 h -1.8 l -1.64,2.36 z m -1.22,6.38 c 1,0 1.02,0.41 0.87,1.51 h 0.58 l 1.34,-3.67 H 37.6 c -0.5,0.87 -0.9,1.51 -1.99,1.51 H 33.4 l 1.11,-3.06 c 0.37,-1.02 0.58,-1.22 1.95,-1.22 h 0.97 c 1.42,0 1.58,0.38 1.58,1.8 h 0.56 l 0.47,-2.5 h -8.4 l -0.15,0.47 c 1.63,0.33 1.78,0.49 1.02,2.59 l -1.83,4.99 c -0.76,2.09 -1.08,2.25 -2.95,2.59 l -0.14,0.47 h 9.35 l 1.67,-2.65 h -0.64 c -1.07,1 -2.4,1.96 -4.28,1.96 -2.48,0 -2.25,-0.11 -1.43,-2.37 l 0.88,-2.42 z m 10.64,6.51 c 0,-0.97 -0.87,-1.32 -2.28,-1.75 -1.22,-0.37 -1.77,-0.47 -1.77,-0.87 0,-0.32 0.26,-0.7 0.78,-0.97 1.99,-0.11 3.29,-1.9 3.29,-3.41 0,-0.32 -0.06,-0.59 -0.17,-0.84 h 1.69 l 0.26,-0.87 h -2.68 c -0.32,-0.2 -0.7,-0.3 -1.08,-0.3 -2.12,0 -3.49,1.86 -3.49,3.36 0,1.14 0.73,1.86 1.61,2.02 -0.99,0.44 -1.54,0.96 -1.54,1.57 0,0.35 0.12,0.59 0.41,0.82 -2.28,0.67 -3.18,1.43 -3.18,2.51 0,1.05 1.39,1.49 3.03,1.49 2.79,0.01 5.12,-1.49 5.12,-2.76 m -3.3,-4.17 c -0.5,0 -0.7,-0.43 -0.7,-0.91 0,-1.35 0.73,-3.35 1.87,-3.35 0.5,0 0.7,0.43 0.7,0.91 0,1.36 -0.73,3.35 -1.87,3.35 m -3.15,4.92 c 0,-0.81 0.78,-1.31 1.89,-1.75 0.37,0.18 0.91,0.38 1.64,0.62 1.16,0.38 1.6,0.53 1.6,0.88 0,0.75 -1.26,1.31 -2.98,1.31 -1.45,0.01 -2.15,-0.3 -2.15,-1.06 M 55.07,302 l -0.64,-0.05 -0.72,0.7 h -0.15 c -3.47,0 -6.47,3.9 -6.47,6.73 0,0.79 0.49,1.25 1.25,1.25 0.9,0 1.78,-1.28 2.77,-2.65 l -0.05,0.49 c -0.12,1.4 0.3,2.16 1.03,2.16 0.85,0 1.63,-1.32 2.22,-2.63 h -0.4 c -0.41,0.59 -0.79,0.94 -1.1,0.94 -0.32,0 -0.55,-0.58 0,-1.81 z m -6.41,6.26 c 0,-1.87 2.09,-4.41 3.26,-4.41 0.26,0 0.5,0.03 0.72,0.09 l -1.22,3.24 c -0.7,0.85 -1.78,1.89 -2.28,1.89 -0.29,0 -0.48,-0.25 -0.48,-0.81 m 8.07,1.03 4.25,-11.13 -0.14,-0.16 -2.66,0.3 v 0.32 l 0.52,0.4 c 0.47,0.37 0.32,0.72 -0.11,1.84 l -3.32,8.74 c -0.24,0.47 0.08,1.04 0.61,1.04 1.22,0 2.51,-1.1 3.09,-2.63 h -0.4 c -0.39,0.55 -1.21,1.18 -1.84,1.28 m 8.1,-9.1 c 0.55,0 1,-0.44 1,-1 0,-0.55 -0.46,-1 -1,-1 -0.56,0 -1,0.46 -1,1 -0.01,0.56 0.44,1 1,1 m -0.43,3.05 c 0.17,-0.56 -0.21,-0.88 -0.5,-0.88 -1.22,0 -2.66,1.1 -3.24,2.63 h 0.4 c 0.4,-0.56 1.07,-1.19 1.69,-1.29 l -2.33,6.06 c -0.21,0.56 0.21,0.88 0.5,0.88 1.16,0 2.51,-1.11 3.09,-2.63 h -0.4 c -0.4,0.56 -1.07,1.19 -1.69,1.29 z m 1.89,0.29 h 1.4 l -2.22,6.07 c -0.2,0.52 0.08,1.04 0.61,1.04 1.26,0 3.3,-1.25 4.02,-2.95 h -0.4 c -0.56,0.59 -1.64,1.39 -2.57,1.55 l 2.04,-5.71 h 2.09 l 0.26,-0.87 H 69.5 l 0.78,-2.19 h -0.81 l -1.45,2.19 -1.72,0.24 v 0.63 z m 9.1,-1.95 2.97,-2.77 v -0.32 h -1.6 l -1.83,3.09 z m 0.84,6.12 h -0.52 c -0.65,0.78 -1.35,1.38 -2.05,1.38 -0.72,0 -1.08,-0.43 -1.08,-1.38 0,-0.4 0.05,-0.79 0.12,-1.16 l 4.22,-1.39 c 0.82,-1.95 -0.17,-2.8 -1.32,-2.8 -1.99,0 -4.26,3.33 -4.26,6.26 0,1.31 0.62,2.02 1.6,2.02 1.13,0 2.32,-1.11 3.29,-2.93 m -1.45,-4.22 c 0.56,0 1.05,0.43 0.79,1.51 l -2.62,0.61 c 0.46,-1.22 1.22,-2.12 1.83,-2.12"
   id="path68" />
	<path
   class="st0"
   d="m 37.16,280.19 h -5.54 l -0.15,0.47 c 1.63,0.33 1.78,0.49 1.02,2.59 l -1.8,4.99 c -0.76,2.09 -1.08,2.25 -2.95,2.59 l -0.14,0.47 h 8.43 l 1.83,-3.26 h -0.64 c -1.04,1.14 -2.25,2.57 -4.12,2.57 -1.42,0 -1.58,-0.24 -0.82,-2.37 l 1.8,-4.99 c 0.75,-2.08 1.08,-2.25 2.95,-2.59 z m 6.13,0.98 c 0.55,0 1,-0.44 1,-1 0,-0.55 -0.46,-1 -1,-1 -0.56,0 -1,0.46 -1,1 0,0.55 0.44,1 1,1 m -0.42,3.04 c 0.17,-0.56 -0.21,-0.88 -0.5,-0.88 -1.22,0 -2.66,1.1 -3.24,2.63 h 0.4 c 0.4,-0.56 1.07,-1.19 1.69,-1.29 l -2.33,6.06 c -0.21,0.56 0.21,0.88 0.5,0.88 1.16,0 2.51,-1.11 3.09,-2.63 h -0.4 c -0.4,0.56 -1.07,1.19 -1.69,1.29 z m 8.28,0.81 c 0,-1.23 -0.46,-1.69 -1.31,-1.69 -1.07,0 -2.07,1.13 -3.07,2.5 l 2.54,-6.68 -0.14,-0.17 -2.66,0.3 v 0.32 l 0.52,0.4 c 0.47,0.37 0.32,0.75 -0.11,1.84 l -2.74,7.06 c -0.2,0.52 -0.44,1.13 -0.44,1.29 0,0.73 0.99,1.42 1.89,1.42 2.06,0 5.52,-3.73 5.52,-6.59 m -4.8,5.35 c -0.41,0 -1,-0.38 -1,-0.72 0,-0.11 0.18,-0.58 0.41,-1.17 l 0.69,-1.81 c 0.73,-0.87 1.84,-1.8 2.47,-1.8 0.38,0 0.67,0.24 0.67,0.81 -0.01,1.67 -1.56,4.69 -3.24,4.69 m 10.34,-1.7 h -0.52 c -0.65,0.78 -1.35,1.39 -2.05,1.39 -0.72,0 -1.08,-0.43 -1.08,-1.39 0,-0.4 0.05,-0.79 0.12,-1.16 l 4.22,-1.39 c 0.82,-1.95 -0.17,-2.8 -1.32,-2.8 -1.99,0 -4.26,3.33 -4.26,6.26 0,1.31 0.62,2.02 1.6,2.02 1.12,0.01 2.31,-1.1 3.29,-2.93 m -1.45,-4.22 c 0.56,0 1.05,0.43 0.79,1.51 l -2.62,0.61 c 0.46,-1.22 1.22,-2.12 1.83,-2.12 m 9.35,0.73 c 0.29,-0.99 0.14,-1.86 -0.62,-1.86 -0.9,0 -1.13,0.69 -2.04,2.65 v -1.13 c 0,-0.81 -0.26,-1.52 -0.99,-1.52 -0.85,0 -1.63,1.32 -2.22,2.63 h 0.4 c 0.41,-0.59 0.79,-0.94 1.1,-0.94 0.37,0 0.56,0.56 0,1.81 l -1.64,3.65 c -0.3,0.68 0.02,1.13 0.69,1.13 0.41,0 0.59,-0.11 0.76,-0.55 l 1.61,-4.28 c 0.46,-0.56 0.87,-1.05 1.39,-1.6 h 1.56 z m 1.09,-0.68 h 1.11 l -2.22,6.07 c -0.2,0.52 0.08,1.03 0.61,1.03 1.26,0 3.3,-1.25 4.02,-2.95 h -0.4 c -0.56,0.59 -1.64,1.39 -2.57,1.55 l 2.04,-5.71 h 2.09 l 0.26,-0.87 H 68.6 l 0.78,-2.19 h -0.81 l -1.45,2.19 -1.43,0.24 v 0.64 z m 8.72,-1.95 2.97,-2.77 v -0.32 h -1.6 l -1.83,3.09 z m 0.84,6.12 h -0.52 c -0.65,0.78 -1.35,1.39 -2.05,1.39 -0.72,0 -1.08,-0.43 -1.08,-1.39 0,-0.4 0.05,-0.79 0.12,-1.16 l 4.22,-1.39 c 0.82,-1.95 -0.17,-2.8 -1.32,-2.8 -1.99,0 -4.26,3.33 -4.26,6.26 0,1.31 0.62,2.02 1.6,2.02 1.13,0.01 2.32,-1.1 3.29,-2.93 m -1.45,-4.22 c 0.56,0 1.05,0.43 0.79,1.51 l -2.62,0.61 c 0.46,-1.22 1.22,-2.12 1.83,-2.12"
   id="path70" />
	<path
   class="st1"
   d="m 49.77,162.93 c -0.05,-0.05 0.16,0 0.21,-0.1 -0.16,0 -0.26,0 -0.42,0 -0.05,0 -0.05,-0.05 -0.05,-0.1 -0.26,0.05 -0.57,0.16 -0.83,0.21 -0.36,0.1 -0.68,0.36 -1.09,0.47 -0.57,0.21 -1.04,0.68 -1.67,0.89 -0.05,0 -0.05,-0.05 -0.05,-0.1 0.05,-0.16 0.26,-0.21 0.36,-0.36 0,-0.05 0,-0.1 -0.05,-0.1 0.42,-0.57 0.99,-0.89 1.51,-1.35 0,-0.05 0,-0.1 0,-0.16 0.16,-0.21 0.42,-0.31 0.52,-0.57 0.05,-0.16 0.26,-0.36 0.52,-0.47 -0.05,-0.05 -0.16,-0.05 -0.16,-0.16 -0.21,0 -0.42,0.1 -0.63,-0.05 0.1,-0.1 0.21,-0.15 0.33,-0.19 -0.05,-0.01 -0.09,-0.03 -0.12,-0.08 -0.05,-0.1 0.1,-0.22 0.26,-0.26 0.21,-0.05 0.47,-0.05 0.63,-0.21 -0.36,-0.05 -0.78,0.1 -1.15,-0.1 0.26,-0.68 0.68,-1.25 1.3,-1.56 0.05,0 0.16,0 0.16,0.05 0,0.26 -0.16,0.47 -0.42,0.52 0.42,0.1 0.83,0.1 1.25,0.31 -0.05,0.1 -0.16,0.05 -0.21,0.05 0.26,0.16 0.57,0.05 0.83,0.26 -0.16,0.16 -0.31,0 -0.47,0 1.61,0.47 3.33,0.83 4.69,1.87 -1.15,0.57 -2.34,0.83 -3.59,1.09 -0.16,0 -0.26,0 -0.42,-0.05 0,0.05 0,0.16 -0.05,0.16 -0.21,0 -0.36,0 -0.52,0.1 -0.2,0.09 -0.51,0.14 -0.67,-0.01 z m -1.06,3.62 c 0,0 -0.01,0.01 -0.01,0.01 -0.2,0.14 -0.39,0.28 -0.59,0.4 -0.22,0.13 -0.46,0.23 -0.69,0.34 0,0 0,-0.01 -0.01,-0.01 -0.02,-0.02 -0.05,-0.04 -0.09,-0.02 -0.2,0.11 -0.37,0.25 -0.52,0.4 -0.02,0.02 -0.05,0.05 -0.07,0.07 0,0 0,0 0,0 0,0 0,0 0,0 -0.02,0.02 -0.05,0.05 -0.07,0.07 0,0 -0.01,0.01 -0.01,0.01 0,0 0,0 0,0 -0.04,0.04 -0.07,0.07 -0.11,0.12 -0.03,0.03 -0.03,0.05 -0.07,0.07 -0.03,0.02 -0.12,0.02 -0.11,-0.04 0,0 0,-0.01 0,-0.01 -0.03,0.02 -0.06,0.03 -0.09,0.05 -0.03,0.01 -0.05,0.03 -0.08,0.04 -0.01,0 -0.02,-0.01 -0.04,-0.01 -0.01,0 -0.03,0 -0.04,0.01 -0.06,0.05 -0.13,0.1 -0.19,0.16 -0.11,0.1 -0.21,0.21 -0.3,0.32 0,0 0,0 0,0 0,0 -0.01,0.01 -0.01,0.01 0,0.01 -0.01,0.01 -0.02,0.02 -0.01,0.01 -0.01,0.01 -0.02,0.02 0,0 0,0 -0.01,0.01 -0.01,0.02 -0.02,0.03 -0.04,0.05 0,0 0,0 0,0 -0.01,0.01 -0.02,0.02 -0.04,0.02 -0.01,-0.01 -0.01,-0.02 -0.02,-0.03 -0.01,-0.01 -0.01,-0.02 -0.01,-0.02 -0.02,-0.03 -0.03,-0.05 -0.04,-0.08 0,0 0,0 0,0 0,-0.01 -0.01,-0.02 -0.01,-0.03 0.06,-0.06 0.11,-0.12 0.16,-0.19 0,0 0.01,-0.01 0.01,-0.01 0.02,-0.02 0.04,-0.04 0.05,-0.07 0.03,-0.04 0.06,-0.07 0.09,-0.11 0.01,-0.01 0.02,-0.03 0.03,-0.04 0.06,-0.07 0.11,-0.15 0.16,-0.22 0,0 0,0 0,-0.01 0.01,-0.01 0.02,-0.02 0.02,-0.03 0.02,-0.04 0.05,-0.07 0.07,-0.11 0.02,-0.03 0.04,-0.07 0.06,-0.1 0,0 0,0 0,-0.01 0,0 0,-0.01 0.01,-0.01 0,-0.01 0.01,-0.01 0.01,-0.02 0.02,-0.04 0.03,-0.08 0.05,-0.12 0,0 0,-0.01 0,-0.01 0,-0.01 0.01,-0.02 0.01,-0.03 0.01,-0.02 0.01,-0.04 0.02,-0.06 v 0 c 0,0 0,-0.01 0,-0.01 0.01,-0.03 0.01,-0.05 0.02,-0.08 0,-0.01 0,-0.02 -0.01,-0.04 0.06,-0.1 0.13,-0.19 0.21,-0.28 -0.01,0 -0.02,0.01 -0.02,0.01 -0.07,0.05 -0.12,0.12 -0.19,0.17 -0.06,0.04 -0.16,-0.03 -0.09,-0.08 0.05,-0.03 0.08,-0.07 0.12,-0.11 0,0 0,-0.01 0.01,-0.01 0.09,-0.08 0.17,-0.19 0.27,-0.26 0.06,-0.04 0.11,-0.08 0.16,-0.12 0.01,-0.01 0.02,-0.01 0.02,-0.02 0.04,-0.05 0.08,-0.09 0.12,-0.13 0,0 0,0 0.01,-0.01 0.5,-0.48 1.34,-0.46 2,-0.77 0.26,-0.1 0.57,0.05 0.83,0 0.16,0 0.31,0 0.47,0.1 -0.51,0.28 -0.95,0.57 -1.37,0.84 z m 0.93,0.43 c -0.02,0.06 -0.08,0.11 -0.13,0.15 0.07,0.01 0.11,0.04 0.07,0.08 -0.12,0.11 -0.24,0.22 -0.39,0.28 -0.01,0 -0.04,0.01 -0.08,0.01 -0.06,0.06 -0.13,0.12 -0.19,0.18 -0.06,0.05 -0.35,0.02 -0.26,-0.06 0.13,-0.12 0.25,-0.24 0.39,-0.36 0.07,-0.07 0.15,-0.13 0.22,-0.21 0.04,-0.04 0.07,-0.08 0.11,-0.12 0.03,-0.03 0.3,-0.05 0.26,0.05 z m -2.42,-7.81 c -0.05,0.1 -0.11,0.12 -0.16,0.21 -0.05,0.1 -0.1,0.16 -0.21,0.21 -0.05,0 -0.1,0 -0.1,-0.05 0.05,-0.21 0.21,-0.42 0.42,-0.47 0.05,0 0.05,0.05 0.05,0.1 z m -4.32,3.44 c 0,0 -0.05,-0.05 -0.05,-0.1 0.68,-0.89 1.2,-1.72 1.67,-2.66 0.68,-0.36 1.24,-0.9 1.77,-1.46 0.89,-0.94 1.82,-1.77 2.92,-2.29 0.42,-0.16 0.94,-0.1 1.35,0.05 -0.16,0.21 -0.42,0.16 -0.63,0.31 -0.05,0 -0.1,0 -0.16,-0.05 0.05,-0.05 0.05,-0.1 0.05,-0.16 -0.52,0.57 -1.25,0.83 -1.67,1.51 -0.31,0.52 -0.52,1.2 -1.2,1.35 -0.21,0.05 0.05,-0.16 -0.05,-0.1 -1.61,1 -2.75,2.2 -4,3.6 z m 7.97,1.15 c -0.1,0 -0.31,0.05 -0.26,-0.05 0.05,-0.26 0.42,-0.26 0.62,-0.36 0.1,-0.05 0.26,-0.16 0.36,-0.1 0.1,0.16 0.26,0.1 0.36,0.21 -0.3,0.3 -0.72,0.14 -1.08,0.3 z m 8.01,3.73 c 0.3,-0.3 0.59,-0.61 0.89,-0.93 h -0.01 c 0.55,-0.63 1.1,-1.22 1.74,-1.77 0.2,-0.17 0.39,-0.33 0.57,-0.45 0.05,-0.05 0.05,-0.16 0.1,-0.21 -0.26,0.1 -0.42,0.31 -0.68,0.42 -0.05,0 -0.1,-0.05 -0.05,-0.1 0.19,-0.14 0.37,-0.28 0.56,-0.42 -0.01,0 -0.02,0 -0.04,0 -0.05,0 -0.05,-0.05 -0.05,-0.1 -0.68,-0.1 -1.2,0.36 -1.67,0.78 -0.1,0.05 -0.21,-0.05 -0.26,-0.05 -0.78,0.26 -1.35,0.94 -2.14,1.25 0,-0.05 0,-0.05 0,-0.1 -0.31,0.1 -0.62,0.29 -0.94,0.36 -0.47,0.1 -0.89,0.05 -1.3,0.05 -0.63,0.06 -1.26,0.2 -1.89,0.34 -0.02,0 -0.04,0.01 -0.05,0.01 -0.34,0.09 -0.66,0.22 -0.97,0.39 -0.01,0.01 -0.02,0.01 -0.04,0.02 -0.03,0.03 -0.05,0.06 -0.08,0.09 -0.11,0.12 -0.21,0.24 -0.36,0.31 -0.32,0.16 -0.58,0.45 -0.86,0.68 -0.02,0.02 -0.05,0.02 -0.08,0.03 -0.28,0.27 -0.56,0.54 -0.84,0.8 -0.02,0.02 -0.1,0.03 -0.16,0.02 0,0 0,0 0,0 0.01,-0.02 0.02,-0.03 0.03,-0.05 0.04,-0.07 0.09,-0.15 0.13,-0.22 0.05,-0.08 0.1,-0.16 0.15,-0.24 0.07,-0.11 0.14,-0.21 0.22,-0.32 0.02,-0.03 0.01,-0.05 0,-0.07 -0.02,-0.02 -0.04,-0.03 -0.07,-0.03 0.26,-0.25 0.57,-0.47 0.87,-0.65 0,0 0,-0.01 0,-0.01 -0.03,0.01 -0.09,-0.02 -0.06,-0.05 0.03,-0.05 0.06,-0.1 0.09,-0.14 0.01,-0.02 0.01,-0.03 0.02,-0.05 -0.01,-0.01 -0.03,-0.03 -0.04,-0.04 -0.08,0.05 -0.17,0.11 -0.24,0.17 -0.12,0.11 -0.22,0.34 -0.41,0.34 -0.01,0 -0.05,0 -0.08,-0.01 -0.02,0 -0.04,-0.01 -0.05,-0.02 0,0 0,-0.01 0.01,-0.01 0,0 0.01,-0.01 0.01,-0.01 0,0 0,-0.01 0.01,-0.01 0.01,-0.01 0.02,-0.03 0.02,-0.04 0.01,-0.02 0.02,-0.03 0.02,-0.05 0.01,-0.01 0.01,-0.02 0.02,-0.04 0.01,-0.02 0.02,-0.04 0.04,-0.07 0.01,-0.02 0.02,-0.03 0.03,-0.05 0.02,-0.04 0.04,-0.08 0.07,-0.12 0.01,-0.02 0.02,-0.04 0.03,-0.06 0.02,-0.03 0.04,-0.06 0.06,-0.09 0.03,-0.04 0,-0.08 -0.04,-0.09 0.1,-0.13 0.21,-0.23 0.36,-0.31 h -0.02 c 0.2,-0.1 0.4,-0.22 0.6,-0.33 0.03,-0.02 0.06,-0.05 0.09,-0.07 -0.3,0.1 -0.56,0.24 -0.83,0.41 0,0 -0.07,0.03 -0.09,0.05 0,0 -0.06,0.02 -0.13,-0.05 -0.01,-0.01 -0.01,-0.02 -0.01,-0.04 0.05,-0.1 0.21,-0.16 0.31,-0.26 0.05,0 0.1,0 0.1,0.05 1.67,-1.3 3.96,-0.99 5.89,-1.67 0.16,-0.1 0.31,-0.21 0.47,-0.31 0.26,-0.1 0.47,-0.36 0.78,-0.52 0.42,-0.31 0.73,-0.68 0.89,-1.2 0,-0.05 -0.05,-0.1 -0.05,-0.1 -0.68,0.73 -1.46,1.3 -2.29,1.72 -1.09,0.57 -2.29,0.47 -3.44,0.62 0.05,-0.1 0.16,-0.1 0.26,-0.1 0,-0.16 0.1,-0.21 0.21,-0.31 0.05,0 0.1,0 0.16,0 0.05,0 0.05,-0.1 0.1,-0.1 0.1,0 0.26,-0.05 0.21,-0.05 -0.16,-0.21 -0.47,0.16 -0.73,0 0.1,-0.1 0.05,-0.26 0.16,-0.31 0.05,0 0.16,0 0.21,0 0,-0.1 0.1,-0.21 0.1,-0.21 0.78,-0.47 1.51,-0.83 2.24,-1.25 -0.16,0 -0.26,0.16 -0.42,0.05 0.1,0 0,-0.16 0.1,-0.16 0.57,-0.16 1.04,-0.47 1.61,-0.68 -0.21,0 -0.36,0.16 -0.57,0 0.1,-0.05 0.16,-0.16 0.31,-0.16 0,-0.05 0,-0.1 0,-0.16 0,-0.05 0.05,-0.05 0.1,-0.05 -0.05,0 -0.1,-0.05 -0.1,-0.05 0.05,-0.1 0.21,-0.05 0.31,-0.16 -0.05,0 -0.16,0 -0.16,-0.05 0.16,-0.21 0.42,-0.26 0.68,-0.31 -0.05,-0.1 -0.21,0 -0.21,-0.1 0,-0.05 0.05,-0.05 0.1,-0.05 -0.05,0 -0.05,0 -0.1,0 -0.1,-0.05 -0.05,-0.16 -0.05,-0.21 0.31,-0.36 0.31,-0.83 0.47,-1.25 -0.05,0 -0.1,0 -0.1,-0.05 -0.52,0.57 -1.35,0.78 -2.14,0.99 -0.05,0 -0.21,0 -0.26,0 -0.26,0.1 -0.63,0.1 -0.89,-0.05 -0.21,-0.1 -0.31,-0.26 -0.52,-0.42 -0.42,-0.26 -0.83,-0.47 -1.3,-0.62 -1.3,-0.42 -2.66,-0.63 -4.01,-0.57 0.57,-0.31 1.21,-0.34 1.82,-0.52 0.89,-0.26 1.72,-0.57 2.66,-0.52 -0.16,-0.05 -0.36,0 -0.52,0 -0.73,-0.05 -1.46,0.16 -2.24,0.31 -0.52,0.1 -0.99,0.31 -1.51,0.42 -0.31,0.1 -0.47,0.42 -0.83,0.36 0,0 0,-0.1 0,-0.16 0.52,-0.62 1.15,-1.25 1.98,-1.3 0.94,-0.16 1.82,0 2.76,0.1 0.68,0.05 1.3,0.21 1.98,0.36 0.26,0 0.31,0.42 0.52,0.47 0.31,0.1 0.62,0 0.94,0.21 0,-0.1 -0.05,-0.21 0,-0.31 0.21,-0.21 0.47,0.05 0.68,-0.05 0.42,-0.26 -0.36,-0.73 -0.57,-1.09 0,-0.05 0.05,-0.1 0.05,-0.1 0.42,0.36 0.73,0.78 1.25,1.04 0.26,0.1 0.89,0.26 0.78,-0.05 -0.26,-0.57 -0.78,-1.04 -1.2,-1.56 0,-0.05 0,-0.16 0,-0.21 -0.1,0 -0.1,-0.05 -0.16,-0.1 0,-0.05 0,-0.16 0,-0.21 -0.21,-0.1 -0.16,-0.31 -0.26,-0.47 -0.16,-0.26 -0.05,-0.62 -0.16,-0.94 -0.1,-0.31 -0.16,-0.57 -0.21,-0.89 -0.16,-0.89 -0.36,-1.67 -0.47,-2.5 -0.1,-0.99 0.57,-1.77 1.04,-2.66 0.36,-0.63 0.78,-1.25 1.46,-1.67 0.16,-0.63 0.57,-1.15 0.99,-1.67 0.42,-0.51 1.11,-0.82 1.61,-1.04 0.73,-0.33 1.38,-0.53 1.38,-0.53 H 27.54 v 27.57 h 25.32 c 0.99,-0.71 1.98,-1.05 3.37,-1.74 0.65,-0.35 2.14,-1.03 2.65,-1.54 z"
   id="path72" />
	<path
   class="st2"
   d="M 103.35,143.18 H 73.69 c 0,0 0.06,0.01 0.28,0.13 0.24,0.13 0.55,0.3 0.75,0.4 0.38,0.2 0.75,0.45 0.99,0.83 0.1,0.16 0.26,0.47 0.16,0.68 -0.1,0.26 -0.16,0.68 -0.42,0.78 -0.31,0.16 -0.73,0.16 -1.09,0.1 -0.21,0 -0.42,-0.05 -0.62,-0.1 0.78,0.31 1.51,0.68 2.03,1.41 0.05,0.1 0.26,0.16 0.47,0.16 0.05,0 0.05,0.1 0.05,0.16 -0.1,0.1 -0.21,0.16 -0.16,0.31 0.05,0 0.1,0 0.16,0 0.26,-0.1 0.21,-0.62 0.57,-0.47 0.26,0.16 0.36,0.52 0.21,0.78 -0.21,0.21 -0.42,0.36 -0.63,0.52 -0.05,0.1 -0.05,0.26 0,0.36 0.16,0.21 0.21,0.42 0.26,0.63 0.16,0.36 0.21,0.78 0.36,1.15 0.21,0.78 0.42,1.56 0.36,2.34 0,0.42 -0.21,0.78 -0.05,1.2 0.1,0.42 0.36,0.73 0.57,1.09 0.21,0.31 0.42,0.52 0.57,0.83 0.31,0.52 0.89,1.04 0.63,1.67 -0.16,0.36 -0.73,0.31 -1.09,0.52 -0.31,0.26 -0.05,0.68 0.1,0.94 0.26,0.47 -0.31,0.78 -0.68,0.94 0.1,0.16 0.31,0.1 0.36,0.21 0.05,0.26 0.31,0.42 0.16,0.68 -0.21,0.31 -0.83,0.47 -0.52,0.94 0.21,0.36 0.07,0.77 -0.05,1.15 -0.16,0.47 -0.57,0.68 -0.94,0.78 -0.31,0.1 -0.68,0.1 -0.99,0.05 -0.1,-0.05 -0.21,-0.1 -0.31,-0.1 -0.89,-0.1 -1.77,-0.36 -2.66,-0.36 -0.26,0.05 -0.52,0.1 -0.73,0.21 -0.24,0.17 -0.45,0.36 -0.63,0.56 0,0 0,0 -0.01,0.01 -0.04,0.04 -0.08,0.08 -0.11,0.13 -0.02,0.03 -0.05,0.05 -0.07,0.08 -0.01,0.02 -0.03,0.04 -0.04,0.05 -0.15,0.19 -0.29,0.39 -0.41,0.6 -0.01,0.01 -0.02,0.03 -0.02,0.04 -0.01,0.02 -0.03,0.05 -0.04,0.07 -0.17,0.32 -0.3,0.64 -0.39,0.96 -0.35,1.19 -0.2,2.22 0.05,2.46 0.07,0.07 1.72,0.58 2.87,1.09 0.54,0.24 0.92,0.42 1.23,0.62 h 29.12 v -27.59 z"
   id="path74" />
	<path
   class="st3"
   d="m 75.46,153.23 c 0.21,0.05 0.52,0.05 0.52,0.16 -0.1,0.42 -0.73,0.52 -1.04,0.94 h -0.16 c -0.16,0.1 -0.1,0.36 -0.26,0.36 -0.16,-0.05 -0.31,0 -0.47,0.05 0.21,0.21 0.47,0.36 0.78,0.31 0.05,0 0.16,0.1 0.16,0.21 0,0 0.05,0 0.1,-0.05 0.05,0 0.1,0 0.1,0.05 v 0.21 c -0.16,0.21 -0.42,0.1 -0.63,0.16 0.42,0.1 0.83,0.1 1.2,0 0.31,-0.1 0,-0.63 0.21,-0.89 -0.1,0 0,-0.16 -0.1,-0.16 0.1,-0.1 0.21,-0.26 0.31,-0.31 0.1,0 0.26,-0.05 0.31,-0.16 0,-0.1 -0.21,-0.16 -0.16,-0.26 0.31,-0.21 0.57,-0.52 0.47,-0.83 -0.05,-0.16 -0.47,-0.16 -0.73,-0.26 -0.26,-0.1 -0.57,0 -0.89,0.05 -0.26,0 -0.52,0.16 -0.78,0.21 -0.36,0.1 -0.68,0.31 -0.99,0.52 0.36,-0.16 0.73,-0.21 1.15,-0.31 0.32,0 0.59,-0.08 0.9,0 z"
   id="path76" />
</g>
<line
   class="st4"
   x1="323.56998"
   y1="41.599998"
   x2="323.56998"
   y2="123.82"
   id="line80" />
<rect
   x="371.95999"
   y="41.599998"
   class="st5"
   width="570.23999"
   height="82.220001"
   id="rect82" />
<text
   id="text90"
   x="371.95609"
   y="60.354198"><tspan
     x="371.95609"
     y="60.354198"
     class="st6 st7 st8"
     id="tspan84">Direction régionale et interdépartementale</tspan><tspan
     x="371.95609"
     y="90.354202"
     class="st6 st7 st8"
     id="tspan86">de l'environnement, de l'aménagement </tspan><tspan
     x="371.95609"
     y="120.3542"
     class="st6 st7 st8"
     id="tspan88">et des transports d'Île-de-France</tspan></text>
</svg>
