<?xml version="1.0" encoding="utf-8"?>
<!-- Generator: Adobe Illustrator 27.9.0, SVG Export Plug-In . SVG Version: 6.00 Build 0)  -->
<svg version="1.1" id="Calque_1" xmlns="http://www.w3.org/2000/svg" xmlns:xlink="http://www.w3.org/1999/xlink" x="0px" y="0px"
	 viewBox="0 0 1417.3 842" style="enable-background:new 0 0 1417.3 842;" xml:space="preserve">
<style type="text/css">
	.st0{fill-rule:evenodd;clip-rule:evenodd;fill:#EDEDED;}
	.st1{fill-rule:evenodd;clip-rule:evenodd;fill:#DC2F34;}
	.st2{fill-rule:evenodd;clip-rule:evenodd;fill:#004A93;}
	.st3{fill-rule:evenodd;clip-rule:evenodd;fill:#00ABE7;}
	.st4{fill-rule:evenodd;clip-rule:evenodd;fill:#FFDF00;}
	.st5{fill-rule:evenodd;clip-rule:evenodd;fill:#52AE32;}
</style>
<g>
	<g>
		<polygon class="st0" points="313.5,344.3 395.8,329.8 389,291.5 268.4,312.7 289.5,433.4 327.9,426.6 		"/>
		<polygon class="st0" points="542.8,304.1 557.2,386.4 595.5,379.6 574.4,259 453.6,280.1 460.4,318.5 		"/>
		<polygon class="st0" points="583,533.4 500.7,547.8 507.4,586.1 628.1,565 606.9,444.2 568.5,451 		"/>
		<polygon class="st0" points="353.7,573.6 339.2,491.2 300.9,498 322.1,618.7 442.8,597.5 436,559.1 		"/>
	</g>
	<polygon class="st1" points="334.1,314.9 416.5,300.4 409.7,262 289.1,283.2 310.2,403.9 348.6,397.2 	"/>
	<polygon class="st2" points="563.4,274.5 577.9,356.9 616.2,350.2 595,229.5 474.3,250.7 481.1,289 	"/>
	<polygon class="st3" points="603.7,503.8 521.3,518.3 528.1,556.7 648.7,535.4 627.6,414.8 589.2,421.5 	"/>
	<polygon class="st4" points="374.4,544.1 359.9,461.8 321.6,468.5 342.8,589.2 463.5,568 456.7,529.6 	"/>
	<g>
		<path d="M776.8,317.9c-5.7,15.2-22.2,32.8-47.2,37.3c-34.2,6-66.6-15.1-72.9-51s16.9-66.7,51.2-72.7c25.5-4.3,46.2,7.6,57.4,19.6
			l-5.7,1c-5.7-5.5-24.4-20.7-51-16.2c-31.6,5.5-52.9,34.4-47.1,67.5c5.8,33.1,35.6,53,67.3,47.5c27.9-4.9,39.9-26.6,42.5-32
			L776.8,317.9z"/>
		<path d="M790.8,271l0.3-0.1c3.2-13.3,17.5-22.6,31.1-24.6c11-2,20.6-0.6,28.3,3.8c9.6,5.7,15.7,16.4,18.4,31.8l8,45.2l-4.5,0.8
			l-8-45.2c-2.6-14.8-8.3-23.7-15.8-28.4c-7.7-4.8-16.9-5.3-25.6-3.8c-21.4,4.1-32.5,18.9-28.7,40.3l8.6,49.3l-4.5,0.8l-21-119.5
			l4.5-0.8L790.8,271z"/>
		<path d="M983.8,308.3l-4.5,0.8l-3.8-21.3l-0.3,0.1c-4.9,15.8-17.5,27.2-35.6,30.4c-28.1,4.9-48.9-13.9-52.9-36.9
			c-4.1-23.6,9.6-47.9,37.1-52.8c20.7-3.6,37.8,6.5,44,16.9l0.3-0.1l-3.8-21.8l4.5-0.8L983.8,308.3z M972.3,266.2
			c-4.1-23.4-24.7-37.6-47.7-33.6c-22.3,3.9-37.6,23.7-33.4,47.8c3.6,19.3,20.6,38.4,48.1,33.5C962.9,309.8,976.2,288.4,972.3,266.2
			z"/>
		<path d="M999.6,233.3l0.3-0.1c4.9-17.5,19.4-21,26.8-22.9l0.7,4.4c-5.1,1.1-10.9,2.4-17.7,9.2c-8.6,11-8.1,21.2-6,33l8.2,46.3
			l-4.5,0.8l-15-85.5l4.5-0.8L999.6,233.3z"/>
		<path d="M1060.6,294.8l-4.5,0.8l-21-119.5l4.5-0.8L1060.6,294.8z"/>
		<path d="M1073.7,248.9c5.3,27.9,30.8,36.2,47.6,33.1c15.8-2.8,28.3-13.3,32.5-29l5-0.9c-4.7,19.6-19.6,31.3-36.9,34.1
			c-26.2,4.6-48.5-11.5-52.9-36.9v0.1c-4.5-25.7,11.8-48.5,37.3-53c22.9-4,46.7,8.8,52.4,35.1l0.3,2.4L1073.7,248.9z M1153.7,230.5
			c-4.6-20.5-26.8-34.2-46.7-29.9c-21.2,3.7-36.4,22.2-33.8,44.1L1153.7,230.5z"/>
		<path d="M1155.4,189.9l4.7-0.8l47.5,74.4l18.9-86l5.2-0.9l-20.2,91.8l-5.8,1L1155.4,189.9z"/>
		<path d="M1244.6,154.5l-4.5,0.8l-2.6-14.7l4.5-0.8L1244.6,154.5z M1263,259.2l-4.5,0.8l-15-85.6l4.5-0.8L1263,259.2z"/>
		<path d="M1291.1,254.3l-4.5,0.8l-21-119.5l4.5-0.8L1291.1,254.3z"/>
		<path d="M1319,249.4l-4.5,0.8l-21-119.5l4.5-0.8L1319,249.4z"/>
		<path d="M1332.1,203.5c5.3,27.9,30.8,36.2,47.6,33.1c15.8-2.8,28.3-13.3,32.5-29l5-0.9c-4.7,19.6-19.6,31.3-36.9,34.1
			c-26.2,4.6-48.5-11.5-52.9-36.9v0.1c-4.5-25.7,11.8-48.5,37.3-53c22.9-4,46.7,8.8,52.4,35.1l0.3,2.4L1332.1,203.5z M1412.1,185.2
			c-4.6-20.5-26.8-34.2-46.7-29.9c-21.2,3.7-36.4,22.2-33.8,44.1L1412.1,185.2z"/>
		<path d="M763,505.6l35.5-121.4l7.6-1.3l21,119.5l-4.9,0.9L802,388.5h-0.1h0.1l-0.3,0.1l-36.1,124.5l-2.8,0.5l-76.5-104.8l-0.3,0.1
			l20.2,114.7l-4.9,0.9l-21-119.5l7.8-1.3L763,505.6z"/>
		<path d="M840.3,456.4c5.3,27.9,30.8,36.2,47.6,33.1c15.8-2.8,28.3-13.3,32.5-29l5-0.9c-4.7,19.6-19.6,31.3-36.9,34.1
			c-26.2,4.6-48.5-11.5-52.9-36.9v0.1c-4.5-25.7,11.8-48.5,37.3-53c22.9-4,46.7,8.8,52.4,35.1l0.3,2.4L840.3,456.4z M920.2,438
			c-4.6-20.5-26.8-34.2-46.7-29.9c-21.2,3.7-36.4,22.2-33.8,44.1L920.2,438z M884.7,364.7l2.9,3.3L853.1,397l-2.8-3.4L884.7,364.7z"
			/>
		<path d="M982.2,386.9l0.7,4.4l-39.6,86.4l55.9-9.8l0.7,4.2l-61.7,10.9l-0.7-3.9l39.5-86.8l-50.2,8.8l-0.7-4.2L982.2,386.9z"/>
		<path d="M999.1,364.1l-4.5,0.8l-2.6-14.7l4.5-0.8L999.1,364.1z M1017.6,468.8l-4.5,0.8l-15-85.5l4.5-0.8L1017.6,468.8z"/>
		<path d="M1030.8,422.9c5.3,27.9,30.8,36.2,47.6,33.1c15.8-2.8,28.3-13.3,32.5-29l5-0.9c-4.7,19.6-19.6,31.3-36.9,34.1
			c-26.2,4.6-48.5-11.5-52.9-37v0.1c-4.5-25.7,11.8-48.5,37.3-53c22.9-4,46.7,8.8,52.4,35.1l0.3,2.4L1030.8,422.9z M1110.8,404.5
			c-4.6-20.5-26.8-34.2-46.7-29.9c-21.2,3.7-36.4,22.2-33.8,44.1L1110.8,404.5z M1079.6,353.4l-1.4,4.1l-42.3-15.5l1.6-4.1
			L1079.6,353.4z"/>
		<path d="M1131.7,376.5l0.3-0.1c4.9-17.5,19.4-21,26.8-22.9l0.7,4.4c-5.1,1.1-10.9,2.4-17.7,9.2c-8.6,11-8.1,21.2-6,33l8.2,46.3
			l-4.5,0.8l-15-85.5l4.5-0.8L1131.7,376.5z"/>
		<path d="M1168.2,398.8c5.3,27.9,30.8,36.2,47.6,33.1c15.8-2.8,28.3-13.3,32.5-29l5-0.9c-4.7,19.6-19.6,31.3-36.9,34.1
			c-26.2,4.6-48.5-11.5-52.9-36.9v0.1c-4.5-25.7,11.8-48.5,37.3-53c22.9-4,46.7,8.8,52.4,35.1l0.3,2.4L1168.2,398.8z M1248.2,380.4
			c-4.6-20.5-26.8-34.2-46.7-29.9c-21.2,3.7-36.4,22.2-33.8,44.1L1248.2,380.4z"/>
		<path d="M1272.4,399.6c2.4,13.8,13.1,20,25.6,17.8c12.7-2.2,19.1-13.3,16.9-24.4c-2.4-11.7-9.8-16.2-24.3-16.9
			c-13.6-1.4-23.9-3.4-27-18.1c-2.5-14.2,6.6-23.9,19.3-26.2c12.5-2,23.9,3.6,26.5,18.3l-4.5,0.8c-2.3-12.9-12.1-16.7-21.2-14.9
			c-11.5,2-17.9,11.1-15.6,21.2c2.3,10.2,9.1,13.1,21.8,14.3c11.9,1.1,25.1,1.9,29.3,20c3.3,13.9-5.8,27.5-20.5,30.1
			c-14.2,2.5-29.1-5.4-30.9-21.2L1272.4,399.6z"/>
	</g>
	<g>
		<path d="M53.2,286.9l20.4-88.2l3.9-0.7l-22.1,94.6l-2.5,0.5L0,211.7l4-0.7L53.2,286.9z"/>
		<path d="M90.5,206.9l-3.3,0.6l-1.9-10.9l3.3-0.6L90.5,206.9z M104.2,284.1l-3.3,0.6l-11.1-63l3.3-0.6L104.2,284.1z"/>
		<path d="M124.9,280.5l-3.3,0.6l-15.4-88l3.3-0.6L124.9,280.5z"/>
		<path d="M145.4,276.8l-3.3,0.6l-15.4-88l3.3-0.6L145.4,276.8z"/>
		<path d="M155.1,243c3.8,20.6,22.7,26.7,35.1,24.4c11.7-2,20.8-9.8,23.9-21.4l3.7-0.7c-3.4,14.5-14.5,23.1-27.2,25.1
			c-19.3,3.4-35.7-8.4-39-27.2v0.1c-3.3-18.9,8.7-35.7,27.5-39c16.9-3,34.4,6.5,38.6,25.8l0.2,1.8L155.1,243z M214,229.5
			c-3.4-15.1-19.8-25.2-34.4-22c-15.6,2.8-26.8,16.4-24.9,32.5L214,229.5z"/>
		<path d="M328.5,244.7l-3.3,0.6l-2.8-15.7l-0.3,0.1c-3.6,11.7-12.9,20-26.2,22.4c-20.7,3.6-36-10.2-39-27.2
			c-3-17.4,7-35.3,27.4-38.9c15.2-2.7,27.8,4.8,32.4,12.5l0.3-0.1l-7.2-41.1l3.3-0.6L328.5,244.7z M320,213.7
			c-3-17.3-18.2-27.7-35.1-24.7c-16.4,2.9-27.7,17.5-24.6,35.3c2.6,14.2,15.2,28.2,35.5,24.7C313.1,245.8,322.8,230,320,213.7z"/>
		<path d="M338.6,210.8c3.8,20.6,22.7,26.7,35.1,24.4c11.7-2,20.8-9.8,23.9-21.4l3.7-0.7c-3.4,14.5-14.5,23.1-27.2,25.1
			c-19.3,3.4-35.7-8.4-39-27.2v0.1c-3.3-18.9,8.7-35.7,27.5-39c16.9-3,34.4,6.5,38.6,25.8l0.2,1.8L338.6,210.8z M397.6,197.2
			c-3.4-15.1-19.8-25.2-34.4-22c-15.6,2.8-26.8,16.4-24.9,32.5L397.6,197.2z"/>
	</g>
	<path class="st5" d="M429.7,465.3c30.9,21.6,73.5,14.2,95.2-16.7c21.6-30.9,14.2-73.5-16.7-95.2c-30.9-21.6-73.5-14.2-95.2,16.7
		C391.3,401,398.8,443.6,429.7,465.3z"/>
</g>
</svg>
