<svg width="293" height="224" viewBox="0 0 293 224" fill="none" xmlns="http://www.w3.org/2000/svg">
<path d="M126.996 14.6367C147.252 8.02145 181.566 17.5388 189.352 45.6582C197.082 73.5253 187.62 81.204 190.482 105.214C193.345 129.223 250.377 155.216 222.171 188.328C207.493 205.56 183.736 194.98 158.137 184.417C139.485 176.72 119.849 169.005 102.053 172.051C102.053 172.051 32.6596 189.338 11.6373 161.074C-19.7777 118.841 53.1715 111.991 76.5276 73.8137C98.261 38.3219 100.376 23.3249 126.996 14.6187" fill="#C3CDFF" fill-opacity="0.45"/>
<g clip-path="url(#clip0_8932_22760)">
<path d="M152.899 159.07C152.009 159.07 151.289 158.35 151.289 157.46V149.98C151.289 149.09 152.009 148.37 152.899 148.37C153.789 148.37 154.509 149.09 154.509 149.98V157.46C154.509 158.35 153.789 159.07 152.899 159.07ZM97.4591 159.07C96.5691 159.07 95.8491 158.35 95.8491 157.46V93.93H61.7591V157.46C61.7591 158.35 61.0391 159.07 60.1491 159.07C59.2591 159.07 58.5391 158.35 58.5391 157.46V92.33C58.5391 91.44 59.2591 90.72 60.1491 90.72H95.8391V57.4C95.8391 56.51 96.5591 55.79 97.4491 55.79H152.889C153.779 55.79 154.499 56.51 154.499 57.4V91.59C154.499 92.48 153.779 93.2 152.889 93.2C151.999 93.2 151.279 92.48 151.279 91.59V59.01H99.0491V157.47C99.0491 158.36 98.3291 159.08 97.4391 159.08L97.4591 159.07Z" fill="#4550E5"/>
<path d="M86.1616 104.31H85.7716C85.0916 104.31 84.5116 103.89 84.2716 103.29C84.0416 103.89 83.4516 104.31 82.7716 104.31H82.3816C81.7016 104.31 81.1216 103.89 80.8816 103.29C80.6516 103.89 80.0616 104.31 79.3816 104.31H78.9916C78.3116 104.31 77.7316 103.89 77.4916 103.29C77.2616 103.89 76.6716 104.31 75.9916 104.31H75.6016C74.9216 104.31 74.3416 103.89 74.1016 103.29C73.8716 103.89 73.2816 104.31 72.6016 104.31H72.2116C71.3216 104.31 70.6016 103.59 70.6016 102.7C70.6016 101.81 71.3216 101.09 72.2116 101.09H72.6016C73.2816 101.09 73.8616 101.51 74.1016 102.11C74.3316 101.51 74.9216 101.09 75.6016 101.09H75.9916C76.6716 101.09 77.2516 101.51 77.4916 102.11C77.7216 101.51 78.3116 101.09 78.9916 101.09H79.3816C80.0616 101.09 80.6416 101.51 80.8816 102.11C81.1116 101.51 81.7016 101.09 82.3816 101.09H82.7716C83.4516 101.09 84.0316 101.51 84.2716 102.11C84.5016 101.51 85.0916 101.09 85.7716 101.09H86.1616C87.0516 101.09 87.7716 101.81 87.7716 102.7C87.7716 103.59 87.0516 104.31 86.1616 104.31Z" fill="#4550E5"/>
<path d="M86.1616 114.67H85.7716C85.0916 114.67 84.5116 114.25 84.2716 113.65C84.0416 114.25 83.4516 114.67 82.7716 114.67H82.3816C81.7016 114.67 81.1216 114.25 80.8816 113.65C80.6516 114.25 80.0616 114.67 79.3816 114.67H78.9916C78.3116 114.67 77.7316 114.25 77.4916 113.65C77.2616 114.25 76.6716 114.67 75.9916 114.67H75.6016C74.9216 114.67 74.3416 114.25 74.1016 113.65C73.8716 114.25 73.2816 114.67 72.6016 114.67H72.2116C71.3216 114.67 70.6016 113.95 70.6016 113.06C70.6016 112.17 71.3216 111.45 72.2116 111.45H72.6016C73.2816 111.45 73.8616 111.87 74.1016 112.47C74.3316 111.87 74.9216 111.45 75.6016 111.45H75.9916C76.6716 111.45 77.2516 111.87 77.4916 112.47C77.7216 111.87 78.3116 111.45 78.9916 111.45H79.3816C80.0616 111.45 80.6416 111.87 80.8816 112.47C81.1116 111.87 81.7016 111.45 82.3816 111.45H82.7716C83.4516 111.45 84.0316 111.87 84.2716 112.47C84.5016 111.87 85.0916 111.45 85.7716 111.45H86.1616C87.0516 111.45 87.7716 112.17 87.7716 113.06C87.7716 113.95 87.0516 114.67 86.1616 114.67Z" fill="#4550E5"/>
<path d="M86.1616 125.04H85.7716C85.0916 125.04 84.5116 124.62 84.2716 124.02C84.0416 124.62 83.4516 125.04 82.7716 125.04H82.3816C81.7016 125.04 81.1216 124.62 80.8816 124.02C80.6516 124.62 80.0616 125.04 79.3816 125.04H78.9916C78.3116 125.04 77.7316 124.62 77.4916 124.02C77.2616 124.62 76.6716 125.04 75.9916 125.04H75.6016C74.9216 125.04 74.3416 124.62 74.1016 124.02C73.8716 124.62 73.2816 125.04 72.6016 125.04H72.2116C71.3216 125.04 70.6016 124.32 70.6016 123.43C70.6016 122.54 71.3216 121.82 72.2116 121.82H72.6016C73.2816 121.82 73.8616 122.24 74.1016 122.84C74.3316 122.24 74.9216 121.82 75.6016 121.82H75.9916C76.6716 121.82 77.2516 122.24 77.4916 122.84C77.7216 122.24 78.3116 121.82 78.9916 121.82H79.3816C80.0616 121.82 80.6416 122.24 80.8816 122.84C81.1116 122.24 81.7016 121.82 82.3816 121.82H82.7716C83.4516 121.82 84.0316 122.24 84.2716 122.84C84.5016 122.24 85.0916 121.82 85.7716 121.82H86.1616C87.0516 121.82 87.7716 122.54 87.7716 123.43C87.7716 124.32 87.0516 125.04 86.1616 125.04Z" fill="#4550E5"/>
<path d="M86.1616 135.41H85.7716C85.0916 135.41 84.5116 134.99 84.2716 134.39C84.0416 134.99 83.4516 135.41 82.7716 135.41H82.3816C81.7016 135.41 81.1216 134.99 80.8816 134.39C80.6516 134.99 80.0616 135.41 79.3816 135.41H78.9916C78.3116 135.41 77.7316 134.99 77.4916 134.39C77.2616 134.99 76.6716 135.41 75.9916 135.41H75.6016C74.9216 135.41 74.3416 134.99 74.1016 134.39C73.8716 134.99 73.2816 135.41 72.6016 135.41H72.2116C71.3216 135.41 70.6016 134.69 70.6016 133.8C70.6016 132.91 71.3216 132.19 72.2116 132.19H72.6016C73.2816 132.19 73.8616 132.61 74.1016 133.21C74.3316 132.61 74.9216 132.19 75.6016 132.19H75.9916C76.6716 132.19 77.2516 132.61 77.4916 133.21C77.7216 132.61 78.3116 132.19 78.9916 132.19H79.3816C80.0616 132.19 80.6416 132.61 80.8816 133.21C81.1116 132.61 81.7016 132.19 82.3816 132.19H82.7716C83.4516 132.19 84.0316 132.61 84.2716 133.21C84.5016 132.61 85.0916 132.19 85.7716 132.19H86.1616C87.0516 132.19 87.7716 132.91 87.7716 133.8C87.7716 134.69 87.0516 135.41 86.1616 135.41Z" fill="#4550E5"/>
<path d="M86.1616 145.78H85.7716C85.0916 145.78 84.5116 145.36 84.2716 144.76C84.0416 145.36 83.4516 145.78 82.7716 145.78H82.3816C81.7016 145.78 81.1216 145.36 80.8816 144.76C80.6516 145.36 80.0616 145.78 79.3816 145.78H78.9916C78.3116 145.78 77.7316 145.36 77.4916 144.76C77.2616 145.36 76.6716 145.78 75.9916 145.78H75.6016C74.9216 145.78 74.3416 145.36 74.1016 144.76C73.8716 145.36 73.2816 145.78 72.6016 145.78H72.2116C71.3216 145.78 70.6016 145.06 70.6016 144.17C70.6016 143.28 71.3216 142.56 72.2116 142.56H72.6016C73.2816 142.56 73.8616 142.98 74.1016 143.58C74.3316 142.98 74.9216 142.56 75.6016 142.56H75.9916C76.6716 142.56 77.2516 142.98 77.4916 143.58C77.7216 142.98 78.3116 142.56 78.9916 142.56H79.3816C80.0616 142.56 80.6416 142.98 80.8816 143.58C81.1116 142.98 81.7016 142.56 82.3816 142.56H82.7716C83.4516 142.56 84.0316 142.98 84.2716 143.58C84.5016 142.98 85.0916 142.56 85.7716 142.56H86.1616C87.0516 142.56 87.7716 143.28 87.7716 144.17C87.7716 145.06 87.0516 145.78 86.1616 145.78Z" fill="#4550E5"/>
<path d="M230.43 159.07H11.11C10.22 159.07 9.5 158.35 9.5 157.46C9.5 156.57 10.22 155.85 11.11 155.85H171.02V139.82C168.49 142.31 165.29 143.64 161.67 143.64C153.45 143.64 146.77 136.96 146.77 128.74C146.77 123.29 149.67 118.41 154.31 115.79C152.9 113.8 152.14 111.43 152.14 108.94C152.14 103.05 156.45 98.14 162.08 97.2C161.66 96.12 161.45 94.97 161.45 93.79C161.45 88.55 165.71 84.29 170.95 84.29C176.19 84.29 180.45 88.55 180.45 93.79C180.45 93.98 180.45 94.16 180.43 94.35C180.86 94.3 181.29 94.27 181.73 94.27C187.47 94.27 192.13 98.94 192.13 104.68C192.13 107.08 191.29 109.39 189.8 111.23C195.02 113.77 198.48 119.14 198.48 125.08C198.48 133.58 191.57 140.49 183.07 140.49C180 140.49 176.8 139.61 174.23 138.13V155.85H230.43C231.32 155.85 232.04 156.57 232.04 157.46C232.04 158.35 231.32 159.07 230.43 159.07ZM164.02 100.27C159.23 100.27 155.34 104.17 155.34 108.95C155.34 111.32 156.29 113.54 158 115.2C158.4 115.58 158.57 116.14 158.46 116.67C158.35 117.21 157.98 117.65 157.46 117.85C152.91 119.61 149.97 123.88 149.97 128.75C149.97 135.2 155.21 140.44 161.66 140.44C166.61 140.44 169.46 137.31 171.01 134.54V129.17L161.57 124.1C160.79 123.68 160.5 122.71 160.91 121.93C161.33 121.15 162.3 120.86 163.08 121.27L171 125.52V112.24L163.87 108.22C163.1 107.78 162.82 106.81 163.26 106.03C163.7 105.26 164.68 104.98 165.45 105.42L171 108.55V101.84C171 100.95 171.72 100.23 172.61 100.23C173.5 100.23 174.22 100.95 174.22 101.84V108.41L178.96 105.46C179.71 104.99 180.7 105.22 181.17 105.97C181.64 106.72 181.41 107.71 180.66 108.18L174.22 112.19V125.76L183.07 121.87C183.88 121.51 184.83 121.88 185.19 122.69C185.55 123.5 185.18 124.45 184.37 124.81L174.22 129.27V134.23C176.4 136.07 179.86 137.28 183.06 137.28C189.79 137.28 195.26 131.81 195.26 125.08C195.26 119.66 191.62 114.85 186.41 113.36C185.82 113.19 185.37 112.7 185.27 112.09C185.16 111.48 185.41 110.87 185.91 110.51C187.79 109.16 188.91 106.97 188.91 104.67C188.91 100.7 185.68 97.48 181.72 97.48C180.76 97.48 179.83 97.67 178.95 98.04C178.36 98.29 177.68 98.16 177.22 97.72C176.76 97.28 176.6 96.6 176.83 96C177.1 95.28 177.23 94.54 177.23 93.8C177.23 90.33 174.41 87.51 170.94 87.51C167.47 87.51 164.65 90.33 164.65 93.8C164.65 95.23 165.12 96.57 166.01 97.7C166.41 98.2 166.47 98.89 166.17 99.45C165.87 100.01 165.27 100.35 164.63 100.3H164.57C164.39 100.28 164.2 100.27 164.02 100.27ZM140.06 59.01C139.17 59.01 138.45 58.29 138.45 57.4V49.4H110.73V57.4C110.73 58.29 110.01 59.01 109.12 59.01C108.23 59.01 107.51 58.29 107.51 57.4V47.79C107.51 46.9 108.23 46.18 109.12 46.18H122.98V29.61C122.98 28.72 123.7 28 124.59 28C125.48 28 126.2 28.72 126.2 29.61V46.2H140.06C140.95 46.2 141.67 46.92 141.67 47.81V57.42C141.67 58.31 140.95 59.03 140.06 59.03V59.01Z" fill="#4550E5"/>
<path d="M118.279 134.87C117.639 134.87 117.119 135.39 117.119 136.03V147.61C117.119 148.25 117.639 148.77 118.279 148.77C118.919 148.77 119.439 148.25 119.439 147.61V136.03C119.439 135.39 118.919 134.87 118.279 134.87ZM118.279 151.08C116.359 151.08 114.809 149.52 114.809 147.61V136.03C114.809 134.11 116.369 132.56 118.279 132.56C120.189 132.56 121.749 134.12 121.749 136.03V147.61C121.749 149.53 120.189 151.08 118.279 151.08Z" fill="#F79F59"/>
<path d="M122.911 134.87C122.271 134.87 121.751 135.39 121.751 136.03V147.61C121.751 148.25 122.271 148.77 122.911 148.77C123.551 148.77 124.071 148.25 124.071 147.61V136.03C124.071 135.39 123.551 134.87 122.911 134.87ZM122.911 151.08C120.991 151.08 119.441 149.52 119.441 147.61V136.03C119.441 134.11 121.001 132.56 122.911 132.56C124.821 132.56 126.381 134.12 126.381 136.03V147.61C126.381 149.53 124.821 151.08 122.911 151.08Z" fill="#F79F59"/>
<path d="M127.54 134.87C126.9 134.87 126.38 135.39 126.38 136.03V147.61C126.38 148.25 126.9 148.77 127.54 148.77C128.18 148.77 128.7 148.25 128.7 147.61V136.03C128.7 135.39 128.18 134.87 127.54 134.87ZM127.54 151.08C125.62 151.08 124.07 149.52 124.07 147.61V136.03C124.07 134.11 125.63 132.56 127.54 132.56C129.45 132.56 131.01 134.12 131.01 136.03V147.61C131.01 149.53 129.45 151.08 127.54 151.08Z" fill="#F79F59"/>
<path d="M132.169 134.87C131.529 134.87 131.009 135.39 131.009 136.03V147.61C131.009 148.25 131.529 148.77 132.169 148.77C132.809 148.77 133.329 148.25 133.329 147.61V136.03C133.329 135.39 132.809 134.87 132.169 134.87ZM132.169 151.08C130.249 151.08 128.699 149.52 128.699 147.61V136.03C128.699 134.11 130.259 132.56 132.169 132.56C134.079 132.56 135.639 134.12 135.639 136.03V147.61C135.639 149.53 134.079 151.08 132.169 151.08Z" fill="#F79F59"/>
<path d="M111.332 148.77C110.692 148.77 110.172 148.25 110.172 147.61V142.98C110.172 142.34 110.692 141.82 111.332 141.82C111.972 141.82 112.492 142.34 112.492 142.98V147.61C112.492 148.25 111.972 148.77 111.332 148.77Z" fill="#F79F59"/>
<path d="M105.112 178.73H10.7219C10.1419 178.73 9.67188 178.21 9.67188 177.57C9.67188 176.93 10.1419 176.41 10.7219 176.41H104.062V145.29C104.062 144.65 104.532 144.13 105.112 144.13H111.442C112.022 144.13 112.492 144.65 112.492 145.29C112.492 145.93 112.022 146.45 111.442 146.45H106.172V177.57C106.172 178.21 105.702 178.73 105.122 178.73" fill="#F79F59"/>
<path d="M139.121 140.66C138.481 140.66 137.961 140.14 137.961 139.5V134.87C137.961 134.23 138.481 133.71 139.121 133.71C139.761 133.71 140.281 134.23 140.281 134.87V139.5C140.281 140.14 139.761 140.66 139.121 140.66Z" fill="#F79F59"/>
<path d="M233.571 172.95H144.911C144.271 172.95 143.751 172.43 143.751 171.79V138.35H139.121C138.481 138.35 137.961 137.83 137.961 137.19C137.961 136.55 138.481 136.03 139.121 136.03H144.911C145.551 136.03 146.071 136.55 146.071 137.19V170.63H233.581C234.221 170.63 234.741 171.15 234.741 171.79C234.741 172.43 234.221 172.95 233.581 172.95" fill="#F79F59"/>
</g>
<path d="M46.5 168.994C46.4988 169.588 46.6738 170.169 47.003 170.663C47.3322 171.157 47.8007 171.543 48.3491 171.77C48.8976 171.998 49.5013 172.058 50.0838 171.943C50.6663 171.827 51.2014 171.541 51.6213 171.121C52.0413 170.701 52.3271 170.166 52.4427 169.584C52.5582 169.001 52.4983 168.398 52.2704 167.849C52.0426 167.301 51.6572 166.832 51.1629 166.503C50.6686 166.174 50.0877 165.999 49.4938 166C48.7003 166.002 47.9398 166.318 47.3787 166.879C46.8176 167.44 46.5016 168.2 46.5 168.994Z" stroke="#6287BD" stroke-width="2" stroke-linecap="round" stroke-linejoin="round"/>
<path d="M162.5 35.9938C162.499 36.5877 162.674 37.1685 163.003 37.6628C163.332 38.1571 163.801 38.5426 164.349 38.7704C164.898 38.9983 165.501 39.0582 166.084 38.9427C166.666 38.8271 167.201 38.5412 167.621 38.1213C168.041 37.7014 168.327 37.1663 168.443 36.5837C168.558 36.0012 168.498 35.3975 168.27 34.8491C168.043 34.3007 167.657 33.8322 167.163 33.503C166.669 33.1738 166.088 32.9988 165.494 33C164.7 33.0016 163.94 33.3176 163.379 33.8787C162.818 34.4398 162.502 35.2003 162.5 35.9938Z" stroke="#6287BD" stroke-width="2" stroke-linecap="round" stroke-linejoin="round"/>
<defs>
<clipPath id="clip0_8932_22760">
<rect width="225.23" height="150.73" fill="white" transform="translate(9.5 28)"/>
</clipPath>
</defs>
</svg>
