<svg width="293" height="224" viewBox="0 0 293 224" fill="none" xmlns="http://www.w3.org/2000/svg">
<path d="M126.996 14.6367C147.252 8.02145 181.566 17.5388 189.352 45.6582C197.082 73.5253 187.62 81.204 190.482 105.214C193.345 129.223 250.377 155.216 222.171 188.328C207.493 205.56 183.736 194.98 158.137 184.417C139.485 176.72 119.849 169.005 102.053 172.051C102.053 172.051 32.6596 189.338 11.6373 161.074C-19.7777 118.841 53.1715 111.991 76.5276 73.8137C98.261 38.3219 100.376 23.3249 126.996 14.6187" fill="#C3CDFF" fill-opacity="0.45"/>
<g clip-path="url(#clip0_8932_22674)">
<path d="M181.899 122.22C180.479 113.66 177.099 105.23 178.029 96.6C178.769 89.74 182.209 83.3 182.259 76.4C182.289 71.28 180.199 65.98 176.059 62.96C171.919 59.94 165.659 59.77 161.859 63.2C167.299 62.13 172.309 67.42 173.129 72.91C173.839 77.61 171.839 83.06 167.429 84.84C163.609 86.38 159.269 84.82 155.639 82.89C142.419 75.84 132.199 63.36 127.899 49.01C126.689 44.96 125.929 40.62 126.949 36.52C128.089 31.96 131.509 28.02 135.879 26.27C140.249 24.52 145.439 24.99 149.419 27.5C147.339 22.97 143.009 19.71 138.259 18.2C133.509 16.69 128.369 16.77 123.459 17.63C117.489 18.67 111.599 20.9 107.069 24.93C98.9392 32.17 96.4892 44.2 98.1592 54.96C99.8392 65.72 105.019 75.57 110.149 85.17C106.329 82.34 102.439 79.47 97.9692 77.81C93.5092 76.16 88.3092 75.86 84.1192 78.12C88.4492 80.42 92.8492 83.33 94.7592 87.85C96.6292 92.29 95.6892 97.47 93.6492 101.84C91.5992 106.2 88.5392 109.99 85.9492 114.05C81.4392 121.09 78.3192 129.13 77.6392 137.49C76.9592 145.84 78.8292 154.5 83.5392 161.43C90.5192 171.71 102.839 177.16 115.039 179.47C109.939 174.37 105.429 168.44 103.299 161.55C101.169 154.66 101.719 146.68 105.979 140.86C110.079 135.27 116.879 132.39 121.949 127.66C131.189 119.02 133.409 103.81 127.029 92.88C134.169 95.52 137.609 103.75 138.319 111.32C139.109 119.75 137.459 128.39 133.639 135.95C132.099 138.99 130.159 142.36 131.249 145.58C132.529 149.35 137.549 150.67 141.289 149.31C145.039 147.95 157.949 136.66 153.719 131.43C161.469 141 159.469 158.04 154.579 168.45C152.319 173.26 147.619 177.24 141.979 179.54C155.379 178.42 167.059 170.61 174.309 159.74C181.549 148.87 184.049 135.12 181.899 122.23V122.22Z" fill="#8585F6"/>
</g>
<path d="M56.5 170.994C56.4988 171.588 56.6738 172.169 57.003 172.663C57.3322 173.157 57.8007 173.543 58.3491 173.77C58.8976 173.998 59.5013 174.058 60.0838 173.943C60.6663 173.827 61.2014 173.541 61.6213 173.121C62.0413 172.701 62.3271 172.166 62.4427 171.584C62.5582 171.001 62.4983 170.398 62.2704 169.849C62.0426 169.301 61.6572 168.832 61.1629 168.503C60.6686 168.174 60.0877 167.999 59.4938 168C58.7003 168.002 57.9398 168.318 57.3787 168.879C56.8176 169.44 56.5016 170.2 56.5 170.994Z" stroke="#6287BD" stroke-width="2" stroke-linecap="round" stroke-linejoin="round"/>
<path d="M172.5 37.9938C172.499 38.5877 172.674 39.1685 173.003 39.6628C173.332 40.1571 173.801 40.5426 174.349 40.7704C174.898 40.9983 175.501 41.0582 176.084 40.9427C176.666 40.8271 177.201 40.5412 177.621 40.1213C178.041 39.7014 178.327 39.1663 178.443 38.5837C178.558 38.0012 178.498 37.3975 178.27 36.8491C178.043 36.3007 177.657 35.8322 177.163 35.503C176.669 35.1738 176.088 34.9988 175.494 35C174.7 35.0016 173.94 35.3176 173.379 35.8787C172.818 36.4398 172.502 37.2003 172.5 37.9938Z" stroke="#6287BD" stroke-width="2" stroke-linecap="round" stroke-linejoin="round"/>
<defs>
<clipPath id="clip0_8932_22674">
<rect width="105.14" height="162.53" fill="white" transform="translate(77.5 17)"/>
</clipPath>
</defs>
</svg>
