<svg width="293" height="224" viewBox="0 0 293 224" fill="none" xmlns="http://www.w3.org/2000/svg">
<path d="M126.996 14.6367C147.252 8.02145 181.566 17.5388 189.352 45.6582C197.082 73.5253 187.62 81.204 190.482 105.214C193.345 129.223 250.377 155.216 222.171 188.328C207.493 205.56 183.736 194.98 158.137 184.417C139.485 176.72 119.849 169.005 102.053 172.051C102.053 172.051 32.6596 189.338 11.6373 161.074C-19.7777 118.841 53.1715 111.991 76.5276 73.8137C98.261 38.3219 100.376 23.3249 126.996 14.6187" fill="#C3CDFF" fill-opacity="0.45"/>
<path d="M170.5 193.994C170.501 194.588 170.326 195.169 169.997 195.663C169.668 196.157 169.199 196.543 168.651 196.77C168.102 196.998 167.499 197.058 166.916 196.943C166.334 196.827 165.799 196.541 165.379 196.121C164.959 195.701 164.673 195.166 164.557 194.584C164.442 194.001 164.502 193.398 164.73 192.849C164.957 192.301 165.343 191.832 165.837 191.503C166.331 191.174 166.912 190.999 167.506 191C168.3 191.002 169.06 191.318 169.621 191.879C170.182 192.44 170.498 193.2 170.5 193.994Z" stroke="#6287BD" stroke-width="2" stroke-linecap="round" stroke-linejoin="round"/>
<path d="M54.5 60.9938C54.5012 61.5877 54.3262 62.1685 53.997 62.6628C53.6678 63.1571 53.1993 63.5426 52.6509 63.7704C52.1024 63.9983 51.4987 64.0582 50.9162 63.9427C50.3337 63.8271 49.7986 63.5412 49.3787 63.1213C48.9587 62.7014 48.6729 62.1663 48.5573 61.5837C48.4418 61.0012 48.5017 60.3975 48.7296 59.8491C48.9574 59.3007 49.3428 58.8322 49.8371 58.503C50.3314 58.1738 50.9123 57.9988 51.5062 58C52.2997 58.0016 53.0602 58.3176 53.6213 58.8787C54.1824 59.4398 54.4984 60.2003 54.5 60.9938Z" stroke="#6287BD" stroke-width="2" stroke-linecap="round" stroke-linejoin="round"/>
<path d="M175.5 57H87.5V73H175.5V57Z" fill="#8585F6"/>
<path d="M175.5 86H87.5V127H175.5V86Z" fill="#8585F6"/>
<path d="M175.5 140H87.5V156H175.5V140Z" fill="#8585F6"/>
<path d="M181.683 42H82.3172C80.7613 42 79.5 43.3119 79.5 44.9302V51.0698C79.5 52.6881 80.7613 54 82.3172 54H181.683C183.239 54 184.5 52.6881 184.5 51.0698V44.9302C184.5 43.3119 183.239 42 181.683 42Z" fill="#8585F6"/>
<path d="M181.683 159H82.3172C80.7613 159 79.5 160.312 79.5 161.93V168.07C79.5 169.688 80.7613 171 82.3172 171H181.683C183.239 171 184.5 169.688 184.5 168.07V161.93C184.5 160.312 183.239 159 181.683 159Z" fill="#8585F6"/>
<path d="M183.5 79.9479V80.0521C183.5 82.2338 181.516 84 179.066 84H84.9374C82.487 84 80.5 82.2338 80.5 80.0521V79.9479C80.5 77.7662 82.487 76 84.9374 76H179.066C181.516 76 183.5 77.7662 183.5 79.9479Z" fill="#8585F6"/>
<path d="M183.5 133.946V134.051C183.5 136.232 181.516 138 179.066 138H84.9374C82.487 138 80.5 136.232 80.5 134.051V133.946C80.5 131.766 82.487 130 84.9374 130H179.066C181.516 130 183.5 131.766 183.5 133.946Z" fill="#8585F6"/>
<path d="M127.994 74.3901L97.9524 103.144C96.0159 104.998 96.0159 108.002 97.9524 109.856L127.994 138.61C129.93 140.463 133.07 140.463 135.006 138.61L165.048 109.856C166.984 108.002 166.984 104.998 165.048 103.144L135.006 74.3901C133.07 72.5366 129.93 72.5366 127.994 74.3901Z" fill="#F79F59"/>
<path d="M145.427 107.386C145.052 104.379 143.741 101.577 142.058 98.9702C141.412 97.9681 140.707 96.9964 139.981 96.0521C138.497 94.1281 136.901 92.2844 135.405 90.3684C134.268 88.9149 133.277 87.3539 132.007 86C130.737 87.3555 129.747 88.9149 128.609 90.3684C127.113 92.2828 125.517 94.1265 124.033 96.0521C123.308 96.9964 122.604 97.9681 121.956 98.9702C120.273 101.575 118.962 104.379 118.587 107.386C117.247 118.161 131.626 125.02 140.413 118.393C141.307 117.719 142.112 116.94 142.8 116.078C144.74 113.635 145.804 110.432 145.423 107.386H145.427Z" fill="#4550E5"/>
</svg>
