<svg width="150" height="125" viewBox="0 0 150 125" fill="none" xmlns="http://www.w3.org/2000/svg">
<path d="M81.0251 107.186C74.8683 103.37 67.4729 102.087 60.3907 103.606C45.3057 106.82 22.3571 106.854 8.74388 88.5467C-14.5774 57.1905 11.3181 7.677 56.0722 0.736089C110.92 -7.76465 177.172 59.383 137.961 102.801C120.925 121.682 103.35 121.078 81.0251 107.186Z" fill="#CDE3F0"/>
<path d="M86.5151 53.5163C86.5151 53.5163 110.372 51.5461 108.499 20.3872C108.499 20.3872 79.0869 26.0972 86.5151 53.5163Z" fill="#B5CF96"/>
<path d="M90.3867 45.6638L106.746 22.9868" stroke="#8EAD6A" stroke-width="1.64" stroke-linecap="round" stroke-linejoin="round"/>
<path d="M84.9453 63.2322C84.9453 63.2322 108.304 68.4692 115.811 38.1747C115.811 38.1716 86.032 34.8327 84.9453 63.2322Z" fill="#9EB583"/>
<path d="M90.9805 56.8926L113.362 40.1292" stroke="#758F57" stroke-width="1.64" stroke-linecap="round" stroke-linejoin="round"/>
<path d="M44.4446 85.5742C44.1095 85.261 41.0656 79.3099 41.0656 79.3099C40.7869 76.7446 39.7941 72.4911 39.7941 72.4911C40.0791 71.73 39.7284 65.8008 39.7284 65.8008C41.6073 60.3132 40.624 58.3023 40.3829 57.4692C40.2357 56.9586 39.3933 55.6087 38.7607 55.474C38.511 55.4201 38.2502 55.4595 38.0275 55.5847C37.8048 55.7099 37.6356 55.9123 37.5519 56.1537C36.0331 60.4166 32.5726 71.1192 32.4035 73.7534C32.2187 76.5723 34.9526 88.625 34.9526 88.625C34.9526 88.625 45.3402 86.3792 44.4446 85.5742Z" fill="#F9A17B"/>
<path d="M47.3818 91.3404C47.0467 91.0272 44.0059 85.0761 44.0059 85.0761C43.7272 82.514 42.7345 78.2605 42.7345 78.2605C43.0195 77.4962 42.6687 71.567 42.6687 71.567C44.5477 66.0825 43.5612 64.0717 43.3201 63.2385C43.1729 62.728 42.3336 61.378 41.7011 61.2402C41.4507 61.1884 41.19 61.229 40.9672 61.3545C40.7444 61.4801 40.5746 61.682 40.4891 61.923C38.9734 66.1859 35.5129 76.8886 35.3407 79.5227C35.1591 82.3417 37.893 94.3943 37.893 94.3943C37.893 94.3943 48.2681 92.1517 47.3818 91.3404Z" fill="#F9A17B"/>
<path d="M49.2844 97.915C48.9494 97.6018 45.9086 91.6506 45.9086 91.6506C45.6267 89.0854 44.6371 84.8319 44.6371 84.8319C44.919 84.0676 44.5682 78.1415 44.5682 78.1415C46.4472 72.654 45.4639 70.6431 45.2227 69.81C45.0755 69.2994 44.2331 67.9494 43.6005 67.8116C43.3505 67.7593 43.09 67.7997 42.8676 67.9254C42.6452 68.051 42.476 68.2533 42.3917 68.4944C40.8729 72.7573 37.4156 83.46 37.2433 86.0941C37.0586 88.9131 39.7925 100.966 39.7925 100.966C39.7925 100.966 50.1832 98.7294 49.2844 97.915Z" fill="#F9A17B"/>
<path d="M40.4891 61.9292L37.9023 74.9653" stroke="#D87B5D" stroke-width="2.14" stroke-linecap="round" stroke-linejoin="round"/>
<path d="M103.607 85.9249C103.92 85.6117 106.645 79.4977 106.645 79.4977C106.786 76.923 107.55 72.6069 107.55 72.6069C107.237 71.8583 107.255 65.9197 107.255 65.9197C105.063 60.5417 105.962 58.4807 106.159 57.635C106.278 57.1182 107.046 55.7244 107.669 55.5553C107.918 55.4885 108.183 55.5153 108.414 55.6307C108.645 55.7462 108.825 55.9422 108.921 56.1817C110.666 60.3569 114.693 70.856 115.003 73.4807C115.338 76.2997 113.256 88.4651 113.256 88.4651C113.256 88.4651 102.762 86.7862 103.607 85.9249Z" fill="#F9A17B"/>
<path d="M104.278 84.6911C104.66 84.4499 108.694 79.1221 108.694 79.1221C109.417 76.6445 111.137 72.6291 111.137 72.6291C110.989 71.8303 112.37 66.0515 112.37 66.0515C111.469 60.3165 112.796 58.5123 113.178 57.7324C113.413 57.2563 114.478 56.0723 115.123 56.0504C115.379 56.0417 115.628 56.1262 115.826 56.2881C116.024 56.4501 116.156 56.6784 116.197 56.9306C116.946 61.3939 118.487 72.5382 118.195 75.163C117.882 77.9819 113.088 89.358 113.088 89.358C113.088 89.358 103.251 85.3363 104.278 84.6911Z" fill="#F9A17B"/>
<path d="M99.9433 91.3406C100.278 91.0274 103.322 85.0762 103.322 85.0762C103.601 82.5141 104.594 78.2606 104.594 78.2606C104.309 77.4963 104.66 71.5671 104.66 71.5671C102.781 66.0827 103.764 64.0718 104.005 63.2387C104.152 62.7281 104.995 61.3781 105.627 61.2403C105.877 61.188 106.138 61.2284 106.36 61.3541C106.583 61.4797 106.752 61.682 106.836 61.9231C108.355 66.186 111.815 76.8887 111.984 79.5229C112.169 82.3418 109.435 94.3944 109.435 94.3944C109.435 94.3944 99.032 92.1518 99.9433 91.3406Z" fill="#F9A17B"/>
<path d="M98.0328 97.9149C98.3678 97.6016 101.409 91.6505 101.409 91.6505C101.687 89.0852 102.68 84.8317 102.68 84.8317C102.395 84.0675 102.746 78.1414 102.746 78.1414C100.867 72.6538 101.853 70.643 102.094 69.8098C102.242 69.2993 103.081 67.9493 103.714 67.8115C103.964 67.7597 104.225 67.8003 104.447 67.9258C104.67 68.0513 104.84 68.2533 104.925 68.4943C106.441 72.7572 109.902 83.4599 110.074 86.094C110.259 88.913 107.525 100.966 107.525 100.966C107.525 100.966 97.1246 98.7292 98.0328 97.9149Z" fill="#F9A17B"/>
<path d="M114.272 71.7018C114.272 71.7018 110.661 73.9789 110.492 76.5505C110.492 76.5505 108.008 82.7772 104.388 81.7123C103.226 81.3709 102.465 93.6741 98.5008 91.9733L94.555 94.4509C93.8723 97.9808 94.0101 102.952 94.2105 103.96C95.5728 110.829 96.7377 109.125 96.7377 109.125L110.984 105.661L114.006 84.3621C114.006 84.3621 113.955 70.9501 114.272 71.7018Z" fill="#F9A17B"/>
<path d="M95.5078 108.52L100.569 119.95C101.156 121.112 101.983 122.137 102.996 122.955C104.009 123.774 105.184 124.368 106.444 124.699C107.704 125.029 109.019 125.088 110.303 124.872C111.588 124.656 112.811 124.17 113.894 123.445L114.075 123.326C115.114 122.626 115.999 121.721 116.676 120.668C117.353 119.614 117.808 118.433 118.013 117.197C118.218 115.961 118.169 114.697 117.869 113.481C117.569 112.265 117.024 111.122 116.267 110.124L110.004 101.899C110.004 101.899 101.63 99.5969 101.107 99.1991C96.9327 96.0293 103.127 103.744 103.127 103.744L95.5078 108.52Z" fill="#F9A17B"/>
<path d="M106.984 66.377L109.405 74.9654" stroke="#D87B5D" stroke-width="2.14" stroke-linecap="round" stroke-linejoin="round"/>
<path d="M73.5306 97.9743C91.6995 97.9743 106.428 83.2429 106.428 65.0708C106.428 46.8987 91.6995 32.1672 73.5306 32.1672C55.3617 32.1672 40.6328 46.8987 40.6328 65.0708C40.6328 83.2429 55.3617 97.9743 73.5306 97.9743Z" fill="#7CA356"/>
<path d="M100.365 46.0334C98.9089 45.8047 83.9617 43.6404 81.3374 51.5116C78.5847 59.7742 71.6481 58.4024 74.0156 66.9375C76.3831 75.4727 82.9909 80.431 91.2396 79.3316C100.735 78.063 82.5681 92.1735 89.7395 93.7051C105.579 85.0196 112.096 63.276 100.365 46.0334Z" fill="#96C467"/>
<path d="M55.599 37.4828C55.599 37.4828 69.9544 36.6433 70.5494 41.8678C71.1444 47.0923 67.5117 46.2247 62.7485 49.2409C57.9853 52.2572 55.8777 49.8674 53.1845 54.4498C50.4913 59.0321 41.6914 56.7081 41.6914 56.7081C41.6914 56.7081 43.5704 45.3163 55.599 37.4828Z" fill="#96C467"/>
<path d="M41.3164 71.1284C41.3164 71.1284 51.8731 68.8639 55.7219 76.2997C59.5707 83.7355 62.6115 80.7066 65.0824 84.0142C65.7807 84.9539 65.7087 86.166 65.2609 87.4596C63.5165 92.3834 57.5069 94.2471 53.2072 91.284C48.9075 88.321 43.7246 82.4419 41.3164 71.1284Z" fill="#96C467"/>
<g style="mix-blend-mode:multiply" opacity="0.68">
<path d="M101.712 81.6434C99.5569 85.3701 96.6867 88.634 93.2662 91.2476C89.8458 93.8613 85.9426 95.773 81.7811 96.8729C77.6195 97.9729 73.2817 98.2394 69.0168 97.6571C64.7519 97.0748 60.6442 95.6552 56.9297 93.4799C91.6532 91.2498 101.508 59.2232 89.8619 36.6465C93.5955 38.8214 96.8639 41.7109 99.4804 45.1499C102.097 48.5888 104.01 52.5098 105.11 56.6887C106.211 60.8676 106.477 65.2224 105.894 69.5043C105.311 73.7862 103.89 77.9111 101.712 81.6434Z" fill="#B4D691"/>
</g>
<path d="M106.987 88.8756C106.263 88.5623 103.476 86.4481 103.492 83.2376C103.484 81.7328 103.605 80.2301 103.855 78.7461C104.24 75.7768 104.099 74.1731 103.473 72.6916C102.612 70.6494 100.479 70.355 100.176 71.1255C99.3112 73.3556 98.4876 77.5089 97.9364 79.7014C97.3445 82.0756 95.7662 87.322 95.2338 89.076C95.1305 89.4143 95.0115 89.7432 94.88 90.072C94.3945 91.2967 93.1137 100.151 94.1753 103.716L106.987 88.8756Z" fill="#F9A17B"/>
<path d="M102.507 89.455C102.507 87.0212 104.072 79.8235 104.235 78.5424C104.617 75.5731 104.476 73.9695 103.853 72.4911C102.989 70.4489 100.859 70.1513 100.556 70.925L95.3789 88.5811" stroke="#D87B5D" stroke-width="2.14" stroke-linecap="round" stroke-linejoin="round"/>
<path d="M104.031 85.3425L111.459 75.9146L112.543 64.5918" stroke="#D87B5D" stroke-width="2.14" stroke-linecap="round" stroke-linejoin="round"/>
<path d="M43.0352 84.691C42.6532 84.4498 38.6196 79.1219 38.6196 79.1219C37.8962 76.6444 36.177 72.629 36.177 72.629C36.3241 71.8302 34.9431 66.0514 34.9431 66.0514C35.8419 60.3164 34.5172 58.5122 34.132 57.7323C33.9002 57.2562 32.8355 56.0722 32.1873 56.0503C31.9324 56.0423 31.6834 56.1272 31.4864 56.2891C31.2894 56.451 31.1578 56.6789 31.1162 56.9305C30.3646 61.3938 28.827 72.5381 29.1183 75.1629C29.4314 77.9818 34.2228 89.3579 34.2228 89.3579C34.2228 89.3579 44.0624 85.3362 43.0352 84.691Z" fill="#F9A17B"/>
<path d="M33.043 71.7018C33.043 71.7018 36.6537 73.9789 36.8197 76.5505C36.8197 76.5505 39.3062 82.7772 42.9233 81.7123C44.0882 81.3709 44.8492 93.6741 48.8107 91.9733L52.7597 94.4509C53.4424 97.9808 53.3046 102.952 53.1042 103.96C51.7388 110.829 50.577 109.125 50.577 109.125L36.3312 105.661L33.3091 84.3621C33.3091 84.3621 33.3593 70.9501 33.043 71.7018Z" fill="#F9A17B"/>
<path d="M51.8083 108.52L46.7569 119.95C46.1699 121.112 45.3427 122.137 44.3301 122.955C43.3175 123.774 42.1426 124.368 40.8832 124.699C39.6237 125.029 38.3085 125.088 37.0244 124.872C35.7404 124.656 34.517 124.17 33.435 123.445L33.2533 123.326C32.2149 122.626 31.3301 121.721 30.6531 120.668C29.976 119.614 29.521 118.433 29.3158 117.197C29.1107 115.961 29.1596 114.697 29.4597 113.481C29.7598 112.265 30.3047 111.122 31.0612 110.124L37.3245 101.899C37.3245 101.899 45.6985 99.5969 46.2183 99.1991C50.3959 96.0293 44.1984 103.744 44.1984 103.744L51.8083 108.52Z" fill="#F9A17B"/>
<path d="M40.3281 88.8756C41.0515 88.5623 43.8387 86.4481 43.823 83.2376C43.8303 81.7327 43.7078 80.2299 43.4566 78.7461C43.0746 75.7768 43.2155 74.1731 43.8387 72.6916C44.703 70.6494 46.8325 70.355 47.1363 71.1255C48.0037 73.3556 48.8274 77.5089 49.3754 79.7014C49.9704 82.0756 51.5487 87.322 52.0811 89.076C52.1845 89.4143 52.3035 89.7432 52.4319 90.072C52.9173 91.2967 54.2012 100.151 53.1396 103.716L40.3281 88.8756Z" fill="#F9A17B"/>
<path d="M44.8094 89.455C44.8094 87.0212 43.2436 79.8235 43.0807 78.5424C42.6955 75.5731 42.8365 73.9695 43.4628 72.4911C44.3271 70.4489 46.4566 70.1513 46.7604 70.925L51.9339 88.5811" stroke="#D87B5D" stroke-width="2.14" stroke-linecap="round" stroke-linejoin="round"/>
<path d="M43.2883 85.3425L35.857 75.9146L34.7734 64.5918" stroke="#D87B5D" stroke-width="2.14" stroke-linecap="round" stroke-linejoin="round"/>
</svg>
