<svg width="142" height="123" viewBox="0 0 142 123" fill="none" xmlns="http://www.w3.org/2000/svg">
<g clip-path="url(#clip0_5741_42952)">
<path d="M72.3443 12.435C77.6147 17.3783 84.6059 20.0679 91.8291 19.9312C107.086 19.6217 132.741 22.5617 139.52 44.7581C149.368 76.9395 129.87 121.521 78.1232 122.987C26.3759 124.453 -24.2414 39.8108 12.5797 9.51212C26.1825 -1.67204 53.0057 -5.63508 72.3443 12.435Z" fill="#CDE3F0"/>
<path d="M53.0207 84.7107L48.0969 80.1975C47.7956 79.925 47.5683 79.5806 47.4359 79.1964C47.3036 78.8122 47.2707 78.4008 47.3402 78.0005C47.4096 77.6001 47.5793 77.2239 47.8333 76.9068C48.0874 76.5898 48.4175 76.3422 48.7929 76.1872C51.1302 75.2459 54.7393 75.233 59.0745 80.0557L65.7212 86.4816C65.7212 86.4816 53.3558 89.5979 53.0679 89.4904C52.7801 89.383 53.0207 84.7107 53.0207 84.7107Z" fill="#E6775A"/>
<path d="M91.7808 69.1038H57.7695V77.8981H91.7808V69.1038Z" fill="#FFAB66"/>
<path d="M90.529 69.1038H77.9102V77.8981H90.529V69.1038Z" fill="#EB9149"/>
<path d="M76.7304 69.1038H71.4414V77.8981H76.7304V69.1038Z" fill="#F79F59"/>
<path d="M63.6228 69.1038H60.7227V77.8981H63.6228V69.1038Z" fill="#FFC18F"/>
<path d="M91.7808 76.5913H57.7695V77.898H91.7808V76.5913Z" fill="#D67B2F"/>
<path d="M91.7808 77.9495H57.7695V86.7438H91.7808V77.9495Z" fill="#FFAB66"/>
<path d="M90.529 77.9495H77.9102V86.7438H90.529V77.9495Z" fill="#EB9149"/>
<path d="M76.7304 77.9495H71.4414V86.7438H76.7304V77.9495Z" fill="#F79F59"/>
<path d="M63.6228 77.9495H60.7227V86.7438H63.6228V77.9495Z" fill="#FFC18F"/>
<path d="M91.7808 85.4373H57.7695V86.7439H91.7808V85.4373Z" fill="#D67B2F"/>
<path d="M89.6948 60.5459H55.6836V69.3402H89.6948V60.5459Z" fill="#FFAB66"/>
<path d="M88.4353 60.5459H75.8164V69.3402H88.4353V60.5459Z" fill="#EB9149"/>
<path d="M74.6406 60.5459H69.3516V69.3402H74.6406V60.5459Z" fill="#F79F59"/>
<path d="M61.5291 60.5459H58.6289V69.3402H61.5291V60.5459Z" fill="#FFC18F"/>
<path d="M89.6948 68.0334H55.6836V69.3401H89.6948V68.0334Z" fill="#D67B2F"/>
<path d="M91.9995 51.9836H57.9883V60.778H91.9995V51.9836Z" fill="#FFAB66"/>
<path d="M90.7478 51.9836H78.1289V60.778H90.7478V51.9836Z" fill="#EB9149"/>
<path d="M76.9492 51.9836H71.6602V60.778H76.9492V51.9836Z" fill="#F79F59"/>
<path d="M63.8416 51.9836H60.9414V60.778H63.8416V51.9836Z" fill="#FFC18F"/>
<path d="M91.9995 59.4756H57.9883V60.7823H91.9995V59.4756Z" fill="#D67B2F"/>
<path d="M90.4253 43.1892H56.4141V51.9835H90.4253V43.1892Z" fill="#FFAB66"/>
<path d="M89.1697 43.1892H76.5508V51.9835H89.1697V43.1892Z" fill="#EB9149"/>
<path d="M75.375 43.1892H70.0859V51.9835H75.375V43.1892Z" fill="#F79F59"/>
<path d="M62.2634 43.1892H59.3633V51.9835H62.2634V43.1892Z" fill="#FFC18F"/>
<path d="M90.4253 50.677H56.4141V51.9837H90.4253V50.677Z" fill="#D67B2F"/>
<path d="M89.3199 34.5154H55.3086V43.3097H89.3199V34.5154Z" fill="#FFAB66"/>
<path d="M88.0642 34.5154H75.4453V43.3097H88.0642V34.5154Z" fill="#EB9149"/>
<path d="M74.2695 34.5154H68.9805V43.3097H74.2695V34.5154Z" fill="#F79F59"/>
<path d="M61.1619 34.5154H58.2617V43.3097H61.1619V34.5154Z" fill="#FFC18F"/>
<path d="M89.3199 42.0073H55.3086V43.314H89.3199V42.0073Z" fill="#D67B2F"/>
<path d="M92.2105 25.8457H58.1992V34.64H92.2105V25.8457Z" fill="#FFAB66"/>
<path d="M90.9548 25.8457H78.3359V34.64H90.9548V25.8457Z" fill="#EB9149"/>
<path d="M77.1562 25.8457H71.8672V34.64H77.1562V25.8457Z" fill="#F79F59"/>
<path d="M64.0486 25.8457H61.1484V34.64H64.0486V25.8457Z" fill="#FFC18F"/>
<path d="M92.2105 33.3333H58.1992V34.6399H92.2105V33.3333Z" fill="#D67B2F"/>
<path d="M90.937 16.9998H56.9258V25.7941H90.937V16.9998Z" fill="#FFAB66"/>
<path d="M89.6775 16.9998H77.0586V25.7941H89.6775V16.9998Z" fill="#EB9149"/>
<path d="M75.8867 16.9998H70.5977V25.7941H75.8867V16.9998Z" fill="#F79F59"/>
<path d="M62.7712 16.9998H59.8711V25.7941H62.7712V16.9998Z" fill="#FFC18F"/>
<path d="M90.937 24.4917H56.9258V25.7984H90.937V24.4917Z" fill="#D67B2F"/>
<path d="M122.486 47.4103C122.486 47.8209 122.365 48.2223 122.137 48.5637C121.909 48.9051 121.585 49.1712 121.205 49.3283C120.826 49.4855 120.409 49.5266 120.006 49.4465C119.604 49.3664 119.234 49.1687 118.944 48.8783C118.654 48.588 118.456 48.218 118.376 47.8153C118.296 47.4126 118.337 46.9952 118.494 46.6158C118.651 46.2365 118.917 45.9122 119.258 45.6841C119.6 45.456 120.001 45.3342 120.411 45.3342C120.962 45.3342 121.489 45.553 121.879 45.9423C122.268 46.3316 122.486 46.8597 122.486 47.4103Z" stroke="#6287BD" stroke-width="2" stroke-linecap="round" stroke-linejoin="round"/>
<path fill-rule="evenodd" clip-rule="evenodd" d="M62.8525 27.5651C63.3896 26.3186 64.2016 24.913 65.3144 24.1823C65.4225 24.1081 65.5109 24.0086 65.572 23.8926C65.6331 23.7765 65.6651 23.6473 65.6651 23.5161C65.6651 23.3849 65.6331 23.2557 65.572 23.1396C65.5109 23.0235 65.4225 22.9241 65.3144 22.8499C64.173 22.054 63.1957 21.0456 62.4358 19.8797C62.3591 19.7512 62.2483 19.6464 62.1156 19.5772C61.9829 19.508 61.8336 19.477 61.6843 19.4877C61.535 19.4984 61.3917 19.5503 61.2702 19.6378C61.1487 19.7252 61.054 19.8447 60.9964 19.9829C60.4834 21.1972 59.7088 22.2833 58.7279 23.1636C58.637 23.2456 58.5659 23.3471 58.52 23.4606C58.474 23.574 58.4545 23.6964 58.4628 23.8185C58.4711 23.9406 58.5069 24.0593 58.5677 24.1655C58.6285 24.2717 58.7127 24.3627 58.8138 24.4316C59.9461 25.2064 60.8273 26.2956 61.3487 27.5651C61.4097 27.7145 61.5138 27.8425 61.6477 27.9325C61.7816 28.0225 61.9393 28.0706 62.1006 28.0706C62.262 28.0706 62.4197 28.0225 62.5536 27.9325C62.6875 27.8425 62.7916 27.7145 62.8525 27.5651Z" fill="white"/>
<path d="M34.609 81.947C32.1685 80.1374 35.0687 78.0442 37.1869 78.9597C37.1869 78.9597 37.5263 76.6214 38.8582 76.2131C39.2363 76.097 43.4383 73.359 51.1592 78.921C51.1592 78.921 59.2323 81.7837 60.1819 82.4929C60.1819 82.4929 69.7029 83.6276 71.3528 84.7022C71.3528 84.7022 80.9383 82.8454 81.5012 82.5015C83.0093 81.5731 83.7225 79.7678 84.0791 78.4009L95.1125 67.3242C100.088 67.7197 110.021 69.1338 115.521 74.1757L123.061 81.0831L113.235 100.116L81.6731 102.54C81.6731 102.54 64.212 98.143 60.3193 96.7374C56.4267 95.3319 37.0666 83.7566 34.609 81.947Z" fill="#F9A17B"/>
<path d="M111.822 73.0237L134.907 85.9616C136.567 86.8915 138.01 88.1633 139.141 89.693C140.272 91.2227 141.066 92.9752 141.469 94.8347C141.872 96.6942 141.876 98.6181 141.481 100.479C141.085 102.34 140.299 104.096 139.174 105.631L138.985 105.888C137.9 107.362 136.525 108.598 134.946 109.522C133.366 110.446 131.615 111.038 129.799 111.261C127.983 111.484 126.141 111.335 124.385 110.821C122.629 110.307 120.996 109.441 119.586 108.274L107.985 98.6372C107.985 98.6372 105.15 86.2667 104.608 85.4844C100.243 79.1874 111.109 88.7168 111.109 88.7168L111.822 73.0237Z" fill="#F9A17B"/>
<path d="M38.0859 80.5112C38.0859 80.5112 58.7093 91.3902 59.0659 91.4504C59.4225 91.5106 78.5635 96.5224 80.8106 95.9034" stroke="#D87B5D" stroke-width="2.33" stroke-linecap="round" stroke-linejoin="round"/>
<path d="M84.1328 78.504C84.0784 77.8988 83.9735 77.2993 83.8191 76.7116C83.8191 76.7116 82.702 75.9852 78.6289 74.6871C75.544 73.7071 71.5697 72.6884 69.8855 72.3531C62.3795 70.8401 61.0089 69.6839 60.9144 67.3413C60.8623 66.7967 60.9802 66.2493 61.2518 65.7744C61.5234 65.2995 61.9353 64.9204 62.4311 64.6893C65.0992 63.6362 70.5343 65.0503 73.5375 65.2567C77.4689 65.5189 87.3165 65.6865 87.3165 65.6865C87.3165 65.6865 93.8644 66.1163 96.4208 67.3499L84.1328 78.504Z" fill="#F9A17B"/>
</g>
<defs>
<clipPath id="clip0_5741_42952">
<rect width="142" height="123" fill="white"/>
</clipPath>
</defs>
</svg>
