<svg width="161" height="127" viewBox="0 0 161 127" fill="none" xmlns="http://www.w3.org/2000/svg">
<path d="M37.2043 12.7089C-2.85249 36.7971 -11.856 93.1274 21.2124 118.391C35.4465 129.273 55.4684 128.329 68.995 116.581L69.5267 116.113C74.191 112.095 79.6017 109.037 85.4489 107.114C91.2961 105.191 97.4651 104.44 103.603 104.906C130.36 106.853 157.062 102.808 160.689 77.1244C165.842 40.6403 105.738 -28.519 37.2043 12.7089Z" fill="#CDE3F0"/>
<path d="M102.044 17.7359L99.776 15.883L102.807 14.8064C104.321 15.098 109.045 15.9816 114.687 16.8824C118.409 17.4743 120.145 16.1017 120.956 14.7163C121.107 14.4492 121.197 14.152 121.221 13.8459C121.244 13.5398 121.199 13.2323 121.09 12.9455C120.98 12.6586 120.809 12.3995 120.588 12.1866C120.367 11.9737 120.101 11.8123 119.811 11.7138L103.948 6.18934C102.171 5.56782 100.246 5.51535 98.4383 6.03922C88.646 8.87439 56.4222 18.6667 54.1199 25.4737C52.6579 29.8143 61.5971 33.1213 58.7417 41.0349L68.2596 43.098C72.928 44.1114 77.7654 44.0527 82.4079 42.9265L88.0286 41.5711C89.0018 41.3352 92.093 39.2335 99.5402 44.7194C106.216 50.4369 111.056 46.4651 111.082 44.5521C111.082 43.75 109.611 43.6042 110.096 43.9387C114.031 46.6624 117.556 44.2175 116.527 42.459C115.669 41.0392 113.843 38.8689 113.268 37.5778C113.856 38.6544 117.243 41.6183 120.986 38.4013C121.959 37.5435 112.707 26.2328 112.707 26.2328C112.647 24.8817 102.044 17.7359 102.044 17.7359ZM101.718 39.435C101.779 39.4261 101.841 39.4261 101.902 39.435H101.718Z" fill="#F9A17B"/>
<path d="M83.168 25.0576L93.1789 24.1397C94.1274 23.9412 95.1104 23.9819 96.0393 24.2582C96.9681 24.5345 97.8136 25.0377 98.4996 25.7224L111.212 36.4927" stroke="#D87B5D" stroke-width="2.06" stroke-linecap="round" stroke-linejoin="round"/>
<path d="M106.952 42.4033C105.297 40.9107 97.8243 36.0853 96.3409 34.9787C94.1972 33.3659 92.4137 32.877 89.7255 33.04L83.9805 33.752" stroke="#D87B5D" stroke-width="2.06" stroke-linecap="round" stroke-linejoin="round"/>
<path d="M86.7695 18.1905L97.9424 16.552" stroke="#D87B5D" stroke-width="2.06" stroke-linecap="round" stroke-linejoin="round"/>
<path d="M55.7065 23.8223L31.6288 37.0674C25.0348 40.8247 22.5567 49.223 26.2824 55.837L26.4239 56.0815C27.4516 57.8336 28.8503 59.3394 30.5219 60.493C32.1934 61.6466 34.0971 62.42 36.0993 62.7589C38.1016 63.0978 40.1537 62.9939 42.1115 62.4546C44.0693 61.9153 45.8853 60.9537 47.432 59.6372L68.6587 41.6225L55.7065 23.8223Z" fill="#F9A17B"/>
<path d="M43.227 12.3787C43.2279 12.7752 43.1111 13.1631 42.8914 13.4931C42.6717 13.8232 42.3591 14.0806 41.9931 14.2327C41.627 14.3849 41.2241 14.4249 40.8353 14.3477C40.4465 14.2706 40.0894 14.0797 39.8091 13.7993C39.5288 13.5189 39.338 13.1616 39.2609 12.7727C39.1838 12.3837 39.2238 11.9806 39.3759 11.6144C39.528 11.2482 39.7852 10.9354 40.1151 10.7157C40.4451 10.4959 40.8328 10.379 41.2291 10.3799C41.7586 10.381 42.2662 10.592 42.6406 10.9666C43.015 11.3412 43.2259 11.8489 43.227 12.3787Z" stroke="#6287BD" stroke-width="1.93" stroke-linecap="round" stroke-linejoin="round"/>
<g clip-path="url(#clip0_5747_35836)">
<path d="M82.7935 69.0312H51V98H82.7935V69.0312Z" fill="#8EB368"/>
<path d="M66.8977 49L51 69.0313H82.7935L66.8977 49Z" fill="#8EB368"/>
<path d="M66.8984 49H96.7231L111.886 69.0313H82.7943L66.8984 49Z" fill="#5C7A3D"/>
<path d="M111.999 69.0312H82.793V98H111.999V69.0312Z" fill="#7C9C5B"/>
<path d="M63.4093 69.7812H60.4453V74.7402H63.4093V69.7812Z" fill="#7C9C5B"/>
<path d="M70.4991 69.7812H67.5352V74.7402H70.4991V69.7812Z" fill="#7C9C5B"/>
<path d="M63.4098 77.96H60.5039V82.9189H63.4098V77.96Z" fill="#7C9C5B"/>
<path d="M70.4991 77.96H67.5352V82.9189H70.4991V77.96Z" fill="#7C9C5B"/>
<path d="M77.207 49.3926L92.1959 68.4574" stroke="#3D5931" stroke-width="2.47" stroke-linecap="round" stroke-linejoin="round"/>
<path d="M88.4961 49.3926L103.485 68.4574" stroke="#3D5931" stroke-width="2.47" stroke-linecap="round" stroke-linejoin="round"/>
<path d="M74.4688 58.4832H103.524" stroke="#3D5931" stroke-width="2.47" stroke-linecap="round" stroke-linejoin="round"/>
</g>
<path d="M30.9264 94.5429C29.1214 92.4712 32.084 89.0055 33.7946 90.1936C33.7946 90.1936 36.3671 83.9742 46.3523 92.3897C46.3523 92.3897 52.9935 96.3443 53.7009 97.155C53.7009 97.155 62.0098 99.7285 63.2788 101.015C63.2788 101.015 72.2823 100.818 72.8654 100.586C74.4174 99.9601 75.4378 98.3989 76.038 97.1765L87.0651 88.0147C91.4511 89.1813 101.325 92.6856 105.188 98.2573L110.487 105.896L102.77 114.904C101.62 116.243 100.196 117.32 98.5932 118.06C96.9909 118.8 95.2481 119.186 93.4832 119.193L75.7593 119.262C71.026 119.268 66.3289 118.435 61.8854 116.804C56.6163 114.878 49.9323 112.343 48.0759 111.228C44.8603 109.289 32.7314 96.6231 30.9264 94.5429Z" fill="#F9A17B"/>
<path d="M94.8125 94.6716L110.496 83.0907C111.991 82.0322 113.695 81.3036 115.493 80.9532C117.292 80.6028 119.144 80.6387 120.928 81.0584C122.711 81.4781 124.385 82.2721 125.839 83.3878C127.293 84.5035 128.493 85.9154 129.36 87.5301C129.411 87.6201 129.459 87.7102 129.506 87.8003C130.342 89.3565 130.851 91.0674 131.002 92.8277C131.153 94.5881 130.943 96.3607 130.384 98.0367C129.825 99.7127 128.929 101.257 127.752 102.574C126.575 103.891 125.141 104.953 123.538 105.695L99.6701 117.456C99.6701 117.456 98.431 109.139 97.5264 109.285C90.2379 110.473 103.031 104.97 103.031 104.97L94.8125 94.6716Z" fill="#F9A17B"/>
<path d="M34.3086 90.8928C34.3086 90.8928 47.9124 103.194 48.2596 103.332C53.8479 106.482 59.7827 108.974 65.945 110.756" stroke="#D87B5D" stroke-width="2.25" stroke-linecap="round" stroke-linejoin="round"/>
<path d="M77.4187 100.351C77.2922 99.7805 77.1172 99.2223 76.8957 98.6821C76.8957 98.6821 75.7381 98.1245 71.6822 97.3953C68.6168 96.8463 64.6938 96.3745 63.0432 96.2629C55.6904 95.7611 54.2327 94.8261 53.8511 92.6042C53.7363 92.0907 53.7816 91.5543 53.9809 91.0673C54.1802 90.5803 54.5239 90.1661 54.9658 89.8806C57.3796 88.5381 62.7474 89.2115 65.6413 89.0228C69.4271 88.7826 78.8507 87.6974 78.8507 87.6974C78.8507 87.6974 85.1574 87.2899 87.7512 88.1263L77.4187 100.351Z" fill="#F9A17B"/>
<defs>
<clipPath id="clip0_5747_35836">
<rect width="61" height="49" fill="white" transform="translate(51 49)"/>
</clipPath>
</defs>
</svg>
