<svg width="152" height="126" viewBox="0 0 152 126" fill="none" xmlns="http://www.w3.org/2000/svg">
<path d="M67.6077 0.0807385C22.0249 1.90667 -12.2113 46.1079 4.15309 83.4353C11.2036 99.5112 28.7637 108.147 45.8625 104.423L46.5373 104.274C52.4155 103.018 58.4859 102.94 64.3946 104.046C70.3032 105.151 75.932 107.418 80.9528 110.714C102.911 125.01 127.65 134.123 142.849 113.748C164.44 84.8186 145.629 -3.04336 67.6077 0.0807385Z" fill="#CDE3F0"/>
<path d="M61.5283 110.356C61.5292 110.764 61.4086 111.163 61.1818 111.502C60.955 111.842 60.6322 112.107 60.2543 112.263C59.8765 112.419 59.4606 112.461 59.0592 112.381C58.6579 112.302 58.2892 112.106 57.9999 111.817C57.7106 111.529 57.5137 111.161 57.434 110.761C57.3544 110.361 57.3957 109.947 57.5527 109.57C57.7097 109.194 57.9752 108.872 58.3158 108.646C58.6563 108.42 59.0565 108.3 59.4657 108.301C60.0124 108.302 60.5364 108.519 60.923 108.904C61.3095 109.289 61.5272 109.811 61.5283 110.356Z" stroke="#6287BD" stroke-width="2" stroke-linecap="round" stroke-linejoin="round"/>
<path d="M95.8107 87.2915L53.9603 87.3383C53.0102 87.3464 52.0951 86.981 51.4133 86.3214C50.7315 85.6618 50.3379 84.761 50.3177 83.8142L49.8906 27.0314C49.8923 26.5646 49.9865 26.1027 50.168 25.6723C50.3494 25.2419 50.6145 24.8515 50.9479 24.5235C51.2812 24.1956 51.6764 23.9366 52.1106 23.7615C52.5447 23.5863 53.0094 23.4985 53.4778 23.503L95.3281 23.4604C96.2782 23.4501 97.194 23.8142 97.8761 24.4734C98.5583 25.1325 98.9517 26.0335 98.9708 26.9803L99.3979 83.7631C99.3968 84.2301 99.3029 84.6922 99.1216 85.1229C98.9404 85.5535 98.6754 85.9442 98.3419 86.2722C98.0084 86.6002 97.613 86.8592 97.1786 87.0341C96.7441 87.2091 96.2792 87.2966 95.8107 87.2915Z" fill="#7A92E6"/>
<path d="M90.6875 44.1416L57.7154 44.1756C57.1014 44.1814 56.5098 43.9454 56.0693 43.5191C55.6287 43.0928 55.3747 42.5104 55.3624 41.8985L55.2812 31.2579C55.2824 30.9565 55.3432 30.6582 55.4602 30.3803C55.5772 30.1023 55.7482 29.8501 55.9632 29.6382C56.1782 29.4262 56.4331 29.2587 56.7133 29.1451C56.9935 29.0316 57.2934 28.9743 57.5958 28.9765L90.5722 28.9425C91.1858 28.9368 91.7769 29.1728 92.2167 29.5993C92.6566 30.0257 92.9097 30.6081 92.9209 31.2196L93.0063 41.8815C92.9985 42.4874 92.75 43.0654 92.3154 43.489C91.8807 43.9126 91.2953 44.1473 90.6875 44.1416Z" fill="#4550E5"/>
<path d="M90.6875 44.1416L57.7154 44.1756C57.1014 44.1814 56.5098 43.9454 56.0693 43.5191C55.6287 43.0928 55.3747 42.5104 55.3624 41.8985L55.2812 31.2579C55.2824 30.9565 55.3432 30.6582 55.4602 30.3803C55.5772 30.1023 55.7482 29.8501 55.9632 29.6382C56.1782 29.4262 56.4331 29.2587 56.7133 29.1451C56.9935 29.0316 57.2934 28.9743 57.5958 28.9765L90.5722 28.9425C91.1858 28.9368 91.7769 29.1728 92.2167 29.5993C92.6566 30.0257 92.9097 30.6081 92.9209 31.2196L93.0063 41.8815C92.9985 42.4874 92.75 43.0654 92.3154 43.489C91.8807 43.9126 91.2953 44.1473 90.6875 44.1416Z" stroke="white" stroke-width="1.57" stroke-linecap="round" stroke-linejoin="round"/>
<path d="M61.9046 57.3148H58.5908C57.8757 57.3159 57.1892 57.035 56.6811 56.5334C56.173 56.0319 55.8847 55.3503 55.879 54.6376C55.8756 54.2811 55.9432 53.9274 56.0777 53.5971C56.2123 53.2667 56.4112 52.9662 56.663 52.7129C56.9147 52.4597 57.2143 52.2586 57.5445 52.1214C57.8746 51.9842 58.2288 51.9136 58.5865 51.9136H61.9004C62.6159 51.9136 63.3024 52.1954 63.8104 52.6976C64.3183 53.1999 64.6065 53.8819 64.6121 54.595C64.6144 54.951 64.546 55.3039 64.411 55.6335C64.276 55.9631 64.077 56.2629 63.8254 56.5156C63.5739 56.7683 63.2746 56.969 62.945 57.1062C62.6154 57.2433 62.2618 57.3142 61.9046 57.3148Z" fill="white"/>
<path d="M75.9398 57.2977H72.6259C71.9104 57.2977 71.2239 57.0159 70.7159 56.5136C70.208 56.0114 69.9198 55.3293 69.9141 54.6162C69.9113 54.2601 69.9793 53.9069 70.1141 53.577C70.2489 53.2472 70.4479 52.9472 70.6996 52.6944C70.9513 52.4415 71.2507 52.2408 71.5806 52.1039C71.9105 51.967 72.2643 51.8965 72.6216 51.8965H75.9355C76.651 51.8942 77.3381 52.1747 77.8464 52.6766C78.3547 53.1784 78.6427 53.8606 78.6472 54.5737C78.6506 54.9302 78.5831 55.2838 78.4485 55.6142C78.314 55.9445 78.1151 56.245 77.8634 56.4983C77.6116 56.7516 77.312 56.9527 76.9818 57.0899C76.6516 57.2271 76.2975 57.2977 75.9398 57.2977Z" fill="white"/>
<path d="M90.1116 57.2808H86.7977C86.0819 57.282 85.3947 57.0005 84.8865 56.498C84.3783 55.9955 84.0905 55.3129 84.086 54.5994C84.0832 54.2432 84.1511 53.89 84.2859 53.5602C84.4207 53.2303 84.6197 52.9303 84.8714 52.6775C85.1231 52.4247 85.4226 52.224 85.7524 52.0871C86.0823 51.9501 86.4361 51.8796 86.7935 51.8796H90.1073C90.8229 51.8796 91.5094 52.1614 92.0173 52.6637C92.5252 53.166 92.8134 53.848 92.8191 54.5611C92.8219 54.9172 92.7539 55.2704 92.6191 55.6003C92.4843 55.9301 92.2854 56.2301 92.0337 56.483C91.782 56.7358 91.4826 56.9365 91.1527 57.0734C90.8228 57.2104 90.469 57.2808 90.1116 57.2808Z" fill="white"/>
<path d="M61.9827 67.419H58.6731C57.9572 67.4191 57.2702 67.1374 56.7616 66.6352C56.253 66.1331 55.9639 65.4511 55.9571 64.7376C55.9543 64.3814 56.0222 64.0282 56.157 63.6984C56.2918 63.3685 56.4908 63.0685 56.7425 62.8157C56.9942 62.5629 57.2937 62.3622 57.6235 62.2253C57.9534 62.0883 58.3072 62.0178 58.6646 62.0178H61.9784C62.6943 62.0167 63.3815 62.2981 63.8897 62.8007C64.3978 63.3032 64.6856 63.9858 64.6902 64.6993C64.6935 65.0556 64.626 65.409 64.4914 65.7391C64.3568 66.0693 64.1578 66.3695 63.906 66.6224C63.6542 66.8753 63.3546 67.076 63.0245 67.2128C62.6943 67.3495 62.3402 67.4196 61.9827 67.419Z" fill="white"/>
<path d="M76.0221 67.4064H72.7082C71.9923 67.4065 71.3054 67.1248 70.7968 66.6226C70.2881 66.1205 69.999 65.4385 69.9922 64.725C69.99 64.3688 70.0583 64.0156 70.1933 63.6858C70.3282 63.356 70.5271 63.0559 70.7787 62.8028C71.0302 62.5498 71.3293 62.3487 71.659 62.2111C71.9886 62.0735 72.3423 62.0021 72.6997 62.001H76.0136C76.7295 62.0009 77.4165 62.2826 77.9251 62.7848C78.4337 63.2869 78.7228 63.9689 78.7296 64.6824C78.7318 65.0386 78.6635 65.3918 78.5285 65.7216C78.3936 66.0514 78.1947 66.3515 77.9431 66.6045C77.6916 66.8576 77.3925 67.0587 77.0628 67.1963C76.7332 67.3339 76.3795 67.4053 76.0221 67.4064Z" fill="white"/>
<path d="M90.1858 67.3892H86.8762C86.1603 67.3893 85.4733 67.1076 84.9647 66.6054C84.4561 66.1033 84.167 65.4213 84.1602 64.7078C84.1574 64.3516 84.2254 63.9984 84.3602 63.6686C84.495 63.3387 84.6939 63.0387 84.9456 62.7859C85.1973 62.5331 85.4967 62.3324 85.8266 62.1955C86.1565 62.0585 86.5103 61.988 86.8677 61.988H90.1816C90.8974 61.9869 91.5845 62.2684 92.0927 62.7709C92.6009 63.2734 92.8888 63.956 92.8933 64.6695C92.8967 65.0258 92.8291 65.3792 92.6945 65.7094C92.5599 66.0395 92.361 66.3397 92.1091 66.5926C91.8573 66.8456 91.5577 67.0462 91.2275 67.183C90.8974 67.3197 90.5433 67.3898 90.1858 67.3892Z" fill="white"/>
<path d="M62.0609 77.5277H58.7471C58.0312 77.5288 57.344 77.2473 56.8358 76.7448C56.3276 76.2423 56.0398 75.5597 56.0353 74.8462C56.0319 74.4903 56.0994 74.1372 56.2337 73.8074C56.368 73.4775 56.5666 73.1775 56.8179 72.9246C57.0693 72.6717 57.3684 72.471 57.6981 72.334C58.0277 72.197 58.3813 72.1265 58.7385 72.1265H62.0524C62.7679 72.1253 63.4549 72.4061 63.9636 72.9075C64.4723 73.409 64.7616 74.0905 64.7684 74.8036C64.7718 75.1602 64.7042 75.5138 64.5696 75.8442C64.4351 76.1745 64.2362 76.475 63.9845 76.7283C63.7327 76.9816 63.4331 77.1826 63.1029 77.3198C62.7728 77.457 62.4186 77.5277 62.0609 77.5277Z" fill="white"/>
<path d="M76.1 77.5108H72.7861C72.0707 77.5131 71.3835 77.2325 70.8752 76.7307C70.3668 76.2289 70.0789 75.5467 70.0743 74.8336C70.071 74.4771 70.1385 74.1235 70.2731 73.7931C70.4076 73.4628 70.6065 73.1623 70.8583 72.909C71.11 72.6557 71.4096 72.4546 71.7398 72.3174C72.0699 72.1802 72.4241 72.1096 72.7818 72.1096H76.0957C76.8112 72.1096 77.4977 72.3914 78.0057 72.8937C78.5136 73.396 78.8018 74.0779 78.8074 74.7911C78.8102 75.1472 78.7423 75.5004 78.6075 75.8303C78.4727 76.1601 78.2737 76.4601 78.022 76.7129C77.7703 76.9658 77.4709 77.1664 77.141 77.3034C76.8111 77.4403 76.4573 77.5108 76.1 77.5108Z" fill="white"/>
<path d="M90.2679 77.498H86.954C86.2381 77.4991 85.551 77.2177 85.0428 76.7152C84.5346 76.2127 84.2468 75.53 84.2423 74.8166C84.2395 74.4606 84.3072 74.1075 84.4417 73.7777C84.5762 73.4479 84.7748 73.1478 85.0259 72.8947C85.2771 72.6416 85.576 72.4404 85.9054 72.3028C86.2348 72.1651 86.5882 72.0937 86.9454 72.0925H90.2593C90.9752 72.0903 91.6628 72.3707 92.1718 72.8724C92.6808 73.3741 92.9697 74.0563 92.9753 74.7697C92.9787 75.1265 92.9112 75.4803 92.7767 75.8109C92.6422 76.1415 92.4434 76.4422 92.1917 76.6959C91.94 76.9495 91.6404 77.151 91.3102 77.2886C90.9801 77.4263 90.6258 77.4975 90.2679 77.498Z" fill="#F9B589"/>
<path d="M58.5578 41.639C58.3089 41.6413 58.0692 41.5455 57.8909 41.3725C57.7125 41.1996 57.61 40.9634 57.6055 40.7154C57.606 40.5932 57.6308 40.4723 57.6784 40.3596C57.726 40.247 57.7953 40.1448 57.8826 40.059C57.9699 39.9732 58.0734 39.9054 58.1871 39.8595C58.3007 39.8137 58.4223 39.7907 58.5449 39.7918C58.7935 39.7906 59.0325 39.8867 59.2106 40.0595C59.3887 40.2322 59.4917 40.4678 59.4973 40.7154C59.4967 40.8376 59.4719 40.9585 59.4244 41.0711C59.3768 41.1838 59.3074 41.2859 59.2201 41.3718C59.1328 41.4576 59.0293 41.5254 58.9157 41.5712C58.802 41.6171 58.6804 41.6401 58.5578 41.639Z" fill="white"/>
<path d="M60.457 82.001L87.8135 81.9712" stroke="white" stroke-width="1.57" stroke-linecap="round" stroke-linejoin="round"/>
<path d="M102.119 93.4922C102.119 93.4922 91.7437 84.2366 87.5237 80.9747C83.3037 77.7128 84.5412 73.5466 90.0621 75.3397C95.583 77.1328 98.9907 79.587 98.9907 79.587C98.9907 79.587 95.8178 74.164 92.1879 64.7213C91.0171 61.6777 89.0594 57.2776 88.5994 55.7558C87.6475 52.6623 86.8606 51.0781 88.8405 50.1644C90.6395 49.3411 92.7464 51.7236 94.6977 54.7704C97.9944 59.9158 101.044 67.4126 102.509 70.6027C102.509 70.6027 97.6771 62.4667 101.507 60.9761C105.882 59.2672 108.643 65.3793 110.144 69.979C110.144 69.979 106.625 63.7421 108.24 62.0644C110.74 59.4605 114.094 61.5748 115.455 63.9573C114.893 62.9532 118.688 59.2796 122.753 66.3523C126.513 72.901 138.164 90.2552 120.481 97.6429C109.357 102.296 102.119 93.4922 102.119 93.4922Z" fill="#F9A17B"/>
<path d="M99.0039 63C99.0039 63 102.132 69.628 104.004 74" stroke="#D87B5D" stroke-width="3.45" stroke-linecap="round" stroke-linejoin="round"/>
<path d="M107.004 64C107.004 64 110.057 67.9291 111.004 71" stroke="#D87B5D" stroke-width="3.45" stroke-linecap="round" stroke-linejoin="round"/>
<path d="M115.004 64C115.904 65.5586 116.578 67.2429 117.004 69" stroke="#D87B5D" stroke-width="3.45" stroke-linecap="round" stroke-linejoin="round"/>
<path d="M109.004 93.2939L125.008 108.676C129.714 113.202 137.208 113.114 141.697 108.362L141.864 108.187C146.869 102.767 145.734 94.0807 139.574 90.0496L119.619 77L109.004 93.2939Z" fill="#F9A17B"/>
<path d="M22.6868 72.4755C22.7018 73.0754 22.8384 73.6661 23.0883 74.2121C23.5191 75.1579 24.2644 75.9263 25.1982 76.3875C26.132 76.8487 27.197 76.9743 28.213 76.743C29.229 76.5118 30.1337 75.9379 30.7741 75.1184C31.4145 74.2989 31.7512 73.2841 31.7274 72.2457C31.7042 71.644 31.5589 71.0533 31.3003 70.5091C30.8713 69.5616 30.1265 68.7912 29.1925 68.3287C28.2584 67.8662 27.1925 67.74 26.1758 67.9715C25.159 68.2031 24.2539 68.7781 23.6141 69.5991C22.9742 70.42 22.6391 71.4363 22.6655 72.4755H22.6868ZM30.0405 71.0624C30.2898 71.6089 30.3709 72.2167 30.2736 72.809C30.1763 73.4014 29.9049 73.9517 29.4938 74.3903C29.0827 74.8289 28.5502 75.1362 27.9639 75.2732C27.3776 75.4102 26.7636 75.3709 26.1997 75.1601C25.6358 74.9493 25.1473 74.5766 24.7959 74.0891C24.4445 73.6016 24.2461 73.0212 24.2257 72.4213C24.2054 71.8214 24.3639 71.229 24.6814 70.7189C24.9988 70.2088 25.461 69.804 26.0093 69.5557C26.7429 69.2232 27.5788 69.1936 28.3342 69.4736C29.0896 69.7535 29.7031 70.3202 30.0405 71.0497V71.0624Z" fill="#C5CBEB"/>
<path d="M33.5814 82.201C33.6066 82.8038 33.7518 83.3955 34.0084 83.9419C34.4833 84.9429 35.3141 85.7326 36.3399 86.1579C37.3657 86.5832 38.5134 86.6138 39.5605 86.2437C40.6076 85.8737 41.4797 85.1294 42.0076 84.1551C42.5354 83.1808 42.6816 82.0458 42.4178 80.9702C42.1539 79.8945 41.4988 78.9549 40.5794 78.3332C39.66 77.7116 38.5417 77.4523 37.4414 77.6055C36.3411 77.7588 35.3371 78.3137 34.6239 79.1628C33.9108 80.0118 33.5392 81.0945 33.5814 82.201ZM40.935 80.7922C41.1835 81.338 41.264 81.9449 41.1664 82.5362C41.0689 83.1275 40.7975 83.6768 40.3868 84.1144C39.9761 84.5521 39.4444 84.8586 38.8589 84.9951C38.2734 85.1316 37.6605 85.0921 37.0976 84.8815C36.5347 84.6709 36.047 84.2986 35.6963 83.8118C35.3457 83.325 35.1476 82.7456 35.1274 82.1466C35.1071 81.5477 35.2654 80.9562 35.5823 80.4469C35.8993 79.9377 36.3607 79.5335 36.908 79.2855C37.2717 79.1208 37.6644 79.0291 38.0636 79.0156C38.4628 79.0022 38.8608 79.0673 39.2348 79.2072C39.6088 79.3471 39.9514 79.5591 40.2431 79.8311C40.5349 80.1031 40.77 80.4297 40.935 80.7922Z" fill="#C5CBEB"/>
<path d="M39.009 70.8029L26.5734 85.636C26.4065 85.834 26.1677 85.9581 25.9093 85.9812C25.6509 86.0043 25.3937 85.9246 25.1941 85.7594C24.9954 85.593 24.8709 85.355 24.8477 85.0975C24.8245 84.8399 24.9045 84.5836 25.0702 84.3846L37.5058 69.5516C37.6727 69.3536 37.9115 69.2294 38.1699 69.2063C38.4284 69.1832 38.6855 69.2629 38.8852 69.4281C39.0838 69.5945 39.2084 69.8325 39.2316 70.0901C39.2548 70.3477 39.1747 70.6039 39.009 70.8029Z" fill="#C5CBEB"/>
<path d="M108.54 23.6477H127.377V36.2377H107.891V26.7973" stroke="#BCC2E0" stroke-width="2" stroke-linecap="round" stroke-linejoin="round"/>
<path d="M109.438 25.1885L117.884 31.4111L127.378 23.6477" stroke="#BCC2E0" stroke-width="2" stroke-linecap="round" stroke-linejoin="round"/>
<path d="M49.9377 34.6899C54.8925 29.7516 54.8924 21.745 49.9377 16.8067C44.9829 11.8683 36.9496 11.8683 31.9949 16.8067C27.0401 21.745 27.0401 29.7516 31.9948 34.6899C36.9496 39.6282 44.9829 39.6282 49.9377 34.6899Z" fill="#F79F59"/>
<path d="M35.1094 23.5031L40.6908 31.4836L47.4851 19.8726" stroke="white" stroke-width="2.15" stroke-linecap="round" stroke-linejoin="round"/>
</svg>
