<svg width="122" height="399" viewBox="0 0 122 399" fill="none" xmlns="http://www.w3.org/2000/svg">
<g clip-path="url(#clip0_2190_16778)">
<path d="M80.3293 33.7343C80.862 20.8822 71.8115 10.4411 59.5069 10.4411C56.5496 10.4294 53.6236 11.0445 50.9224 12.2457C48.2212 13.4469 45.8066 15.2067 43.8381 17.4088C41.8696 19.6108 40.3923 22.2048 39.5039 25.0192C38.6154 27.8336 38.3361 30.8042 38.6845 33.7343C40.1372 46.5574 47.2071 55.5781 59.5069 55.5781C71.8066 55.5781 79.8451 45.4317 80.3293 33.7343Z" fill="#13182B"/>
<path d="M74.7615 37.9426C74.7615 37.6189 76.6984 35.2804 77.9914 35.7684C80.3303 36.6526 79.0615 44.2382 76.1318 45.3495C74.437 45.9969 73.793 44.0643 73.793 44.0643L74.7615 37.9426Z" fill="#B04949"/>
<path d="M75.5525 41.6873H75.5138C75.4177 41.6764 75.3299 41.6282 75.2692 41.5531C75.2084 41.4781 75.1798 41.3823 75.1893 41.2863C75.5525 37.9042 77.5185 37.822 77.6105 37.822C77.7066 37.8231 77.7986 37.8607 77.8679 37.9271C77.9372 37.9936 77.9785 38.0838 77.9834 38.1796C77.9847 38.2748 77.9483 38.3668 77.8821 38.4355C77.816 38.5043 77.7254 38.5442 77.6299 38.5468C77.5621 38.5468 76.2111 38.6579 75.9205 41.3636C75.9108 41.4537 75.8677 41.5369 75.7996 41.5968C75.7314 41.6568 75.6433 41.689 75.5525 41.6873Z" fill="#852726"/>
<path d="M77.1258 45.1081C77.2104 44.9651 77.2632 44.8057 77.2805 44.6405C77.2978 44.4754 77.2792 44.3085 77.226 44.1512C77.1728 43.9939 77.0862 43.8499 76.9722 43.729C76.8582 43.6081 76.7193 43.5132 76.5652 43.4507C76.411 43.3882 76.2452 43.3596 76.079 43.3668C75.9127 43.3741 75.75 43.417 75.6019 43.4927C75.4538 43.5683 75.3238 43.675 75.2207 43.8053C75.1177 43.9357 75.044 44.0867 75.0048 44.248C74.9201 44.3909 74.8673 44.5504 74.85 44.7155C74.8327 44.8806 74.8513 45.0475 74.9045 45.2048C74.9577 45.3621 75.0443 45.5062 75.1583 45.627C75.2724 45.7479 75.4112 45.8429 75.5654 45.9054C75.7195 45.9679 75.8854 45.9965 76.0516 45.9892C76.2178 45.982 76.3805 45.9391 76.5286 45.8634C76.6767 45.7877 76.8067 45.6811 76.9098 45.5507C77.0128 45.4204 77.0865 45.2694 77.1258 45.1081Z" fill="#FABC70"/>
<path d="M45.8725 37.9426C45.8725 37.6189 43.9355 35.2804 42.6474 35.7684C40.3037 36.6526 41.5725 44.2382 44.5021 45.3495C46.197 45.9969 46.841 44.0643 46.841 44.0643L45.8725 37.9426Z" fill="#B04949"/>
<path d="M45.0986 41.6871C45.0232 41.6874 44.9497 41.6643 44.8881 41.6211C44.8265 41.5778 44.7799 41.5164 44.7548 41.4456C43.9703 39.2568 42.8517 38.4934 42.8178 38.4886C42.7369 38.4361 42.6802 38.3536 42.6602 38.2594C42.6403 38.1652 42.6586 38.0669 42.7112 37.9861C42.7639 37.9054 42.8466 37.8488 42.941 37.8289C43.0355 37.809 43.134 37.8273 43.2149 37.8798C43.2681 37.9136 44.5369 38.7592 45.4182 41.204C45.4366 41.2502 45.4455 41.2997 45.4441 41.3494C45.4428 41.3991 45.4314 41.448 45.4106 41.4932C45.3897 41.5384 45.36 41.5789 45.323 41.6122C45.286 41.6455 45.2426 41.671 45.1954 41.6871C45.1633 41.6916 45.1307 41.6916 45.0986 41.6871Z" fill="#852726"/>
<path d="M43.5148 45.108C43.4611 44.8929 43.4706 44.667 43.542 44.4572C43.6135 44.2474 43.744 44.0625 43.9179 43.9247C44.0918 43.7868 44.3019 43.7018 44.5229 43.6798C44.7439 43.6578 44.9666 43.6997 45.1644 43.8005C45.3622 43.9013 45.5267 44.0568 45.6383 44.2484C45.75 44.44 45.804 44.6596 45.794 44.881C45.7839 45.1024 45.7103 45.3162 45.5817 45.497C45.4532 45.6777 45.2753 45.8178 45.0692 45.9004C44.7577 45.9982 44.4202 45.9699 44.1294 45.8217C43.8387 45.6734 43.6179 45.4171 43.5148 45.108Z" fill="#FABC70"/>
<path d="M90.8259 214.215C90.7678 214.698 35.9855 215.766 33.2011 207.45C33.0122 206.644 23.5162 158.105 26.2619 126.762C29.0075 95.4196 25.1142 83.3792 24.969 82.6352C24.6784 78.852 32.31 72.7303 42.7309 70.1406C49.2198 68.5027 55.7377 67.0387 61.6842 67.0049C74.6425 66.9324 86.8939 72.4501 85.4799 71.8365C85.9544 93.1198 98.0605 196.173 90.8259 214.215Z" fill="#DADEEA"/>
<path d="M79.1523 349.838C79.1523 349.838 79.9949 366.923 79.7722 369.015C79.6075 370.595 78.9151 375.224 79.4913 378.166C81.2298 387.129 78.3195 388.182 79.7092 391.941C80.1547 393.149 86.1835 398.734 88.0527 398.517C89.5781 398.338 91.6797 395.338 92.4932 390.738C92.8274 388.839 89.9413 379.026 89.5878 377.321C89.1035 375.103 87.9849 370.073 87.9849 370.073L90.2851 349.345L79.1523 349.838Z" fill="#B04949"/>
<path d="M80.036 384.583C79.8326 388.056 78.7527 389.361 79.7115 391.946C80.157 393.154 86.1858 398.739 88.055 398.522C89.5803 398.343 91.682 395.343 92.4955 390.743C92.6505 389.863 92.1129 387.274 91.4544 384.583C90.8862 386.762 89.5659 388.671 87.7257 389.975C84.5055 388.873 81.4161 387.047 80.036 384.583Z" fill="#FA98B5"/>
<path d="M16.1768 348.258C15.7458 348.833 15.9056 365.483 15.741 368.643C15.218 378.852 10.6032 386.433 10.6807 388.481C10.884 394.154 12.821 399.111 14.666 399C16.8935 398.85 22.162 395.656 23.8085 391.753C24.2636 390.665 23.7552 386.496 23.6002 385.09C23.0675 380.287 24.5396 374.46 24.3895 371.774C24.2104 368.392 26.4185 350.157 26.4185 350.157L16.1768 348.258Z" fill="#B04949"/>
<path d="M23.5838 384.959C21.6791 387.457 18.9705 389.225 15.9134 389.965C14.4606 389.139 12.5625 386.694 11.8361 384.882C11.1645 385.971 10.7689 387.206 10.6836 388.482C10.887 394.154 12.8239 399.111 14.6689 399C16.8964 398.85 22.165 395.657 23.8114 391.753C24.2666 390.666 23.8792 388.371 23.6031 385.09C23.5983 385.066 23.5886 385.008 23.5838 384.959Z" fill="#FA98B5"/>
<path d="M95.668 189.897C94.3896 185.433 88.8886 170.571 88.8886 170.571L28.3583 166.865C28.3583 166.865 19.6419 216.717 18.0488 230.642C16.3927 245.238 15.6276 289.346 15.6276 289.346L11.4098 351.437C10.6835 359.168 30.7795 358.535 32.7165 354.336C33.501 352.636 45.6506 292.975 45.8927 290.559C46.0331 289.201 54.0619 258.434 59.0738 235.909C62.8363 257.994 67.5335 285.017 67.5819 288.873C67.6158 291.4 74.6035 347.335 73.8771 355.791C76.0562 358.69 86.2253 363.28 96.6365 355.308C96.312 353.056 98.5735 295.309 99.2417 287.254C99.91 279.2 101.338 229.598 101.338 229.598C101.338 229.598 101.479 210.19 95.668 189.897Z" fill="#63B4D0"/>
<path d="M61.8466 168.913C60.8781 191.371 59.9096 212.103 59.4254 222.114C59.1736 227.313 58.925 232.51 58.6797 237.706C58.8153 237.097 58.9508 236.493 59.0864 235.899C59.2801 237.036 59.4754 238.184 59.6723 239.344C60.5295 221.022 61.4689 202.706 62.2679 184.384C62.4955 179.258 62.7522 174.122 62.9798 168.986L61.8466 168.913Z" fill="#373F5C"/>
<path d="M90.893 176.045C89.7599 172.928 88.8883 170.571 88.8883 170.571L28.358 166.865C28.358 166.865 28.0529 168.623 27.5396 171.561C27.3217 172.846 90.893 176.045 90.893 176.045Z" fill="#13182B"/>
<path d="M58.2983 174.6C57.4686 174.55 56.6931 174.172 56.1423 173.551C55.5915 172.93 55.3106 172.116 55.3613 171.288C55.412 170.46 55.7903 169.687 56.4129 169.137C57.0354 168.588 57.8512 168.307 58.6808 168.358L62.9857 168.624C63.082 168.629 63.1721 168.673 63.2362 168.745C63.3002 168.817 63.3329 168.912 63.3271 169.008C63.3214 169.104 63.2776 169.194 63.2054 169.258C63.1332 169.322 63.0385 169.354 62.9421 169.348L58.6566 169.092C58.321 169.034 57.9768 169.047 57.6467 169.131C57.3165 169.215 57.0078 169.367 56.7406 169.578C56.4735 169.789 56.254 170.054 56.0964 170.355C55.9388 170.656 55.8467 170.987 55.8261 171.327C55.8055 171.666 55.857 172.006 55.977 172.324C56.0971 172.642 56.283 172.931 56.5227 173.173C56.7625 173.414 57.0505 173.602 57.3682 173.725C57.6858 173.848 58.0259 173.903 58.3661 173.885C62.4725 174.137 62.7872 174.025 62.7581 174.513C62.7242 174.707 62.608 174.861 58.2983 174.6Z" fill="#FABC70"/>
<path d="M17.7273 79.8086C15.7467 80.9778 7.82456 95.6322 8.36207 100.667C8.89958 105.701 6.70598 119.027 3.90222 126.521C0.870863 134.619 -1.90869 146.572 1.72313 160.584C5.04503 173.397 11.1659 191.264 14.5555 191.748C12.8607 185.993 19.9645 173.069 28.1143 172.421L19.1559 157.201L19.4996 131.468L18.289 89.3124L17.7273 79.8086Z" fill="#EFC73F"/>
<path d="M97.7862 77.2335C100.29 77.9583 107.471 90.2789 111.345 103.16C113.485 110.287 123.127 183.771 121.674 205.03C115.59 205.598 109.457 205.354 103.437 204.305C103.437 204.305 95.2826 76.5088 97.7862 77.2335Z" fill="#EFC73F"/>
<path d="M42.8847 70.1116C32.9577 72.165 21.67 77.2913 17.7041 79.8086L18.0236 86.2492L18.6726 167.353C1.23985 214.456 16.939 243.692 17.2198 243.692C23.7571 215.911 20.9098 208.905 25.9362 192.236C37.3789 154.317 46.1485 115.558 42.8847 70.1116Z" fill="#EFC73F"/>
<path d="M98.7568 77.8761C96.8828 75.1752 86.7089 71.9235 79.2031 69.73L79.6874 243.635C89.8952 243.296 98.9215 242.987 104.568 242.475C104.849 229.55 101.662 82.0651 98.7568 77.8761Z" fill="#EFC73F"/>
<path d="M23.3055 187.878C25.4023 184.413 29.4603 172.349 25.8042 173.02C16.3615 174.75 13.7708 193.149 15.6352 193.917C18.3711 195.043 21.4025 190.999 23.3055 187.878Z" fill="#EFC73F"/>
<path d="M19.9643 176.209C19.9643 176.209 26.1627 187.051 27.6638 187.051C28.8018 187.051 31.5378 187.008 32.821 187.24C34.5207 187.549 39.3873 189.39 39.3873 189.39C39.3873 189.39 42.9174 189.825 42.9513 190.327C42.9949 191.076 41.3485 191.965 39.6682 192.105C37.1356 192.318 32.4917 191.622 32.4917 191.622L35.2083 195.26C35.2083 195.26 27.78 200.908 25.4266 201.541C23.4267 198.048 16.8265 186.882 15.9258 184.549C16.41 179.91 19.9159 175.987 19.9643 176.209Z" fill="#B04949"/>
<path d="M80.1768 155.163C80.1303 155.17 80.083 155.17 80.0364 155.163C79.9138 155.125 79.8113 155.04 79.7513 154.927C79.6914 154.813 79.679 154.681 79.7168 154.559C86.133 133.652 91.1788 96.8596 91.6292 93.5354L82.1138 84.2056C82.0265 84.1155 81.9778 83.9951 81.9778 83.8698C81.9778 83.7444 82.0265 83.6241 82.1138 83.534L87.7601 77.4413L80.8209 70.851C80.7278 70.7625 80.6737 70.6408 80.6705 70.5126C80.6673 70.3844 80.7153 70.2602 80.8039 70.1673C80.8926 70.0744 81.0146 70.0204 81.1431 70.0172C81.2716 70.0141 81.396 70.062 81.4892 70.1504L88.777 77.0693C88.8657 77.1596 88.9154 77.281 88.9154 77.4075C88.9154 77.5339 88.8657 77.6554 88.777 77.7457L83.1259 83.8432L92.4766 93.0233C92.5298 93.0755 92.5701 93.1394 92.5944 93.2098C92.6188 93.2802 92.6266 93.3552 92.617 93.4291C92.5638 93.8253 87.3533 132.976 80.6369 154.849C80.602 154.942 80.5391 155.022 80.4567 155.078C80.3744 155.135 80.2766 155.164 80.1768 155.163Z" fill="#DFB31F"/>
<path d="M37.4114 146.06C37.3046 146.065 37.1992 146.034 37.1116 145.973C37.024 145.912 36.9592 145.823 36.9272 145.722C30.7773 125.81 28.114 98.2944 28.6951 92.4868C28.7062 92.3752 28.7559 92.271 28.8355 92.192L37.8327 83.2149C30.2253 82.1278 30.0848 81.5383 29.9977 81.2146C29.833 80.5671 31.7506 77.9726 32.5787 76.8903C33.6828 75.4408 35.8521 72.8076 37.9925 71.2904C38.0967 71.2166 38.2259 71.1868 38.352 71.2077C38.4781 71.2285 38.5908 71.2982 38.6656 71.4016C38.703 71.4532 38.7298 71.5117 38.7445 71.5737C38.7591 71.6357 38.7613 71.7 38.751 71.7629C38.7406 71.8258 38.7179 71.886 38.6842 71.9401C38.6504 71.9941 38.6062 72.041 38.5542 72.078C35.3195 74.373 31.6731 79.6443 31.0388 80.9102C32.0073 81.2919 35.6343 81.9393 38.9271 82.3887C39.0167 82.4014 39.101 82.4389 39.1703 82.497C39.2396 82.5551 39.2913 82.6314 39.3193 82.7172C39.3456 82.8007 39.3487 82.8898 39.3282 82.9749C39.3078 83.0599 39.2645 83.1379 39.2031 83.2004L29.6539 92.7525C29.1696 98.85 31.8136 125.83 37.886 145.417C37.9238 145.54 37.9114 145.672 37.8515 145.785C37.7915 145.898 37.689 145.983 37.5664 146.021C37.5172 146.042 37.4649 146.056 37.4114 146.06Z" fill="#DFB31F"/>
<path d="M102.137 220.655C104.858 220.655 105.948 211.92 105.948 211.92C105.948 211.92 105.889 215.785 105.667 221.138C105.463 226.076 102.635 229.869 102.761 231C102.848 231.807 103.594 231.797 104.093 231.787C105.701 231.744 107.817 229.971 108.935 228.207C111.502 224.124 113.293 221.984 113.482 219.544C113.724 216.239 112.398 209.306 112.31 205.262C109.42 205.154 106.541 204.854 103.691 204.363C103.148 205.537 102.707 206.756 102.374 208.006C101.812 210.422 102.03 213.268 101.744 214.852C101.066 218.476 100.64 220.646 102.137 220.655Z" fill="#B04949"/>
<path d="M103.522 203.339H103.473C103.346 203.326 103.228 203.264 103.146 203.165C103.065 203.067 103.026 202.94 103.038 202.812C103.522 197.893 100.554 109.832 98.9362 104.184C97.4834 99.0772 99.5608 82.9251 99.648 82.2486C99.6647 82.1205 99.7317 82.0042 99.8343 81.9254C99.9369 81.8466 100.067 81.8116 100.195 81.8283C100.324 81.8449 100.44 81.9118 100.519 82.0142C100.598 82.1166 100.633 82.2461 100.616 82.3742C100.592 82.5385 98.4664 98.9998 99.8756 103.918C101.498 109.596 104.486 197.976 104.006 202.904C103.994 203.023 103.938 203.134 103.848 203.215C103.759 203.295 103.642 203.339 103.522 203.339Z" fill="#EFC73F"/>
<path d="M112.569 197.198C109.811 197.233 107.056 197.022 104.336 196.565C104.208 196.541 104.094 196.468 104.02 196.36C103.946 196.253 103.918 196.12 103.942 195.992C103.966 195.864 104.039 195.751 104.147 195.677C104.255 195.603 104.387 195.575 104.516 195.599C111.15 196.855 121.382 195.763 121.464 195.753C121.593 195.739 121.721 195.776 121.822 195.857C121.923 195.938 121.988 196.055 122.002 196.183C122.016 196.311 121.978 196.44 121.897 196.54C121.817 196.641 121.699 196.705 121.571 196.719C121.304 196.763 117.251 197.198 112.569 197.198Z" fill="#EFC73F"/>
<path d="M100.128 108.035C99.9995 108.035 99.8763 107.984 99.7855 107.893C99.6947 107.803 99.6437 107.68 99.6437 107.552C99.3967 100.788 102.326 92.2742 102.452 91.9167C102.473 91.8567 102.506 91.8015 102.548 91.7541C102.591 91.7067 102.642 91.6681 102.699 91.6406C102.757 91.613 102.819 91.5969 102.882 91.5933C102.946 91.5897 103.01 91.5986 103.07 91.6196C103.13 91.6405 103.185 91.673 103.233 91.7153C103.28 91.7576 103.319 91.8088 103.346 91.866C103.374 91.9232 103.39 91.9853 103.394 92.0487C103.397 92.1121 103.388 92.1756 103.367 92.2356C103.338 92.3177 100.375 100.933 100.607 107.518C100.607 107.646 100.556 107.769 100.466 107.86C100.375 107.95 100.252 108.001 100.123 108.001L100.128 108.035Z" fill="#EFC73F"/>
<path d="M26.6629 172.904C26.5573 172.91 26.4528 172.881 26.3653 172.821C26.2779 172.762 26.2124 172.676 26.1787 172.576L18.6729 149.867C18.6655 149.813 18.6655 149.757 18.6729 149.703L19.0167 131.459L17.8109 89.327C17.6269 87.1382 17.2444 83.4227 17.0022 82.8574C16.9707 82.7985 16.9518 82.7337 16.9467 82.6671C16.9416 82.6005 16.9504 82.5335 16.9725 82.4705C16.9946 82.4074 17.0296 82.3497 17.0752 82.3008C17.1209 82.2519 17.1762 82.213 17.2376 82.1865C17.2991 82.1601 17.3654 82.1466 17.4323 82.147C17.4993 82.1474 17.5654 82.1616 17.6266 82.1888C17.6877 82.2159 17.7426 82.2555 17.7877 82.3049C17.8327 82.3543 17.867 82.4124 17.8884 82.4757C18.2661 83.3503 18.6923 88.2737 18.7746 89.269L19.9852 131.454L19.6414 149.64L27.1229 172.271C27.1626 172.393 27.1523 172.526 27.0942 172.64C27.0361 172.754 26.9349 172.84 26.813 172.88C26.7649 172.898 26.714 172.906 26.6629 172.904Z" fill="#DFB31F"/>
<path d="M9.47266 184.017C9.36585 184.022 9.26039 183.991 9.17279 183.93C9.08519 183.869 9.02039 183.781 8.98842 183.679C8.42877 181.925 8.25926 180.071 8.49176 178.245C8.72427 176.419 9.35315 174.666 10.3346 173.107C13.8792 167.174 21.2882 163.478 23.6368 163.009C23.6994 162.996 23.7639 162.996 23.8266 163.009C23.8893 163.021 23.949 163.046 24.0021 163.081C24.0552 163.117 24.1008 163.162 24.1361 163.215C24.1715 163.269 24.196 163.328 24.2081 163.391C24.2324 163.516 24.2064 163.645 24.1357 163.751C24.0649 163.857 23.9553 163.93 23.8304 163.956C21.6707 164.391 14.5088 168.005 11.1675 173.619C10.2568 175.062 9.67274 176.685 9.45611 178.375C9.23948 180.066 9.39551 181.784 9.91328 183.408C9.9511 183.531 9.93869 183.663 9.87876 183.776C9.81883 183.889 9.71634 183.974 9.59372 184.012C9.55373 184.019 9.51306 184.02 9.47266 184.017Z" fill="#EFC73F"/>
<path d="M18.2904 107.189C18.1714 107.19 18.0563 107.147 17.967 107.069C17.8777 106.991 17.8204 106.882 17.8061 106.764C16.6246 96.9706 13.661 91.6558 13.6271 91.6026C13.5953 91.5474 13.5747 91.4865 13.5665 91.4234C13.5583 91.3602 13.5627 91.2961 13.5793 91.2346C13.5959 91.1732 13.6245 91.1156 13.6635 91.0651C13.7024 91.0147 13.751 90.9724 13.8063 90.9407C13.8616 90.909 13.9226 90.8884 13.9859 90.8802C14.0492 90.8721 14.1135 90.8764 14.1751 90.893C14.2367 90.9096 14.2944 90.9381 14.345 90.977C14.3955 91.0159 14.4379 91.0643 14.4697 91.1195C14.5956 91.3417 17.5592 96.6372 18.7698 106.643C18.7772 106.707 18.7721 106.771 18.7546 106.832C18.7372 106.893 18.7079 106.95 18.6683 107C18.6287 107.05 18.5796 107.091 18.5239 107.122C18.4682 107.153 18.407 107.173 18.3436 107.18L18.2904 107.189Z" fill="#EFC73F"/>
<path d="M104.45 232.043C104.393 232.044 104.338 232.031 104.287 232.006C104.237 231.981 104.193 231.944 104.159 231.899C104.109 231.823 104.088 231.732 104.102 231.643C104.115 231.554 104.162 231.472 104.232 231.415C105.36 230.58 106.944 226.999 107.936 224.023C108.376 222.556 108.699 221.057 108.905 219.539C108.918 219.444 108.968 219.357 109.045 219.299C109.122 219.24 109.218 219.215 109.314 219.228C109.41 219.24 109.496 219.291 109.555 219.367C109.614 219.444 109.639 219.54 109.626 219.636C109.424 221.198 109.1 222.743 108.658 224.255C108.44 224.907 106.469 230.681 104.697 231.986C104.624 232.034 104.536 232.054 104.45 232.043Z" fill="#852726"/>
<path d="M110.02 226.811C109.967 226.812 109.914 226.8 109.865 226.777C109.822 226.757 109.783 226.728 109.751 226.693C109.719 226.658 109.694 226.616 109.678 226.571C109.662 226.527 109.654 226.479 109.657 226.431C109.659 226.384 109.671 226.337 109.691 226.294C110.451 224.491 111.063 222.629 111.522 220.728C111.546 220.635 111.605 220.555 111.688 220.505C111.77 220.455 111.869 220.44 111.962 220.462C112.008 220.473 112.052 220.493 112.091 220.52C112.129 220.548 112.162 220.583 112.187 220.624C112.211 220.664 112.228 220.709 112.235 220.756C112.242 220.803 112.24 220.851 112.229 220.897C111.76 222.847 111.132 224.755 110.35 226.603C110.32 226.665 110.273 226.717 110.215 226.754C110.157 226.791 110.089 226.81 110.02 226.811Z" fill="#852726"/>
<path d="M24.4849 203.102C24.3799 203.101 24.278 203.067 24.1945 203.003C24.111 202.939 24.0504 202.851 24.022 202.75C23.9935 202.649 23.9988 202.541 24.0369 202.444C24.0749 202.346 24.1438 202.263 24.2331 202.208C26.4945 200.826 29.1384 199.024 31.9374 197.116C34.0826 195.666 36.2956 194.144 38.6587 192.603C38.7665 192.532 38.8981 192.508 39.0243 192.534C39.1505 192.56 39.2611 192.635 39.3318 192.743C39.4024 192.851 39.4273 192.982 39.401 193.108C39.3746 193.234 39.2992 193.344 39.1914 193.415C36.8428 194.946 34.6249 196.459 32.4846 197.918C29.676 199.85 27.0223 201.638 24.7367 203.034C24.6605 203.079 24.5735 203.103 24.4849 203.102Z" fill="#11182E"/>
<path d="M102.808 193.076C102.742 193.077 102.676 193.064 102.614 193.038C99.7429 191.772 94.7842 188.138 92.179 185.959C91.1524 185.08 90.8812 182.171 91.0168 173.504C91.0182 173.42 91.0412 173.338 91.0836 173.266C91.126 173.194 91.1864 173.135 91.2589 173.093C91.3325 173.05 91.416 173.028 91.5011 173.028C91.5861 173.028 91.6696 173.05 91.7432 173.093C92.1238 173.358 92.4861 173.649 92.8279 173.963C94.6293 175.47 98.3724 178.606 102.876 181.828C102.981 181.903 103.051 182.017 103.072 182.144C103.093 182.27 103.062 182.4 102.987 182.505C102.912 182.609 102.799 182.68 102.671 182.7C102.544 182.721 102.414 182.691 102.309 182.616C97.7817 179.369 94.0143 176.219 92.2032 174.707L91.9804 174.518C91.9223 178.606 91.903 184.447 92.8134 185.225C95.3702 187.365 100.232 190.931 103.012 192.158C103.07 192.184 103.123 192.22 103.168 192.266C103.212 192.312 103.247 192.366 103.27 192.425C103.294 192.484 103.305 192.548 103.304 192.611C103.303 192.675 103.289 192.738 103.263 192.796C103.223 192.882 103.159 192.955 103.078 193.005C102.997 193.055 102.903 193.079 102.808 193.076Z" fill="#EFC73F"/>
<path d="M2.84295 152.848C2.77419 152.848 2.70624 152.834 2.64362 152.805C2.581 152.777 2.52514 152.736 2.47977 152.684C2.39512 152.588 2.35219 152.462 2.36036 152.334C2.36853 152.207 2.42712 152.087 2.52333 152.003C4.11542 150.681 5.88165 149.584 7.77256 148.741C11.8547 146.939 15.6221 146.93 18.668 148.741C18.765 148.812 18.8323 148.916 18.857 149.033C18.8817 149.15 18.862 149.272 18.8018 149.375C18.7415 149.478 18.645 149.556 18.5308 149.592C18.4166 149.629 18.293 149.622 18.1838 149.573C11.4625 145.611 3.25458 152.67 3.17226 152.742C3.07937 152.817 2.96208 152.855 2.84295 152.848Z" fill="#EFC73F"/>
<path d="M18.6618 148.094C18.5499 148.097 18.4404 148.061 18.3521 147.992C18.2638 147.923 18.2022 147.826 18.1776 147.717C17.3059 143.726 7.67921 141.649 5.83909 142.045C5.77522 142.064 5.70816 142.069 5.64213 142.06C5.57611 142.052 5.51253 142.03 5.45534 141.996C5.39815 141.962 5.34858 141.917 5.30975 141.863C5.27091 141.809 5.24361 141.748 5.22959 141.683C5.21558 141.618 5.21515 141.551 5.22829 141.486C5.24143 141.421 5.26786 141.359 5.30597 141.305C5.34407 141.25 5.393 141.204 5.44972 141.169C5.50645 141.135 5.56978 141.112 5.63569 141.103C7.75667 140.62 18.1001 142.823 19.1218 147.509C19.1492 147.634 19.1259 147.765 19.0569 147.873C18.9879 147.981 18.8789 148.057 18.7538 148.084C18.7237 148.091 18.6928 148.095 18.6618 148.094Z" fill="#EFC73F"/>
<path d="M57.5976 171.817C57.5012 171.817 57.4088 171.779 57.3407 171.711C57.2726 171.643 57.2344 171.551 57.2344 171.455C57.2344 171.359 57.2726 171.267 57.3407 171.199C57.4088 171.131 57.5012 171.093 57.5976 171.093C58.7936 171.189 59.6556 170.856 59.6556 171.455C59.6556 172.054 58.7113 171.73 57.5976 171.817Z" fill="#FABC70"/>
<path d="M64.2162 174.837C63.5431 174.769 64.0806 173.972 64.4341 169.005C64.4438 168.909 64.4913 168.821 64.5662 168.76C64.6411 168.698 64.7373 168.669 64.8336 168.679C64.9299 168.689 65.0184 168.736 65.0797 168.811C65.141 168.886 65.1701 168.982 65.1605 169.078L64.6133 174.513C64.6035 174.609 64.5562 174.696 64.4818 174.757C64.4073 174.818 64.3118 174.846 64.2162 174.837Z" fill="#FABC70"/>
<path d="M25.185 185.215C24.1567 185.482 23.2175 186.016 22.4623 186.762C21.7072 187.507 21.163 188.439 20.8849 189.462C20.7687 190.235 20.6428 189.665 20.4879 192.361C20.4854 192.409 20.4735 192.456 20.453 192.499C20.4324 192.542 20.4035 192.58 20.3679 192.612C20.3324 192.644 20.2909 192.668 20.2458 192.684C20.2008 192.7 20.153 192.707 20.1053 192.704C20.016 192.699 19.9318 192.661 19.8685 192.598C19.8052 192.534 19.7672 192.45 19.7615 192.361C19.2482 187.457 22.2118 184.544 24.9961 184.524H25.0882C25.1693 184.531 25.2457 184.565 25.3048 184.621C25.364 184.677 25.4023 184.751 25.4136 184.831C25.4249 184.912 25.4084 184.993 25.3668 185.063C25.3253 185.133 25.2612 185.187 25.185 185.215Z" fill="#FABC70"/>
<path d="M20.4014 185.877C18.7744 189.259 19.9172 190.931 19.0068 190.883C18.9185 190.874 18.836 190.835 18.7733 190.773C18.7105 190.71 18.6716 190.628 18.663 190.54C17.7769 186.013 20.4886 182.297 23.3311 181.886C23.3795 181.886 23.8153 181.751 23.8638 182.162C23.8977 182.316 21.9558 182.756 20.4014 185.877Z" fill="#FABC70"/>
<path d="M51.6895 168.44C46.9148 164.314 46.6291 155.023 46.5323 151.969C46.5323 151.66 46.5323 151.336 46.5033 151.23C46.4688 151.122 46.4735 151.005 46.5165 150.9C46.5595 150.796 46.638 150.709 46.7383 150.656C46.8387 150.603 46.9546 150.587 47.0656 150.611C47.1766 150.634 47.2758 150.696 47.3458 150.785C47.8301 151.399 46.91 163.029 52.319 167.696C52.4179 167.779 52.4795 167.898 52.4904 168.027C52.5013 168.156 52.4606 168.283 52.3771 168.382C52.2936 168.481 52.1743 168.542 52.0453 168.553C51.9164 168.564 51.7884 168.523 51.6895 168.44Z" fill="#97ABE8"/>
<path d="M70.0801 71.1988H50.875L52.3277 53.4812H68.6273L70.0801 71.1988Z" fill="#B04949"/>
<path d="M45.043 38.9864C45.043 44.3447 46.1422 49.7851 49.0428 53.9306C51.9434 58.0761 56.7374 60.9993 60.2482 61.1249C63.851 61.2602 69.1485 57.6461 72.2719 52.5391C74.6931 48.5675 75.4534 43.6972 75.4534 39.0106C75.4534 28.2361 68.674 15.698 60.776 15.698C52.878 15.698 45.043 28.2119 45.043 38.9864Z" fill="#B04949"/>
<path d="M60.4397 61.4921H60.2412C57.8926 61.4051 54.9629 60.1199 52.411 58.0519C52.3365 57.9906 52.2893 57.9026 52.2793 57.8068C52.2693 57.711 52.2975 57.6151 52.3577 57.5398C52.4175 57.4726 52.5001 57.43 52.5896 57.4202C52.6791 57.4104 52.769 57.4341 52.8419 57.4867C55.2631 59.4628 58.0476 60.69 60.2412 60.7673C62.4348 60.8446 65.1756 59.5353 67.7856 57.2644C67.8216 57.2327 67.8634 57.2083 67.9088 57.1927C67.9541 57.1771 68.0022 57.1706 68.0501 57.1735C68.0979 57.1764 68.1448 57.1887 68.1879 57.2097C68.231 57.2307 68.2696 57.2599 68.3014 57.2958C68.3332 57.3316 68.3576 57.3734 68.3732 57.4186C68.3888 57.4639 68.3953 57.5118 68.3924 57.5596C68.3895 57.6074 68.3772 57.6541 68.3562 57.6971C68.3352 57.7402 68.3058 57.7786 68.2699 57.8104C65.6259 60.1295 62.7108 61.4921 60.4397 61.4921Z" fill="#852726"/>
<path d="M67.3711 36.643C67.3711 37.5368 67.9134 38.2664 68.5817 38.2664C69.25 38.2664 69.7923 37.5368 69.7923 36.643C69.7923 35.7491 69.25 35.0195 68.5817 35.0195C67.9134 35.0195 67.3711 35.7394 67.3711 36.643Z" fill="#13182B"/>
<path d="M51.5586 36.643C51.5586 37.5368 52.1009 38.2664 52.7692 38.2664C53.4375 38.2664 53.9798 37.5368 53.9798 36.643C53.9798 35.7491 53.4375 35.0195 52.7692 35.0195C52.1009 35.0195 51.5586 35.7394 51.5586 36.643Z" fill="#13182B"/>
<path d="M55.5145 49.8623C55.3886 50.7948 57.0447 54.5006 60.7636 54.6118C63.9306 54.7036 65.5528 50.8431 65.5625 50.0217C65.5625 49.5047 63.4512 47.891 60.6765 47.8572C58.0035 47.8185 55.5823 49.3791 55.5145 49.8623Z" fill="#9C0D37"/>
<path d="M55.8711 50.0701C56.4473 50.7078 58.0792 52.3361 60.5198 52.3554C63.5366 52.3844 64.6698 50.7465 65.1976 50.2633C62.0946 50.0303 58.9811 49.9658 55.8711 50.0701Z" fill="white"/>
<path d="M49.0106 34.4011C48.9653 34.3258 48.9459 34.2378 48.9555 34.1505C48.9652 34.0632 49.0032 33.9815 49.0639 33.9179C49.6668 33.2181 50.4305 32.6741 51.2897 32.3326C52.149 31.991 53.0783 31.8619 53.9983 31.9563C57.1072 32.3138 56.1629 33.9807 55.2961 33.744C50.4247 32.4153 49.6159 35.4061 49.0106 34.4011Z" fill="#13182B"/>
<path d="M67.2212 33.3478C67.1727 33.3478 65.6958 33.4976 65.7684 33.4976C65.013 33.5266 64.3157 32.0964 67.1195 31.8645C69.6908 31.5504 72.3009 33.6232 71.6859 34.1209C71.2453 34.4736 70.2767 33.0531 67.2212 33.3478Z" fill="#13182B"/>
<path d="M61.2025 45.9776C60.4187 45.9989 59.6366 45.8911 58.8878 45.6588C58.8411 45.6424 58.7983 45.6165 58.7621 45.5827C58.7259 45.549 58.6972 45.5081 58.6776 45.4627C58.658 45.4173 58.6481 45.3684 58.6484 45.3189C58.6488 45.2695 58.6594 45.2207 58.6797 45.1756C58.6962 45.129 58.7221 45.0863 58.7559 45.05C58.7896 45.0138 58.8304 44.9848 58.8757 44.9649C58.9211 44.945 58.9701 44.9345 59.0196 44.9342C59.0692 44.9339 59.1183 44.9437 59.1639 44.963C60.3648 45.422 63.0378 45.2287 63.3187 44.8712C63.7545 44.3059 63.4204 43.1367 62.9991 41.6533C62.7207 40.7283 62.4896 39.7898 62.3066 38.8414C62.2504 38.1064 62.2763 37.3674 62.3841 36.6381C62.3906 36.5908 62.4064 36.5452 62.4307 36.504C62.455 36.4628 62.4871 36.4268 62.5254 36.3981C62.5637 36.3693 62.6072 36.3484 62.6536 36.3366C62.7 36.3247 62.7483 36.3221 62.7957 36.3289C62.843 36.3348 62.8885 36.3501 62.9298 36.3738C62.971 36.3975 63.0072 36.4292 63.036 36.467C63.0649 36.5047 63.0859 36.5479 63.0978 36.5939C63.1098 36.6399 63.1124 36.6877 63.1056 36.7348C63.006 37.3901 62.9785 38.0544 63.0233 38.7157C63.1999 39.6399 63.4245 40.5543 63.6964 41.4552C64.1806 43.1366 64.5535 44.4605 63.8901 45.3205C63.5318 45.7844 62.3696 45.9776 61.2025 45.9776Z" fill="#852726"/>
<path d="M54.8997 37.0102C54.8524 37.0103 54.8061 36.9967 54.7665 36.9709C54.727 36.9452 54.6958 36.9084 54.6769 36.8652C54.3889 36.2386 53.8831 35.7374 53.2532 35.4544C53.014 35.3879 52.7632 35.3742 52.5182 35.4143C52.2732 35.4543 52.0399 35.5471 51.8344 35.6863C49.7716 36.9039 49.1905 36.3144 49.0936 36.1695C49.0748 36.1438 49.0612 36.1146 49.0537 36.0837C49.0462 36.0528 49.0449 36.0207 49.0498 35.9893C49.0548 35.9579 49.0659 35.9277 49.0826 35.9006C49.0992 35.8735 49.1211 35.8499 49.1469 35.8312C49.1993 35.7945 49.2639 35.7796 49.3271 35.7895C49.3903 35.7994 49.4473 35.8334 49.4859 35.8844C49.5827 35.981 50.188 36.0825 51.5875 35.2563C51.8514 35.0803 52.1509 34.9645 52.4647 34.9169C52.7785 34.8693 53.099 34.8911 53.4034 34.9809C54.522 35.3336 55.0933 36.5995 55.1176 36.6526C55.1312 36.6814 55.1389 36.7126 55.1402 36.7444C55.1415 36.7762 55.1363 36.808 55.125 36.8377C55.1137 36.8675 55.0965 36.8947 55.0744 36.9177C55.0523 36.9407 55.0258 36.959 54.9965 36.9715C54.9672 36.9909 54.9343 37.004 54.8997 37.0102Z" fill="#13182B"/>
<path d="M66.5676 37.0103C66.5355 37.0152 66.5028 37.0152 66.4708 37.0103C66.4112 36.9838 66.3645 36.9349 66.3409 36.8743C66.3174 36.8136 66.3188 36.7462 66.3448 36.6865C66.3448 36.6334 66.9453 35.3675 68.0639 35.0148C68.3683 34.9251 68.6888 34.9032 69.0026 34.9508C69.3164 34.9984 69.6159 35.1143 69.8798 35.2902C70.9839 35.9425 71.3616 35.986 71.4633 35.9811C71.4798 35.937 71.5087 35.8985 71.5464 35.8703C71.5842 35.842 71.6293 35.8252 71.6764 35.8217C71.7398 35.8177 71.8023 35.8387 71.8503 35.8803C71.8984 35.9219 71.9281 35.9807 71.933 36.0439C71.936 36.1123 71.9205 36.1803 71.8881 36.2406C71.8557 36.301 71.8077 36.3515 71.749 36.387C71.5263 36.5223 71.0904 36.5657 69.6329 35.7057C69.4266 35.5665 69.1924 35.4736 68.9466 35.4336C68.7008 35.3935 68.4491 35.4073 68.2092 35.4738C67.5801 35.7564 67.0757 36.2579 66.7904 36.8846C66.7683 36.9239 66.7358 36.9563 66.6966 36.9785C66.6573 37.0006 66.6127 37.0116 66.5676 37.0103Z" fill="#13182B"/>
<path d="M62.4658 15.8525C63.7818 15.1887 64.9886 14.3285 66.0444 13.3014C66.0444 13.3014 70.1605 8.14607 65.6425 6.13611C63.4925 5.16979 61.6184 6.26657 61.0518 6.31005C60.4756 3.55603 58.6985 2.27082 56.4419 3.50288C54.471 -1.44953 46.9265 -1.32874 45.9048 5.00552C43.0671 2.50274 36.5056 5.65295 39.4111 10.7262C33.6002 8.7017 29.0822 15.1519 33.2128 19.7323C25.7699 22.4815 29.5228 28.4292 29.6052 28.951C28.9318 29.649 28.5433 30.5723 28.5156 31.5408C28.6754 35.3674 32.0554 35.3288 32.3896 35.4496C31.8472 37.532 32.9707 40.1169 35.7793 40.1169C38.152 40.1169 39.3191 38.2471 39.2852 36.4111C38.6847 38.909 43.8903 39.1941 45.9241 36.7734C48.5293 33.6764 47.0766 31.5021 47.0766 31.5021C47.0766 31.5021 51.1927 28.2794 50.9505 24.7379C54.4807 24.5736 59.1827 24.3175 61.0422 20.7083C66.0105 20.0995 70.9691 22.9647 73.2305 27.4726C70.9062 21.3799 66.9838 16.785 62.4658 15.8525Z" fill="#13182B"/>
<path d="M61.0456 21.1914C60.9256 21.1911 60.8099 21.1463 60.7211 21.0657C60.6263 20.9798 60.5695 20.8598 60.5631 20.7321C60.5567 20.6044 60.6013 20.4794 60.6872 20.3845C63.5103 17.2681 61.9801 15.0359 62.9292 14.7701C63.7243 14.584 64.4563 14.1922 65.0513 13.634C65.6464 13.0759 66.0836 12.3713 66.3189 11.5909C66.3452 11.4628 66.4215 11.3503 66.5309 11.2783C66.6404 11.2063 66.774 11.1806 66.9025 11.2068C67.0309 11.2331 67.1436 11.3092 67.2158 11.4184C67.288 11.5276 67.3137 11.6609 67.2874 11.789C67.0403 12.6805 66.5723 13.4956 65.9266 14.1592C65.281 14.8229 64.4783 15.3138 63.5926 15.5867C63.623 17.6135 62.8504 19.5704 61.4426 21.0319C61.3931 21.0871 61.3315 21.1302 61.2627 21.1578C61.1938 21.1854 61.1196 21.1969 61.0456 21.1914Z" fill="#352D42"/>
<path d="M54.4186 18.5437C51.9635 13.8377 57.5032 10.8131 59.9341 14.0019C60.0125 14.1038 60.047 14.2326 60.0302 14.3599C60.0134 14.4872 59.9466 14.6026 59.8445 14.6808C59.7424 14.7589 59.6134 14.7934 59.4858 14.7767C59.3582 14.7599 59.2425 14.6933 59.1642 14.5914C57.45 12.3544 53.3533 14.432 55.2903 18.0943C55.35 18.2084 55.3618 18.3414 55.3232 18.4642C55.2846 18.587 55.1987 18.6894 55.0844 18.749C54.9701 18.8086 54.8368 18.8204 54.7137 18.7819C54.5907 18.7434 54.488 18.6577 54.4283 18.5437H54.4186Z" fill="#352D42"/>
<path d="M40.4972 15.4033C39.2382 12.9874 40.1001 11.0113 41.5093 10.0885C44.0516 8.47471 46.8359 10.818 45.9207 11.5138C45.8192 11.5917 45.6908 11.6263 45.5637 11.61C45.4367 11.5937 45.3213 11.5278 45.2428 11.4268C43.5286 9.18978 39.4319 11.2674 41.3689 14.9297C41.4286 15.0438 41.4405 15.1768 41.4019 15.2996C41.3633 15.4224 41.2774 15.5249 41.1631 15.5844C41.0488 15.644 40.9154 15.6559 40.7924 15.6173C40.6693 15.5788 40.5666 15.4931 40.5069 15.3791L40.4972 15.4033Z" fill="#352D42"/>
<path d="M47.3141 9.26699C47.5736 8.74059 47.9714 8.29441 48.4653 7.97613C48.9591 7.65785 49.5304 7.47944 50.1179 7.45996C50.9702 7.45996 52.2002 7.86581 53.2268 9.7743C53.291 9.88707 53.3077 10.0207 53.2732 10.1457C53.2387 10.2708 53.1558 10.377 53.0428 10.4411C52.9298 10.5051 52.7959 10.5218 52.6705 10.4874C52.5452 10.4529 52.4387 10.3702 52.3745 10.2575C51.314 8.28133 50.0598 8.43595 50.1082 8.45044C48.5974 8.45044 47.319 10.4556 48.1277 11.6925C48.1978 11.799 48.2228 11.9288 48.1975 12.0537C48.1721 12.1786 48.0982 12.2884 47.9921 12.3592C47.2512 12.8231 46.3844 10.987 47.3141 9.26699Z" fill="#352D42"/>
<path d="M37.1268 30.8354C33.9647 29.2313 35.4706 22.9599 40.4099 22.3898C40.1106 21.8135 39.9521 21.1748 39.947 20.5258C39.942 19.8768 40.0906 19.2358 40.3809 18.6549C41.6738 16.2826 46.3903 16.9494 45.538 18.1718C45.4647 18.2767 45.3527 18.3483 45.2265 18.371C45.1003 18.3936 44.9703 18.3654 44.8649 18.2926C43.9546 17.6596 41.7658 18.1428 41.2331 19.1188C40.9813 19.6763 40.8856 20.2916 40.9564 20.8991C41.0271 21.5065 41.2617 22.0835 41.635 22.5685C41.6881 22.6427 41.7192 22.7302 41.7245 22.8212C41.7299 22.9122 41.7093 23.0028 41.6653 23.0826C41.6212 23.1624 41.5555 23.2282 41.4756 23.2723C41.3957 23.3164 41.3049 23.3371 41.2137 23.3319C40.0754 23.3097 38.9675 23.699 38.0944 24.4281C37.2213 25.1572 36.642 26.1768 36.4633 27.2987C36.3471 28.265 36.6376 29.5067 37.5674 29.9754C37.6814 30.0333 37.7679 30.134 37.8078 30.2553C37.8477 30.3766 37.8379 30.5087 37.7805 30.6228C37.7517 30.6798 37.712 30.7305 37.6635 30.7721C37.615 30.8137 37.5588 30.8452 37.498 30.865C37.4372 30.8848 37.3731 30.8923 37.3094 30.8873C37.2457 30.8822 37.1836 30.8646 37.1268 30.8354Z" fill="#352D42"/>
<path d="M44.9485 28.6659C42.1447 28.4678 44.3819 21.6263 48.3382 22.6361C48.4518 22.6765 48.5462 22.7577 48.6029 22.8638C48.6597 22.97 48.6747 23.0935 48.645 23.2101C48.6153 23.3267 48.5431 23.4281 48.4425 23.4944C48.3419 23.5607 48.22 23.5871 48.1009 23.5686C45.394 22.8825 43.8783 27.6223 45.0163 27.6996C45.0799 27.704 45.142 27.721 45.199 27.7493C45.2561 27.7777 45.307 27.817 45.3488 27.865C45.3906 27.913 45.4225 27.9688 45.4428 28.0291C45.463 28.0894 45.4711 28.1531 45.4666 28.2166C45.4622 28.28 45.4453 28.342 45.4168 28.3989C45.3884 28.4558 45.3489 28.5066 45.3008 28.5483C45.2527 28.5901 45.1968 28.6219 45.1364 28.6421C45.0759 28.6623 45.0121 28.6704 44.9485 28.6659Z" fill="#352D42"/>
<path d="M61.683 67.0049C56.5064 67.0339 50.8892 68.15 45.2188 69.5173C45.7854 73.3032 47.7119 76.7545 50.6394 79.2284C53.5669 81.7023 57.2959 83.0301 61.1317 82.9645C64.9675 82.8989 68.6488 81.4443 71.4896 78.8718C74.3304 76.2992 76.1372 72.784 76.5734 68.981C71.7109 67.7107 66.7092 67.0469 61.683 67.0049Z" fill="#B04949"/>
<path d="M86.7442 166.836C87.4221 168.179 87.2284 169.638 86.3084 170.102C85.3883 170.566 84.0954 169.851 83.4029 168.508C82.7104 167.164 82.9187 165.705 83.8387 165.241C84.7588 164.778 86.0808 165.493 86.7442 166.836Z" fill="#FABC70"/>
<path d="M86.7442 191.477C87.4221 192.82 87.2284 194.279 86.3084 194.743C85.3883 195.207 84.0954 194.492 83.4029 193.149C82.7104 191.806 82.9187 190.346 83.8387 189.883C84.7588 189.419 86.0808 190.134 86.7442 191.477Z" fill="#FABC70"/>
</g>
<defs>
<clipPath id="clip0_2190_16778">
<rect width="122" height="399" fill="white"/>
</clipPath>
</defs>
</svg>
