<svg width="154" height="117" viewBox="0 0 154 117" fill="none" xmlns="http://www.w3.org/2000/svg">
<path d="M33.8737 11.7395C-3.42789 33.9933 -11.8121 86.0338 18.9818 109.373C32.2368 119.426 50.8816 118.555 63.4778 107.701L63.9729 107.269C68.3164 103.557 73.3549 100.732 78.8 98.9554C84.245 97.1787 89.9897 96.4853 95.7051 96.9151C120.622 98.7141 145.487 94.9774 148.865 71.2495C153.664 37.5438 97.6933 -26.3488 33.8737 11.7395Z" fill="#C3CDFF" fill-opacity="0.45"/>
<g clip-path="url(#clip0_9036_23983)">
<path d="M90.1996 100.095C112.533 100.095 130.637 97.8204 130.637 95.0147C130.637 92.209 112.533 89.9346 90.1996 89.9346C67.8664 89.9346 49.7617 92.209 49.7617 95.0147C49.7617 97.8204 67.8664 100.095 90.1996 100.095Z" fill="#DBE8CC"/>
<path d="M51.1879 100.873C73.5211 100.873 91.6257 98.5987 91.6257 95.793C91.6257 92.9874 73.5211 90.7129 51.1879 90.7129C28.8547 90.7129 10.75 92.9874 10.75 95.793C10.75 98.5987 28.8547 100.873 51.1879 100.873Z" fill="#DBE8CC"/>
<path d="M101.964 41.8906C103.501 41.8906 104.748 40.6588 104.748 39.1392C104.748 37.6196 103.501 36.3877 101.964 36.3877C100.426 36.3877 99.1797 37.6196 99.1797 39.1392C99.1797 40.6588 100.426 41.8906 101.964 41.8906Z" stroke="#2A5241" stroke-width="2.59" stroke-linecap="round" stroke-linejoin="round"/>
<path d="M23.8391 95.7461L121.398 95.7461V48.6221L23.8391 48.6221V95.7461Z" fill="#BBC4BC"/>
<path d="M23.8377 95.7461H56.4805L56.4805 48.6221L23.8377 48.6221L23.8377 95.7461Z" fill="#F3FFF5"/>
<path d="M51.96 51.8971H124.47L106.492 17.9131H38.6641L51.96 51.8971Z" fill="#97BA6E"/>
<path d="M38.6653 17.9131L17.5273 52.3065L56.4827 51.8971L38.6653 17.9131Z" fill="#4A7053"/>
<path d="M23.8398 52.2793L40.3088 25.9121L53.759 51.8967C44.9443 55.3931 34.7409 54.8361 23.8398 52.2793Z" fill="#F3FFF5"/>
<path d="M56.4827 51.8971H53.7591L38.6653 22.7382L20.3985 52.2796L17.5273 52.3065L38.6653 17.9131L56.4827 51.8971Z" fill="#8BAB66"/>
<path d="M33.1915 95.7861H44.1328V78.566H33.1915V95.7861Z" fill="#8DAB8D"/>
<path d="M62.6928 65.8154H72.8828V56.5208H62.6928V65.8154Z" fill="#587558"/>
<path d="M33.1967 65.8154H43.3867V56.5208H33.1967V65.8154Z" fill="#8DAB8D"/>
<path d="M84.5555 65.8154H93.8398V56.5208H84.5555V65.8154Z" fill="#587558"/>
<path d="M105.594 65.8154H114.141V56.5208H105.594V65.8154Z" fill="#587558"/>
<path d="M62.6928 87.4111H72.8828V78.1165H62.6928V87.4111Z" fill="#587558"/>
<path d="M105.594 87.4111H114.141V78.1165H105.594V87.4111Z" fill="#587558"/>
<path d="M106.493 17.9131L124.472 51.8971H105.172" stroke="#2A5241" stroke-width="2.72" stroke-linecap="round" stroke-linejoin="round"/>
<path d="M121.398 55.6748V95.7456H97.2344" stroke="#28401D" stroke-width="2.02" stroke-linecap="round" stroke-linejoin="round"/>
<path d="M56.4805 95.7461H70.0514" stroke="#28401D" stroke-width="2.02" stroke-linecap="round" stroke-linejoin="round"/>
<path d="M56.4805 51.8965V76.3779" stroke="#28401D" stroke-width="2.02" stroke-linecap="round" stroke-linejoin="round"/>
</g>
<path d="M118.248 92.9492H79.9258V101.887H118.248V92.9492Z" fill="#FFAB66"/>
<path d="M116.836 92.9492H102.617V101.887H116.836V92.9492Z" fill="#EB9149"/>
<path d="M101.288 92.9492H95.3281V101.887H101.288V92.9492Z" fill="#F79F59"/>
<path d="M86.5217 92.9492H83.2539V101.887H86.5217V92.9492Z" fill="#FFC18F"/>
<path d="M118.248 100.561H79.9258V101.888H118.248V100.561Z" fill="#D67B2F"/>
<path d="M118.248 101.939H79.9258V110.877H118.248V101.939Z" fill="#FFAB66"/>
<path d="M116.836 101.939H102.617V110.877H116.836V101.939Z" fill="#EB9149"/>
<path d="M101.288 101.939H95.3281V110.877H101.288V101.939Z" fill="#F79F59"/>
<path d="M86.5178 101.939H83.25V110.877H86.5178V101.939Z" fill="#FFC18F"/>
<path d="M118.248 109.549H79.9258V110.877H118.248V109.549Z" fill="#D67B2F"/>
<path d="M115.897 84.2539H77.5742V93.1912H115.897V84.2539Z" fill="#FFAB66"/>
<path d="M114.476 84.252H100.258V93.1893H114.476V84.252Z" fill="#EB9149"/>
<path d="M98.936 84.2539H92.9766V93.1912H98.936V84.2539Z" fill="#F79F59"/>
<path d="M84.1623 84.2539H80.8945V93.1912H84.1623V84.2539Z" fill="#FFC18F"/>
<path d="M115.897 91.8613H77.5742V93.1893H115.897V91.8613Z" fill="#D67B2F"/>
<path d="M118.494 75.5527H80.1719V84.49H118.494V75.5527Z" fill="#FFAB66"/>
<path d="M117.082 75.5527H102.863V84.49H117.082V75.5527Z" fill="#EB9149"/>
<path d="M101.534 75.5527H95.5742V84.49H101.534V75.5527Z" fill="#F79F59"/>
<path d="M86.7678 75.5527H83.5V84.49H86.7678V75.5527Z" fill="#FFC18F"/>
<path d="M118.494 83.166H80.1719V84.4939H118.494V83.166Z" fill="#D67B2F"/>
<path d="M116.721 66.6152H78.3984V75.5525H116.721V66.6152Z" fill="#FFAB66"/>
<path d="M115.304 66.6152H101.086V75.5525H115.304V66.6152Z" fill="#EB9149"/>
<path d="M99.7602 66.6152H93.8008V75.5525H99.7602V66.6152Z" fill="#F79F59"/>
<path d="M84.9865 66.6152H81.7188V75.5525H84.9865V66.6152Z" fill="#FFC18F"/>
<path d="M116.721 74.2246H78.3984V75.5525H116.721V74.2246Z" fill="#D67B2F"/>
<path d="M115.475 57.7988H77.1523V66.7361H115.475V57.7988Z" fill="#FFAB66"/>
<path d="M114.058 57.7988H99.8398V66.7361H114.058V57.7988Z" fill="#EB9149"/>
<path d="M98.5141 57.7988H92.5547V66.7361H98.5141V57.7988Z" fill="#F79F59"/>
<path d="M83.7482 57.7988H80.4805V66.7361H83.7482V57.7988Z" fill="#FFC18F"/>
<path d="M115.475 65.4141H77.1523V66.742H115.475V65.4141Z" fill="#D67B2F"/>
<path d="M118.733 48.9883H80.4102V57.9256H118.733V48.9883Z" fill="#FFAB66"/>
<path d="M117.316 48.9883H103.098V57.9256H117.316V48.9883Z" fill="#EB9149"/>
<path d="M101.768 48.9883H95.8086V57.9256H101.768V48.9883Z" fill="#F79F59"/>
<path d="M86.9982 48.9883H83.7305V57.9256H86.9982V48.9883Z" fill="#FFC18F"/>
<path d="M118.733 56.5996H80.4102V57.9275H118.733V56.5996Z" fill="#D67B2F"/>
<path d="M117.295 40H78.9727V48.9373H117.295V40Z" fill="#FFAB66"/>
<path d="M115.879 40H101.66V48.9373H115.879V40Z" fill="#EB9149"/>
<path d="M100.338 40H94.3789V48.9373H100.338V40Z" fill="#F79F59"/>
<path d="M85.5607 40H82.293V48.9373H85.5607V40Z" fill="#FFC18F"/>
<path d="M117.295 47.6133H78.9727V48.9412H117.295V47.6133Z" fill="#D67B2F"/>
<path d="M152.845 70.9028C152.845 71.3201 152.707 71.728 152.45 72.075C152.194 72.4219 151.828 72.6923 151.401 72.852C150.974 73.0117 150.504 73.0535 150.05 72.9721C149.596 72.8907 149.18 72.6897 148.853 72.3947C148.526 72.0996 148.303 71.7237 148.213 71.3144C148.123 70.9051 148.169 70.4809 148.346 70.0954C148.523 69.7099 148.823 69.3804 149.207 69.1485C149.592 68.9167 150.044 68.793 150.506 68.793C151.126 68.793 151.721 69.0153 152.16 69.4109C152.598 69.8066 152.845 70.3432 152.845 70.9028Z" stroke="#6287BD" stroke-width="2" stroke-linecap="round" stroke-linejoin="round"/>
<path fill-rule="evenodd" clip-rule="evenodd" d="M85.6514 50.7363C86.2565 49.4695 87.1715 48.0411 88.4253 47.2985C88.5472 47.223 88.6468 47.122 88.7156 47.004C88.7845 46.8861 88.8205 46.7547 88.8205 46.6214C88.8205 46.4881 88.7845 46.3568 88.7156 46.2388C88.6468 46.1209 88.5472 46.0198 88.4253 45.9444C87.1393 45.1356 86.038 44.1108 85.1818 42.9259C85.0954 42.7953 84.9705 42.6888 84.821 42.6185C84.6715 42.5481 84.5033 42.5166 84.3351 42.5275C84.1669 42.5384 84.0054 42.5912 83.8685 42.68C83.7316 42.7689 83.6249 42.8903 83.56 43.0308C82.982 44.2649 82.1092 45.3686 81.0039 46.2632C80.9015 46.3465 80.8214 46.4497 80.7696 46.565C80.7179 46.6803 80.6959 46.8047 80.7052 46.9288C80.7145 47.0529 80.7549 47.1734 80.8235 47.2814C80.892 47.3893 80.9868 47.4818 81.1007 47.5518C82.3766 48.3392 83.3694 49.4462 83.957 50.7363C84.0256 50.8881 84.1429 51.0181 84.2938 51.1096C84.4447 51.2011 84.6224 51.25 84.8042 51.25C84.986 51.25 85.1637 51.2011 85.3146 51.1096C85.4655 51.0181 85.5827 50.8881 85.6514 50.7363Z" fill="white"/>
<defs>
<clipPath id="clip0_9036_23983">
<rect width="132" height="89" fill="white" transform="translate(4.92188 17)"/>
</clipPath>
</defs>
</svg>
