<svg width="151" height="118" viewBox="0 0 151 118" fill="none" xmlns="http://www.w3.org/2000/svg">
<g clip-path="url(#clip0_9036_23867)">
<path d="M76.2508 11.9265C81.8552 16.6676 89.2896 19.2473 96.9705 19.1161C113.194 18.8193 140.475 21.6391 147.685 42.9276C158.156 73.7925 137.423 116.551 82.3959 117.957C27.3689 119.362 -26.4566 38.1826 12.6983 9.12326C27.1633 -1.60342 55.6865 -5.40434 76.2508 11.9265Z" fill="#C3CDFF" fill-opacity="0.45"/>
<g clip-path="url(#clip1_9036_23867)">
<path d="M80.6367 118.991C123.087 118.991 157.5 115.473 157.5 111.135C157.5 106.796 123.087 103.278 80.6367 103.278C38.1863 103.278 3.77344 106.796 3.77344 111.135C3.77344 115.473 38.1863 118.991 80.6367 118.991Z" fill="#DBE8CC"/>
<path d="M42.8165 37.8828H139.301C141.408 37.8828 143.115 39.599 143.115 41.7156V105.929H39.0117V41.7156C39.0117 39.599 40.7196 37.8828 42.8259 37.8828H42.8165Z" fill="#214033"/>
<path d="M39.7227 37.8828H136.207C138.314 37.8828 140.022 39.599 140.022 41.7156V105.929H35.918V41.7156C35.918 39.599 37.6258 37.8828 39.7322 37.8828H39.7227Z" fill="#9DA891"/>
<path d="M136.805 41.7148H38.9062V105.509H136.805V41.7148Z" fill="#C1CFB2"/>
<path d="M3.76562 105.414H143.118V105.5C143.118 108.408 140.765 110.772 137.871 110.772H9.01256C6.11868 110.772 3.76562 108.408 3.76562 105.5V105.414Z" fill="#214033"/>
<path d="M103.825 24.3818H14.7695V98.463H103.825V24.3818Z" fill="white"/>
<path d="M103.825 24.3818H14.7695V35.0983H103.825V24.3818Z" fill="#88B059"/>
<path d="M71.2547 41.248H21.2617V46.5872H71.2547V41.248Z" fill="#C1CFB2"/>
<path d="M99.1112 41.248H80.4766V65.5413H99.1112V41.248Z" fill="#C1CFB2"/>
<path d="M71.2547 60.2021H21.2617V65.5413H71.2547V60.2021Z" fill="#C1CFB2"/>
<path d="M55.9977 50.754H22.0586C21.9448 50.754 21.8594 50.6681 21.8594 50.5537C21.8594 50.4393 21.9448 50.3535 22.0586 50.3535H55.9977C56.1115 50.3535 56.1969 50.4393 56.1969 50.5537C56.1969 50.6681 56.1115 50.754 55.9977 50.754Z" fill="#2A5241"/>
<path d="M39.0234 55.5586H22.0586C21.9448 55.5586 21.8594 55.4728 21.8594 55.3584C21.8594 55.244 21.9448 55.1582 22.0586 55.1582H39.0234C39.1372 55.1582 39.2226 55.244 39.2226 55.3584C39.2226 55.4728 39.1372 55.5586 39.0234 55.5586Z" fill="#2A5241"/>
<path d="M55.9977 70.585H22.0586C21.9448 70.585 21.8594 70.4992 21.8594 70.3848C21.8594 70.2704 21.9448 70.1846 22.0586 70.1846H55.9977C56.1115 70.1846 56.1969 70.2704 56.1969 70.3848C56.1969 70.4992 56.1115 70.585 55.9977 70.585Z" fill="#2A5241"/>
<path d="M39.0234 75.3907H22.0586C21.9448 75.3907 21.8594 75.3049 21.8594 75.1905C21.8594 75.076 21.9448 74.9902 22.0586 74.9902H39.0234C39.1372 74.9902 39.2226 75.076 39.2226 75.1905C39.2226 75.3049 39.1372 75.3907 39.0234 75.3907Z" fill="#2A5241"/>
<path d="M39.0234 88.0616H22.0586C21.9448 88.0616 21.8594 87.9758 21.8594 87.8614C21.8594 87.7469 21.9448 87.6611 22.0586 87.6611H39.0234C39.1372 87.6611 39.2226 87.7469 39.2226 87.8614C39.2226 87.9758 39.1372 88.0616 39.0234 88.0616Z" fill="#2A5241"/>
<path d="M71.2515 75.3809H55.2735C55.1691 75.3809 55.0742 75.2951 55.0742 75.1807C55.0742 75.0663 55.1596 74.9805 55.2735 74.9805H71.2515C71.3558 74.9805 71.4507 75.0663 71.4507 75.1807C71.4507 75.2951 71.3653 75.3809 71.2515 75.3809Z" fill="#2A5241"/>
<path d="M97.7827 75.3809H81.8047C81.7003 75.3809 81.6055 75.2951 81.6055 75.1807C81.6055 75.0663 81.6909 74.9805 81.8047 74.9805H97.7827C97.8871 74.9805 97.982 75.0663 97.982 75.1807C97.982 75.2951 97.8966 75.3809 97.7827 75.3809Z" fill="#2A5241"/>
<path d="M77.6289 93.9347C77.5151 93.9347 77.4297 93.8489 77.4297 93.7344V39.5703C77.4297 39.4559 77.5151 39.3701 77.6289 39.3701C77.7428 39.3701 77.8282 39.4559 77.8282 39.5703V93.7344C77.8282 93.8489 77.7428 93.9347 77.6289 93.9347Z" fill="#2A5241"/>
<path d="M57.74 90.0542H59.2296V85.2299H58.0436V84.6864C58.3472 84.6292 58.6034 84.5625 58.8216 84.4862C59.0398 84.41 59.2391 84.3146 59.4194 84.2002H60.0645V90.0542H61.4119V90.7502H57.7305V90.0542H57.74Z" fill="#5C7A3D"/>
<path d="M62.4185 90.2444C62.9119 89.7486 63.3484 89.31 63.7279 88.9096C64.1074 88.5091 64.43 88.1468 64.6862 87.8036C64.9424 87.4604 65.1416 87.1553 65.2745 86.8692C65.4073 86.5832 65.4832 86.3067 65.4832 86.0398C65.4832 85.6584 65.3788 85.3533 65.1796 85.1149C64.9708 84.8766 64.6672 84.7526 64.2497 84.7526C63.9746 84.7526 63.7279 84.8289 63.4907 84.9815C63.263 85.134 63.0448 85.3247 62.855 85.544L62.3711 85.0577C62.6462 84.7526 62.9309 84.5143 63.244 84.3331C63.5476 84.152 63.9177 84.0566 64.3446 84.0566C64.9519 84.0566 65.4263 84.2283 65.7773 84.581C66.1284 84.9338 66.2992 85.401 66.2992 85.9826C66.2992 86.2877 66.2328 86.6023 66.0999 86.9074C65.9671 87.222 65.7868 87.5366 65.5496 87.8703C65.3124 88.204 65.0373 88.5473 64.7147 88.9096C64.3921 89.2719 64.0315 89.6532 63.6425 90.0537C63.8228 90.0442 64.003 90.0251 64.1928 90.0156C64.3826 90.006 64.5628 89.9965 64.7336 89.9965H66.6218V90.7211H62.409V90.2158L62.4185 90.2444Z" fill="#5C7A3D"/>
<path d="M69.6398 90.8741C68.9757 90.8741 68.4633 90.5785 68.0933 89.9874C67.7232 89.3963 67.543 88.5573 67.543 87.4513C67.543 86.3453 67.7232 85.5063 68.0933 84.9343C68.4633 84.3622 68.9757 84.0762 69.6398 84.0762C70.304 84.0762 70.8069 84.3622 71.1769 84.9343C71.547 85.5063 71.7272 86.3453 71.7272 87.4513C71.7272 88.5573 71.547 89.3963 71.1769 89.9874C70.8069 90.5785 70.2945 90.8741 69.6398 90.8741ZM69.6398 90.1972C69.8296 90.1972 70.0004 90.14 70.1522 90.0351C70.304 89.9302 70.4368 89.7681 70.5507 89.5393C70.6646 89.32 70.7499 89.034 70.8069 88.6908C70.8638 88.3475 70.9018 87.928 70.9018 87.4513C70.9018 86.9746 70.8733 86.5646 70.8069 86.2214C70.7499 85.8781 70.6551 85.6017 70.5507 85.3824C70.4368 85.1631 70.304 85.0105 70.1522 84.9057C70.0004 84.8008 69.8296 84.7531 69.6398 84.7531C69.4501 84.7531 69.2793 84.8008 69.118 84.9057C68.9567 85.0105 68.8239 85.1631 68.71 85.3824C68.5961 85.6017 68.5108 85.8781 68.4538 86.2214C68.3969 86.5646 68.3589 86.9746 68.3589 87.4513C68.3589 88.4143 68.4728 89.1103 68.71 89.5393C68.9472 89.9779 69.2508 90.1876 69.6304 90.1876L69.6398 90.1972Z" fill="#5C7A3D"/>
<path d="M31.6233 22.9388C32.3257 14.3162 25.939 6.75398 17.3582 6.0481C8.77733 5.34223 1.25172 11.76 0.549259 20.3826C-0.1532 29.0051 6.2335 36.5673 14.8144 37.2732C23.3952 37.9791 30.9208 31.5613 31.6233 22.9388Z" fill="#F9A17B"/>
<path d="M20.4803 28.6156C19.6738 29.1686 18.317 29.7216 16.5901 29.7216C14.4743 29.7216 12.5956 28.9112 11.2863 27.3857C10.29 26.2797 9.64483 24.7638 9.40763 22.876H7.78516V21.5889H9.27479V21.198C9.27479 20.7785 9.30326 20.3876 9.32223 20.0157H7.78516V18.7H9.512C9.8251 16.8599 10.6126 15.344 11.6563 14.2666C12.9846 12.8746 14.683 12.0928 16.8273 12.0928C18.3644 12.0928 19.5694 12.5409 20.3 12.9318L19.7781 14.667C19.1235 14.2761 18.0323 13.9329 16.8558 13.9329C15.4421 13.9329 14.294 14.4287 13.4116 15.3726C12.6241 16.1353 12.1023 17.3175 11.8461 18.7095H19.133V20.0253H11.6089C11.5804 20.3685 11.5614 20.7594 11.5614 21.1312V21.608H19.133V22.8951H11.7417C11.9504 24.4206 12.4723 25.5456 13.1744 26.337C14.1422 27.3571 15.4421 27.8624 16.8558 27.8624C18.2695 27.8624 19.4461 27.3381 20.0438 26.9948L20.4898 28.6442L20.4803 28.6156Z" fill="white"/>
<path d="M125.648 105.499L95.2861 105.308C93.8345 105.308 92.6674 104.136 92.6674 102.715L92.6484 61.1839C92.6484 59.7633 93.825 58.6097 95.2672 58.6192L125.629 58.8099C127.081 58.8099 128.248 59.9826 128.248 61.4032L128.267 102.934C128.267 104.355 127.09 105.509 125.648 105.499Z" fill="#617D3F"/>
<path d="M123.277 105.509L92.915 105.318C91.4634 105.318 90.2963 104.146 90.2963 102.725L90.2773 61.1937C90.2773 59.7731 91.4539 58.6194 92.8961 58.629L123.258 58.8197C124.71 58.8197 125.877 59.9924 125.877 61.413L125.896 102.944C125.896 104.365 124.719 105.518 123.277 105.509Z" fill="#88B059"/>
<path d="M119.794 73.9223L95.8741 73.7698C94.9348 73.7698 94.1853 73.0166 94.1758 72.0918V64.2927C94.1758 63.3775 94.9253 62.6338 95.8647 62.6338L119.784 62.7863C120.724 62.7863 121.473 63.5395 121.483 64.4644V72.2634C121.483 73.1787 120.733 73.9223 119.794 73.9223Z" fill="#BFCFB0"/>
<path d="M119.794 73.9223L95.8741 73.7698C94.9348 73.7698 94.1853 73.0166 94.1758 72.0918V64.2927C94.1758 63.3775 94.9253 62.6338 95.8647 62.6338L119.784 62.7863C120.724 62.7863 121.473 63.5395 121.483 64.4644V72.2634C121.483 73.1787 120.733 73.9223 119.794 73.9223Z" stroke="white" stroke-width="1.93" stroke-linecap="round" stroke-linejoin="round"/>
<path d="M98.8433 83.3989L96.4428 83.3799C95.3612 83.3799 94.4883 82.4932 94.4883 81.4063C94.4883 80.3098 95.3802 79.4232 96.4618 79.4327L98.8623 79.4518C99.944 79.4518 100.817 80.3385 100.817 81.4254C100.817 82.5218 99.925 83.4085 98.8433 83.3989Z" fill="white"/>
<path d="M109.027 83.4654L106.626 83.4463C105.545 83.4463 104.672 82.5596 104.672 81.4727C104.672 80.3763 105.564 79.4896 106.645 79.4991L109.046 79.5182C110.128 79.5182 111 80.4049 111 81.4918C111 82.5882 110.109 83.4749 109.027 83.4654Z" fill="white"/>
<path d="M119.3 83.5327L116.9 83.5137C115.818 83.5137 114.945 82.627 114.945 81.5401C114.945 80.4436 115.837 79.5569 116.919 79.5665L119.319 79.5855C120.401 79.5855 121.274 80.4722 121.274 81.5591C121.274 82.6556 120.382 83.5423 119.3 83.5327Z" fill="white"/>
<path d="M98.8433 90.7974L96.4428 90.7783C95.3612 90.7783 94.4883 89.8916 94.4883 88.8047C94.4883 87.7083 95.3802 86.8216 96.4618 86.8311L98.8623 86.8502C99.944 86.8502 100.817 87.7369 100.817 88.8238C100.817 89.9202 99.925 90.8069 98.8433 90.7974Z" fill="white"/>
<path d="M109.027 90.855L106.626 90.8359C105.545 90.8359 104.672 89.9493 104.672 88.8623C104.672 87.7659 105.564 86.8792 106.645 86.8887L109.046 86.9078C110.128 86.9078 111 87.7945 111 88.8814C111 89.9779 110.109 90.8645 109.027 90.855Z" fill="white"/>
<path d="M119.312 90.9214L116.912 90.9023C115.83 90.9023 114.957 90.0157 114.957 88.9287C114.957 87.8323 115.849 86.9456 116.931 86.9552L119.331 86.9742C120.413 86.9742 121.286 87.8609 121.286 88.9478C121.286 90.0442 120.394 90.9309 119.312 90.9214Z" fill="white"/>
<path d="M98.8551 98.187L96.4546 98.168C95.3729 98.168 94.5 97.2813 94.5 96.1944C94.5 95.0979 95.3919 94.2112 96.4735 94.2208L98.874 94.2399C99.9557 94.2399 100.829 95.1265 100.829 96.2134C100.829 97.3099 99.9367 98.1966 98.8551 98.187Z" fill="#74964C"/>
<path d="M109.035 98.2534L106.634 98.2344C105.553 98.2344 104.68 97.3477 104.68 96.2608C104.68 95.1643 105.572 94.2777 106.653 94.2872L109.054 94.3063C110.135 94.3063 111.008 95.1929 111.008 96.2798C111.008 97.3763 110.116 98.263 109.035 98.2534Z" fill="white"/>
<path d="M119.312 98.311L116.912 98.292C115.83 98.292 114.957 97.4053 114.957 96.3184C114.957 95.222 115.849 94.3353 116.931 94.3448L119.331 94.3639C120.413 94.3639 121.286 95.2506 121.286 96.3375C121.286 97.4339 120.394 98.3206 119.312 98.311Z" fill="white"/>
<path d="M119.027 71.701C118.647 71.701 118.344 71.3959 118.344 71.0241C118.344 70.6522 118.657 70.3471 119.027 70.3567C119.406 70.3567 119.71 70.6618 119.71 71.0336C119.71 71.4054 119.397 71.7105 119.027 71.701Z" fill="white"/>
<path d="M97.6602 101.447L117.509 101.571" stroke="#2A5241" stroke-width="1.42" stroke-linecap="round" stroke-linejoin="round"/>
</g>
</g>
<defs>
<clipPath id="clip0_9036_23867">
<rect width="151" height="117.969" fill="white"/>
</clipPath>
<clipPath id="clip1_9036_23867">
<rect width="157" height="113" fill="white" transform="translate(0.5 6)"/>
</clipPath>
</defs>
</svg>
