<svg width="164" height="119" viewBox="0 0 164 119" fill="none" xmlns="http://www.w3.org/2000/svg">
<path d="M75.6433 0.0765414C30.1129 1.79715 -4.08396 43.4488 12.2616 78.6231C19.304 93.7717 36.8439 101.909 53.9232 98.4001L54.5971 98.2597C60.4686 97.0758 66.532 97.0027 72.4339 98.0445C78.3358 99.0863 83.9581 101.222 88.9732 104.328C110.907 117.8 135.617 126.387 150.798 107.188C172.364 79.9266 153.575 -2.86735 75.6433 0.0765414Z" fill="#C3CDFF" fill-opacity="0.45"/>
<g clip-path="url(#clip0_9036_23919)">
<path d="M105.802 107.701C133.38 107.701 155.736 104.89 155.736 101.422C155.736 97.9547 133.38 95.1436 105.802 95.1436C78.2237 95.1436 55.8672 97.9547 55.8672 101.422C55.8672 104.89 78.2237 107.701 105.802 107.701Z" fill="#DBE8CC"/>
<path d="M57.6339 108.663C85.212 108.663 107.569 105.852 107.569 102.384C107.569 98.9166 85.212 96.1055 57.6339 96.1055C30.0557 96.1055 7.69922 98.9166 7.69922 102.384C7.69922 105.852 30.0557 108.663 57.6339 108.663Z" fill="#DBE8CC"/>
<path d="M120.332 35.7643C122.231 35.7643 123.77 34.2417 123.77 32.3636C123.77 30.4854 122.231 28.9629 120.332 28.9629C118.434 28.9629 116.895 30.4854 116.895 32.3636C116.895 34.2417 118.434 35.7643 120.332 35.7643Z" stroke="#2A5241" stroke-width="2.59" stroke-linecap="round" stroke-linejoin="round"/>
<path d="M23.861 102.326L144.332 102.326V44.0831L23.861 44.0831L23.861 102.326Z" fill="#BBC4BC"/>
<path d="M23.8591 102.326H64.168L64.168 44.0831L23.8591 44.0831L23.8591 102.326Z" fill="#F3FFF5"/>
<path d="M58.5864 48.1306H148.126L125.925 6.12793H42.168L58.5864 48.1306Z" fill="#97BA6E"/>
<path d="M42.1686 6.12793L16.0664 48.6366L64.1703 48.1306L42.1686 6.12793Z" fill="#4A7053"/>
<path d="M23.8594 48.6033L44.1961 16.0146L60.805 48.1305C49.9202 52.4518 37.3205 51.7634 23.8594 48.6033Z" fill="#F3FFF5"/>
<path d="M64.1703 48.1306H60.8071L42.1686 12.0916L19.6119 48.6034L16.0664 48.6366L42.1686 6.12793L64.1703 48.1306Z" fill="#8BAB66"/>
<path d="M35.4071 102.376H48.918V81.0926H35.4071V102.376Z" fill="#8DAB8D"/>
<path d="M71.8388 65.333H84.4219V53.8453H71.8388V65.333Z" fill="#587558"/>
<path d="M35.4169 65.333H48V53.8453H35.4169V65.333Z" fill="#8DAB8D"/>
<path d="M98.836 65.333H110.301V53.8453H98.836V65.333Z" fill="#587558"/>
<path d="M124.814 65.333H135.367V53.8453H124.814V65.333Z" fill="#587558"/>
<path d="M71.8388 92.0244H84.4219V80.5367H71.8388V92.0244Z" fill="#587558"/>
<path d="M124.814 92.0244H135.367V80.5367H124.814V92.0244Z" fill="#587558"/>
<path d="M125.925 6.12793L148.125 48.1306H124.293" stroke="#2A5241" stroke-width="2.72" stroke-linecap="round" stroke-linejoin="round"/>
<path d="M144.33 52.8008V102.326H114.492" stroke="#28401D" stroke-width="2.02" stroke-linecap="round" stroke-linejoin="round"/>
<path d="M64.168 102.326H80.9261" stroke="#28401D" stroke-width="2.02" stroke-linecap="round" stroke-linejoin="round"/>
<path d="M64.168 48.1309V78.3887" stroke="#28401D" stroke-width="2.02" stroke-linecap="round" stroke-linejoin="round"/>
<path d="M98.645 87.8437C98.2888 87.8437 97.9988 88.134 97.9988 88.4907V94.9437C97.9988 95.3004 98.2888 95.5907 98.645 95.5907C99.0012 95.5907 99.2911 95.3004 99.2911 94.9437V88.4907C99.2911 88.134 99.0012 87.8437 98.645 87.8437ZM98.645 96.8846C97.5764 96.8846 96.7148 96.0137 96.7148 94.952V88.499C96.7148 87.429 97.5846 86.5664 98.645 86.5664C99.7053 86.5664 100.575 87.4373 100.575 88.499V94.952C100.575 96.022 99.7053 96.8846 98.645 96.8846Z" fill="#EF0F44"/>
<path d="M101.223 87.8437C100.867 87.8437 100.577 88.134 100.577 88.4907V94.9437C100.577 95.3004 100.867 95.5907 101.223 95.5907C101.579 95.5907 101.869 95.3004 101.869 94.9437V88.4907C101.869 88.134 101.579 87.8437 101.223 87.8437ZM101.223 96.8846C100.154 96.8846 99.293 96.0137 99.293 94.952V88.499C99.293 87.429 100.163 86.5664 101.223 86.5664C102.283 86.5664 103.153 87.4373 103.153 88.499V94.952C103.153 96.022 102.283 96.8846 101.223 96.8846Z" fill="#EF0F44"/>
<path d="M103.797 87.8437C103.441 87.8437 103.151 88.134 103.151 88.4907V94.9437C103.151 95.3004 103.441 95.5907 103.797 95.5907C104.154 95.5907 104.443 95.3004 104.443 94.9437V88.4907C104.443 88.134 104.154 87.8437 103.797 87.8437ZM103.797 96.8846C102.729 96.8846 101.867 96.0137 101.867 94.952V88.499C101.867 87.429 102.737 86.5664 103.797 86.5664C104.858 86.5664 105.727 87.4373 105.727 88.499V94.952C105.727 96.022 104.858 96.8846 103.797 96.8846Z" fill="#EF0F44"/>
<path d="M106.383 87.8437C106.027 87.8437 105.737 88.134 105.737 88.4907V94.9437C105.737 95.3004 106.027 95.5907 106.383 95.5907C106.739 95.5907 107.029 95.3004 107.029 94.9437V88.4907C107.029 88.134 106.739 87.8437 106.383 87.8437ZM106.383 96.8846C105.315 96.8846 104.453 96.0137 104.453 94.952V88.499C104.453 87.429 105.323 86.5664 106.383 86.5664C107.444 86.5664 108.313 87.4373 108.313 88.499V94.952C108.313 96.022 107.444 96.8846 106.383 96.8846Z" fill="#EF0F44"/>
<path d="M94.7789 95.5912C94.4227 95.5912 94.1328 95.3009 94.1328 94.9443V92.3647C94.1328 92.0081 94.4227 91.7178 94.7789 91.7178C95.1351 91.7178 95.4251 92.0081 95.4251 92.3647V94.9443C95.4251 95.3009 95.1351 95.5912 94.7789 95.5912Z" fill="#EF0F44"/>
<path d="M91.3068 115H1.08815C0.765081 115 0.5 114.71 0.5 114.353C0.5 113.996 0.765081 113.706 1.08815 113.706H90.7187V93.6587C90.7187 93.302 90.9838 93.0117 91.3068 93.0117H94.8274C95.1505 93.0117 95.4156 93.302 95.4156 93.6587C95.4156 94.0153 95.1505 94.3056 94.8274 94.3056H91.8867V114.353C91.8867 114.71 91.6216 115 91.2985 115" fill="#EF0F44"/>
<path d="M110.252 91.0707C109.895 91.0707 109.605 90.7804 109.605 90.4238V87.8442C109.605 87.4876 109.895 87.1973 110.252 87.1973C110.608 87.1973 110.898 87.4876 110.898 87.8442V90.4238C110.898 90.7804 110.608 91.0707 110.252 91.0707Z" fill="#EF0F44"/>
<path d="M162.854 111.774H113.474C113.118 111.774 112.828 111.483 112.828 111.127V89.7851H110.252C109.895 89.7851 109.605 89.4948 109.605 89.1382C109.605 88.7815 109.895 88.4912 110.252 88.4912H113.474C113.83 88.4912 114.12 88.7815 114.12 89.1382V110.48H162.854C163.21 110.48 163.5 110.77 163.5 111.127C163.5 111.483 163.21 111.774 162.854 111.774Z" fill="#EF0F44"/>
</g>
<defs>
<clipPath id="clip0_9036_23919">
<rect width="163" height="110" fill="white" transform="translate(0.5 5)"/>
</clipPath>
</defs>
</svg>
