<svg width="149" height="117" viewBox="0 0 149 117" fill="none" xmlns="http://www.w3.org/2000/svg">
<path d="M80.5957 99.817C74.4716 96.2629 67.1154 95.068 60.0707 96.483C45.0656 99.4757 22.2386 99.5078 8.69754 82.4587C-14.5001 53.2581 11.2581 7.14834 55.7751 0.684578C110.332 -7.23178 176.234 55.2999 137.23 95.7334C120.284 113.316 102.803 112.753 80.5957 99.817Z" fill="#C3CDFF" fill-opacity="0.45"/>
<path d="M95.0595 39.834C95.0595 39.834 118.79 37.9993 116.927 8.98242C116.927 8.98242 87.6706 14.2999 95.0595 39.834Z" fill="#B5CF96"/>
<path d="M98.8984 32.5233L115.171 11.4053" stroke="#8EAD6A" stroke-width="1.64" stroke-linecap="round" stroke-linejoin="round"/>
<path d="M93.4961 48.8874C93.4961 48.8874 116.731 53.7644 124.198 25.5525C124.198 25.5496 94.577 22.4403 93.4961 48.8874Z" fill="#9EB583"/>
<g clip-path="url(#clip0_9036_23950)">
<path d="M56.9308 29.3956C53.5292 32.4901 52.8926 35.8067 52.9354 37.9985C51.8902 35.3963 50.7642 32.9729 49.6621 30.7859C56.2657 25.2438 52.3843 20.1651 52.3843 20.1651C49.1442 23.2258 48.4981 26.441 48.5409 28.6328C48.5361 28.6231 48.5314 28.6135 48.5266 28.6038C46.9636 25.6976 45.3863 23.11 43.9943 20.9665C49.8616 14.0533 44.9397 9.68427 44.9397 9.68427C42.094 13.6526 42.322 17.2009 42.8921 19.3058C41.3814 17.0754 40.1937 15.5016 39.6426 14.7919C36.5878 7.82562 30.578 7.99942 30.578 7.99942C32.6304 14.8161 36.7066 15.3906 38.6592 15.2361C39.0915 15.7912 40.379 17.4568 42.0655 19.9575C36.45 17.4568 32.4023 20.503 32.4023 20.503C38.0321 24.9879 41.7377 22.9217 43.1962 21.6665C44.5597 23.7714 46.0942 26.2962 47.6192 29.1301C47.776 29.4245 47.9375 29.7287 48.099 30.0328C42.8779 26.0066 38.0463 28.348 38.0463 28.348C43.1154 34.2956 47.4054 32.2729 48.7832 31.3604C49.9424 33.6536 51.1206 36.217 52.199 38.9688C47.1489 35.1357 42.4503 37.3081 42.4503 37.3081C47.1156 42.9902 51.4816 41.4309 53.1111 40.5088C55.3013 46.4903 55.8809 46.6834 55.8666 53.4566C55.8666 53.7511 57.0353 54.2483 57.0353 54.0118C57.0448 47.0358 56.0329 46.273 53.7715 40.1516C60.817 34.6625 56.9308 29.3859 56.9308 29.3859V29.3956Z" fill="#C9D9B9"/>
<path d="M38.1842 34.2719C35.766 38.2112 36.0653 41.5713 36.7114 43.6665C34.9916 41.4651 33.2481 39.4568 31.5853 37.6705C36.4026 30.4773 31.2812 26.7021 31.2812 26.7021C29.0103 30.5594 29.2764 33.8326 29.9177 35.9229C29.9082 35.9133 29.9035 35.9085 29.894 35.8988C27.5946 33.5526 25.3712 31.5153 23.4471 29.8497C27.1813 21.551 21.257 18.751 21.257 18.751C19.6132 23.371 20.8104 26.7118 21.9364 28.5704C19.8745 26.8566 18.302 25.6835 17.5751 25.1573C12.7245 19.3351 7.00456 21.2034 7.00456 21.2034C10.848 27.1656 14.9194 26.5621 16.7532 25.8621C17.3233 26.2676 19.0146 27.5083 21.3235 29.4297C15.2425 28.6187 12.1924 32.6932 12.1924 32.6932C18.8341 35.4064 21.8176 32.3698 22.877 30.7477C24.7631 32.3794 26.9295 34.3684 29.1719 36.6616C29.4046 36.8981 29.6422 37.1443 29.8797 37.3905C23.7607 35.0057 19.7652 38.6264 19.7652 38.6264C26.2644 42.8989 29.8322 39.7416 30.9012 38.4768C32.6447 40.3499 34.4785 42.4789 36.2743 44.8106C30.3738 42.561 26.4544 45.9838 26.4544 45.9838C32.4927 50.1162 36.2601 47.3838 37.5665 46.0369C41.3149 51.1542 41.9183 51.1832 43.7711 57.6908C43.8519 57.9708 45.1108 58.1205 45.0443 57.8936C43.1393 51.1928 41.9563 50.7487 38.1034 45.5107C43.3578 38.2402 38.1842 34.2767 38.1842 34.2767V34.2719Z" fill="#C9D9B9"/>
</g>
<path d="M99.4883 42.9811L121.751 27.3701" stroke="#758F57" stroke-width="1.64" stroke-linecap="round" stroke-linejoin="round"/>
<path d="M44.205 79.6926C43.8717 79.4009 40.8438 73.8589 40.8438 73.8589C40.5666 71.47 39.5791 67.5089 39.5791 67.5089C39.8626 66.8001 39.5137 61.2785 39.5137 61.2785C41.3827 56.1681 40.4046 54.2955 40.1648 53.5196C40.0184 53.0442 39.1804 51.787 38.5512 51.6616C38.3028 51.6114 38.0434 51.648 37.8219 51.7647C37.6003 51.8813 37.4321 52.0697 37.3488 52.2945C35.838 56.2644 32.3959 66.2313 32.2277 68.6844C32.0439 71.3095 34.7633 82.5336 34.7633 82.5336C34.7633 82.5336 45.0959 80.4422 44.205 79.6926Z" fill="#F9A17B"/>
<path d="M47.1266 85.0622C46.7933 84.7705 43.7686 79.2285 43.7686 79.2285C43.4913 76.8425 42.5039 72.8814 42.5039 72.8814C42.7873 72.1697 42.4384 66.6481 42.4384 66.6481C44.3075 61.5406 43.3262 59.668 43.0864 58.8921C42.94 58.4167 42.1051 57.1595 41.4759 57.0312C41.2268 56.9829 40.9675 57.0208 40.7459 57.1377C40.5243 57.2545 40.3554 57.4426 40.2704 57.667C38.7627 61.6369 35.3206 71.6038 35.1492 74.0569C34.9686 76.6821 37.688 87.9061 37.688 87.9061C37.688 87.9061 48.0081 85.8177 47.1266 85.0622Z" fill="#F9A17B"/>
<path d="M49.0292 91.1817C48.6959 90.89 45.6712 85.3479 45.6712 85.3479C45.3908 82.959 44.4065 78.9979 44.4065 78.9979C44.6868 78.2862 44.3379 72.7675 44.3379 72.7675C46.207 67.6572 45.2288 65.7846 44.989 65.0087C44.8426 64.5332 44.0046 63.2761 43.3754 63.1477C43.1267 63.099 42.8676 63.1366 42.6463 63.2536C42.4251 63.3706 42.2568 63.559 42.173 63.7836C40.6622 67.7535 37.2232 77.7204 37.0519 80.1734C36.8681 82.7986 39.5875 94.0227 39.5875 94.0227C39.5875 94.0227 49.9232 91.9401 49.0292 91.1817Z" fill="#F9A17B"/>
<path d="M40.284 57.668L37.7109 69.8079" stroke="#D87B5D" stroke-width="1.14" stroke-linecap="round" stroke-linejoin="round"/>
<path d="M103.06 80.0156C103.371 79.7239 106.082 74.0302 106.082 74.0302C106.222 71.6325 106.982 67.6131 106.982 67.6131C106.67 66.916 106.689 61.3856 106.689 61.3856C104.508 56.3773 105.402 54.4581 105.599 53.6705C105.717 53.1892 106.48 51.8912 107.1 51.7337C107.348 51.6715 107.612 51.6965 107.841 51.804C108.071 51.9115 108.251 52.094 108.346 52.3171C110.081 56.2053 114.087 65.9826 114.396 68.4269C114.729 71.0521 112.657 82.3811 112.657 82.3811C112.657 82.3811 102.219 80.8177 103.06 80.0156Z" fill="#F9A17B"/>
<path d="M103.727 78.8696C104.107 78.645 108.119 73.6834 108.119 73.6834C108.839 71.3762 110.549 67.6368 110.549 67.6368C110.403 66.893 111.776 61.5114 111.776 61.5114C110.879 56.1706 112.2 54.4905 112.58 53.7642C112.814 53.3208 113.873 52.2183 114.515 52.1978C114.769 52.1897 115.017 52.2684 115.214 52.4192C115.41 52.57 115.542 52.7827 115.583 53.0175C116.327 57.174 117.86 67.5522 117.57 69.9965C117.259 72.6217 112.49 83.2157 112.49 83.2157C112.49 83.2157 102.705 79.4705 103.727 78.8696Z" fill="#F9A17B"/>
<path d="M99.4195 85.0625C99.7528 84.7709 102.781 79.2288 102.781 79.2288C103.058 76.8428 104.045 72.8817 104.045 72.8817C103.762 72.17 104.111 66.6484 104.111 66.6484C102.242 61.541 103.22 59.6684 103.46 58.8925C103.606 58.417 104.444 57.1599 105.073 57.0315C105.322 56.9828 105.581 57.0204 105.802 57.1374C106.024 57.2544 106.192 57.4428 106.276 57.6674C107.787 61.6372 111.229 71.6042 111.397 74.0572C111.581 76.6824 108.861 87.9065 108.861 87.9065C108.861 87.9065 98.5131 85.818 99.4195 85.0625Z" fill="#F9A17B"/>
<path d="M97.4973 91.1813C97.8306 90.8896 100.855 85.3476 100.855 85.3476C101.133 82.9587 102.12 78.9976 102.12 78.9976C101.837 78.2859 102.185 72.7672 102.185 72.7672C100.316 67.6568 101.298 65.7842 101.537 65.0083C101.684 64.5329 102.519 63.2757 103.148 63.1474C103.397 63.0992 103.656 63.137 103.878 63.2539C104.1 63.3708 104.268 63.5588 104.353 63.7833C105.861 67.7531 109.303 77.72 109.475 80.1731C109.658 82.7983 106.939 94.0223 106.939 94.0223C106.939 94.0223 96.5939 91.9397 97.4973 91.1813Z" fill="#F9A17B"/>
<path d="M113.668 66.7735C113.668 66.7735 110.077 68.894 109.909 71.2888C109.909 71.2888 107.438 77.0875 103.837 76.0958C102.682 75.7778 101.925 87.2352 97.9811 85.6514L94.0562 87.9586C93.3771 91.2459 93.5142 95.875 93.7135 96.8142C95.0686 103.211 96.2274 101.624 96.2274 101.624L110.398 98.3981L113.404 78.5634C113.404 78.5634 113.354 66.0734 113.668 66.7735Z" fill="#F9A17B"/>
<path d="M94.9922 101.06L100.026 111.704C100.61 112.786 101.433 113.741 102.441 114.503C103.448 115.265 104.617 115.819 105.87 116.127C107.123 116.434 108.432 116.489 109.709 116.288C110.987 116.087 112.204 115.634 113.281 114.959L113.461 114.848C114.494 114.196 115.374 113.354 116.048 112.372C116.721 111.391 117.174 110.291 117.378 109.141C117.582 107.99 117.533 106.812 117.235 105.68C116.936 104.547 116.394 103.483 115.642 102.554L109.412 94.894C109.412 94.894 101.082 92.7502 100.562 92.3797C96.4095 89.4279 102.571 96.6121 102.571 96.6121L94.9922 101.06Z" fill="#F9A17B"/>
<path d="M106.418 61.8135L108.826 69.8115" stroke="#D87B5D" stroke-width="1.14" stroke-linecap="round" stroke-linejoin="round"/>
<path d="M74 90C94.4345 90 111 74.5538 111 55.5C111 36.4462 94.4345 21 74 21C53.5655 21 37 36.4462 37 55.5C37 74.5538 53.5655 90 74 90Z" fill="#7CA356"/>
<path d="M104.244 35.4691C102.603 35.2267 85.7559 32.9326 82.7981 41.2758C79.6956 50.0341 71.8775 48.5799 74.5459 57.627C77.2143 66.6741 84.6617 71.9297 93.9587 70.7644C104.66 69.4198 84.1852 84.3765 92.268 86C110.121 76.7935 117.466 53.7459 104.244 35.4691Z" fill="#96C467"/>
<path d="M53.8686 27.05C53.8686 27.05 70.2481 26.2048 70.9271 31.465C71.606 36.7252 67.461 35.8516 62.0262 38.8885C56.5914 41.9254 54.1866 39.5192 51.1137 44.1329C48.0407 48.7466 38 46.4066 38 46.4066C38 46.4066 40.1439 34.9371 53.8686 27.05Z" fill="#96C467"/>
<path d="M38 62.3408C38 62.3408 49.7365 59.9625 54.0154 67.7717C58.2943 75.5809 61.6749 72.4 64.4219 75.8736C65.1983 76.8605 65.1182 78.1335 64.6203 79.4921C62.6811 84.6631 55.9999 86.6203 51.2197 83.5085C46.4394 80.3967 40.6774 74.2223 38 62.3408Z" fill="#96C467"/>
<g style="mix-blend-mode:multiply" opacity="0.68">
<path d="M106.086 73.2366C103.724 77.066 100.578 80.4199 96.8287 83.1055C93.0795 85.7911 88.8012 87.7555 84.2397 88.8858C79.6782 90.016 74.9235 90.2898 70.2487 89.6915C65.574 89.0932 61.0715 87.6344 57 85.3992C95.0606 83.1077 105.863 50.1988 93.0972 27C97.1896 29.2348 100.772 32.2039 103.64 35.7376C106.508 39.2714 108.605 43.3004 109.811 47.5944C111.017 51.8884 111.309 56.3632 110.67 60.7631C110.031 65.1629 108.473 69.4015 106.086 73.2366Z" fill="#B4D691"/>
</g>
<path d="M106.409 82.7674C105.689 82.4757 102.917 80.5068 102.933 77.5171C102.925 76.1157 103.046 74.7163 103.294 73.3343C103.677 70.5691 103.537 69.0757 102.914 67.696C102.057 65.7942 99.9359 65.52 99.6338 66.2376C98.774 68.3144 97.9548 72.1821 97.4065 74.2239C96.8178 76.4349 95.2478 81.3206 94.7182 82.9541C94.6154 83.2691 94.4971 83.5754 94.3662 83.8816C93.8834 85.0221 92.6094 93.2681 93.6653 96.5875L106.409 82.7674Z" fill="#F9A17B"/>
<path d="M101.965 83.3016C101.965 81.0352 103.522 74.3323 103.684 73.1393C104.064 70.3741 103.924 68.8807 103.304 67.5039C102.445 65.6021 100.326 65.325 100.024 66.0455L94.875 82.4878" stroke="#D87B5D" stroke-width="1.14" stroke-linecap="round" stroke-linejoin="round"/>
<path d="M103.488 79.4736L110.877 70.6939L111.955 60.1494" stroke="#D87B5D" stroke-width="1.14" stroke-linecap="round" stroke-linejoin="round"/>
<path d="M42.8129 78.8695C42.4328 78.6449 38.4206 73.6833 38.4206 73.6833C37.7011 71.3761 35.9909 67.6367 35.9909 67.6367C36.1373 66.8929 34.7636 61.5113 34.7636 61.5113C35.6576 56.1705 34.3399 54.4904 33.9568 53.7641C33.7263 53.3207 32.6672 52.2182 32.0224 52.1977C31.7689 52.1903 31.5211 52.2693 31.3252 52.4201C31.1292 52.5708 30.9984 52.7831 30.957 53.0174C30.2094 57.1739 28.6799 67.5521 28.9696 69.9964C29.2811 72.6216 34.0471 83.2156 34.0471 83.2156C34.0471 83.2156 43.8346 79.4704 42.8129 78.8695Z" fill="#F9A17B"/>
<path d="M32.8633 66.7735C32.8633 66.7735 36.4549 68.894 36.62 71.2888C36.62 71.2888 39.0933 77.0875 42.6912 76.0958C43.85 75.7778 44.607 87.2352 48.5475 85.6514L52.4756 87.9586C53.1546 91.2459 53.0176 95.875 52.8182 96.8142C51.46 103.211 50.3044 101.624 50.3044 101.624L36.1341 98.3981L33.1281 78.5634C33.1281 78.5634 33.1779 66.0734 32.8633 66.7735Z" fill="#F9A17B"/>
<path d="M51.5361 101.06L46.5115 111.704C45.9276 112.786 45.1048 113.74 44.0975 114.503C43.0903 115.265 41.9216 115.819 40.6689 116.126C39.4161 116.434 38.1078 116.489 36.8306 116.288C35.5534 116.087 34.3364 115.634 33.2601 114.959L33.0795 114.848C32.0465 114.196 31.1664 113.354 30.493 112.372C29.8195 111.391 29.3669 110.291 29.1628 109.141C28.9587 107.99 29.0074 106.812 29.306 105.68C29.6045 104.547 30.1465 103.483 30.8989 102.554L37.129 94.894C37.129 94.894 45.4586 92.7502 45.9757 92.3797C50.1312 89.4279 43.9665 96.6121 43.9665 96.6121L51.5361 101.06Z" fill="#F9A17B"/>
<path d="M40.1133 82.7674C40.8329 82.4757 43.6052 80.5068 43.5897 77.5171C43.5969 76.1156 43.475 74.7161 43.2252 73.3343C42.8452 70.5691 42.9853 69.0757 43.6052 67.696C44.465 65.7942 46.5832 65.52 46.8854 66.2376C47.7482 68.3144 48.5675 72.1821 49.1126 74.2239C49.7045 76.4349 51.2744 81.3206 51.804 82.9541C51.9068 83.2691 52.0252 83.5754 52.1529 83.8816C52.6357 85.0221 53.9129 93.2681 52.8569 96.5875L40.1133 82.7674Z" fill="#F9A17B"/>
<path d="M44.5725 83.3016C44.5725 81.0352 43.015 74.3323 42.853 73.1393C42.4699 70.3741 42.6101 68.8807 43.2331 67.5039C44.0928 65.6021 46.2111 65.325 46.5132 66.0455L51.6593 82.4878" stroke="#D87B5D" stroke-width="1.14" stroke-linecap="round" stroke-linejoin="round"/>
<path d="M43.0479 79.4736L35.6559 70.6939L34.5781 60.1494" stroke="#D87B5D" stroke-width="1.14" stroke-linecap="round" stroke-linejoin="round"/>
<defs>
<clipPath id="clip0_9036_23950">
<rect width="51" height="50" fill="white" transform="matrix(-1 0 0 1 58 8)"/>
</clipPath>
</defs>
</svg>
