<svg width="16" height="16" viewBox="0 0 16 16" fill="none" xmlns="http://www.w3.org/2000/svg">
<path d="M6.99967 11.3333H2.66634V9.99998H6.99967C8.28834 9.99998 9.33301 11.0446 9.33301 12.3333C9.33301 13.622 8.28834 14.6666 6.99967 14.6666C5.99939 14.6666 5.14611 14.0372 4.81431 13.1528L6.06309 12.6845C6.20529 13.0636 6.57098 13.3333 6.99967 13.3333C7.55194 13.3333 7.99967 12.8856 7.99967 12.3333C7.99967 11.781 7.55194 11.3333 6.99967 11.3333ZM3.33301 7.33331H12.333C13.6217 7.33331 14.6663 8.37798 14.6663 9.66665C14.6663 10.9553 13.6217 12 12.333 12C11.3327 12 10.4795 11.3706 10.1477 10.4862L11.3964 10.0178C11.5386 10.3969 11.9043 10.6666 12.333 10.6666C12.8853 10.6666 13.333 10.2189 13.333 9.66665C13.333 9.11438 12.8853 8.66665 12.333 8.66665H3.33301C2.22844 8.66665 1.33301 7.77125 1.33301 6.66665C1.33301 5.56208 2.22844 4.66665 3.33301 4.66665H8.99967C9.55194 4.66665 9.99967 4.21893 9.99967 3.66665C9.99967 3.11436 9.55194 2.66665 8.99967 2.66665C8.57101 2.66665 8.20527 2.9364 8.06307 3.31543L6.81434 2.84713C7.14614 1.96274 7.99941 1.33331 8.99967 1.33331C10.2883 1.33331 11.333 2.37798 11.333 3.66665C11.333 4.95531 10.2883 5.99998 8.99967 5.99998H3.33301C2.96482 5.99998 2.66634 6.29846 2.66634 6.66665C2.66634 7.03485 2.96482 7.33331 3.33301 7.33331Z" fill="black"/>
</svg>
