<svg width="23" height="23" viewBox="0 0 23 23" fill="none" xmlns="http://www.w3.org/2000/svg">
<path fill-rule="evenodd" clip-rule="evenodd" d="M8.92961 19.3411C9.73836 20.1498 10.8353 20.6042 11.979 20.6042C13.1228 20.6042 14.2197 20.1498 15.0284 19.3411C15.8372 18.5323 16.2915 17.4354 16.2915 16.2917C16.2915 15.2623 15.6573 13.722 14.6337 12.0145C13.7664 10.5677 12.7415 9.19588 11.979 8.23749C11.2165 9.19588 10.1916 10.5677 9.32432 12.0145C8.30073 13.722 7.6665 15.2623 7.6665 16.2917C7.6665 17.4354 8.12086 18.5323 8.92961 19.3411ZM7.91314 20.3575C8.99147 21.4359 10.454 22.0417 11.979 22.0417C13.504 22.0417 14.9665 21.4359 16.0449 20.3575C17.1232 19.2792 17.729 17.8166 17.729 16.2917C17.729 13.376 14.4024 8.93557 12.8098 6.97674C12.3754 6.44249 11.5826 6.44249 11.1483 6.97674C9.5556 8.93557 6.229 13.376 6.229 16.2917C6.229 17.8166 6.83481 19.2792 7.91314 20.3575Z" fill="#304436"/>
<path d="M13.7932 6.77138C13.6288 6.67841 13.5489 6.4843 13.598 6.3019C13.7054 5.90317 13.8625 5.31818 14.0036 4.9835C14.1873 4.52829 14.3151 4.1809 14.387 3.94131C14.4589 3.70173 14.4948 3.47812 14.4948 3.27048C14.4948 2.99895 14.4349 2.74148 14.3151 2.49806C14.1953 2.25465 14.0076 2.01698 13.7521 1.78506C13.7042 1.73715 13.6682 1.68332 13.6443 1.62358C13.6203 1.56385 13.6083 1.50188 13.6083 1.43767C13.6083 1.37346 13.6184 1.31548 13.6385 1.26373C13.6586 1.21198 13.6885 1.16215 13.7281 1.11423C13.776 1.06631 13.8319 1.0283 13.8958 1.00019C13.9597 0.972078 14.0236 0.958182 14.0875 0.958501C14.1514 0.958821 14.2094 0.9708 14.2614 0.994439C14.3135 1.01808 14.3633 1.05002 14.4109 1.09027C14.7623 1.4177 15.024 1.76111 15.1958 2.12048C15.3677 2.47985 15.4534 2.85919 15.4531 3.2585C15.4531 3.53801 15.4113 3.83158 15.3276 4.13921C15.2439 4.44683 15.0981 4.85205 14.8901 5.35485C14.6905 5.83402 14.5547 6.20138 14.4828 6.45694C14.4021 6.74389 14.0661 6.92568 13.8066 6.77896L13.7932 6.77138Z" fill="#304436"/>
<path d="M12.7671 4.46367C12.6764 4.72751 12.3774 4.85214 12.1233 4.73703C11.8943 4.63333 11.7849 4.37096 11.8667 4.13334C11.8939 4.05457 11.9179 3.98235 11.9317 3.93556C12.0036 3.69214 12.0395 3.46645 12.0395 3.25849C12.0395 2.98697 11.9796 2.73349 11.8599 2.49806C11.7401 2.26263 11.5524 2.02496 11.2968 1.78506C11.2489 1.73714 11.2111 1.68124 11.1833 1.61735C11.1555 1.55346 11.1414 1.48957 11.1411 1.42568C11.1408 1.36179 11.1528 1.30397 11.177 1.25223C11.2013 1.20048 11.2333 1.15048 11.2729 1.10225C11.3208 1.05433 11.3746 1.01839 11.4344 0.994434C11.4941 0.970475 11.5559 0.958496 11.6198 0.958496C11.6837 0.958496 11.7436 0.970475 11.7995 0.994434C11.8554 1.01839 11.9073 1.05034 11.9552 1.09027C12.3066 1.4177 12.5681 1.7611 12.7396 2.12047C12.9111 2.47985 12.9971 2.85919 12.9974 3.25849C12.9974 3.53801 12.9554 3.83158 12.8714 4.1392C12.8503 4.21631 12.8103 4.33789 12.7671 4.46367Z" fill="#304436"/>
<path d="M9.51007 7.2938C9.49056 7.40965 9.44076 7.5209 9.35681 7.60308C9.10264 7.85186 8.67228 7.73044 8.63552 7.37668C8.62888 7.31282 8.62496 7.25261 8.625 7.19964C8.625 6.90415 8.66893 6.5887 8.75677 6.25328C8.84462 5.91787 8.99636 5.4946 9.21198 4.98349C9.39566 4.52829 9.52344 4.18089 9.59531 3.94131C9.66719 3.70172 9.70313 3.47811 9.70313 3.27047C9.70313 2.99895 9.64323 2.74147 9.52344 2.49806C9.40365 2.25464 9.21597 2.01697 8.96042 1.78506C8.90452 1.73714 8.86459 1.68332 8.84063 1.62358C8.81667 1.56384 8.80469 1.50187 8.80469 1.43766C8.80469 1.37345 8.81667 1.31356 8.84063 1.25798C8.86459 1.20239 8.89653 1.15048 8.93646 1.10225C8.98438 1.05433 9.03836 1.01839 9.09842 0.994434C9.15847 0.970475 9.22029 0.958496 9.28386 0.958496C9.34743 0.958496 9.40732 0.970475 9.46354 0.994434C9.51977 1.01839 9.57168 1.05034 9.61927 1.09027C9.97066 1.4177 10.2323 1.75918 10.4041 2.11472C10.576 2.47027 10.6618 2.85152 10.6615 3.25849C10.6615 3.53801 10.6215 3.83158 10.5417 4.1392C10.4618 4.44683 10.3181 4.84805 10.1104 5.34287C9.91077 5.82203 9.775 6.1894 9.70313 6.44495C9.65446 6.61799 9.55501 7.02689 9.51007 7.2938Z" fill="#304436"/>
</svg>
