<svg width="18" height="23" viewBox="0 0 18 23" fill="none" xmlns="http://www.w3.org/2000/svg">
<path d="M10.2038 21.7907C10.0809 21.8931 9.953 21.9751 9.82023 22.0365C9.68746 22.098 9.53871 22.1287 9.37397 22.1287C9.20923 22.1287 9.04532 22.0927 8.88222 22.0205C8.71913 21.9484 8.5757 21.8513 8.45194 21.7292C7.61187 20.8276 6.99186 19.9056 6.5919 18.9631C6.19194 18.0206 5.99279 17.0268 5.99442 15.9819C5.99442 15.2237 6.10712 14.4247 6.3325 13.5846C6.55789 12.7445 6.94719 11.6586 7.50041 10.3267C7.97167 9.15884 8.2995 8.26263 8.4839 7.63811C8.66831 7.01359 8.76051 6.43455 8.76051 5.901C8.76051 5.20436 8.60684 4.55402 8.2995 3.94999C7.99216 3.34596 7.51065 2.73619 6.85499 2.12068C6.73205 1.99774 6.63493 1.85432 6.56362 1.6904C6.49232 1.52649 6.45626 1.36257 6.45544 1.19865C6.45462 1.03474 6.48535 0.886392 6.54764 0.753619C6.60993 0.620847 6.69189 0.492583 6.79352 0.368826C6.91645 0.245888 7.05455 0.153685 7.20782 0.0922168C7.36108 0.0307482 7.51967 1.38132e-05 7.68358 1.38132e-05C7.8475 1.38132e-05 8.00117 0.0307482 8.1446 0.0922168C8.28802 0.153685 8.42121 0.235644 8.54414 0.338091C9.44568 1.17816 10.1165 2.05921 10.5566 2.98124C10.9967 3.90327 11.2172 4.87653 11.218 5.901C11.218 6.61814 11.1103 7.37133 10.8947 8.16059C10.6792 8.94985 10.3054 9.97924 9.77352 11.2488C9.26128 12.4781 8.91296 13.4207 8.72855 14.0763C8.54414 14.732 8.45194 15.3569 8.45194 15.9511C8.45194 16.6683 8.60069 17.36 8.8982 18.0263C9.19571 18.6926 9.6514 19.3635 10.2653 20.0388C10.3677 20.1617 10.4497 20.2949 10.5111 20.4383C10.5726 20.5818 10.6033 20.7354 10.6033 20.8994C10.6033 21.0633 10.5726 21.2223 10.5111 21.3764C10.4497 21.5304 10.3472 21.6685 10.2038 21.7907ZM16.197 21.7907C16.0741 21.8931 15.9462 21.9751 15.8134 22.0365C15.6807 22.098 15.5319 22.1287 15.3672 22.1287C15.2024 22.1287 15.0385 22.0927 14.8754 22.0205C14.7123 21.9484 14.5689 21.8513 14.4451 21.7292C13.6051 20.8276 12.985 19.9105 12.5851 18.9778C12.1851 18.0452 11.9856 17.0567 11.9864 16.0126C11.9864 15.2545 12.0991 14.4451 12.3245 13.5846C12.5498 12.724 12.9392 11.6381 13.4924 10.3267C13.9636 9.15884 14.2915 8.26755 14.4759 7.65286C14.6603 7.03817 14.7525 6.46447 14.7525 5.93174C14.7525 5.23509 14.5988 4.57451 14.2915 3.94999C13.9841 3.32547 13.5026 2.7157 12.8469 2.12068C12.724 1.99774 12.6318 1.85965 12.5703 1.70638C12.5089 1.55312 12.4781 1.39412 12.4781 1.22939C12.4781 1.06465 12.504 0.915897 12.5556 0.783125C12.6072 0.650352 12.6839 0.522497 12.7855 0.39956C12.9084 0.276623 13.0518 0.179092 13.2158 0.106969C13.3797 0.0348459 13.5436 -0.000805769 13.7075 1.38132e-05C13.8714 0.000833395 14.0202 0.0315678 14.1538 0.0922168C14.2874 0.152866 14.4152 0.234824 14.5373 0.338091C15.4389 1.17816 16.1101 2.05921 16.551 2.98124C16.992 3.90327 17.212 4.87653 17.2112 5.901C17.2112 6.61814 17.1039 7.37133 16.8891 8.16059C16.6744 8.94985 16.3003 9.98949 15.7667 11.2795C15.2545 12.5089 14.9061 13.4514 14.7217 14.1071C14.5373 14.7627 14.4451 15.3774 14.4451 15.9511C14.4451 16.6683 14.5988 17.3702 14.9061 18.057C15.2135 18.7439 15.6745 19.4147 16.2892 20.0695C16.3916 20.1925 16.4683 20.3256 16.5191 20.4691C16.5699 20.6125 16.5957 20.7559 16.5965 20.8994C16.5965 21.0633 16.5658 21.2272 16.5043 21.3911C16.4429 21.555 16.3404 21.6882 16.197 21.7907ZM4.21061 21.7907C4.08767 21.8931 3.9594 21.9751 3.82581 22.0365C3.69222 22.098 3.54387 22.1287 3.38078 22.1287C3.21768 22.1287 3.05376 22.0927 2.88903 22.0205C2.72429 21.9484 2.58087 21.8513 2.45875 21.7292C1.61868 20.8276 0.998663 19.9105 0.598707 18.9778C0.198751 18.0452 -0.000817068 17.0567 2.51405e-06 16.0126C2.51405e-06 15.2545 0.112695 14.4451 0.33808 13.5846C0.563465 12.724 0.952766 11.6381 1.50598 10.3267C1.97724 9.15884 2.30508 8.26755 2.48948 7.65286C2.67389 7.03817 2.76609 6.46447 2.76609 5.93174C2.76609 5.23509 2.61242 4.57451 2.30508 3.94999C1.99773 3.32547 1.51623 2.7157 0.860563 2.12068C0.717136 1.99774 0.614689 1.85965 0.55322 1.70638C0.491751 1.55312 0.461017 1.39412 0.461017 1.22939C0.461017 1.06465 0.491751 0.910979 0.55322 0.768372C0.614689 0.625765 0.696647 0.492583 0.799095 0.368826C0.922032 0.245888 1.06054 0.153685 1.21462 0.0922168C1.3687 0.0307482 1.52729 1.38132e-05 1.69039 1.38132e-05C1.85349 1.38132e-05 2.00716 0.0307482 2.15141 0.0922168C2.29565 0.153685 2.42883 0.235644 2.55095 0.338091C3.45249 1.17816 4.12373 2.0543 4.56466 2.96649C5.0056 3.87869 5.22566 4.85686 5.22484 5.901C5.22484 6.61814 5.12239 7.37133 4.91749 8.16059C4.7126 8.94985 4.34379 9.97924 3.81106 11.2488C3.29882 12.4781 2.9505 13.4207 2.76609 14.0763C2.58169 14.732 2.48948 15.3569 2.48948 15.9511C2.48948 16.6683 2.63824 17.3702 2.93575 18.057C3.23325 18.7439 3.68894 19.4147 4.30281 20.0695C4.40526 20.1925 4.4823 20.3256 4.53393 20.4691C4.58556 20.6125 4.61097 20.7559 4.61015 20.8994C4.61015 21.0633 4.57942 21.2272 4.51795 21.3911C4.45648 21.555 4.35403 21.6882 4.21061 21.7907Z" fill="#304436"/>
</svg>
