<svg xmlns="http://www.w3.org/2000/svg" width="347" height="145" fill="none"><g clip-path="url(#a)"><path stroke="#3C4A71" stroke-linecap="round" stroke-linejoin="round" stroke-width="1.208" d="M67.425 60.597c-3.22-.94-6.947-1.514-11.29-1.578 0 0-1.65 6.01.367 13.519"/><path stroke="#3C4A71" stroke-linecap="round" stroke-linejoin="round" stroke-width="1.208" d="M67.483 73.482a35.166 35.166 0 0 1-.082-12.933"/><path stroke="#3C4A71" stroke-linecap="round" stroke-linejoin="round" stroke-width="1.208" d="M67.401 60.55c1.311-7.371 5.086-15.64 12.933-24.494 0 0 8.385 4.413 14.628 13.801"/><path stroke="#3C4A71" stroke-linecap="round" stroke-linejoin="round" stroke-width="1.208" d="M85.387 66.82C88.17 57.294 95 46.737 109.92 37.756c0 0 5.588 5.172 8.82 14.442"/><path stroke="#3C4A71" stroke-linecap="round" stroke-linejoin="round" stroke-width="1.208" d="M110.638 71.412c-.9-4.831-3.423-10.382-8.572-16.6 0 0-34.906 15.838-17.403 37.21"/><path stroke="#3C4A71" stroke-linecap="round" stroke-linejoin="round" stroke-width="1.208" d="M79.751 79.083c-5.923-4.05-13.706-7.153-23.234-6.316M56.517 72.768c-2.86.262-5.682.832-8.42 1.7 0 0 5.008 11.567 16.543 18.655M103.227 92.024H66.631a1.921 1.921 0 0 0-1.935 1.905v6.953a1.92 1.92 0 0 0 1.935 1.905h3.221l8.065 34.881M109.934 144.336l3.138-13.574M284.403 138.835l-3.221-30.5a3.313 3.313 0 0 0-1.571-2.827 3.322 3.322 0 0 0-3.231-.148c-4.121 2.065-9.544 7.533-10.521 21.994M256.647 120.928h10.032"/><path stroke="#3C4A71" stroke-linecap="round" stroke-linejoin="round" stroke-width="1.208" d="M286.663 144.321s-2.273-17.632-33.136-18.401"/><path stroke="#3C4A71" stroke-linecap="round" stroke-linejoin="round" stroke-width="1.208" d="m235.191 144.265 22.266-22.264s-31.513-26.249-38.453-31.914c-7.147-5.838-17.901-18.36-32.63-7.875-5.756 4.096-16.17 12.683-26.48 22.346l.071.01-.282.188a315.944 315.944 0 0 0-7.57 7.332c-.541 5.123-2.528 14.118-6.104 12.705-1.163-.459-2.379-2.2-3.497-2.484-.725.829-1.427 1.651-2.108 2.466-.551 1.979-2.556 6.199-4.743 6.114-3.958 5.589-6.134 10.358-5.303 13.426"/><path stroke="#3C4A71" stroke-linecap="round" stroke-linejoin="round" stroke-width="1.208" d="m209.379 144.265-11.827-21.898c-7.796 14.203-12.06 19.73-14.554 21.648"/><path fill="#3C4A71" d="M161.795 56.732c-6.177-1.409-18.874-1.751-24.439 1.065l-12.264 2.463c-4.305-1.529-9.531-.673-13.519 4.28-8.234 10.223-15.888 48.019-15.888 48.019l15.3 1.409 1.409-2.818s-5.309 33.274 2.978 33.274c.284 0 6.845-.052 14.99-.121-.831-3.068 1.343-7.837 5.301-13.426a1.528 1.528 0 0 1-.286-.032c-2.158-.461-4.505-2.881-5.065-5.997-1.76-.848-.695-.19-2.19-.84a13.442 13.442 0 0 1-4.931-2.941c-.948 2.013-1.6 4.489-1.095 6.643a.605.605 0 0 1-1.176.276c-.62-2.629.202-5.572 1.373-7.876a11.611 11.611 0 0 1-1.135-1.63c-2.841 3.507-3.588 8.375-3.598 8.437a.603.603 0 0 1-.604.518.646.646 0 0 1-.088 0 .614.614 0 0 1-.398-.237.601.601 0 0 1-.114-.448c.041-.278.864-5.675 4.196-9.442-2.082-4.703-1.007-10.02-.095-11.425 1.629-2.504 1.901-2.283 1.901-2.283-.924-2.961-3.077-2.569-4.212-2.15a.402.402 0 0 1-.511-.3.398.398 0 0 1 .014-.219c4.121-10.481 15.647-2.922 15.647-2.922l2.331-.894c-.165-4.594.322-10.212 1.149-11.056 1.911-1.95 10.083 7.13 10.083 7.13 5.922-1.129 11.982-2.236 17.36-3.07.261-2.043.455-4.114.527-6.087a603.167 603.167 0 0 0 9.164 5l3.57-.306-1.543 1.367.202.11c4.066-3.373 7.624-6.147 10.227-8a22.83 22.83 0 0 1 6.295-3.243c-9.275-8.113-24.545-20.79-30.866-22.228ZM145.36 124.417l-.019-.012.019.012ZM145.801 124.685l-.019-.01.019.01ZM146.519 124.914l-.101-.016.101.016ZM146.344 124.886l-.115-.03.115.03Z"/><path fill="#3C4A71" d="M146.184 124.842c-.057-.019-.116-.037-.172-.061.056.024.115.038.172.061ZM145.136 124.248l-.019-.014.019.014ZM144.486 123.688c-.227-.201-.455-.403-.678-.604.223.195.451.401.678.604ZM144.702 123.88l-.031-.027.031.027ZM144.915 124.063ZM147.316 124.838l-.085.026.085-.026ZM147.768 124.628l-.083.049.083-.049ZM147.47 124.781l-.085.032.085-.032ZM147.915 124.532l-.083.056.083-.056ZM148.202 124.3c-.028.026-.056.053-.087.077.041-.024.059-.051.087-.077ZM147.62 124.711l-.083.04.083-.04ZM147.161 124.882l-.087.018.087-.018ZM143.803 123.086a5.581 5.581 0 0 0-.215-.177c.072.056.139.115.215.177ZM161.898 102.686c0-.042.018-.082.028-.125l-2.204 1.961c.084.01.167.02.245.034l-.07-.01c.667-.625 1.334-1.245 2.001-1.86ZM138.333 129.047ZM138.157 129.285l-.012.014.012-.014ZM138.505 128.81c0 .014-.02.03-.033.044a.413.413 0 0 1 .033-.044ZM138.812 128.334l-.01.019.01-.019ZM138.665 128.566l-.026.043.026-.043ZM148.357 124.163l-.093.091.093-.091ZM137.083 130.374l-.022.016.022-.016ZM136.882 130.507l-.025.016.025-.016ZM140.52 124.296a5.77 5.77 0 0 1-.113.471c.681-.813 1.383-1.635 2.108-2.466-.719-.187-1.405.233-1.995 1.995ZM142.72 122.365ZM143.586 122.907ZM143.148 122.591ZM143.368 122.74ZM139.636 126.794l-.027.058.027-.058ZM139.86 126.291c0 .012 0 .022-.015.035-.014.012.01-.023.015-.035ZM139.509 127.06ZM139.753 126.537ZM148.06 124.417l-.085.064.085-.064ZM151.329 116.932l-.024.105.024-.105ZM151.391 116.642c0 .032-.014.065-.02.097.006-.032.006-.065.02-.097ZM151.504 116.088ZM151.45 116.364c0 .026-.01.055-.016.083.006-.034.01-.063.016-.083ZM151.264 117.221ZM151.125 117.805l-.03.128.03-.128ZM150.974 118.391l-.035.132c.015-.045.035-.087.035-.132ZM151.195 117.513l-.028.122c.008-.041.018-.081.028-.122ZM151.053 118.099c0 .043-.022.085-.032.128.01-.051.022-.085.032-.128ZM152.063 112.555v.022s-.002-.014 0-.022ZM152.198 111.186c-.022.28-.049.578-.083.89a315.944 315.944 0 0 1 7.57-7.332l-.874.583-6.613 5.859ZM148.392 124.12l.115-.124-.115.124ZM150.9 118.681l-.037.134.037-.134ZM149.279 122.897ZM149.396 122.688l-.065.119.065-.119ZM149.163 123.1c-.025.039-.049.075-.071.113a1.1 1.1 0 0 1 .071-.113ZM149.511 122.47l-.063.121.063-.121ZM149.623 122.245c-.02.042-.04.085-.062.125.022-.04.042-.083.062-.125ZM149.038 123.293l-.077.118.077-.118ZM148.787 123.652l-.099.129c.032-.042.072-.085.099-.129ZM149.734 122.013l-.061.13.061-.13ZM148.657 123.813a6.407 6.407 0 0 1-.132.156c.045-.045.089-.098.132-.156ZM148.913 123.477c-.026.04-.055.076-.083.115.028-.039.057-.075.083-.115ZM150.05 121.274ZM150.346 120.477l-.055.16.055-.16ZM150.451 120.173ZM150.572 119.821l-.051.158a.855.855 0 0 1 .051-.158ZM150.652 119.541l-.043.141.043-.141ZM149.841 121.773l-.059.132.059-.132ZM150.737 119.257l-.039.135c.012-.046.027-.091.039-.135ZM150.819 118.981ZM150.25 120.749a2.844 2.844 0 0 1-.057.154c.021-.051.039-.11.057-.154ZM149.945 121.526l-.056.137.056-.137ZM150.151 121.014l-.056.146.056-.146Z"/><path stroke="#3C4A71" stroke-linecap="round" stroke-linejoin="round" stroke-width="1.208" d="m216.815 42.66-.924.053a2.806 2.806 0 0 0-2.432 1.707l-.821 1.385M228.133 43.057c.604-.069 1.081 0 1.345.31 1.007 1.163.682 2.555-2.335 3.756M226.926 47.224c.741-.139 1.365-.1 1.675.262 1.069 1.246.63 2.752-3.02 4.008"/><path stroke="#3C4A71" stroke-linecap="round" stroke-linejoin="round" stroke-width="1.208" d="M225.78 50.27c.707.119 1.248.358 1.409.785.514 1.313-.084 2.44-2.706 2.722"/><path fill="#FEAD7C" d="m229.429 39.258-8.8-3.443a1.433 1.433 0 0 0-1.854.805l-3.523 8.988a4.89 4.89 0 0 1 1.185.122l2.885-7.358a1.432 1.432 0 0 1 1.855-.805l5.991 2.347a1.435 1.435 0 0 1 .805 1.856L221.69 57.8a1.424 1.424 0 0 1-1.305.905 1.425 1.425 0 0 1-.549-.1l-5.994-2.348a1.435 1.435 0 0 1-.805-1.856l1.834-4.68a9.246 9.246 0 0 0-2.345 2.903v-.045l-1.208 3.097a1.429 1.429 0 0 0 .805 1.854l8.8 3.448a1.432 1.432 0 0 0 1.856-.805l7.469-19.055a1.438 1.438 0 0 0-.819-1.86Z"/><path stroke="#3C4A71" stroke-linecap="round" stroke-linejoin="round" stroke-width="1.208" d="M210.843 83.104c3.905-7.74 6.921-17.034 7.908-22.548M212.528 52.63a9.232 9.232 0 0 1 2.371-2.926c5.786-.402 4.264-2.639 2.571-3.58-1.751-.971-4.244-.976-5.876.605l-.715.805c-1.611 1.67-1.492 7.616-1.492 7.616-3.03 5.464-8.053 15.117-14.968 23.005M145.438 48.72l-1.109 7.988 4.888-.302s2.184 11.486-10.066 13.22c-8.538 1.207-8.973-11.563-8.973-11.563l.278-20.396M130.477 35.777s-7.839 2.259-8.474-5.297c-.483-5.73 5.033-6.28 7.723-6.209"/><path stroke="#3C4A71" stroke-linecap="round" stroke-linejoin="round" stroke-width="1.208" d="M159.818 27.466c.238 3.453-.434 19.444-11.145 21.08-10.71 1.637-18.276-8.07-19.693-18.32-1.417-10.249 2.819-19.025 9.589-20.22 6.77-1.196 19.522-7.542 21.249 17.46Z"/><path stroke="#3C4A71" stroke-linecap="round" stroke-linejoin="round" stroke-width="1.208" d="m149.653 33.732 3.234-.127-2.557-12.973M142.749 22.864s2.172-2.573 4.3-.974M153.59 22.228s2.496-2.245 4.383-.359"/><path fill="#3C4A71" d="M148.113 28.894c.013-.938-.456-1.706-1.048-1.714-.593-.009-1.084.745-1.098 1.683-.014.938.456 1.706 1.048 1.715.593.008 1.084-.746 1.098-1.684ZM158.414 29.414c.013-.938-.456-1.706-1.049-1.715-.592-.008-1.084.745-1.097 1.684-.014.938.456 1.706 1.048 1.714.593.009 1.084-.745 1.098-1.683Z"/><path stroke="#FEAD7C" stroke-linecap="round" stroke-linejoin="round" stroke-width=".906" d="M149.909 27.063c.251-5.075-2.589-9.34-6.344-9.525-3.754-.186-7.001 3.778-7.252 8.853-.251 5.075 2.589 9.34 6.344 9.525 3.754.186 7.002-3.778 7.252-8.853ZM167.872 27.556c.251-5.075-2.589-9.34-6.344-9.525-3.754-.186-7.002 3.778-7.252 8.853-.251 5.075 2.589 9.34 6.344 9.525 3.754.186 7.001-3.778 7.252-8.853ZM154.384 24.613l-4.254-.128M136.725 23.24l-9.925 1.076"/><path fill="#fff" d="M146.485 38.903s1.945 1.583 3.9.997Z"/><path stroke="#3C4A71" stroke-linecap="round" stroke-linejoin="round" stroke-width="1.208" d="M146.485 38.903s1.945 1.583 3.9.997"/><path fill="#3C4A71" d="M166.408 11.383C162.287-5.703 140.291-.443 136.86 7.085c-14.435-3.3-20.154 7.231-22.9 14.03-2.658 6.579-1.15 12.84 2.095 19.904 1.867 4.063 9.946 1.247 14.308.741l.021-5.959c-.876.224-7.788 1.753-8.382-5.32-.221-2.584.786-4.108 2.195-5.008.519.727 1.504 1.037 3.149.689 5.687-1.208 8.872-6.68 10.372-10.227l25.97-.949a2.916 2.916 0 0 0 2.72-3.603Z"/><path fill="#3C4A71" d="M135.026 53.043c1.241-6.263-2.17-12.217-7.62-13.297-5.451-1.08-10.875 3.122-12.116 9.386-1.242 6.264 2.17 12.217 7.62 13.297s10.875-3.122 12.116-9.386Z"/><path fill="#3C4A71" d="M143.398 65.974c1.846-4.245.349-8.988-3.345-10.595-3.694-1.607-8.186.531-10.032 4.776-1.846 4.244-.349 8.988 3.345 10.595 3.694 1.607 8.185-.531 10.032-4.776Z"/><path fill="#3C4A71" d="M148.423 77.225c2.642-3.176 2.543-7.615-.221-9.914-2.763-2.298-7.145-1.586-9.787 1.59-2.642 3.177-2.544 7.615.22 9.914 2.764 2.299 7.146 1.587 9.788-1.59Z"/><path fill="#3C4A71" d="M146.074 87.587c2.298 1.886 5.935 1.29 8.124-1.33 2.188-2.622 2.102-6.28-.202-8.166-2.303-1.887-6.017-1.472-8.205 1.15-2.189 2.62-2.014 6.458.283 8.346Z"/><path stroke="#FEAD7C" stroke-linecap="round" stroke-linejoin="round" stroke-width="1.611" d="m131.111 60.811 4.055-6.776M138.709 69.99l5.192-4.196M145.602 79.25l1.852-.942M150.424 87.808l1.971-.666"/><path stroke="#3C4A71" stroke-linecap="round" stroke-linejoin="round" stroke-width="1.208" d="M82.31 134.853s-9.21 4.933-11.764 6.261c-2.552 1.329-2.46 3.01-2.46 3.01"/><path stroke="#3C4A71" stroke-linecap="round" stroke-linejoin="round" stroke-width="1.208" d="m96.398 112.072-6.581 23.655-5.192-1.007a5.886 5.886 0 0 0-4.43 1.263l-9.461 6.953a.655.655 0 0 0 .004 1.059.654.654 0 0 0 .384.125c5.951-.016 20.507-.052 23.013 0 3.423.075 5.351-1.294 8.226-8.592 1.514-3.843 4.949-14.165 8.196-22.335l-14.159-1.121Z"/><path stroke="#3C4A71" stroke-linecap="round" stroke-linejoin="round" stroke-width="1.208" d="M73.582 144.132s7.248-3.946 8.33-4.429c1.084-.483 4.86.056 4.86.056"/><path stroke="#3C4A71" stroke-linecap="round" stroke-linejoin="round" stroke-width="1.208" d="M80.712 143.776s-.584-2.503 1.747-2.867c2.331-.364 5.474-.89 7.626-2.768M136.577 87.684s7.282 3.509 6.36 7.666M69.662 102.896h47.713"/><path fill="#3C4A71" d="m130.253 111.331 1.913.604a.542.542 0 0 0 .666-.359l.57-1.785a.494.494 0 0 0-.406-.659.486.486 0 0 0-.287.055l-2.474 1.194a.508.508 0 0 0-.217.765.51.51 0 0 0 .235.185Z"/><path stroke="#3C4A71" stroke-linecap="round" stroke-linejoin="round" stroke-width="1.208" d="M134.665 112.136c.151 2.674-1.544.675-2.263-.531.403 1.252.488 3.491-.948 2.192M148.165 124.286c-.179-.453-1.667-6.09-1.026-9.275M143.332 116.314c-.066.114.968 5.886 3.143 8.534"/><path stroke="#3C4A71" stroke-linecap="round" stroke-linejoin="round" stroke-width="1.208" d="M160.032 104.567c-3.733-.63-15.671 2.317-18.397 8.405-2.726 6.088.175 10.124 4.419 11.805M136.759 122.315s-1.138 5.943-.439 8.455M133.054 122.202s-.163 6.561 1.708 8.512"/><path stroke="#3C4A71" stroke-linecap="round" stroke-linejoin="round" stroke-width="1.208" d="M140.482 118.596c-1.95-.96-8.354-2.122-9.834 2.287-.294.88-.9 3.133-.898 3.964M137.131 104.796s-.137 2.168-2.283 1.182M129 108.18s-.137 2.168-2.283 1.182M120.484 100.554s3.354-3.51 10.012-.805"/><path fill="#FEAD7C" d="M211.169 18.294h-12.144a1.555 1.555 0 0 0-1.528 1.582v9.159a1.557 1.557 0 0 0 1.516 1.582l8.42.129 5.268 5.457V19.876a1.55 1.55 0 0 0-.937-1.455 1.555 1.555 0 0 0-.595-.127Zm-4.085 6.587a.271.271 0 0 1 0 .04c0 1.208-1.059 2.199-2.361 2.199-1.303 0-2.362-.987-2.362-2.198v-1.655c0-1.208 1.059-2.2 2.362-2.2 1.302 0 2.361.986 2.361 2.2a.271.271 0 0 1 0 .04v1.574Z"/><path stroke="#3C4A71" stroke-linecap="round" stroke-linejoin="round" stroke-width="1.208" d="M345.608 144.396H1.392"/></g><defs><clipPath id="a"><path fill="#fff" d="M.788 0h345.424v145H.788z"/></clipPath></defs></svg>