<svg xmlns="http://www.w3.org/2000/svg" width="63" height="42" fill="none"><path fill="#CFCFCF" d="m27.161 35.529-.146-17.775H3.22l.048 17.775 9.908-.146v.048z"/><path fill="#6A6AF4" stroke="#fff" stroke-miterlimit="10" stroke-width="2.4" d="M18.078 26.008H7.297V39.12h10.781z"/><path fill="#6A6AF4" d="m40.612 19.988-.049-3.545-19.474-6.216-19.572 6.216-.048 3.545 16.075.049z"/><path fill="#C9C9C9" d="m61.397 35.528-.194-25.06H18.758l.097 25.06 17.629-.194v.048z"/><path fill="#6A6AF4" d="m63 11.682-.097-4.128L40.078.27l-23.02 7.284v4.128l18.94.097z"/><path fill="#C7C7C7" stroke="#fff" stroke-miterlimit="10" stroke-width="1.7" d="M30.8 15.227h-6.265V22.9H30.8z"/><path stroke="#fff" stroke-miterlimit="10" stroke-width="2" d="M27.742 15.324v7.285M24.828 19.207h5.828"/><path fill="#C7C7C7" stroke="#fff" stroke-miterlimit="10" stroke-width="1.7" d="M56.538 15.227h-6.265V22.9h6.265z"/><path stroke="#fff" stroke-miterlimit="10" stroke-width="2" d="M53.48 15.324v7.285M50.566 19.207h5.828"/><path fill="#CFCFCF" stroke="#fff" stroke-miterlimit="10" stroke-width="2" d="M43.817 18.48h-7.528v13.356h7.528z"/><path fill="#6A6AF4" d="M25.945 35.723h27.002v-.388l8.256-.049v-6.313l-27.002.048v1.943h-8.256z"/><path fill="#000091" d="M.254 41.695h62.648v-3.4H.254z"/><path fill="#AFAFF9" d="M.254 39.172h62.648v-5.05H.254z"/><path fill="#64C21B" d="M18.903 39.172h44v-5.05h-44z"/></svg>