<svg xmlns="http://www.w3.org/2000/svg" width="64" height="29" fill="none"><path fill="#A9A9A9" d="m61.16 25.781-.048-21.16H33.02l.024 21.16 11.586-.024z"/><path fill="#6A6AF4" d="M61.11 21.492v4.242l-16.579.024v-4.242zM61.16 11.14l-.048-2.57H33.02l.024 2.57H61.16M61.16 17.202l-.048-2.57H33.02l.024 2.57H61.16"/><path fill="#6A6AF4" d="M32.992 21.492v4.242l12.095.024v-4.242z"/><path fill="#000091" d="M61.912 4.863 59.003.984l-23.9.049-2.908 3.83h29.717"/><path fill="#AFAFF9" d="m48.094 10.438-6.98-7.684-6.739 7.684h.824l-.024 15.27H47.27l.024-15.27z"/><path fill="#000091" d="m35.2 10.826 5.913-7.587 6.181 7.66.8-.46-6.98-8.654-6.739 8.653z"/><path fill="#000091" stroke="#fff" stroke-miterlimit="10" stroke-width="2" d="M43.414 20.375h-4.605v5.09h4.605z"/><path fill="#000091" stroke="#fff" stroke-miterlimit="10" stroke-width="1.7" d="M42.81 7.727h-3.126v3.83h3.126z"/><path stroke="#fff" stroke-miterlimit="10" stroke-width="2" d="M41.234 7.773v3.636M39.781 9.715h2.909"/><path fill="#000091" stroke="#fff" stroke-miterlimit="10" stroke-width="1.7" d="M52.99 7.727h-3.127v3.83h3.127z"/><path stroke="#fff" stroke-miterlimit="10" stroke-width="2" d="M51.414 7.773v3.636M49.96 9.715h2.91"/><path fill="#000091" stroke="#fff" stroke-miterlimit="10" stroke-width="1.7" d="M58.806 7.727H55.68v3.83h3.126z"/><path stroke="#fff" stroke-miterlimit="10" stroke-width="2" d="M57.23 7.773v3.636M55.777 9.715h2.909"/><path fill="#000091" stroke="#fff" stroke-miterlimit="10" stroke-width="1.7" d="M52.99 14.027h-3.127v3.83h3.127z"/><path stroke="#fff" stroke-miterlimit="10" stroke-width="2" d="M51.414 14.074v3.636M49.96 16.016h2.91"/><path fill="#000091" stroke="#fff" stroke-miterlimit="10" stroke-width="1.7" d="M58.806 14.027H55.68v3.83h3.126z"/><path stroke="#fff" stroke-miterlimit="10" stroke-width="2" d="M57.23 14.074v3.636M55.777 16.016h2.909"/><path fill="#000091" stroke="#fff" stroke-miterlimit="10" stroke-width="1.7" d="M42.81 14.027h-3.126v3.83h3.126z"/><path stroke="#fff" stroke-miterlimit="10" stroke-width="2" d="M41.234 14.074v3.636M39.781 16.016h2.909"/><path fill="#C6DF4C" d="M57.185 20.93c-.534 0-1.043.243-1.334.655a1.6 1.6 0 0 0-1.09-.509 1.55 1.55 0 0 0-.679.146c-.267-.46-.727-.776-1.285-.8-.606 0-1.115.29-1.405.776a1.46 1.46 0 0 0-.655-.17c-.848-.024-1.575.63-1.6 1.478-.024.849.63 1.576 1.479 1.6.606 0 1.115-.29 1.406-.776.194.097.412.17.654.17s.485-.048.679-.145c.267.46.727.775 1.285.8.533 0 1.042-.243 1.333-.655.266.291.654.485 1.09.51.849.023 1.576-.631 1.6-1.48.024-.848-.63-1.575-1.478-1.6"/><path fill="#fff" d="M59.223 23.137H48.823v2.327h10.398zM44.627 21.345H37.84l.97-1.697h4.847z"/><path fill="#AFAFF9" d="M29.693 21.543v4.242l-12.095.024v-4.242z"/><path fill="#ADADAD" d="m29.767 25.786-.073-20.24-15.973.025L1.6 5.547l.025 20.239 11.61.024z"/><path fill="#000091" d="m29.767 25.813-.073-3.903H1.6l.025 3.903h28.14M30.494 6.371 28.07 1.523 3.2 1.572l-2.424 4.8h29.717"/><path fill="#989898" d="m9.598 16.695-.024 9.09 12.095.024.024-9.09z"/><path fill="#000091" stroke="#fff" stroke-miterlimit="10" stroke-width="2" d="M12.992 21.397v4.12h4.848v-4.12a2.43 2.43 0 0 0-2.424-2.424 2.43 2.43 0 0 0-2.424 2.424Z"/><path fill="#64C21B" d="M9.43 23.795a1.56 1.56 0 0 1-1.551-1.551c0-.849 1.551-3.006 1.551-3.006s1.551 2.157 1.551 3.006-.703 1.551-1.55 1.551"/><path fill="#fff" stroke="#fff" stroke-miterlimit="10" stroke-width="1.7" d="M11.03 23.434H7.78v3.393h3.248z"/><path fill="#64C21B" d="M21.844 23.795c.849 0 1.551-.703 1.551-1.551 0-.849-1.55-3.006-1.55-3.006s-1.552 2.157-1.552 3.006.703 1.551 1.551 1.551"/><path fill="#fff" stroke="#fff" stroke-miterlimit="10" stroke-width="1.7" d="M20.217 26.824h3.248v-3.393h-3.248z"/><path fill="#000091" d="M22.492 17.279H8.773l2.424-3.466h8.872z"/><path fill="#fff" stroke="#fff" stroke-miterlimit="10" stroke-width="1.7" d="M7.924 9.695H3.246v2.497h4.678z"/><path fill="#000091" stroke="#fff" stroke-miterlimit="10" stroke-width="1.7" d="M6.615 12.19h-2.06V9.233c0-.558.46-1.018 1.018-1.018.557 0 1.018.46 1.018 1.018v2.957z"/><path fill="#fff" stroke="#fff" stroke-miterlimit="10" stroke-width="1.7" d="M7.924 16.504H3.246V19h4.678z"/><path fill="#000091" stroke="#fff" stroke-miterlimit="10" stroke-width="1.7" d="M6.615 19.026h-2.06v-2.957c0-.558.46-1.018 1.018-1.018.557 0 1.018.46 1.018 1.018v2.957z"/><path fill="#fff" stroke="#fff" stroke-miterlimit="10" stroke-width="1.7" d="M23.345 12.191h4.678V9.695h-4.678z"/><path fill="#000091" stroke="#fff" stroke-miterlimit="10" stroke-width="1.7" d="M24.652 12.19h2.06V9.233c0-.558-.46-1.018-1.017-1.018-.558 0-1.018.46-1.018 1.018v2.957z"/><path fill="#fff" stroke="#fff" stroke-miterlimit="10" stroke-width="1.7" d="M13.361 12.191h4.678V9.695h-4.678z"/><path fill="#000091" stroke="#fff" stroke-miterlimit="10" stroke-width="1.7" d="M14.645 12.19h2.06V9.233c0-.558-.46-1.018-1.018-1.018s-1.018.46-1.018 1.018v2.957z"/><path fill="#fff" stroke="#fff" stroke-miterlimit="10" stroke-width="1.7" d="M23.345 19.027h4.678v-2.496h-4.678z"/><path fill="#000091" stroke="#fff" stroke-miterlimit="10" stroke-width="1.7" d="M24.652 19.026h2.06v-2.957c0-.558-.46-1.018-1.017-1.018-.558 0-1.018.46-1.018 1.018v2.957z"/><path fill="#000091" d="M64 26.984H1v2h63z"/><path fill="#64C21B" d="M64 24.984H1v3h63z"/></svg>