<svg xmlns="http://www.w3.org/2000/svg" width="150" height="118" fill="none"><g clip-path="url(#a)"><path fill="#E3E3FD" d="M134.465 28.638c14.101 15.001 26.398 52.468.073 74.775-17.084 14.476-32.393 4.733-48.258-3.891-13.12-7.134-28.355-8.619-41.92-3.885-9.167 3.195-24.403 4.02-37.395-16.821-20.11-32.27 4.892-72.277 54.546-77.97 22.3-2.56 54.955 8.649 72.954 27.792"/><path fill="#E3E3FD" d="M113.69 117.492c7.953 0 14.4-1.438 14.4-3.213 0-1.774-6.447-3.213-14.4-3.213s-14.4 1.439-14.4 3.213 6.446 3.213 14.4 3.213M19.474 117.118c8.223 0 14.889-1.378 14.889-3.079 0-1.7-6.666-3.078-14.889-3.078s-14.888 1.378-14.888 3.078c0 1.701 6.666 3.079 14.888 3.079"/><path fill="#C9D9B9" d="M76.466 46.827c-5.312 4.764-6.306 9.858-6.233 13.236A139 139 0 0 0 65.12 48.97c10.308-8.527 4.246-16.34 4.246-16.34-5.063 4.71-6.063 9.657-6.002 13.029l-.025-.043a165 165 0 0 0-7.075-11.746c9.161-10.634 1.476-17.353 1.476-17.353-4.446 6.102-4.086 11.57-3.196 14.8-2.354-3.433-4.208-5.851-5.074-6.945-4.77-10.72-14.15-10.45-14.15-10.45 3.201 10.487 9.563 11.373 12.613 11.135.677.849 2.683 3.414 5.318 7.262-8.764-3.848-15.083.837-15.083.837 8.789 6.902 14.57 3.726 16.846 1.79a166 166 0 0 1 6.904 11.483c.25.452.494.916.745 1.386-8.155-6.193-15.688-2.59-15.688-2.59 7.91 9.15 14.614 6.041 16.76 4.636a138 138 0 0 1 5.338 11.703c-7.88-5.894-15.218-2.553-15.218-2.553 7.283 8.74 14.096 6.347 16.639 4.923 3.422 9.2 4.318 9.504 4.3 19.925 0 .452 1.824 1.215 1.824.855.018-10.732-1.568-11.905-5.093-21.323 10.997-8.448 4.934-16.565 4.934-16.565z"/><path fill="#C9D9B9" d="M70.449 61.895c-2.751 6.59-1.458 11.618.06 14.635a139 139 0 0 0-9.38-7.812c5.642-12.137-3.19-16.577-3.19-16.577-2.543 6.431-1.324 11.33.183 14.341-.012-.012-.03-.018-.043-.03a166 166 0 0 0-11.43-7.556c3.703-13.547-6.123-16.302-6.123-16.302-1.391 7.427 1.28 12.204 3.476 14.739-3.605-2.083-6.313-3.47-7.563-4.087-8.911-7.617-17.267-3.335-17.267-3.335 7.398 8.087 13.522 6.145 16.175 4.618.976.476 3.886 1.924 7.923 4.263-9.57.3-13.26 7.257-13.26 7.257 10.9 2.443 14.754-2.92 15.974-5.644a163 163 0 0 1 11.168 7.39q.63.46 1.269.93c-10.021-2.078-15.279 4.421-15.279 4.421 11.07 4.85 15.785-.843 17.12-3.035a138 138 0 0 1 9.845 8.264c-9.649-1.924-14.833 4.251-14.833 4.251 10.332 4.752 15.45-.348 17.139-2.724 7.044 6.829 7.984 6.719 12.442 16.131.195.41 2.172.312 2.013-.012-4.593-9.693-6.526-10.072-13.76-17.054 6.294-12.362-2.66-17.078-2.66-17.078z"/><path stroke="#2A5241" stroke-linecap="round" stroke-linejoin="round" stroke-width="1.56" d="M28.575 38.194a1.35 1.35 0 0 1-1.348 1.35 1.35 1.35 0 0 1 0-2.7 1.35 1.35 0 0 1 1.348 1.35M78.535 12.462a1.349 1.349 0 1 0-.002-2.698 1.349 1.349 0 0 0 .002 2.698M129.438 54.803a1.35 1.35 0 0 1-1.348 1.35 1.35 1.35 0 0 1 0-2.7 1.35 1.35 0 0 1 1.348 1.35"/><path fill="#E3E3FD" d="M74.776 115.373c25.618 0 46.385-2.243 46.385-5.009s-20.767-5.009-46.385-5.009-46.385 2.243-46.385 5.009 20.767 5.009 46.385 5.009"/><path stroke="#2A5241" stroke-linecap="round" stroke-linejoin="round" stroke-width="2.7" d="M101.177 68.057c1.196 0 2.165-.96 2.165-2.144a2.154 2.154 0 0 0-2.165-2.143c-1.196 0-2.165.96-2.165 2.143 0 1.185.97 2.144 2.165 2.144"/><path fill="#CACAFB" d="M40.297 110.062h76.015V73.31H40.297z"/><path fill="#B2B2F9" d="M40.304 110.062h25.434V73.31H40.304z"/><path fill="#6A6AF4" d="M62.22 75.862h56.492l-14.01-26.503h-52.85z"/><path fill="#4A7053" d="M51.849 49.36 35.387 76.18l30.35-.318z"/><path fill="#B2B2F9" d="M40.303 76.164 53.13 55.598 63.608 75.87c-6.867 2.73-14.82 2.29-23.311.3z"/><path fill="#6A6AF4" d="M65.737 75.862h-2.123L51.85 53.122l-14.23 23.04-2.232.018 16.462-26.82z"/><path fill="#CAD6BD" d="M47.587 110.102h8.526V96.67h-8.526z"/><path fill="#7E9168" d="M70.57 86.719h7.942v-7.25H70.57z"/><path fill="#CAD6BD" d="M47.586 86.719h7.941v-7.25h-7.94z"/><path fill="#7E9168" d="M87.61 86.719h7.234v-7.25H87.61zM70.57 103.562h7.942v-7.25H70.57zM87.61 103.562h7.234v-7.25H87.61zM101.919 103.562h7.233v-7.25h-7.233z"/><path stroke="#28401D" stroke-linecap="round" stroke-linejoin="round" stroke-width="1.11" d="M65.738 110.062h10.57M65.738 77.215v17.744"/><path fill="#EBC06C" d="M97.22 51.817c3.011-6.53.166-14.267-6.354-17.283-6.52-3.015-14.246-.167-17.257 6.362-3.012 6.53-.167 14.267 6.353 17.283 6.52 3.015 14.246.167 17.257-6.362"/><path fill="#F5CD7D" d="M89.774 35.741a14 14 0 0 0-.19-1.502 12.85 12.85 0 0 0-5.269-.758c-7.167.458-12.601 6.652-12.144 13.829.03.513.104 1.008.19 1.502 1.64.599 3.421.88 5.27.758 7.166-.458 12.6-6.652 12.143-13.829"/><path fill="#fff" d="M84.626 52.745c-1.378-.135-2.757-.831-3.653-1.674l.823-1.228c.921.8 2.019 1.454 3.336 1.46 1.592.006 2.397-.873 2.397-2.211.013-3.494-6.001-2.76-5.983-6.97.006-1.917 1.262-3.298 3.135-3.566v-2.181h1.3v2.138c1.372.159 2.268.83 3.043 1.649l-.952 1.05c-.793-.781-1.457-1.233-2.623-1.24-1.31 0-2.159.813-2.165 2.065-.012 3.127 6.002 2.29 5.984 6.927-.006 2.052-1.305 3.47-3.355 3.738v2.18h-1.3v-2.137z"/><path stroke="#28401D" stroke-linecap="round" stroke-linejoin="round" stroke-width="1.11" d="M76.766 56.22a12.92 12.92 0 0 0 9.563 3.347c7.167-.458 12.602-6.652 12.144-13.828a13 13 0 0 0-4.946-9.407M65.738 75.863H97.15"/><path fill="#4A7053" d="M95.388 63.128H75.993a.905.905 0 0 1 0-1.808h19.395a.905.905 0 0 1 0 1.808"/><path fill="#C95836" d="M21.825 68.969c3.001.098 4.154 0 7.173.03l.42 1.582c-6.062.843-7.087 2.29-9.526 1.362-.927-2.614 1.232-2.846 1.933-2.974"/><path fill="#C95836" d="m28.415 70.365 1.464.398c.293.079.604.048.878-.08l1.104-.531a.613.613 0 0 0 .16-.996l-1.867-.39a1.88 1.88 0 0 0-1.281.213l-.69.373.232 1.02z"/><path fill="#6A6AF4" fill-rule="evenodd" d="m28.25 71.82-.787-3.604-3.171-.208-1.787-5.79c-.287-.94-.91-1.753-1.763-2.236-.238-.134-.451-.22-.592-.207-.543.049-1.634 3.28-1.634 3.28l2.89 7.543s-.53 1.704 1.55 1.564c1.269-.086 5.288-.336 5.288-.336z" clip-rule="evenodd"/><path fill="#3D2316" fill-rule="evenodd" d="M18.409 53.715s.945.977.799 2.84c-.073.88-.067 2.278-.067 2.278s-5.96.605-5.69-.336l.707-2.712 2.488-2.351 1.757.28z" clip-rule="evenodd"/><path fill="#C95836" fill-rule="evenodd" d="m23.155 82.564 1.037 14.397.292 15.893-1.342.024s-2.018-6.682-2.293-7.451c-.274-.77-1.94-6.2-1.165-9.535l-4.532-13.896 8.009.568z" clip-rule="evenodd"/><path fill="#4A2A1A" fill-rule="evenodd" d="m24.456 111.932 1.708 1.111c.28.275 1.872.831 1.872.831.14.342-.182.513-.45.556l-4.776-.183s-1.092-.251 0-2.364c.847.397 1.378.708 1.64.049z" clip-rule="evenodd"/><path fill="#663B23" fill-rule="evenodd" d="m13.067 71.3 10.246.984c.568 1.949.928 10.457.928 10.457l-6.832.147c-3.135-.122-7.111 2.327-7.423-2.981-.353-6.065 3.087-8.6 3.087-8.6z" clip-rule="evenodd"/><path fill="#6A6AF4" fill-rule="evenodd" d="m20.378 59.814-1.915-.733-2.714-.3-2.654.758c-1.909.635-3.525 2.754-3.092 4.19l.165 4.214c.104 4.02-.256 6.218-.543 10 5.52 2.418 13.016 2.21 14.943-.282-1.055-9.516-1.701-13.15-4.19-17.86z" clip-rule="evenodd"/><path fill="#C95836" fill-rule="evenodd" d="m17.579 56.496.213 2.767a.94.94 0 0 1-.402.842.92.92 0 0 1-.927.055q-.146-.072-.28-.146a1.19 1.19 0 0 1-.647-1.094l.085-3.322 1.952.898z" clip-rule="evenodd"/><path fill="#873B24" fill-rule="evenodd" d="m17.707 57.315.055 1.417-1.5-1.423z" clip-rule="evenodd"/><path fill="#C95836" d="M18.463 59.077s1.208 2.969-.915 3.146c-2.122.183-3.36-3.018-3.36-3.018l1.537-.727 1.305-.048 1.427.641z"/><path fill="#C95836" fill-rule="evenodd" d="M15.473 54.86a.81.81 0 0 1 .707-.886c.47-.048 1.055-.116 1.525-.165.44-.048.762.288.872.715.134.507.165 1.588.092 2.376-.043.446-.342.88-.775.928-.47.05-1.915-.25-2.135-1.08-.17-.636-.22-1.234-.286-1.888" clip-rule="evenodd"/><path fill="#3D2316" fill-rule="evenodd" d="M13.8 56.593s.513-2.23 1.208-2.834c.934-.812 2.154-1.222 3.398-.049 0 0-.915 1.692-4.05 2.932l-.555-.055z" clip-rule="evenodd"/><path fill="#C95836" fill-rule="evenodd" d="M15.168 56.666c.158.33.506.489.774.354.269-.134.36-.507.202-.837-.159-.33-.507-.488-.775-.354s-.36.507-.201.837" clip-rule="evenodd"/><path fill="#fff" fill-rule="evenodd" d="m18.458 56.582-.763.067s.061.526.421.452c.36-.073.342-.513.342-.513z" clip-rule="evenodd"/><path fill="#C95836" fill-rule="evenodd" d="m17.712 81.369-1.958 15.673-.445 3.164-1.543 12.204-1.434-.135s-1-7.72-1.116-8.527-.799-3.848-.024-8.35l-.708-15.117 7.24 1.094z" clip-rule="evenodd"/><path fill="#4A2A1A" fill-rule="evenodd" d="M13.893 112.139s.086 1.057-.03 1.918c-.018.147-.128.306-.293.428s-.36.195-.525.189c-.36-.012-.774-.018-1.03-.03a.5.5 0 0 1-.372-.147l-.171-.189c-.28-.318-.092-.678.152-1.185.256-.526.464-1.118.464-1.118.982-.617 1.793.134 1.793.134z" clip-rule="evenodd"/><path stroke="#33691E" stroke-linecap="round" stroke-linejoin="round" d="m21.23 63.715.976 2.565"/><path fill="#663B23" fill-rule="evenodd" d="m24.194 81.466.384 13.255s-9.191.806-14.425-.245l-.176-14.574z" clip-rule="evenodd"/><path fill="#fff" fill-rule="evenodd" d="m21.159 69.507 10.02-.14-.011-.758-9.265.129a.754.754 0 0 0-.75.77z" clip-rule="evenodd"/><path fill="#C95836" d="M15.224 69.884c2.744-1.222 3.738-1.814 6.465-3.103l1.762 1.106c-5.093 3.408-6.074 5.29-8.673 5.522-1.97-1.949-.128-3.097.445-3.525"/><path fill="#C95836" d="m21.694 66.787 1.451-.433c.293-.086.604-.068.878.055l1.123.5a.61.61 0 0 1 .183.99l-1.855.446a1.88 1.88 0 0 1-1.287-.177l-.695-.355.208-1.026z"/><path fill="#6A6AF4" fill-rule="evenodd" d="m22.206 68.97-1.214-2.108-5.288 2.376-4.001-6.475s-.433-.69-.952-1.014c-.317-.201-.274 1.246-.238 2.676.019.653.446 2.773.873 3.713l1.592 4.649s1.366 2.12 3.257.702c1.89-1.417 5.977-4.514 5.977-4.514z" clip-rule="evenodd"/><path stroke="#33691E" stroke-linecap="round" stroke-linejoin="round" stroke-width=".44" d="m13.633 65.027 1.201 2.81.934 1.79 4.117-1.9"/><path fill="#fff" fill-rule="evenodd" d="m24.526 69.455 9.496-.134 2.775-6.438-9.283.128c-.134 0-.25.08-.305.202l-2.69 6.236z" clip-rule="evenodd"/><path fill="#572A22" fill-rule="evenodd" d="m24.893 69.449 9.496-.134 2.647-6.139a.21.21 0 0 0-.195-.293l-9.039.128a.2.2 0 0 0-.189.128l-2.726 6.31z" clip-rule="evenodd"/><path fill="#fff" fill-rule="evenodd" d="M30.686 66.212c-.11.403.207.72.701.715.494-.007.982-.337 1.086-.74.11-.403-.207-.72-.701-.714-.495.006-.982.336-1.086.739" clip-rule="evenodd"/><path stroke="#33691E" stroke-linecap="round" stroke-linejoin="round" stroke-width=".44" d="M12.145 70.331s1.585 3.384 3.421 3.176 5.398-3.39 5.398-3.39"/></g><defs><clipPath id="a"><path fill="#fff" d="M0 .484h150v117H0z"/></clipPath></defs></svg>