<svg xmlns="http://www.w3.org/2000/svg" width="161" height="124" fill="none"><g clip-path="url(#a)"><path fill="#E3E3FD" d="M133.718 15.27c9.475 7.823 42.908 43.717 18.599 75.207-26.457 34.277-76.84-2.163-88.588 11.291 0 0-23.867 28.442-50.248-.025C-12.909 73.281-.287 27.14 49.006 6.52c23.219-9.716 64.035-8.325 84.712 8.75"/><path fill="#C95836" fill-rule="evenodd" d="m48.555 119.197 2.422-.02.447-3.897-3.795-1.057zM66.02 118.602l3.282.232-.542-4.356-4.154-1.009z" clip-rule="evenodd"/><path fill="#E3E5EB" d="M59.71 123.452c11.435 0 20.705-.845 20.705-1.888s-9.27-1.888-20.706-1.888-20.705.845-20.705 1.888 9.27 1.888 20.705 1.888"/><path fill="#4A2A1A" fill-rule="evenodd" d="m69.246 117.938 1.895 1.723c.46.425 2.984 1.256 2.984 1.256.25.531-.24.806-.658.879l-7.44-.155s-1.718-.357-.192-3.694c1.353.604 3.065 1.034 3.416 0z" clip-rule="evenodd"/><path fill="#4E5EAD" fill-rule="evenodd" d="m65.733 72.064 2.087 22.489 2.691 20.967h-6.942s-.307-3.781-.758-4.983c-.45-1.203-4.13-12.585-3.041-17.824l-6.52-21.33 12.478.676z" clip-rule="evenodd"/><path fill="#3C4885" fill-rule="evenodd" d="m59.062 92.684-5.863-21.301 4.184.227 3.391 12.603c.888 2.912 1.833 6.974 1.972 9.847.273 5.684 1.976 16.694 2.024 17.655.159 3.24 2.865 3.8 2.865 3.8h-4.112s-1.175-3.723-1.626-4.921c-.451-1.202-3.92-12.676-2.826-17.915z" clip-rule="evenodd"/><path fill="#4E5EAD" fill-rule="evenodd" d="m48.118 54.715 15.97 1.265c.936 3.038 1.713 16.332 1.713 16.332l-10.63.405c-4.88-.11-11.01 3.83-11.63-4.466-.705-9.485 4.577-13.536 4.577-13.536" clip-rule="evenodd"/><path fill="#4E5EAD" fill-rule="evenodd" d="m54.979 70.19-.676 24.328-1.027 21.895h-6.832s-.249-3.888-.48-5.143c-.23-1.256-1.462-12.923-.551-20.016l-1.76-22.3 11.326 1.23z" clip-rule="evenodd"/><path fill="#4A2A1A" fill-rule="evenodd" d="M50.969 118.634s.47 1.599.585 2.898c.02.222-.082.468-.269.657a.99.99 0 0 1-.676.304c-.509 0-1.09 0-1.449-.005a.8.8 0 0 1-.566-.213l-.297-.284c-.5-.474-.35-1.024-.168-1.797.187-.797.283-1.705.283-1.705 1.17-.965 2.552.141 2.552.141z" clip-rule="evenodd"/><path fill="#C95836" fill-rule="evenodd" d="M63.154 33.704c3.31 4.1 5.838 11.232 9.144 19.06.288.681-4.419 2.27-4.946 1.603-1.617-2.037-4.817-11.826-4.817-11.826l.619-8.842z" clip-rule="evenodd"/><path fill="#C95836" d="m79.028 58.988.648 2.192c.13.44.412.816.791 1.063l1.545 1a.917.917 0 0 0 1.391-.585l-.969-2.705c-.215-.598-.671-1.125-1.28-1.477l-1.013-.59-1.118 1.111z"/><path fill="#728F3B" fill-rule="evenodd" d="M42.845 65.424s10.78-.044 13.596.111l-13.395-4.394s-.311 3.003-.196 4.278z" clip-rule="evenodd"/><path fill="#C95836" fill-rule="evenodd" d="M79.693 60.92s-6.193-2.893-10.775-5.09c-4.769-2.289-.11-7.74 2.38-5.572 1.026.893 9.805 8.344 9.805 8.344l-1.41 2.323z" clip-rule="evenodd"/><path fill="#C1C4E0" fill-rule="evenodd" d="m60.878 32.227-4.831-1.338-1.871-.073-7.302 1.942a5.34 5.34 0 0 0-3.156 6.311l.69 8.03c-.849 7.1-.945 13.28-1.141 19.119a2.14 2.14 0 0 0 1.717 2.173c7.076 1.39 18.652 2.535 21.939-1.502-2.437-13.207-1.886-26.11-6.05-34.662z" clip-rule="evenodd"/><path fill="#B2B5D4" fill-rule="evenodd" d="M56.157 69.42S43.262 55.763 44.888 42.469l-1.496 10.884s-1.19 7.181-1.708 13.26c0 0 5.051 3.019 14.473 2.811z" clip-rule="evenodd"/><path stroke="#E3BDA8" stroke-linecap="round" stroke-linejoin="round" stroke-width="1.94" d="M65.95 42.784s-2.088-4.173-2.692-5.225"/><path fill="#C1C4E0" fill-rule="evenodd" d="M60.77 32.195c3.636 1.063 5.075 2.632 6.6 6.008 1.18 2.612 2.543 5.814 3.733 8.383.317.686-4.903 1.29-5.57 1.782-5.685 4.186-7.244-10.827-7.244-10.827l2.48-5.34z" clip-rule="evenodd"/><path fill="#C95836" fill-rule="evenodd" d="M46.044 35.64c5.498 9.301 3.517 5.086-4.264 18.008-.427.705-1.982-1.425-2.692-.835-.945.782-1.482 1.506-1.655 1.197-1.52-2.694 7.139-18.07 7.139-18.07l1.472-.294z" clip-rule="evenodd"/><path fill="#C1C4E0" fill-rule="evenodd" d="M45.442 33.766s-1.439 1.096-2.643 2.97c-.69 1.072-1.857 3.274-3.401 5.007-.567.638-1.766 2.386-1.512 3.197 1.656 5.24 7.388 5.81 7.388 5.81l7.446-10.383-7.273-6.601z" clip-rule="evenodd"/><path stroke="#7B81B5" stroke-linecap="round" stroke-linejoin="round" stroke-width="1.96" d="m63.312 43.34-.542-3.766M47.258 41.219l-1.64 4.254"/><path fill="#572A22" fill-rule="evenodd" d="M58.873 27.667s1.866-1.405.235-3.588-2.725 2.038-2.673 2.106c.053.067 2.438 1.487 2.438 1.487z" clip-rule="evenodd"/><path fill="#572A22" fill-rule="evenodd" d="M52.886 26.823s-.14 2.25 1.501 2.602c1.636.353 2.524-4.413 2.524-4.413l-4.025 1.815z" clip-rule="evenodd"/><path fill="#C95836" fill-rule="evenodd" d="M57.67 28.673s-.326 2.41-.6 4.404c-.072.532-.46.971-1.012 1.154a1.83 1.83 0 0 1-1.655-.275l-.446-.333c-.643-.483-.94-1.246-.753-1.956l1.324-5.148 3.142 2.16z" clip-rule="evenodd"/><path fill="#A84122" fill-rule="evenodd" d="m57.513 30.145-.235 1.42-1.348-1.387z" clip-rule="evenodd"/><path fill="#C95836" fill-rule="evenodd" d="M54.272 25.403c0-.71.571-1.29 1.271-1.29h2.438c.7 0 1.156.585 1.266 1.285.125.83 0 2.554-.25 3.79-.139.7-.68 1.343-1.381 1.348-.748 0-2.984-.72-3.2-2.077-.163-1.033-.149-2.004-.144-3.052z" clip-rule="evenodd"/><path fill="#572A22" fill-rule="evenodd" d="M52.54 27.3s.057-2.753 1.26-3.598c1.613-1.135 3.613-1.579 5.383.493 0 0 .125 1.24-1.516 1.115-.474-.038-.911 2.11-1.535 2.212-.834.135-2.312 0-3.593-.222" clip-rule="evenodd"/><path fill="#C95836" fill-rule="evenodd" d="M54.086 28.42c.197.55.715.86 1.166.696s.652-.749.456-1.295c-.197-.55-.715-.86-1.166-.695-.446.164-.652.749-.456 1.294" clip-rule="evenodd"/><path fill="#fff" d="m47.757 44.81-7.595 13.578a.727.727 0 0 0 .274.987l9.702 5.499a.717.717 0 0 0 .98-.276l7.595-13.58a.727.727 0 0 0-.274-.986l-9.702-5.498a.717.717 0 0 0-.98.275"/><path fill="#C95836" fill-rule="evenodd" d="M54.048 58.248c-7.484-3.67-9.897-4.824-12.243-5.81-1.722-.724-3.22-.748-3.943-.188-1.521 1.183-.586 4.293 1.77 4.984 1.43.42 13.49 3.037 13.49 3.037l.921-2.023z" clip-rule="evenodd"/><path fill="#C95836" d="m51.505 57.602 2.25.299c.451.058.681.039.984.377 0 0 1.065 1.835-1.281 2.65l-.475-.091c-.619-.12-1.21-.488-1.65-1.038l-.74-.913z"/><path stroke="#2D4E73" stroke-linecap="round" stroke-miterlimit="10" stroke-width="1.96" d="M135.908 91.808a1.514 1.514 0 0 0 .812-1.975 1.5 1.5 0 0 0-1.962-.818 1.514 1.514 0 0 0-.812 1.975 1.5 1.5 0 0 0 1.962.818ZM22.572 73.101a1.515 1.515 0 0 0 .812-1.975 1.5 1.5 0 0 0-1.962-.818 1.515 1.515 0 0 0-.812 1.975 1.5 1.5 0 0 0 1.962.818Z"/><path fill="#A14E35" d="M94.46 51.618c-3.655 3.192-6.807 3.974-10.554 7.098l.897 2.67c8.448-5.132 11.37-4.601 13.486-8.257-1.492-4.24-2.821-2.057-3.829-1.511"/><path fill="#A14E35" d="m84.351 58.3-2.15 1.17a2.04 2.04 0 0 0-.934 1.071l-.706 1.86a.995.995 0 0 0 .916 1.347l2.62-1.623c.576-.357 1.031-.96 1.266-1.68l.394-1.203z"/><path fill="#737FDE" fill-rule="evenodd" d="M105.657 42.617 98.379 56.37 88.06 60.75l-2.533-4.076 8.736-6.205s.413-2.52 2.092-10.3c.513-2.386 2.044-4.602 5.565-4.583 5.244.029 3.737 7.031 3.737 7.031" clip-rule="evenodd"/><path fill="#E3E5EB" fill-rule="evenodd" d="M92.242 121.471c0 1.11 7.81 2.013 17.443 2.013s17.444-.903 17.444-2.013c0-1.111-7.81-2.014-17.444-2.014-9.633 0-17.443.903-17.443 2.014" clip-rule="evenodd"/><path fill="#A14E35" fill-rule="evenodd" d="M105.83 118.688s4.27-18.278.37-25.604l2.298-24.517-12.142-.782 6.841 51.053 2.633-.145z" clip-rule="evenodd"/><path fill="#4A2A1A" fill-rule="evenodd" d="m103.312 117.703-2.297 1.685c-.451.416-2.917 1.227-2.917 1.227-.245.517.235.787.643.86l7.272-.155s1.679-.352.192-3.607c-1.324.589-2.542 1.009-2.888 0z" clip-rule="evenodd"/><path fill="#C1C4E0" fill-rule="evenodd" d="m114.284 56.207-15.865.106c-2.634.768-2 15.501-2 15.501l9.704 1.45c4.956.265 10.857 1.428 11.428-3.603 1.05-9.233-3.267-13.454-3.267-13.454" clip-rule="evenodd"/><path fill="#A14E35" fill-rule="evenodd" d="M121.316 118.564s2.13-18.216-2.633-25.517l-3.32-19.89-6.937.477 10.271 45.074z" clip-rule="evenodd"/><path fill="#4A2A1A" fill-rule="evenodd" d="m118.47 117.836-1.041 1.342c-.384.416-1.669 1.299-1.669 1.299s-1.219 1.227.82 1.072l5.196-.091s1.621-.353-.418-3.617c-1.223.589-2.374 1.009-2.893 0z" clip-rule="evenodd"/><path fill="#A14E35" fill-rule="evenodd" d="M101.657 27.5c-.009.035-.455.527-1.151 1.18-.345.323.321 1.148.753 1.023.437-.126 1.08-1.478 1.08-1.478l-.682-.729zM117.777 48.694c2.255-.323 4.299.7 3.69 3.55l-.12 12.637-2.313-.575-.206-9.788-1.051-5.829z" clip-rule="evenodd"/><path fill="#A14E35" d="m119.041 64.21-.288 2.346c-.057.469.053.942.317 1.338l1.055 1.593a.942.942 0 0 0 1.559.025l.192-2.97c.043-.657-.172-1.348-.604-1.937l-.72-.98-1.516.584z"/><path fill="#737FDE" fill-rule="evenodd" d="m118.017 63.864 3.992-.787s.364-9.508.264-10.551c-.101-1.039-.053-1.835-1.08-3.656-.868-1.536-5.123-11.667-5.123-11.667s-5.527.31-4.222 5.206c1.074 4.032 4.788 11.049 4.788 11.049l1.386 10.401z" clip-rule="evenodd"/><path fill="#A14E35" fill-rule="evenodd" d="m102.715 30.485.859 4.255c.105.512.47.932.964 1.091.489.16 1.026.039 1.405-.319.125-.115.245-.231.36-.338.518-.487.71-1.236.499-1.922l-1.545-4.959-2.542 2.188z" clip-rule="evenodd"/><path fill="#75331F" fill-rule="evenodd" d="m102.871 31.777.384 1.372 1.065-1.473z" clip-rule="evenodd"/><path fill="#A14E35" fill-rule="evenodd" d="M106.41 27.695a1.26 1.26 0 0 0-.878-1.54l-2.302-.619c-.663-.178-1.238.261-1.516.898-.327.754-.634 2.415-.71 3.646-.044.696.311 1.444.973 1.618.706.188 2.999.072 3.541-1.154.412-.937.638-1.854.897-2.85z" clip-rule="evenodd"/><path fill="#612F24" fill-rule="evenodd" d="M106.558 31.066a2.047 2.047 0 0 0 1.722-2.405c-.182-.975-.47-2.028-.902-2.545-1.243-1.482-3.018-2.405-5.21-.893 0 0 .182 3.066 2.725 5.814.35.381.921.463 1.367.198l.298-.174z" clip-rule="evenodd"/><path fill="#737FDE" fill-rule="evenodd" d="m103.113 33.786 2.456-.425 1.627-.091 6.371 1.564c2.173.83 3.372 3.168 2.787 5.442l.014 4.974c.72 4.11 1.694 11.344 1.943 16.883-8.429 4.114-19.693 4.935-22.835 1.163-.451-8.484.609-15.757 2.182-22.31.226-.936-.671-2.974.331-3.988 1.31-1.324 5.124-3.221 5.124-3.221z" clip-rule="evenodd"/><path stroke="#4E58AD" stroke-linecap="round" stroke-linejoin="round" stroke-width="1.96" d="m100.797 51.258.676-6.79M116.758 51.435l-1.242-8.572"/><path fill="#A14E35" fill-rule="evenodd" d="M104.45 29.679c-.322.468-.893.633-1.272.362-.383-.27-.431-.869-.11-1.338.322-.468.892-.632 1.271-.362.384.27.432.87.111 1.338" clip-rule="evenodd"/><path fill="#612F24" fill-rule="evenodd" d="M106.715 27.424c1.271-1.845 3.238-3.086 5.157-3.25.312-.029.633-.024.892.13a.77.77 0 0 1 .336.855c-.091.333-.403.531-.648.754-.523.477-.144.589.682.506.355-.033.719-.014 1.021.15a.96.96 0 0 1 .509.913c-.053.68-.744 1.135-1.334 1.333-1.036.347-.815.328-.715.454.197.246.423.42.576.908.178.555-.278 1.154-.825 1.318s-.955-.3-1.439-.517c-1.228-.55-2.452-1.106-3.68-1.656-.316-.14-.647-.3-.815-.633s-.068-.893.259-1.106c0 .015.009.03.024-.154z" clip-rule="evenodd"/><path fill="#612F24" fill-rule="evenodd" d="M109.046 27.18a3.2 3.2 0 0 0 .418-2.009c-.048-.377-.197-.782-.538-.937-.412-.188-.892.082-1.223.391-.398.372-.724.821-.959 1.319-.164.343-.279.72-.221 1.091.057.372.336.73.705.782.326.044.629-.14.907-.319l.882-.574c0 .077 0 .15.034.26zM108.919 28.617a2.1 2.1 0 0 1 1.333.734c.331.401.509.927.485 1.449-.019.396-.226.845-.614.893-.211.024-.422-.082-.586-.227-.158-.145-.283-.323-.431-.483a2.3 2.3 0 0 0-1.2-.685c-.225-.048-.489-.077-.623-.275-.163-.242-.005-.57.187-.783.388-.425.935-.7 1.511-.705-.01 0-.024 0-.077.077z" clip-rule="evenodd"/><path fill="#fff" fill-rule="evenodd" d="M101.407 29.875h.719s-.043.87-.624.763c-.201-.034-.095-.763-.095-.763" clip-rule="evenodd"/><path stroke="#3B2115" stroke-linecap="round" stroke-miterlimit="10" stroke-width="2.06" d="M106.971 25.832s-1.233 1.468.605 4.288"/><path fill="#fff" fill-rule="evenodd" d="m58.652 28.555-1.05.014s.096.705.594.638c.5-.068.451-.652.451-.652z" clip-rule="evenodd"/><path fill="#C1C4E0" fill-rule="evenodd" d="m96.418 71.809 1.511 23.218s14.776 1.864 22.677.348l-2.897-28.004-21.291 4.433z" clip-rule="evenodd"/></g><defs><clipPath id="a"><path fill="#fff" d="M0 .484h161v123H0z"/></clipPath></defs></svg>