<svg xmlns="http://www.w3.org/2000/svg" width="150" height="127" fill="none"><path fill="#E3E3FD" d="M7.274 78.35C-1.534 64.518-8.258 21.12 24.004 5.232c35.107-17.29 44.04 18.139 73.823 18.46 0 0 40.164-6.208 50.358 27.58s-23.491 57.179-72.375 60.135c-22.748 1.377-48.155-1.057-68.53-33.065z"/><path fill="#BED99D" d="M64.462 74.004s.225-32.234-46.9-33.606c0 0 8.621 44.801 46.9 33.606"/><path fill="#B0C98F" d="M76.734 78.726S92.072 33.95 32.138 10.188c0 0-9.832 66.374 44.59 68.538z"/><path fill="#89AB61" d="m69.621 68.554-8.714-14.038a.4.4 0 0 0 .181-.195c.006-.02.012-.032.019-.05l4.257-15.655c.05-.19-.056-.365-.243-.397-.188-.031-.375.101-.425.29l-4.182 15.378-6.892-11.101 4.089-15.026c.05-.189-.056-.365-.244-.397-.187-.03-.374.101-.424.29L53.14 42.006l-6.286-10.133s.006-.012.013-.019c.006-.019.012-.037.018-.063v-.032l1.505-11.094a.304.304 0 0 0-.3-.352.414.414 0 0 0-.393.34l-1.405 10.352-6.991-11.258c-.094-.151-.306-.189-.475-.076-.168.114-.224.327-.13.485l6.91 11.132L34.7 29.904a.39.39 0 0 0-.418.302c-.044.19.069.365.256.384l11.548 1.466 6.78 10.918V43l-15.538-1.22a.4.4 0 0 0-.406.32.302.302 0 0 0 .275.371l15.85 1.246h.106c.025 0 .043-.02.068-.026.013-.006.032-.012.044-.019.006 0 .013-.012.019-.012l7.285 11.73a.2.2 0 0 0-.112-.031l-15.85-1.246a.4.4 0 0 0-.406.321.302.302 0 0 0 .275.371l15.85 1.245a.39.39 0 0 0 .38-.238q.018-.038.025-.076v-.075L69.016 69c.093.15.306.188.474.075a.4.4 0 0 0 .144-.176.32.32 0 0 0-.019-.308z"/><path fill="#E3E3FD" d="M81.695 124.174c20.64-.417 37.284-5.167 37.176-10.609-.109-5.442-16.929-9.516-37.569-9.098s-37.284 5.167-37.176 10.61 16.929 9.515 37.569 9.097"/><path fill="#CACAFB" d="M81.404 118.17c23.093-.869 41.114-20.436 40.251-43.704S101.372 33.04 78.279 33.91c-23.093.87-41.115 20.437-40.252 43.704.863 23.268 20.284 41.425 43.377 40.556"/><path fill="#AAC48F" d="M117.596 57.862c-1.779-.61-20.039-6.61-25.039 2.761-5.243 9.831-13.64 6.58-12.522 17.876 1.117 11.296 8.32 19 18.914 19.416 12.173.478-13.652 14.302-4.994 17.818 21.737-7.503 34.602-33.536 23.641-57.87"/><path fill="#9BB382" d="M63.35 37.29s18.172 2.075 17.785 8.81c-.388 6.737-4.751 4.837-11.374 7.605-6.623 2.767-8.746-.71-13.116 4.485-4.37 5.201-14.876.34-14.876.34s4.801-13.976 21.58-21.24"/><path fill="#AAC48F" d="M38.147 76.65s13.727-.554 16.942 9.68 7.672 7.07 10.063 11.78c.674 1.327.324 2.855-.525 4.378-3.252 5.836-11.186 6.874-15.937 2.195-4.794-4.724-9.981-13.215-10.55-28.033z"/><path fill="#AFAFF9" d="M111.868 103.173c-14.87 17.824-41.27 20.12-58.954 5.138 44.022 4.774 63.561-33.492 53.854-64.538 17.691 14.982 19.969 41.581 5.1 59.4" opacity=".68" style="mix-blend-mode:multiply"/><path stroke="#2A5241" stroke-linecap="round" stroke-linejoin="round" stroke-width="1.38" d="M75.118 33.852c-4.27.44-8.39 1.534-12.235 3.201h-.02c-.13.057-.249.113-.374.17q-.28.125-.561.258c-16.012 7.365-20.644 20.812-20.644 20.812a42.4 42.4 0 0 0-3.159 10.328"/><path stroke="#2A5241" stroke-linecap="round" stroke-linejoin="round" stroke-width="1.75" d="M135.823 92.544a1.33 1.33 0 0 1-1.324 1.334c-.73 0-1.323-.598-1.323-1.334s.593-1.333 1.323-1.333a1.33 1.33 0 0 1 1.324 1.333M87.537 17.29a1.33 1.33 0 0 1-1.323 1.334 1.33 1.33 0 0 1-1.323-1.334 1.33 1.33 0 0 1 1.323-1.333c.73 0 1.323.598 1.323 1.333M7.71 73.626a1.33 1.33 0 0 1-1.324 1.334 1.33 1.33 0 0 1-1.324-1.334 1.33 1.33 0 0 1 1.324-1.333c.73 0 1.323.597 1.323 1.333" clip-rule="evenodd"/><path fill="#522F1D" fill-rule="evenodd" d="M111.574 73.362s.818 2.567 4.32 2.692c2.11.076 2.921 1.9 3.808 4.164 1.423 3.617 4.981 1.85 5.537 7.22.337 3.296-2.416 6.12-7.741 3.435s-13.59 4.685-14.844-6.479c-.219-1.93 3.539-4.817 3.352-6.597-.2-1.95 1.192-4.793 1.192-4.793l4.376.365z" clip-rule="evenodd"/><path fill="#E3E3FD" d="M119.713 120.175c-2.922-1.453-7.916-1.472-11.155-.031a6.8 6.8 0 0 0-1.392.805c-2.061-.592-4.851-.472-6.767.383-2.273 1.013-2.454 2.654-.394 3.68 1.973.981 5.288 1.025 7.56.132.137.082.281.157.431.239 2.921 1.453 7.915 1.472 11.155.031 3.234-1.434 3.49-3.78.562-5.233z"/><path fill="#522F1D" d="m102.367 122.564 2.016-2.133a2.03 2.03 0 0 1 1.48-.654c.199 0 .399.019.586.051.25.044.381.207.387.446l.05.441c.056.742.15.987-.343 1.22l-2.928 1.39c-.605.427-2.278.182-1.248-.761"/><path fill="#DE5840" d="M106.535 119.947c-.068.497-.499.912-.986.874-.243-.019-.412-.157-.462-.61-.093-5.107-.73-9.346-.824-14.12-.106-5.359.094-3.787-.056-12l4.832-1.177c-.843 5.956-1.093 13.441-1.093 13.441 1.461 5.447-.499 7.145-1.417 13.592z"/><path fill="#663B24" d="m109.476 91.047-1.224 12.605c-.156 1.352-.125 2.427.163 3.761.418 1.969.305 5.956-1.23 11.774-.756.635-1.567.648-2.416.126 0 0-1.092-12.818-1.149-15.296-.056-2.479.656-15.146.656-15.146l5.206 2.183z"/><path fill="#522F1D" d="m114.945 121.666.1 1.617c.019.17.231 1.056.312 1.201.238.434.612.598.962.598.468.006 1.373-.818 1.005-1.768-.325-.824-.955-2.138-.955-2.138-.65.321-.949.465-1.424.484z"/><path fill="#DE5840" d="M116.361 121.633c.112.629-.899.95-1.342.327-.668-5.044-1.73-9.598-2.36-14.315-.705-5.296-1.174-4.963-2.241-13.082l5.331.062c-.175 5.969.425 13.397.425 13.397 2.153 5.466.249 6.516.187 13.611"/><path fill="#663B24" d="M113.989 89.848a1.673 1.673 0 0 1 1.754 1.648c.056 3.157.194 9.516.481 11.258.299 1.824 1.024 4.811 1.329 6.051.1.402.163.817.181 1.232.094 1.831.057 6.862-.518 9.969-.543.862-1.81.73-2.771.271l-2.485-12.227c-.037-.145-1.854-9.818-1.854-9.818l-3.321-.183 1.704-8.315s2.934.24 5.5.12z"/><path fill="#DE5840" d="M91.836 74.599c-.275.308-.306.742-.057.962l1.124.591c.25.22.094.044.374-.27.275-.308.55-.139.169-.667l-.712-.61a1 1 0 0 0-.312-.189c-.212-.081-.368-.069-.587.177z"/><path fill="#fff" d="M106.291 83.06c2.041-.138 1.498-1.993 1.498-1.993l-2.048-3.447c-1.311-.277-4.313 1.314-6.792 1.987-.68 0-1.136-.257-1.598-.73l-3.745-3.553-.93.742 2.721 5c.943 1.95 3.94 1.988 4.445 2.038 0 0 4.02.12 6.449-.044"/><path fill="#DE5840" d="M105.537 81.423s-.187-4.114 2.048-4.17c.312-.007.818-.327 1.18-.327 1.873 0 1.604.019 2.984.478.518.17.917 1.641.861 2.201l.912 1.623-7.991.195z"/><path fill="#fff" d="M106.808 77.185c.362-.07.836-.189.799.031-.169.95-.063 1.592.274 1.85 2.017 1.578 2.891-.78 3.053-1.61.031-.139.206-.353.343-.277l.749.258c5.2 1.019 4.432 6.15 3.571 8.346 0 0-2.291-.164-2.247 1.384.037 1.34 1.342 3.346 1.592 3.76.324.542-1.268 4.12-6.424 3.819-4.064-.24-4.413-1.837-4.451-4.057-.025-1.396.593-5.34.512-6.44-.081-1.108-.968-1.774-.481-3.58.487-1.811.799-3.037.799-3.037l1.911-.453z"/><path fill="#E6EDDD" d="M116.191 90.79c-.249-.415-1.529-2.636-1.567-3.975-.025-.88-.424-3.824-.149-5.057-.593 1.383-.157 2.805-.656 3.855-.618 1.315-1.561 2.787-1.192 4.19.624 2.414-.687 4.257-2.416 4.943 3.852-.447 6.267-3.485 5.98-3.963z"/><path fill="#AAC48F" d="m115.816 95.651 2.771 3.529q.105.105.181.226c.213.365.219.881-.031 1.472-.506 1.201-1.885 2.233-3.077 2.308-.575.038-.999-.157-1.23-.496l-4.064-5.372c-1.255-1.71 4.195-3.377 5.45-1.667"/><path fill="#A1BF82" d="m110.176 96.998 2.64-.346 4.707 5.749c-.574.447-1.242.749-1.86.786-.574.038-.999-.157-1.23-.497l-4.026-5.32c-.075-.108-.194-.258-.225-.372z" opacity=".68" style="mix-blend-mode:multiply"/><path fill="#fff" d="M111.847 99.299s4.032.283 3.97-3.648l-2.697-3.346-3.483 4.038 2.216 2.956z"/><path fill="#F5CD7D" d="M109.98 95.18c-.575 1.127-.106 2.045 1.048 2.057s2.554-.886 3.128-2.012.106-2.044-1.049-2.057-2.553.887-3.127 2.013"/><path fill="#6A6AF4" d="m114.264 93.746-20.769-26.07-4.058 3.245 20.445 25.737z"/><path fill="#0063CB" d="M112.816 96.658c-.55.321-1.723 1.49-2.504.434l-.337-.29-20.537-25.875 1.46-1.365 21.918 27.103z"/><path fill="#fff" d="m87.77 64.485 5.256 2.919q.194.075.343.188h.006c.475.384.556 1.101.138 1.887-.6 1.126-1.992 1.975-3.11 1.893-.742-.05-1.173-.503-1.21-1.126l-1.424-5.773z"/><path fill="#EEF5E4" d="m112.813 96.656 1.623 1.981c-1.067.856-2.584.66-2.584.66l-1.879-2.502c.674.717 1.916.408 2.84-.139M91.965 70.997c-.512.27-1.062.42-1.561.383-.743-.05-1.174-.503-1.211-1.126l-1.424-5.773 4.19 6.51z"/><path fill="#E2683F" d="m87.77 64.488 2.84 1.579s-.3 1.49-2.016 1.918z"/><path fill="#DE5840" d="M107.859 94.212c.343.227.774.19.955-.094l.406-1.207c.181-.277.025-.101-.318-.328-.344-.226-.219-.522-.681-.069l-.487.799c-.062.107-.112.22-.137.34-.05.226-.013.377.262.553z"/><path fill="#fff" d="M116.094 81.036c-.45-2.012-2.897-.572-2.897-.572-.068 1.346.812 2.811-.362 5.761-1.186 1.818-4.538 6.101-4.538 6.101l.868.812 4.482-3.479c1.173-1.006.973-.679 1.779-1.754a2.6 2.6 0 0 0 .487-1.133c.206-1.22.574-3.93.174-5.742z"/><path stroke="#DCE3D3" stroke-linecap="round" stroke-linejoin="round" stroke-width="1.52" d="m112.784 82.852.031 3-1.51 2.308"/><path fill="#DE5840" d="m109.862 78.602.131-.032a.78.78 0 0 0 .562-.993l-.711-2.541c-.138-.44-.65-.642-1.093-.535l-.131.031a.78.78 0 0 0-.562.994l.375 2.466c.137.44.986.717 1.429.61"/><path fill="#BA4141" d="M108.141 75.902s1.142.101 1.673-.629c0 0-.531 1.114-1.611 1.126l-.056-.497z"/><path fill="#522F1D" d="M107.107 73.28s-.449 1.86.6 2.326 1.535-3.352 1.535-3.352z"/><path fill="#DE5840" d="M110.341 72.432c-.243-.49-.662-.616-1.067-.377-.375-.201-.849 0-1.23.579-.531.81-.749 2.15-.393 2.868.156.314.43.402.699.434q.374.036.749-.07c.88-.251.886-.119 1.236-.66.531-.811.368-2.057.012-2.774z"/><path fill="#522F1D" d="M109.773 72.687c.269.849.213 2.76.244 3.019 0 0 1.729.031 1.598-1.944-.162-2.46-1.604-1.296-1.604-1.296l-.238.214z"/><path fill="#522F1D" d="M110.342 73.053c-.924-.44-1.685-.786-3.202.371-.1-.213.218-.899.537-1.107.661-.44.998-.679 1.698-.798l.168-.013c1.018-.063 1.536.359 1.704 1.352.013.088.169.491.169.56l-.319-.126c.019.585-.162-.295-.749-.245z"/><path fill="#fff" d="M108.228 75.35c-.187-.069-.343-.364-.349-.666l.687.239c0 .302-.15.49-.338.427"/><path fill="#DE5840" d="M110.188 75.275a.495.495 0 0 0 .494-.497.495.495 0 0 0-.494-.497.495.495 0 0 0-.493.497c0 .275.221.497.493.497"/><path stroke="#E2683F" stroke-linecap="round" stroke-linejoin="round" stroke-width="2.09" d="M66.135 67.36s3.733-11.655 9.745-10.869c12.522 1.63-4.657 30.323-4.657 30.323S44.936 72.882 50.997 63.66c4.333-6.598 15.145 3.699 15.145 3.699z"/><path fill="#1B2D54" d="M26.526 98.96h6.923v-4.773h-6.923z"/><path fill="#DE5840" d="M49.686 74.463c.193.383.1.81-.206.956l-1.292.257c-.312.145-.812-.66-.288-1.069l.887-.39c.112-.05.237-.088.362-.1.237-.02.387.037.543.34z"/><path fill="#6A6AF4" d="m34.14 74.802 8.676 2.698 4.751-2.969.774.724c.293.276.306.767.031 1.157l-4.295 4.264c-.824 1.176-2.197 1.22-3.395.925l-6.873-1.906.337-4.9z"/><path fill="#E3E3FD" d="M39.902 121.648c-2.422-1.164-6.58-1.246-9.289-.183a5.8 5.8 0 0 0-1.167.604c-1.71-.484-4.04-.434-5.644.195-1.904.742-2.072 2.013-.368 2.831 1.636.786 4.395.868 6.299.213q.168.095.356.189c2.422 1.164 6.58 1.245 9.288.182 2.71-1.062 2.947-2.861.525-4.025z"/><path fill="#522F1D" d="m29.748 123.582-1.81-2.025a1.73 1.73 0 0 0-1.374-.578c-.187.012-.38.037-.561.081-.244.057-.375.227-.394.466l-.068.446c-.094.742-.194.994.262 1.202l2.715 1.239c.556.396 2.16.063 1.23-.831"/><path fill="#DE5840" d="M25.937 121.056c.03.497.424.924.911.912.244-.006.425-.132.506-.579.512-5.05 1.485-9.214 1.966-13.931.537-5.302.219-3.749 1.03-11.875l-4.732-1.384c.362 5.931 0 13.347 0 13.347-1.904 5.321-.08 7.094.312 13.516z"/><path fill="#522F1D" d="m23.434 90.506 1.736 14.422c.05 1.346.368 2.063-.094 3.636-.568 1.937-.786 5.881.275 11.711.705.667 1.51.711 2.403.233 0 0 2.129-12.636 2.385-15.083.262-2.446 1.13-15.667 1.13-15.667l-7.847.755zM39.143 123.01l-2.06-1.931c-.4-.371-.918-.56-1.442-.497a2.7 2.7 0 0 0-.55.113c-.23.076-.343.246-.337.491l-.012.453c0 .755-.069 1.006.412 1.189l2.865 1.088c.605.365 2.166-.063 1.124-.9z"/><path fill="#DE5840" d="M35.02 120.697c.094.49.537.905 1.024.861.244-.018.406-.157.437-.61-.125-5.088.331-9.315.219-14.07-.125-5.339-.256-3.767-.462-11.95l-4.894-1.12c1.105 5.925 1.673 13.372 1.673 13.372-1.23 5.441.811 7.114 2.01 13.517z"/><path fill="#522F1D" d="m28.691 90.241 3.546 14.347c.219 1.346.624 2.044.362 3.642-.324 1.968-.05 5.937 1.742 11.711.786.629 1.598.629 2.428.094 0 0 .543-12.78.493-15.246-.05-2.465-.836-15.762-.836-15.762l-7.735 1.208z"/><path fill="#6A6AF4" d="M32.925 74.489c-.661 0-1.267-.088-1.448-.214-1.005-.68-2.197-.208-2.322-.12l-3.34 1.089c-4.213 1.157-3.546 4.063-3.64 5.912 0 0 1.717 2.358 1.786 4.094.063 1.504.918 4.875.668 5.365-.181.365-.206 2.61 1.61 3.177 1.605.496 4.195 1.975 5.575 1.937 7.248-.22 5.275-4.025 5.156-6.51-.075-1.566-.4-6.176-.387-7.415.007-1.24.568-4.29-1.367-6.252-.28-.233-1.142-1.013-2.285-1.063z"/><path fill="#DE5840" d="m29.904 75.587.156-.132c.406.12.762.094.837-.258l.4-2.006c.068-.359-.207-.749-.613-.868l-.118-.038c-.406-.12-1.53-.151-1.598.208l-.238 2.132c-.068.358.775.843 1.18.962z"/><path fill="#BA422D" d="M31.074 74.261s-.868-.1-1.398-1.019c0 0 .512 1.346 1.298 1.566l.1-.54z"/><path fill="#DE5840" d="M28.992 70.054c.268-.566.742-.705 1.223-.44.425-.227.986 0 1.442.672.643.931 1.055 2.472.668 3.303-.169.364-.63.61-.936.641-.287.031-1.055-.138-1.336-.214-1.024-.29-.756-.107-1.186-.73-.643-.93-.269-2.402.125-3.226z"/><path fill="#522F1D" d="M29.11 70.501c-.282.981.087 2.566.055 2.862 0 0-1.616-.918-1.61-1.774.018-2.843 1.816-1.49 1.816-1.49z"/><path fill="#522F1D" d="M28.953 69.091c-.569.195-.88.667-.993 1.46-.012.1-.175.565-.175.647l.362-.145c0 .673.094-.163.774-.107.993-.478 1.798-1.364 3.153.114.118.132.48-.145.306-.453-.675-1.201-1.91-1.541-2.304-1.598l-.193-.012c-.369-.025-.675.006-.93.094"/><path fill="#fff" d="M31.611 73.456c.225-.069.35-.358.275-.647l-.812.251c.075.29.312.466.537.396"/><path fill="#DE5840" d="M28.324 72.859c0 .315.269.579.58.579a.554.554 0 0 0 .563-.566.593.593 0 0 0-.58-.579.56.56 0 0 0-.563.566"/><path fill="#fff" d="M31.09 74.212c.225.063.443 0 .65-.075 0 0 .187 1.534-.294 1.93l-.868-.59s.53-.667.518-1.265zM30.532 75.457l-.593.887s-2.085-.673-2.154-1.717l.924-.396s1.011 1.295 1.823 1.226"/><path fill="#6A6AF4" d="M23.273 91.992c.118-.849.168-5.214.112-6.717-.038-.981-.138-3.85-.256-5.302.705 1.377 1.205 1.9 1.28 2.239.568 2.667.693 4.126 1.954 5.667 2.422 2.95 3.058 4.843 5.45 7.85-5.57-.013-6.6-.315-7.648-.925-1.305-.761-.955-2.372-.892-2.806z"/><path stroke="#C77C11" stroke-linecap="round" stroke-linejoin="round" stroke-width=".74" d="m36.545 79.602-.162 2.427"/><path fill="#DE5840" d="M24.115 93.43c-.424-.013-.768-.315-.755-.667l.362-1.302c.012-.352.018-.61.443-.597.425.012.662.226.63.868l-.056 1a1.1 1.1 0 0 1-.08.377c-.088.227-.213.334-.55.32z"/><path fill="#6A6AF4" d="M23.387 76.54s-5.025 4.15-6.33 8.075 6.51 7.359 6.51 7.359l1.187-.856c.175-.125.181-.402.012-.547-1.073-.918-4.27-3.736-3.82-4.415.737-1.132 5.724-6.05 5.724-6.05l-3.277-3.56z"/><path stroke="#C77C11" stroke-linecap="round" stroke-linejoin="round" stroke-width=".74" d="m24.348 82.71.362-2.573"/></svg>