<svg xmlns="http://www.w3.org/2000/svg" width="320" height="291" fill="none"><g clip-path="url(#a)"><path fill="#E3E3FD" d="M8.772 157.849C-7.744 108.88.64 36.762 75.222 6.529c48.412-19.621 71.548 8.762 96.842 35.183 20.921 21.854 51.262 33.477 83.669 31.58 21.9-1.282 54.307 5.679 62.745 55.188 13.064 76.659-58.423 152.254-197.33 128.162-57.313-9.94-95.152-47.73-112.372-98.797z"/><path fill="#6A6AF4" d="M226.993 145.294h-126.41c-2.438 0-4.43-1.989-4.43-4.422 0-2.434 1.992-4.423 4.43-4.423h126.41c2.438 0 4.431 1.989 4.431 4.423 0 2.433-1.993 4.422-4.431 4.422M226.993 222.192h-126.41c-2.438 0-4.43-1.988-4.43-4.422s1.992-4.422 4.43-4.422h126.41c2.438 0 4.431 1.988 4.431 4.422s-1.993 4.422-4.431 4.422"/><path fill="#F5F5FE" d="M165.222 281.212c46.282 0 83.8-3.732 83.8-8.335s-37.518-8.334-83.8-8.334-83.8 3.731-83.8 8.334 37.519 8.335 83.8 8.335"/><path stroke="#2A5241" stroke-linecap="round" stroke-linejoin="round" stroke-width="1.38" d="M259.956 183.149a2.68 2.68 0 0 0 2.683-2.678 2.68 2.68 0 0 0-2.683-2.678 2.68 2.68 0 0 0-2.683 2.678 2.68 2.68 0 0 0 2.683 2.678M89.827 55.719a2.68 2.68 0 0 0 2.683-2.678 2.68 2.68 0 0 0-2.683-2.678 2.68 2.68 0 0 0-2.683 2.678 2.68 2.68 0 0 0 2.683 2.678M38.906 168.098a2.68 2.68 0 0 0 2.682-2.678 2.68 2.68 0 0 0-2.682-2.678 2.68 2.68 0 0 0-2.683 2.678 2.68 2.68 0 0 0 2.683 2.678"/><path fill="#fff" d="M117.117 238.225c-5.737 0-10.429-4.684-10.429-10.41v-99.041c0-5.727 4.692-10.411 10.429-10.411s10.43 4.684 10.43 10.411v99.041c0 5.726-4.693 10.41-10.43 10.41M157.648 128.774c0-5.75-4.669-10.411-10.429-10.411s-10.43 4.661-10.43 10.411v99.041c0 5.749 4.67 10.41 10.43 10.41s10.429-4.661 10.429-10.41zM178.363 238.225c-5.737 0-10.429-4.684-10.429-10.41v-99.041c0-5.727 4.692-10.411 10.429-10.411s10.43 4.684 10.43 10.411v99.041c0 5.726-4.693 10.41-10.43 10.41M209.203 238.225c-5.737 0-10.43-4.684-10.43-10.41v-99.041c0-5.727 4.693-10.411 10.43-10.411s10.43 4.684 10.43 10.411v99.041c0 5.726-4.693 10.41-10.43 10.41"/><path fill="#6A6AF4" d="M97.121 226.019c-2.473 0-4.496-2.019-4.496-4.488v-7.528c0-2.468 2.023-4.487 4.496-4.487s4.496 2.019 4.496 4.487v7.528c0 2.469-2.023 4.488-4.496 4.488M97.121 148.878c-2.473 0-4.496-2.019-4.496-4.488v-7.527c0-2.469 2.023-4.488 4.496-4.488s4.496 2.019 4.496 4.488v7.527c0 2.469-2.023 4.488-4.496 4.488M229.907 209.516h-.005a4.49 4.49 0 0 0-4.496 4.487v7.528a4.49 4.49 0 0 0 4.496 4.488h.005a4.49 4.49 0 0 0 4.496-4.488v-7.528a4.49 4.49 0 0 0-4.496-4.487M229.906 149.449c-2.473 0-4.496-2.02-4.496-4.488v-7.528c0-2.468 2.023-4.488 4.496-4.488s4.496 2.02 4.496 4.488v7.528c0 2.468-2.023 4.488-4.496 4.488"/><path fill="#6A6AF4" d="M245.615 147.13h-5.885c-3.583 0-6.515-2.926-6.515-6.502 0-3.577 2.932-6.503 6.515-6.503h5.885c3.583 0 6.515 2.926 6.515 6.503s-2.932 6.502-6.515 6.502"/><path stroke="#3D5931" stroke-linecap="round" stroke-linejoin="round" stroke-width="1.57" d="M234.402 137.434v7.527M225.406 214.004v7.528M101.617 214.004v7.528M101.617 137.105v7.528M113.429 73.856c-.249 9.983 9.752 7.985 9.752 16.72 0 8.737-10.263 5.243-9.757 20.717M142.351 73.856c-.249 9.983 9.752 7.985 9.752 16.72 0 8.737-10.264 5.243-9.757 20.717M171.273 73.856c-.25 9.983 9.752 7.985 9.752 16.72 0 8.737-10.264 5.243-9.757 20.717M200.077 73.856c-.249 9.983 9.753 7.985 9.753 16.72 0 8.737-10.264 5.243-9.757 20.717"/><path fill="#663A24" fill-rule="evenodd" d="M46.34 218.06s-9.883 3.532-9.918-6.861c-.022-6.76 1.691-9.023 1.691-9.023l9.42 6.245z" clip-rule="evenodd"/><path fill="#663A24" fill-rule="evenodd" d="M32.042 205.723s-3.369 14.213 4.527 13.965c5.689-.184 1.359-9.778 1.359-9.778l-5.881-4.187z" clip-rule="evenodd"/><path fill="#F5F5FE" d="M62.303 291c34.409 0 62.303-3 62.303-6.699 0-3.7-27.894-6.699-62.303-6.699S0 280.601 0 284.301 27.894 291 62.303 291"/><path fill="#C95836" fill-rule="evenodd" d="m67.642 241.285-10.381-15.19c-2.976-4.78-6.681-5.748-9.792-1.98-1.224 1.483-1.11 4.03.258 5.718l11.561 14.266c5.811 7.17 10.207 4.143 12.195 1.195l-3.845-4.004z" clip-rule="evenodd"/><path fill="#C95836" fill-rule="evenodd" d="M64.266 240.893s4.216 8.051 7.35 4.222l12.124-22.889-4.793-.074-11.129 14.039-3.556 4.706z" clip-rule="evenodd"/><path fill="#6A6AF4" fill-rule="evenodd" d="m51.258 217.798-9.937-.995s-.034-.004-.047-.013l-1.57-.732q-.046-.02-.087-.013l-2.879.532h-.013l-8.651 2.73s-.027.013-.04.022c-3.185 2.481-3.045 3.135-3.382 8.164 0 .018 0 .039.01.057l4.985 12.813s-4.19-.327-4.19-.309c.113 10.51 5.321 19.46 6.003 31.698 0 .074.07.144.148.144 10.47.344 28.27-3.407 33.125-7.306 2.993-2.403-.555-8.399-1.377-12.53-3.565-17.973-4.553-25.247-12.064-34.21-.026-.03 0-.057-.039-.061z" clip-rule="evenodd"/><path fill="#C95836" fill-rule="evenodd" d="m24.916 265.398 3.779-21.479c.516-5.47-3.26-9.552-7.935-8.575-1.84.384-1.498 3.005-1.433 5.133l-.69 21.018 6.274 3.903z" clip-rule="evenodd"/><path fill="#C95836" d="m80.568 224.937 4.422-.375a3.62 3.62 0 0 0 2.315-1.113l2.473-2.603c.861-.907.551-2.425-.607-2.94l-5.523.79c-1.219.174-2.394.85-3.294 1.888l-1.495 1.732 1.704 2.616z"/><path fill="#6A6AF4" fill-rule="evenodd" d="m30.364 228.807-.734 16.879-12.317-.567c0-8.186 3.788-18.318 8.511-24.262 1.175-1.479 5.138-2.997 6.847-3.04 3.211-.083-2.307 10.986-2.307 10.986zM51.258 217.801c-.227.2 3.342-.537 7.847 8.6 4.103 8.326 6.161 10.14 6.161 10.14l-13.17 6.944-4.635-20.11 3.797-5.57z" clip-rule="evenodd"/><path fill="#C95836" fill-rule="evenodd" d="M21.232 253.583c2.268-1.069 4.767-1.535 4.994 1.413l-3.36 26.068-5.077 1.731.804-21.645c.651-2.46.389-6.507 2.64-7.567" clip-rule="evenodd"/><path fill="#C95836" d="m21.885 283.746-.327.366c-.734.497-3.456.506-5.816.598l-3.133.2c-1.228-.165-1.197-1.129-.612-2.254l4.794-2.848c1.057-.628 2.39-.842 3.727-.594l2.543.489.035.558a4.76 4.76 0 0 1-1.206 3.476z"/><path stroke="#939C89" stroke-linecap="round" stroke-linejoin="round" stroke-width="1.46" d="M58.037 236.937c.135-.428-2.705-7.07-2.705-7.07M28.723 240.919l.96-8.399"/><path fill="#C95836" fill-rule="evenodd" d="M43.987 217.072s2.835 8.064-1.569 8.997-8.55-8.483-8.55-8.483 2.11-1.605 2.25-1.613 7.869 1.099 7.869 1.099M81.594 247.332s4.697-.297 11.37 13.027c3.657 7.301 17.28 22.352 17.28 22.352l3.767-2.133-16.399-32.871c-1.424-2.678-6.257-5.173-9.188-5.539l-3.937 2.608-2.897 2.556z" clip-rule="evenodd"/><path fill="#8585F6" fill-rule="evenodd" d="m112.173 274.195-9.337 3.131s-9.862-9.926-12.474-18.169l-21.266 16.372-18.225-13.725s31.184-19.914 33.054-21.287c1.87-1.374 8.534-3.071 12.165 1.958 3.63 5.028 16.088 31.72 16.088 31.72z" clip-rule="evenodd"/><path fill="#8585F6" d="M31.073 265.427s-4.618 21.196 17.78 20.681c22.397-.514 30.244-23.446 30.244-23.446l-6.213 5.002-4.745-1.997-10.91-9.386-26.156 9.15z"/><path fill="#4A2A1A" fill-rule="evenodd" d="m113.809 280.031 3.946 2.761c.817.689 5.173 1.923 5.173 1.923.463.877-.358 1.383-1.062 1.527l-12.702.222s-2.953-.497-.572-6.232c2.351.929 4.688 1.574 5.221-.201z" clip-rule="evenodd"/><path fill="#C95836" fill-rule="evenodd" d="M62.153 248.128s4.697-.296 11.369 13.032c3.657 7.301 17.28 22.352 17.28 22.352l3.767-2.133-16.398-32.871c-1.425-2.678-6.257-5.173-9.189-5.539l-3.937 2.608-2.897 2.556z" clip-rule="evenodd"/><path fill="#8585F6" fill-rule="evenodd" d="m92.735 274.995-9.337 3.132s-9.862-9.927-12.475-18.169L49.657 276.33l-16.337-9.08s29.297-24.559 31.167-25.933 8.534-3.07 12.164 1.959c3.631 5.028 16.089 31.719 16.089 31.719z" clip-rule="evenodd"/><path fill="#4A2A1A" fill-rule="evenodd" d="m94.372 280.828 3.945 2.761c.817.689 5.173 1.923 5.173 1.923.464.877-.358 1.383-1.061 1.527l-12.702.222s-2.954-.497-.573-6.232c2.351.929 4.689 1.574 5.222-.201z" clip-rule="evenodd"/><path stroke="#3D5931" stroke-linecap="round" stroke-linejoin="round" stroke-width="1.65" d="m78.8 247.262 7.416 13.302M73.942 269.057 65.2 258.551"/><path fill="#663A24" fill-rule="evenodd" d="M43.667 201.238s4.457 3.363 6.004 9.77c.402 1.666-.083 3.576-.883 5.329-.664 1.457-3.504 2.015-5.715 2.826 0 0 2.967-14.392-2.875-15.046 0 0-1.905.013-2.674-1.771-.77-1.784 2.966-3.345 6.134-1.103z" clip-rule="evenodd"/><path fill="#C95836" fill-rule="evenodd" d="M41.82 211.444s-.83 4.2-1.521 7.681a2.61 2.61 0 0 1-1.739 1.975 2.58 2.58 0 0 1-2.556-.558c-.227-.209-.446-.414-.655-.606a3.38 3.38 0 0 1-.927-3.463c.979-3.171 2.757-8.95 2.757-8.95z" clip-rule="evenodd"/><path fill="#873B24" fill-rule="evenodd" d="m41.561 213.771-.69 2.482-1.953-2.648z" clip-rule="evenodd"/><path fill="#C95836" fill-rule="evenodd" d="M34.402 207.193c-.442-1.174.14-2.486 1.302-2.927l4.046-1.539c1.162-.441 2.29.231 2.905 1.325.73 1.287 1.59 4.209 1.962 6.403.21 1.238-.293 2.643-1.455 3.083-1.24.471-5.41.694-6.615-1.408-.918-1.601-1.499-3.206-2.15-4.937z" clip-rule="evenodd"/><path fill="#663A24" fill-rule="evenodd" d="M32.793 210.119c-.979-1.535-1.062-4.052-.437-5.574 1.328-3.232 5.011-4.871 9.25-2.573 0 0 .358 4.065-3.408 9.556-1.713 2.499-3.01 1.997-2.954 4.71.017.833-.782-3.637-1.25-4.327l-1.206-1.788z" clip-rule="evenodd"/><path fill="#C95836" fill-rule="evenodd" d="M38.325 210.379c.669.781 1.73.968 2.368.41.638-.554.616-1.64-.052-2.42-.669-.781-1.73-.969-2.368-.41-.638.554-.616 1.639.052 2.42M43.114 205.91c.022.061.87.99 2.193 2.216.66.61-.603 2.172-1.429 1.936-.825-.235-2.058-2.778-2.058-2.778z" clip-rule="evenodd"/><path fill="#fff" fill-rule="evenodd" d="m43.858 210.575-1.096.235s.28 1.553 1.153 1.012c.184-.113-.057-1.252-.057-1.252z" clip-rule="evenodd"/><path fill="#663A24" fill-rule="evenodd" d="M38.713 210.746s-2.329 3.319 2.49 8.452c0 0-6.95 2.879-8.122-3.026-.852-4.288 5.632-5.426 5.632-5.426" clip-rule="evenodd"/><path stroke="#4A2A1A" stroke-linecap="round" stroke-miterlimit="10" stroke-width=".86" d="m38.441 201.227 2.434.479"/><path stroke="#fff" stroke-linecap="round" stroke-linejoin="round" stroke-width="1.57" d="M239.141 136.086v9.486M242.672 136.086v9.486M246.203 136.086v9.486"/></g><defs><clipPath id="a"><path fill="#fff" d="M0 0h320v291H0z"/></clipPath></defs></svg>