<svg xmlns="http://www.w3.org/2000/svg" width="63" height="72" fill="none"><path fill="#64C21B" d="M14.972 56.24a4.353 4.353 0 0 1-4.37 4.37 4.353 4.353 0 0 1-4.372-4.37c0-2.428 4.371-11.17 4.371-11.17s4.371 8.742 4.371 11.17"/><path fill="#000091" d="M11.477 57.21h-1.7v9.957h1.7z"/><path fill="#64C21B" d="M48.379 56.24a4.353 4.353 0 0 0 4.37 4.37 4.353 4.353 0 0 0 4.371-4.37c0-2.428-4.37-11.17-4.37-11.17s-4.371 8.742-4.371 11.17"/><path fill="#000091" d="M51.925 67.168h1.7v-9.956h-1.7z"/><path fill="#BDBDBD" d="M49.884 11.898H13.461v53.13h36.423z"/><path fill="#6A6AF4" d="M15.84 55.652h-2.38v4.468h2.38zM15.84 45.992h-2.38v4.468h2.38zM15.84 36.328h-2.38v4.468h2.38zM15.84 26.66h-2.38v4.468h2.38zM15.84 17h-2.38v4.468h2.38zM47.507 60.121h2.38v-4.468h-2.38zM47.507 50.46h2.38v-4.467h-2.38zM47.507 40.797h2.38v-4.468h-2.38zM47.507 31.129h2.38V26.66h-2.38zM47.507 21.465h2.38v-4.468h-2.38z" opacity=".6"/><path fill="#F5F5F5" d="M43.769 3.156H19.535v61.92H43.77z"/><path fill="#6A6AF4" d="M24.88 8.793H22.5v4.468h2.38zM30.223 8.793h-2.38v4.468h2.38zM35.516 8.793h-2.38v4.468h2.38zM40.856 8.793h-2.38v4.468h2.38zM24.88 16.8H22.5v4.469h2.38zM30.223 16.8h-2.38v4.469h2.38zM35.516 16.8h-2.38v4.469h2.38zM40.856 16.8h-2.38v4.469h2.38zM24.88 24.816H22.5v4.468h2.38zM30.223 24.816h-2.38v4.468h2.38zM35.516 24.816h-2.38v4.468h2.38zM40.856 24.816h-2.38v4.468h2.38zM24.88 32.832H22.5V37.3h2.38zM30.223 32.832h-2.38V37.3h2.38zM35.516 32.832h-2.38V37.3h2.38zM40.856 32.832h-2.38V37.3h2.38zM24.88 40.844H22.5v4.468h2.38zM30.223 40.844h-2.38v4.468h2.38zM35.516 40.844h-2.38v4.468h2.38zM40.856 40.844h-2.38v4.468h2.38zM24.88 48.856H22.5v4.467h2.38zM30.223 48.856h-2.38v4.467h2.38zM35.516 48.856h-2.38v4.467h2.38zM40.856 48.856h-2.38v4.467h2.38z"/><path fill="#000091" stroke="#fff" stroke-miterlimit="10" stroke-width="2" d="M35.611 57.21h-8.255v9.714h8.255z"/><path fill="#000091" d="M63 68.086H.352v3.4H63z"/><path fill="#AFAFF9" d="M63 63.86H.352v5.05H63z"/><path fill="#000091" d="M45.178 0H18.176v5.002h27.002z"/></svg>