<svg width="269" height="230" viewBox="0 0 269 230" fill="none" xmlns="http://www.w3.org/2000/svg">
<g opacity="0.46">
<mask id="mask0_8746_23751" style="mask-type:luminance" maskUnits="userSpaceOnUse" x="6" y="0" width="263" height="216">
<path d="M268.498 0H6.53906V215.258H268.498V0Z" fill="white"/>
</mask>
<g mask="url(#mask0_8746_23751)">
<path d="M30.5796 133.091C21.8008 104.444 10.8319 49.4352 59.9457 20.86C113.403 -10.2388 140.616 57.6956 178.87 56.4974C178.87 56.4974 229.389 44.4427 248.535 105.496C267.699 166.568 206.101 218.617 129.793 213.026C93.3088 210.357 43.5562 175.41 30.5796 133.073" fill="#C3CDFF"/>
</g>
</g>
<g clip-path="url(#clip0_8746_23751)">
<path d="M213.123 72.6426H58V187.333H213.123V72.6426Z" fill="#CCCDED"/>
<path d="M137.65 213.001C175.372 213.001 205.952 210.642 205.952 207.732C205.952 204.822 175.372 202.463 137.65 202.463C99.9276 202.463 69.3477 204.822 69.3477 207.732C69.3477 210.642 99.9276 213.001 137.65 213.001Z" fill="#E3E7FA"/>
<path d="M213.123 72.6426H58V88.0633H213.123V72.6426Z" fill="#5E70DB"/>
<path d="M73.0045 81.6941C74.0996 81.6941 74.9874 80.8081 74.9874 79.7152C74.9874 78.6223 74.0996 77.7363 73.0045 77.7363C71.9093 77.7363 71.0215 78.6223 71.0215 79.7152C71.0215 80.8081 71.9093 81.6941 73.0045 81.6941Z" fill="white"/>
<path d="M83.1495 79.7152C83.1495 80.8088 82.2624 81.6941 81.1666 81.6941C80.0707 81.6941 79.1836 80.8088 79.1836 79.7152C79.1836 78.6216 80.0707 77.7363 81.1666 77.7363C82.2624 77.7363 83.1495 78.6216 83.1495 79.7152Z" fill="white"/>
<path d="M91.3117 79.7152C91.3117 80.8088 90.4245 81.6941 89.3287 81.6941C88.2328 81.6941 87.3457 80.8088 87.3457 79.7152C87.3457 78.6216 88.2328 77.7363 89.3287 77.7363C90.4245 77.7363 91.3117 78.6216 91.3117 79.7152Z" fill="white"/>
<path d="M132 148H112V171H132V148Z" fill="white"/>
<path d="M159 142H139V171H159V142Z" fill="white"/>
<path d="M186 138H166V171H186V138Z" fill="white"/>
<path fill-rule="evenodd" clip-rule="evenodd" d="M173.522 94.8262C165.575 94.8262 159.135 101.256 159.135 109.184C159.135 117.112 165.578 123.542 173.522 123.542C181.466 123.542 187.909 117.112 187.909 109.184C187.909 101.256 181.466 94.8262 173.522 94.8262ZM173.522 117.029C169.182 117.029 165.661 113.515 165.661 109.184C165.661 104.852 169.182 101.339 173.522 101.339C177.863 101.339 181.383 104.852 181.383 109.184C181.383 113.515 177.863 117.029 173.522 117.029Z" fill="#849AE8"/>
<path fill-rule="evenodd" clip-rule="evenodd" d="M173.523 94.8262C173.326 94.8262 173.133 94.8323 172.939 94.8415L173.203 101.348C173.308 101.345 173.415 101.339 173.523 101.339C177.863 101.339 181.384 104.852 181.384 109.184C181.384 110.44 181.086 111.625 180.561 112.679L186.406 115.58C187.367 113.653 187.913 111.484 187.913 109.184C187.913 101.253 181.47 94.8262 173.526 94.8262H173.523Z" fill="#637DD4"/>
<path fill-rule="evenodd" clip-rule="evenodd" d="M180.561 112.68C179.428 114.943 177.233 116.585 174.627 116.953L175.545 123.401C180.315 122.73 184.333 119.728 186.405 115.584L180.561 112.683V112.68Z" fill="white"/>
<path d="M129.827 92.7148C122.389 92.7148 116.357 98.7343 116.357 106.157H129.827V92.7148Z" fill="white"/>
<path d="M133.567 94.8546C133.337 94.8546 133.107 94.8608 132.877 94.873L132.751 109.543H119.217C119.41 117.29 125.758 123.512 133.567 123.512C141.376 123.512 147.927 117.097 147.927 109.182C147.927 101.266 141.499 94.8516 133.567 94.8516V94.8546Z" fill="#6984E0"/>
<path d="M86.8325 120.764C92.1151 120.764 96.3974 116.491 96.3974 111.219C96.3974 105.947 92.1151 101.674 86.8325 101.674C81.5499 101.674 77.2676 105.947 77.2676 111.219C77.2676 116.491 81.5499 120.764 86.8325 120.764Z" fill="#ED5F5F"/>
<path d="M84.2324 111.595L86.4241 114.723L91.0009 107.441" stroke="white" stroke-width="0.9" stroke-linecap="round" stroke-linejoin="round"/>
<path d="M86.8325 147.395C92.1151 147.395 96.3974 143.122 96.3974 137.85C96.3974 132.578 92.1151 128.305 86.8325 128.305C81.5499 128.305 77.2676 132.578 77.2676 137.85C77.2676 143.122 81.5499 147.395 86.8325 147.395Z" fill="#5A69C7"/>
<path d="M84.2324 138.225L86.4241 141.353L91.0009 134.074" stroke="white" stroke-width="0.9" stroke-linecap="round" stroke-linejoin="round"/>
<path d="M86.8325 174.026C92.1151 174.026 96.3974 169.753 96.3974 164.481C96.3974 159.209 92.1151 154.936 86.8325 154.936C81.5499 154.936 77.2676 159.209 77.2676 164.481C77.2676 169.753 81.5499 174.026 86.8325 174.026Z" fill="#5A69C7"/>
<path d="M84.2324 164.857L86.4241 167.982L91.0009 160.703" stroke="white" stroke-width="0.9" stroke-linecap="round" stroke-linejoin="round"/>
<path d="M165.73 127.16H181.312" stroke="#2A496B" stroke-width="1.45" stroke-miterlimit="10" stroke-linecap="round"/>
<path d="M121.151 78.9926C129.334 76.5195 133.958 67.8951 131.479 59.7295C129.001 51.564 120.359 46.9493 112.177 49.4224C103.994 51.8955 99.3703 60.5199 101.848 68.6855C104.327 76.851 112.969 81.4657 121.151 78.9926Z" fill="url(#paint0_linear_8746_23751)"/>
<path d="M127.24 74.7746C133.084 68.9426 133.084 59.4871 127.24 53.6551C121.396 47.8232 111.921 47.8232 106.078 53.6551C100.234 59.4871 100.234 68.9426 106.078 74.7746C111.921 80.6065 121.396 80.6065 127.24 74.7746Z" fill="url(#paint1_linear_8746_23751)"/>
<path opacity="0.78" d="M116.986 77.1789C123.98 77.1789 129.651 71.5201 129.651 64.5396C129.651 57.5592 123.98 51.9004 116.986 51.9004C109.991 51.9004 104.32 57.5592 104.32 64.5396C104.32 71.5201 109.991 77.1789 116.986 77.1789Z" fill="white"/>
<path d="M109.954 63.8988C109.591 63.8988 109.287 63.7824 109.045 63.5557C108.802 63.329 108.68 63.038 108.68 62.6887C108.68 62.3395 108.802 62.0546 109.045 61.8341C109.287 61.6105 109.591 61.5002 109.954 61.5002H116.314C116.676 61.5002 116.98 61.6105 117.222 61.8341C117.465 62.0577 117.588 62.3426 117.588 62.6887C117.588 63.0349 117.465 63.3259 117.222 63.5557C116.977 63.7854 116.676 63.8988 116.314 63.8988H109.954ZM109.954 67.0724C109.591 67.0724 109.287 66.956 109.045 66.7293C108.802 66.4995 108.68 66.2116 108.68 65.8623C108.68 65.5131 108.802 65.2282 109.045 65.0077C109.287 64.7841 109.591 64.6738 109.954 64.6738H116.314C116.676 64.6738 116.98 64.7841 117.222 65.0077C117.465 65.2313 117.588 65.5162 117.588 65.8623C117.588 66.2085 117.465 66.4995 117.222 66.7293C116.977 66.959 116.676 67.0724 116.314 67.0724H109.954ZM117.612 71.7286C116.664 71.7286 115.764 71.5693 114.914 71.2477C114.064 70.9291 113.306 70.4543 112.643 69.8263C111.98 69.2014 111.458 68.4172 111.074 67.4767C110.69 66.5363 110.5 65.4488 110.5 64.2082C110.5 63.136 110.675 62.1496 111.022 61.2429C111.372 60.3392 111.866 59.555 112.508 58.8933C113.149 58.2316 113.901 57.717 114.767 57.3494C115.632 56.9818 116.581 56.7949 117.612 56.7949C118.143 56.7949 118.668 56.8654 119.193 57.0032C119.718 57.1411 120.2 57.3433 120.648 57.6098C121.01 57.7905 121.222 58.0754 121.287 58.4644C121.351 58.8535 121.247 59.2088 120.983 59.5305C120.802 59.7817 120.568 59.9195 120.283 59.9471C119.997 59.9746 119.709 59.9195 119.414 59.7817C119.15 59.6285 118.862 59.509 118.558 59.4263C118.251 59.3436 117.938 59.3007 117.615 59.3007C116.71 59.3007 115.906 59.509 115.209 59.9256C114.512 60.3422 113.972 60.9182 113.588 61.6472C113.204 62.3794 113.014 63.231 113.014 64.2051C113.014 65.3324 113.22 66.2698 113.631 67.0142C114.042 67.7585 114.598 68.313 115.295 68.6745C115.992 69.0359 116.765 69.2167 117.618 69.2167C117.938 69.2167 118.251 69.183 118.549 69.1125C118.849 69.0421 119.138 68.9165 119.417 68.7357C119.709 68.5979 120 68.5489 120.286 68.5887C120.571 68.6316 120.811 68.7756 121.007 69.0268C121.287 69.376 121.388 69.7344 121.311 70.102C121.234 70.4696 121.023 70.7392 120.673 70.9046C120.35 71.0853 120.025 71.2354 119.69 71.3549C119.356 71.4743 119.018 71.5632 118.674 71.6275C118.334 71.6888 117.981 71.7225 117.618 71.7225L117.612 71.7286Z" fill="#FE8D81"/>
<path d="M187.407 49.6194C189.471 34.9104 179.195 21.3169 164.456 19.2575C149.716 17.1981 136.095 27.4527 134.031 42.1618C131.968 56.8709 142.243 70.4644 156.983 72.5237C171.722 74.5831 185.344 64.3285 187.407 49.6194Z" fill="url(#paint2_linear_8746_23751)"/>
<path d="M186.076 51.8637C189.381 37.8891 180.708 23.8867 166.705 20.5884C152.702 17.2901 138.67 25.9449 135.365 39.9195C132.06 53.894 140.733 67.8965 154.736 71.1947C168.739 74.493 182.771 65.8382 186.076 51.8637Z" fill="url(#paint3_linear_8746_23751)"/>
<path opacity="0.78" d="M183.181 49.1509C184.669 37.0896 176.078 26.108 163.992 24.6228C151.906 23.1376 140.902 31.7112 139.413 43.7725C137.925 55.8337 146.516 66.8153 158.603 68.3005C170.689 69.7858 181.693 61.2122 183.181 49.1509Z" fill="white"/>
<path d="M150.77 45.0231C150.128 45.0231 149.591 44.8209 149.161 44.4135C148.732 44.0061 148.514 43.4975 148.514 42.8818C148.514 42.2661 148.729 41.7637 149.161 41.3685C149.591 40.9764 150.128 40.7773 150.77 40.7773H162.014C162.655 40.7773 163.19 40.9734 163.622 41.3685C164.052 41.7637 164.27 42.2661 164.27 42.8818C164.27 43.4975 164.055 44.0061 163.622 44.4135C163.19 44.8209 162.655 45.0231 162.014 45.0231H150.77ZM150.77 50.6351C150.128 50.6351 149.591 50.4329 149.161 50.0255C148.732 49.6181 148.514 49.1095 148.514 48.4938C148.514 47.8781 148.729 47.3757 149.161 46.9805C149.591 46.5884 150.128 46.3893 150.77 46.3893H162.014C162.655 46.3893 163.19 46.5854 163.622 46.9805C164.052 47.3757 164.27 47.8781 164.27 48.4938C164.27 49.1095 164.055 49.6181 163.622 50.0255C163.19 50.4329 162.655 50.6351 162.014 50.6351H150.77ZM164.304 58.8632C162.628 58.8632 161.038 58.5813 159.534 58.0146C158.029 57.4479 156.691 56.6116 155.522 55.5058C154.349 54.3999 153.425 53.0153 152.747 51.3519C152.068 49.6916 151.731 47.7647 151.731 45.5745C151.731 43.6813 152.038 41.9322 152.655 40.3331C153.272 38.7341 154.146 37.3495 155.279 36.1823C156.412 35.0152 157.744 34.1023 159.273 33.4499C160.801 32.7974 162.477 32.4727 164.304 32.4727C165.24 32.4727 166.17 32.5952 167.097 32.8403C168.021 33.0853 168.878 33.4437 169.666 33.9094C170.308 34.2279 170.682 34.7334 170.793 35.4226C170.903 36.1119 170.725 36.7399 170.256 37.3066C169.937 37.7508 169.522 37.9958 169.016 38.0448C168.509 38.0938 168 37.9958 167.481 37.7508C167.011 37.4812 166.508 37.2698 165.964 37.1228C165.421 36.9757 164.866 36.9022 164.301 36.9022C162.698 36.9022 161.28 37.2729 160.046 38.0081C158.812 38.7463 157.858 39.7603 157.179 41.053C156.501 42.3457 156.163 43.8529 156.163 45.5745C156.163 47.5687 156.525 49.2229 157.253 50.5401C157.98 51.8573 158.96 52.8345 160.194 53.4748C161.428 54.115 162.794 54.4336 164.298 54.4336C164.866 54.4336 165.412 54.3723 165.943 54.2498C166.474 54.1273 166.984 53.9067 167.478 53.5851C167.997 53.34 168.506 53.2542 169.013 53.3277C169.519 53.4013 169.943 53.6586 170.29 54.1028C170.784 54.7185 170.962 55.3526 170.827 56.0051C170.692 56.6576 170.314 57.1293 169.7 57.4265C169.132 57.745 168.555 58.0115 167.963 58.2199C167.37 58.4282 166.772 58.5905 166.17 58.7008C165.565 58.8111 164.942 58.8662 164.304 58.8662V58.8632Z" fill="#FE8D81"/>
<path d="M193.4 134.979C204.23 124.171 204.23 106.649 193.4 95.8417C182.571 85.0343 165.013 85.0343 154.183 95.8417C143.353 106.649 143.353 124.171 154.183 134.979C165.013 145.786 182.571 145.786 193.4 134.979Z" fill="url(#paint4_linear_8746_23751)"/>
<path d="M192.747 134.327C203.216 123.879 203.216 106.941 192.747 96.4937C182.278 86.0464 165.305 86.0464 154.836 96.4937C144.367 106.941 144.367 123.879 154.836 134.327C165.305 144.774 182.278 144.774 192.747 134.327Z" fill="url(#paint5_linear_8746_23751)"/>
<path opacity="0.78" d="M196.454 121.185C199.333 109.013 191.779 96.8176 179.583 93.9448C167.386 91.0721 155.165 98.6102 152.286 110.782C149.408 122.953 156.962 135.149 169.158 138.022C181.355 140.895 193.576 133.356 196.454 121.185Z" fill="white"/>
<path d="M162.809 116.092C162.167 116.092 161.63 115.89 161.2 115.483C160.771 115.075 160.553 114.567 160.553 113.951C160.553 113.335 160.768 112.833 161.2 112.438C161.63 112.046 162.167 111.847 162.809 111.847H174.053C174.694 111.847 175.229 112.043 175.661 112.438C176.091 112.833 176.309 113.335 176.309 113.951C176.309 114.567 176.094 115.075 175.661 115.483C175.229 115.89 174.694 116.092 174.053 116.092H162.809ZM162.809 121.704C162.167 121.704 161.63 121.502 161.2 121.095C160.771 120.687 160.553 120.179 160.553 119.563C160.553 118.947 160.768 118.445 161.2 118.05C161.63 117.658 162.167 117.459 162.809 117.459H174.053C174.694 117.459 175.229 117.655 175.661 118.05C176.091 118.445 176.309 118.947 176.309 119.563C176.309 120.179 176.094 120.687 175.661 121.095C175.229 121.502 174.694 121.704 174.053 121.704H162.809ZM176.346 129.932C174.67 129.932 173.08 129.651 171.576 129.084C170.072 128.517 168.733 127.681 167.564 126.575C166.391 125.469 165.467 124.084 164.789 122.424C164.11 120.764 163.773 118.837 163.773 116.647C163.773 114.754 164.08 113.004 164.697 111.405C165.314 109.806 166.189 108.422 167.321 107.255C168.454 106.087 169.786 105.175 171.315 104.522C172.843 103.87 174.52 103.545 176.346 103.545C177.282 103.545 178.212 103.667 179.139 103.913C180.063 104.158 180.92 104.516 181.709 104.982C182.35 105.3 182.725 105.806 182.835 106.495C182.946 107.184 182.768 107.812 182.298 108.376C181.979 108.82 181.564 109.065 181.058 109.114C180.551 109.163 180.042 109.065 179.523 108.82C179.053 108.55 178.55 108.339 178.007 108.192C177.463 108.045 176.908 107.971 176.343 107.971C174.741 107.971 173.322 108.342 172.088 109.077C170.854 109.816 169.9 110.829 169.221 112.122C168.543 113.415 168.205 114.922 168.205 116.644C168.205 118.638 168.568 120.292 169.295 121.609C170.023 122.927 171.002 123.904 172.236 124.544C173.47 125.184 174.836 125.503 176.34 125.503C176.908 125.503 177.454 125.442 177.985 125.319C178.516 125.196 179.026 124.976 179.52 124.654C180.039 124.409 180.548 124.323 181.055 124.397C181.561 124.47 181.985 124.728 182.332 125.172C182.826 125.788 183.004 126.422 182.869 127.074C182.734 127.727 182.356 128.199 181.742 128.496C181.174 128.814 180.594 129.081 180.005 129.289C179.412 129.497 178.814 129.66 178.212 129.77C177.608 129.88 176.984 129.935 176.346 129.935V129.932Z" fill="#FE8D81"/>
<path d="M229.256 50.9897C232.073 41.7085 226.817 31.9058 217.517 29.0948C208.216 26.2838 198.394 31.529 195.577 40.8101C192.76 50.0913 198.016 59.894 207.316 62.705C216.616 65.516 226.439 60.2709 229.256 50.9897Z" fill="url(#paint6_linear_8746_23751)"/>
<path d="M228.455 51.5129C231.564 42.667 226.899 32.9805 218.035 29.8775C209.171 26.7745 199.464 31.43 196.355 40.276C193.245 49.1219 197.91 58.8085 206.775 61.9115C215.639 65.0145 225.345 60.3589 228.455 51.5129Z" fill="url(#paint7_linear_8746_23751)"/>
<path opacity="0.78" d="M219.575 58.9438C226.585 55.2004 229.227 46.4943 225.476 39.4982C221.725 32.5021 213.001 29.8652 205.991 33.6087C198.98 37.3521 196.338 46.0582 200.089 53.0543C203.84 60.0504 212.564 62.6872 219.575 58.9438Z" fill="white"/>
<path d="M205.123 45.4632C204.678 45.4632 204.306 45.3223 204.009 45.0405C203.711 44.7587 203.561 44.4064 203.561 43.9806C203.561 43.5548 203.711 43.2056 204.009 42.9329C204.306 42.6603 204.678 42.5224 205.123 42.5224H212.911C213.356 42.5224 213.727 42.6603 214.025 42.9329C214.323 43.2056 214.473 43.5548 214.473 43.9806C214.473 44.4064 214.323 44.7617 214.025 45.0405C213.727 45.3223 213.356 45.4632 212.911 45.4632H205.123ZM205.123 49.3506C204.678 49.3506 204.306 49.2097 204.009 48.9278C203.711 48.646 203.561 48.2937 203.561 47.8679C203.561 47.4421 203.711 47.0929 204.009 46.8203C204.306 46.5476 204.678 46.4098 205.123 46.4098H212.911C213.356 46.4098 213.727 46.5476 214.025 46.8203C214.323 47.0929 214.473 47.4421 214.473 47.8679C214.473 48.2937 214.323 48.6491 214.025 48.9278C213.727 49.2097 213.356 49.3506 212.911 49.3506H205.123ZM214.498 55.0514C213.337 55.0514 212.235 54.8554 211.192 54.4633C210.151 54.0712 209.224 53.4922 208.411 52.7233C207.6 51.9575 206.959 50.9986 206.489 49.8468C206.019 48.695 205.786 47.3625 205.786 45.8461C205.786 44.535 205.998 43.325 206.428 42.2161C206.854 41.1072 207.462 40.1484 208.248 39.3397C209.034 38.5309 209.955 37.8999 211.014 37.4465C212.073 36.9962 213.233 36.7695 214.498 36.7695C215.145 36.7695 215.79 36.8553 216.431 37.0238C217.073 37.1953 217.665 37.4404 218.212 37.7651C218.657 37.9857 218.915 38.3349 218.995 38.8128C219.071 39.2906 218.949 39.7256 218.623 40.1177C218.402 40.4241 218.114 40.5956 217.764 40.6293C217.414 40.663 217.061 40.5956 216.702 40.4241C216.376 40.2372 216.026 40.0932 215.652 39.9891C215.277 39.888 214.891 39.8359 214.498 39.8359C213.386 39.8359 212.404 40.0902 211.551 40.6017C210.697 41.1133 210.034 41.8148 209.565 42.7124C209.095 43.6069 208.862 44.6515 208.862 45.8431C208.862 47.2246 209.113 48.3703 209.617 49.2832C210.12 50.1961 210.799 50.8731 211.652 51.3142C212.505 51.7584 213.454 51.9789 214.495 51.9789C214.887 51.9789 215.268 51.936 215.633 51.8503C216.002 51.7645 216.355 51.6113 216.695 51.3908C217.055 51.2192 217.408 51.161 217.758 51.2131C218.107 51.2652 218.402 51.4428 218.642 51.7492C218.982 52.175 219.108 52.613 219.013 53.0664C218.918 53.5167 218.657 53.8475 218.23 54.0497C217.837 54.2703 217.435 54.4541 217.027 54.598C216.616 54.742 216.201 54.8523 215.784 54.9289C215.366 55.0055 214.933 55.0453 214.491 55.0453L214.498 55.0514Z" fill="#FE8D81"/>
<path d="M143.047 54.8865L117.438 121.119L148.381 133.035L173.991 66.8021L143.047 54.8865Z" fill="#91B3FA"/>
<path opacity="0.5" d="M148.152 61.0527L165.857 67.8717C165.308 69.2931 166.149 70.9901 167.727 71.5997C167.776 71.6181 167.899 71.6641 167.899 71.661L147.228 125.122C147.228 125.122 147.111 125.07 147.059 125.052C145.481 124.445 143.744 125.101 143.185 126.547C143.176 126.568 143.158 126.589 143.158 126.589L125.851 119.927C126.793 117.488 125.259 116.637 123.681 116.03C123.632 116.012 123.613 116.03 123.613 116.03L144.284 62.5691C144.284 62.5691 144.293 62.5783 144.342 62.5966C145.92 63.2032 147.602 62.4802 148.152 61.0558V61.0527Z" fill="white"/>
<path d="M165.266 84.427C165.241 84.427 165.213 84.4239 165.189 84.4117C165.078 84.3688 165.026 84.2463 165.066 84.139L171.236 68.1853L165.223 65.8694C165.112 65.8265 165.06 65.704 165.1 65.5968C165.143 65.4865 165.266 65.4344 165.373 65.4742L171.583 67.8636C171.635 67.8851 171.678 67.9249 171.7 67.9739C171.721 68.026 171.724 68.0842 171.703 68.1363L165.459 84.2892C165.425 84.3719 165.345 84.4239 165.263 84.4239L165.266 84.427Z" fill="white"/>
<path d="M141.469 51.7107L115.859 117.943L147.006 129.937L172.616 63.7046L141.469 51.7107Z" fill="#BDD0FB"/>
<path opacity="0.5" d="M146.636 57.9004L164.341 64.7193C163.792 66.1407 164.707 67.8562 166.285 68.4658C166.334 68.4842 166.328 68.4688 166.53 68.5454L145.859 122.006C145.657 121.927 145.669 121.927 145.62 121.908C144.042 121.302 142.265 121.951 141.706 123.397C141.697 123.419 141.639 123.437 141.639 123.437L124.332 116.771C125.274 114.333 123.715 113.46 122.134 112.853C122.085 112.835 122.039 112.832 122.039 112.835L142.71 59.3738C142.71 59.3738 142.747 59.4014 142.796 59.4229C144.374 60.0294 146.083 59.3248 146.633 57.9035L146.636 57.9004Z" fill="white"/>
<path d="M150.606 98.8928C155.124 95.3232 155.886 88.7747 152.31 84.2662C148.733 79.7577 142.171 78.9965 137.653 82.566C133.135 86.1356 132.372 92.6842 135.949 97.1927C139.526 101.701 146.088 102.462 150.606 98.8928Z" fill="url(#paint8_linear_8746_23751)"/>
<path d="M150.315 94.2354L149.287 93.8403C148.829 94.894 148.166 95.8559 147.546 96.4808C147.325 96.7045 146.969 96.7259 146.714 96.539L145.855 95.908C145.539 95.6782 145.505 95.2249 145.775 94.9431C146.377 94.3181 146.981 93.491 147.365 92.4985C147.764 91.4662 147.712 90.5625 146.994 90.2868C146.346 90.0387 145.729 90.4829 144.79 91.7695C143.439 93.5983 141.978 94.7225 140.173 94.0302C138.543 93.4022 137.76 91.7358 138.224 89.5424L137.195 89.1473C136.864 89.0186 136.698 88.6479 136.827 88.3171L137.06 87.7136C137.189 87.3828 137.561 87.2174 137.892 87.346L138.816 87.7014C139.24 86.7242 139.688 86.0686 140.111 85.5754C140.329 85.3212 140.707 85.2844 140.977 85.4805L141.772 86.0625C142.079 86.2861 142.125 86.7242 141.87 87.006C141.468 87.4563 140.971 88.121 140.596 89.089C140.124 90.3144 140.495 90.8566 140.953 91.0343C141.514 91.2487 142.183 90.6636 143.289 89.2637C144.851 87.2541 146.162 86.6752 147.862 87.3276C149.422 87.9281 150.376 89.6221 149.861 91.9931L151.012 92.4373C151.343 92.5659 151.509 92.9366 151.38 93.2674L151.147 93.8709C151.018 94.2017 150.646 94.3671 150.315 94.2385V94.2354Z" fill="white"/>
<path d="M163.687 81.2536C163.663 81.2536 163.635 81.2505 163.611 81.2383C163.5 81.1954 163.448 81.0729 163.488 80.9657L169.658 65.0119L163.85 62.7757C163.74 62.7328 163.687 62.6102 163.727 62.503C163.77 62.3927 163.893 62.3407 164.001 62.3805L170.008 64.6933C170.06 64.7147 170.103 64.7546 170.124 64.8036C170.146 64.8557 170.149 64.9139 170.128 64.9659L163.884 81.1188C163.85 81.2015 163.77 81.2536 163.687 81.2536Z" fill="white"/>
<path d="M153.286 49.6133L108.855 105.057L134.928 125.865L179.359 70.4216L153.286 49.6133Z" fill="#91B3FA"/>
<path opacity="0.5" d="M156.367 57.0898L171.19 68.9173C170.235 70.1089 170.567 72.0205 171.89 73.0773C171.933 73.111 171.905 73.0957 172.077 73.2305L136.218 117.982C136.049 117.845 136.073 117.86 136.03 117.826C134.71 116.772 132.835 116.852 131.865 118.062C131.85 118.081 131.807 118.071 131.807 118.071L117.318 106.51C118.954 104.47 117.705 103.171 116.385 102.118C116.342 102.084 116.277 102.072 116.277 102.072L152.137 57.3196C152.137 57.3196 152.186 57.3533 152.226 57.387C153.546 58.4408 155.412 58.2815 156.367 57.0898Z" fill="white"/>
<path d="M145.007 98.0193C150.745 97.4862 154.963 92.4123 154.428 86.6866C153.894 80.9608 148.81 76.7514 143.072 77.2846C137.335 77.8178 133.117 82.8916 133.651 88.6174C134.185 94.3431 139.27 98.5525 145.007 98.0193Z" fill="#91B3FA"/>
<path d="M150.232 91.3557C149.695 92.0388 149.069 92.5932 148.354 93.0221C147.639 93.451 146.868 93.7267 146.039 93.8461C145.211 93.9656 144.348 93.8982 143.455 93.6409C142.558 93.3836 141.665 92.9026 140.769 92.1981C139.995 91.5885 139.381 90.9023 138.927 90.1395C138.473 89.3768 138.187 88.5742 138.077 87.7379C137.963 86.9016 138.018 86.0684 138.246 85.2352C138.47 84.405 138.875 83.6177 139.461 82.8764C139.762 82.4965 140.112 82.1565 140.508 81.8594C140.904 81.5622 141.327 81.3294 141.769 81.1579C142.107 80.9986 142.433 81.0078 142.749 81.1854C143.065 81.3631 143.264 81.6358 143.344 82.0095C143.421 82.2821 143.39 82.5302 143.246 82.7508C143.105 82.9714 142.899 83.149 142.632 83.2808C142.371 83.3849 142.122 83.5228 141.889 83.6943C141.656 83.8689 141.447 84.068 141.263 84.3008C140.747 84.9533 140.443 85.6487 140.348 86.387C140.253 87.1252 140.361 87.839 140.671 88.5313C140.981 89.2205 141.487 89.8454 142.19 90.3968C143.003 91.0371 143.795 91.42 144.566 91.5487C145.336 91.6773 146.052 91.5915 146.708 91.2944C147.365 91.0003 147.936 90.5439 148.418 89.9343C148.599 89.7045 148.753 89.4625 148.873 89.2052C148.992 88.951 149.066 88.6722 149.094 88.3689C149.161 88.081 149.29 87.8451 149.48 87.6613C149.674 87.4806 149.916 87.3887 150.208 87.3917C150.616 87.3917 150.932 87.5204 151.156 87.7838C151.38 88.0473 151.451 88.3536 151.374 88.6998C151.322 89.0337 151.245 89.3553 151.141 89.6616C151.037 89.968 150.911 90.2651 150.76 90.5439C150.61 90.8257 150.435 91.0953 150.229 91.3557H150.232ZM140.235 92.4125C140.029 92.6729 139.774 92.8261 139.47 92.872C139.166 92.918 138.887 92.8414 138.638 92.6423C138.387 92.4462 138.252 92.195 138.23 91.8917C138.209 91.5915 138.301 91.3097 138.506 91.0493L142.116 86.4789C142.322 86.2185 142.574 86.0653 142.875 86.0132C143.175 85.9642 143.449 86.0377 143.7 86.2369C143.952 86.436 144.09 86.6872 144.118 86.9935C144.145 87.2998 144.056 87.5817 143.851 87.842L140.241 92.4125H140.235ZM142.525 94.2137C142.319 94.4741 142.064 94.6273 141.76 94.6732C141.456 94.7192 141.177 94.6426 140.928 94.4435C140.677 94.2474 140.542 93.9962 140.517 93.693C140.496 93.3928 140.588 93.1109 140.793 92.8506L144.403 88.2801C144.609 88.0197 144.861 87.8635 145.161 87.8145C145.462 87.7655 145.735 87.839 145.987 88.0381C146.239 88.2372 146.377 88.4884 146.405 88.7917C146.432 89.098 146.343 89.3798 146.138 89.6402L142.528 94.2107L142.525 94.2137Z" fill="white"/>
<path d="M133.329 102.565C134.603 103.582 134.812 105.439 133.793 106.71C132.773 107.981 130.913 108.189 129.639 107.172C128.365 106.155 128.157 104.299 129.176 103.028C130.195 101.756 132.055 101.548 133.329 102.565Z" fill="#91B3FA"/>
<path d="M161.102 67.905C162.376 68.922 162.585 70.7784 161.566 72.0496C160.547 73.3209 158.687 73.5292 157.413 72.5122C156.139 71.4952 155.93 69.6388 156.949 68.3675C157.968 67.0963 159.829 66.8879 161.102 67.905Z" fill="#91B3FA"/>
</g>
<defs>
<linearGradient id="paint0_linear_8746_23751" x1="95.4765" y1="88.7513" x2="116.19" y2="64.656" gradientUnits="userSpaceOnUse">
<stop stop-color="#FF928E"/>
<stop offset="1" stop-color="#FE7062"/>
</linearGradient>
<linearGradient id="paint1_linear_8746_23751" x1="127.973" y1="47.1578" x2="66.7464" y2="139.841" gradientUnits="userSpaceOnUse">
<stop stop-color="#FF928E"/>
<stop offset="1" stop-color="#FE7062"/>
</linearGradient>
<linearGradient id="paint2_linear_8746_23751" x1="123.843" y1="88.609" x2="159.903" y2="46.6663" gradientUnits="userSpaceOnUse">
<stop stop-color="#FF928E"/>
<stop offset="1" stop-color="#FE7062"/>
</linearGradient>
<linearGradient id="paint3_linear_8746_23751" x1="180.414" y1="16.2016" x2="73.8316" y2="177.549" gradientUnits="userSpaceOnUse">
<stop stop-color="#FF928E"/>
<stop offset="1" stop-color="#FE7062"/>
</linearGradient>
<linearGradient id="paint4_linear_8746_23751" x1="135.847" y1="159.363" x2="172.954" y2="116.205" gradientUnits="userSpaceOnUse">
<stop stop-color="#FF928E"/>
<stop offset="1" stop-color="#FE7062"/>
</linearGradient>
<linearGradient id="paint5_linear_8746_23751" x1="194.059" y1="84.8569" x2="84.3859" y2="250.879" gradientUnits="userSpaceOnUse">
<stop stop-color="#FF928E"/>
<stop offset="1" stop-color="#FE7062"/>
</linearGradient>
<linearGradient id="paint6_linear_8746_23751" x1="188.343" y1="73.7744" x2="211.887" y2="46.3895" gradientUnits="userSpaceOnUse">
<stop stop-color="#FF928E"/>
<stop offset="1" stop-color="#FE7062"/>
</linearGradient>
<linearGradient id="paint7_linear_8746_23751" x1="225.262" y1="26.5064" x2="155.677" y2="131.848" gradientUnits="userSpaceOnUse">
<stop stop-color="#FF928E"/>
<stop offset="1" stop-color="#FE7062"/>
</linearGradient>
<linearGradient id="paint8_linear_8746_23751" x1="137.407" y1="87.5237" x2="220.611" y2="127.372" gradientUnits="userSpaceOnUse">
<stop stop-color="#50E7B7"/>
<stop offset="1" stop-color="#323992"/>
</linearGradient>
<clipPath id="clip0_8746_23751">
<rect width="172" height="194" fill="white" transform="translate(58 19)"/>
</clipPath>
</defs>
</svg>
