<svg width="480" height="244" viewBox="0 0 480 244" fill="none" xmlns="http://www.w3.org/2000/svg">
<path d="M0 73.6816C0 65.3974 6.71573 58.6816 15 58.6816H49C57.2843 58.6816 64 65.3974 64 73.6816V170.682H0V73.6816Z" fill="#27A658"/>
<path d="M82 50.6816C82 42.3974 88.7157 35.6816 97 35.6816H131C139.284 35.6816 146 42.3974 146 50.6816V170.682H82V50.6816Z" fill="#8585F6"/>
<path d="M164 49.6816C164 41.3974 170.716 34.6816 179 34.6816H213C221.284 34.6816 228 41.3974 228 49.6816V170.682H164V49.6816Z" fill="#8585F6"/>
<path d="M246 35.6816C246 27.3974 252.716 20.6816 261 20.6816H295C303.284 20.6816 310 27.3974 310 35.6816V170.682H246V35.6816Z" fill="#8585F6"/>
<path d="M328 21.6816C328 13.3974 334.716 6.68164 343 6.68164H377C385.284 6.68164 392 13.3974 392 21.6816V170.682H328V21.6816Z" fill="#8585F6"/>
<path d="M410 15.6816C410 7.39737 416.716 0.681641 425 0.681641H459C467.284 0.681641 474 7.39737 474 15.6816V170.682H410V15.6816Z" fill="#8585F6"/>
<path d="M11.688 120.682H10.232L15.412 112.016H9.952V110.882H16.756V112.016L11.688 120.682ZM25.368 110.602C27.328 110.602 28.462 111.764 28.462 113.164C28.462 114.144 27.958 114.914 27.034 115.32C28.252 115.754 28.938 116.706 28.938 117.966C28.938 119.66 27.608 120.962 25.368 120.962C23.142 120.962 21.798 119.66 21.798 117.966C21.798 116.706 22.484 115.754 23.702 115.32C22.764 114.914 22.26 114.144 22.26 113.164C22.26 111.764 23.394 110.602 25.368 110.602ZM25.382 114.844C26.432 114.844 27.16 114.2 27.16 113.276C27.16 112.338 26.432 111.694 25.382 111.694C24.29 111.694 23.576 112.338 23.576 113.276C23.576 114.214 24.29 114.844 25.382 114.844ZM25.382 119.856C26.726 119.856 27.636 119.058 27.636 117.91C27.636 116.748 26.726 115.922 25.382 115.922C24.01 115.922 23.1 116.748 23.1 117.91C23.1 119.072 24.01 119.856 25.382 119.856ZM30.3504 120.682V119.548L33.6684 116.132C34.8164 114.928 35.3344 114.382 35.3344 113.346C35.3344 112.324 34.5924 111.736 33.5984 111.736C32.5624 111.736 31.8904 112.254 31.3164 113.206L30.2804 112.576C31.0784 111.33 32.1704 110.602 33.6964 110.602C35.3344 110.602 36.6364 111.666 36.6364 113.262C36.6364 114.592 35.7684 115.586 34.5924 116.818L31.9044 119.548H36.9024V120.682H30.3504ZM42.455 110.602C43.967 110.602 44.919 111.274 45.605 112.268L44.611 113.038C44.037 112.184 43.365 111.75 42.469 111.75C40.677 111.75 39.795 113.234 39.725 115.656C40.425 114.956 41.349 114.564 42.427 114.564C44.275 114.564 45.535 115.95 45.535 117.672C45.535 119.45 44.275 120.962 42.161 120.962C39.865 120.962 38.423 119.338 38.423 115.936C38.423 112.758 39.669 110.602 42.455 110.602ZM42.231 115.698C41.251 115.698 40.369 116.118 39.781 116.958C39.991 119.03 40.887 119.814 42.133 119.814C43.449 119.814 44.219 118.89 44.219 117.714C44.219 116.58 43.379 115.698 42.231 115.698ZM46.2491 117.434V116.398H47.4251C47.4111 116.202 47.4111 115.992 47.4111 115.768C47.4111 115.586 47.4111 115.404 47.4251 115.236H46.2491V114.2H47.5231C47.8871 111.778 49.1471 110.602 51.0371 110.602C52.3671 110.602 53.2771 111.162 53.9211 112.03L52.9691 112.772C52.5351 112.156 51.9751 111.722 51.0651 111.722C49.9171 111.722 49.0911 112.394 48.8111 114.2H52.7451V115.236H48.7131C48.6991 115.404 48.6991 115.586 48.6991 115.768C48.6991 115.992 48.6991 116.202 48.7131 116.398H52.7451V117.434H48.8251C49.1191 119.184 49.9311 119.842 51.0651 119.842C51.9611 119.842 52.5351 119.408 52.9691 118.792L53.9211 119.52C53.2911 120.388 52.3671 120.962 51.0371 120.962C49.1611 120.962 47.9151 119.814 47.5371 117.434H46.2491Z" fill="white"/>
<path d="M96.7686 122.954C95.2566 122.954 94.2906 122.282 93.6186 121.288L94.6266 120.518C95.1866 121.372 95.8586 121.806 96.7686 121.806C98.5606 121.806 99.4566 120.322 99.5126 117.886C98.8126 118.6 97.8886 118.992 96.7966 118.992C94.9626 118.992 93.7026 117.606 93.7026 115.884C93.7026 114.106 94.9486 112.594 97.0766 112.594C99.3726 112.594 100.815 114.218 100.815 117.62C100.815 120.798 99.5546 122.954 96.7686 122.954ZM95.0046 115.842C95.0046 116.976 95.8446 117.858 96.9926 117.858C97.9866 117.858 98.8826 117.438 99.4566 116.584C99.2466 114.526 98.3226 113.742 97.0906 113.742C95.7886 113.742 95.0046 114.666 95.0046 115.842ZM102.068 119.846V118.712L106.674 112.874H108.2V118.712H109.334V119.846H108.2V122.674H106.94V119.846H102.068ZM103.412 118.712H106.94V114.246L103.412 118.712ZM110.909 122.674V121.54L114.227 118.124C115.375 116.92 115.893 116.374 115.893 115.338C115.893 114.316 115.151 113.728 114.157 113.728C113.121 113.728 112.449 114.246 111.875 115.198L110.839 114.568C111.637 113.322 112.729 112.594 114.255 112.594C115.893 112.594 117.195 113.658 117.195 115.254C117.195 116.584 116.327 117.578 115.151 118.81L112.463 121.54H117.461V122.674H110.909ZM119.085 122.674V121.54L122.403 118.124C123.551 116.92 124.069 116.374 124.069 115.338C124.069 114.316 123.327 113.728 122.333 113.728C121.297 113.728 120.625 114.246 120.051 115.198L119.015 114.568C119.813 113.322 120.905 112.594 122.431 112.594C124.069 112.594 125.371 113.658 125.371 115.254C125.371 116.584 124.503 117.578 123.327 118.81L120.639 121.54H125.637V122.674H119.085ZM126.712 119.426V118.39H127.888C127.874 118.194 127.874 117.984 127.874 117.76C127.874 117.578 127.874 117.396 127.888 117.228H126.712V116.192H127.986C128.35 113.77 129.61 112.594 131.5 112.594C132.83 112.594 133.74 113.154 134.384 114.022L133.432 114.764C132.998 114.148 132.438 113.714 131.528 113.714C130.38 113.714 129.554 114.386 129.274 116.192H133.208V117.228H129.176C129.162 117.396 129.162 117.578 129.162 117.76C129.162 117.984 129.162 118.194 129.176 118.39H133.208V119.426H129.288C129.582 121.176 130.394 121.834 131.528 121.834C132.424 121.834 132.998 121.4 133.432 120.784L134.384 121.512C133.754 122.38 132.83 122.954 131.5 122.954C129.624 122.954 128.378 121.806 128 119.426H126.712Z" fill="white"/>
<path d="M176.874 120.954C175.362 120.954 174.396 120.282 173.724 119.288L174.732 118.518C175.292 119.372 175.964 119.806 176.874 119.806C178.666 119.806 179.562 118.322 179.618 115.886C178.918 116.6 177.994 116.992 176.902 116.992C175.068 116.992 173.808 115.606 173.808 113.884C173.808 112.106 175.054 110.594 177.182 110.594C179.478 110.594 180.92 112.218 180.92 115.62C180.92 118.798 179.66 120.954 176.874 120.954ZM175.11 113.842C175.11 114.976 175.95 115.858 177.098 115.858C178.092 115.858 178.988 115.438 179.562 114.584C179.352 112.526 178.428 111.742 177.196 111.742C175.894 111.742 175.11 112.666 175.11 113.842ZM186.774 116.026L187.068 110.874H192.458V112.008H188.272L188.104 114.878H189.518C191.828 114.878 192.92 116.138 192.92 117.874C192.92 119.75 191.464 120.954 189.504 120.954C187.824 120.954 186.69 120.268 185.906 118.966L187.012 118.28C187.614 119.372 188.426 119.82 189.49 119.82C190.722 119.82 191.632 119.106 191.632 117.916C191.632 116.782 190.834 116.026 189.462 116.026H186.774ZM196.812 120.674V112.148L194.222 113.548L193.578 112.652L196.798 110.874H198.058V120.674H196.812ZM204.038 110.594C205.998 110.594 207.132 111.756 207.132 113.156C207.132 114.136 206.628 114.906 205.704 115.312C206.922 115.746 207.608 116.698 207.608 117.958C207.608 119.652 206.278 120.954 204.038 120.954C201.812 120.954 200.468 119.652 200.468 117.958C200.468 116.698 201.154 115.746 202.372 115.312C201.434 114.906 200.93 114.136 200.93 113.156C200.93 111.756 202.064 110.594 204.038 110.594ZM204.052 114.836C205.102 114.836 205.83 114.192 205.83 113.268C205.83 112.33 205.102 111.686 204.052 111.686C202.96 111.686 202.246 112.33 202.246 113.268C202.246 114.206 202.96 114.836 204.052 114.836ZM204.052 119.848C205.396 119.848 206.306 119.05 206.306 117.902C206.306 116.74 205.396 115.914 204.052 115.914C202.68 115.914 201.77 116.74 201.77 117.902C201.77 119.064 202.68 119.848 204.052 119.848ZM208.526 117.426V116.39H209.702C209.688 116.194 209.688 115.984 209.688 115.76C209.688 115.578 209.688 115.396 209.702 115.228H208.526V114.192H209.8C210.164 111.77 211.424 110.594 213.314 110.594C214.644 110.594 215.554 111.154 216.198 112.022L215.246 112.764C214.812 112.148 214.252 111.714 213.342 111.714C212.194 111.714 211.368 112.386 211.088 114.192H215.022V115.228H210.99C210.976 115.396 210.976 115.578 210.976 115.76C210.976 115.984 210.976 116.194 210.99 116.39H215.022V117.426H211.102C211.396 119.176 212.208 119.834 213.342 119.834C214.238 119.834 214.812 119.4 215.246 118.784L216.198 119.512C215.568 120.38 214.644 120.954 213.314 120.954C211.438 120.954 210.192 119.806 209.814 117.426H208.526Z" fill="white"/>
<path d="M254.318 120.682V112.156L251.728 113.556L251.084 112.66L254.304 110.882H255.564V120.682H254.318ZM261.653 110.602C264.117 110.602 265.321 112.87 265.321 115.782C265.321 118.694 264.117 120.962 261.653 120.962C259.217 120.962 257.999 118.694 257.999 115.782C257.999 112.87 259.217 110.602 261.653 110.602ZM261.667 111.778C260.099 111.778 259.287 113.486 259.287 115.782C259.287 118.078 260.099 119.786 261.667 119.786C263.221 119.786 264.019 118.078 264.019 115.782C264.019 113.486 263.221 111.778 261.667 111.778ZM270.195 117.854V116.72L274.801 110.882H276.327V116.72H277.461V117.854H276.327V120.682H275.067V117.854H270.195ZM271.539 116.72H275.067V112.254L271.539 116.72ZM280.348 120.682H278.892L284.072 112.016H278.612V110.882H285.416V112.016L280.348 120.682ZM287.223 116.034L287.517 110.882H292.907V112.016H288.721L288.553 114.886H289.967C292.277 114.886 293.369 116.146 293.369 117.882C293.369 119.758 291.913 120.962 289.953 120.962C288.273 120.962 287.139 120.276 286.355 118.974L287.461 118.288C288.063 119.38 288.875 119.828 289.939 119.828C291.171 119.828 292.081 119.114 292.081 117.924C292.081 116.79 291.283 116.034 289.911 116.034H287.223ZM294.306 117.434V116.398H295.482C295.468 116.202 295.468 115.992 295.468 115.768C295.468 115.586 295.468 115.404 295.482 115.236H294.306V114.2H295.58C295.944 111.778 297.204 110.602 299.094 110.602C300.424 110.602 301.334 111.162 301.978 112.03L301.026 112.772C300.592 112.156 300.032 111.722 299.122 111.722C297.974 111.722 297.148 112.394 296.868 114.2H300.802V115.236H296.77C296.756 115.404 296.756 115.586 296.756 115.768C296.756 115.992 296.756 116.202 296.77 116.398H300.802V117.434H296.882C297.176 119.184 297.988 119.842 299.122 119.842C300.018 119.842 300.592 119.408 301.026 118.792L301.978 119.52C301.348 120.388 300.424 120.962 299.094 120.962C297.218 120.962 295.972 119.814 295.594 117.434H294.306Z" fill="white"/>
<path d="M342.076 120.674V112.148L339.486 113.548L338.842 112.652L342.062 110.874H343.322V120.674H342.076ZM348.297 120.674V112.148L345.707 113.548L345.063 112.652L348.283 110.874H349.543V120.674H348.297ZM355.779 117.846V116.712L360.385 110.874H361.911V116.712H363.045V117.846H361.911V120.674H360.651V117.846H355.779ZM357.123 116.712H360.651V112.246L357.123 116.712ZM367.731 110.594C369.691 110.594 370.825 111.756 370.825 113.156C370.825 114.136 370.321 114.906 369.397 115.312C370.615 115.746 371.301 116.698 371.301 117.958C371.301 119.652 369.971 120.954 367.731 120.954C365.505 120.954 364.161 119.652 364.161 117.958C364.161 116.698 364.847 115.746 366.065 115.312C365.127 114.906 364.623 114.136 364.623 113.156C364.623 111.756 365.757 110.594 367.731 110.594ZM367.745 114.836C368.795 114.836 369.523 114.192 369.523 113.268C369.523 112.33 368.795 111.686 367.745 111.686C366.653 111.686 365.939 112.33 365.939 113.268C365.939 114.206 366.653 114.836 367.745 114.836ZM367.745 119.848C369.089 119.848 369.999 119.05 369.999 117.902C369.999 116.74 369.089 115.914 367.745 115.914C366.373 115.914 365.463 116.74 365.463 117.902C365.463 119.064 366.373 119.848 367.745 119.848ZM372.322 117.846V116.712L376.928 110.874H378.454V116.712H379.588V117.846H378.454V120.674H377.194V117.846H372.322ZM373.666 116.712H377.194V112.246L373.666 116.712ZM380.45 117.426V116.39H381.626C381.612 116.194 381.612 115.984 381.612 115.76C381.612 115.578 381.612 115.396 381.626 115.228H380.45V114.192H381.724C382.088 111.77 383.348 110.594 385.238 110.594C386.568 110.594 387.478 111.154 388.122 112.022L387.17 112.764C386.736 112.148 386.176 111.714 385.266 111.714C384.118 111.714 383.292 112.386 383.012 114.192H386.946V115.228H382.914C382.9 115.396 382.9 115.578 382.9 115.76C382.9 115.984 382.9 116.194 382.914 116.39H386.946V117.426H383.026C383.32 119.176 384.132 119.834 385.266 119.834C386.162 119.834 386.736 119.4 387.17 118.784L388.122 119.512C387.492 120.38 386.568 120.954 385.238 120.954C383.362 120.954 382.116 119.806 381.738 117.426H380.45Z" fill="white"/>
<path d="M421.256 120.674V112.148L418.666 113.548L418.022 112.652L421.242 110.874H422.502V120.674H421.256ZM427.476 120.674V112.148L424.886 113.548L424.242 112.652L427.462 110.874H428.722V120.674H427.476ZM438.108 120.954C436.596 120.954 435.63 120.282 434.958 119.288L435.966 118.518C436.526 119.372 437.198 119.806 438.108 119.806C439.9 119.806 440.796 118.322 440.852 115.886C440.152 116.6 439.228 116.992 438.136 116.992C436.302 116.992 435.042 115.606 435.042 113.884C435.042 112.106 436.288 110.594 438.416 110.594C440.712 110.594 442.154 112.218 442.154 115.62C442.154 118.798 440.894 120.954 438.108 120.954ZM436.344 113.842C436.344 114.976 437.184 115.858 438.332 115.858C439.326 115.858 440.222 115.438 440.796 114.584C440.586 112.526 439.662 111.742 438.43 111.742C437.128 111.742 436.344 112.666 436.344 113.842ZM447.075 110.594C449.539 110.594 450.743 112.862 450.743 115.774C450.743 118.686 449.539 120.954 447.075 120.954C444.639 120.954 443.421 118.686 443.421 115.774C443.421 112.862 444.639 110.594 447.075 110.594ZM447.089 111.77C445.521 111.77 444.709 113.478 444.709 115.774C444.709 118.07 445.521 119.778 447.089 119.778C448.643 119.778 449.441 118.07 449.441 115.774C449.441 113.478 448.643 111.77 447.089 111.77ZM455.565 110.594C458.029 110.594 459.233 112.862 459.233 115.774C459.233 118.686 458.029 120.954 455.565 120.954C453.129 120.954 451.911 118.686 451.911 115.774C451.911 112.862 453.129 110.594 455.565 110.594ZM455.579 111.77C454.011 111.77 453.199 113.478 453.199 115.774C453.199 118.07 454.011 119.778 455.579 119.778C457.133 119.778 457.931 118.07 457.931 115.774C457.931 113.478 457.133 111.77 455.579 111.77ZM460.067 117.426V116.39H461.243C461.229 116.194 461.229 115.984 461.229 115.76C461.229 115.578 461.229 115.396 461.243 115.228H460.067V114.192H461.341C461.705 111.77 462.965 110.594 464.855 110.594C466.185 110.594 467.095 111.154 467.739 112.022L466.787 112.764C466.353 112.148 465.793 111.714 464.883 111.714C463.735 111.714 462.909 112.386 462.629 114.192H466.563V115.228H462.531C462.517 115.396 462.517 115.578 462.517 115.76C462.517 115.984 462.517 116.194 462.531 116.39H466.563V117.426H462.643C462.937 119.176 463.749 119.834 464.883 119.834C465.779 119.834 466.353 119.4 466.787 118.784L467.739 119.512C467.109 120.38 466.185 120.954 464.855 120.954C462.979 120.954 461.733 119.806 461.355 117.426H460.067Z" fill="white"/>
<path d="M3.4238 182.689V174.289H5.6558C7.3478 174.289 8.3918 175.213 8.3918 176.653C8.3918 177.661 7.8758 178.417 6.9758 178.777L9.6878 182.689H8.3558L5.9198 178.993C5.8358 179.005 5.7398 179.005 5.6558 179.005H4.5518V182.689H3.4238ZM5.7038 175.249H4.5518V178.045H5.7038C6.6638 178.045 7.2278 177.529 7.2278 176.629C7.2278 175.777 6.6638 175.249 5.7038 175.249ZM13.861 175.681H12.865L14.113 173.689H15.265L13.861 175.681ZM16.165 181.693C15.601 182.449 14.701 182.929 13.573 182.929C11.533 182.929 10.273 181.429 10.273 179.665C10.273 177.829 11.449 176.401 13.321 176.401C14.965 176.401 16.033 177.553 16.033 179.041C16.033 179.281 15.997 179.509 15.961 179.677H11.317C11.353 181.129 12.277 182.005 13.573 182.005C14.353 182.005 15.013 181.645 15.409 181.105L16.165 181.693ZM13.297 177.265C12.301 177.265 11.605 177.853 11.389 178.897H15.013C14.977 178.009 14.365 177.265 13.297 177.265ZM17.0668 181.861L17.7868 181.249C18.2068 181.777 18.7108 182.077 19.3228 182.077C19.9948 182.077 20.3788 181.669 20.3788 181.141C20.3788 179.785 17.3548 180.265 17.3548 178.129C17.3548 177.181 18.1588 176.401 19.3228 176.401C20.1868 176.401 20.9308 176.809 21.3508 177.397L20.6428 177.997C20.3188 177.541 19.8628 177.253 19.3348 177.253C18.6868 177.253 18.3388 177.637 18.3388 178.105C18.3388 179.461 21.3748 179.029 21.3748 181.093C21.3628 182.221 20.4628 182.929 19.3348 182.929C18.3748 182.929 17.6188 182.545 17.0668 181.861ZM28.3408 181.693C27.7768 182.449 26.8768 182.929 25.7488 182.929C23.7088 182.929 22.4488 181.429 22.4488 179.665C22.4488 177.829 23.6248 176.401 25.4968 176.401C27.1408 176.401 28.2088 177.553 28.2088 179.041C28.2088 179.281 28.1728 179.509 28.1368 179.677H23.4928C23.5288 181.129 24.4528 182.005 25.7488 182.005C26.5288 182.005 27.1888 181.645 27.5848 181.105L28.3408 181.693ZM25.4728 177.265C24.4768 177.265 23.7808 177.853 23.5648 178.897H27.1888C27.1528 178.009 26.5408 177.265 25.4728 177.265ZM31.5345 182.857C30.3465 182.857 29.5425 182.197 29.5425 181.165C29.5425 180.253 30.2385 179.605 31.5225 179.389L33.5625 179.053V178.633C33.5625 177.793 32.9625 177.313 32.0985 177.313C31.4025 177.313 30.8385 177.637 30.4665 178.153L29.6985 177.565C30.2265 176.845 31.0785 176.401 32.1345 176.401C33.6705 176.401 34.5825 177.301 34.5825 178.633V182.689H33.5625V181.921C33.1065 182.509 32.3145 182.857 31.5345 182.857ZM30.5745 181.129C30.5745 181.645 30.9945 182.017 31.7025 182.017C32.5065 182.017 33.1665 181.633 33.5625 180.985V179.797L31.7745 180.097C30.9465 180.241 30.5745 180.613 30.5745 181.129ZM40.8408 180.097V176.641H41.8608V180.061C41.8608 181.873 40.8168 182.929 39.1728 182.929C37.5408 182.929 36.4968 181.873 36.4968 180.061V176.641H37.5168V180.097C37.5168 181.285 38.1528 181.969 39.1848 181.969C40.1928 181.969 40.8408 181.285 40.8408 180.097ZM46.5894 179.665C46.5894 177.901 47.8014 176.401 49.6974 176.401C50.5974 176.401 51.3054 176.749 51.8454 177.361V173.689H52.8654V182.689H51.8454V181.969C51.3054 182.581 50.5974 182.929 49.6974 182.929C47.8014 182.929 46.5894 181.429 46.5894 179.665ZM47.6694 179.665C47.6694 180.949 48.5334 181.969 49.8174 181.969C50.6574 181.969 51.4014 181.561 51.8454 180.853V178.477C51.3774 177.757 50.6454 177.361 49.8174 177.361C48.5334 177.361 47.6694 178.381 47.6694 179.665ZM60.3915 181.693C59.8275 182.449 58.9275 182.929 57.7995 182.929C55.7595 182.929 54.4995 181.429 54.4995 179.665C54.4995 177.829 55.6755 176.401 57.5475 176.401C59.1915 176.401 60.2595 177.553 60.2595 179.041C60.2595 179.281 60.2235 179.509 60.1875 179.677H55.5435C55.5795 181.129 56.5035 182.005 57.7995 182.005C58.5795 182.005 59.2395 181.645 59.6355 181.105L60.3915 181.693ZM57.5235 177.265C56.5275 177.265 55.8315 177.853 55.6155 178.897H59.2395C59.2035 178.009 58.5915 177.265 57.5235 177.265ZM13.8777 201.969C14.6217 201.969 15.2337 201.609 15.6057 201.081L16.4097 201.693C15.8457 202.449 14.9697 202.929 13.8657 202.929C11.8617 202.929 10.5777 201.429 10.5777 199.665C10.5777 197.901 11.8617 196.401 13.8657 196.401C14.9577 196.401 15.8457 196.893 16.4097 197.637L15.6057 198.249C15.2337 197.721 14.6217 197.361 13.8657 197.361C12.5697 197.361 11.6457 198.381 11.6457 199.665C11.6457 200.961 12.5697 201.969 13.8777 201.969ZM17.8085 202.689V193.689H18.8285V197.325C19.3205 196.785 19.9445 196.401 20.8445 196.401C22.2005 196.401 23.2085 197.313 23.2085 199.029V202.689H22.1885V199.065C22.1885 197.985 21.5885 197.361 20.6405 197.361C19.7525 197.361 19.2125 197.877 18.8285 198.501V202.689H17.8085ZM26.9056 202.857C25.7176 202.857 24.9136 202.197 24.9136 201.165C24.9136 200.253 25.6096 199.605 26.8936 199.389L28.9336 199.053V198.633C28.9336 197.793 28.3336 197.313 27.4696 197.313C26.7736 197.313 26.2096 197.637 25.8376 198.153L25.0696 197.565C25.5976 196.845 26.4496 196.401 27.5056 196.401C29.0416 196.401 29.9536 197.301 29.9536 198.633V202.689H28.9336V201.921C28.4776 202.509 27.6856 202.857 26.9056 202.857ZM25.9456 201.129C25.9456 201.645 26.3656 202.017 27.0736 202.017C27.8776 202.017 28.5376 201.633 28.9336 200.985V199.797L27.1456 200.097C26.3176 200.241 25.9456 200.613 25.9456 201.129ZM31.9999 202.689V193.689H33.0199V202.689H31.9999ZM40.5517 201.693C39.9877 202.449 39.0877 202.929 37.9597 202.929C35.9197 202.929 34.6597 201.429 34.6597 199.665C34.6597 197.829 35.8357 196.401 37.7077 196.401C39.3517 196.401 40.4197 197.553 40.4197 199.041C40.4197 199.281 40.3837 199.509 40.3477 199.677H35.7037C35.7397 201.129 36.6637 202.005 37.9597 202.005C38.7397 202.005 39.3997 201.645 39.7957 201.105L40.5517 201.693ZM37.6837 197.265C36.6877 197.265 35.9917 197.853 35.7757 198.897H39.3997C39.3637 198.009 38.7517 197.265 37.6837 197.265ZM46.2666 200.097V196.641H47.2866V200.061C47.2866 201.873 46.2426 202.929 44.5986 202.929C42.9666 202.929 41.9226 201.873 41.9226 200.061V196.641H42.9426V200.097C42.9426 201.285 43.5786 201.969 44.6106 201.969C45.6186 201.969 46.2666 201.285 46.2666 200.097ZM49.2968 202.689V196.641H50.3168V197.397C50.7608 196.869 51.3128 196.521 52.0808 196.521C52.2728 196.521 52.4528 196.545 52.5968 196.593V197.589C52.4168 197.541 52.2368 197.517 51.9968 197.517C51.2048 197.517 50.6888 197.925 50.3168 198.537V202.689H49.2968Z" fill="#444444"/>
<path d="M172.051 182.866C173.179 182.866 174.103 182.314 174.667 181.498L175.567 182.194C174.799 183.238 173.563 183.922 172.051 183.922C169.423 183.922 167.635 181.882 167.635 179.482C167.635 177.082 169.423 175.042 172.051 175.042C173.563 175.042 174.799 175.738 175.567 176.77L174.667 177.466C174.103 176.65 173.179 176.098 172.051 176.098C170.155 176.098 168.799 177.61 168.799 179.482C168.799 181.354 170.155 182.866 172.051 182.866ZM177.185 183.682V174.682H178.205V178.318C178.697 177.778 179.321 177.394 180.221 177.394C181.577 177.394 182.585 178.306 182.585 180.022V183.682H181.565V180.058C181.565 178.978 180.965 178.354 180.017 178.354C179.129 178.354 178.589 178.87 178.205 179.494V183.682H177.185ZM186.283 183.85C185.095 183.85 184.291 183.19 184.291 182.158C184.291 181.246 184.987 180.598 186.271 180.382L188.311 180.046V179.626C188.311 178.786 187.711 178.306 186.847 178.306C186.151 178.306 185.587 178.63 185.215 179.146L184.447 178.558C184.975 177.838 185.827 177.394 186.883 177.394C188.419 177.394 189.331 178.294 189.331 179.626V183.682H188.311V182.914C187.855 183.502 187.063 183.85 186.283 183.85ZM185.323 182.122C185.323 182.638 185.743 183.01 186.451 183.01C187.255 183.01 187.915 182.626 188.311 181.978V180.79L186.523 181.09C185.695 181.234 185.323 181.606 185.323 182.122ZM195.589 181.09V177.634H196.609V181.054C196.609 182.866 195.565 183.922 193.921 183.922C192.289 183.922 191.245 182.866 191.245 181.054V177.634H192.265V181.09C192.265 182.278 192.901 182.962 193.933 182.962C194.941 182.962 195.589 182.278 195.589 181.09ZM198.103 180.658C198.103 178.894 199.315 177.394 201.211 177.394C202.111 177.394 202.819 177.742 203.359 178.354V174.682H204.379V183.682H203.359V182.962C202.819 183.574 202.111 183.922 201.211 183.922C199.315 183.922 198.103 182.422 198.103 180.658ZM199.183 180.658C199.183 181.942 200.047 182.962 201.331 182.962C202.171 182.962 202.915 182.554 203.359 181.846V179.47C202.891 178.75 202.159 178.354 201.331 178.354C200.047 178.354 199.183 179.374 199.183 180.658ZM207.045 176.062C206.649 176.062 206.325 175.738 206.325 175.342C206.325 174.958 206.649 174.634 207.045 174.634C207.441 174.634 207.753 174.958 207.753 175.342C207.753 175.738 207.441 176.062 207.045 176.062ZM206.529 183.682V177.634H207.549V183.682H206.529ZM211.733 176.674L210.329 174.682H211.469L212.717 176.674H211.733ZM215.081 182.686C214.517 183.442 213.617 183.922 212.489 183.922C210.449 183.922 209.189 182.422 209.189 180.658C209.189 178.822 210.365 177.394 212.237 177.394C213.881 177.394 214.949 178.546 214.949 180.034C214.949 180.274 214.913 180.502 214.877 180.67H210.233C210.269 182.122 211.193 182.998 212.489 182.998C213.269 182.998 213.929 182.638 214.325 182.098L215.081 182.686ZM212.213 178.258C211.217 178.258 210.521 178.846 210.305 179.89H213.929C213.893 179.002 213.281 178.258 212.213 178.258ZM216.678 183.682V177.634H217.698V178.39C218.142 177.862 218.694 177.514 219.462 177.514C219.654 177.514 219.834 177.538 219.978 177.586V178.582C219.798 178.534 219.618 178.51 219.378 178.51C218.586 178.51 218.07 178.918 217.698 179.53V183.682H216.678ZM226.46 182.686C225.896 183.442 224.996 183.922 223.868 183.922C221.828 183.922 220.568 182.422 220.568 180.658C220.568 178.822 221.744 177.394 223.616 177.394C225.26 177.394 226.328 178.546 226.328 180.034C226.328 180.274 226.292 180.502 226.256 180.67H221.612C221.648 182.122 222.572 182.998 223.868 182.998C224.648 182.998 225.308 182.638 225.704 182.098L226.46 182.686ZM223.592 178.258C222.596 178.258 221.9 178.846 221.684 179.89H225.308C225.272 179.002 224.66 178.258 223.592 178.258ZM186.66 203.682V195.282H188.736C190.344 195.282 191.316 196.134 191.316 197.466C191.316 198.222 190.968 198.834 190.308 199.194C191.292 199.542 191.82 200.31 191.82 201.27C191.82 202.746 190.728 203.682 188.94 203.682H186.66ZM188.748 196.242H187.788V198.774H188.748C189.636 198.774 190.152 198.318 190.152 197.49C190.152 196.698 189.636 196.242 188.748 196.242ZM188.988 199.734H187.788V202.722H188.988C190.032 202.722 190.656 202.17 190.656 201.222C190.656 200.274 190.032 199.734 188.988 199.734ZM196.387 197.394C198.331 197.394 199.663 198.894 199.663 200.658C199.663 202.422 198.331 203.922 196.387 203.922C194.431 203.922 193.111 202.422 193.111 200.658C193.111 198.894 194.431 197.394 196.387 197.394ZM196.399 202.962C197.659 202.962 198.583 201.906 198.583 200.658C198.583 199.398 197.659 198.354 196.399 198.354C195.103 198.354 194.179 199.398 194.179 200.658C194.179 201.918 195.103 202.962 196.399 202.962ZM201.819 196.062C201.423 196.062 201.099 195.738 201.099 195.342C201.099 194.958 201.423 194.634 201.819 194.634C202.215 194.634 202.527 194.958 202.527 195.342C202.527 195.738 202.215 196.062 201.819 196.062ZM201.303 203.682V197.634H202.323V203.682H201.303ZM203.784 202.854L204.504 202.242C204.924 202.77 205.428 203.07 206.04 203.07C206.712 203.07 207.096 202.662 207.096 202.134C207.096 200.778 204.072 201.258 204.072 199.122C204.072 198.174 204.876 197.394 206.04 197.394C206.904 197.394 207.648 197.802 208.068 198.39L207.36 198.99C207.036 198.534 206.58 198.246 206.052 198.246C205.404 198.246 205.056 198.63 205.056 199.098C205.056 200.454 208.092 200.022 208.092 202.086C208.08 203.214 207.18 203.922 206.052 203.922C205.092 203.922 204.336 203.538 203.784 202.854Z" fill="#444444"/>
<path d="M418.051 181.866C419.179 181.866 420.103 181.314 420.667 180.498L421.567 181.194C420.799 182.238 419.563 182.922 418.051 182.922C415.423 182.922 413.635 180.882 413.635 178.482C413.635 176.082 415.423 174.042 418.051 174.042C419.563 174.042 420.799 174.738 421.567 175.77L420.667 176.466C420.103 175.65 419.179 175.098 418.051 175.098C416.155 175.098 414.799 176.61 414.799 178.482C414.799 180.354 416.155 181.866 418.051 181.866ZM423.185 182.682V173.682H424.205V177.318C424.697 176.778 425.321 176.394 426.221 176.394C427.577 176.394 428.585 177.306 428.585 179.022V182.682H427.565V179.058C427.565 177.978 426.965 177.354 426.017 177.354C425.129 177.354 424.589 177.87 424.205 178.494V182.682H423.185ZM432.283 182.85C431.095 182.85 430.291 182.19 430.291 181.158C430.291 180.246 430.987 179.598 432.271 179.382L434.311 179.046V178.626C434.311 177.786 433.711 177.306 432.847 177.306C432.151 177.306 431.587 177.63 431.215 178.146L430.447 177.558C430.975 176.838 431.827 176.394 432.883 176.394C434.419 176.394 435.331 177.294 435.331 178.626V182.682H434.311V181.914C433.855 182.502 433.063 182.85 432.283 182.85ZM431.323 181.122C431.323 181.638 431.743 182.01 432.451 182.01C433.255 182.01 433.915 181.626 434.311 180.978V179.79L432.523 180.09C431.695 180.234 431.323 180.606 431.323 181.122ZM441.589 180.09V176.634H442.609V180.054C442.609 181.866 441.565 182.922 439.921 182.922C438.289 182.922 437.245 181.866 437.245 180.054V176.634H438.265V180.09C438.265 181.278 438.901 181.962 439.933 181.962C440.941 181.962 441.589 181.278 441.589 180.09ZM444.103 179.658C444.103 177.894 445.315 176.394 447.211 176.394C448.111 176.394 448.819 176.742 449.359 177.354V173.682H450.379V182.682H449.359V181.962C448.819 182.574 448.111 182.922 447.211 182.922C445.315 182.922 444.103 181.422 444.103 179.658ZM445.183 179.658C445.183 180.942 446.047 181.962 447.331 181.962C448.171 181.962 448.915 181.554 449.359 180.846V178.47C448.891 177.75 448.159 177.354 447.331 177.354C446.047 177.354 445.183 178.374 445.183 179.658ZM453.045 175.062C452.649 175.062 452.325 174.738 452.325 174.342C452.325 173.958 452.649 173.634 453.045 173.634C453.441 173.634 453.753 173.958 453.753 174.342C453.753 174.738 453.441 175.062 453.045 175.062ZM452.529 182.682V176.634H453.549V182.682H452.529ZM457.733 175.674L456.329 173.682H457.469L458.717 175.674H457.733ZM461.081 181.686C460.517 182.442 459.617 182.922 458.489 182.922C456.449 182.922 455.189 181.422 455.189 179.658C455.189 177.822 456.365 176.394 458.237 176.394C459.881 176.394 460.949 177.546 460.949 179.034C460.949 179.274 460.913 179.502 460.877 179.67H456.233C456.269 181.122 457.193 181.998 458.489 181.998C459.269 181.998 459.929 181.638 460.325 181.098L461.081 181.686ZM458.213 177.258C457.217 177.258 456.521 177.846 456.305 178.89H459.929C459.893 178.002 459.281 177.258 458.213 177.258ZM462.678 182.682V176.634H463.698V177.39C464.142 176.862 464.694 176.514 465.462 176.514C465.654 176.514 465.834 176.538 465.978 176.586V177.582C465.798 177.534 465.618 177.51 465.378 177.51C464.586 177.51 464.07 177.918 463.698 178.53V182.682H462.678ZM472.46 181.686C471.896 182.442 470.996 182.922 469.868 182.922C467.828 182.922 466.568 181.422 466.568 179.658C466.568 177.822 467.744 176.394 469.616 176.394C471.26 176.394 472.328 177.546 472.328 179.034C472.328 179.274 472.292 179.502 472.256 179.67H467.612C467.648 181.122 468.572 181.998 469.868 181.998C470.648 181.998 471.308 181.638 471.704 181.098L472.46 181.686ZM469.592 177.258C468.596 177.258 467.9 177.846 467.684 178.89H471.308C471.272 178.002 470.66 177.258 469.592 177.258ZM415.804 203.774C415.804 203.162 416.104 202.67 416.704 202.25C416.428 202.034 416.284 201.71 416.284 201.386C416.284 200.906 416.536 200.51 417.004 200.21C416.476 199.814 416.164 199.202 416.164 198.53C416.164 197.366 417.076 196.382 418.516 196.382C418.96 196.382 419.356 196.478 419.68 196.634H421.924V197.522H420.616C420.784 197.822 420.868 198.17 420.868 198.53C420.868 199.682 419.968 200.666 418.516 200.666C418.216 200.666 417.928 200.618 417.676 200.546C417.424 200.726 417.28 200.942 417.28 201.17C417.28 201.422 417.412 201.602 417.784 201.602H419.512C421.108 201.602 421.852 202.382 421.852 203.462C421.852 204.734 420.58 205.682 418.768 205.682C416.98 205.682 415.804 204.986 415.804 203.774ZM418.528 199.862C419.404 199.862 419.908 199.262 419.908 198.53C419.908 197.786 419.404 197.186 418.528 197.186C417.628 197.186 417.136 197.786 417.136 198.53C417.136 199.274 417.628 199.862 418.528 199.862ZM416.8 203.654C416.8 204.386 417.556 204.83 418.756 204.83C420.028 204.83 420.832 204.326 420.832 203.534C420.832 202.958 420.508 202.502 419.428 202.502H417.472C417.052 202.814 416.8 203.174 416.8 203.654ZM424.519 202.85C423.331 202.85 422.527 202.19 422.527 201.158C422.527 200.246 423.223 199.598 424.507 199.382L426.547 199.046V198.626C426.547 197.786 425.947 197.306 425.083 197.306C424.387 197.306 423.823 197.63 423.451 198.146L422.683 197.558C423.211 196.838 424.063 196.394 425.119 196.394C426.655 196.394 427.567 197.294 427.567 198.626V202.682H426.547V201.914C426.091 202.502 425.299 202.85 424.519 202.85ZM423.559 201.122C423.559 201.638 423.979 202.01 424.687 202.01C425.491 202.01 426.151 201.626 426.547 200.978V199.79L424.759 200.09C423.931 200.234 423.559 200.606 423.559 201.122ZM429.121 202.682V201.758L432.685 197.558H429.205V196.634H433.933V197.558L430.357 201.758H434.017V202.682H429.121ZM441.69 201.962C442.434 201.962 443.046 201.602 443.418 201.074L444.222 201.686C443.658 202.442 442.782 202.922 441.678 202.922C439.674 202.922 438.39 201.422 438.39 199.658C438.39 197.894 439.674 196.394 441.678 196.394C442.77 196.394 443.658 196.886 444.222 197.63L443.418 198.242C443.046 197.714 442.434 197.354 441.678 197.354C440.382 197.354 439.458 198.374 439.458 199.658C439.458 200.954 440.382 201.962 441.69 201.962ZM448.147 196.394C450.091 196.394 451.423 197.894 451.423 199.658C451.423 201.422 450.091 202.922 448.147 202.922C446.191 202.922 444.871 201.422 444.871 199.658C444.871 197.894 446.191 196.394 448.147 196.394ZM448.159 201.962C449.419 201.962 450.343 200.906 450.343 199.658C450.343 198.398 449.419 197.354 448.159 197.354C446.863 197.354 445.939 198.398 445.939 199.658C445.939 200.918 446.863 201.962 448.159 201.962ZM453.062 202.682V196.634H454.082V197.318C454.574 196.778 455.198 196.394 456.098 196.394C457.454 196.394 458.462 197.306 458.462 199.022V202.682H457.442V199.058C457.442 197.978 456.83 197.354 455.894 197.354C455.018 197.354 454.466 197.858 454.082 198.494V202.682H453.062ZM460 199.658C460 197.894 461.212 196.394 463.108 196.394C464.008 196.394 464.716 196.742 465.256 197.354V193.682H466.276V202.682H465.256V201.962C464.716 202.574 464.008 202.922 463.108 202.922C461.212 202.922 460 201.422 460 199.658ZM461.08 199.658C461.08 200.942 461.944 201.962 463.228 201.962C464.068 201.962 464.812 201.554 465.256 200.846V198.47C464.788 197.75 464.056 197.354 463.228 197.354C461.944 197.354 461.08 198.374 461.08 199.658ZM468.978 202.814C468.546 202.814 468.198 202.478 468.198 202.058C468.198 201.638 468.546 201.29 468.978 201.29C469.41 201.29 469.746 201.638 469.746 202.058C469.746 202.478 469.41 202.814 468.978 202.814Z" fill="#444444"/>
<path d="M336.551 181.858C337.679 181.858 338.603 181.306 339.167 180.49L340.067 181.186C339.299 182.23 338.063 182.914 336.551 182.914C333.923 182.914 332.135 180.874 332.135 178.474C332.135 176.074 333.923 174.034 336.551 174.034C338.063 174.034 339.299 174.73 340.067 175.762L339.167 176.458C338.603 175.642 337.679 175.09 336.551 175.09C334.655 175.09 333.299 176.602 333.299 178.474C333.299 180.346 334.655 181.858 336.551 181.858ZM341.685 182.674V173.674H342.705V177.31C343.197 176.77 343.821 176.386 344.721 176.386C346.077 176.386 347.085 177.298 347.085 179.014V182.674H346.065V179.05C346.065 177.97 345.465 177.346 344.517 177.346C343.629 177.346 343.089 177.862 342.705 178.486V182.674H341.685ZM350.783 182.842C349.595 182.842 348.791 182.182 348.791 181.15C348.791 180.238 349.487 179.59 350.771 179.374L352.811 179.038V178.618C352.811 177.778 352.211 177.298 351.347 177.298C350.651 177.298 350.087 177.622 349.715 178.138L348.947 177.55C349.475 176.83 350.327 176.386 351.383 176.386C352.919 176.386 353.831 177.286 353.831 178.618V182.674H352.811V181.906C352.355 182.494 351.563 182.842 350.783 182.842ZM349.823 181.114C349.823 181.63 350.243 182.002 350.951 182.002C351.755 182.002 352.415 181.618 352.811 180.97V179.782L351.023 180.082C350.195 180.226 349.823 180.598 349.823 181.114ZM360.089 180.082V176.626H361.109V180.046C361.109 181.858 360.065 182.914 358.421 182.914C356.789 182.914 355.745 181.858 355.745 180.046V176.626H356.765V180.082C356.765 181.27 357.401 181.954 358.433 181.954C359.441 181.954 360.089 181.27 360.089 180.082ZM362.603 179.65C362.603 177.886 363.815 176.386 365.711 176.386C366.611 176.386 367.319 176.734 367.859 177.346V173.674H368.879V182.674H367.859V181.954C367.319 182.566 366.611 182.914 365.711 182.914C363.815 182.914 362.603 181.414 362.603 179.65ZM363.683 179.65C363.683 180.934 364.547 181.954 365.831 181.954C366.671 181.954 367.415 181.546 367.859 180.838V178.462C367.391 177.742 366.659 177.346 365.831 177.346C364.547 177.346 363.683 178.366 363.683 179.65ZM371.545 175.054C371.149 175.054 370.825 174.73 370.825 174.334C370.825 173.95 371.149 173.626 371.545 173.626C371.941 173.626 372.253 173.95 372.253 174.334C372.253 174.73 371.941 175.054 371.545 175.054ZM371.029 182.674V176.626H372.049V182.674H371.029ZM376.233 175.666L374.829 173.674H375.969L377.217 175.666H376.233ZM379.581 181.678C379.017 182.434 378.117 182.914 376.989 182.914C374.949 182.914 373.689 181.414 373.689 179.65C373.689 177.814 374.865 176.386 376.737 176.386C378.381 176.386 379.449 177.538 379.449 179.026C379.449 179.266 379.413 179.494 379.377 179.662H374.733C374.769 181.114 375.693 181.99 376.989 181.99C377.769 181.99 378.429 181.63 378.825 181.09L379.581 181.678ZM376.713 177.25C375.717 177.25 375.021 177.838 374.805 178.882H378.429C378.393 177.994 377.781 177.25 376.713 177.25ZM381.178 182.674V176.626H382.198V177.382C382.642 176.854 383.194 176.506 383.962 176.506C384.154 176.506 384.334 176.53 384.478 176.578V177.574C384.298 177.526 384.118 177.502 383.878 177.502C383.086 177.502 382.57 177.91 382.198 178.522V182.674H381.178ZM390.96 181.678C390.396 182.434 389.496 182.914 388.368 182.914C386.328 182.914 385.068 181.414 385.068 179.65C385.068 177.814 386.244 176.386 388.116 176.386C389.76 176.386 390.828 177.538 390.828 179.026C390.828 179.266 390.792 179.494 390.756 179.662H386.112C386.148 181.114 387.072 181.99 388.368 181.99C389.148 181.99 389.808 181.63 390.204 181.09L390.96 181.678ZM388.092 177.25C387.096 177.25 386.4 177.838 386.184 178.882H389.808C389.772 177.994 389.16 177.25 388.092 177.25ZM349.057 202.674V194.274H353.569V195.234H350.185V197.922H353.089V198.87H350.185V202.674H349.057ZM355.602 195.054C355.206 195.054 354.882 194.73 354.882 194.334C354.882 193.95 355.206 193.626 355.602 193.626C355.998 193.626 356.31 193.95 356.31 194.334C356.31 194.73 355.998 195.054 355.602 195.054ZM355.086 202.674V196.626H356.106V202.674H355.086ZM361.022 196.386C362.966 196.386 364.298 197.886 364.298 199.65C364.298 201.414 362.966 202.914 361.022 202.914C359.066 202.914 357.746 201.414 357.746 199.65C357.746 197.886 359.066 196.386 361.022 196.386ZM361.034 201.954C362.294 201.954 363.218 200.898 363.218 199.65C363.218 198.39 362.294 197.346 361.034 197.346C359.738 197.346 358.814 198.39 358.814 199.65C358.814 200.91 359.738 201.954 361.034 201.954ZM370.149 200.082V196.626H371.169V200.046C371.169 201.858 370.125 202.914 368.481 202.914C366.849 202.914 365.805 201.858 365.805 200.046V196.626H366.825V200.082C366.825 201.27 367.461 201.954 368.493 201.954C369.501 201.954 370.149 201.27 370.149 200.082ZM373.18 202.674V193.674H374.2V202.674H373.18Z" fill="#444444"/>
<path d="M88.0957 182.682V174.282H90.5557C92.2357 174.282 93.2797 175.206 93.2797 176.646C93.2797 178.086 92.2357 178.998 90.5557 178.998H89.2237V182.682H88.0957ZM90.5797 175.242H89.2237V178.038H90.5797C91.5397 178.038 92.1157 177.522 92.1157 176.622C92.1157 175.77 91.5397 175.242 90.5797 175.242ZM97.131 176.394C99.075 176.394 100.407 177.894 100.407 179.658C100.407 181.422 99.075 182.922 97.131 182.922C95.175 182.922 93.855 181.422 93.855 179.658C93.855 177.894 95.175 176.394 97.131 176.394ZM97.143 181.962C98.403 181.962 99.327 180.906 99.327 179.658C99.327 178.398 98.403 177.354 97.143 177.354C95.847 177.354 94.923 178.398 94.923 179.658C94.923 180.918 95.847 181.962 97.143 181.962ZM102.047 182.682V176.634H103.067V177.294C103.523 176.766 104.123 176.394 104.963 176.394C105.839 176.394 106.559 176.79 106.931 177.558C107.411 176.898 108.047 176.394 109.091 176.394C110.387 176.394 111.335 177.258 111.335 178.902V182.682H110.315V178.938C110.315 177.93 109.751 177.354 108.887 177.354C108.119 177.354 107.579 177.786 107.183 178.494C107.195 178.626 107.207 178.758 107.207 178.902V182.682H106.187V178.938C106.187 177.93 105.635 177.354 104.759 177.354C103.931 177.354 103.415 177.87 103.067 178.494V182.682H102.047ZM113.391 185.634V176.634H114.411V177.354C114.951 176.742 115.659 176.394 116.559 176.394C118.455 176.394 119.667 177.894 119.667 179.658C119.667 181.422 118.455 182.922 116.559 182.922C115.659 182.922 114.951 182.574 114.411 181.962V185.634H113.391ZM116.439 177.354C115.599 177.354 114.867 177.762 114.411 178.482V180.834C114.879 181.566 115.611 181.962 116.439 181.962C117.723 181.962 118.599 180.942 118.599 179.658C118.599 178.374 117.723 177.354 116.439 177.354ZM126.747 181.686C126.183 182.442 125.283 182.922 124.155 182.922C122.115 182.922 120.855 181.422 120.855 179.658C120.855 177.822 122.031 176.394 123.903 176.394C125.547 176.394 126.615 177.546 126.615 179.034C126.615 179.274 126.579 179.502 126.543 179.67H121.899C121.935 181.122 122.859 181.998 124.155 181.998C124.935 181.998 125.595 181.638 125.991 181.098L126.747 181.686ZM123.879 177.258C122.883 177.258 122.187 177.846 121.971 178.89H125.595C125.559 178.002 124.947 177.258 123.879 177.258ZM133.342 175.674L131.938 173.682H133.078L134.326 175.674H133.342ZM133.222 182.85C132.034 182.85 131.23 182.19 131.23 181.158C131.23 180.246 131.926 179.598 133.21 179.382L135.25 179.046V178.626C135.25 177.786 134.65 177.306 133.786 177.306C133.09 177.306 132.526 177.63 132.154 178.146L131.386 177.558C131.914 176.838 132.766 176.394 133.822 176.394C135.358 176.394 136.27 177.294 136.27 178.626V182.682H135.25V181.914C134.794 182.502 134.002 182.85 133.222 182.85ZM132.262 181.122C132.262 181.638 132.682 182.01 133.39 182.01C134.194 182.01 134.854 181.626 135.25 180.978V179.79L133.462 180.09C132.634 180.234 132.262 180.606 132.262 181.122ZM94.3777 201.962C95.1217 201.962 95.7337 201.602 96.1057 201.074L96.9097 201.686C96.3457 202.442 95.4697 202.922 94.3657 202.922C92.3617 202.922 91.0777 201.422 91.0777 199.658C91.0777 197.894 92.3617 196.394 94.3657 196.394C95.4577 196.394 96.3457 196.886 96.9097 197.63L96.1057 198.242C95.7337 197.714 95.1217 197.354 94.3657 197.354C93.0697 197.354 92.1457 198.374 92.1457 199.658C92.1457 200.954 93.0697 201.962 94.3777 201.962ZM98.3085 202.682V193.682H99.3285V197.318C99.8205 196.778 100.445 196.394 101.345 196.394C102.701 196.394 103.709 197.306 103.709 199.022V202.682H102.689V199.058C102.689 197.978 102.089 197.354 101.141 197.354C100.253 197.354 99.7125 197.87 99.3285 198.494V202.682H98.3085ZM107.406 202.85C106.218 202.85 105.414 202.19 105.414 201.158C105.414 200.246 106.11 199.598 107.394 199.382L109.434 199.046V198.626C109.434 197.786 108.834 197.306 107.97 197.306C107.274 197.306 106.71 197.63 106.338 198.146L105.57 197.558C106.098 196.838 106.95 196.394 108.006 196.394C109.542 196.394 110.454 197.294 110.454 198.626V202.682H109.434V201.914C108.978 202.502 108.186 202.85 107.406 202.85ZM106.446 201.122C106.446 201.638 106.866 202.01 107.574 202.01C108.378 202.01 109.038 201.626 109.434 200.978V199.79L107.646 200.09C106.818 200.234 106.446 200.606 106.446 201.122ZM112.5 202.682V193.682H113.52V202.682H112.5ZM121.052 201.686C120.488 202.442 119.588 202.922 118.46 202.922C116.42 202.922 115.16 201.422 115.16 199.658C115.16 197.822 116.336 196.394 118.208 196.394C119.852 196.394 120.92 197.546 120.92 199.034C120.92 199.274 120.884 199.502 120.848 199.67H116.204C116.24 201.122 117.164 201.998 118.46 201.998C119.24 201.998 119.9 201.638 120.296 201.098L121.052 201.686ZM118.184 197.258C117.188 197.258 116.492 197.846 116.276 198.89H119.9C119.864 198.002 119.252 197.258 118.184 197.258ZM126.767 200.09V196.634H127.787V200.054C127.787 201.866 126.743 202.922 125.099 202.922C123.467 202.922 122.423 201.866 122.423 200.054V196.634H123.443V200.09C123.443 201.278 124.079 201.962 125.111 201.962C126.119 201.962 126.767 201.278 126.767 200.09ZM129.797 202.682V196.634H130.817V197.39C131.261 196.862 131.813 196.514 132.581 196.514C132.773 196.514 132.953 196.538 133.097 196.586V197.582C132.917 197.534 132.737 197.51 132.497 197.51C131.705 197.51 131.189 197.918 130.817 198.53V202.682H129.797Z" fill="#444444"/>
<path d="M252.29 173.554H251.246L252.602 171.934H253.826L252.29 173.554ZM249.482 182.674V174.274H253.994V175.234H250.61V177.922H253.514V178.87H250.61V181.714H253.994V182.674H249.482ZM255.992 182.674V173.674H257.012V182.674H255.992ZM264.544 181.678C263.98 182.434 263.08 182.914 261.952 182.914C259.912 182.914 258.652 181.414 258.652 179.65C258.652 177.814 259.828 176.386 261.7 176.386C263.344 176.386 264.412 177.538 264.412 179.026C264.412 179.266 264.376 179.494 264.34 179.662H259.696C259.732 181.114 260.656 181.99 261.952 181.99C262.732 181.99 263.392 181.63 263.788 181.09L264.544 181.678ZM261.676 177.25C260.68 177.25 259.984 177.838 259.768 178.882H263.392C263.356 177.994 262.744 177.25 261.676 177.25ZM268.901 181.954C269.645 181.954 270.257 181.594 270.629 181.066L271.433 181.678C270.869 182.434 269.993 182.914 268.889 182.914C266.885 182.914 265.601 181.414 265.601 179.65C265.601 177.886 266.885 176.386 268.889 176.386C269.981 176.386 270.869 176.878 271.433 177.622L270.629 178.234C270.257 177.706 269.645 177.346 268.889 177.346C267.593 177.346 266.669 178.366 266.669 179.65C266.669 180.946 267.593 181.954 268.901 181.954ZM273.157 180.646V177.55H272.017V176.626H273.157V175.114H274.189V176.626H276.289V177.55H274.189V180.646C274.189 181.594 274.669 181.858 275.401 181.858C275.797 181.858 276.073 181.81 276.301 181.714V182.626C276.013 182.746 275.689 182.794 275.257 182.794C273.913 182.794 273.157 182.122 273.157 180.646ZM277.848 182.674V176.626H278.868V177.382C279.312 176.854 279.864 176.506 280.632 176.506C280.824 176.506 281.004 176.53 281.148 176.578V177.574C280.968 177.526 280.788 177.502 280.548 177.502C279.756 177.502 279.24 177.91 278.868 178.522V182.674H277.848ZM283.133 175.054C282.737 175.054 282.413 174.73 282.413 174.334C282.413 173.95 282.737 173.626 283.133 173.626C283.529 173.626 283.841 173.95 283.841 174.334C283.841 174.73 283.529 175.054 283.133 175.054ZM282.617 182.674V176.626H283.637V182.674H282.617ZM285.277 179.65C285.277 177.886 286.489 176.386 288.385 176.386C289.285 176.386 289.993 176.734 290.533 177.358V176.626H291.553V185.626H290.533V181.942C289.993 182.566 289.285 182.914 288.385 182.914C286.489 182.914 285.277 181.414 285.277 179.65ZM286.345 179.65C286.345 180.934 287.221 181.954 288.493 181.954C289.345 181.954 290.077 181.546 290.533 180.826V178.474C290.065 177.742 289.333 177.346 288.493 177.346C287.221 177.346 286.345 178.366 286.345 179.65ZM297.927 180.082V176.626H298.947V180.046C298.947 181.858 297.903 182.914 296.259 182.914C294.627 182.914 293.583 181.858 293.583 180.046V176.626H294.603V180.082C294.603 181.27 295.239 181.954 296.271 181.954C297.279 181.954 297.927 181.27 297.927 180.082ZM306.333 181.678C305.769 182.434 304.869 182.914 303.741 182.914C301.701 182.914 300.441 181.414 300.441 179.65C300.441 177.814 301.617 176.386 303.489 176.386C305.133 176.386 306.201 177.538 306.201 179.026C306.201 179.266 306.165 179.494 306.129 179.662H301.485C301.521 181.114 302.445 181.99 303.741 181.99C304.521 181.99 305.181 181.63 305.577 181.09L306.333 181.678ZM303.465 177.25C302.469 177.25 301.773 177.838 301.557 178.882H305.181C305.145 177.994 304.533 177.25 303.465 177.25Z" fill="#444444"/>
</svg>
