<svg width="161" height="125" viewBox="0 0 161 125" fill="none" xmlns="http://www.w3.org/2000/svg">
<path d="M36.7109 12.6062C-3.34455 36.5029 -12.3477 92.3853 20.7196 117.448C34.9531 128.243 54.9744 127.307 68.5005 115.652L69.0322 115.188C73.6963 111.202 79.1068 108.169 84.9538 106.261C90.8009 104.353 96.9696 103.608 103.107 104.07C129.863 106.002 156.564 101.989 160.191 76.5095C165.344 40.3155 105.242 -28.294 36.7109 12.6062Z" fill="#C3CDFF" fill-opacity="0.45"/>
<path d="M100.71 17.5861L98.4606 15.7487L101.466 14.6811C102.967 14.9704 107.653 15.8465 113.248 16.7397C116.938 17.3266 118.66 15.9656 119.464 14.5918C119.614 14.327 119.703 14.0323 119.726 13.7287C119.749 13.4252 119.705 13.1203 119.597 12.8359C119.488 12.5515 119.318 12.2945 119.099 12.0834C118.88 11.8723 118.617 11.7122 118.328 11.6146L102.597 6.13649C100.836 5.52019 98.9264 5.46816 97.1341 5.98763C87.4233 8.79899 55.4681 18.509 53.1849 25.2588C51.7351 29.5631 60.5998 32.8423 57.7682 40.6894L67.2068 42.7352C71.8363 43.74 76.6334 43.6819 81.2372 42.5651L86.8111 41.221C87.7762 40.9871 90.8416 38.9031 98.2267 44.3429C104.846 50.0124 109.647 46.0739 109.672 44.177C109.672 43.3817 108.214 43.2371 108.694 43.5688C112.597 46.2696 116.092 43.8453 115.072 42.1015C114.221 40.6937 112.41 38.5415 111.84 37.2613C112.423 38.3289 115.782 41.2678 119.493 38.0779C120.459 37.2273 111.284 26.0116 111.284 26.0116C111.224 24.6719 100.71 17.5861 100.71 17.5861ZM100.387 39.103C100.447 39.0941 100.509 39.0941 100.569 39.103H100.387Z" fill="#F9A17B"/>
<path d="M81.9922 24.8455L91.9197 23.9353C92.8603 23.7384 93.8351 23.7788 94.7562 24.0528C95.6773 24.3267 96.5158 24.8257 97.196 25.5047L109.802 36.1845" stroke="#D87B5D" stroke-width="2.06" stroke-linecap="round" stroke-linejoin="round"/>
<path d="M105.577 42.0446C103.936 40.5645 96.5254 35.7797 95.0543 34.6824C92.9285 33.0832 91.1598 32.5983 88.494 32.7599L82.7969 33.4659" stroke="#D87B5D" stroke-width="2.06" stroke-linecap="round" stroke-linejoin="round"/>
<path d="M85.5625 18.0368L96.6423 16.4121" stroke="#D87B5D" stroke-width="2.06" stroke-linecap="round" stroke-linejoin="round"/>
<path d="M54.7593 23.6211L30.8822 36.7549C24.3432 40.4807 21.8857 48.8085 25.5804 55.3669L25.7207 55.6093C26.7399 57.3468 28.1269 58.8399 29.7845 59.9838C31.4421 61.1277 33.33 61.8946 35.3155 62.2307C37.3011 62.5667 39.3361 62.4637 41.2776 61.929C43.2191 61.3942 45.02 60.4406 46.5537 59.1352L67.6036 41.2718L54.7593 23.6211Z" fill="#F9A17B"/>
<path d="M42.3812 12.273C42.382 12.6662 42.2662 13.0508 42.0483 13.3781C41.8305 13.7054 41.5205 13.9606 41.1575 14.1115C40.7945 14.2623 40.3949 14.302 40.0093 14.2255C39.6238 14.149 39.2696 13.9598 38.9917 13.6817C38.7138 13.4037 38.5246 13.0494 38.4481 12.6637C38.3716 12.278 38.4113 11.8783 38.5621 11.5152C38.7129 11.1521 38.968 10.8419 39.2952 10.624C39.6224 10.4061 40.0068 10.2902 40.3999 10.291C40.925 10.2921 41.4283 10.5013 41.7996 10.8728C42.1709 11.2442 42.38 11.7477 42.3812 12.273Z" stroke="#6287BD" stroke-width="1.93" stroke-linecap="round" stroke-linejoin="round"/>
<g clip-path="url(#clip0_8598_22318)">
<path d="M88.7935 78.252H57V107.221H88.7935V78.252Z" fill="#8585F6"/>
<path d="M72.8977 58.2207L57 78.252H88.7935L72.8977 58.2207Z" fill="#8585F6"/>
<path d="M72.8984 58.2207H102.723L117.886 78.252H88.7943L72.8984 58.2207Z" fill="#4550E5"/>
<path d="M117.999 78.252H88.793V107.221H117.999V78.252Z" fill="#7B7BF8"/>
<path d="M69.4093 79.002H66.4453V83.9609H69.4093V79.002Z" fill="white"/>
<path d="M76.4991 79.002H73.5352V83.9609H76.4991V79.002Z" fill="white"/>
<path d="M69.4098 87.1797H66.5039V92.1387H69.4098V87.1797Z" fill="#7C9C5B"/>
<path d="M76.4991 87.1797H73.5352V92.1387H76.4991V87.1797Z" fill="#7C9C5B"/>
<path d="M83.207 58.6133L98.1959 77.6781" stroke="white" stroke-width="2.47" stroke-linecap="round" stroke-linejoin="round"/>
<path d="M94.4961 58.6133L109.485 77.6781" stroke="white" stroke-width="2.47" stroke-linecap="round" stroke-linejoin="round"/>
<path d="M80.4688 67.7031H109.524" stroke="white" stroke-width="2.47" stroke-linecap="round" stroke-linejoin="round"/>
</g>
<path d="M30.1834 93.747C28.3935 91.6927 31.3314 88.2562 33.0278 89.4343C33.0278 89.4343 35.5788 83.2672 45.4808 91.6119C45.4808 91.6119 52.0666 95.5334 52.7681 96.3372C52.7681 96.3372 61.0078 98.8891 62.2662 100.165C62.2662 100.165 71.1947 99.9694 71.7729 99.7398C73.312 99.1188 74.3239 97.5707 74.9191 96.3585L85.8543 87.2737C90.2037 88.4305 99.9952 91.9054 103.826 97.4303L109.081 105.005L101.428 113.937C100.288 115.265 98.8754 116.333 97.2864 117.066C95.6974 117.8 93.9691 118.184 92.219 118.19L74.6427 118.258C69.9488 118.264 65.2909 117.439 60.8845 115.821C55.6592 113.911 49.0309 111.398 47.19 110.292C44.0012 108.369 31.9734 95.8098 30.1834 93.747Z" fill="#F9A17B"/>
<path d="M93.5391 93.8749L109.092 82.3913C110.575 81.3416 112.264 80.6192 114.048 80.2717C115.831 79.9243 117.668 79.9599 119.437 80.3761C121.205 80.7923 122.865 81.5796 124.307 82.6859C125.748 83.7922 126.939 85.1923 127.799 86.7934C127.85 86.8827 127.896 86.972 127.943 87.0613C128.772 88.6045 129.278 90.301 129.427 92.0466C129.577 93.7921 129.368 95.5499 128.814 97.2118C128.26 98.8737 127.371 100.405 126.204 101.711C125.036 103.017 123.614 104.07 122.025 104.806L98.3561 116.468C98.3561 116.468 97.1274 108.221 96.2303 108.366C89.0026 109.544 101.689 104.087 101.689 104.087L93.5391 93.8749Z" fill="#F9A17B"/>
<path d="M33.5391 90.127C33.5391 90.127 47.0295 102.325 47.3738 102.461C52.9156 105.585 58.8009 108.056 64.9118 109.823" stroke="#D87B5D" stroke-width="2.25" stroke-linecap="round" stroke-linejoin="round"/>
<path d="M76.2882 99.5066C76.1627 98.9414 75.9892 98.3879 75.7695 97.8521C75.7695 97.8521 74.6216 97.2992 70.5995 96.5762C67.5596 96.0318 63.6693 95.5639 62.0325 95.4534C54.7409 94.9557 53.2954 94.0285 52.917 91.8254C52.8031 91.3161 52.8481 90.7842 53.0457 90.3013C53.2434 89.8184 53.5842 89.4077 54.0224 89.1246C56.4161 87.7934 61.7391 88.4611 64.609 88.274C68.3632 88.0358 77.7082 86.9597 77.7082 86.9597C77.7082 86.9597 83.9624 86.5557 86.5346 87.3851L76.2882 99.5066Z" fill="#F9A17B"/>
<defs>
<clipPath id="clip0_8598_22318">
<rect width="61" height="49" fill="white" transform="translate(57 58.2207)"/>
</clipPath>
</defs>
</svg>
