<svg width="300" height="223" viewBox="0 0 300 223" fill="none" xmlns="http://www.w3.org/2000/svg">
<g opacity="0.46">
<path d="M237.99 36.6533C253.648 49.3756 308.944 107.725 268.742 158.938C224.99 214.657 141.692 155.424 122.264 177.301C122.264 177.301 82.8092 223.541 39.1663 177.265C-4.45835 130.971 16.4072 55.9529 97.9212 22.4173C136.32 6.63163 203.797 8.88416 237.99 36.6353" fill="#C3CDFF"/>
</g>
<g clip-path="url(#clip0_8746_23657)">
<path d="M146.418 211.395C195.966 211.395 236.132 209.052 236.132 206.162C236.132 203.272 195.966 200.93 146.418 200.93C96.8697 200.93 56.7031 203.272 56.7031 206.162C56.7031 209.052 96.8697 211.395 146.418 211.395Z" fill="#E3E7FA"/>
<path d="M162.741 151.215H134.391V202.304H162.741V151.215Z" fill="#364AAB"/>
<path d="M183.434 206.162H114.512C114.512 196.819 122.073 189.244 131.401 189.244H166.548C175.875 189.244 183.437 196.819 183.437 206.162H183.434Z" fill="#364AAB"/>
<path d="M134.391 176.057H162.741V186.325L134.391 176.057Z" fill="#172D59"/>
<path d="M134.961 189.244H160.795" stroke="#172D59" stroke-width="2.28" stroke-linecap="round" stroke-linejoin="round"/>
<path d="M234.364 176.057H52.688C48.4403 176.057 45 172.607 45 168.355V47.9123C45 43.6572 48.4438 40.2109 52.6915 40.2109H234.367C238.615 40.2109 242.055 43.6607 242.055 47.9123V168.355C242.055 172.61 238.611 176.057 234.367 176.057H234.364Z" fill="#2E3E91"/>
<path d="M236.136 46.2812H49.8789V167.224H236.136V46.2812Z" fill="#D8DAED"/>
<path d="M217.359 62.9004H69.6934V167.227H217.359V62.9004Z" fill="#EFF1F7"/>
<path d="M143.715 148.866C161.674 148.866 176.233 134.737 176.233 117.308C176.233 99.8789 161.674 85.75 143.715 85.75C125.756 85.75 111.197 99.8789 111.197 117.308C111.197 134.737 125.756 148.866 143.715 148.866Z" fill="white"/>
<path d="M217.359 62.9004H69.6934V74.5262H217.359V62.9004Z" fill="#7585E6"/>
<path d="M81.8843 68.4176C81.8843 69.3144 81.1577 70.0423 80.2625 70.0423C79.3673 70.0423 78.6406 69.3144 78.6406 68.4176C78.6406 67.5209 79.3673 66.793 80.2625 66.793C81.1577 66.793 81.8843 67.5209 81.8843 68.4176Z" fill="white"/>
<path d="M87.9273 68.4176C87.9273 69.3144 87.2006 70.0423 86.3054 70.0423C85.4103 70.0423 84.6836 69.3144 84.6836 68.4176C84.6836 67.5209 85.4103 66.793 86.3054 66.793C87.2006 66.793 87.9273 67.5209 87.9273 68.4176Z" fill="white"/>
<path d="M93.9683 68.4176C93.9683 69.3144 93.2416 70.0423 92.3465 70.0423C91.4513 70.0423 90.7246 69.3144 90.7246 68.4176C90.7246 67.5209 91.4513 66.793 92.3465 66.793C93.2416 66.793 93.9683 67.5209 93.9683 68.4176Z" fill="white"/>
<path d="M181.08 162.012L185.981 157.275L168.337 138.908L163.619 143.986L181.08 162.012Z" fill="#3746A1"/>
<path d="M209.313 185.141C211.929 182.605 211.995 178.385 209.461 175.766L187.401 152.968C184.87 150.351 180.661 150.284 178.049 152.82C175.433 155.355 175.367 159.575 177.901 162.195L199.961 184.993C202.492 187.609 206.701 187.676 209.313 185.141Z" fill="#7988E8"/>
<path d="M116.429 143.81C131.191 159.072 155.504 159.455 170.74 144.668C185.976 129.881 186.358 105.525 171.597 90.2628C156.835 75.0009 132.521 74.6175 117.286 89.4048C102.05 104.192 101.667 128.548 116.429 143.81ZM121.323 139.063C109.18 126.508 109.496 106.471 122.028 94.3104C134.561 82.1466 154.564 82.463 166.703 95.0173C178.846 107.571 178.53 127.609 165.997 139.769C153.465 151.933 133.462 151.617 121.323 139.063Z" fill="#3F50B8"/>
<path d="M194.045 111.282H191.114C190.527 111.282 189.962 111.071 189.52 110.688L187.723 109.137C187.098 108.595 187.203 107.597 187.93 107.199L191.612 107.407C192.423 107.452 193.241 107.825 193.901 108.448L194.996 109.489L194.045 111.278V111.282Z" fill="#C95836"/>
<path fill-rule="evenodd" clip-rule="evenodd" d="M191.6 110.086C191.6 110.086 197.831 118.603 202.005 123.66C206.351 128.924 210.827 120.621 207.344 118.174C205.912 117.168 194.724 109.238 194.724 109.238L191.6 110.082V110.086Z" fill="#C95836"/>
<path fill-rule="evenodd" clip-rule="evenodd" d="M223.363 101.786C215.12 101.364 208.359 109.016 202.314 118.958C201.822 119.766 207.074 124.517 207.765 123.673C212.701 117.65 219.287 112.413 219.287 112.413L223.366 101.786H223.363Z" fill="#C95836"/>
<path d="M219.096 101.209C219.096 101.209 214.807 101.209 207.47 110.929L204.177 114.706L196.106 109.6L193.824 113.907L202.285 124.76C202.285 124.76 205.613 127.154 207.684 125.08C209.755 123.005 216.551 116.091 216.551 116.091C216.551 116.091 221.326 102.45 219.096 101.213V101.209Z" fill="#7988E8"/>
<path fill-rule="evenodd" clip-rule="evenodd" d="M204.086 214.988C204.086 216.099 216.155 217 231.043 217C245.931 217 258 216.099 258 214.988C258 213.877 245.931 212.977 231.043 212.977C216.155 212.977 204.086 213.877 204.086 214.988Z" fill="#E3E7FA"/>
<path fill-rule="evenodd" clip-rule="evenodd" d="M223.97 211.476C223.97 211.476 228.365 187.043 223.949 177.372L227.533 144.225L212.076 145.29L219.652 211.708L223.966 211.472L223.97 211.476Z" fill="#E3633D"/>
<path fill-rule="evenodd" clip-rule="evenodd" d="M219.522 210.516L217.236 212.749C216.619 213.301 213.301 214.373 213.301 214.373C212.954 215.059 213.582 215.421 214.123 215.509L223.819 215.305C223.819 215.305 226.069 214.841 224.219 210.519C222.432 211.3 219.939 211.859 219.522 210.516Z" fill="#4A2A1A"/>
<path fill-rule="evenodd" clip-rule="evenodd" d="M211.039 150.438L217.39 206.686H228.676C228.676 206.686 227.77 201.794 227.942 200.24C228.114 198.685 228.974 183.961 225.741 177.185L226.857 149.594L211.039 150.438Z" fill="#ABAFD1"/>
<path fill-rule="evenodd" clip-rule="evenodd" d="M225.823 177.185L226.94 149.594L221.572 149.889L220.754 170.092C220.603 173.858 221 177.639 221.814 181.359C223.419 188.709 222.811 198.956 222.667 200.24C222.495 201.79 223.401 206.686 223.401 206.686H228.755C228.755 206.686 227.849 201.794 228.021 200.24C228.193 198.685 229.053 183.961 225.82 177.185H225.823Z" fill="#979BC4"/>
<path fill-rule="evenodd" clip-rule="evenodd" d="M234.177 127.799L213.096 129.406C209.666 130.668 211.035 150.47 211.035 150.47L224.895 151.114C231.333 150.98 238.951 156.037 239.751 145.29C240.668 133.003 234.173 127.799 234.173 127.799H234.177Z" fill="#ABAFD1"/>
<path d="M248.781 203.693C248.763 203.718 248.746 203.743 248.539 204.003C248.942 206.672 248.532 207.727 248.935 210.399C247.805 210.568 247.486 212.344 246.348 212.492C246.029 212.534 246.194 211.018 245.892 210.832L242.645 203.806L248.781 203.693Z" fill="#C95836"/>
<path d="M222.123 137.254C228.316 160.457 234.516 183.67 241.61 207.185C244.966 206.644 251.296 206.823 251.296 206.823C251.296 206.823 250.109 202.663 250.004 202.072C247.497 187.9 248.673 185.868 245.489 174.907C242.228 159.085 240.887 148.226 237.162 135.373C231.539 135.827 227.867 136.931 222.274 137.525C222.194 137.536 222.113 137.546 222.029 137.557C221.962 137.624 221.895 137.69 222.12 137.251L222.123 137.254Z" fill="#ABAFD1"/>
<path fill-rule="evenodd" clip-rule="evenodd" d="M245.685 210.069C245.685 210.069 245.236 212.858 245.422 214.606C245.454 214.905 245.657 215.225 245.97 215.471C246.282 215.717 246.661 215.854 246.988 215.844C247.693 215.816 248.501 215.784 248.999 215.766C249.312 215.756 249.568 215.647 249.729 215.457C249.828 215.344 249.944 215.207 250.07 215.063C250.635 214.409 250.288 213.681 249.831 212.658C249.357 211.599 248.985 210.393 248.985 210.393C247.104 209.162 245.685 210.066 245.685 210.066V210.069Z" fill="#3D2213"/>
<path fill-rule="evenodd" clip-rule="evenodd" d="M238.923 143.061C238.923 143.061 225.766 142.21 222.318 142.192L238.997 137.846C238.997 137.846 239.155 141.517 238.927 143.061H238.923Z" fill="#728F3B"/>
<path fill-rule="evenodd" clip-rule="evenodd" d="M218.725 101.228L224.64 99.6102L226.915 99.5293L235.733 101.903C238.731 103.13 240.297 106.429 239.384 109.59L238.306 119.359C239.124 128 239.061 135.525 239.117 142.629C239.128 143.905 238.219 145.023 236.962 145.27C228.312 146.947 214.203 148.318 210.328 143.399C209.991 127.898 213.403 111.623 218.721 101.231L218.725 101.228Z" fill="#7988E8"/>
<path fill-rule="evenodd" clip-rule="evenodd" d="M223.421 146.798C223.421 146.798 239.601 130.565 238.011 114.34L239.517 127.629C239.517 127.629 240.756 136.403 241.206 143.816C241.206 143.816 234.939 147.336 223.418 146.798H223.421Z" fill="#6B79CF"/>
<path fill-rule="evenodd" clip-rule="evenodd" d="M244.859 142.409C244.171 141.664 242.725 130.801 244.255 126.31C244.993 124.147 244.993 122.326 245.965 121.788C248.022 120.652 249.311 125.318 248.931 128.301C248.703 130.112 247.541 141.231 247.541 141.231L244.856 142.406L244.859 142.409Z" fill="#C95836"/>
<path d="M214.238 114.092L215.014 109.527" stroke="#213C73" stroke-width="1.23" stroke-linecap="round" stroke-linejoin="round"/>
<path d="M244.58 141.503L245.198 144.214C245.32 144.756 245.636 145.234 246.082 145.564L247.89 146.897C248.522 147.361 249.421 147.052 249.635 146.296L248.662 142.93C248.448 142.188 247.932 141.51 247.216 141.035L246.026 140.24L244.576 141.499L244.58 141.503Z" fill="#C95836"/>
<path fill-rule="evenodd" clip-rule="evenodd" d="M221.34 94.726C221.34 94.726 219.328 92.3945 222.045 90.0524C224.759 87.7104 224.991 93.4389 224.903 93.5092C224.815 93.5796 221.343 94.726 221.343 94.726H221.34Z" fill="#572A22"/>
<path fill-rule="evenodd" clip-rule="evenodd" d="M229.301 95.3302C229.301 95.3302 228.848 98.256 226.637 98.242C224.425 98.2314 224.622 91.8594 224.622 91.8594L229.301 95.3267V95.3302Z" fill="#572A22"/>
<path fill-rule="evenodd" clip-rule="evenodd" d="M222.078 96.7321C222.078 96.7321 222.776 99.8478 223.356 102.429C223.51 103.118 224.068 103.653 224.816 103.829C225.564 104.004 226.385 103.797 226.961 103.284C227.15 103.115 227.336 102.953 227.508 102.795C228.302 102.091 228.604 101.058 228.284 100.147C227.463 97.8117 225.967 93.5566 225.967 93.5566L222.074 96.7321H222.078Z" fill="#C95836"/>
<path fill-rule="evenodd" clip-rule="evenodd" d="M222.318 98.763L222.919 100.479L224.533 98.5098L222.318 98.763Z" fill="#633C1D"/>
<path fill-rule="evenodd" clip-rule="evenodd" d="M227.911 93.1217C228.107 92.2074 227.539 91.3036 226.636 91.1032C225.674 90.8886 224.456 90.6214 223.494 90.4069C222.592 90.2064 221.838 90.8289 221.501 91.701C221.104 92.7313 220.788 94.9784 220.756 96.6383C220.739 97.5737 221.258 98.5548 222.16 98.7553C223.122 98.9698 226.212 98.6779 226.868 96.997C227.367 95.7169 227.619 94.4685 227.911 93.1217Z" fill="#C95836"/>
<path fill-rule="evenodd" clip-rule="evenodd" d="M229.741 95.9171C229.741 95.9171 230.436 92.3689 229.127 90.9447C227.364 89.0281 224.914 87.8958 222.046 90.0515C222.046 90.0515 220.48 90.8884 225.325 91.8097C225.939 91.9258 224.883 94.8516 225.655 95.154C226.694 95.5619 228.031 95.8468 229.745 95.9171H229.741Z" fill="#572A22"/>
<path fill-rule="evenodd" clip-rule="evenodd" d="M228.125 96.9766C227.718 97.6272 226.96 97.8768 226.43 97.5357C225.899 97.1946 225.798 96.3928 226.205 95.7423C226.612 95.0917 227.37 94.842 227.9 95.1796C228.431 95.5207 228.532 96.3225 228.125 96.9731V96.9766Z" fill="#C95836"/>
<path fill-rule="evenodd" clip-rule="evenodd" d="M221.529 95.8574L222.881 96.2478C222.881 96.2478 222.589 97.1761 221.961 96.9089C221.333 96.6451 221.529 95.8574 221.529 95.8574Z" fill="white"/>
<path fill-rule="evenodd" clip-rule="evenodd" d="M239.232 105.51C239.232 105.51 247.419 118.029 248.602 120.22C251.284 125.175 250.687 123.775 249.637 133.607L248.932 138.991L243.375 138.277L242.329 124.847L234.77 112.909C234.77 112.909 234.237 110.707 239.236 105.513L239.232 105.51Z" fill="#7988E8"/>
<path d="M233.887 110.271L236.095 115.367" stroke="#213C73" stroke-width="1.23" stroke-linecap="round" stroke-linejoin="round"/>
<path d="M107.277 108.734C115.148 106.819 119.98 98.8745 118.068 90.9893C116.156 83.1042 108.226 78.2643 100.354 80.1792C92.4827 82.0941 87.6512 90.0387 89.5628 97.9238C91.4744 105.809 99.4052 110.649 107.277 108.734Z" fill="#73DED9"/>
<path d="M99.8164 95.5335L102.835 99.8519L109.856 88.6445" stroke="white" stroke-width="2.55" stroke-linecap="round" stroke-linejoin="round"/>
<path d="M150.884 130.556C151.473 126.923 149.01 123.5 145.384 122.91C141.757 122.32 138.34 124.787 137.751 128.42C137.163 132.053 139.625 135.476 143.252 136.066C146.879 136.655 150.296 134.189 150.884 130.556Z" fill="url(#paint0_linear_8746_23657)"/>
<path d="M177.834 55.9191C177.834 68.5894 158.782 100.921 148.855 116.865C148.086 118.103 146.425 118.856 143.354 118.856C141.897 118.856 142.469 118.099 141.7 116.862C131.776 100.914 112.725 68.5894 112.725 55.9191C112.725 39.3947 127.3 26 145.278 26C163.255 26 177.83 39.3947 177.83 55.9191H177.834Z" fill="url(#paint1_linear_8746_23657)"/>
<path d="M175.906 55.9191C175.906 68.5894 156.855 100.921 146.927 116.865C146.158 118.103 144.803 118.856 143.35 118.856C141.896 118.856 140.545 118.099 139.773 116.862C129.848 100.914 110.797 68.5894 110.797 55.9191C110.797 39.3947 125.373 26 143.353 26C161.334 26 175.906 39.3947 175.906 55.9191Z" fill="url(#paint2_linear_8746_23657)"/>
<path d="M163.765 60.4854C165.523 49.6348 158.167 39.4108 147.335 37.6495C136.504 35.8882 126.297 43.2566 124.539 54.1072C122.781 64.9578 130.136 75.1817 140.968 76.943C151.8 78.7043 162.006 71.336 163.765 60.4854Z" fill="#91B3FA"/>
<path opacity="0.36" d="M156.277 58.664C158.11 50.8857 153.301 43.0919 145.536 41.2561C137.771 39.4202 129.991 44.2375 128.158 52.0158C126.326 59.7941 131.134 67.5879 138.899 69.4237C146.664 71.2595 154.444 66.4422 156.277 58.664Z" fill="white"/>
</g>
<defs>
<linearGradient id="paint0_linear_8746_23657" x1="155.297" y1="89.4836" x2="136.878" y2="156.392" gradientUnits="userSpaceOnUse">
<stop stop-color="#4F52FF"/>
<stop offset="1" stop-color="#4042E2"/>
</linearGradient>
<linearGradient id="paint1_linear_8746_23657" x1="89.3622" y1="84.3965" x2="171.995" y2="66.0653" gradientUnits="userSpaceOnUse">
<stop stop-color="#4F52FF"/>
<stop offset="1" stop-color="#4042E2"/>
</linearGradient>
<linearGradient id="paint2_linear_8746_23657" x1="152.403" y1="41.5785" x2="91.03" y2="149.855" gradientUnits="userSpaceOnUse">
<stop stop-color="#677CE2"/>
<stop offset="1" stop-color="#4A5CD1"/>
</linearGradient>
<clipPath id="clip0_8746_23657">
<rect width="213" height="191" fill="white" transform="translate(45 26)"/>
</clipPath>
</defs>
</svg>
