<svg width="161" height="125" viewBox="0 0 161 125" fill="none" xmlns="http://www.w3.org/2000/svg">
<path d="M36.7109 109.76C-3.34455 86.4229 -12.3477 31.8503 20.7196 7.37505C34.9531 -3.16717 54.9744 -2.25298 68.5005 9.12862L69.0322 9.58155C73.6963 13.4741 79.1068 16.4368 84.9538 18.3C90.8009 20.1632 96.9696 20.8902 103.107 20.4396C129.863 18.553 156.564 22.4716 160.191 47.354C165.344 82.6997 105.242 149.701 36.7109 109.76Z" fill="#C3CDFF" fill-opacity="0.45"/>
<g clip-path="url(#clip0_8642_23166)">
<path d="M74.2735 75.546C74.2735 75.546 69.22 71.7041 66.9683 70.4771C64.6576 69.2157 59.9421 69.3959 57.7179 69.116C55.9849 68.8974 52.8372 71.6082 55.3522 72.9656C57.8672 74.3229 63.2233 76.3972 63.5259 76.888C63.7499 77.2561 74.7529 90.9788 80.557 93.7088C82.5375 94.6405 78.6629 88.3102 80.6513 87.8347C88.4713 85.9598 74.2696 75.546 74.2696 75.546H74.2735Z" fill="#ED795A"/>
<path d="M88.1641 111.63L92.3177 118.981C96.1295 125.982 105.993 127.121 111.29 121.109C111.357 121.032 111.424 120.955 111.49 120.879C115.33 116.465 115.106 109.924 110.999 105.749L105.05 98.6055C105.05 98.6055 102.055 109.663 101.344 109.222C95.6383 105.691 88.1641 111.634 88.1641 111.634V111.63Z" fill="#F9A17B"/>
<path d="M77.7227 96.971C77.7227 96.971 79.5774 101.714 81.0668 105.583C83.4639 111.802 95.1074 117.2 98.314 117.454C101.521 117.71 106.275 101.453 106.275 101.453L104.491 92.8492L86.7294 90.334C81.7741 91.2695 78.5911 93.3592 77.7227 96.9672V96.971Z" fill="#F9A17B"/>
<path d="M91.5283 83.4872L77.7549 85.9679L74.8784 91.5774C73.7467 93.3411 73.0472 95.2008 73.9314 97.0949C74.5837 98.4944 76.0219 99.0618 77.3541 98.6056C78.8552 98.0879 79.3936 95.1893 79.3936 95.1893C79.3936 95.1893 81.2837 93.7629 81.5903 92.6663C81.5903 92.6663 88.5772 91.8535 90.2748 91.5391C91.9763 91.2285 104.492 92.8504 104.492 92.8504L101.36 81.4512L91.5283 83.4872Z" fill="#F9A17B"/>
<path d="M99.5531 73.2064C99.5531 73.2064 99.2505 68.1606 94.7864 66.8301L72.3206 71.6574C71.5582 71.8223 70.8627 72.1903 70.3125 72.731C68.5913 74.4142 64.7128 78.4862 62.1113 83.302L60.4491 92.8492C60.3351 93.4972 60.6456 94.1452 61.2311 94.4673C62.186 94.9964 63.7343 95.3223 65.2236 93.3132C67.6129 90.0886 67.7818 87.604 67.7818 87.604L71.8922 81.0513L84.1999 80.2192L99.557 73.2064H99.5531Z" fill="#F9A17B"/>
<path d="M99.5503 73.207L72.3846 79.8939L68.5768 85.5456L65.6964 92.2172L65.5628 99.092C65.547 99.9355 66.2426 100.656 67.111 100.633C67.8498 100.614 68.7497 100.399 69.5671 99.6786C71.3786 98.0759 71.4415 93.6013 71.4415 93.6013L75.5441 86.3661L91.023 83.594L101.358 81.4545L99.5503 73.207Z" fill="#F9A17B"/>
<path d="M89.1879 76.666L74.66 79.0317C74.66 79.0317 71.0526 80.1667 69.2764 84.8214C69.2764 84.8214 66.4863 90.9371 65.5039 92.5934" stroke="#D87B5D" stroke-width="2.07" stroke-linecap="round" stroke-linejoin="round"/>
<path d="M91.0213 83.5938L77.9159 85.6604C77.9159 85.6604 75.6327 85.8291 74.9883 87.0062" stroke="#D87B5D" stroke-width="2.07" stroke-linecap="round" stroke-linejoin="round"/>
<path d="M77.8828 97.9679L81.2034 92.7648C81.2034 92.7648 87.5812 92.1973 92.4775 91.2656" stroke="#D87B5D" stroke-width="2.07" stroke-linecap="round" stroke-linejoin="round"/>
<path d="M115.665 68.7475C116.468 68.7475 117.119 68.1123 117.119 67.3288C117.119 66.5453 116.468 65.9102 115.665 65.9102C114.862 65.9102 114.211 66.5453 114.211 67.3288C114.211 68.1123 114.862 68.7475 115.665 68.7475Z" stroke="#59753D" stroke-width="1.91" stroke-linecap="round" stroke-linejoin="round"/>
<path d="M22.3251 45.3471C23.1281 45.3471 23.779 44.7119 23.779 43.9284C23.779 43.1449 23.1281 42.5098 22.3251 42.5098C21.5221 42.5098 20.8711 43.1449 20.8711 43.9284C20.8711 44.7119 21.5221 45.3471 22.3251 45.3471Z" stroke="#59753D" stroke-width="1.91" stroke-linecap="round" stroke-linejoin="round"/>
<path d="M47.5938 0.363281C48.1243 2.60248 48.6548 4.84167 49.1813 7.0847" stroke="#59753D" stroke-width="1.89" stroke-linecap="round" stroke-linejoin="round"/>
<path d="M39.7148 4.69727C41.1177 5.92806 42.5206 7.15501 43.9235 8.3858" stroke="#59753D" stroke-width="1.89" stroke-linecap="round" stroke-linejoin="round"/>
<path d="M42.4682 13.5121C40.3147 13.2438 38.1574 12.9715 36.0039 12.7031" stroke="#59753D" stroke-width="1.89" stroke-linecap="round" stroke-linejoin="round"/>
<path d="M72.2065 34.1713C72.0808 47.848 57.659 58.8063 57.659 58.8063C57.659 58.8063 43.4376 47.595 43.5633 33.9221C43.6891 20.2454 58.1109 9.28711 58.1109 9.28711C58.1109 9.28711 72.3323 20.4984 72.2065 34.1713Z" fill="#749951"/>
<path d="M58.0136 19.4551L57.6992 54.0131" stroke="#2A5241" stroke-width="1.89" stroke-linecap="round" stroke-linejoin="round"/>
<path d="M52.4688 24.2168L57.9035 31.4252" stroke="#2A5241" stroke-width="1.89" stroke-linecap="round" stroke-linejoin="round"/>
<path d="M52.3555 36.7246L57.7902 43.9291" stroke="#2A5241" stroke-width="1.89" stroke-linecap="round" stroke-linejoin="round"/>
<path d="M63.4746 24.3125L57.9062 31.425" stroke="#2A5241" stroke-width="1.89" stroke-linecap="round" stroke-linejoin="round"/>
<path d="M63.3574 36.8203L57.7891 43.929" stroke="#2A5241" stroke-width="1.89" stroke-linecap="round" stroke-linejoin="round"/>
<path d="M57.6529 58.8066L57.5898 73.7487" stroke="#2A5241" stroke-width="1.89" stroke-linecap="round" stroke-linejoin="round"/>
<path d="M56.092 65.9599L62.0533 62.0989L74.1802 57.1757C75.2883 56.7271 76.534 56.7386 77.6343 57.2102L87.2109 61.332C90.6297 62.8044 93.6477 65.0512 95.9662 67.9116C96.3552 68.3908 96.6224 68.7628 96.6735 68.9238L85.1321 71.4046L74.8482 64.5259C74.8482 64.5259 68.9302 67.0182 67.5784 67.2981C67.5784 67.2981 58.4262 70.9675 56.1077 69.2689C55.9741 69.1692 55.8562 69.0695 55.7501 68.9698C54.8542 68.1071 55.0467 66.6424 56.0959 65.9638L56.092 65.9599Z" fill="#F9A17B"/>
<path d="M91.3666 69.3457L82.9414 69.7521" stroke="#D87B5D" stroke-width="2.2" stroke-linecap="round" stroke-linejoin="round"/>
</g>
<defs>
<clipPath id="clip0_8642_23166">
<rect width="103" height="125" fill="white" transform="translate(17.4922)"/>
</clipPath>
</defs>
</svg>
