<svg width="294" height="224" viewBox="0 0 294 224" fill="none" xmlns="http://www.w3.org/2000/svg">
<path d="M127.996 14.6367C148.252 8.02145 182.566 17.5388 190.352 45.6582C198.082 73.5253 188.62 81.204 191.482 105.214C194.345 129.223 251.377 155.216 223.171 188.328C208.493 205.56 184.736 194.98 159.137 184.417C140.485 176.72 120.849 169.005 103.053 172.051C103.053 172.051 33.6596 189.338 12.6373 161.074C-18.7777 118.841 54.1715 111.991 77.5276 73.8137C99.261 38.3219 101.376 23.3249 127.996 14.6187" fill="#C3CDFF" fill-opacity="0.45"/>
<g clip-path="url(#clip0_8746_23535)">
<path d="M120.502 213C184.292 213 236.003 210.631 236.003 207.709C236.003 204.787 184.292 202.418 120.502 202.418C56.7119 202.418 5 204.787 5 207.709C5 210.631 56.7119 213 120.502 213Z" fill="#DCDDF2"/>
<path d="M206.465 90.252H49.9979C46.3412 90.252 43.377 93.2166 43.377 96.8736V200.437C43.377 204.094 46.3412 207.059 49.9979 207.059H206.465C210.122 207.059 213.086 204.094 213.086 200.437V96.8736C213.086 93.2166 210.122 90.252 206.465 90.252Z" fill="#2E3E91"/>
<path d="M207.985 95.4746H47.5781V199.465H207.985V95.4746Z" fill="#E6E7F7"/>
<path d="M63.0505 197.227L190.078 197.227V111.979L63.0505 111.979L63.0505 197.227Z" fill="white"/>
<path d="M63.0505 121.965L190.078 121.965V111.98L63.0505 111.98V121.965Z" fill="#CCCEE6"/>
<path d="M203.447 208.497H24.772C18.6061 208.497 13.6074 203.497 13.6074 197.331V197.227H213.083V201.354C213.083 205.012 210.523 208.497 203.444 208.497H203.447Z" fill="#2E3E91"/>
<path d="M146.078 85.7011L104.49 81.4453L62.9062 86.257V188.566L104.49 186.034L146.078 188.841L187.613 184.557V83.3213L146.078 85.7011Z" fill="white"/>
<path d="M105.383 183.704L65.873 186.104V89.0478L105.383 84.4863V183.704Z" fill="url(#paint0_linear_8746_23535)"/>
<path d="M144.899 186.365L105.385 183.704V84.4863L144.899 88.5232V186.365Z" fill="#4F61E0"/>
<path d="M184.364 182.299L144.898 186.363V88.5218L184.364 86.2637V182.299Z" fill="url(#paint1_linear_8746_23535)"/>
<path d="M105.388 84.4863H104.492V183.728H105.388V84.4863Z" fill="#BDD0FB"/>
<path d="M144.57 186.363L145.467 186.304V88.4316H144.57V186.363Z" fill="#BDD0FB"/>
<mask id="mask0_8746_23535" style="mask-type:luminance" maskUnits="userSpaceOnUse" x="65" y="84" width="120" height="103">
<path d="M144.835 88.3909L105.321 84.3574L65.8105 88.9189V185.972L105.321 183.571L144.835 186.236L184.296 182.168V86.1362L144.835 88.3909Z" fill="white"/>
</mask>
<g mask="url(#mask0_8746_23535)">
<g opacity="0.69">
<path d="M156.337 89.502L166.581 97.2353L159.598 103.697L151.369 96.141L156.337 89.502Z" fill="#91B3FA"/>
<path d="M88.1641 104.929L89.0881 95.9414L104.939 99.2696V111.252L88.1641 104.929Z" fill="#91B3FA"/>
<path d="M174.562 157.837L182.83 153.762L183.952 162.03L176.723 164.323L174.562 157.837Z" fill="#91B3FA"/>
<path d="M96.6328 164.416L104.939 168.634L113.216 167.283L112.466 161.696L104.939 159.977L96.6328 164.416Z" fill="#91B3FA"/>
<path d="M88.1635 104.93L65.6328 112.76L66.1122 114.588L69.3671 113.455L90.2199 119.962L90.5673 118.489L71.7674 112.621L87.8995 107.018L102.951 118.423L100.881 134.88L84.4188 136.221L69.9472 158.65L71.2811 159.786L85.3011 138.066L102.333 136.676L104.747 117.496L88.1635 104.93Z" fill="#BDD0FB"/>
<path d="M81.1332 171.018L63.9277 154.258L65.0011 152.803L82.2065 169.558L81.1332 171.018Z" fill="#BDD0FB"/>
<path d="M147.151 154.319L136.883 125.271L135.344 125.991L140.745 141.273L114.512 150.539L115.002 152.366L141.374 143.049L145.612 155.038L147.151 154.319Z" fill="#BDD0FB"/>
<path d="M169.085 148.666L164.086 154.916L154.214 132.65L153.029 133.345L163.12 156.101L163.152 156.083L159.303 160.895L160.526 162.187L170.311 149.958L169.085 148.666Z" fill="#BDD0FB"/>
<path d="M163.074 110.064L162.109 108.508C162.067 108.543 162.039 108.57 162.039 108.574C162.567 107.98 169.73 98.0194 174.416 91.4707L175 90.6543L185.66 103.026L184.479 104.37L175.114 93.5031C174.086 94.9414 171.845 98.0646 169.605 101.177C163.394 109.804 163.224 109.943 163.071 110.068L163.074 110.064Z" fill="#BDD0FB"/>
<path d="M141.593 120.188L138.255 107.052L134.169 95.077L115.898 96.3277L115.797 94.4204L135.278 93.0898L139.839 106.476L143.191 119.653L141.593 120.188Z" fill="#BDD0FB"/>
<path d="M89.0672 105.09L87.7402 104.972L88.4315 94.5703L105.071 98.5239L104.803 100.018L89.6438 96.4185L89.0672 105.09Z" fill="#BDD0FB"/>
<path d="M159.389 104.812L158.558 103.617L165.482 97.2658L155.891 89.3379L156.669 88.0977L167.68 97.2033L159.389 104.812Z" fill="#BDD0FB"/>
<path d="M186.224 163.896L175.195 118.969L173.594 119.486L181.92 153.394L174.132 157.233L174.657 158.636L182.139 154.947L183.035 161.572L177.21 163.417L177.564 164.89L184.223 162.781L184.626 164.414L186.224 163.896Z" fill="#BDD0FB"/>
<path d="M105.223 181.77L80.7578 170.587L81.3727 168.811L104.626 179.439L111.247 168.804L105.296 170.437L95.1599 165.021L95.8616 163.291L105.473 168.429L113.123 166.331C113.859 166.129 114.463 166.921 114.064 167.564L105.22 181.773L105.223 181.77Z" fill="#BDD0FB"/>
<path d="M158.365 161.262L141.719 181.961L124.801 163.899L115.276 150.086L114.234 151.034L123.791 164.893L123.822 164.938L140.815 183.087L138.175 186.366L139.395 187.665L159.587 162.558L158.365 161.262Z" fill="#BDD0FB"/>
</g>
<path d="M110.32 119.372L104.508 111.99C91.4887 106.716 76.6593 101.265 65.1543 100.64L65.2238 98.9238C76.9754 99.5631 92.0167 105.108 105.182 110.444L105.359 110.517L111.424 118.223L110.313 119.376L110.32 119.372Z" fill="#91B3FA"/>
<path d="M183.392 178.189C170.71 169.243 156.363 159.398 146.394 155.59L113.994 169.33L113.477 167.718L146.366 153.77L146.613 153.863C156.745 157.661 171.314 167.656 184.174 176.726L183.392 178.193V178.189Z" fill="#91B3FA"/>
<path d="M120.128 113.209L110.18 84.9196L111.569 84.2734L121.514 112.563L120.128 113.209Z" fill="#91B3FA"/>
<path d="M165.205 121.04C162.631 109.572 157.674 101.675 150.053 96.8945L150.768 95.3867C154.975 98.0236 158.463 101.619 161.134 106.077C163.562 110.124 165.368 114.88 166.654 120.612L165.205 121.043V121.04Z" fill="#91B3FA"/>
<path d="M87.5322 168.176L86.2852 167.214L100.983 141.217L102.233 142.176L87.5322 168.176Z" fill="#91B3FA"/>
<path d="M169.33 122.016L126.148 120.039L126.207 118.319L169.066 120.282L184.789 112.879L185.355 114.47L169.33 122.016Z" fill="#91B3FA"/>
<path d="M66.14 178.091L65.6016 176.486L104.834 159.102L112.542 159.981L112.393 161.693L105.039 160.853L66.14 178.091Z" fill="#91B3FA"/>
<path d="M116.7 143.195C99.8563 142.99 84.0717 142.007 76.0195 132.356L77.0999 131.168C84.749 140.336 100.204 141.278 116.718 141.479L116.7 143.199V143.195Z" fill="#91B3FA"/>
<path d="M115.22 183.869L111.701 159.772L111.753 159.578L121.893 122.432L126.44 113.591L144.427 102.421L156.429 87.25L157.534 88.4069L145.365 103.794L127.517 114.876L123.272 123.134L113.233 159.894L116.696 183.584L115.22 183.869Z" fill="#91B3FA"/>
<path d="M185.127 182.025L164.111 138.328L125.253 121.975L118.337 120.078L93.236 117.9L65.5191 141.232L64.6367 139.846L92.7983 116.139L93.0727 116.163L118.57 118.376L125.684 120.325L125.726 120.342L165.149 136.935L165.285 137.216L186.436 181.195L185.127 182.025Z" fill="#91B3FA"/>
</g>
<path d="M122.582 122.788C125.354 122.788 127.602 120.571 127.602 117.837C127.602 115.103 125.354 112.887 122.582 112.887C119.81 112.887 117.562 115.103 117.562 117.837C117.562 120.571 119.81 122.788 122.582 122.788Z" fill="#BDD0FB"/>
<path d="M122.582 121.383C124.567 121.383 126.177 119.795 126.177 117.836C126.177 115.877 124.567 114.289 122.582 114.289C120.596 114.289 118.986 115.877 118.986 117.836C118.986 119.795 120.596 121.383 122.582 121.383Z" fill="#91B3FA"/>
<path d="M155.101 107.141C157.34 107.141 159.155 105.349 159.155 103.139C159.155 100.929 157.34 99.1367 155.101 99.1367C152.862 99.1367 151.047 100.929 151.047 103.139C151.047 105.349 152.862 107.141 155.101 107.141Z" fill="url(#paint2_linear_8746_23535)"/>
<path d="M175.53 58.9647C175.53 66.573 163.917 85.9863 157.87 95.561C157.401 96.3045 156.39 96.7561 154.517 96.7561C153.632 96.7561 153.979 96.3045 153.51 95.561C147.459 85.9863 135.85 66.573 135.85 58.9647C135.85 49.0426 144.732 41 155.692 41C166.651 41 175.534 49.0426 175.534 58.9647H175.53Z" fill="url(#paint3_linear_8746_23535)"/>
<path d="M174.354 58.9647C174.354 66.573 162.742 85.9863 156.694 95.561C156.225 96.3045 155.398 96.7561 154.512 96.7561C153.627 96.7561 152.803 96.3045 152.334 95.561C146.283 85.9863 134.674 66.573 134.674 58.9647C134.674 49.0426 143.556 41 154.516 41C165.475 41 174.358 49.0426 174.358 58.9647H174.354Z" fill="url(#paint4_linear_8746_23535)"/>
<path opacity="0.36" d="M154.996 71.7418C161.684 71.7418 167.106 66.3911 167.106 59.7908C167.106 53.1905 161.684 47.8398 154.996 47.8398C148.308 47.8398 142.887 53.1905 142.887 59.7908C142.887 66.3911 148.308 71.7418 154.996 71.7418Z" fill="white"/>
<path opacity="0.36" d="M153.825 67.3053C158.689 67.3053 162.631 63.4152 162.631 58.6165C162.631 53.8178 158.689 49.9277 153.825 49.9277C148.962 49.9277 145.02 53.8178 145.02 58.6165C145.02 63.4152 148.962 67.3053 153.825 67.3053Z" fill="white"/>
</g>
<defs>
<linearGradient id="paint0_linear_8746_23535" x1="39.8443" y1="149.459" x2="-6.77398" y2="162.776" gradientUnits="userSpaceOnUse">
<stop stop-color="#657AE0"/>
<stop offset="1" stop-color="#4042E2"/>
</linearGradient>
<linearGradient id="paint1_linear_8746_23535" x1="233.784" y1="122.394" x2="318.489" y2="106.455" gradientUnits="userSpaceOnUse">
<stop stop-color="#667BE1"/>
<stop offset="1" stop-color="#4042E2"/>
</linearGradient>
<linearGradient id="paint2_linear_8746_23535" x1="116.15" y1="159.284" x2="167.673" y2="85.0336" gradientUnits="userSpaceOnUse">
<stop stop-color="#FF928E"/>
<stop offset="1" stop-color="#FE7062"/>
</linearGradient>
<linearGradient id="paint3_linear_8746_23535" x1="107.302" y1="72.142" x2="162.233" y2="68.3769" gradientUnits="userSpaceOnUse">
<stop stop-color="#FF928E"/>
<stop offset="1" stop-color="#FE7062"/>
</linearGradient>
<linearGradient id="paint4_linear_8746_23535" x1="147.631" y1="101.425" x2="157.856" y2="37.9084" gradientUnits="userSpaceOnUse">
<stop stop-color="#FF928E"/>
<stop offset="1" stop-color="#FE7062"/>
</linearGradient>
<clipPath id="clip0_8746_23535">
<rect width="231" height="172" fill="white" transform="translate(5 41)"/>
</clipPath>
</defs>
</svg>
