<svg width="569" height="562" viewBox="0 0 569 562" fill="none" xmlns="http://www.w3.org/2000/svg">
<g clip-path="url(#clip0_2110_20624)">
<path d="M540.201 561.602C494 458.426 390.54 386.557 270.182 386.557C149.824 386.557 46.1187 458.59 0 562" fill="#DBAF9A"/>
<path opacity="0.77" d="M502.052 433.436C476.553 469.688 442.695 499.266 403.341 519.665C363.988 540.065 320.298 550.687 275.97 550.632C231.641 550.577 187.978 539.847 148.675 519.349C109.373 498.851 75.5879 469.19 50.1797 432.875" fill="#DBAF9A"/>
<path d="M50.18 434.372C17.6642 387.985 0.251505 332.701 0.316588 276.057C0.316588 123.568 123.858 -0.0467529 276.315 -0.0467529C428.772 -0.0467529 552.231 123.603 552.231 276.057C552.318 332.944 534.735 388.454 501.911 434.922" fill="#CDE3F0"/>
<path d="M305.535 531.71V521.661H309.806C310.596 521.626 311.386 521.717 312.147 521.93C312.633 522.111 313.044 522.449 313.317 522.889C313.611 523.367 313.761 523.919 313.75 524.48C313.772 525.164 313.539 525.831 313.095 526.352C312.56 526.884 311.856 527.211 311.105 527.276C311.503 527.504 311.865 527.788 312.182 528.119C312.622 528.623 313.013 529.168 313.352 529.745L314.569 531.71H312.147L310.672 529.523C310.352 529.007 309.996 528.515 309.608 528.049C309.438 527.865 309.231 527.721 308.999 527.627C308.663 527.539 308.316 527.499 307.969 527.51H307.56V531.71H305.535ZM307.56 525.861H309.069C309.676 525.893 310.285 525.853 310.883 525.744C311.119 525.67 311.321 525.517 311.457 525.311C311.604 525.09 311.677 524.828 311.667 524.562C311.682 524.263 311.581 523.97 311.386 523.743C311.189 523.523 310.919 523.382 310.626 523.345C310.462 523.345 309.97 523.345 309.151 523.345H307.56V525.861ZM315.681 531.71V521.661H323.124V523.357H317.706V525.592H322.749V527.276H317.706V530.014H323.323V531.71H315.681ZM318.256 521.087L319.203 519.04H321.357L319.473 521.087H318.256ZM324.528 528.435L326.506 528.247C326.567 528.803 326.819 529.32 327.219 529.71C327.64 530.035 328.163 530.201 328.694 530.178C329.217 530.21 329.737 530.066 330.168 529.768C330.323 529.654 330.448 529.507 330.535 529.336C330.623 529.166 330.669 528.977 330.672 528.786C330.677 528.568 330.602 528.355 330.461 528.189C330.262 527.981 330.012 527.828 329.735 527.744C329.49 527.662 328.951 527.522 328.109 527.311C327.262 527.167 326.46 526.827 325.768 526.317C325.474 526.069 325.238 525.759 325.078 525.409C324.918 525.059 324.838 524.678 324.844 524.293C324.84 523.784 324.991 523.286 325.277 522.866C325.581 522.404 326.017 522.045 326.529 521.836C327.158 521.587 327.831 521.468 328.507 521.485C329.551 521.408 330.588 521.716 331.421 522.351C331.734 522.628 331.986 522.969 332.159 523.349C332.333 523.73 332.424 524.144 332.427 524.562L330.391 524.656C330.355 524.226 330.153 523.828 329.829 523.544C329.453 523.294 329.005 523.174 328.554 523.205C328.063 523.177 327.576 523.304 327.161 523.568C327.064 523.638 326.986 523.731 326.931 523.837C326.877 523.944 326.849 524.062 326.849 524.182C326.849 524.302 326.877 524.42 326.931 524.526C326.986 524.633 327.064 524.726 327.161 524.796C327.731 525.142 328.363 525.372 329.022 525.475C329.777 525.631 330.511 525.875 331.21 526.2C331.666 526.433 332.05 526.784 332.322 527.218C332.604 527.704 332.742 528.259 332.72 528.821C332.719 529.408 332.545 529.981 332.217 530.469C331.89 530.956 331.426 531.336 330.882 531.558C330.184 531.822 329.44 531.945 328.694 531.921C327.645 531.99 326.606 531.679 325.768 531.044C325.029 530.37 324.583 529.433 324.528 528.435ZM334.405 531.71V521.661H341.859V523.357H336.441V525.592H341.485V527.276H336.441V530.014H342.058V531.71H334.405ZM352.836 531.71H350.636L349.758 529.429H345.732L344.902 531.71H342.748L346.669 521.661H348.81L352.836 531.71ZM349.103 527.733L347.722 524.001L346.364 527.733H349.103ZM353.912 521.661H355.995V527.101C355.975 527.664 356.003 528.227 356.077 528.786C356.154 529.179 356.37 529.532 356.686 529.78C357.084 530.043 357.556 530.17 358.032 530.143C358.492 530.175 358.949 530.052 359.331 529.792C359.608 529.577 359.799 529.27 359.869 528.926C359.938 528.359 359.965 527.788 359.951 527.218V521.661H361.987V526.937C362.011 527.794 361.956 528.652 361.823 529.499C361.723 529.965 361.51 530.399 361.203 530.763C360.881 531.122 360.481 531.402 360.033 531.582C359.41 531.804 358.751 531.907 358.09 531.886C357.349 531.921 356.609 531.806 355.913 531.547C355.462 531.357 355.062 531.064 354.743 530.693C354.468 530.352 354.275 529.951 354.182 529.523C354.022 528.682 353.955 527.827 353.983 526.972L353.912 521.661ZM367.955 521.661H371.665C372.31 521.638 372.955 521.701 373.584 521.848C374.16 522.018 374.68 522.337 375.094 522.772C375.531 523.24 375.859 523.799 376.053 524.41C376.293 525.166 376.407 525.957 376.392 526.75C376.408 527.472 376.301 528.192 376.077 528.879C375.87 529.552 375.5 530.162 375 530.657C374.594 531.035 374.105 531.312 373.572 531.465C372.989 531.623 372.386 531.694 371.782 531.675H367.955V521.661ZM369.991 523.357V530.014H371.501C371.913 530.026 372.324 529.995 372.73 529.92C373.034 529.852 373.316 529.707 373.549 529.499C373.812 529.235 373.999 528.903 374.087 528.54C374.235 527.935 374.302 527.314 374.286 526.691C374.304 526.088 374.237 525.486 374.087 524.901C373.978 524.536 373.781 524.202 373.514 523.93C373.246 523.691 372.919 523.529 372.566 523.462C372.017 523.372 371.46 523.337 370.904 523.357H369.991ZM378.113 531.71V521.661H385.567V523.357H380.149V525.592H385.251V527.276H380.207V530.014H385.824V531.71H378.113ZM397.819 528.013L399.785 528.645C399.574 529.608 399.041 530.47 398.276 531.09C397.5 531.645 396.561 531.925 395.608 531.886C394.994 531.903 394.383 531.79 393.817 531.554C393.25 531.318 392.739 530.965 392.319 530.517C391.419 529.484 390.958 528.141 391.032 526.773C390.943 525.355 391.409 523.958 392.331 522.877C392.767 522.416 393.296 522.054 393.883 521.814C394.471 521.574 395.102 521.462 395.736 521.485C396.284 521.461 396.83 521.545 397.345 521.734C397.859 521.923 398.331 522.212 398.732 522.585C399.237 523.096 399.593 523.735 399.762 524.433L397.749 524.913C397.655 524.424 397.389 523.984 397 523.673C396.608 523.373 396.125 523.216 395.631 523.228C395.289 523.22 394.949 523.287 394.636 523.425C394.322 523.562 394.043 523.767 393.817 524.024C393.294 524.784 393.05 525.702 393.127 526.621C393.037 527.577 393.276 528.534 393.805 529.335C394.023 529.597 394.297 529.806 394.607 529.946C394.918 530.086 395.256 530.153 395.596 530.143C396.106 530.153 396.603 529.974 396.988 529.64C397.431 529.198 397.725 528.63 397.831 528.013H397.819ZM401.541 531.71V521.661H403.577V525.615H407.556V521.661H409.58V531.71H407.556V527.311H403.577V531.71H401.541ZM420.756 531.71H418.544L417.666 529.429H413.641L412.822 531.71H410.668L414.577 521.661H416.73L420.756 531.71ZM417.011 527.733L415.677 524.001L414.32 527.733H417.011ZM421.891 531.71V521.743H423.915V530.014H428.959V531.71H421.891ZM430.422 531.71V521.661H437.911V523.357H432.481V525.592H437.525V527.276H432.481V530.014H438.099V531.71H430.422ZM439.784 521.661H441.808V527.101C441.794 527.664 441.822 528.227 441.89 528.786C441.967 529.182 442.188 529.536 442.51 529.78C442.904 530.043 443.372 530.17 443.844 530.143C444.308 530.177 444.77 530.053 445.155 529.792C445.433 529.579 445.621 529.27 445.682 528.926C445.751 528.359 445.778 527.788 445.764 527.218V521.661H447.8V526.937C447.824 527.794 447.769 528.652 447.636 529.499C447.535 529.962 447.326 530.395 447.027 530.763C446.704 531.121 446.304 531.401 445.857 531.582C445.239 531.804 444.583 531.907 443.926 531.886C443.182 531.921 442.437 531.806 441.738 531.547C441.286 531.358 440.885 531.066 440.568 530.693C440.289 530.352 440.093 529.952 439.994 529.523C439.841 528.682 439.774 527.827 439.795 526.972L439.784 521.661ZM449.953 531.71V521.661H454.224C455.014 521.626 455.804 521.717 456.565 521.93C457.05 522.111 457.462 522.449 457.735 522.889C458.029 523.367 458.179 523.919 458.168 524.48C458.19 525.164 457.956 525.831 457.513 526.352C456.978 526.884 456.274 527.211 455.523 527.276C455.921 527.504 456.283 527.788 456.6 528.119C457.039 528.623 457.431 529.168 457.77 529.745L458.975 531.71H456.553L455.079 529.523C454.758 529.007 454.402 528.515 454.014 528.049C453.845 527.865 453.637 527.721 453.405 527.627C453.073 527.539 452.73 527.499 452.387 527.51H451.954V531.71H449.953ZM451.977 525.861H453.487C454.094 525.893 454.703 525.853 455.301 525.744C455.536 525.67 455.739 525.517 455.874 525.311C456.022 525.09 456.095 524.828 456.085 524.562C456.1 524.263 455.999 523.97 455.804 523.743C455.607 523.523 455.337 523.382 455.044 523.345C454.88 523.345 454.388 523.345 453.569 523.345H451.954L451.977 525.861Z" fill="#000074"/>
<path d="M375.889 446.305H481.209V104.685H375.889V446.305Z" fill="#42A1C1"/>
<path d="M36.5234 429.926H116.099V211.149H36.5234V429.926Z" fill="#71B3EA"/>
<path d="M109.078 446.305H210.888V269.646H109.078V446.305Z" fill="#71B3EA"/>
<path d="M31.6909 118.725V108.675H34.9559C35.7625 108.64 36.5706 108.691 37.3665 108.827C37.946 108.984 38.4565 109.33 38.8176 109.81C39.2217 110.379 39.4235 111.067 39.391 111.764C39.4103 112.301 39.2978 112.835 39.0634 113.32C38.8585 113.716 38.5615 114.057 38.1974 114.314C37.8859 114.542 37.5317 114.705 37.1559 114.794C36.4592 114.902 35.7544 114.949 35.0495 114.934H33.7271V118.725H31.6909ZM33.7271 110.371V113.226H34.8974C35.4364 113.257 35.977 113.206 36.5006 113.074C36.7597 112.978 36.9813 112.802 37.1325 112.571C37.2998 112.317 37.381 112.016 37.3642 111.713C37.3473 111.41 37.2333 111.12 37.0389 110.886C36.8238 110.65 36.5351 110.493 36.2197 110.442C35.7386 110.381 35.2534 110.357 34.7686 110.371H33.7271ZM41.0644 118.725V108.675H45.3358C46.1253 108.639 46.9154 108.73 47.6762 108.944C48.1618 109.125 48.5734 109.463 48.8465 109.903C49.1439 110.38 49.2983 110.932 49.2912 111.494C49.3147 112.18 49.0762 112.85 48.6241 113.366C48.0897 113.898 47.3857 114.225 46.6347 114.291C47.0356 114.518 47.402 114.802 47.723 115.133C48.1548 115.644 48.5461 116.188 48.8933 116.759L50.0635 118.725H47.6762L46.2135 116.537C45.8901 116.021 45.5303 115.528 45.1368 115.063C44.9731 114.873 44.7637 114.728 44.5283 114.642C44.1967 114.552 43.8535 114.512 43.5102 114.525H43.1007V118.725H41.0644ZM43.1007 112.875H44.5985C45.2095 112.906 45.8221 112.867 46.4241 112.758C46.6582 112.688 46.8581 112.534 46.9858 112.325C47.133 112.104 47.2067 111.842 47.1965 111.576C47.2086 111.28 47.113 110.989 46.9273 110.757C46.7279 110.54 46.4588 110.399 46.1666 110.36C46.0028 110.36 45.4996 110.36 44.6805 110.36H43.1007V112.875ZM50.8007 113.717C50.7734 112.837 50.9288 111.961 51.2571 111.143C51.484 110.631 51.8011 110.163 52.1933 109.763C52.5608 109.375 53.0025 109.065 53.4923 108.85C54.181 108.578 54.9165 108.442 55.6572 108.453C56.3057 108.43 56.952 108.541 57.5559 108.779C58.1597 109.016 58.7084 109.375 59.1679 109.833C60.0288 110.92 60.4973 112.266 60.4973 113.653C60.4973 115.04 60.0288 116.386 59.1679 117.473C58.7105 117.934 58.1622 118.295 57.5578 118.532C56.9534 118.77 56.3061 118.879 55.6572 118.853C55.0091 118.881 54.3623 118.773 53.758 118.538C53.1536 118.302 52.6049 117.943 52.1465 117.485C51.2224 116.472 50.7383 115.134 50.8007 113.764V113.717ZM52.9072 113.694C52.8419 114.625 53.1256 115.546 53.7029 116.28C53.9517 116.564 54.2599 116.789 54.6057 116.941C54.9515 117.093 55.3265 117.166 55.704 117.157C56.0791 117.169 56.4522 117.098 56.7963 116.948C57.1404 116.799 57.4469 116.574 57.6934 116.291C58.2649 115.542 58.5437 114.61 58.4774 113.671C58.5471 112.745 58.2766 111.826 57.7168 111.085C57.4541 110.816 57.1401 110.602 56.7935 110.456C56.4468 110.31 56.0744 110.234 55.6982 110.234C55.3219 110.234 54.9495 110.31 54.6029 110.456C54.2562 110.602 53.9422 110.816 53.6795 111.085C53.108 111.829 52.8328 112.759 52.9072 113.694ZM62.152 108.675H65.8616C66.5068 108.652 67.1521 108.715 67.7808 108.862C68.3547 109.036 68.8744 109.354 69.2904 109.786C69.7241 110.257 70.0514 110.816 70.2499 111.424C70.4853 112.181 70.596 112.972 70.5776 113.764C70.5962 114.486 70.4933 115.206 70.2733 115.893C70.0665 116.566 69.6966 117.177 69.1967 117.672C68.79 118.048 68.3012 118.324 67.7691 118.479C67.1859 118.637 66.5825 118.708 65.9786 118.69H62.152V108.675ZM64.1882 110.371V117.028H65.6978C66.0901 117.042 66.4827 117.01 66.868 116.935C67.1717 116.864 67.4531 116.719 67.6871 116.513C67.9484 116.249 68.1308 115.917 68.2137 115.554C68.3727 114.951 68.4436 114.329 68.4244 113.706C68.446 113.102 68.3749 112.498 68.2137 111.916C68.1078 111.549 67.9105 111.215 67.6403 110.945C67.3757 110.706 67.0528 110.54 66.7042 110.465C66.1539 110.387 65.598 110.356 65.0424 110.371H64.1882ZM72.2978 108.675H74.3223V114.115C74.3022 114.678 74.3296 115.242 74.4043 115.8C74.4812 116.196 74.7021 116.551 75.0245 116.794C75.4179 117.057 75.8862 117.184 76.3585 117.157C76.8225 117.191 77.2845 117.068 77.6692 116.806C77.9473 116.594 78.1353 116.285 78.1958 115.94C78.2647 115.374 78.2921 114.803 78.2777 114.232V108.675H80.3139V113.951C80.3377 114.809 80.2828 115.666 80.1501 116.513C80.0488 116.976 79.8404 117.409 79.5416 117.777C79.2186 118.135 78.8184 118.415 78.3713 118.596C77.7527 118.818 77.0975 118.922 76.4404 118.9C75.6956 118.935 74.9513 118.82 74.2521 118.561C73.8001 118.373 73.399 118.08 73.0819 117.707C72.8031 117.366 72.6069 116.966 72.5085 116.537C72.3549 115.696 72.2882 114.841 72.3095 113.986L72.2978 108.675ZM88.8917 115.028L90.8576 115.659C90.6366 116.618 90.1061 117.477 89.3481 118.105C88.442 118.738 87.3409 119.03 86.24 118.929C85.1391 118.829 84.1093 118.342 83.3331 117.555C82.4288 116.524 81.9664 115.179 82.0458 113.811C81.9474 112.387 82.4093 110.98 83.3331 109.892C83.7792 109.415 84.3254 109.043 84.9323 108.802C85.5393 108.561 86.1921 108.458 86.8438 108.499C87.9468 108.453 89.0233 108.844 89.8396 109.587C90.342 110.105 90.6975 110.747 90.8694 111.448L88.8566 111.927C88.7643 111.439 88.4996 111.001 88.1108 110.691C87.722 110.382 87.2349 110.223 86.7385 110.243C86.3956 110.23 86.0543 110.294 85.7402 110.432C85.426 110.57 85.1472 110.777 84.9246 111.038C84.3913 111.794 84.1426 112.714 84.2225 113.635C84.1352 114.593 84.3789 115.551 84.9129 116.35C85.1283 116.611 85.4006 116.819 85.7088 116.959C86.0171 117.099 86.3532 117.167 86.6916 117.157C87.2051 117.173 87.7045 116.988 88.0842 116.642C88.507 116.199 88.7811 115.634 88.8683 115.028H88.8917ZM94.8715 118.725V110.371H91.8875V108.675H99.8801V110.371H96.896V118.725H94.8715ZM101.132 118.725V108.675H103.157V118.725H101.132ZM104.643 113.764C104.616 112.884 104.771 112.008 105.099 111.19C105.326 110.678 105.643 110.21 106.036 109.81C106.403 109.422 106.845 109.111 107.334 108.897C108.023 108.624 108.759 108.489 109.499 108.499C110.148 108.477 110.794 108.588 111.398 108.825C112.002 109.063 112.551 109.422 113.01 109.88C113.871 110.967 114.339 112.313 114.339 113.7C114.339 115.086 113.871 116.432 113.01 117.52C112.553 117.981 112.004 118.341 111.4 118.579C110.796 118.817 110.148 118.926 109.499 118.9C108.851 118.928 108.205 118.82 107.6 118.585C106.996 118.349 106.447 117.99 105.989 117.531C105.53 117.022 105.176 116.427 104.949 115.78C104.722 115.134 104.626 114.448 104.666 113.764H104.643ZM106.738 113.694C106.669 114.623 106.949 115.545 107.522 116.28C107.77 116.564 108.079 116.789 108.425 116.941C108.77 117.093 109.145 117.166 109.523 117.157C109.898 117.169 110.271 117.098 110.615 116.948C110.959 116.799 111.266 116.574 111.512 116.291C112.084 115.542 112.362 114.61 112.296 113.671C112.366 112.745 112.095 111.826 111.536 111.085C111.283 110.805 110.971 110.585 110.623 110.439C110.275 110.293 109.9 110.226 109.523 110.243C109.143 110.228 108.766 110.298 108.416 110.445C108.066 110.593 107.753 110.815 107.498 111.097C106.934 111.839 106.663 112.764 106.738 113.694ZM116.006 118.725V108.675H117.972L122.091 115.39V108.675H123.975V118.725H121.951L117.902 112.173V118.725H116.006ZM31.6675 125.054H35.3537C35.9951 125.031 36.6366 125.094 37.2612 125.241C37.8393 125.413 38.3633 125.732 38.7825 126.165C39.2163 126.636 39.5436 127.195 39.7421 127.803C39.9718 128.562 40.0824 129.351 40.0698 130.143C40.085 130.866 39.9782 131.586 39.7538 132.272C39.5469 132.945 39.1771 133.556 38.6772 134.051C38.2751 134.427 37.79 134.704 37.2612 134.858C36.6738 135.015 36.0668 135.086 35.4591 135.069H31.6909L31.6675 125.054ZM33.692 126.75V133.407H35.2133C35.6057 133.42 35.9982 133.388 36.3835 133.314C36.6847 133.246 36.963 133.101 37.191 132.893C37.4518 132.626 37.6375 132.295 37.7293 131.933C37.8882 131.33 37.9592 130.708 37.9399 130.085C37.9615 129.481 37.8905 128.877 37.7293 128.295C37.6202 127.929 37.4234 127.596 37.1559 127.324C36.8883 127.082 36.561 126.917 36.208 126.844C35.6578 126.765 35.1018 126.734 34.5463 126.75H33.692ZM41.8368 135.104V125.054H49.2912V126.75H43.873V128.985H48.9167V130.67H43.873V133.407H49.4901V135.104H41.8368ZM61.5551 131.407L63.5211 132.038C63.3001 132.997 62.7696 133.856 62.0115 134.484C61.1079 135.098 60.0176 135.378 58.9297 135.273C57.8418 135.168 56.8248 134.686 56.0551 133.91C55.1476 132.881 54.6811 131.537 54.7561 130.167C54.6671 128.749 55.1329 127.352 56.0551 126.271C56.4909 125.81 57.0202 125.447 57.6074 125.207C58.1947 124.967 58.8264 124.855 59.4604 124.879C60.5636 124.831 61.6407 125.222 62.4562 125.967C62.9669 126.478 63.3237 127.123 63.486 127.827L61.4849 128.306C61.3817 127.821 61.1178 127.384 60.736 127.066C60.3437 126.766 59.8606 126.609 59.3668 126.622C59.0227 126.612 58.6807 126.678 58.3652 126.816C58.0496 126.953 57.7683 127.159 57.5413 127.417C57.0176 128.177 56.7736 129.095 56.8508 130.014C56.769 130.989 57.0297 131.961 57.5881 132.764C57.8035 133.025 58.0758 133.233 58.384 133.373C58.6923 133.513 59.0284 133.581 59.3668 133.571C59.8801 133.586 60.379 133.401 60.7594 133.056C61.1891 132.602 61.4672 132.026 61.5551 131.407ZM65.2765 135.104V125.054H67.301V129.008H71.2797V125.054H73.3042V135.104H71.2797V130.705H67.301V135.104H65.2765ZM84.5033 135.104H82.2916L81.4139 132.764H77.4L76.5692 135.104H74.4159L78.3362 125.054H80.4777L84.5033 135.104ZM80.7703 131.126L79.3777 127.394L78.0203 131.126H80.7703ZM85.6735 135.104V125.136H87.7097V133.407H92.6949V135.104H85.6735ZM94.2045 135.104V125.054H101.659V126.75H96.2056V128.985H101.249V130.67H96.2056V133.407H101.811V135.104H94.2045ZM103.566 125.054H105.567V130.494C105.552 131.057 105.575 131.62 105.638 132.179C105.715 132.575 105.936 132.93 106.258 133.173C106.655 133.438 107.127 133.565 107.604 133.536C108.064 133.569 108.521 133.445 108.903 133.185C109.181 132.973 109.369 132.664 109.429 132.319C109.504 131.753 109.535 131.182 109.523 130.611V125.054H111.547V130.33C111.577 131.188 111.522 132.046 111.383 132.893C111.287 133.357 111.078 133.791 110.775 134.156C110.452 134.514 110.052 134.794 109.605 134.975C108.986 135.197 108.331 135.301 107.674 135.279C106.929 135.313 106.185 135.198 105.485 134.94C105.033 134.752 104.632 134.459 104.315 134.086C104.036 133.745 103.84 133.345 103.742 132.916C103.588 132.075 103.522 131.22 103.543 130.365L103.566 125.054ZM113.736 135.104V125.054H118.007C118.796 125.018 119.587 125.109 120.347 125.323C120.833 125.504 121.245 125.842 121.518 126.282C121.815 126.759 121.969 127.312 121.962 127.874C121.986 128.56 121.747 129.229 121.295 129.745C120.761 130.277 120.057 130.604 119.306 130.67C119.703 130.897 120.066 131.181 120.383 131.512C120.819 132.019 121.21 132.563 121.553 133.138L122.781 135.104H120.347L118.885 132.916C118.561 132.4 118.202 131.907 117.808 131.442C117.642 131.254 117.433 131.11 117.199 131.021C116.868 130.931 116.525 130.891 116.181 130.904H115.772V135.104H113.736ZM115.772 129.254H117.27C117.881 129.285 118.493 129.246 119.095 129.137C119.329 129.067 119.529 128.913 119.657 128.704C119.804 128.483 119.878 128.221 119.868 127.955C119.88 127.659 119.784 127.368 119.598 127.136C119.396 126.917 119.122 126.776 118.826 126.739C118.662 126.739 118.171 126.739 117.352 126.739H115.772V129.254ZM31.7728 151.483V141.433H36.2314C36.9244 141.405 37.617 141.496 38.2793 141.702C38.7677 141.879 39.1807 142.217 39.4495 142.661C39.7298 143.115 39.8758 143.638 39.8708 144.171C39.8881 144.839 39.6398 145.487 39.1804 145.972C38.5944 146.52 37.8387 146.85 37.0389 146.908C37.3276 147.042 37.5987 147.211 37.8463 147.411C38.2654 147.81 38.6347 148.258 38.9463 148.745L40.6315 151.483H38.958L37.6942 149.389C37.308 148.792 36.9804 148.324 36.7346 148.008C36.546 147.75 36.3167 147.525 36.0559 147.341C35.8707 147.216 35.6646 147.125 35.4474 147.072C35.2022 147.048 34.9553 147.048 34.7101 147.072H33.1069V151.483H31.7728ZM33.1069 145.867H35.9623C36.4454 145.887 36.9283 145.824 37.3899 145.68C37.7103 145.573 37.9861 145.364 38.174 145.083C38.3489 144.811 38.4423 144.494 38.4431 144.171C38.4484 143.949 38.4038 143.728 38.3127 143.526C38.2215 143.323 38.0862 143.144 37.9165 143.001C37.4501 142.651 36.87 142.489 36.2899 142.544H33.1069V145.867ZM41.9304 151.483V141.433H49.1975V142.603H43.2645V145.68H48.8231V146.85H43.2645V150.313H49.3965V151.483H41.9304ZM51.2922 151.483V141.433H52.6614L57.9391 149.318V141.433H59.2147V151.483H57.8455L52.5678 143.586V151.483H51.2922ZM61.0519 146.592C60.9645 145.159 61.4484 143.75 62.3977 142.673C62.8466 142.199 63.3926 141.826 63.9985 141.582C64.6043 141.338 65.2558 141.227 65.9084 141.258C66.7922 141.246 67.6623 141.477 68.4244 141.924C69.1601 142.36 69.7505 143.003 70.1212 143.773C70.52 144.617 70.7201 145.542 70.7063 146.475C70.7273 147.421 70.5142 148.358 70.0861 149.201C69.7078 149.978 69.0989 150.62 68.3425 151.038C67.5968 151.448 66.7592 151.661 65.9084 151.658C65.0138 151.672 64.1336 151.433 63.369 150.968C62.6316 150.524 62.0414 149.873 61.6722 149.096C61.2617 148.324 61.0373 147.467 61.0168 146.592H61.0519ZM62.4211 146.592C62.362 147.637 62.7101 148.665 63.3924 149.459C63.7112 149.79 64.0938 150.054 64.5171 150.234C64.9403 150.414 65.3957 150.507 65.8557 150.507C66.3158 150.507 66.7711 150.414 67.1944 150.234C67.6177 150.054 68.0002 149.79 68.3191 149.459C69.0126 148.621 69.36 147.549 69.2904 146.464C69.3072 145.728 69.1634 144.997 68.8691 144.323C68.6266 143.746 68.2196 143.254 67.6988 142.907C67.1629 142.571 66.5412 142.396 65.9084 142.404C65.4584 142.395 65.0111 142.477 64.5931 142.643C64.175 142.81 63.7946 143.059 63.4743 143.375C63.0827 143.811 62.7842 144.322 62.597 144.877C62.4099 145.433 62.3381 146.02 62.386 146.604L62.4211 146.592ZM78.9798 141.421H80.3139V147.271C80.3445 148.089 80.2256 148.906 79.9628 149.681C79.724 150.29 79.2871 150.801 78.7224 151.132C78.011 151.536 77.1995 151.731 76.3819 151.693C75.573 151.727 74.7685 151.558 74.0415 151.202C73.4663 150.896 73.0154 150.4 72.7659 149.798C72.4771 148.988 72.346 148.13 72.3798 147.271V141.421H73.7138V147.271C73.7008 147.905 73.7877 148.536 73.9713 149.143C74.1316 149.548 74.43 149.884 74.8138 150.091C75.2601 150.327 75.76 150.444 76.2649 150.43C76.6411 150.467 77.021 150.427 77.3812 150.313C77.7414 150.198 78.0744 150.011 78.3596 149.763C78.8589 149.012 79.0784 148.109 78.9798 147.212V141.421ZM85.4044 151.471L81.5075 141.421H82.9469L85.5682 148.722C85.7672 149.307 85.9544 149.892 86.0948 150.371C86.247 149.821 86.4225 149.272 86.6331 148.722L89.3481 141.421H90.7055L86.7385 151.483L85.4044 151.471ZM91.9226 151.471V141.421H99.1897V142.591H93.2566V145.668H98.8152V146.838H93.2566V150.313H99.4237V151.483L91.9226 151.471ZM101.214 151.471V141.421H102.537V150.313H107.487V151.483L101.214 151.471ZM107.978 151.471L111.84 141.421H113.268L117.387 151.471H115.865L114.695 148.429H110.494L109.394 151.471H107.978ZM110.88 147.341H114.286L113.232 144.557C112.916 143.714 112.682 143.024 112.519 142.474C112.39 143.127 112.21 143.769 111.98 144.393L110.88 147.341ZM118.393 151.471V141.421H122.161C122.792 141.399 123.42 141.502 124.01 141.726C124.464 141.919 124.845 142.251 125.099 142.673C125.361 143.064 125.5 143.525 125.496 143.995C125.485 144.409 125.364 144.813 125.145 145.165C124.886 145.562 124.521 145.878 124.092 146.078C124.646 146.216 125.137 146.538 125.485 146.99C125.819 147.426 125.996 147.962 125.988 148.511C125.99 148.966 125.886 149.414 125.684 149.821C125.516 150.188 125.263 150.509 124.946 150.757C124.616 150.996 124.243 151.167 123.846 151.26C123.316 151.377 122.774 151.432 122.231 151.424L118.393 151.471ZM119.727 145.621H121.892C122.321 145.641 122.75 145.602 123.168 145.504C123.469 145.424 123.736 145.247 123.928 145.001C124.109 144.745 124.199 144.437 124.186 144.124C124.189 143.816 124.108 143.512 123.952 143.246C123.795 142.993 123.548 142.809 123.261 142.732C122.761 142.605 122.244 142.553 121.728 142.58H119.727V145.621ZM119.727 150.301H122.231C122.532 150.32 122.832 150.32 123.133 150.301C123.402 150.257 123.66 150.161 123.893 150.02C124.11 149.885 124.287 149.696 124.408 149.47C124.541 149.206 124.609 148.913 124.607 148.616C124.618 148.269 124.515 147.928 124.314 147.645C124.126 147.363 123.844 147.156 123.519 147.06C123.039 146.925 122.542 146.866 122.044 146.885H119.704L119.727 150.301ZM127.755 151.471V141.421H129.089V150.313H134.039V151.483L127.755 151.471ZM135.654 151.471V141.421H142.933V142.591H136.988V145.668H142.547V146.838H136.988V150.313H143.155V151.483L135.654 151.471ZM31.3867 162.96C31.2992 161.527 31.7831 160.118 32.7324 159.041C33.1813 158.566 33.7273 158.194 34.3332 157.949C34.939 157.705 35.5905 157.594 36.2431 157.625C37.1271 157.612 37.9977 157.842 38.7591 158.292C39.4948 158.727 40.0853 159.37 40.4559 160.14C40.8604 160.983 41.0608 161.909 41.041 162.843C41.0613 163.787 40.8526 164.723 40.4325 165.569C40.0492 166.346 39.4365 166.987 38.6772 167.406C37.9315 167.815 37.0939 168.028 36.2431 168.026C35.3487 168.038 34.4688 167.799 33.7037 167.335C32.9663 166.892 32.3761 166.241 32.0069 165.463C31.5982 164.695 31.3739 163.842 31.3516 162.971L31.3867 162.96ZM32.7558 162.96C32.6967 164.005 33.0449 165.032 33.7271 165.826C34.046 166.158 34.4285 166.421 34.8518 166.602C35.2751 166.782 35.7304 166.875 36.1904 166.875C36.6505 166.875 37.1058 166.782 37.5291 166.602C37.9524 166.421 38.3349 166.158 38.6538 165.826C39.3527 164.991 39.7008 163.917 39.6251 162.831C39.6398 162.097 39.5003 161.367 39.2155 160.69C38.9594 160.109 38.5372 159.617 38.002 159.276C37.4669 158.935 36.8427 158.759 36.208 158.771C35.758 158.763 35.3107 158.844 34.8927 159.011C34.4746 159.177 34.0942 159.426 33.7739 159.742C33.3871 160.183 33.0941 160.697 32.913 161.254C32.7319 161.811 32.6665 162.4 32.7207 162.983L32.7558 162.96ZM49.3146 157.789H50.5667V163.638C50.5948 164.455 50.48 165.271 50.2273 166.048C49.9847 166.655 49.5487 167.165 48.9869 167.499C48.2746 167.901 47.4638 168.096 46.6464 168.061C45.8372 168.098 45.0318 167.929 44.306 167.569C43.7252 167.267 43.2694 166.77 43.0187 166.165C42.7299 165.355 42.5988 164.498 42.6326 163.638V157.789H43.9666V163.638C43.9398 164.29 44.0188 164.942 44.2007 165.569C44.3644 165.972 44.6619 166.307 45.0432 166.516C45.4895 166.753 45.9894 166.87 46.4943 166.856C46.8705 166.893 47.2504 166.853 47.6106 166.739C47.9708 166.624 48.3038 166.437 48.589 166.189C49.0883 165.438 49.3078 164.535 49.2092 163.638L49.3146 157.789ZM56.7806 167.838V157.789H60.2913C60.8913 157.774 61.4913 157.821 62.0817 157.929C62.6237 158.051 63.1291 158.299 63.5562 158.654C64.0907 159.115 64.4944 159.708 64.7265 160.374C65.0007 161.123 65.1356 161.916 65.1243 162.714C65.1338 163.398 65.0431 164.08 64.8552 164.738C64.7084 165.264 64.4751 165.762 64.1648 166.212C63.9154 166.567 63.6066 166.875 63.252 167.125C62.8935 167.355 62.4974 167.522 62.0817 167.616C61.5567 167.741 61.0181 167.8 60.4785 167.792L56.7806 167.838ZM58.103 166.668H60.2562C60.7813 166.682 61.3056 166.619 61.8126 166.481C62.1488 166.376 62.4568 166.196 62.7137 165.955C63.0546 165.597 63.307 165.164 63.4509 164.691C63.6419 164.062 63.7328 163.407 63.7201 162.749C63.7696 161.909 63.5874 161.071 63.1935 160.327C62.922 159.806 62.4801 159.393 61.9413 159.157C61.3842 158.99 60.8023 158.918 60.2211 158.947H58.103V166.668ZM66.9499 167.838V157.789H74.217V158.959H68.284V162.036H73.8425V163.205H68.284V166.692H74.4511V167.862L66.9499 167.838ZM31.8431 184.217V174.168H36.3016C36.9956 174.137 37.6894 174.232 38.3495 174.449C38.8395 174.616 39.2541 174.952 39.5197 175.396C39.8 175.849 39.9461 176.373 39.941 176.905C39.9583 177.574 39.71 178.221 39.2506 178.707C38.6646 179.254 37.9089 179.585 37.1091 179.643C37.3978 179.777 37.669 179.946 37.9165 180.146C38.3356 180.545 38.7049 180.993 39.0166 181.48L40.6315 184.241H38.958L37.6942 182.147C37.308 181.55 36.9804 181.082 36.7346 180.766C36.546 180.509 36.3167 180.283 36.0559 180.099C35.8707 179.974 35.6646 179.883 35.4474 179.83C35.2022 179.806 34.9553 179.806 34.7101 179.83H33.1069V184.241L31.8431 184.217ZM33.1771 178.602H36.0325C36.5156 178.622 36.9985 178.558 37.4602 178.415C37.7805 178.308 38.0563 178.098 38.2442 177.818C38.4192 177.546 38.5125 177.229 38.5134 176.905C38.5186 176.683 38.474 176.463 38.3829 176.261C38.2917 176.058 38.1564 175.879 37.9868 175.735C37.5203 175.386 36.9403 175.223 36.3601 175.279H33.1069L33.1771 178.602ZM42.0006 184.217V174.168H49.2677V175.338H43.2645V178.415H48.8231V179.585H43.2645V183.071H49.3965V184.241L42.0006 184.217ZM44.7156 173.571L45.6283 171.652H47.255L45.7454 173.571H44.7156ZM58.4423 180.731L59.7764 181.059C59.5682 182.039 59.0365 182.92 58.2668 183.562C57.5083 184.15 56.5694 184.456 55.6104 184.428C54.6826 184.468 53.7634 184.236 52.9657 183.761C52.2632 183.295 51.7201 182.626 51.4093 181.842C51.0543 180.99 50.8752 180.075 50.8827 179.152C50.8619 178.205 51.0664 177.266 51.4795 176.414C51.854 175.664 52.4506 175.047 53.188 174.647C53.9368 174.235 54.7789 174.021 55.6338 174.027C56.5423 173.998 57.4351 174.269 58.1732 174.799C58.8755 175.343 59.3776 176.104 59.6009 176.964L58.2902 177.268C58.1254 176.641 57.7696 176.081 57.2721 175.665C56.7875 175.323 56.2033 175.15 55.6104 175.174C54.9212 175.149 54.2416 175.341 53.6678 175.724C53.1505 176.093 52.7649 176.617 52.5678 177.221C52.1266 178.578 52.1472 180.042 52.6263 181.386C52.8475 181.978 53.2591 182.48 53.7965 182.814C54.3115 183.125 54.9031 183.287 55.5051 183.281C56.1903 183.302 56.8597 183.073 57.3891 182.638C57.9498 182.143 58.3219 181.469 58.4423 180.731ZM68.0148 174.203H69.3489V180.052C69.3795 180.87 69.2605 181.687 68.9978 182.463C68.763 183.074 68.3251 183.586 67.7574 183.913C67.0464 184.319 66.2346 184.514 65.4169 184.475C64.608 184.509 63.8034 184.34 63.0764 183.983C62.5013 183.678 62.0503 183.181 61.8009 182.58C61.5121 181.77 61.381 180.912 61.4147 180.052V174.203H62.7488V180.052C62.7219 180.704 62.801 181.356 62.9828 181.983C63.1431 182.388 63.4416 182.724 63.8254 182.931C64.2717 183.167 64.7716 183.284 65.2765 183.27C65.6527 183.307 66.0325 183.267 66.3927 183.153C66.753 183.038 67.0859 182.851 67.3712 182.603C67.8704 181.852 68.0899 180.949 67.9914 180.052L68.0148 174.203ZM71.5255 184.253V174.203H75.3287C75.8375 174.194 76.3461 174.226 76.85 174.296C77.2945 174.36 77.7187 174.524 78.0905 174.776C78.4419 175.016 78.7211 175.348 78.8979 175.735C79.1016 176.167 79.2056 176.639 79.2022 177.116C79.2212 177.916 78.9274 178.693 78.383 179.28C77.9802 179.621 77.5117 179.876 77.0065 180.029C76.5013 180.182 75.9701 180.23 75.4458 180.169H72.8596V184.241L71.5255 184.253ZM72.8596 178.976H75.4575C76.1076 179.041 76.7596 178.871 77.2947 178.496C77.4789 178.326 77.6228 178.117 77.7159 177.885C77.8091 177.652 77.8491 177.401 77.833 177.151C77.8467 176.766 77.7314 176.387 77.5053 176.075C77.3141 175.778 77.0171 175.564 76.6745 175.478C76.2657 175.402 75.8497 175.37 75.434 175.384H72.8596V178.976ZM80.9926 184.241V174.191H88.2598V175.361H82.3267V178.438H87.8853V179.608H82.3267V183.071H88.4938V184.241H80.9926ZM83.7427 173.571L84.6554 171.652H86.2704L84.7608 173.571H83.7427ZM90.3545 184.241V174.191H94.813C95.5032 174.16 96.1932 174.255 96.8492 174.472C97.3382 174.641 97.7523 174.977 98.0195 175.42C98.2997 175.873 98.4458 176.396 98.4407 176.929C98.458 177.597 98.2097 178.245 97.7503 178.73C97.1643 179.278 96.4086 179.608 95.6088 179.666C95.8954 179.798 96.1631 179.967 96.4045 180.169C96.8513 180.561 97.2448 181.009 97.5748 181.503L99.3184 184.241H97.645L96.2056 182.147C95.8077 181.55 95.4918 181.082 95.2343 180.766C95.0519 180.503 94.8216 180.277 94.5556 180.099C94.3746 179.974 94.1724 179.883 93.9588 179.83C93.7136 179.806 93.4667 179.806 93.2215 179.83H91.6768V184.241H90.3545ZM91.6885 178.625H94.5439C95.027 178.645 95.5099 178.582 95.9716 178.438C96.2902 178.328 96.5652 178.119 96.7556 177.841C96.9305 177.569 97.0239 177.252 97.0247 176.929C97.03 176.707 96.9854 176.486 96.8943 176.284C96.8031 176.082 96.6678 175.902 96.4982 175.759C96.0288 175.416 95.451 175.254 94.8715 175.303H91.6885V178.625ZM99.3769 184.241L103.239 174.191H104.678L108.786 184.241H107.276L106.106 181.199H101.905L100.805 184.241H99.3769ZM102.279 180.111H105.684L104.643 177.327C104.315 176.484 104.081 175.794 103.929 175.244C103.796 175.897 103.612 176.539 103.379 177.163L102.279 180.111ZM111.36 184.241V175.373H108.048V174.203H116.018V175.373H112.694V184.241H111.36ZM117.621 184.241V174.191H118.943V184.241H117.621ZM120.897 179.351C120.81 177.918 121.294 176.508 122.243 175.431C122.692 174.957 123.238 174.585 123.844 174.34C124.45 174.096 125.101 173.985 125.754 174.016C126.638 174.002 127.508 174.233 128.27 174.682C129.006 175.118 129.596 175.761 129.967 176.531C130.371 177.373 130.572 178.299 130.552 179.234C130.572 180.178 130.363 181.113 129.943 181.959C129.557 182.735 128.945 183.375 128.188 183.796C127.442 184.206 126.605 184.419 125.754 184.416C124.859 184.429 123.98 184.189 123.214 183.726C122.477 183.282 121.887 182.631 121.518 181.854C121.107 181.082 120.883 180.225 120.862 179.351H120.897ZM122.267 179.351C122.207 180.396 122.556 181.423 123.238 182.217C123.557 182.548 123.939 182.812 124.363 182.992C124.786 183.173 125.241 183.265 125.701 183.265C126.161 183.265 126.617 183.173 127.04 182.992C127.463 182.812 127.846 182.548 128.165 182.217C128.858 181.379 129.205 180.307 129.136 179.222C129.153 178.486 129.009 177.755 128.715 177.081C128.472 176.504 128.065 176.012 127.544 175.665C127.008 175.329 126.387 175.154 125.754 175.162C125.304 175.153 124.857 175.235 124.439 175.401C124.02 175.568 123.64 175.817 123.32 176.133C122.928 176.569 122.63 177.08 122.442 177.635C122.255 178.191 122.184 178.778 122.231 179.362L122.267 179.351ZM132.214 184.229V174.179H133.583L138.86 182.065V174.179H140.136V184.241H138.767L133.489 176.344V184.241L132.214 184.229Z" fill="#000074"/>
<path d="M535.647 558.619H149.471C145.961 558.619 143.059 555.25 143.059 551.108L143.129 408.868" stroke="#1D70B7" stroke-width="4.92" stroke-miterlimit="10"/>
<path d="M483.551 545.75L484.721 379.619" stroke="#E20613" stroke-width="5" stroke-miterlimit="10"/>
<path d="M472.374 558.619C472.784 472.044 473.825 391.377 471.848 380.789" stroke="#1D70B7" stroke-width="5" stroke-miterlimit="10"/>
<path d="M261.207 545.75L262.377 468.534" stroke="#E20613" stroke-width="5" stroke-miterlimit="10"/>
<path d="M250.676 558.619C253.25 465.024 253.016 463.854 253.016 463.854" stroke="#1D70B7" stroke-width="5" stroke-miterlimit="10"/>
<path d="M104.397 422.907L103.11 544.088C103.052 547.989 101.45 551.707 98.6562 554.43C95.8622 557.154 92.1032 558.66 88.2015 558.619H3.75781" stroke="#1D70B7" stroke-width="5" stroke-miterlimit="10"/>
<path d="M113.43 421.737L113.758 536.613C113.758 543.574 105.157 549.26 94.5663 549.26H8.4375" stroke="#E20613" stroke-width="5" stroke-miterlimit="10"/>
<path d="M529.963 545.75H157.456C154.062 545.75 151.207 542.369 151.207 538.215V408.868" stroke="#E20613" stroke-width="4.93" stroke-miterlimit="10"/>
<path d="M418.146 366.27H456.553V341.012H418.146V366.27Z" fill="url(#paint0_linear_2110_20624)" stroke="#29B8CE" stroke-miterlimit="10"/>
<path d="M518.061 393.881V405.58" stroke="#29B8CE" stroke-width="1.48" stroke-miterlimit="10" stroke-linecap="round"/>
<path d="M518.06 395.823C518.438 395.8 518.801 395.667 519.105 395.44C519.409 395.214 519.639 394.903 519.769 394.547C519.898 394.19 519.92 393.804 519.832 393.435C519.745 393.067 519.551 392.732 519.275 392.472C519 392.212 518.654 392.038 518.281 391.972C517.907 391.906 517.523 391.951 517.175 392.1C516.826 392.25 516.53 392.499 516.321 392.815C516.112 393.131 516.001 393.502 516 393.881C516.008 394.144 516.067 394.402 516.174 394.642C516.282 394.882 516.436 395.098 516.627 395.279C516.818 395.459 517.043 395.6 517.289 395.693C517.535 395.787 517.797 395.831 518.06 395.823Z" fill="#29B8CE"/>
<path d="M518.06 407.358C518.438 407.336 518.801 407.203 519.105 406.976C519.409 406.749 519.639 406.438 519.769 406.082C519.898 405.726 519.92 405.34 519.832 404.971C519.745 404.602 519.551 404.267 519.275 404.007C519 403.747 518.654 403.573 518.281 403.507C517.907 403.441 517.523 403.486 517.175 403.636C516.826 403.786 516.53 404.034 516.321 404.351C516.112 404.667 516.001 405.037 516 405.416C516.008 405.679 516.067 405.938 516.174 406.178C516.282 406.418 516.436 406.634 516.627 406.814C516.818 406.994 517.043 407.135 517.289 407.229C517.535 407.322 517.797 407.366 518.06 407.358Z" fill="#29B8CE"/>
<path d="M395.045 430.699V212.214H188.652V429.727" fill="#EFD57F"/>
<path opacity="0.75" d="M250.172 429.657H338.735V283.685H250.172V429.657Z" fill="#FFDEDE"/>
<path d="M288.579 423.176H283.652" stroke="#F28C00" stroke-width="2" stroke-miterlimit="10"/>
<path d="M297.484 426.674H283.242" stroke="#1E808F" stroke-width="2" stroke-miterlimit="10"/>
<path d="M289.526 334.893H284.611" stroke="#F28C00" stroke-width="2" stroke-miterlimit="10"/>
<path d="M295.822 338.391H284.201" stroke="#1E808F" stroke-width="2" stroke-miterlimit="10"/>
<path d="M271.492 473.413H290.754" stroke="#F28C00" stroke-width="3" stroke-miterlimit="10" stroke-linecap="round"/>
<path d="M290.463 473.214V287.195" stroke="#F28C00" stroke-width="3" stroke-miterlimit="10" stroke-linecap="round"/>
<path d="M275.039 480.807L296.911 480.935" stroke="#1E808F" stroke-width="3" stroke-miterlimit="10" stroke-linecap="round"/>
<path d="M297.484 480.233V287.195" stroke="#1E808F" stroke-width="3" stroke-miterlimit="10" stroke-linecap="round"/>
<path d="M308.016 488.423V289.535" stroke="#E5332A" stroke-width="3" stroke-miterlimit="10" stroke-linecap="round"/>
<path d="M274.08 488.423L308.017 488.552" stroke="#E5332A" stroke-width="3" stroke-miterlimit="10" stroke-linecap="round"/>
<path d="M308.121 424.346L314.955 424.475" stroke="#E5332A" stroke-width="2" stroke-miterlimit="10" stroke-linecap="round"/>
<path d="M307.84 336.191L311.807 336.063" stroke="#E5332A" stroke-width="2" stroke-miterlimit="10" stroke-linecap="round"/>
<path d="M335.318 429.657L333.41 427.844H315.775L313.996 429.657V410.038H335.587L335.318 429.657Z" fill="#F9A64B"/>
<path d="M324.797 405.545C324.797 402.819 324.926 401.134 324.107 399.45C323.838 398.935 321.65 396.993 321.1 400.234" stroke="url(#paint1_radial_2110_20624)" stroke-miterlimit="10" stroke-linecap="round"/>
<path d="M332.72 405.674C332.72 408.271 329.209 410.47 324.797 410.47C320.386 410.47 316.863 408.4 316.863 405.674" fill="white"/>
<path d="M314.546 334.249C314.546 319.988 314.406 311.307 315.225 302.486C315.494 299.631 323.019 296.004 326.026 302.872" stroke="url(#paint2_radial_2110_20624)" stroke-miterlimit="10" stroke-linecap="round"/>
<path d="M325.744 305.984C328.014 305.984 329.852 305.118 329.852 304.042C329.852 302.965 328.014 302.1 325.744 302.1C323.474 302.1 321.648 302.965 321.648 304.042C321.648 305.118 323.486 305.984 325.744 305.984Z" fill="url(#paint3_radial_2110_20624)"/>
<path d="M336.815 334.249V337.104C336.815 338.274 335.457 339.175 333.819 339.175H314.955C313.305 339.175 311.947 338.262 311.947 337.104V334.249" fill="white"/>
<path d="M244.822 510.301C244.822 513.67 261.766 513.811 261.766 513.811C261.766 513.811 278.313 514.068 277.904 510.301C277.494 506.534 277.904 459.736 277.904 464.147C277.904 468.558 261.205 467.364 261.205 467.364C261.205 467.364 244.658 467.236 244.822 464.124C244.962 461.292 244.822 507.06 244.822 510.301Z" fill="url(#paint4_linear_2110_20624)"/>
<path d="M261.09 468.394C270.078 468.394 277.357 467.107 277.357 465.539C277.357 463.971 270.078 462.684 261.09 462.684C252.103 462.684 244.824 463.96 244.824 465.539C244.824 467.118 252.103 468.394 261.09 468.394Z" fill="url(#paint5_linear_2110_20624)" stroke="url(#paint6_radial_2110_20624)" stroke-width="0.72" stroke-miterlimit="10"/>
<path d="M244.822 465.797C246.46 466.967 250.673 468.382 260.128 468.253C267.91 468.125 275.025 466.697 275.025 465.797C275.025 464.896 267.419 461.515 259.766 461.515C252.112 461.515 244.178 465.399 244.822 465.797Z" fill="url(#paint7_linear_2110_20624)"/>
<path d="M285.981 415.138H272.312V428.101H285.981V415.138Z" fill="white"/>
<path d="M275.729 427.587C275.454 427.572 275.192 427.461 274.991 427.272C274.79 427.084 274.662 426.831 274.629 426.557V417.607C274.657 417.336 274.784 417.086 274.986 416.904C275.188 416.721 275.451 416.621 275.723 416.621C275.995 416.621 276.258 416.721 276.46 416.904C276.662 417.086 276.789 417.336 276.817 417.607V426.557C276.785 426.829 276.658 427.081 276.459 427.269C276.261 427.457 276.002 427.569 275.729 427.587Z" fill="white" stroke="#1D1D1B" stroke-width="0.25" stroke-miterlimit="10"/>
<path d="M279.147 427.587C278.872 427.572 278.61 427.461 278.409 427.272C278.208 427.084 278.08 426.831 278.047 426.557V417.607C278.075 417.336 278.202 417.086 278.404 416.904C278.606 416.721 278.869 416.621 279.141 416.621C279.413 416.621 279.676 416.721 279.878 416.904C280.08 417.086 280.207 417.336 280.235 417.607V426.557C280.234 426.697 280.204 426.835 280.148 426.963C280.092 427.091 280.011 427.207 279.91 427.303C279.808 427.399 279.688 427.473 279.557 427.522C279.426 427.571 279.287 427.593 279.147 427.587Z" fill="white" stroke="#1D1D1B" stroke-width="0.25" stroke-miterlimit="10"/>
<path d="M282.692 427.587C282.419 427.569 282.16 427.457 281.961 427.269C281.762 427.081 281.636 426.829 281.604 426.557V417.607C281.632 417.336 281.759 417.086 281.961 416.904C282.163 416.721 282.426 416.621 282.698 416.621C282.97 416.621 283.232 416.721 283.434 416.904C283.636 417.086 283.764 417.336 283.792 417.607V426.557C283.759 426.831 283.631 427.084 283.43 427.272C283.228 427.461 282.967 427.572 282.692 427.587Z" fill="white" stroke="#1D1D1B" stroke-width="0.25" stroke-miterlimit="10"/>
<path d="M284.063 328.283H270.395V341.246H284.063V328.283Z" fill="white"/>
<path d="M273.67 340.86C273.395 340.842 273.135 340.728 272.936 340.537C272.737 340.347 272.612 340.092 272.582 339.818V330.751C272.61 330.481 272.737 330.23 272.94 330.048C273.142 329.866 273.404 329.765 273.676 329.765C273.948 329.765 274.211 329.866 274.413 330.048C274.615 330.23 274.742 330.481 274.77 330.751V339.69C274.784 339.841 274.765 339.993 274.715 340.136C274.665 340.279 274.586 340.41 274.482 340.521C274.378 340.631 274.252 340.719 274.113 340.777C273.973 340.835 273.822 340.863 273.67 340.86Z" fill="white" stroke="#1D1D1B" stroke-width="0.25" stroke-miterlimit="10"/>
<path d="M277.227 340.86C276.952 340.842 276.692 340.728 276.493 340.537C276.294 340.347 276.168 340.092 276.139 339.818V330.751C276.167 330.481 276.294 330.23 276.496 330.048C276.698 329.866 276.961 329.765 277.233 329.765C277.505 329.765 277.767 329.866 277.969 330.048C278.172 330.23 278.299 330.481 278.327 330.751V339.69C278.328 339.988 278.214 340.276 278.009 340.493C277.805 340.711 277.525 340.842 277.227 340.86Z" fill="white" stroke="#1D1D1B" stroke-width="0.25" stroke-miterlimit="10"/>
<path d="M280.784 340.86C280.507 340.845 280.244 340.732 280.042 340.541C279.841 340.35 279.714 340.094 279.684 339.818V330.751C279.712 330.481 279.839 330.23 280.041 330.048C280.243 329.866 280.506 329.765 280.778 329.765C281.05 329.765 281.312 329.866 281.514 330.048C281.717 330.23 281.844 330.481 281.872 330.751V339.69C281.873 339.986 281.761 340.272 281.559 340.489C281.357 340.706 281.08 340.839 280.784 340.86Z" fill="white" stroke="#1D1D1B" stroke-width="0.25" stroke-miterlimit="10"/>
<path d="M339.414 343.351L250.301 343.866" stroke="url(#paint8_linear_2110_20624)" stroke-width="4" stroke-miterlimit="10"/>
<path d="M339.414 287.054H250.477" stroke="url(#paint9_linear_2110_20624)" stroke-width="4" stroke-miterlimit="10"/>
<path d="M110.809 400.877H142.112V198.783H110.809V400.877Z" fill="#42A1C1"/>
<path d="M60 400.877H91.3036V198.783H60V400.877Z" fill="#42A1C1"/>
<path d="M49.3945 440.456H158.226V352.711H49.3945V440.456Z" fill="#42A1C1"/>
<path d="M56.7109 386.756H93.6199V366.528H56.7109V386.756Z" fill="#42A1C1"/>
<path d="M111 386.756H147.909V366.528H111V386.756Z" fill="#42A1C1"/>
<path d="M83 430.228H119.909V410H83V430.228Z" fill="#42A1C1"/>
<g opacity="0.77">
<path opacity="0.77" d="M568.977 437.976L555.156 437.531" stroke="white" stroke-miterlimit="10" stroke-dasharray="6.29 6.29"/>
</g>
<g opacity="0.77">
<path opacity="0.77" d="M391.102 437.976L377.281 437.531" stroke="white" stroke-miterlimit="10" stroke-dasharray="6.29 6.29"/>
</g>
<path d="M566.941 429.88L417.538 429.845L395.877 88.9265L551.33 89.6402L566.941 429.88Z" fill="#71B3EA"/>
<path d="M552.032 104.966L396.099 92.4245L395.689 86.0133L551.201 86.727L552.032 104.966Z" fill="#61A4DB"/>
<path d="M551.342 89.9326L395.888 89.2189L395.689 86.0133L551.201 86.727L551.342 89.9326Z" fill="#B7D7E8"/>
<path d="M395.432 81.9303L395.689 86.0134L551.201 86.727L553.471 82.6674L395.432 81.9303Z" fill="white"/>
<path d="M449.099 330.295L427.052 330.272L423.658 275.917L445.869 275.963L449.099 330.295Z" fill="#F1F8F9"/>
<path d="M445.401 291.851L444.57 277.952L425.191 277.917L426.057 291.816L445.401 291.851Z" fill="#42A1C1"/>
<path d="M426.174 293.606L428.327 328.306L447.577 328.33L445.506 293.629L426.174 293.606Z" fill="#42A1C1"/>
<path d="M498.166 330.342L476.142 330.319L473.1 276.01L495.287 276.057L498.166 330.342Z" fill="#F1F8F9"/>
<path d="M494.714 291.921L493.977 278.034L474.621 277.999L475.405 291.898L494.714 291.921Z" fill="#42A1C1"/>
<path d="M475.498 293.676L477.441 328.365L496.667 328.388L494.807 293.711L475.498 293.676Z" fill="#42A1C1"/>
<path d="M547.176 330.4L525.188 330.377L522.484 276.104L544.637 276.139L547.176 330.4Z" fill="#F1F8F9"/>
<path d="M543.968 292.003L543.324 278.128L523.992 278.093L524.683 291.968L543.968 292.003Z" fill="#42A1C1"/>
<path d="M524.766 293.758L526.486 328.411L545.689 328.435L544.063 293.793L524.766 293.758Z" fill="#42A1C1"/>
<path d="M444.476 252.74L422.206 252.694L418.754 197.25L441.175 197.309L444.476 252.74Z" fill="#F1F8F9"/>
<path d="M421.305 215.291L423.505 250.693L442.942 250.728L440.836 215.338L421.305 215.291Z" fill="#42A1C1"/>
<path d="M440.719 213.512L439.877 199.333L420.311 199.286L421.188 213.466L440.719 213.512Z" fill="#42A1C1"/>
<path d="M494.046 252.846L471.8 252.799L468.688 197.391L491.097 197.461L494.046 252.846Z" fill="#F1F8F9"/>
<path d="M490.536 213.653L489.775 199.473L470.232 199.427L471.028 213.594L490.536 213.653Z" fill="#42A1C1"/>
<path d="M471.133 215.42L473.099 250.798L492.525 250.833L490.629 215.466L471.133 215.42Z" fill="#42A1C1"/>
<path d="M543.547 252.951L521.324 252.904L518.574 197.531L540.949 197.601L543.547 252.951Z" fill="#F1F8F9"/>
<path d="M540.282 213.782L539.615 199.614L520.096 199.567L520.798 213.723L540.282 213.782Z" fill="#42A1C1"/>
<path d="M520.893 215.548L522.648 250.904L542.039 250.939L540.377 215.595L520.893 215.548Z" fill="#42A1C1"/>
<path d="M439.749 173.302L417.257 173.232L413.723 116.666L436.39 116.747L439.749 173.302Z" fill="#F1F8F9"/>
<path d="M435.934 133.279L435.068 118.818L415.291 118.736L416.192 133.208L435.934 133.279Z" fill="#42A1C1"/>
<path d="M416.309 135.069L418.555 171.196L438.203 171.255L436.039 135.139L416.309 135.069Z" fill="#42A1C1"/>
<path d="M489.823 173.454L467.355 173.384L464.184 116.853L486.816 116.946L489.823 173.454Z" fill="#F1F8F9"/>
<path d="M486.252 133.466L485.48 119.005L465.738 118.935L466.546 133.396L486.252 133.466Z" fill="#42A1C1"/>
<path d="M466.652 135.256L468.665 171.348L488.278 171.407L486.359 135.326L466.652 135.256Z" fill="#42A1C1"/>
<path d="M539.826 173.618L517.381 173.548L514.572 117.052L537.169 117.134L539.826 173.618Z" fill="#F1F8F9"/>
<path d="M422.277 276.314L447.297 276.361L447.109 273.319L422.09 273.273L422.277 276.314Z" fill="white"/>
<path d="M471.719 276.408L496.703 276.455L496.539 273.413L471.555 273.366L471.719 276.408Z" fill="white"/>
<path d="M521.103 276.502L546.053 276.548L545.912 273.507L520.951 273.46L521.103 276.502Z" fill="white"/>
<path d="M417.361 197.648L442.626 197.73L442.439 194.618L417.162 194.548L417.361 197.648Z" fill="white"/>
<path d="M467.295 197.789L492.537 197.871L492.373 194.77L467.131 194.688L467.295 197.789Z" fill="white"/>
<path d="M517.181 197.941L542.376 198.011L542.236 194.911L517.018 194.84L517.181 197.941Z" fill="white"/>
<path d="M412.318 117.075L437.841 117.169L437.654 113.998L412.119 113.905L412.318 117.075Z" fill="white"/>
<path d="M462.767 117.262L488.267 117.368L488.091 114.197L462.592 114.103L462.767 117.262Z" fill="white"/>
<path d="M513.004 114.291L513.156 117.461L538.62 117.555L538.468 114.396L513.004 114.291Z" fill="white"/>
<path d="M536.514 133.653L535.836 119.204L516.105 119.122L516.831 133.571L536.514 133.653Z" fill="#42A1C1"/>
<path d="M536.597 135.501L538.294 171.57L518.705 171.512L516.926 135.431L536.597 135.501Z" fill="#42A1C1"/>
<path d="M425.121 332.237L451.264 332.26L451.123 329.804L424.969 329.78L425.121 332.237Z" fill="white"/>
<path d="M474.398 332.296L500.506 332.319L500.377 329.862L474.27 329.839L474.398 332.296Z" fill="white"/>
<path d="M523.443 329.886L523.56 332.342L549.633 332.378L549.528 329.921L523.443 329.886Z" fill="white"/>
<path d="M446.371 252.448L419.959 252.401L420.111 254.905L446.511 254.963L446.371 252.448Z" fill="white"/>
<path d="M496.117 252.565L469.752 252.506L469.892 255.01L496.258 255.068L496.117 252.565Z" fill="white"/>
<path d="M545.76 252.67L519.418 252.612L519.535 255.115L545.877 255.174L545.76 252.67Z" fill="white"/>
<path d="M441.679 173.302L414.998 173.22L415.162 175.782L441.831 175.864L441.679 173.302Z" fill="white"/>
<path d="M491.941 173.466L465.295 173.384L465.435 175.934L492.07 176.016L491.941 173.466Z" fill="white"/>
<path d="M542.074 173.618L515.463 173.536L515.592 176.098L542.191 176.18L542.074 173.618Z" fill="white"/>
<path d="M441.937 175.864L415.162 175.782L415.244 177.093L442.089 178.485L441.937 175.864Z" fill="#61A4DB"/>
<path d="M492.29 176.016L465.551 175.934L465.621 177.245L492.431 178.637L492.29 176.016Z" fill="#61A4DB"/>
<path d="M542.587 176.18L515.883 176.098L515.953 177.397L542.716 178.789L542.587 176.18Z" fill="#61A4DB"/>
<path d="M446.664 254.893L420.158 254.834L420.24 256.121L446.816 257.455L446.664 254.893Z" fill="#61A4DB"/>
<path d="M496.527 254.998L470.045 254.94L470.127 256.215L496.656 257.56L496.527 254.998Z" fill="#61A4DB"/>
<path d="M546.32 255.092L519.873 255.045L519.943 256.32L546.437 257.666L546.32 255.092Z" fill="#61A4DB"/>
<path d="M425.18 333.512L451.498 334.799L451.346 332.284L425.109 332.261L425.18 333.512Z" fill="#61A4DB"/>
<path d="M474.574 333.571L500.846 334.858L500.717 332.342L474.504 332.307L474.574 333.571Z" fill="#61A4DB"/>
<path d="M523.83 332.366L523.9 333.618L550.125 334.905L550.008 332.389L523.83 332.366Z" fill="#61A4DB"/>
<path d="M231.53 265.773L205.902 265.715L205.832 223.422L231.636 223.492L231.53 265.773Z" fill="#EDF3F4"/>
<path d="M229.961 235.846L229.984 225.036L207.469 224.978L207.492 235.8L229.961 235.846Z" fill="#61ADDB"/>
<path d="M207.492 237.192L207.527 264.194L229.902 264.241L229.961 237.239L207.492 237.192Z" fill="#518CBC"/>
<path d="M204.191 223.738L233.26 223.808L233.272 221.445L204.191 221.363V223.738Z" fill="white"/>
<path d="M233.942 265.773L203.562 265.715V267.622L233.93 267.692L233.942 265.773Z" fill="white"/>
<path d="M234.188 267.692L203.691 267.622L203.703 268.605L234.188 269.646V267.692Z" fill="#F98364"/>
<path d="M231.53 340.38L205.902 340.333L205.832 298.04L231.636 298.11L231.53 340.38Z" fill="#EDF3F4"/>
<path d="M229.961 310.465L229.984 299.643L207.469 299.596L207.492 310.406L229.961 310.465Z" fill="#61ADDB"/>
<path d="M207.492 311.798L207.527 338.812L229.902 338.847L229.961 311.857L207.492 311.798Z" fill="#518CBC"/>
<path d="M204.191 298.344L233.26 298.414L233.272 296.051L204.191 295.981V298.344Z" fill="white"/>
<path d="M233.942 340.391L203.562 340.321V342.24L233.93 342.298L233.942 340.391Z" fill="white"/>
<path d="M234.188 342.298L203.691 342.24L203.703 343.223L234.188 344.252V342.298Z" fill="#F98364"/>
<path d="M231.53 407.019L205.902 406.961L205.832 364.668L231.636 364.738L231.53 407.019Z" fill="#EDF3F4"/>
<path d="M229.961 377.092L229.984 366.282L207.469 366.224L207.492 377.046L229.961 377.092Z" fill="#61ADDB"/>
<path d="M207.492 378.438L207.527 405.44L229.902 405.487L229.961 378.485L207.492 378.438Z" fill="#518CBC"/>
<path d="M204.191 364.983L233.26 365.054L233.272 362.679L204.191 362.609V364.983Z" fill="white"/>
<path d="M233.942 407.019L203.562 406.961V408.868L233.93 408.938L233.942 407.019Z" fill="white"/>
<path d="M234.188 408.938L203.691 408.868L203.703 409.85L234.188 410.892V408.938Z" fill="#F98364"/>
<path d="M330.94 265.773L305.324 265.715L305.242 223.422L331.057 223.492L330.94 265.773Z" fill="#EDF3F4"/>
<path d="M329.384 235.846L329.408 225.036L306.893 224.978L306.904 235.8L329.384 235.846Z" fill="#61ADDB"/>
<path d="M306.904 237.192L306.951 264.194L329.314 264.241L329.384 237.239L306.904 237.192Z" fill="#518CBC"/>
<path d="M303.615 223.738L332.684 223.808L332.695 221.445L303.615 221.363V223.738Z" fill="white"/>
<path d="M333.363 265.773L302.973 265.715V267.622L333.352 267.692L333.363 265.773Z" fill="white"/>
<path d="M333.609 267.692L303.113 267.622V268.605L333.598 269.646L333.609 267.692Z" fill="#F98364"/>
<path d="M383.647 265.773L358.019 265.715L357.949 223.422L383.753 223.492L383.647 265.773Z" fill="#EDF3F4"/>
<path d="M382.091 235.846L382.115 225.036L359.6 224.978L359.611 235.8L382.091 235.846Z" fill="#61ADDB"/>
<path d="M359.611 237.192L359.646 264.194L382.021 264.241L382.08 237.239L359.611 237.192Z" fill="#518CBC"/>
<path d="M356.322 223.738L385.391 223.808V221.445L356.311 221.363L356.322 223.738Z" fill="white"/>
<path d="M386.059 265.773L355.68 265.715V267.622L386.059 267.692V265.773Z" fill="white"/>
<path d="M386.316 267.692L355.82 267.622V268.605L386.305 269.646L386.316 267.692Z" fill="#F98364"/>
<path d="M281.429 265.773L255.801 265.715L255.73 223.422L281.534 223.492L281.429 265.773Z" fill="#EDF3F4"/>
<path d="M279.859 235.846L279.894 225.036L257.367 224.978L257.391 235.8L279.859 235.846Z" fill="#61ADDB"/>
<path d="M257.391 237.192L257.426 264.194L279.801 264.241L279.859 237.239L257.391 237.192Z" fill="#518CBC"/>
<path d="M254.09 223.738L283.158 223.808L283.17 221.445L254.09 221.363V223.738Z" fill="white"/>
<path d="M283.84 265.773L253.461 265.715V267.622L283.828 267.692L283.84 265.773Z" fill="white"/>
<path d="M284.086 267.692L253.602 267.622V268.605L284.086 269.646V267.692Z" fill="#F98364"/>
<path d="M189.062 211.921H188.652L189.027 177.256H189.436L189.062 211.921Z" fill="#5D3953"/>
<path d="M198.179 211.945H197.77L198.179 177.291H198.589L198.179 211.945Z" fill="#5D3953"/>
<path d="M207.292 211.968H206.883L207.316 177.315L207.725 177.327L207.292 211.968Z" fill="#5D3953"/>
<path d="M216.398 212.003H215.988L216.456 177.35H216.878L216.398 212.003Z" fill="#5D3953"/>
<path d="M225.503 212.027H225.094L225.609 177.385H226.018L225.503 212.027Z" fill="#5D3953"/>
<path d="M234.621 212.05H234.211L234.749 177.408H235.159L234.621 212.05Z" fill="#5D3953"/>
<path d="M243.722 212.085H243.312L243.874 177.443H244.284L243.722 212.085Z" fill="#5D3953"/>
<path d="M252.816 212.108H252.418L253.015 177.467H253.424L252.816 212.108Z" fill="#5D3953"/>
<path d="M261.921 212.132H261.512L262.155 177.502H262.565L261.921 212.132Z" fill="#5D3953"/>
<path d="M271.027 212.155H270.617L271.284 177.537H271.694L271.027 212.155Z" fill="#5D3953"/>
<path d="M280.117 212.19H279.707L280.409 177.561H280.819L280.117 212.19Z" fill="#5D3953"/>
<path d="M289.222 212.214H288.812L289.538 177.596H289.948L289.222 212.214Z" fill="#5D3953"/>
<path d="M298.314 212.237H297.904L298.665 177.619H299.075L298.314 212.237Z" fill="#5D3953"/>
<path d="M307.408 212.272L306.998 212.261L307.794 177.654H308.203L307.408 212.272Z" fill="#5D3953"/>
<path d="M316.499 212.296H316.09L316.921 177.677H317.33L316.499 212.296Z" fill="#5D3953"/>
<path d="M325.593 212.319H325.184L326.038 177.713H326.447L325.593 212.319Z" fill="#5D3953"/>
<path d="M334.673 212.343H334.264L335.165 177.736L335.574 177.748L334.673 212.343Z" fill="#5D3953"/>
<path d="M343.767 212.378H343.357L344.282 177.771H344.691L343.767 212.378Z" fill="#5D3953"/>
<path d="M352.847 212.401H352.438L353.397 177.794L353.807 177.806L352.847 212.401Z" fill="#5D3953"/>
<path d="M361.927 212.424H361.518L362.512 177.83H362.922L361.927 212.424Z" fill="#5D3953"/>
<path d="M371.009 212.448H370.6L371.629 177.865H372.039L371.009 212.448Z" fill="#5D3953"/>
<path d="M380.089 212.483H379.68L380.745 177.888H381.154L380.089 212.483Z" fill="#5D3953"/>
<path d="M389.171 212.506H388.762L389.85 177.923H390.26L389.171 212.506Z" fill="#5D3953"/>
<path d="M398.251 212.53H397.842L398.965 177.947H399.375L398.251 212.53Z" fill="#5D3953"/>
<path d="M402.057 179.643L186.852 178.941L186.875 177.256L402.115 177.958L402.057 179.643Z" fill="#997683"/>
<path d="M400.979 212.541L186.512 211.91L186.547 208.014L401.108 208.646L400.979 212.541Z" fill="#5D3953"/>
<path d="M375.935 426.112H342.49L343.251 361.942L376.977 361.965L375.935 426.112Z" fill="white"/>
<path d="M372.87 411.652L346.844 411.64L347.405 366.762L373.583 366.773L372.87 411.652Z" fill="#61ADDB"/>
<path d="M343.567 401.673C343.343 401.655 343.134 401.549 342.988 401.378C342.841 401.207 342.767 400.985 342.783 400.76L342.842 395.905C342.832 395.679 342.911 395.458 343.062 395.29C343.213 395.122 343.424 395.019 343.649 395.004C343.874 395.019 344.084 395.122 344.233 395.291C344.382 395.459 344.458 395.68 344.445 395.905L344.387 400.76C344.393 400.988 344.312 401.21 344.16 401.38C344.007 401.55 343.795 401.655 343.567 401.673Z" fill="#446B8B"/>
<path d="M374.485 378.52L374.496 377.689L360.664 377.677L360.851 364.96H360.067L359.892 377.677L346.177 377.666L346.165 378.508H359.88L359.74 388.464L345.662 388.452L345.65 389.295H359.728L359.576 399.964H345.451V400.795H359.564L359.4 412.763H360.173L360.336 400.795L373.689 400.807L373.7 399.976L360.348 399.964L360.5 389.295L373.934 389.306L373.946 388.464H360.512L360.652 378.508L374.485 378.52Z" fill="white"/>
<g style="mix-blend-mode:multiply">
<g style="mix-blend-mode:multiply">
<path d="M343.252 361.942L376.978 361.965L376.568 387.13L343.088 375.349L343.252 361.942Z" fill="#DADFE1"/>
</g>
</g>
<path d="M378.429 425.726H341.918V429.529H378.429V425.726Z" fill="#EDF3F4"/>
<path d="M269.95 84.2233C269.576 87.2066 264.637 88.903 260.975 88.903C240.753 89.1604 220.953 87.9554 200.883 88.9849C186.934 89.6947 172.973 89.7649 159.001 89.1955C150.505 88.8445 142.029 88.2596 133.572 87.4406C106.586 84.7966 79.6828 87.3236 52.5452 86.8088L17.5671 86.2239C16.6542 86.1886 15.7439 86.1027 14.8405 85.9665C10.0426 85.3113 5.02227 83.0885 5.59568 78.6778C5.98186 75.7179 8.95424 73.8577 11.7394 72.7346C22.997 68.2186 35.6237 69.2248 47.7239 70.1841C47.0452 65.6799 46.3781 61.0704 47.2441 56.6012C48.1101 52.1321 50.8484 47.7565 55.1431 46.0718C59.4379 44.3871 64.072 45.791 68.5891 45.6974C77.6934 45.4986 85.5223 39.6606 93.9128 36.1859C102.303 32.7112 114.017 32.6176 118.394 40.5264C126.586 35.1798 134.941 29.7864 144.432 27.4114C153.922 25.0365 164.875 26.2415 172.072 32.758C175.29 35.7062 177.842 39.684 180.51 43.2874C183.178 46.8908 186.01 50.307 189.778 52.0034C190.921 52.503 192.131 52.8303 193.37 52.9744C195.594 53.2435 197.864 52.8691 200.076 53.2318C205.681 54.1561 209.66 60.5439 207.998 65.9139H208.092L234.258 66.1946L241.081 66.2648C245.411 66.2648 249.951 66.4169 253.684 68.6047C257.417 70.7925 259.91 75.6945 257.838 79.45C261.981 80.7486 268.23 78.4789 269.74 82.5269C269.957 83.0643 270.029 83.6491 269.95 84.2233Z" fill="#F0F8FC"/>
<path d="M269.949 84.2234C269.574 87.2067 264.636 88.9031 260.973 88.9031C240.751 89.1605 220.951 87.9555 200.882 88.985C186.933 89.6948 172.972 89.765 158.999 89.1956C150.503 88.8446 142.027 88.2596 133.57 87.4407C106.585 84.7966 79.6812 87.3237 52.5437 86.8089L17.5655 86.224C16.6526 86.1887 15.7423 86.1028 14.8389 85.9666C14.4838 85.4195 14.2559 84.7999 14.1719 84.1532C19.8475 82.5504 26.7167 83.147 32.5679 83.9075C36.1722 84.3755 39.835 85.0774 43.3925 84.3989C46.5638 83.7554 49.384 82.059 52.2862 80.5966C61.0209 76.311 70.7901 74.5832 80.4653 75.6127C85.2866 76.1274 90.1197 77.3442 94.941 76.7241C99.7624 76.104 104.127 73.7525 108.867 72.8516C120.569 70.6405 131.944 77.5314 143.775 79.0406C162.264 81.3102 181.374 70.1257 199.033 75.9636C205.106 77.9642 210.852 81.9537 217.23 81.4272C223.608 80.9008 230.769 76.338 235.24 80.7253C236.41 81.8952 237.089 83.498 238.388 84.5159C239.901 85.4946 241.691 85.9582 243.49 85.8379C251.248 85.9315 258.89 83.498 266.637 83.7905C267.75 83.8479 268.858 83.9927 269.949 84.2234Z" fill="#C0F3FF"/>
<path d="M189.821 52.1438L168.289 54.3784C156.926 55.5483 145.387 56.7183 134.773 60.93C143.333 52.3585 154.724 47.2007 166.814 46.4229C171.249 46.1538 176.001 46.4229 179.687 44.0011C179.959 43.831 180.217 43.6393 180.459 43.4279C183.197 47.1248 186.006 50.4942 189.821 52.1438Z" fill="#C0F3FF"/>
<path d="M234.293 66.3468C222.216 67.8365 210.124 69.1313 198.016 70.231C201.526 69.295 205.201 68.3006 208.068 66.066L234.293 66.3468Z" fill="#C0F3FF"/>
<path d="M46.0469 429.599V430.757H567.067V429.599H53.1268H46.0469Z" fill="white"/>
<path d="M567.067 450.892H46.0469V453.056H567.067V450.892Z" fill="white"/>
<path d="M567.067 451.289L46.0469 450.997V430.816H567.067V451.289Z" fill="#AF9098"/>
<path d="M567.067 433.261H46.0469V434.138H567.067V433.261Z" fill="#FFBE78"/>
<path d="M567.067 448.786H46.0469V450.412H567.067V448.786Z" fill="#FFBE78"/>
<path d="M378.837 433.272H346.293L347.323 434.723H380.709L378.837 433.272Z" fill="white"/>
<path d="M382.782 436.326H348.459L349.653 437.999H384.935L382.782 436.326Z" fill="white"/>
<path d="M387.17 439.719H350.881L352.25 441.649H389.651L387.17 439.719Z" fill="white"/>
<path d="M392.084 443.521H353.584L355.164 445.744H394.952L392.084 443.521Z" fill="white"/>
<path d="M397.456 447.803H356.475L358.651 450.47L401.341 450.482L397.456 447.803Z" fill="white"/>
<path d="M154.647 430.547C154.647 430.699 193.381 430.979 193.381 430.979C193.861 428.382 195.804 413.267 193.651 407.686C192.808 405.51 191.24 405.346 189.531 406.048C191.076 402.761 192.773 399.029 193.253 397.753C193.592 396.793 193.711 395.768 193.6 394.755C193.488 393.742 193.15 392.768 192.609 391.904C190.351 387.774 188.408 389.903 187.355 391.81C188.689 388.534 190.866 381.807 187.975 378.098C185.834 375.349 184.277 377.268 183.294 379.561C184.723 374.615 185.483 369.5 185.553 364.352C185.436 360.631 184.523 357.473 182.042 356.162C176.402 353.074 175.021 361.251 174.599 366.025C174.735 361.786 174.555 357.543 174.061 353.331C173.3 347.856 171.65 343.387 168.14 344.767C164.91 346.054 163.798 350.336 163.634 355.004C163.588 359.202 163.98 363.394 164.805 367.511C163.939 363.872 161.844 357.496 158.427 361.661C156.25 364.305 155.899 369.219 156.157 373.676C156.346 376.856 156.78 380.016 157.455 383.129C157.455 383.129 151.113 371.956 149.65 383.129C149.151 386.863 149.301 390.655 150.095 394.337C151.043 398.666 156.051 410.283 156.707 411.804C156.157 410.564 152.529 403.065 149.358 411.968C148.664 414.118 148.437 416.392 148.69 418.637C148.96 421.468 153.722 427.902 154.647 430.547Z" fill="#EFC73F"/>
<path d="M156.54 430.429L156.704 430.851H199.289C199.769 428.511 201.711 418.122 199.546 413.114C198.704 411.172 197.136 411.02 195.439 411.652C196.972 408.704 198.669 405.393 199.16 404.223C199.495 403.366 199.611 402.438 199.497 401.525C199.382 400.612 199.041 399.741 198.505 398.993C196.246 395.296 194.315 397.203 193.262 398.911C194.596 395.975 196.773 389.95 193.871 386.627C191.729 384.159 190.184 385.878 189.19 387.938C190.608 383.546 191.369 378.969 191.448 374.355C191.343 371.02 190.43 368.189 187.996 366.996C182.356 364.223 180.916 371.558 180.553 375.829C180.684 372.029 180.5 368.226 180.003 364.457C179.254 359.543 177.593 355.542 174.152 356.782C170.911 357.952 169.799 361.766 169.635 365.955C169.595 369.723 169.988 373.483 170.805 377.162C169.939 373.898 167.856 368.189 164.439 371.886C162.251 374.226 161.912 378.648 162.099 382.649C162.296 385.504 162.73 388.337 163.398 391.12C163.398 391.12 157.055 381.105 155.592 391.12C155.091 394.467 155.246 397.881 156.049 401.169C156.997 405.042 161.994 415.466 162.649 416.823C162.099 415.712 158.471 408.985 155.312 416.964C153.697 420.976 154.843 426.089 156.54 430.429Z" fill="#18753C"/>
<path d="M388.761 431.506C387.884 430.605 388.609 428.101 389.194 427.271C391.862 423.492 403.003 428.534 403.003 428.534C401.78 426.977 401.018 425.109 400.803 423.141C400.686 421.164 401.435 418.976 404.232 417.198C407.953 414.858 411.663 416.648 414.284 418.824C413.316 417.527 412.696 416.005 412.482 414.401C412.186 412.808 412.452 411.161 413.232 409.741C414.013 408.321 415.261 407.215 416.765 406.61C418.626 405.677 420.709 405.276 422.783 405.449C424.858 405.622 426.845 406.364 428.526 407.592C430.185 408.772 431.599 410.262 432.692 411.98C431.909 407.986 431.858 403.883 432.54 399.871C433.277 396.572 434.95 393.682 438.391 392.851C439.666 392.558 440.989 392.538 442.272 392.794C443.555 393.05 444.769 393.576 445.833 394.337C447.404 395.439 448.764 396.814 449.847 398.397L452.001 401.193C452.001 401.193 456.506 392.325 463.96 398.104C471.415 403.884 465.95 416.402 465.95 416.402C465.95 416.402 470.045 412.389 472.655 411.336C475.265 410.283 481.209 409.078 483.351 416.402C485.492 423.726 480.215 429.774 480.215 429.774L440.532 431.096L388.761 431.506Z" fill="#18753C"/>
<path d="M409.603 429.295C409.603 429.295 402.745 424.615 406.49 419.374C410.234 414.132 418.332 419.374 418.332 419.374C418.332 419.374 415.84 410.95 424.558 410.95C433.276 410.95 431.942 417.63 431.942 417.63C431.942 417.63 436.061 408.119 443.843 410.95C451.625 413.781 449.496 423.27 449.496 423.27C449.496 423.27 454.481 417.104 459.478 419.865C464.475 422.626 458.413 430.593 458.413 430.593L413.101 431.096L409.603 429.295Z" fill="#EFC73F"/>
</g>
<defs>
<linearGradient id="paint0_linear_2110_20624" x1="456.6" y1="353.623" x2="418.088" y2="353.623" gradientUnits="userSpaceOnUse">
<stop stop-color="#ECEEF3"/>
<stop offset="0.5" stop-color="#CED2DF"/>
<stop offset="1" stop-color="#A9B0C5"/>
</linearGradient>
<radialGradient id="paint1_radial_2110_20624" cx="0" cy="0" r="1" gradientUnits="userSpaceOnUse" gradientTransform="translate(324.564 404.718) rotate(180) scale(3.63936 3.45131)">
<stop stop-color="#7A9198"/>
<stop offset="0.54" stop-color="#3F5D63"/>
<stop offset="1" stop-color="#153437"/>
</radialGradient>
<radialGradient id="paint2_radial_2110_20624" cx="0" cy="0" r="1" gradientUnits="userSpaceOnUse" gradientTransform="translate(-7021.3 -491403) scale(53.7689 810.409)">
<stop stop-color="#7A9198"/>
<stop offset="0.54" stop-color="#3F5D63"/>
<stop offset="1" stop-color="#153437"/>
</radialGradient>
<radialGradient id="paint3_radial_2110_20624" cx="0" cy="0" r="1" gradientUnits="userSpaceOnUse" gradientTransform="translate(-1449.54 -6146.77) scale(21.8208 13.2839)">
<stop stop-color="#7A9198"/>
<stop offset="0.54" stop-color="#3F5D63"/>
<stop offset="1" stop-color="#153437"/>
</radialGradient>
<linearGradient id="paint4_linear_2110_20624" x1="277.904" y1="488.833" x2="244.775" y2="488.833" gradientUnits="userSpaceOnUse">
<stop stop-color="#00595D"/>
<stop offset="0.39" stop-color="#B6C1C8"/>
<stop offset="0.56" stop-color="#B3AEA4"/>
<stop offset="0.68" stop-color="#36381C"/>
<stop offset="0.85" stop-color="#78818D"/>
<stop offset="1" stop-color="#E1E4E6"/>
</linearGradient>
<linearGradient id="paint5_linear_2110_20624" x1="9736.46" y1="939.75" x2="8832.06" y2="939.75" gradientUnits="userSpaceOnUse">
<stop stop-color="#00595D"/>
<stop offset="0.39" stop-color="#B6C1C8"/>
<stop offset="0.56" stop-color="#B3AEA4"/>
<stop offset="0.68" stop-color="#36381C"/>
<stop offset="0.85" stop-color="#78818D"/>
<stop offset="1" stop-color="#E1E4E6"/>
</linearGradient>
<radialGradient id="paint6_radial_2110_20624" cx="0" cy="0" r="1" gradientUnits="userSpaceOnUse" gradientTransform="translate(81554 40686.9) rotate(180) scale(332.481 68.454)">
<stop stop-color="#7A9198"/>
<stop offset="0.54" stop-color="#3F5D63"/>
<stop offset="1" stop-color="#153437"/>
</radialGradient>
<linearGradient id="paint7_linear_2110_20624" x1="275.072" y1="464.884" x2="244.822" y2="464.884" gradientUnits="userSpaceOnUse">
<stop stop-color="#C1CED5"/>
<stop offset="0.54" stop-color="#889DA8"/>
<stop offset="1" stop-color="#506975"/>
</linearGradient>
<linearGradient id="paint8_linear_2110_20624" x1="339.32" y1="343.293" x2="250.207" y2="343.878" gradientUnits="userSpaceOnUse">
<stop stop-color="#D6B19C"/>
<stop offset="0.51" stop-color="#C28F76"/>
<stop offset="1" stop-color="#694D3E"/>
</linearGradient>
<linearGradient id="paint9_linear_2110_20624" x1="-nan" y1="-nan" x2="-nan" y2="-nan" gradientUnits="userSpaceOnUse">
<stop stop-color="#D6B19C"/>
<stop offset="0.51" stop-color="#C28F76"/>
<stop offset="1" stop-color="#694D3E"/>
</linearGradient>
<clipPath id="clip0_2110_20624">
<rect width="569" height="562" fill="white"/>
</clipPath>
</defs>
</svg>
