<svg width="569" height="562" viewBox="0 0 569 562" fill="none" xmlns="http://www.w3.org/2000/svg">
<g clip-path="url(#clip0_1682_15987)">
<path d="M540.201 561.602C494 458.426 390.54 386.557 270.182 386.557C149.824 386.557 46.1187 458.59 0 562" fill="#F79552"/>
<path opacity="0.77" d="M502.052 433.436C476.553 469.688 442.695 499.266 403.341 519.666C363.988 540.065 320.298 550.687 275.97 550.632C231.641 550.577 187.978 539.847 148.675 519.349C109.373 498.851 75.5879 469.19 50.1797 432.875" fill="#29B8CE"/>
<path d="M50.178 434.372C17.6622 387.985 0.249552 332.701 0.314635 276.057C0.314635 123.568 123.856 -0.0466309 276.313 -0.0466309C428.77 -0.0466309 552.229 123.603 552.229 276.057C552.316 332.944 534.733 388.454 501.909 434.922" fill="#99D4F6"/>
<path d="M305.535 531.71V521.661H309.806C310.596 521.626 311.386 521.717 312.147 521.93C312.633 522.111 313.044 522.449 313.317 522.889C313.611 523.367 313.761 523.919 313.75 524.48C313.772 525.164 313.539 525.831 313.095 526.352C312.56 526.884 311.856 527.211 311.105 527.276C311.503 527.504 311.865 527.788 312.182 528.119C312.622 528.623 313.013 529.168 313.352 529.745L314.569 531.71H312.147L310.672 529.523C310.352 529.007 309.996 528.515 309.608 528.049C309.438 527.865 309.231 527.721 308.999 527.627C308.663 527.539 308.316 527.499 307.969 527.51H307.56V531.71H305.535ZM307.56 525.861H309.069C309.676 525.893 310.285 525.853 310.883 525.744C311.119 525.67 311.321 525.517 311.457 525.311C311.604 525.09 311.677 524.828 311.667 524.562C311.682 524.263 311.581 523.97 311.386 523.743C311.189 523.523 310.919 523.382 310.626 523.345C310.462 523.345 309.97 523.345 309.151 523.345H307.56V525.861ZM315.681 531.71V521.661H323.124V523.357H317.706V525.592H322.749V527.276H317.706V530.014H323.323V531.71H315.681ZM318.256 521.087L319.203 519.04H321.357L319.473 521.087H318.256ZM324.528 528.435L326.506 528.247C326.567 528.803 326.819 529.32 327.219 529.71C327.64 530.035 328.163 530.201 328.694 530.178C329.217 530.21 329.737 530.066 330.168 529.768C330.323 529.654 330.448 529.507 330.535 529.336C330.623 529.166 330.669 528.977 330.672 528.786C330.677 528.568 330.602 528.355 330.461 528.189C330.262 527.981 330.012 527.828 329.735 527.744C329.49 527.662 328.951 527.522 328.109 527.311C327.262 527.167 326.46 526.827 325.768 526.317C325.474 526.069 325.238 525.759 325.078 525.409C324.918 525.059 324.838 524.678 324.844 524.293C324.84 523.784 324.991 523.286 325.277 522.866C325.581 522.404 326.017 522.045 326.529 521.836C327.158 521.587 327.831 521.468 328.507 521.485C329.551 521.408 330.588 521.716 331.421 522.351C331.734 522.628 331.986 522.969 332.159 523.349C332.333 523.73 332.424 524.144 332.427 524.562L330.391 524.656C330.355 524.226 330.153 523.828 329.829 523.544C329.453 523.294 329.005 523.174 328.554 523.205C328.063 523.177 327.576 523.304 327.161 523.568C327.064 523.638 326.986 523.731 326.931 523.837C326.877 523.944 326.849 524.062 326.849 524.182C326.849 524.302 326.877 524.42 326.931 524.526C326.986 524.633 327.064 524.726 327.161 524.796C327.731 525.142 328.363 525.372 329.022 525.475C329.777 525.631 330.511 525.875 331.21 526.2C331.666 526.433 332.05 526.784 332.322 527.218C332.604 527.704 332.742 528.259 332.72 528.821C332.719 529.408 332.545 529.981 332.217 530.469C331.89 530.956 331.426 531.336 330.882 531.558C330.184 531.822 329.44 531.945 328.694 531.921C327.645 531.99 326.606 531.679 325.768 531.044C325.029 530.37 324.583 529.433 324.528 528.435ZM334.405 531.71V521.661H341.859V523.357H336.441V525.592H341.485V527.276H336.441V530.014H342.058V531.71H334.405ZM352.836 531.71H350.636L349.758 529.429H345.732L344.902 531.71H342.748L346.669 521.661H348.81L352.836 531.71ZM349.103 527.733L347.722 524.001L346.364 527.733H349.103ZM353.912 521.661H355.995V527.101C355.975 527.664 356.003 528.227 356.077 528.786C356.154 529.179 356.37 529.532 356.686 529.78C357.084 530.043 357.556 530.17 358.032 530.143C358.492 530.175 358.949 530.052 359.331 529.792C359.608 529.577 359.799 529.27 359.869 528.926C359.938 528.359 359.965 527.788 359.951 527.218V521.661H361.987V526.937C362.011 527.794 361.956 528.652 361.823 529.499C361.723 529.965 361.51 530.399 361.203 530.763C360.881 531.122 360.481 531.402 360.033 531.582C359.41 531.804 358.751 531.907 358.09 531.886C357.349 531.921 356.609 531.806 355.913 531.547C355.462 531.357 355.062 531.064 354.743 530.693C354.468 530.352 354.275 529.951 354.182 529.523C354.022 528.682 353.955 527.827 353.983 526.972L353.912 521.661ZM367.955 521.661H371.665C372.31 521.638 372.955 521.701 373.584 521.848C374.16 522.018 374.68 522.337 375.094 522.772C375.531 523.24 375.859 523.799 376.053 524.41C376.293 525.166 376.407 525.957 376.392 526.75C376.408 527.472 376.301 528.192 376.077 528.879C375.87 529.552 375.5 530.162 375 530.657C374.594 531.035 374.105 531.312 373.572 531.465C372.989 531.623 372.386 531.694 371.782 531.675H367.955V521.661ZM369.991 523.357V530.014H371.501C371.913 530.026 372.324 529.995 372.73 529.92C373.034 529.852 373.316 529.707 373.549 529.499C373.812 529.235 373.999 528.903 374.087 528.54C374.235 527.935 374.302 527.314 374.286 526.691C374.304 526.088 374.237 525.486 374.087 524.901C373.978 524.536 373.781 524.202 373.514 523.93C373.246 523.691 372.919 523.529 372.566 523.462C372.017 523.372 371.46 523.337 370.904 523.357H369.991ZM378.113 531.71V521.661H385.567V523.357H380.149V525.592H385.251V527.276H380.207V530.014H385.824V531.71H378.113ZM397.819 528.013L399.785 528.645C399.574 529.608 399.041 530.47 398.276 531.09C397.5 531.645 396.561 531.925 395.608 531.886C394.994 531.903 394.383 531.79 393.817 531.554C393.25 531.318 392.739 530.965 392.319 530.517C391.419 529.484 390.958 528.141 391.032 526.773C390.943 525.355 391.409 523.958 392.331 522.877C392.767 522.416 393.296 522.054 393.883 521.814C394.471 521.574 395.102 521.462 395.736 521.485C396.284 521.461 396.83 521.545 397.345 521.734C397.859 521.923 398.331 522.212 398.732 522.585C399.237 523.096 399.593 523.735 399.762 524.433L397.749 524.913C397.655 524.424 397.389 523.984 397 523.673C396.608 523.373 396.125 523.216 395.631 523.228C395.289 523.22 394.949 523.287 394.636 523.425C394.322 523.562 394.043 523.767 393.817 524.024C393.294 524.784 393.05 525.702 393.127 526.621C393.037 527.577 393.276 528.534 393.805 529.335C394.023 529.597 394.297 529.806 394.607 529.946C394.918 530.086 395.256 530.153 395.596 530.143C396.106 530.153 396.603 529.974 396.988 529.64C397.431 529.198 397.725 528.63 397.831 528.013H397.819ZM401.541 531.71V521.661H403.577V525.615H407.556V521.661H409.58V531.71H407.556V527.311H403.577V531.71H401.541ZM420.756 531.71H418.544L417.666 529.429H413.641L412.822 531.71H410.668L414.577 521.661H416.73L420.756 531.71ZM417.011 527.733L415.677 524.001L414.32 527.733H417.011ZM421.891 531.71V521.743H423.915V530.014H428.959V531.71H421.891ZM430.422 531.71V521.661H437.911V523.357H432.481V525.592H437.525V527.276H432.481V530.014H438.099V531.71H430.422ZM439.784 521.661H441.808V527.101C441.794 527.664 441.822 528.227 441.89 528.786C441.967 529.182 442.188 529.536 442.51 529.78C442.904 530.043 443.372 530.17 443.844 530.143C444.308 530.177 444.77 530.053 445.155 529.792C445.433 529.579 445.621 529.27 445.682 528.926C445.751 528.359 445.778 527.788 445.764 527.218V521.661H447.8V526.937C447.824 527.794 447.769 528.652 447.636 529.499C447.535 529.962 447.326 530.395 447.027 530.763C446.704 531.121 446.304 531.401 445.857 531.582C445.239 531.804 444.583 531.907 443.926 531.886C443.182 531.921 442.437 531.806 441.738 531.547C441.286 531.358 440.885 531.066 440.568 530.693C440.289 530.352 440.093 529.952 439.994 529.523C439.841 528.682 439.774 527.827 439.795 526.972L439.784 521.661ZM449.953 531.71V521.661H454.224C455.014 521.626 455.804 521.717 456.565 521.93C457.05 522.111 457.462 522.449 457.735 522.889C458.029 523.367 458.179 523.919 458.168 524.48C458.19 525.164 457.956 525.831 457.513 526.352C456.978 526.884 456.274 527.211 455.523 527.276C455.921 527.504 456.283 527.788 456.6 528.119C457.039 528.623 457.431 529.168 457.77 529.745L458.975 531.71H456.553L455.079 529.523C454.758 529.007 454.402 528.515 454.014 528.049C453.845 527.865 453.637 527.721 453.405 527.627C453.073 527.539 452.73 527.499 452.387 527.51H451.954V531.71H449.953ZM451.977 525.861H453.487C454.094 525.893 454.703 525.853 455.301 525.744C455.536 525.67 455.739 525.517 455.874 525.311C456.022 525.09 456.095 524.828 456.085 524.562C456.1 524.263 455.999 523.97 455.804 523.743C455.607 523.523 455.337 523.382 455.044 523.345C454.88 523.345 454.388 523.345 453.569 523.345H451.954L451.977 525.861Z" fill="#000074"/>
<path d="M202.52 306.019H296.805V150.313H202.52V306.019Z" fill="#066CB2"/>
<path d="M375.889 446.306H481.209V104.686H375.889V446.306Z" fill="#066CB2"/>
<path d="M36.5234 429.927H116.099V211.149H36.5234V429.927Z" fill="#066CB2"/>
<path d="M109.076 446.306H210.886V269.646H109.076V446.306Z" fill="#066CB2"/>
<path d="M291.633 280.175H389.932L387.276 99.0817L291.633 58.0054V280.175Z" fill="#389CCE"/>
<path d="M31.689 118.725V108.675H34.9539C35.7606 108.641 36.5687 108.692 37.3646 108.827C37.944 108.985 38.4546 109.33 38.8157 109.81C39.2197 110.379 39.4216 111.067 39.3891 111.764C39.4084 112.301 39.2959 112.835 39.0614 113.32C38.8565 113.716 38.5596 114.057 38.1954 114.314C37.884 114.542 37.5298 114.705 37.1539 114.794C36.4573 114.902 35.7524 114.949 35.0475 114.934H33.7252V118.725H31.689ZM33.7252 110.371V113.226H34.8954C35.4344 113.257 35.9751 113.206 36.4986 113.074C36.7578 112.978 36.9793 112.802 37.1305 112.571C37.2978 112.317 37.3791 112.017 37.3622 111.713C37.3454 111.41 37.2313 111.12 37.0369 110.886C36.8219 110.65 36.5332 110.493 36.2178 110.442C35.7366 110.381 35.2515 110.357 34.7667 110.371H33.7252ZM41.0625 118.725V108.675H45.3338C46.1233 108.64 46.9134 108.73 47.6743 108.944C48.1599 109.126 48.5715 109.463 48.8445 109.903C49.142 110.38 49.2963 110.933 49.2892 111.495C49.3127 112.181 49.0742 112.85 48.6222 113.366C48.0878 113.898 47.3837 114.225 46.6328 114.291C47.0336 114.519 47.4001 114.802 47.7211 115.133C48.1528 115.644 48.5441 116.188 48.8913 116.759L50.0616 118.725H47.6743L46.2115 116.537C45.8882 116.021 45.5284 115.528 45.1349 115.063C44.9712 114.873 44.7617 114.728 44.5264 114.642C44.1948 114.552 43.8516 114.513 43.5083 114.525H43.0987V118.725H41.0625ZM43.0987 112.875H44.5966C45.2076 112.906 45.8201 112.867 46.4221 112.758C46.6562 112.688 46.8562 112.534 46.9839 112.325C47.1311 112.104 47.2048 111.842 47.1945 111.576C47.2067 111.28 47.1111 110.989 46.9253 110.758C46.726 110.54 46.4569 110.4 46.1647 110.36C46.0009 110.36 45.4977 110.36 44.6785 110.36H43.0987V112.875ZM50.7988 113.717C50.7715 112.837 50.9269 111.961 51.2552 111.144C51.482 110.631 51.7991 110.164 52.1914 109.763C52.5588 109.375 53.0006 109.065 53.4903 108.851C54.179 108.578 54.9145 108.443 55.6552 108.453C56.3038 108.43 56.95 108.541 57.5539 108.779C58.1578 109.016 58.7065 109.375 59.1659 109.833C60.0269 110.92 60.4953 112.266 60.4953 113.653C60.4953 115.04 60.0269 116.386 59.1659 117.473C58.7086 117.934 58.1603 118.295 57.5559 118.532C56.9515 118.77 56.3042 118.879 55.6552 118.853C55.0071 118.881 54.3604 118.773 53.756 118.538C53.1517 118.302 52.6029 117.944 52.1446 117.485C51.2204 116.472 50.7364 115.134 50.7988 113.764V113.717ZM52.9052 113.694C52.84 114.625 53.1237 115.547 53.701 116.28C53.9497 116.564 54.258 116.789 54.6038 116.941C54.9496 117.093 55.3245 117.166 55.7021 117.157C56.0771 117.169 56.4503 117.098 56.7944 116.948C57.1385 116.799 57.4449 116.574 57.6914 116.291C58.263 115.542 58.5417 114.61 58.4755 113.671C58.5451 112.745 58.2747 111.826 57.7148 111.085C57.4521 110.816 57.1382 110.602 56.7915 110.456C56.4448 110.31 56.0724 110.235 55.6962 110.235C55.32 110.235 54.9476 110.31 54.6009 110.456C54.2542 110.602 53.9403 110.816 53.6776 111.085C53.106 111.829 52.8308 112.759 52.9052 113.694ZM62.15 108.675H65.8596C66.5048 108.652 67.1502 108.715 67.7788 108.862C68.3527 109.036 68.8724 109.355 69.2884 109.787C69.7222 110.257 70.0495 110.816 70.248 111.424C70.4834 112.181 70.594 112.972 70.5756 113.764C70.5942 114.486 70.4914 115.206 70.2714 115.894C70.0645 116.566 69.6947 117.177 69.1948 117.672C68.788 118.048 68.2992 118.324 67.7671 118.479C67.1839 118.637 66.5806 118.708 65.9767 118.69H62.15V108.675ZM64.1862 110.371V117.028H65.6958C66.0882 117.042 66.4808 117.01 66.866 116.935C67.1697 116.864 67.4512 116.72 67.6852 116.514C67.9465 116.249 68.1288 115.917 68.2118 115.554C68.3707 114.951 68.4417 114.329 68.4224 113.706C68.444 113.102 68.373 112.498 68.2118 111.916C68.1059 111.549 67.9086 111.215 67.6384 110.945C67.3737 110.706 67.0509 110.54 66.7022 110.465C66.1519 110.387 65.596 110.356 65.0405 110.371H64.1862ZM72.2959 108.675H74.3204V114.115C74.3003 114.678 74.3277 115.242 74.4023 115.8C74.4793 116.197 74.7002 116.551 75.0225 116.794C75.416 117.057 75.8843 117.184 76.3566 117.157C76.8206 117.191 77.2825 117.068 77.6672 116.806C77.9453 116.594 78.1333 116.285 78.1938 115.94C78.2628 115.374 78.2902 114.803 78.2757 114.232V108.675H80.3119V113.951C80.3357 114.809 80.2809 115.666 80.1481 116.514C80.0469 116.977 79.8385 117.409 79.5396 117.777C79.2166 118.135 78.8165 118.415 78.3694 118.596C77.7507 118.818 77.0956 118.922 76.4385 118.9C75.6937 118.935 74.9494 118.82 74.2502 118.561C73.7981 118.373 73.3971 118.08 73.0799 117.707C72.8012 117.366 72.6049 116.966 72.5065 116.537C72.3529 115.696 72.2863 114.841 72.3076 113.987L72.2959 108.675ZM88.8897 115.028L90.8557 115.66C90.6346 116.618 90.1041 117.477 89.3461 118.105C88.44 118.738 87.339 119.03 86.238 118.929C85.1371 118.829 84.1073 118.342 83.3311 117.555C82.4268 116.524 81.9644 115.18 82.0439 113.811C81.9455 112.387 82.4074 110.98 83.3311 109.892C83.7772 109.415 84.3234 109.043 84.9304 108.802C85.5374 108.562 86.1901 108.458 86.8418 108.5C87.9448 108.453 89.0214 108.844 89.8376 109.588C90.3401 110.105 90.6955 110.747 90.8674 111.448L88.8546 111.927C88.7624 111.439 88.4977 111.001 88.1089 110.691C87.72 110.382 87.233 110.223 86.7365 110.243C86.3937 110.23 86.0524 110.295 85.7382 110.432C85.4241 110.57 85.1452 110.777 84.9226 111.038C84.3894 111.794 84.1407 112.714 84.2205 113.636C84.1333 114.593 84.377 115.551 84.9109 116.35C85.1264 116.611 85.3986 116.819 85.7069 116.959C86.0152 117.099 86.3513 117.167 86.6897 117.157C87.2031 117.173 87.7026 116.988 88.0823 116.642C88.5051 116.199 88.7791 115.634 88.8663 115.028H88.8897ZM94.8696 118.725V110.371H91.8855V108.675H99.8782V110.371H96.8941V118.725H94.8696ZM101.13 118.725V108.675H103.155V118.725H101.13ZM104.641 113.764C104.614 112.884 104.769 112.008 105.097 111.19C105.324 110.678 105.641 110.21 106.034 109.81C106.401 109.422 106.843 109.111 107.333 108.897C108.021 108.624 108.757 108.489 109.497 108.5C110.146 108.477 110.792 108.588 111.396 108.826C112 109.063 112.549 109.422 113.008 109.88C113.869 110.967 114.338 112.313 114.338 113.7C114.338 115.087 113.869 116.433 113.008 117.52C112.551 117.981 112.002 118.342 111.398 118.579C110.794 118.817 110.146 118.926 109.497 118.9C108.849 118.928 108.203 118.82 107.598 118.585C106.994 118.349 106.445 117.99 105.987 117.531C105.528 117.022 105.174 116.427 104.947 115.781C104.72 115.134 104.624 114.448 104.664 113.764H104.641ZM106.736 113.694C106.667 114.623 106.947 115.545 107.52 116.28C107.769 116.564 108.077 116.789 108.423 116.941C108.768 117.093 109.143 117.166 109.521 117.157C109.896 117.169 110.269 117.098 110.613 116.948C110.957 116.799 111.264 116.574 111.51 116.291C112.082 115.542 112.361 114.61 112.294 113.671C112.364 112.745 112.093 111.826 111.534 111.085C111.281 110.805 110.969 110.585 110.621 110.439C110.273 110.293 109.898 110.226 109.521 110.243C109.141 110.229 108.764 110.298 108.414 110.445C108.064 110.593 107.751 110.815 107.496 111.097C106.932 111.84 106.661 112.764 106.736 113.694ZM116.004 118.725V108.675H117.97L122.089 115.39V108.675H123.973V118.725H121.949L117.9 112.173V118.725H116.004ZM31.6656 125.054H35.3518C35.9931 125.031 36.6346 125.094 37.2593 125.241C37.8374 125.414 38.3613 125.732 38.7806 126.166C39.2143 126.636 39.5416 127.195 39.7401 127.803C39.9699 128.562 40.0804 129.351 40.0678 130.143C40.083 130.866 39.9762 131.586 39.7518 132.273C39.545 132.945 39.1751 133.556 38.6752 134.051C38.2731 134.427 37.7881 134.704 37.2593 134.858C36.6719 135.015 36.0648 135.086 35.4571 135.069H31.689L31.6656 125.054ZM33.6901 126.751V133.407H35.2114C35.6037 133.42 35.9962 133.388 36.3816 133.314C36.6827 133.246 36.961 133.101 37.189 132.893C37.4499 132.626 37.6356 132.295 37.7273 131.933C37.8863 131.331 37.9572 130.708 37.938 130.085C37.9596 129.481 37.8885 128.877 37.7273 128.295C37.6183 127.929 37.4214 127.596 37.1539 127.324C36.8863 127.082 36.5591 126.917 36.2061 126.844C35.6558 126.765 35.0999 126.734 34.5443 126.751H33.6901ZM41.8349 135.104V125.054H49.2892V126.751H43.871V128.985H48.9147V130.67H43.871V133.407H49.4881V135.104H41.8349ZM61.5532 131.407L63.5192 132.039C63.2981 132.997 62.7676 133.856 62.0096 134.484C61.106 135.098 60.0157 135.378 58.9278 135.273C57.8398 135.168 56.8228 134.686 56.0531 133.91C55.1457 132.881 54.6792 131.537 54.7542 130.167C54.6652 128.749 55.131 127.352 56.0531 126.271C56.489 125.81 57.0182 125.447 57.6055 125.207C58.1927 124.967 58.8245 124.855 59.4585 124.879C60.5617 124.831 61.6387 125.222 62.4543 125.967C62.9649 126.478 63.3217 127.123 63.4841 127.827L61.483 128.307C61.3797 127.821 61.1159 127.384 60.734 127.066C60.3417 126.766 59.8586 126.61 59.3649 126.622C59.0208 126.612 58.6788 126.678 58.3632 126.816C58.0477 126.953 57.7664 127.159 57.5393 127.417C57.0156 128.177 56.7717 129.095 56.8489 130.015C56.767 130.989 57.0278 131.961 57.5861 132.764C57.8016 133.025 58.0738 133.233 58.3821 133.373C58.6903 133.513 59.0265 133.581 59.3649 133.571C59.8781 133.586 60.3771 133.401 60.7574 133.056C61.1872 132.602 61.4652 132.026 61.5532 131.407ZM65.2745 135.104V125.054H67.299V129.008H71.2778V125.054H73.3023V135.104H71.2778V130.705H67.299V135.104H65.2745ZM84.5014 135.104H82.2896L81.412 132.764H77.3981L76.5672 135.104H74.414L78.3343 125.054H80.4758L84.5014 135.104ZM80.7683 131.126L79.3758 127.394L78.0183 131.126H80.7683ZM85.6716 135.104V125.136H87.7078V133.407H92.693V135.104H85.6716ZM94.2025 135.104V125.054H101.657V126.751H96.2036V128.985H101.247V130.67H96.2036V133.407H101.809V135.104H94.2025ZM103.564 125.054H105.565V130.494C105.55 131.057 105.573 131.62 105.636 132.179C105.713 132.576 105.934 132.93 106.256 133.173C106.653 133.438 107.126 133.565 107.602 133.536C108.062 133.569 108.52 133.445 108.901 133.185C109.179 132.973 109.367 132.664 109.427 132.319C109.502 131.753 109.533 131.182 109.521 130.611V125.054H111.545V130.33C111.575 131.188 111.52 132.046 111.382 132.893C111.285 133.357 111.076 133.791 110.773 134.156C110.45 134.514 110.05 134.794 109.603 134.975C108.984 135.197 108.329 135.301 107.672 135.279C106.927 135.313 106.183 135.198 105.484 134.94C105.031 134.752 104.63 134.459 104.313 134.086C104.035 133.745 103.838 133.345 103.74 132.916C103.586 132.075 103.52 131.22 103.541 130.366L103.564 125.054ZM113.734 135.104V125.054H118.005C118.795 125.019 119.585 125.109 120.345 125.323C120.831 125.505 121.243 125.842 121.516 126.283C121.813 126.759 121.967 127.312 121.96 127.874C121.984 128.56 121.745 129.229 121.293 129.746C120.759 130.277 120.055 130.604 119.304 130.67C119.701 130.898 120.064 131.181 120.381 131.512C120.817 132.019 121.208 132.563 121.551 133.138L122.78 135.104H120.345L118.883 132.916C118.559 132.4 118.2 131.907 117.806 131.442C117.64 131.254 117.432 131.11 117.198 131.021C116.866 130.931 116.523 130.892 116.179 130.904H115.77V135.104H113.734ZM115.77 129.254H117.268C117.879 129.285 118.491 129.246 119.093 129.137C119.327 129.067 119.527 128.913 119.655 128.704C119.802 128.483 119.876 128.221 119.866 127.956C119.878 127.659 119.782 127.368 119.597 127.137C119.394 126.917 119.121 126.776 118.824 126.739C118.66 126.739 118.169 126.739 117.35 126.739H115.77V129.254ZM31.7709 151.483V141.433H36.2295C36.9224 141.406 37.615 141.497 38.2774 141.702C38.7657 141.879 39.1787 142.217 39.4476 142.662C39.7278 143.115 39.8739 143.638 39.8689 144.171C39.8861 144.839 39.6379 145.487 39.1784 145.972C38.5925 146.52 37.8367 146.85 37.0369 146.908C37.3256 147.043 37.5968 147.211 37.8444 147.411C38.2634 147.81 38.6328 148.258 38.9444 148.745L40.6295 151.483H38.9561L37.6922 149.389C37.3061 148.792 36.9784 148.324 36.7327 148.008C36.544 147.751 36.3148 147.525 36.0539 147.341C35.8688 147.216 35.6627 147.125 35.4454 147.072C35.2003 147.048 34.9533 147.048 34.7082 147.072H33.105V151.483H31.7709ZM33.105 145.867H35.9603C36.4434 145.887 36.9264 145.824 37.388 145.68C37.7083 145.574 37.9841 145.364 38.172 145.083C38.347 144.811 38.4404 144.494 38.4412 144.171C38.4464 143.949 38.4018 143.729 38.3107 143.526C38.2196 143.324 38.0842 143.144 37.9146 143.001C37.4481 142.652 36.8681 142.489 36.288 142.545H33.105V145.867ZM41.9285 151.483V141.433H49.1956V142.603H43.2625V145.68H48.8211V146.85H43.2625V150.313H49.3945V151.483H41.9285ZM51.2903 151.483V141.433H52.6595L57.9372 149.318V141.433H59.2127V151.483H57.8436L52.5658 143.586V151.483H51.2903ZM61.05 146.593C60.9626 145.16 61.4464 143.75 62.3958 142.673C62.8446 142.199 63.3906 141.827 63.9965 141.582C64.6024 141.338 65.2538 141.227 65.9064 141.258C66.7902 141.246 67.6603 141.477 68.4224 141.925C69.1582 142.36 69.7486 143.003 70.1193 143.773C70.518 144.617 70.7182 145.542 70.7044 146.476C70.7253 147.421 70.5123 148.358 70.0842 149.202C69.7058 149.979 69.0969 150.62 68.3405 151.038C67.5948 151.448 66.7572 151.661 65.9064 151.658C65.0119 151.672 64.1316 151.433 63.3671 150.968C62.6297 150.524 62.0394 149.873 61.6702 149.096C61.2598 148.324 61.0354 147.467 61.0149 146.593H61.05ZM62.4192 146.593C62.3601 147.638 62.7082 148.665 63.3904 149.459C63.7093 149.79 64.0918 150.054 64.5151 150.234C64.9384 150.415 65.3937 150.507 65.8538 150.507C66.3138 150.507 66.7692 150.415 67.1924 150.234C67.6157 150.054 67.9983 149.79 68.3171 149.459C69.0106 148.621 69.358 147.549 69.2884 146.464C69.3052 145.728 69.1614 144.997 68.8671 144.323C68.6247 143.746 68.2176 143.254 67.6969 142.907C67.1609 142.571 66.5392 142.396 65.9064 142.404C65.4564 142.395 65.0092 142.477 64.5911 142.643C64.1731 142.81 63.7927 143.059 63.4724 143.375C63.0807 143.811 62.7822 144.322 62.5951 144.878C62.408 145.433 62.3361 146.02 62.3841 146.604L62.4192 146.593ZM78.9779 141.421H80.3119V147.271C80.3426 148.089 80.2236 148.906 79.9609 149.681C79.7221 150.29 79.2851 150.801 78.7204 151.132C78.009 151.536 77.1975 151.731 76.38 151.693C75.5711 151.727 74.7665 151.558 74.0395 151.202C73.4643 150.896 73.0134 150.4 72.764 149.798C72.4752 148.988 72.3441 148.13 72.3778 147.271V141.421H73.7119V147.271C73.6989 147.905 73.7857 148.536 73.9693 149.143C74.1296 149.548 74.4281 149.884 74.8119 150.091C75.2582 150.327 75.7581 150.444 76.263 150.43C76.6391 150.467 77.019 150.428 77.3792 150.313C77.7394 150.198 78.0724 150.011 78.3577 149.763C78.8569 149.012 79.0764 148.109 78.9779 147.213V141.421ZM85.4024 151.471L81.5056 141.421H82.945L85.5663 148.722C85.7652 149.307 85.9524 149.892 86.0929 150.371C86.245 149.822 86.4205 149.272 86.6312 148.722L89.3461 141.421H90.7036L86.7365 151.483L85.4024 151.471ZM91.9206 151.471V141.421H99.1877V142.591H93.2547V145.668H98.8132V146.838H93.2547V150.313H99.4218V151.483L91.9206 151.471ZM101.212 151.471V141.421H102.535V150.313H107.485V151.483L101.212 151.471ZM107.976 151.471L111.838 141.421H113.266L117.385 151.471H115.863L114.693 148.429H110.492L109.392 151.471H107.976ZM110.878 147.341H114.284L113.23 144.557C112.915 143.715 112.68 143.024 112.517 142.474C112.388 143.127 112.208 143.769 111.978 144.393L110.878 147.341ZM118.391 151.471V141.421H122.159C122.79 141.399 123.418 141.503 124.008 141.726C124.462 141.919 124.843 142.251 125.097 142.673C125.359 143.064 125.498 143.525 125.494 143.995C125.483 144.409 125.362 144.813 125.143 145.165C124.884 145.562 124.52 145.878 124.09 146.078C124.644 146.216 125.135 146.538 125.483 146.99C125.817 147.426 125.994 147.962 125.986 148.511C125.988 148.966 125.884 149.415 125.682 149.822C125.514 150.188 125.261 150.509 124.944 150.758C124.615 150.996 124.241 151.167 123.844 151.261C123.314 151.377 122.772 151.432 122.23 151.424L118.391 151.471ZM119.725 145.622H121.89C122.319 145.641 122.748 145.602 123.166 145.505C123.467 145.424 123.734 145.247 123.926 145.001C124.107 144.745 124.197 144.437 124.184 144.124C124.187 143.816 124.106 143.512 123.95 143.247C123.793 142.993 123.547 142.809 123.259 142.732C122.759 142.605 122.242 142.553 121.726 142.58H119.725V145.622ZM119.725 150.301H122.23C122.53 150.32 122.831 150.32 123.131 150.301C123.4 150.257 123.658 150.161 123.891 150.02C124.108 149.885 124.285 149.696 124.406 149.471C124.539 149.206 124.607 148.913 124.605 148.617C124.616 148.27 124.513 147.929 124.313 147.645C124.124 147.363 123.842 147.156 123.517 147.061C123.037 146.925 122.54 146.866 122.042 146.885H119.702L119.725 150.301ZM127.753 151.471V141.421H129.087V150.313H134.037V151.483L127.753 151.471ZM135.652 151.471V141.421H142.931V142.591H136.986V145.668H142.545V146.838H136.986V150.313H143.153V151.483L135.652 151.471ZM31.3847 162.96C31.2973 161.527 31.7812 160.118 32.7305 159.041C33.1793 158.566 33.7253 158.194 34.3312 157.95C34.9371 157.705 35.5886 157.595 36.2412 157.625C37.1252 157.612 37.9957 157.843 38.7572 158.292C39.4929 158.727 40.0833 159.37 40.454 160.14C40.8584 160.983 41.0589 161.909 41.0391 162.843C41.0594 163.787 40.8506 164.723 40.4306 165.569C40.0472 166.346 39.4346 166.987 38.6752 167.406C37.9295 167.815 37.092 168.029 36.2412 168.026C35.3467 168.038 34.4668 167.799 33.7018 167.335C32.9644 166.892 32.3742 166.241 32.0049 165.464C31.5963 164.695 31.3719 163.842 31.3496 162.972L31.3847 162.96ZM32.7539 162.96C32.6948 164.005 33.0429 165.032 33.7252 165.826C34.044 166.158 34.4265 166.422 34.8498 166.602C35.2731 166.782 35.7284 166.875 36.1885 166.875C36.6486 166.875 37.1039 166.782 37.5272 166.602C37.9505 166.422 38.333 166.158 38.6518 165.826C39.3507 164.991 39.6988 163.918 39.6231 162.831C39.6378 162.097 39.4983 161.367 39.2135 160.69C38.9574 160.11 38.5352 159.618 38.0001 159.276C37.4649 158.935 36.8408 158.759 36.2061 158.772C35.756 158.763 35.3088 158.844 34.8907 159.011C34.4727 159.178 34.0923 159.426 33.772 159.743C33.3851 160.183 33.0921 160.697 32.911 161.254C32.7299 161.812 32.6645 162.4 32.7188 162.983L32.7539 162.96ZM49.3126 157.789H50.5648V163.638C50.5929 164.455 50.478 165.271 50.2254 166.049C49.9827 166.655 49.5467 167.165 48.9849 167.499C48.2726 167.901 47.4618 168.096 46.6445 168.061C45.8353 168.098 45.0299 167.929 44.304 167.569C43.7232 167.267 43.2675 166.77 43.0168 166.166C42.728 165.356 42.5969 164.498 42.6306 163.638V157.789H43.9647V163.638C43.9378 164.29 44.0169 164.942 44.1987 165.569C44.3624 165.972 44.6599 166.307 45.0413 166.516C45.4876 166.753 45.9875 166.87 46.4924 166.856C46.8685 166.893 47.2484 166.853 47.6086 166.739C47.9688 166.624 48.3018 166.437 48.5871 166.189C49.0863 165.438 49.3058 164.535 49.2073 163.638L49.3126 157.789ZM56.7787 167.839V157.789H60.2893C60.8894 157.774 61.4894 157.821 62.0798 157.929C62.6218 158.051 63.1271 158.3 63.5543 158.655C64.0888 159.115 64.4924 159.708 64.7245 160.374C64.9988 161.124 65.1336 161.917 65.1224 162.714C65.1318 163.398 65.0411 164.08 64.8532 164.738C64.7065 165.264 64.4731 165.763 64.1628 166.212C63.9135 166.567 63.6047 166.876 63.25 167.125C62.8915 167.355 62.4955 167.522 62.0798 167.616C61.5547 167.741 61.0162 167.8 60.4766 167.792L56.7787 167.839ZM58.101 166.669H60.2542C60.7794 166.682 61.3037 166.619 61.8106 166.481C62.1468 166.376 62.4548 166.196 62.7117 165.955C63.0526 165.597 63.3051 165.164 63.449 164.691C63.64 164.062 63.7308 163.407 63.7181 162.749C63.7676 161.909 63.5855 161.071 63.1915 160.328C62.92 159.806 62.4781 159.393 61.9394 159.158C61.3822 158.99 60.8004 158.918 60.2191 158.947H58.101V166.669ZM66.9479 167.839V157.789H74.2151V158.959H68.282V162.036H73.8406V163.206H68.282V166.692H74.4491V167.862L66.9479 167.839ZM31.8411 184.218V174.168H36.2997C36.9937 174.137 37.6875 174.232 38.3476 174.449C38.8375 174.616 39.2521 174.952 39.5178 175.396C39.798 175.849 39.9441 176.373 39.9391 176.905C39.9563 177.574 39.7081 178.222 39.2486 178.707C38.6627 179.255 37.9069 179.585 37.1071 179.643C37.3958 179.777 37.667 179.946 37.9146 180.146C38.3336 180.545 38.703 180.993 39.0146 181.48L40.6295 184.241H38.9561L37.6922 182.147C37.3061 181.55 36.9784 181.082 36.7327 180.766C36.544 180.509 36.3148 180.283 36.0539 180.099C35.8688 179.974 35.6627 179.883 35.4454 179.83C35.2003 179.806 34.9533 179.806 34.7082 179.83H33.105V184.241L31.8411 184.218ZM33.1752 178.602H36.0305C36.5136 178.622 36.9966 178.559 37.4582 178.415C37.7785 178.308 38.0543 178.098 38.2423 177.818C38.4172 177.546 38.5106 177.229 38.5114 176.905C38.5166 176.684 38.472 176.463 38.3809 176.261C38.2898 176.058 38.1544 175.879 37.9848 175.736C37.5183 175.386 36.9383 175.224 36.3582 175.279H33.105L33.1752 178.602ZM41.9987 184.218V174.168H49.2658V175.338H43.2625V178.415H48.8211V179.585H43.2625V183.071H49.3945V184.241L41.9987 184.218ZM44.7136 173.571L45.6264 171.652H47.253L45.7434 173.571H44.7136ZM58.4404 180.731L59.7744 181.059C59.5662 182.039 59.0346 182.921 58.2649 183.562C57.5064 184.15 56.5675 184.456 55.6084 184.428C54.6807 184.468 53.7614 184.237 52.9637 183.761C52.2613 183.295 51.7182 182.626 51.4073 181.843C51.0523 180.99 50.8732 180.075 50.8807 179.152C50.8599 178.205 51.0645 177.267 51.4775 176.414C51.8521 175.664 52.4486 175.047 53.1861 174.648C53.9348 174.235 54.7769 174.022 55.6318 174.027C56.5403 173.998 57.4332 174.269 58.1712 174.8C58.8736 175.343 59.3757 176.104 59.5989 176.964L58.2883 177.268C58.1235 176.641 57.7677 176.081 57.2702 175.665C56.7856 175.323 56.2014 175.15 55.6084 175.174C54.9193 175.149 54.2397 175.341 53.6659 175.724C53.1485 176.093 52.763 176.617 52.5658 177.221C52.1247 178.578 52.1453 180.043 52.6244 181.386C52.8456 181.979 53.2572 182.481 53.7946 182.814C54.3096 183.125 54.9012 183.287 55.5031 183.282C56.1883 183.302 56.8578 183.074 57.3872 182.638C57.9478 182.143 58.3199 181.469 58.4404 180.731ZM68.0129 174.203H69.3469V180.053C69.3775 180.871 69.2586 181.687 68.9958 182.463C68.7611 183.074 68.3231 183.586 67.7554 183.913C67.0445 184.319 66.2326 184.514 65.4149 184.475C64.606 184.509 63.8015 184.34 63.0745 183.984C62.4993 183.678 62.0484 183.181 61.7989 182.58C61.5101 181.77 61.379 180.912 61.4128 180.053V174.203H62.7468V180.053C62.72 180.704 62.799 181.356 62.9809 181.983C63.1412 182.388 63.4396 182.724 63.8234 182.931C64.2697 183.167 64.7696 183.284 65.2745 183.27C65.6507 183.307 66.0306 183.268 66.3908 183.153C66.751 183.038 67.084 182.851 67.3692 182.603C67.8685 181.852 68.088 180.949 67.9894 180.053L68.0129 174.203ZM71.5235 184.253V174.203H75.3268C75.8355 174.194 76.3442 174.226 76.8481 174.297C77.2926 174.36 77.7168 174.524 78.0885 174.776C78.4399 175.017 78.7191 175.348 78.896 175.736C79.0996 176.167 79.2036 176.639 79.2002 177.116C79.2193 177.917 78.9254 178.693 78.3811 179.28C77.9782 179.621 77.5098 179.876 77.0046 180.029C76.4994 180.182 75.9682 180.23 75.4438 180.17H72.8576V184.241L71.5235 184.253ZM72.8576 178.976H75.4555C76.1056 179.042 76.7576 178.871 77.2928 178.497C77.477 178.326 77.6209 178.117 77.714 177.885C77.8071 177.652 77.8471 177.401 77.8311 177.151C77.8447 176.766 77.7294 176.387 77.5034 176.075C77.3122 175.778 77.0152 175.564 76.6725 175.478C76.2637 175.402 75.8478 175.37 75.4321 175.385H72.8576V178.976ZM80.9907 184.241V174.191H88.2578V175.361H82.3247V178.438H87.8833V179.608H82.3247V183.071H88.4918V184.241H80.9907ZM83.7407 173.571L84.6535 171.652H86.2684L84.7588 173.571H83.7407ZM90.3525 184.241V174.191H94.8111C95.5012 174.16 96.1913 174.255 96.8473 174.472C97.3362 174.641 97.7503 174.977 98.0175 175.42C98.2977 175.873 98.4438 176.396 98.4388 176.929C98.456 177.597 98.2078 178.245 97.7484 178.731C97.1624 179.278 96.4066 179.608 95.6068 179.667C95.8935 179.798 96.1611 179.967 96.4026 180.17C96.8494 180.561 97.2428 181.009 97.5728 181.503L99.3165 184.241H97.643L96.2036 182.147C95.8058 181.55 95.4898 181.082 95.2324 180.766C95.0499 180.503 94.8197 180.277 94.5536 180.099C94.3727 179.974 94.1704 179.883 93.9568 179.83C93.7117 179.806 93.4647 179.806 93.2196 179.83H91.6749V184.241H90.3525ZM91.6866 178.625H94.5419C95.025 178.645 95.508 178.582 95.9696 178.438C96.2883 178.329 96.5632 178.119 96.7537 177.841C96.9286 177.569 97.022 177.252 97.0228 176.929C97.028 176.707 96.9834 176.487 96.8923 176.284C96.8012 176.082 96.6658 175.902 96.4962 175.759C96.0268 175.416 95.4491 175.254 94.8696 175.303H91.6866V178.625ZM99.375 184.241L103.237 174.191H104.676L108.784 184.241H107.274L106.104 181.199H101.903L100.803 184.241H99.375ZM102.277 180.111H105.682L104.641 177.327C104.313 176.484 104.079 175.794 103.927 175.244C103.794 175.897 103.61 176.539 103.377 177.163L102.277 180.111ZM111.358 184.241V175.373H108.046V174.203H116.016V175.373H112.692V184.241H111.358ZM117.619 184.241V174.191H118.941V184.241H117.619ZM120.895 179.351C120.808 177.918 121.292 176.508 122.241 175.431C122.69 174.957 123.236 174.585 123.842 174.34C124.448 174.096 125.099 173.985 125.752 174.016C126.636 174.003 127.506 174.233 128.268 174.683C129.004 175.118 129.594 175.761 129.965 176.531C130.369 177.374 130.57 178.299 130.55 179.234C130.57 180.178 130.361 181.113 129.941 181.96C129.555 182.735 128.943 183.375 128.186 183.796C127.44 184.206 126.603 184.419 125.752 184.416C124.857 184.429 123.978 184.19 123.213 183.726C122.475 183.283 121.885 182.631 121.516 181.854C121.105 181.082 120.881 180.225 120.86 179.351H120.895ZM122.265 179.351C122.206 180.396 122.554 181.423 123.236 182.217C123.555 182.549 123.937 182.812 124.361 182.993C124.784 183.173 125.239 183.266 125.699 183.266C126.159 183.266 126.615 183.173 127.038 182.993C127.461 182.812 127.844 182.549 128.163 182.217C128.856 181.379 129.203 180.308 129.134 179.222C129.151 178.486 129.007 177.756 128.713 177.081C128.47 176.504 128.063 176.012 127.542 175.665C127.006 175.329 126.385 175.154 125.752 175.162C125.302 175.153 124.855 175.235 124.437 175.402C124.019 175.568 123.638 175.817 123.318 176.133C122.926 176.569 122.628 177.08 122.441 177.636C122.253 178.191 122.182 178.778 122.23 179.362L122.265 179.351ZM132.212 184.229V174.18H133.581L138.858 182.065V174.18H140.134V184.241H138.765L133.487 176.344V184.241L132.212 184.229Z" fill="#000074"/>
<path d="M535.649 558.619H149.473C145.963 558.619 143.061 555.25 143.061 551.108L143.131 408.868" stroke="#1D70B7" stroke-width="4.92" stroke-miterlimit="10"/>
<path d="M483.551 545.75L484.721 379.62" stroke="#E20613" stroke-width="5" stroke-miterlimit="10"/>
<path d="M472.374 558.619C472.784 472.044 473.825 391.377 471.848 380.79" stroke="#1D70B7" stroke-width="5" stroke-miterlimit="10"/>
<path d="M261.207 545.75L262.377 468.534" stroke="#E20613" stroke-width="5" stroke-miterlimit="10"/>
<path d="M250.674 558.619C253.248 465.024 253.014 463.854 253.014 463.854" stroke="#1D70B7" stroke-width="5" stroke-miterlimit="10"/>
<path d="M104.395 422.907L103.108 544.089C103.05 547.989 101.448 551.708 98.6542 554.431C95.8603 557.154 92.1013 558.66 88.1995 558.619H3.75586" stroke="#1D70B7" stroke-width="5" stroke-miterlimit="10"/>
<path d="M113.43 421.737L113.758 536.613C113.758 543.574 105.157 549.26 94.5663 549.26H8.4375" stroke="#E20613" stroke-width="5" stroke-miterlimit="10"/>
<path d="M529.961 545.75H157.454C154.06 545.75 151.205 542.369 151.205 538.215V408.868" stroke="#E20613" stroke-width="4.93" stroke-miterlimit="10"/>
<path d="M418.146 366.271H456.553V341.012H418.146V366.271Z" fill="url(#paint0_linear_1682_15987)" stroke="#29B8CE" stroke-miterlimit="10"/>
<path d="M518.061 393.881V405.58" stroke="#29B8CE" stroke-width="1.48" stroke-miterlimit="10" stroke-linecap="round"/>
<path d="M518.06 395.823C518.438 395.8 518.801 395.667 519.105 395.44C519.409 395.214 519.639 394.903 519.769 394.547C519.898 394.19 519.92 393.804 519.832 393.435C519.745 393.067 519.551 392.732 519.275 392.472C519 392.212 518.654 392.038 518.281 391.972C517.907 391.906 517.523 391.951 517.175 392.101C516.826 392.25 516.53 392.499 516.321 392.815C516.112 393.131 516.001 393.502 516 393.881C516.008 394.144 516.067 394.402 516.174 394.642C516.282 394.882 516.436 395.098 516.627 395.279C516.818 395.459 517.043 395.6 517.289 395.693C517.535 395.787 517.797 395.831 518.06 395.823Z" fill="#29B8CE"/>
<path d="M518.06 407.359C518.438 407.336 518.801 407.203 519.105 406.976C519.409 406.749 519.639 406.439 519.769 406.082C519.898 405.726 519.92 405.34 519.832 404.971C519.745 404.602 519.551 404.267 519.275 404.007C519 403.747 518.654 403.574 518.281 403.508C517.907 403.442 517.523 403.486 517.175 403.636C516.826 403.786 516.53 404.034 516.321 404.351C516.112 404.667 516.001 405.038 516 405.417C516.008 405.679 516.067 405.938 516.174 406.178C516.282 406.418 516.436 406.634 516.627 406.814C516.818 406.995 517.043 407.136 517.289 407.229C517.535 407.322 517.797 407.367 518.06 407.359Z" fill="#29B8CE"/>
<path d="M395.045 430.699V212.214H188.652V429.727" fill="#F9BBA5"/>
<path opacity="0.75" d="M250.172 429.657H338.735V283.685H250.172V429.657Z" fill="#FFDEDE"/>
<path d="M288.579 423.176H283.652" stroke="#F28C00" stroke-width="2" stroke-miterlimit="10"/>
<path d="M297.484 426.674H283.242" stroke="#1E808F" stroke-width="2" stroke-miterlimit="10"/>
<path d="M289.526 334.893H284.611" stroke="#F28C00" stroke-width="2" stroke-miterlimit="10"/>
<path d="M295.822 338.391H284.201" stroke="#1E808F" stroke-width="2" stroke-miterlimit="10"/>
<path d="M271.492 473.413H290.754" stroke="#F28C00" stroke-width="3" stroke-miterlimit="10" stroke-linecap="round"/>
<path d="M290.463 473.214V287.195" stroke="#F28C00" stroke-width="3" stroke-miterlimit="10" stroke-linecap="round"/>
<path d="M275.039 480.807L296.911 480.936" stroke="#1E808F" stroke-width="3" stroke-miterlimit="10" stroke-linecap="round"/>
<path d="M297.484 480.233V287.195" stroke="#1E808F" stroke-width="3" stroke-miterlimit="10" stroke-linecap="round"/>
<path d="M308.016 488.423V289.535" stroke="#E5332A" stroke-width="3" stroke-miterlimit="10" stroke-linecap="round"/>
<path d="M274.08 488.423L308.017 488.552" stroke="#E5332A" stroke-width="3" stroke-miterlimit="10" stroke-linecap="round"/>
<path d="M308.121 424.346L314.955 424.475" stroke="#E5332A" stroke-width="2" stroke-miterlimit="10" stroke-linecap="round"/>
<path d="M307.84 336.192L311.807 336.063" stroke="#E5332A" stroke-width="2" stroke-miterlimit="10" stroke-linecap="round"/>
<path d="M335.318 429.657L333.41 427.844H315.775L313.996 429.657V410.038H335.587L335.318 429.657Z" fill="#F9A64B"/>
<path d="M324.797 405.545C324.797 402.819 324.926 401.135 324.107 399.45C323.838 398.935 321.65 396.993 321.1 400.234" stroke="url(#paint1_radial_1682_15987)" stroke-miterlimit="10" stroke-linecap="round"/>
<path d="M332.72 405.674C332.72 408.271 329.209 410.471 324.797 410.471C320.386 410.471 316.863 408.4 316.863 405.674" fill="white"/>
<path d="M314.546 334.249C314.546 319.988 314.406 311.307 315.225 302.486C315.494 299.631 323.019 296.004 326.026 302.872" stroke="url(#paint2_radial_1682_15987)" stroke-miterlimit="10" stroke-linecap="round"/>
<path d="M325.744 305.984C328.014 305.984 329.852 305.118 329.852 304.042C329.852 302.966 328.014 302.1 325.744 302.1C323.474 302.1 321.648 302.966 321.648 304.042C321.648 305.118 323.486 305.984 325.744 305.984Z" fill="url(#paint3_radial_1682_15987)"/>
<path d="M336.815 334.25V337.104C336.815 338.274 335.457 339.175 333.819 339.175H314.955C313.305 339.175 311.947 338.262 311.947 337.104V334.25" fill="white"/>
<path d="M244.823 510.301C244.823 513.67 261.768 513.811 261.768 513.811C261.768 513.811 278.315 514.068 277.906 510.301C277.496 506.534 277.906 459.736 277.906 464.147C277.906 468.558 261.207 467.364 261.207 467.364C261.207 467.364 244.66 467.236 244.823 464.124C244.964 461.292 244.823 507.06 244.823 510.301Z" fill="url(#paint4_linear_1682_15987)"/>
<path d="M261.09 468.394C270.078 468.394 277.357 467.107 277.357 465.539C277.357 463.971 270.078 462.685 261.09 462.685C252.103 462.685 244.824 463.96 244.824 465.539C244.824 467.119 252.103 468.394 261.09 468.394Z" fill="url(#paint5_linear_1682_15987)" stroke="url(#paint6_radial_1682_15987)" stroke-width="0.72" stroke-miterlimit="10"/>
<path d="M244.824 465.797C246.462 466.967 250.675 468.382 260.13 468.253C267.912 468.125 275.027 466.697 275.027 465.797C275.027 464.896 267.421 461.515 259.768 461.515C252.114 461.515 244.18 465.399 244.824 465.797Z" fill="url(#paint7_linear_1682_15987)"/>
<path d="M285.981 415.139H272.312V428.102H285.981V415.139Z" fill="white"/>
<path d="M275.729 427.587C275.454 427.572 275.192 427.461 274.991 427.272C274.79 427.084 274.662 426.831 274.629 426.557V417.607C274.657 417.336 274.784 417.086 274.986 416.904C275.188 416.721 275.451 416.621 275.723 416.621C275.995 416.621 276.258 416.721 276.46 416.904C276.662 417.086 276.789 417.336 276.817 417.607V426.557C276.785 426.829 276.658 427.081 276.459 427.269C276.261 427.457 276.002 427.569 275.729 427.587Z" fill="white" stroke="#1D1D1B" stroke-width="0.25" stroke-miterlimit="10"/>
<path d="M279.147 427.587C278.872 427.572 278.61 427.461 278.409 427.272C278.208 427.084 278.08 426.831 278.047 426.557V417.607C278.075 417.336 278.202 417.086 278.404 416.904C278.606 416.721 278.869 416.621 279.141 416.621C279.413 416.621 279.676 416.721 279.878 416.904C280.08 417.086 280.207 417.336 280.235 417.607V426.557C280.234 426.697 280.204 426.835 280.148 426.963C280.092 427.091 280.011 427.207 279.91 427.303C279.808 427.399 279.688 427.473 279.557 427.522C279.426 427.571 279.287 427.593 279.147 427.587Z" fill="white" stroke="#1D1D1B" stroke-width="0.25" stroke-miterlimit="10"/>
<path d="M282.692 427.587C282.419 427.569 282.16 427.457 281.961 427.269C281.762 427.081 281.636 426.829 281.604 426.557V417.607C281.632 417.336 281.759 417.086 281.961 416.904C282.163 416.721 282.426 416.621 282.698 416.621C282.97 416.621 283.232 416.721 283.434 416.904C283.636 417.086 283.764 417.336 283.792 417.607V426.557C283.759 426.831 283.631 427.084 283.43 427.272C283.228 427.461 282.967 427.572 282.692 427.587Z" fill="white" stroke="#1D1D1B" stroke-width="0.25" stroke-miterlimit="10"/>
<path d="M284.061 328.283H270.393V341.246H284.061V328.283Z" fill="white"/>
<path d="M273.67 340.86C273.395 340.842 273.135 340.728 272.936 340.537C272.737 340.347 272.612 340.092 272.582 339.818V330.751C272.61 330.481 272.737 330.23 272.94 330.048C273.142 329.866 273.404 329.765 273.676 329.765C273.948 329.765 274.211 329.866 274.413 330.048C274.615 330.23 274.742 330.481 274.77 330.751V339.69C274.784 339.841 274.765 339.993 274.715 340.136C274.665 340.279 274.586 340.41 274.482 340.521C274.378 340.631 274.252 340.719 274.113 340.777C273.973 340.835 273.822 340.863 273.67 340.86Z" fill="white" stroke="#1D1D1B" stroke-width="0.25" stroke-miterlimit="10"/>
<path d="M277.227 340.86C276.952 340.842 276.692 340.728 276.493 340.537C276.294 340.347 276.168 340.092 276.139 339.818V330.751C276.167 330.481 276.294 330.23 276.496 330.048C276.698 329.866 276.961 329.765 277.233 329.765C277.505 329.765 277.767 329.866 277.969 330.048C278.172 330.23 278.299 330.481 278.327 330.751V339.69C278.328 339.988 278.214 340.276 278.009 340.493C277.805 340.711 277.525 340.842 277.227 340.86Z" fill="white" stroke="#1D1D1B" stroke-width="0.25" stroke-miterlimit="10"/>
<path d="M280.784 340.86C280.507 340.845 280.244 340.732 280.042 340.541C279.841 340.35 279.714 340.094 279.684 339.818V330.751C279.712 330.481 279.839 330.23 280.041 330.048C280.243 329.866 280.506 329.765 280.778 329.765C281.05 329.765 281.312 329.866 281.514 330.048C281.717 330.23 281.844 330.481 281.872 330.751V339.69C281.873 339.986 281.761 340.272 281.559 340.489C281.357 340.706 281.08 340.839 280.784 340.86Z" fill="white" stroke="#1D1D1B" stroke-width="0.25" stroke-miterlimit="10"/>
<path d="M339.414 343.352L250.301 343.866" stroke="url(#paint8_linear_1682_15987)" stroke-width="4" stroke-miterlimit="10"/>
<path d="M339.412 287.054H250.475" stroke="url(#paint9_linear_1682_15987)" stroke-width="4" stroke-miterlimit="10"/>
<path d="M110.809 400.877H142.112V198.783H110.809V400.877Z" fill="url(#paint10_linear_1682_15987)"/>
<path d="M60 400.877H91.3036V198.783H60V400.877Z" fill="url(#paint11_linear_1682_15987)"/>
<path d="M49.3945 440.456H158.226V352.711H49.3945V440.456Z" fill="url(#paint12_linear_1682_15987)"/>
<path d="M56.709 386.756H93.618V366.528H56.709V386.756Z" fill="url(#paint13_linear_1682_15987)" stroke="url(#paint14_linear_1682_15987)" stroke-miterlimit="10"/>
<path d="M111 386.756H147.909V366.528H111V386.756Z" fill="url(#paint15_linear_1682_15987)" stroke="url(#paint16_linear_1682_15987)" stroke-miterlimit="10"/>
<path d="M83 430.228H119.909V410H83V430.228Z" fill="url(#paint17_linear_1682_15987)" stroke="url(#paint18_linear_1682_15987)" stroke-miterlimit="10"/>
<g opacity="0.77">
<path opacity="0.77" d="M568.977 437.976L555.156 437.531" stroke="white" stroke-miterlimit="10" stroke-dasharray="6.29 6.29"/>
</g>
<g opacity="0.77">
<path opacity="0.77" d="M391.102 437.976L377.281 437.531" stroke="white" stroke-miterlimit="10" stroke-dasharray="6.29 6.29"/>
</g>
<path d="M566.941 429.88L417.538 429.845L395.877 88.9265L551.33 89.6402L566.941 429.88Z" fill="#71B3EA"/>
<path d="M552.032 104.966L396.099 92.4247L395.689 86.0134L551.201 86.7271L552.032 104.966Z" fill="#61A4DB"/>
<path d="M551.342 89.9327L395.888 89.219L395.689 86.0134L551.201 86.7271L551.342 89.9327Z" fill="#B7D7E8"/>
<path d="M395.432 81.9304L395.689 86.0135L551.201 86.7271L553.471 82.6675L395.432 81.9304Z" fill="white"/>
<path d="M449.099 330.295L427.052 330.272L423.658 275.917L445.869 275.964L449.099 330.295Z" fill="#F1F8F9"/>
<path d="M445.401 291.851L444.57 277.953L425.191 277.917L426.057 291.816L445.401 291.851Z" fill="#89D8F7"/>
<path d="M426.174 293.606L428.327 328.306L447.577 328.33L445.506 293.63L426.174 293.606Z" fill="#89D8F7"/>
<path d="M498.166 330.342L476.142 330.319L473.1 276.01L495.287 276.057L498.166 330.342Z" fill="#F1F8F9"/>
<path d="M494.714 291.921L493.977 278.034L474.621 277.999L475.405 291.898L494.714 291.921Z" fill="#89D8F7"/>
<path d="M475.498 293.677L477.441 328.365L496.667 328.388L494.807 293.712L475.498 293.677Z" fill="#89D8F7"/>
<path d="M547.176 330.401L525.188 330.377L522.484 276.104L544.637 276.139L547.176 330.401Z" fill="#F1F8F9"/>
<path d="M543.968 292.003L543.324 278.128L523.992 278.093L524.683 291.968L543.968 292.003Z" fill="#89D8F7"/>
<path d="M524.766 293.758L526.486 328.412L545.689 328.435L544.063 293.793L524.766 293.758Z" fill="#89D8F7"/>
<path d="M444.476 252.741L422.206 252.694L418.754 197.251L441.175 197.309L444.476 252.741Z" fill="#F1F8F9"/>
<path d="M421.305 215.291L423.505 250.693L442.942 250.728L440.836 215.338L421.305 215.291Z" fill="#89D8F7"/>
<path d="M440.719 213.513L439.877 199.333L420.311 199.286L421.188 213.466L440.719 213.513Z" fill="#89D8F7"/>
<path d="M494.046 252.846L471.8 252.799L468.688 197.391L491.097 197.461L494.046 252.846Z" fill="#F1F8F9"/>
<path d="M490.536 213.653L489.775 199.474L470.232 199.427L471.028 213.595L490.536 213.653Z" fill="#89D8F7"/>
<path d="M471.133 215.42L473.099 250.798L492.525 250.833L490.629 215.466L471.133 215.42Z" fill="#89D8F7"/>
<path d="M543.547 252.951L521.324 252.904L518.574 197.531L540.949 197.602L543.547 252.951Z" fill="#F1F8F9"/>
<path d="M540.282 213.782L539.615 199.614L520.096 199.567L520.798 213.723L540.282 213.782Z" fill="#89D8F7"/>
<path d="M520.893 215.548L522.648 250.904L542.039 250.939L540.377 215.595L520.893 215.548Z" fill="#89D8F7"/>
<path d="M439.749 173.302L417.257 173.232L413.723 116.666L436.39 116.748L439.749 173.302Z" fill="#F1F8F9"/>
<path d="M435.934 133.279L435.068 118.818L415.291 118.737L416.192 133.209L435.934 133.279Z" fill="#89D8F7"/>
<path d="M416.309 135.069L418.555 171.196L438.203 171.255L436.039 135.139L416.309 135.069Z" fill="#89D8F7"/>
<path d="M489.823 173.454L467.355 173.384L464.184 116.853L486.816 116.947L489.823 173.454Z" fill="#F1F8F9"/>
<path d="M486.252 133.466L485.48 119.006L465.738 118.936L466.546 133.396L486.252 133.466Z" fill="#89D8F7"/>
<path d="M466.652 135.256L468.665 171.348L488.278 171.407L486.359 135.326L466.652 135.256Z" fill="#89D8F7"/>
<path d="M539.826 173.618L517.381 173.548L514.572 117.052L537.169 117.134L539.826 173.618Z" fill="#F1F8F9"/>
<path d="M422.277 276.315L447.297 276.362L447.109 273.32L422.09 273.273L422.277 276.315Z" fill="white"/>
<path d="M471.719 276.408L496.703 276.455L496.539 273.413L471.555 273.366L471.719 276.408Z" fill="white"/>
<path d="M521.103 276.502L546.053 276.549L545.912 273.507L520.951 273.46L521.103 276.502Z" fill="white"/>
<path d="M417.361 197.648L442.626 197.73L442.439 194.618L417.162 194.548L417.361 197.648Z" fill="white"/>
<path d="M467.295 197.789L492.537 197.871L492.373 194.77L467.131 194.688L467.295 197.789Z" fill="white"/>
<path d="M517.181 197.941L542.376 198.011L542.236 194.911L517.018 194.841L517.181 197.941Z" fill="white"/>
<path d="M412.318 117.075L437.841 117.169L437.654 113.998L412.119 113.905L412.318 117.075Z" fill="white"/>
<path d="M462.767 117.263L488.267 117.368L488.091 114.197L462.592 114.104L462.767 117.263Z" fill="white"/>
<path d="M513.004 114.291L513.156 117.461L538.62 117.555L538.468 114.396L513.004 114.291Z" fill="white"/>
<path d="M536.514 133.653L535.836 119.204L516.105 119.123L516.831 133.571L536.514 133.653Z" fill="#89D8F7"/>
<path d="M536.597 135.502L538.294 171.571L518.705 171.512L516.926 135.432L536.597 135.502Z" fill="#89D8F7"/>
<path d="M425.121 332.237L451.264 332.261L451.123 329.804L424.969 329.781L425.121 332.237Z" fill="white"/>
<path d="M474.398 332.296L500.506 332.319L500.377 329.863L474.27 329.839L474.398 332.296Z" fill="white"/>
<path d="M523.443 329.886L523.56 332.343L549.633 332.378L549.528 329.921L523.443 329.886Z" fill="white"/>
<path d="M446.371 252.448L419.959 252.401L420.111 254.905L446.511 254.964L446.371 252.448Z" fill="white"/>
<path d="M496.117 252.565L469.752 252.507L469.892 255.01L496.258 255.069L496.117 252.565Z" fill="white"/>
<path d="M545.76 252.67L519.418 252.612L519.535 255.115L545.877 255.174L545.76 252.67Z" fill="white"/>
<path d="M441.679 173.302L414.998 173.22L415.162 175.782L441.831 175.864L441.679 173.302Z" fill="white"/>
<path d="M491.941 173.466L465.295 173.384L465.435 175.934L492.07 176.016L491.941 173.466Z" fill="white"/>
<path d="M542.074 173.618L515.463 173.536L515.592 176.098L542.191 176.18L542.074 173.618Z" fill="white"/>
<path d="M441.937 175.864L415.162 175.782L415.244 177.093L442.089 178.485L441.937 175.864Z" fill="#61A4DB"/>
<path d="M492.29 176.016L465.551 175.935L465.621 177.245L492.431 178.637L492.29 176.016Z" fill="#61A4DB"/>
<path d="M542.587 176.18L515.883 176.098L515.953 177.397L542.716 178.789L542.587 176.18Z" fill="#61A4DB"/>
<path d="M446.664 254.893L420.158 254.835L420.24 256.122L446.816 257.455L446.664 254.893Z" fill="#61A4DB"/>
<path d="M496.527 254.998L470.045 254.94L470.127 256.215L496.656 257.561L496.527 254.998Z" fill="#61A4DB"/>
<path d="M546.32 255.092L519.873 255.045L519.943 256.321L546.437 257.666L546.32 255.092Z" fill="#61A4DB"/>
<path d="M425.18 333.513L451.498 334.799L451.346 332.284L425.109 332.261L425.18 333.513Z" fill="#61A4DB"/>
<path d="M474.574 333.571L500.846 334.858L500.717 332.343L474.504 332.308L474.574 333.571Z" fill="#61A4DB"/>
<path d="M523.83 332.366L523.9 333.618L550.125 334.905L550.008 332.389L523.83 332.366Z" fill="#61A4DB"/>
<path d="M231.53 265.773L205.902 265.715L205.832 223.422L231.636 223.492L231.53 265.773Z" fill="#EDF3F4"/>
<path d="M229.961 235.847L229.984 225.037L207.469 224.978L207.492 235.8L229.961 235.847Z" fill="#61ADDB"/>
<path d="M207.494 237.192L207.529 264.194L229.904 264.241L229.963 237.239L207.494 237.192Z" fill="#518CBC"/>
<path d="M204.193 223.738L233.262 223.808L233.274 221.445L204.193 221.363V223.738Z" fill="white"/>
<path d="M233.94 265.773L203.561 265.715V267.622L233.928 267.692L233.94 265.773Z" fill="white"/>
<path d="M234.186 267.692L203.689 267.622L203.701 268.605L234.186 269.646V267.692Z" fill="#F98364"/>
<path d="M231.53 340.38L205.902 340.333L205.832 298.04L231.636 298.11L231.53 340.38Z" fill="#EDF3F4"/>
<path d="M229.961 310.465L229.984 299.643L207.469 299.596L207.492 310.406L229.961 310.465Z" fill="#61ADDB"/>
<path d="M207.494 311.799L207.529 338.812L229.904 338.847L229.963 311.857L207.494 311.799Z" fill="#518CBC"/>
<path d="M204.193 298.344L233.262 298.414L233.274 296.051L204.193 295.981V298.344Z" fill="white"/>
<path d="M233.94 340.392L203.561 340.322V342.24L233.928 342.299L233.94 340.392Z" fill="white"/>
<path d="M234.186 342.299L203.689 342.24L203.701 343.223L234.186 344.253V342.299Z" fill="#F98364"/>
<path d="M231.53 407.019L205.902 406.961L205.832 364.668L231.636 364.738L231.53 407.019Z" fill="#EDF3F4"/>
<path d="M229.961 377.092L229.984 366.282L207.469 366.224L207.492 377.046L229.961 377.092Z" fill="#61ADDB"/>
<path d="M207.494 378.438L207.529 405.44L229.904 405.487L229.963 378.485L207.494 378.438Z" fill="#518CBC"/>
<path d="M204.193 364.984L233.262 365.054L233.274 362.679L204.193 362.609V364.984Z" fill="white"/>
<path d="M233.94 407.019L203.561 406.961V408.868L233.928 408.938L233.94 407.019Z" fill="white"/>
<path d="M234.186 408.938L203.689 408.868L203.701 409.85L234.186 410.892V408.938Z" fill="#F98364"/>
<path d="M330.94 265.773L305.324 265.715L305.242 223.422L331.057 223.492L330.94 265.773Z" fill="#EDF3F4"/>
<path d="M329.384 235.847L329.408 225.037L306.893 224.978L306.904 235.8L329.384 235.847Z" fill="#61ADDB"/>
<path d="M306.904 237.192L306.951 264.194L329.314 264.241L329.384 237.239L306.904 237.192Z" fill="#518CBC"/>
<path d="M303.615 223.738L332.684 223.808L332.695 221.445L303.615 221.363V223.738Z" fill="white"/>
<path d="M333.363 265.773L302.973 265.715V267.622L333.352 267.692L333.363 265.773Z" fill="white"/>
<path d="M333.609 267.692L303.113 267.622V268.605L333.598 269.646L333.609 267.692Z" fill="#F98364"/>
<path d="M383.647 265.773L358.019 265.715L357.949 223.422L383.753 223.492L383.647 265.773Z" fill="#EDF3F4"/>
<path d="M382.091 235.847L382.115 225.037L359.6 224.978L359.611 235.8L382.091 235.847Z" fill="#61ADDB"/>
<path d="M359.611 237.192L359.646 264.194L382.021 264.241L382.08 237.239L359.611 237.192Z" fill="#518CBC"/>
<path d="M356.322 223.738L385.391 223.808V221.445L356.311 221.363L356.322 223.738Z" fill="white"/>
<path d="M386.059 265.773L355.68 265.715V267.622L386.059 267.692V265.773Z" fill="white"/>
<path d="M386.316 267.692L355.82 267.622V268.605L386.305 269.646L386.316 267.692Z" fill="#F98364"/>
<path d="M281.429 265.773L255.801 265.715L255.73 223.422L281.534 223.492L281.429 265.773Z" fill="#EDF3F4"/>
<path d="M279.861 235.847L279.896 225.037L257.369 224.978L257.393 235.8L279.861 235.847Z" fill="#61ADDB"/>
<path d="M257.391 237.192L257.426 264.194L279.801 264.241L279.859 237.239L257.391 237.192Z" fill="#518CBC"/>
<path d="M254.092 223.738L283.16 223.808L283.172 221.445L254.092 221.363V223.738Z" fill="white"/>
<path d="M283.838 265.773L253.459 265.715V267.622L283.826 267.692L283.838 265.773Z" fill="white"/>
<path d="M284.084 267.692L253.6 267.622V268.605L284.084 269.646V267.692Z" fill="#F98364"/>
<path d="M189.062 211.921H188.652L189.027 177.256H189.436L189.062 211.921Z" fill="#5D3953"/>
<path d="M198.177 211.945H197.768L198.177 177.292H198.587L198.177 211.945Z" fill="#5D3953"/>
<path d="M207.294 211.968H206.885L207.318 177.315L207.727 177.327L207.294 211.968Z" fill="#5D3953"/>
<path d="M216.398 212.003H215.988L216.456 177.35H216.878L216.398 212.003Z" fill="#5D3953"/>
<path d="M225.503 212.027H225.094L225.609 177.385H226.018L225.503 212.027Z" fill="#5D3953"/>
<path d="M234.619 212.05H234.209L234.747 177.408H235.157L234.619 212.05Z" fill="#5D3953"/>
<path d="M243.724 212.085H243.314L243.876 177.444H244.286L243.724 212.085Z" fill="#5D3953"/>
<path d="M252.816 212.109H252.418L253.015 177.467H253.424L252.816 212.109Z" fill="#5D3953"/>
<path d="M261.921 212.132H261.512L262.155 177.502H262.565L261.921 212.132Z" fill="#5D3953"/>
<path d="M271.025 212.155H270.615L271.282 177.537H271.692L271.025 212.155Z" fill="#5D3953"/>
<path d="M280.117 212.19H279.707L280.409 177.561H280.819L280.117 212.19Z" fill="#5D3953"/>
<path d="M289.222 212.214H288.812L289.538 177.596H289.948L289.222 212.214Z" fill="#5D3953"/>
<path d="M298.314 212.237H297.904L298.665 177.619H299.075L298.314 212.237Z" fill="#5D3953"/>
<path d="M307.408 212.273L306.998 212.261L307.794 177.654H308.203L307.408 212.273Z" fill="#5D3953"/>
<path d="M316.499 212.296H316.09L316.921 177.677H317.33L316.499 212.296Z" fill="#5D3953"/>
<path d="M325.593 212.319H325.184L326.038 177.713H326.447L325.593 212.319Z" fill="#5D3953"/>
<path d="M334.673 212.343H334.264L335.165 177.736L335.574 177.748L334.673 212.343Z" fill="#5D3953"/>
<path d="M343.767 212.378H343.357L344.282 177.771H344.691L343.767 212.378Z" fill="#5D3953"/>
<path d="M352.847 212.401H352.438L353.397 177.795L353.807 177.806L352.847 212.401Z" fill="#5D3953"/>
<path d="M361.927 212.424H361.518L362.512 177.83H362.922L361.927 212.424Z" fill="#5D3953"/>
<path d="M371.009 212.448H370.6L371.629 177.865H372.039L371.009 212.448Z" fill="#5D3953"/>
<path d="M380.089 212.483H379.68L380.745 177.888H381.154L380.089 212.483Z" fill="#5D3953"/>
<path d="M389.171 212.507H388.762L389.85 177.923H390.26L389.171 212.507Z" fill="#5D3953"/>
<path d="M398.251 212.53H397.842L398.965 177.947H399.375L398.251 212.53Z" fill="#5D3953"/>
<path d="M402.055 179.643L186.85 178.941L186.873 177.256L402.113 177.958L402.055 179.643Z" fill="#997683"/>
<path d="M400.979 212.542L186.512 211.91L186.547 208.014L401.108 208.646L400.979 212.542Z" fill="#5D3953"/>
<path d="M375.935 426.113H342.49L343.251 361.942L376.977 361.965L375.935 426.113Z" fill="white"/>
<path d="M372.87 411.652L346.844 411.641L347.405 366.762L373.583 366.774L372.87 411.652Z" fill="#61ADDB"/>
<path d="M343.567 401.673C343.343 401.655 343.134 401.549 342.988 401.378C342.841 401.207 342.767 400.985 342.783 400.76L342.842 395.905C342.832 395.679 342.911 395.459 343.062 395.29C343.213 395.122 343.424 395.019 343.649 395.004C343.874 395.019 344.084 395.122 344.233 395.291C344.382 395.46 344.458 395.68 344.445 395.905L344.387 400.76C344.393 400.988 344.312 401.21 344.16 401.38C344.007 401.55 343.795 401.655 343.567 401.673Z" fill="#446B8B"/>
<path d="M374.485 378.52L374.496 377.689L360.664 377.677L360.851 364.96H360.067L359.892 377.677L346.177 377.666L346.165 378.508H359.88L359.74 388.464L345.662 388.452L345.65 389.295H359.728L359.576 399.965H345.451V400.795H359.564L359.4 412.764H360.173L360.336 400.795L373.689 400.807L373.7 399.976L360.348 399.965L360.5 389.295L373.934 389.306L373.946 388.464H360.512L360.652 378.508L374.485 378.52Z" fill="white"/>
<g style="mix-blend-mode:multiply">
<g style="mix-blend-mode:multiply">
<path d="M343.252 361.942L376.978 361.965L376.568 387.13L343.088 375.349L343.252 361.942Z" fill="#DADFE1"/>
</g>
</g>
<path d="M378.429 425.727H341.918V429.529H378.429V425.727Z" fill="#EDF3F4"/>
<path d="M269.948 84.2235C269.574 87.2069 264.635 88.9033 260.973 88.9033C240.751 89.1607 220.951 87.9556 200.881 88.9852C186.932 89.6949 172.971 89.7651 158.999 89.1958C150.503 88.8448 142.027 88.2598 133.57 87.4409C106.584 84.7968 79.6809 87.3239 52.5433 86.8091L17.5652 86.2241C16.6522 86.1889 15.7419 86.1029 14.8385 85.9667C10.0406 85.3116 5.02032 83.0887 5.59373 78.6781C5.97991 75.7181 8.95228 73.8579 11.7374 72.7348C22.995 68.2189 35.6218 69.225 47.7219 70.1844C47.0432 65.6801 46.3762 61.0706 47.2422 56.6015C48.1081 52.1323 50.8465 47.7568 55.1412 46.0721C59.4359 44.3874 64.07 45.7913 68.5871 45.6977C77.6915 45.4988 85.5203 39.6608 93.9108 36.1861C102.301 32.7115 114.015 32.6179 118.392 40.5266C126.584 35.18 134.939 29.7866 144.43 27.4117C153.92 25.0367 164.873 26.2417 172.07 32.7582C175.289 35.7065 177.84 39.6842 180.508 43.2876C183.176 46.891 186.008 50.3072 189.776 52.0036C190.919 52.5033 192.13 52.8305 193.369 52.9747C195.592 53.2437 197.862 52.8694 200.074 53.232C205.679 54.1563 209.658 60.5441 207.996 65.9141H208.09L234.256 66.1949L241.079 66.2651C245.409 66.2651 249.949 66.4172 253.682 68.605C257.415 70.7927 259.908 75.6947 257.836 79.4502C261.979 80.7488 268.228 78.4792 269.738 82.5271C269.955 83.0646 270.027 83.6494 269.948 84.2235Z" fill="#F0F8FC"/>
<path d="M269.949 84.2235C269.574 87.2068 264.636 88.9032 260.973 88.9032C240.751 89.1606 220.951 87.9556 200.882 88.9851C186.933 89.6949 172.972 89.7651 158.999 89.1957C150.503 88.8447 142.027 88.2598 133.57 87.4408C106.585 84.7968 79.6812 87.3238 52.5437 86.809L17.5655 86.2241C16.6526 86.1888 15.7423 86.1029 14.8389 85.9667C14.4838 85.4197 14.2559 84.8 14.1719 84.1533C19.8475 82.5505 26.7167 83.1472 32.5679 83.9076C36.1722 84.3756 39.835 85.0775 43.3925 84.399C46.5638 83.7555 49.384 82.0591 52.2862 80.5967C61.0209 76.3111 70.7901 74.5833 80.4653 75.6128C85.2866 76.1276 90.1197 77.3443 94.941 76.7242C99.7624 76.1042 104.127 73.7526 108.867 72.8517C120.569 70.6406 131.944 77.5315 143.775 79.0407C162.264 81.3104 181.374 70.1258 199.033 75.9638C205.106 77.9644 210.852 81.9538 217.23 81.4274C223.608 80.9009 230.769 76.3381 235.24 80.7254C236.41 81.8953 237.089 83.4981 238.388 84.516C239.901 85.4947 241.691 85.9584 243.49 85.838C251.248 85.9316 258.89 83.4981 266.637 83.7906C267.75 83.8481 268.858 83.9928 269.949 84.2235Z" fill="#C0F3FF"/>
<path d="M189.823 52.144L168.291 54.3785C156.928 55.5485 145.389 56.7184 134.775 60.9301C143.335 52.3586 154.726 47.2008 166.816 46.423C171.251 46.1539 176.003 46.423 179.689 44.0012C179.961 43.8312 180.219 43.6395 180.461 43.428C183.199 47.125 186.008 50.4944 189.823 52.144Z" fill="#C0F3FF"/>
<path d="M234.291 66.3469C222.214 67.8367 210.122 69.1314 198.014 70.2311C201.524 69.2952 205.199 68.3007 208.066 66.0662L234.291 66.3469Z" fill="#C0F3FF"/>
<path d="M46.0488 429.599V430.757H567.069V429.599H53.1287H46.0488Z" fill="white"/>
<path d="M567.069 450.892H46.0488V453.056H567.069V450.892Z" fill="white"/>
<path d="M567.069 451.289L46.0488 450.997V430.816H567.069V451.289Z" fill="#AF9098"/>
<path d="M567.069 433.261H46.0488V434.138H567.069V433.261Z" fill="#FFBE78"/>
<path d="M567.069 448.786H46.0488V450.412H567.069V448.786Z" fill="#FFBE78"/>
<path d="M378.837 433.272H346.293L347.323 434.723H380.709L378.837 433.272Z" fill="white"/>
<path d="M382.782 436.326H348.459L349.653 437.999H384.935L382.782 436.326Z" fill="white"/>
<path d="M387.17 439.719H350.881L352.25 441.649H389.651L387.17 439.719Z" fill="white"/>
<path d="M392.084 443.521H353.584L355.164 445.744H394.952L392.084 443.521Z" fill="white"/>
<path d="M397.456 447.803H356.475L358.651 450.471L401.341 450.482L397.456 447.803Z" fill="white"/>
<path d="M154.645 430.547C154.645 430.699 193.38 430.979 193.38 430.979C193.859 428.382 195.802 413.267 193.649 407.686C192.806 405.51 191.238 405.346 189.529 406.048C191.074 402.761 192.771 399.029 193.251 397.753C193.59 396.793 193.709 395.768 193.598 394.755C193.486 393.742 193.148 392.768 192.607 391.904C190.349 387.774 188.406 389.903 187.353 391.81C188.687 388.534 190.864 381.807 187.973 378.098C185.832 375.349 184.275 377.268 183.292 379.561C184.721 374.615 185.481 369.5 185.551 364.352C185.434 360.631 184.521 357.473 182.04 356.162C176.4 353.074 175.019 361.251 174.597 366.025C174.733 361.786 174.553 357.543 174.059 353.331C173.298 347.856 171.648 343.387 168.138 344.767C164.908 346.054 163.796 350.336 163.632 355.004C163.586 359.202 163.978 363.394 164.803 367.511C163.937 363.872 161.842 357.496 158.425 361.661C156.248 364.305 155.897 369.219 156.155 373.676C156.344 376.856 156.778 380.016 157.454 383.129C157.454 383.129 151.111 371.956 149.648 383.129C149.149 386.863 149.3 390.655 150.093 394.337C151.041 398.666 156.049 410.283 156.705 411.804C156.155 410.564 152.527 403.065 149.356 411.968C148.662 414.118 148.435 416.392 148.689 418.637C148.958 421.468 153.721 427.902 154.645 430.547Z" fill="#BEC43B"/>
<path d="M156.542 430.43L156.706 430.851H199.291C199.77 428.511 201.713 418.122 199.548 413.115C198.706 411.173 197.137 411.021 195.441 411.652C196.974 408.704 198.67 405.393 199.162 404.223C199.497 403.366 199.613 402.439 199.499 401.525C199.384 400.612 199.043 399.742 198.507 398.994C196.248 395.297 194.317 397.204 193.264 398.912C194.598 395.975 196.775 389.95 193.873 386.627C191.731 384.159 190.186 385.879 189.192 387.938C190.61 383.546 191.371 378.969 191.45 374.355C191.345 371.021 190.432 368.189 187.998 366.996C182.357 364.223 180.918 371.559 180.555 375.829C180.686 372.03 180.502 368.226 180.005 364.457C179.256 359.544 177.595 355.542 174.154 356.783C170.913 357.952 169.801 361.766 169.637 365.955C169.597 369.723 169.99 373.484 170.807 377.163C169.941 373.899 167.858 368.189 164.441 371.886C162.253 374.226 161.914 378.649 162.101 382.65C162.298 385.504 162.732 388.338 163.4 391.12C163.4 391.12 157.057 381.105 155.594 391.12C155.093 394.468 155.248 397.881 156.051 401.17C156.999 405.042 161.996 415.466 162.651 416.823C162.101 415.712 158.473 408.985 155.314 416.964C153.699 420.977 154.845 426.089 156.542 430.43Z" fill="#A4AF3A"/>
<path d="M388.761 431.506C387.884 430.605 388.609 428.101 389.194 427.271C391.862 423.492 403.003 428.534 403.003 428.534C401.78 426.978 401.018 425.109 400.803 423.141C400.686 421.164 401.435 418.976 404.232 417.198C407.953 414.858 411.663 416.648 414.284 418.824C413.316 417.527 412.696 416.005 412.482 414.402C412.186 412.808 412.452 411.162 413.232 409.741C414.013 408.321 415.261 407.215 416.765 406.61C418.626 405.677 420.709 405.276 422.783 405.449C424.858 405.622 426.845 406.364 428.526 407.593C430.185 408.772 431.599 410.262 432.692 411.98C431.909 407.986 431.858 403.883 432.54 399.871C433.277 396.572 434.95 393.682 438.391 392.851C439.666 392.558 440.989 392.538 442.272 392.794C443.555 393.051 444.769 393.576 445.833 394.337C447.404 395.439 448.764 396.814 449.847 398.397L452.001 401.193C452.001 401.193 456.506 392.325 463.96 398.104C471.415 403.884 465.95 416.402 465.95 416.402C465.95 416.402 470.045 412.389 472.655 411.336C475.265 410.283 481.209 409.078 483.351 416.402C485.492 423.726 480.215 429.774 480.215 429.774L440.532 431.096L388.761 431.506Z" fill="#A4AF3A"/>
<path d="M409.603 429.295C409.603 429.295 402.745 424.615 406.49 419.374C410.234 414.132 418.332 419.374 418.332 419.374C418.332 419.374 415.84 410.95 424.558 410.95C433.276 410.95 431.942 417.631 431.942 417.631C431.942 417.631 436.061 408.119 443.843 410.95C451.625 413.781 449.496 423.27 449.496 423.27C449.496 423.27 454.481 417.104 459.478 419.865C464.475 422.626 458.413 430.593 458.413 430.593L413.101 431.096L409.603 429.295Z" fill="#BEC43B"/>
</g>
<defs>
<linearGradient id="paint0_linear_1682_15987" x1="456.6" y1="353.624" x2="418.088" y2="353.624" gradientUnits="userSpaceOnUse">
<stop stop-color="#ECEEF3"/>
<stop offset="0.5" stop-color="#CED2DF"/>
<stop offset="1" stop-color="#A9B0C5"/>
</linearGradient>
<radialGradient id="paint1_radial_1682_15987" cx="0" cy="0" r="1" gradientUnits="userSpaceOnUse" gradientTransform="translate(324.564 404.719) rotate(180) scale(3.63936 3.45131)">
<stop stop-color="#7A9198"/>
<stop offset="0.54" stop-color="#3F5D63"/>
<stop offset="1" stop-color="#153437"/>
</radialGradient>
<radialGradient id="paint2_radial_1682_15987" cx="0" cy="0" r="1" gradientUnits="userSpaceOnUse" gradientTransform="translate(-7021.3 -491403) scale(53.7689 810.409)">
<stop stop-color="#7A9198"/>
<stop offset="0.54" stop-color="#3F5D63"/>
<stop offset="1" stop-color="#153437"/>
</radialGradient>
<radialGradient id="paint3_radial_1682_15987" cx="0" cy="0" r="1" gradientUnits="userSpaceOnUse" gradientTransform="translate(-1449.54 -6146.77) scale(21.8208 13.2839)">
<stop stop-color="#7A9198"/>
<stop offset="0.54" stop-color="#3F5D63"/>
<stop offset="1" stop-color="#153437"/>
</radialGradient>
<linearGradient id="paint4_linear_1682_15987" x1="277.906" y1="488.833" x2="244.777" y2="488.833" gradientUnits="userSpaceOnUse">
<stop stop-color="#00595D"/>
<stop offset="0.39" stop-color="#B6C1C8"/>
<stop offset="0.56" stop-color="#B3AEA4"/>
<stop offset="0.68" stop-color="#36381C"/>
<stop offset="0.85" stop-color="#78818D"/>
<stop offset="1" stop-color="#E1E4E6"/>
</linearGradient>
<linearGradient id="paint5_linear_1682_15987" x1="9736.46" y1="939.75" x2="8832.06" y2="939.75" gradientUnits="userSpaceOnUse">
<stop stop-color="#00595D"/>
<stop offset="0.39" stop-color="#B6C1C8"/>
<stop offset="0.56" stop-color="#B3AEA4"/>
<stop offset="0.68" stop-color="#36381C"/>
<stop offset="0.85" stop-color="#78818D"/>
<stop offset="1" stop-color="#E1E4E6"/>
</linearGradient>
<radialGradient id="paint6_radial_1682_15987" cx="0" cy="0" r="1" gradientUnits="userSpaceOnUse" gradientTransform="translate(81554 40686.9) rotate(180) scale(332.481 68.454)">
<stop stop-color="#7A9198"/>
<stop offset="0.54" stop-color="#3F5D63"/>
<stop offset="1" stop-color="#153437"/>
</radialGradient>
<linearGradient id="paint7_linear_1682_15987" x1="275.074" y1="464.884" x2="244.824" y2="464.884" gradientUnits="userSpaceOnUse">
<stop stop-color="#C1CED5"/>
<stop offset="0.54" stop-color="#889DA8"/>
<stop offset="1" stop-color="#506975"/>
</linearGradient>
<linearGradient id="paint8_linear_1682_15987" x1="339.32" y1="343.293" x2="250.207" y2="343.878" gradientUnits="userSpaceOnUse">
<stop stop-color="#D6B19C"/>
<stop offset="0.51" stop-color="#C28F76"/>
<stop offset="1" stop-color="#694D3E"/>
</linearGradient>
<linearGradient id="paint9_linear_1682_15987" x1="-nan" y1="-nan" x2="-nan" y2="-nan" gradientUnits="userSpaceOnUse">
<stop stop-color="#D6B19C"/>
<stop offset="0.51" stop-color="#C28F76"/>
<stop offset="1" stop-color="#694D3E"/>
</linearGradient>
<linearGradient id="paint10_linear_1682_15987" x1="142.065" y1="299.83" x2="110.809" y2="299.83" gradientUnits="userSpaceOnUse">
<stop stop-color="#FFEDBE"/>
<stop offset="0.09" stop-color="#F8EAC2"/>
<stop offset="0.21" stop-color="#E4E2CD"/>
<stop offset="0.37" stop-color="#C3D6E0"/>
<stop offset="0.46" stop-color="#ACCDED"/>
<stop offset="0.6" stop-color="#A6C3E7"/>
<stop offset="0.82" stop-color="#94AAD7"/>
<stop offset="1" stop-color="#8491C8"/>
</linearGradient>
<linearGradient id="paint11_linear_1682_15987" x1="91.2568" y1="299.83" x2="60" y2="299.83" gradientUnits="userSpaceOnUse">
<stop stop-color="#FFEDBE"/>
<stop offset="0.09" stop-color="#F8EAC2"/>
<stop offset="0.21" stop-color="#E4E2CD"/>
<stop offset="0.37" stop-color="#C3D6E0"/>
<stop offset="0.46" stop-color="#ACCDED"/>
<stop offset="0.6" stop-color="#A6C3E7"/>
<stop offset="0.82" stop-color="#94AAD7"/>
<stop offset="1" stop-color="#8491C8"/>
</linearGradient>
<linearGradient id="paint12_linear_1682_15987" x1="20727.3" y1="12856.4" x2="10606" y2="12856.4" gradientUnits="userSpaceOnUse">
<stop stop-color="#FFEDBE"/>
<stop offset="0.09" stop-color="#F8EAC2"/>
<stop offset="0.21" stop-color="#E4E2CD"/>
<stop offset="0.37" stop-color="#C3D6E0"/>
<stop offset="0.46" stop-color="#ACCDED"/>
<stop offset="0.6" stop-color="#A6C3E7"/>
<stop offset="0.82" stop-color="#94AAD7"/>
<stop offset="1" stop-color="#8491C8"/>
</linearGradient>
<linearGradient id="paint13_linear_1682_15987" x1="93.618" y1="376.636" x2="56.709" y2="376.636" gradientUnits="userSpaceOnUse">
<stop stop-color="#AED5EE"/>
<stop offset="0.39" stop-color="white"/>
<stop offset="0.48" stop-color="#F9FAFC"/>
<stop offset="0.61" stop-color="#E8EDF3"/>
<stop offset="0.75" stop-color="#CBD7E4"/>
<stop offset="0.91" stop-color="#A4B9D0"/>
<stop offset="1" stop-color="#89A4C2"/>
</linearGradient>
<linearGradient id="paint14_linear_1682_15987" x1="5052.71" y1="3593.93" x2="3844.68" y2="3593.93" gradientUnits="userSpaceOnUse">
<stop stop-color="#AED5EE"/>
<stop offset="0.39" stop-color="white"/>
<stop offset="0.48" stop-color="#F9FAFC"/>
<stop offset="0.61" stop-color="#E8EDF3"/>
<stop offset="0.75" stop-color="#CBD7E4"/>
<stop offset="0.91" stop-color="#A4B9D0"/>
<stop offset="1" stop-color="#89A4C2"/>
</linearGradient>
<linearGradient id="paint15_linear_1682_15987" x1="147.909" y1="376.636" x2="111" y2="376.636" gradientUnits="userSpaceOnUse">
<stop stop-color="#AED5EE"/>
<stop offset="0.39" stop-color="white"/>
<stop offset="0.48" stop-color="#F9FAFC"/>
<stop offset="0.61" stop-color="#E8EDF3"/>
<stop offset="0.75" stop-color="#CBD7E4"/>
<stop offset="0.91" stop-color="#A4B9D0"/>
<stop offset="1" stop-color="#89A4C2"/>
</linearGradient>
<linearGradient id="paint16_linear_1682_15987" x1="5107" y1="3593.93" x2="3898.97" y2="3593.93" gradientUnits="userSpaceOnUse">
<stop stop-color="#AED5EE"/>
<stop offset="0.39" stop-color="white"/>
<stop offset="0.48" stop-color="#F9FAFC"/>
<stop offset="0.61" stop-color="#E8EDF3"/>
<stop offset="0.75" stop-color="#CBD7E4"/>
<stop offset="0.91" stop-color="#A4B9D0"/>
<stop offset="1" stop-color="#89A4C2"/>
</linearGradient>
<linearGradient id="paint17_linear_1682_15987" x1="119.909" y1="420.108" x2="83" y2="420.108" gradientUnits="userSpaceOnUse">
<stop stop-color="#AED5EE"/>
<stop offset="0.39" stop-color="white"/>
<stop offset="0.48" stop-color="#F9FAFC"/>
<stop offset="0.61" stop-color="#E8EDF3"/>
<stop offset="0.75" stop-color="#CBD7E4"/>
<stop offset="0.91" stop-color="#A4B9D0"/>
<stop offset="1" stop-color="#89A4C2"/>
</linearGradient>
<linearGradient id="paint18_linear_1682_15987" x1="5079" y1="3637.4" x2="3870.97" y2="3637.4" gradientUnits="userSpaceOnUse">
<stop stop-color="#AED5EE"/>
<stop offset="0.39" stop-color="white"/>
<stop offset="0.48" stop-color="#F9FAFC"/>
<stop offset="0.61" stop-color="#E8EDF3"/>
<stop offset="0.75" stop-color="#CBD7E4"/>
<stop offset="0.91" stop-color="#A4B9D0"/>
<stop offset="1" stop-color="#89A4C2"/>
</linearGradient>
<clipPath id="clip0_1682_15987">
<rect width="569" height="562" fill="white"/>
</clipPath>
</defs>
</svg>
