<svg id="Calque_1" data-name="Calque 1" xmlns="http://www.w3.org/2000/svg" xmlns:xlink="http://www.w3.org/1999/xlink" viewBox="0 0 307.27 310.64"><defs><style>.cls-1{fill:none;}.cls-2{clip-path:url(#clip-path);}.cls-3{fill:#99c2de;}.cls-4{clip-path:url(#clip-path-2);}.cls-5{fill:#dee0e3;}.cls-6{fill:#d6dbe8;}.cls-7{fill:#a1a6b0;}.cls-8{fill:#fff;}.cls-9{fill:#e3e5e5;}.cls-10{fill:#bfc7d1;}.cls-11{fill:#ed1c24;}</style><clipPath id="clip-path" transform="translate(-0.21 -0.36)"><rect class="cls-1" x="0.21" y="0.36" width="307.27" height="310.64"/></clipPath><clipPath id="clip-path-2" transform="translate(-0.21 -0.36)"><rect class="cls-1" x="32" y="62.55" width="243" height="189.73"/></clipPath></defs><g class="cls-2"><path class="cls-3" d="M153.84,311c84.85,0,153.63-69.54,153.63-155.32S238.69.36,153.84.36.21,69.9.21,155.68,69,311,153.84,311" transform="translate(-0.21 -0.36)"/></g><g class="cls-4"><path class="cls-5" d="M35.12,148.55l6,8.22-2.39,1.74-6-8.22c-.83-1.14-1-2.45-.32-2.92l0,0c.65-.48,1.85.06,2.68,1.2" transform="translate(-0.21 -0.36)"/><path class="cls-5" d="M42.16,143.79l6,8.22-2.39,1.74-6-8.22c-.83-1.14-1-2.45-.32-2.92l0,0c.65-.48,1.85.07,2.68,1.2" transform="translate(-0.21 -0.36)"/><path class="cls-6" d="M50.76,252.28a16.63,16.63,0,0,1-11.3-4.67C25.58,235,36.77,220,44.94,209a101,101,0,0,0,6-8.57c14.19-24.35-3.31-35.78-4.06-36.25l2.59-4.1c.22.14,22.16,14.45,5.66,42.79a104.39,104.39,0,0,1-6.26,9C39,225,32.85,235.06,42.72,244c4.22,3.83,9,4.44,14.1,1.81,10.73-5.5,19.79-23.67,18.29-36.69l4.82-.55c1.75,15.24-8.21,35-20.9,41.55a18,18,0,0,1-8.27,2.13" transform="translate(-0.21 -0.36)"/><path class="cls-7" d="M34.11,158.25a26.86,26.86,0,0,0,3.15,5.63c5.46,7.52,11.36,7.9,15.9,4.6s6-9,.54-16.55a26.61,26.61,0,0,0-4.38-4.73Z" transform="translate(-0.21 -0.36)"/><path class="cls-8" d="M243.48,245.82H79.34a11.06,11.06,0,0,1-11.06-11V131.5a11.06,11.06,0,0,1,11.06-11H243.48a11.05,11.05,0,0,1,11.05,11V234.77a11.05,11.05,0,0,1-11.05,11" transform="translate(-0.21 -0.36)"/><path class="cls-6" d="M86.3,129.84a6.52,6.52,0,0,0-6.51,6.51v28.16A6.52,6.52,0,0,0,86.3,171H236.51a6.52,6.52,0,0,0,6.51-6.51V136.35a6.52,6.52,0,0,0-6.51-6.51Zm150.21,43.6H86.3a8.94,8.94,0,0,1-8.93-8.93V136.35a8.94,8.94,0,0,1,8.93-8.94H236.51a8.94,8.94,0,0,1,8.93,8.94v28.16a8.94,8.94,0,0,1-8.93,8.93" transform="translate(-0.21 -0.36)"/><path class="cls-6" d="M117.29,140.4h-23a2.43,2.43,0,0,1-2.58-2.24v-.94A2.43,2.43,0,0,1,94.33,135h23a2.43,2.43,0,0,1,2.58,2.24v.94a2.43,2.43,0,0,1-2.58,2.24" transform="translate(-0.21 -0.36)"/><path class="cls-6" d="M117.29,148.79h-23a2.43,2.43,0,0,1-2.58-2.24v-.94a2.43,2.43,0,0,1,2.58-2.24h23a2.43,2.43,0,0,1,2.58,2.24v.94a2.43,2.43,0,0,1-2.58,2.24" transform="translate(-0.21 -0.36)"/><path class="cls-6" d="M117.29,157.18h-23a2.43,2.43,0,0,1-2.58-2.24V154a2.43,2.43,0,0,1,2.58-2.24h23a2.43,2.43,0,0,1,2.58,2.24v.94a2.43,2.43,0,0,1-2.58,2.24" transform="translate(-0.21 -0.36)"/><path class="cls-6" d="M117.29,165.57h-23a2.43,2.43,0,0,1-2.58-2.23v-1a2.43,2.43,0,0,1,2.58-2.23h23a2.43,2.43,0,0,1,2.58,2.23v1a2.43,2.43,0,0,1-2.58,2.23" transform="translate(-0.21 -0.36)"/><path class="cls-6" d="M154.35,140.4H131.4a2.42,2.42,0,0,1-2.58-2.24v-.94A2.42,2.42,0,0,1,131.4,135h22.95a2.42,2.42,0,0,1,2.58,2.24v.94a2.42,2.42,0,0,1-2.58,2.24" transform="translate(-0.21 -0.36)"/><path class="cls-6" d="M154.35,148.79H131.4a2.42,2.42,0,0,1-2.58-2.24v-.94a2.42,2.42,0,0,1,2.58-2.24h22.95a2.42,2.42,0,0,1,2.58,2.24v.94a2.42,2.42,0,0,1-2.58,2.24" transform="translate(-0.21 -0.36)"/><path class="cls-6" d="M154.35,157.18H131.4a2.42,2.42,0,0,1-2.58-2.24V154a2.42,2.42,0,0,1,2.58-2.24h22.95a2.42,2.42,0,0,1,2.58,2.24v.94a2.42,2.42,0,0,1-2.58,2.24" transform="translate(-0.21 -0.36)"/><path class="cls-6" d="M154.35,165.57H131.4a2.42,2.42,0,0,1-2.58-2.23v-1a2.42,2.42,0,0,1,2.58-2.23h22.95a2.42,2.42,0,0,1,2.58,2.23v1a2.42,2.42,0,0,1-2.58,2.23" transform="translate(-0.21 -0.36)"/><path class="cls-6" d="M191.42,140.4h-23a2.43,2.43,0,0,1-2.58-2.24v-.94a2.43,2.43,0,0,1,2.58-2.24h23a2.42,2.42,0,0,1,2.57,2.24v.94a2.42,2.42,0,0,1-2.57,2.24" transform="translate(-0.21 -0.36)"/><path class="cls-6" d="M191.42,148.79h-23a2.43,2.43,0,0,1-2.58-2.24v-.94a2.43,2.43,0,0,1,2.58-2.24h23a2.42,2.42,0,0,1,2.57,2.24v.94a2.42,2.42,0,0,1-2.57,2.24" transform="translate(-0.21 -0.36)"/><path class="cls-6" d="M191.42,157.18h-23a2.43,2.43,0,0,1-2.58-2.24V154a2.43,2.43,0,0,1,2.58-2.24h23A2.42,2.42,0,0,1,194,154v.94a2.42,2.42,0,0,1-2.57,2.24" transform="translate(-0.21 -0.36)"/><path class="cls-6" d="M191.42,165.57h-23a2.43,2.43,0,0,1-2.58-2.23v-1a2.43,2.43,0,0,1,2.58-2.23h23a2.42,2.42,0,0,1,2.57,2.23v1a2.42,2.42,0,0,1-2.57,2.23" transform="translate(-0.21 -0.36)"/><path class="cls-6" d="M228.48,140.4h-23a2.42,2.42,0,0,1-2.57-2.24v-.94a2.42,2.42,0,0,1,2.57-2.24h23a2.43,2.43,0,0,1,2.58,2.24v.94a2.43,2.43,0,0,1-2.58,2.24" transform="translate(-0.21 -0.36)"/><path class="cls-6" d="M228.48,148.79h-23a2.42,2.42,0,0,1-2.57-2.24v-.94a2.42,2.42,0,0,1,2.57-2.24h23a2.43,2.43,0,0,1,2.58,2.24v.94a2.43,2.43,0,0,1-2.58,2.24" transform="translate(-0.21 -0.36)"/><path class="cls-6" d="M228.48,157.18h-23a2.42,2.42,0,0,1-2.57-2.24V154a2.42,2.42,0,0,1,2.57-2.24h23a2.43,2.43,0,0,1,2.58,2.24v.94a2.43,2.43,0,0,1-2.58,2.24" transform="translate(-0.21 -0.36)"/><path class="cls-6" d="M228.48,165.57h-23a2.42,2.42,0,0,1-2.57-2.23v-1a2.42,2.42,0,0,1,2.57-2.23h23a2.43,2.43,0,0,1,2.58,2.23v1a2.43,2.43,0,0,1-2.58,2.23" transform="translate(-0.21 -0.36)"/><path class="cls-9" d="M243.48,120.45H161.89v7h74.62a9,9,0,0,1,8.93,8.94v28.16a9,9,0,0,1-8.93,8.93H161.89v72.38h81.59a11.05,11.05,0,0,0,11.05-11V131.5a11.05,11.05,0,0,0-11.05-11m-7,9.38H161.89V171h74.62a6.52,6.52,0,0,0,6.51-6.51V136.35a6.52,6.52,0,0,0-6.51-6.52m-31,10.57a2.42,2.42,0,0,1-2.58-2.24v-.94a2.42,2.42,0,0,1,2.58-2.24h22.95a2.42,2.42,0,0,1,2.58,2.24v.94a2.42,2.42,0,0,1-2.58,2.24Zm-37.07,0a2.43,2.43,0,0,1-2.58-2.24v-.94a2.43,2.43,0,0,1,2.58-2.24h23a2.43,2.43,0,0,1,2.58,2.24v.94a2.43,2.43,0,0,1-2.58,2.24Zm37.07,8.39a2.42,2.42,0,0,1-2.58-2.24v-.94a2.42,2.42,0,0,1,2.58-2.23h22.95a2.42,2.42,0,0,1,2.58,2.23v.94a2.42,2.42,0,0,1-2.58,2.24Zm-37.07,0a2.43,2.43,0,0,1-2.58-2.24v-.94a2.42,2.42,0,0,1,2.58-2.23h23a2.42,2.42,0,0,1,2.58,2.23v.94a2.43,2.43,0,0,1-2.58,2.24Zm37.07,8.39a2.42,2.42,0,0,1-2.58-2.24V154a2.43,2.43,0,0,1,2.58-2.24h22.95a2.43,2.43,0,0,1,2.58,2.24v.94a2.42,2.42,0,0,1-2.58,2.24Zm-37.07,0a2.43,2.43,0,0,1-2.58-2.24V154a2.44,2.44,0,0,1,2.58-2.24h23A2.44,2.44,0,0,1,194,154v.94a2.43,2.43,0,0,1-2.58,2.24Zm37.07,8.39a2.42,2.42,0,0,1-2.58-2.23v-1a2.42,2.42,0,0,1,2.58-2.23h22.95a2.42,2.42,0,0,1,2.58,2.23v1a2.42,2.42,0,0,1-2.58,2.23Zm-37.07,0a2.43,2.43,0,0,1-2.58-2.23v-1a2.43,2.43,0,0,1,2.58-2.23h23a2.43,2.43,0,0,1,2.58,2.23v1a2.43,2.43,0,0,1-2.58,2.23Z" transform="translate(-0.21 -0.36)"/><path class="cls-10" d="M236.51,127.41H161.89v2.42h74.62a6.52,6.52,0,0,1,6.51,6.52v28.16a6.52,6.52,0,0,1-6.51,6.51H161.89v2.42h74.62a8.93,8.93,0,0,0,8.93-8.93V136.35a8.94,8.94,0,0,0-8.93-8.94" transform="translate(-0.21 -0.36)"/><path class="cls-10" d="M191.42,135h-23a2.43,2.43,0,0,0-2.58,2.24v.94a2.43,2.43,0,0,0,2.58,2.24h23a2.42,2.42,0,0,0,2.57-2.24v-.94a2.42,2.42,0,0,0-2.57-2.24" transform="translate(-0.21 -0.36)"/><path class="cls-10" d="M191.42,143.38h-23a2.42,2.42,0,0,0-2.58,2.23v.94a2.43,2.43,0,0,0,2.58,2.24h23a2.42,2.42,0,0,0,2.57-2.24v-.94a2.41,2.41,0,0,0-2.57-2.23" transform="translate(-0.21 -0.36)"/><path class="cls-10" d="M191.42,151.76h-23a2.43,2.43,0,0,0-2.58,2.24v.94a2.43,2.43,0,0,0,2.58,2.24h23a2.42,2.42,0,0,0,2.57-2.24V154a2.42,2.42,0,0,0-2.57-2.24" transform="translate(-0.21 -0.36)"/><path class="cls-10" d="M191.42,160.16h-23a2.43,2.43,0,0,0-2.58,2.23v1a2.43,2.43,0,0,0,2.58,2.23h23a2.42,2.42,0,0,0,2.57-2.23v-1a2.42,2.42,0,0,0-2.57-2.23" transform="translate(-0.21 -0.36)"/><path class="cls-10" d="M228.48,135h-23a2.42,2.42,0,0,0-2.57,2.24v.94a2.42,2.42,0,0,0,2.57,2.24h23a2.43,2.43,0,0,0,2.58-2.24v-.94a2.43,2.43,0,0,0-2.58-2.24" transform="translate(-0.21 -0.36)"/><path class="cls-10" d="M228.48,143.38h-23a2.41,2.41,0,0,0-2.57,2.23v.94a2.42,2.42,0,0,0,2.57,2.24h23a2.43,2.43,0,0,0,2.58-2.24v-.94a2.42,2.42,0,0,0-2.58-2.23" transform="translate(-0.21 -0.36)"/><path class="cls-10" d="M228.48,151.76h-23A2.42,2.42,0,0,0,203,154v.94a2.42,2.42,0,0,0,2.57,2.24h23a2.43,2.43,0,0,0,2.58-2.24V154a2.43,2.43,0,0,0-2.58-2.24" transform="translate(-0.21 -0.36)"/><path class="cls-10" d="M228.48,160.16h-23a2.42,2.42,0,0,0-2.57,2.23v1a2.42,2.42,0,0,0,2.57,2.23h23a2.43,2.43,0,0,0,2.58-2.23v-1a2.43,2.43,0,0,0-2.58-2.23" transform="translate(-0.21 -0.36)"/><path class="cls-11" d="M241.81,62.55a33.2,33.2,0,0,0-19.13,60.33l-5.94,15.26a1.62,1.62,0,0,0,2.44,1.92l16.73-11.64a33.72,33.72,0,0,0,5.9.52,33.2,33.2,0,0,0,0-66.39" transform="translate(-0.21 -0.36)"/><path class="cls-8" d="M242.19,104.26a8.21,8.21,0,0,1,7.87,5.95,1,1,0,0,1-1.92.54,6.18,6.18,0,0,0-11.9,0,1,1,0,1,1-1.92-.54,8.2,8.2,0,0,1,7.87-5.95" transform="translate(-0.21 -0.36)"/><path class="cls-8" d="M234.61,92.32a2,2,0,1,1-2-2,2,2,0,0,1,2,2" transform="translate(-0.21 -0.36)"/><path class="cls-8" d="M253.76,92.32a2,2,0,1,1-2-2,2,2,0,0,1,2,2" transform="translate(-0.21 -0.36)"/></g></svg>