<svg width="1247" height="268" viewBox="0 0 1247 268" fill="none" xmlns="http://www.w3.org/2000/svg">
<path d="M193.796 254.732H22.5781V267.898H193.796V254.732Z" fill="#4C7793"/>
<path d="M108.039 0C69.2785 0 37.5664 33.8984 37.5664 75.3529V257.04H178.512V75.3583C178.512 33.9148 146.8 0 108.039 0Z" fill="#CE6F56"/>
<path d="M155.002 25.3463C148.996 18.8192 141.862 13.6006 133.997 9.97995C125.902 6.26269 117.185 4.3457 108.376 4.3457C99.5665 4.3457 90.8493 6.26269 82.7549 9.97995C74.8898 13.6 67.7569 18.8187 61.7524 25.3463C55.7007 31.8813 50.8816 39.6005 47.5581 48.0828C44.8737 54.9172 42.5472 62.0933 41.9336 69.4552H174.136C172.76 52.8171 165.993 37.2154 155.002 25.3463Z" fill="#AE535C"/>
<g style="mix-blend-mode:color-burn">
<g style="mix-blend-mode:color-burn">
<path d="M155.24 27.1432C149.236 20.4414 142.063 15.0621 134.125 11.3093C126.011 7.47858 117.239 5.5 108.369 5.5C99.5 5.5 90.728 7.47858 82.6143 11.3093C74.6776 15.063 67.5052 20.4421 61.5018 27.1432C50.4045 39.4887 43.6177 55.5413 42.2812 72.6053H173.795C173.187 65.0164 172.218 57.6326 169.518 50.5768C166.193 41.867 161.347 33.9141 155.24 27.1432ZM45.2495 69.7512C47.0652 54.4717 53.4376 40.2246 63.4218 29.1224C69.185 22.6885 76.0709 17.5238 83.6906 13.92C91.4653 10.2496 99.8707 8.35383 108.369 8.35383C116.868 8.35383 125.274 10.2496 133.048 13.92C140.668 17.5231 147.554 22.6879 153.317 29.1224C159.188 35.638 163.844 43.2905 167.036 51.6703C169.301 57.5834 170.272 63.7889 170.853 69.7649L45.2495 69.7512Z" fill="#FFE6D4"/>
</g>
</g>
<path d="M108.039 0C69.2785 0 37.5664 33.8984 37.5664 75.3529V257.04H178.512V75.3583C178.512 33.9148 146.8 0 108.039 0ZM173.373 75.3529V251.545H42.7052V75.3583C42.6923 66.0422 44.4448 56.8198 47.8567 48.2478C54.5409 31.4961 67.0191 18.1533 82.6854 11.006C90.7058 7.37083 99.328 5.49751 108.039 5.49751C116.75 5.49751 125.373 7.37083 133.393 11.006C149.059 18.1533 161.537 31.4961 168.222 48.2478C171.634 56.8198 173.386 66.0422 173.373 75.3583V75.3529Z" fill="white"/>
<path d="M193.796 251.141H22.5781V264.306H193.796V251.141Z" fill="white"/>
<path d="M110.654 4.93359H105.418V74.6057H110.654V4.93359Z" fill="white"/>
<path d="M176.034 69.1406H40.043V74.7393H176.034V69.1406Z" fill="white"/>
<path d="M199.479 69.1406H178.66V87.6043H199.479V69.1406Z" fill="#1D4A59"/>
<path d="M199.479 99.5117H178.66V117.975H199.479V99.5117Z" fill="#1D4A59"/>
<path d="M216.268 129.883H178.66V148.346H216.268V129.883Z" fill="#225165"/>
<path d="M199.479 117.975H178.66V129.883H199.479V117.975Z" fill="#4C7793"/>
<path d="M199.479 227.316H178.66V239.225H199.479V227.316Z" fill="#1D4A59"/>
<path d="M209.807 87.6055H178.66V99.5136H209.807V87.6055Z" fill="#225165"/>
<path d="M199.479 148.109H178.66V166.573H199.479V148.109Z" fill="#1D4A59"/>
<path d="M199.479 178.477H178.66V196.94H199.479V178.477Z" fill="#225165"/>
<path d="M216.268 208.85H178.66V227.313H216.268V208.85Z" fill="#225165"/>
<path d="M199.479 196.945H178.66V208.853H199.479V196.945Z" fill="#1D4A59"/>
<path d="M209.807 166.572H178.66V178.48H209.807V166.572Z" fill="#4C7793"/>
<path d="M209.807 239.223H178.66V251.131H209.807V239.223Z" fill="#225165"/>
<path d="M37.5997 69.1406H16.7812V87.6043H37.5997V69.1406Z" fill="#4C7793"/>
<path d="M37.5997 99.5117H16.7812V117.975H37.5997V99.5117Z" fill="#225165"/>
<path d="M37.6076 129.883H0V148.346H37.6076V129.883Z" fill="#225165"/>
<path d="M37.5997 117.975H16.7812V129.883H37.5997V117.975Z" fill="#1D4A59"/>
<path d="M37.5997 227.316H16.7812V239.225H37.5997V227.316Z" fill="#225165"/>
<path d="M37.6158 87.6055H6.46875V99.5136H37.6158V87.6055Z" fill="#1D4A59"/>
<path d="M37.5997 148.109H16.7812V166.573H37.5997V148.109Z" fill="#4C7793"/>
<path d="M37.5997 178.477H16.7812V196.94H37.5997V178.477Z" fill="#225165"/>
<path d="M37.6076 208.85H0V227.313H37.6076V208.85Z" fill="#1D4A59"/>
<path d="M37.5997 196.945H16.7812V208.853H37.5997V196.945Z" fill="#4C7793"/>
<path d="M37.6158 166.572H6.46875V178.48H37.6158V166.572Z" fill="#1D4A59"/>
<path d="M37.6158 239.223H6.46875V251.131H37.6158V239.223Z" fill="#4C7793"/>
<path d="M109.909 52.0227C116.251 50.9218 120.559 44.5311 119.529 37.7488C118.5 30.9664 112.523 26.3607 106.18 27.4617C99.8372 28.5626 95.53 34.9532 96.5596 41.7356C97.5892 48.5179 103.566 53.1236 109.909 52.0227Z" fill="#AE535C"/>
<path d="M108.043 24.877C105.286 24.8764 102.591 25.7501 100.298 27.3875C98.0056 29.0248 96.2187 31.3524 95.1633 34.0758C94.108 36.7991 93.8315 39.796 94.3691 42.6873C94.9066 45.5787 96.2339 48.2346 98.1832 50.3193C100.132 52.404 102.616 53.8238 105.32 54.3991C108.024 54.9744 110.827 54.6794 113.374 53.5514C115.921 52.4234 118.098 50.5131 119.629 48.062C121.161 45.611 121.979 42.7292 121.979 39.7813C121.975 35.8302 120.505 32.0422 117.893 29.2481C115.28 26.454 111.738 24.882 108.043 24.877ZM108.043 49.754C106.196 49.7546 104.39 49.1694 102.855 48.0726C101.319 46.9758 100.122 45.4166 99.4146 43.5922C98.7076 41.7678 98.5225 39.7602 98.8827 37.8233C99.2429 35.8864 100.132 34.1073 101.438 32.7109C102.744 31.3145 104.408 30.3636 106.219 29.9785C108.031 29.5933 109.908 29.7913 111.614 30.5472C113.32 31.3032 114.779 32.5833 115.804 34.2255C116.83 35.8677 117.377 37.7983 117.377 39.7731C117.374 42.4193 116.39 44.9563 114.64 46.8275C112.89 48.6986 110.517 49.7511 108.043 49.754Z" fill="white"/>
<path d="M87.1946 125.618C87.9897 124.751 88.143 123.371 87.8132 122.206C87.4834 121.042 86.7369 120.066 85.9265 119.213C84.1667 117.394 82.047 116.021 79.7242 115.196C77.4014 114.37 74.9349 114.114 72.5069 114.445C71.1953 114.636 69.6026 115.405 69.6741 116.818C67.9071 116.149 66.0281 115.885 64.1595 116.045C62.2909 116.204 60.4747 116.782 58.829 117.742C57.4868 118.535 56.2494 119.617 55.5055 121.058C54.7615 122.499 54.6132 124.339 55.3495 125.771C54.2702 125.958 53.2718 126.499 52.4922 127.318C51.7126 128.138 51.1902 129.196 50.9971 130.347C50.804 131.497 50.9498 132.684 51.4144 133.742C51.879 134.801 52.6394 135.678 53.5906 136.255C52.5405 136.795 51.6627 137.655 51.067 138.726C50.4714 139.797 50.1842 141.032 50.2415 142.276C50.2988 143.521 50.698 144.72 51.3892 145.723C52.0803 146.726 53.0328 147.49 54.1274 147.917C54.5416 148.078 54.9737 148.19 55.3751 148.387C55.7898 148.615 56.1881 148.875 56.5665 149.166C59.1512 150.984 62.7509 151.769 65.2589 149.842C66.1767 149.139 66.8619 148.141 67.7362 147.381C71.5251 144.071 77.6584 145.91 81.5598 142.753C83.0247 141.569 83.9784 139.82 85.1774 138.33C86.3407 136.886 87.959 135.596 89.7231 135.73C90.5916 134.879 91.2495 133.811 91.638 132.622C92.2004 130.935 92.2797 128.975 91.4462 127.428C90.6128 125.88 88.7336 124.932 87.1946 125.618Z" fill="#43415A"/>
<path d="M89.4844 135.955L89.8961 135.736H89.7375C89.6557 135.809 89.5713 135.882 89.4844 135.955Z" fill="#1B1C30"/>
<path d="M89.4866 135.955L87.5742 136.964C88.2737 136.783 88.9269 136.439 89.4866 135.955Z" fill="#1B1C30"/>
<path d="M93.163 166.64L91.4219 165.068C91.8679 165.742 92.4671 166.283 93.163 166.64Z" fill="#3D3F58"/>
<path d="M93.168 166.641L93.5438 166.982C93.5438 166.925 93.5207 166.87 93.5105 166.816C93.3929 166.758 93.2728 166.704 93.168 166.641Z" fill="#3D3F58"/>
<path d="M110.045 139.094C110.636 134.993 109.061 130.956 105.834 128.339C104.432 127.16 102.75 126.421 100.977 126.204C99.0672 125.999 96.8557 126.532 95.3703 127.845C94.3196 125.789 91.5354 124.646 88.7232 125.111C85.9109 125.576 83.3006 127.642 82.4953 130.01C80.629 128.282 77.3079 127.823 74.4241 128.864C71.5402 129.906 69.2597 132.437 68.8839 134.985C68.8123 135.472 68.8021 135.956 68.6871 136.439C68.5359 136.962 68.3434 137.469 68.1118 137.957C66.7083 141.292 66.8335 145.278 69.8171 147.12C70.9139 147.793 72.2893 148.118 73.4423 148.722C78.4405 151.346 78.0442 158.326 82.8839 161.122C84.7042 162.175 87.0435 162.489 89.145 163.148C91.1903 163.793 93.1589 164.966 93.5219 166.819C94.8597 167.402 96.2996 167.669 97.7429 167.601C99.893 167.536 102.23 166.874 103.825 165.433C105.42 163.993 105.988 161.688 104.717 160.376C105.97 160.863 107.645 160.496 108.923 159.714C110.116 158.937 111.136 157.89 111.912 156.647C115.235 151.696 115.897 145.786 113.678 141.098C113.059 139.824 111.692 138.484 110.045 139.094Z" fill="#585774"/>
<path d="M104.539 136.838C105.697 134.539 104.608 131.417 102.494 130.094C100.38 128.77 97.6133 129.079 95.5246 130.427C94.8627 129.57 94.0153 128.899 93.056 128.471C92.0967 128.044 91.0543 127.873 90.0192 127.973C88.9842 128.074 87.9876 128.443 87.116 129.048C86.2443 129.653 85.5238 130.477 85.0169 131.447C82.5422 129.38 78.7328 129.407 76.2862 131.512C76.1326 131.659 75.9605 131.783 75.7748 131.879C75.528 131.969 75.2689 132.016 75.0079 132.018C74.243 132.094 73.5038 132.352 72.8446 132.774C72.1853 133.195 71.6229 133.769 71.1985 134.454C70.5522 135.512 70.2727 136.779 70.4085 138.035C70.5824 139.334 70.9991 139.033 72.0678 138.475C74.0568 137.436 75.624 135.676 77.6002 134.612C79.8175 133.433 82.3731 133.208 84.7408 133.984C84.91 134.079 85.1052 134.107 85.2921 134.065C85.479 134.022 85.6458 133.91 85.7635 133.749C88.4837 131.288 93.0345 131.627 95.3968 134.484C96.6009 133.265 98.6513 133.39 99.9577 134.484C101.264 135.577 101.891 137.393 101.967 139.164C101.962 139.367 101.997 139.568 102.072 139.755C102.243 139.996 102.48 140.174 102.75 140.266C104.826 141.318 105.817 144.093 105.347 146.512C104.877 148.932 103.233 150.911 101.28 152.204C102.558 153.697 102.064 156.212 100.768 157.672C99.472 159.131 97.5801 159.774 95.7828 160.375C97.1838 160.813 98.6922 160.46 100.068 159.943C101.116 159.55 102.162 159.038 102.918 158.169C103.494 157.482 103.864 156.627 103.979 155.713C104.094 154.799 103.95 153.869 103.565 153.043C104.974 152.308 106.428 151.534 107.415 150.23C108.499 148.795 108.878 146.895 109.034 145.055C109.187 143.267 109.149 141.395 108.438 139.766C107.727 138.136 106.221 136.797 104.539 136.838Z" fill="#43415A"/>
<path d="M79.8272 147.822C85.3043 147.822 89.7443 144.705 89.7443 140.859C89.7443 137.014 85.3043 133.896 79.8272 133.896C74.3502 133.896 69.9102 137.014 69.9102 140.859C69.9102 144.705 74.3502 147.822 79.8272 147.822Z" fill="#853536"/>
<path d="M142.225 206.629C139.912 199.72 136.816 193.14 133.006 187.036C131.39 184.45 129.6 181.902 127.205 180.136C122.347 176.555 115.943 176.785 110.075 177.378C98.381 178.557 86.7787 180.614 75.3542 183.534C71.8542 184.428 68.2417 185.475 65.4959 187.963C60.4262 192.564 59.7743 200.582 59.9507 207.69C60.0897 213.301 60.5071 218.9 61.2009 224.464C61.8272 229.491 62.6913 234.535 64.5474 239.204C65.7136 242.228 67.374 245.005 69.451 247.406C70.1387 248.182 74.1654 251.506 75.2468 250.998H148.476C148.731 249.729 142.867 211.722 142.951 210.426C143.035 209.13 142.634 207.854 142.225 206.629Z" fill="#853536"/>
<path d="M83.5146 233.351C83.622 233.436 83.7293 233.513 83.8367 233.595C82.4357 231.517 80.9426 231.37 83.5146 233.351Z" fill="#4D506B"/>
<path d="M116.679 175.294C116.159 174.98 115.555 174.866 114.966 174.968C113.964 175.225 113.45 176.376 112.995 177.366C109.983 183.927 104.018 188.301 98.0283 191.811C96.7807 192.544 95.4717 193.265 94.0451 193.339C92.9943 193.394 91.9563 193.09 90.9516 192.76C88.3141 191.895 85.7324 190.847 83.223 189.621C82.2463 189.195 81.334 188.616 80.5156 187.904C79.7026 187.136 79.1018 186.136 78.2836 185.37C76.3202 183.533 73.49 183.345 70.8823 183.246C69.5401 183.197 67.7147 183.604 67.707 185.039C67.707 185.567 67.9857 186.043 68.2593 186.486C70.5295 190.168 72.9301 193.984 76.5171 196.163C78.4217 197.322 80.5616 197.951 82.6759 198.566C88.3004 200.206 94.0502 201.439 99.7131 199.362C105.8 197.146 111.425 193.687 116.277 189.176C117.916 187.645 119.514 185.895 120.138 183.67C121.03 180.493 119.481 176.737 116.679 175.294Z" fill="#5F2523"/>
<path d="M101.065 168.445C100.403 168.432 99.74 168.477 99.084 168.579C96.8445 168.998 95.0267 170.69 93.3393 172.316C92.4215 173.199 91.45 174.189 91.271 175.493C91.0818 176.884 91.854 178.208 92.7002 179.282C93.6666 180.507 94.7992 181.617 96.1567 182.289C97.5143 182.962 99.125 183.158 100.518 182.562C101.462 182.163 102.249 181.439 103.016 180.725C104.606 179.249 106.222 177.743 107.337 175.832C108.308 174.167 109.449 170.977 107.933 169.255C106.475 167.606 102.934 168.426 101.065 168.445Z" fill="#5F2523"/>
<path d="M98.618 180.112C96.7819 178.941 95.2588 177.284 94.1951 175.301C93.0318 173.133 93.0881 171.2 90.2707 172.54C85.9731 174.604 81.6422 177.709 80.2411 182.515C79.5074 185.041 79.8653 188.196 81.8901 189.716C82.7127 190.276 83.6405 190.637 84.6078 190.771C90.442 191.864 96.7491 189.144 100.27 184.051C100.529 183.724 100.712 183.335 100.801 182.917C100.993 181.635 99.6585 180.774 98.618 180.112Z" fill="#E4775D"/>
<path d="M110.412 167.9C109.906 167.623 109.325 167.549 108.773 167.692C107.842 168.017 107.428 169.201 107.063 170.221C104.631 176.965 99.2752 181.744 93.8398 185.656C92.7072 186.476 91.5133 187.282 90.1762 187.452C89.1868 187.58 88.1872 187.345 87.2157 187.085C84.6649 186.4 82.1605 185.53 79.7197 184.483C78.7648 184.12 77.8667 183.604 77.0557 182.955C76.2376 182.244 75.6086 181.287 74.788 180.579C72.8168 178.881 70.1298 178.887 67.6627 178.966C66.3844 179.007 64.6945 179.537 64.7763 180.973C64.807 181.5 65.1035 181.954 65.3899 182.378C67.7649 185.896 70.2755 189.54 73.7985 191.467C75.6725 192.493 77.7332 192.974 79.7682 193.444C85.1933 194.701 90.6926 195.533 95.9107 193.072C101.562 190.417 106.662 186.582 110.91 181.793C112.36 180.153 113.758 178.299 114.206 176.035C114.847 172.791 113.147 169.146 110.412 167.9Z" fill="#853536"/>
<path d="M80.8702 141.292C71.9221 140.816 64.9579 150.688 64.3852 162.96C63.8125 175.231 69.8461 185.25 78.7993 185.726C87.7526 186.202 93.6916 176.549 94.2617 164.277C94.8318 152.005 89.8209 141.77 80.8702 141.292Z" fill="#F9A17B"/>
<path d="M84.3025 208.75C83.7758 202.774 85.7827 196.774 85.1564 190.809C85.0004 189.344 84.645 187.802 83.6684 186.779C82.477 185.516 80.6491 185.276 78.972 185.295C77.2948 185.314 75.5589 185.508 73.9891 184.874C72.4194 184.24 71.1053 182.414 71.6371 180.71C71.9131 179.881 71.9566 178.983 71.7623 178.127C71.522 177.061 70.8726 176.883 69.8474 176.87L66.6926 176.834C65.8234 176.834 64.9183 176.834 64.136 177.2C62.0728 178.182 61.6893 181.115 61.8197 183.526C61.8862 184.751 62.0081 185.968 62.1853 187.178C62.2799 187.826 62.4077 188.507 62.8193 188.988C63.3665 189.633 64.2587 189.751 65.0691 189.827L76.4639 190.921C77.1875 200.298 74.2985 209.51 71.8621 218.532C69.4256 227.553 67.4519 237.263 69.9369 246.287C71.4709 251.818 75.2342 252.173 79.0308 248.904C82.5768 245.85 84.2462 241.134 85.2126 236.514C86.5957 229.918 86.923 223.021 85.6983 216.391C85.2279 213.846 84.53 211.337 84.3025 208.75Z" fill="#F9A17B"/>
<path d="M138.6 157.659C138.319 157.301 138.032 157.008 137.792 156.729C137.332 156.233 136.961 155.65 136.698 155.01C136.441 154.401 136.324 153.736 136.358 153.069C136.358 152.399 136.613 151.803 136.93 151.076C137.298 150.334 137.592 149.552 137.807 148.744C137.909 148.338 137.987 147.925 138.04 147.509C138.063 147.301 138.084 147.093 138.096 146.885C138.109 146.768 138.101 146.649 138.073 146.535C138.002 146.388 137.818 146.423 137.795 146.535C137.846 146.448 137.981 146.535 137.958 146.579C137.933 146.664 137.899 146.745 137.858 146.822C137.777 147.008 137.695 147.189 137.603 147.369C137.432 147.727 137.26 148.08 137.066 148.419C136.688 149.096 136.278 149.752 135.836 150.384C135.302 151.117 134.95 151.982 134.814 152.899C134.699 153.852 134.831 154.82 135.195 155.699C135.544 156.547 136.063 157.303 136.716 157.913C137.02 158.187 137.304 158.438 137.534 158.679C137.751 158.901 137.936 159.157 138.081 159.439C138.368 160.066 138.469 160.772 138.37 161.462C138.256 162.248 138.054 163.017 137.769 163.752C138.354 163.172 138.819 162.467 139.134 161.683C139.478 160.811 139.521 159.838 139.254 158.936C139.117 158.468 138.894 158.034 138.6 157.659Z" fill="white"/>
<path d="M148.49 152.712C148.211 152.346 147.922 152.045 147.677 151.761C147.215 151.25 146.843 150.653 146.58 150C146.323 149.374 146.206 148.693 146.24 148.01C146.24 147.324 146.495 146.714 146.815 145.973C147.183 145.218 147.476 144.423 147.692 143.603C147.791 143.19 147.868 142.771 147.922 142.348C147.945 142.138 147.965 141.925 147.978 141.714C147.992 141.596 147.985 141.477 147.958 141.362C147.891 141.211 147.687 141.241 147.677 141.362C147.728 141.271 147.866 141.362 147.84 141.408C147.816 141.495 147.782 141.578 147.74 141.657C147.659 141.845 147.579 142.031 147.485 142.204C147.314 142.57 147.142 142.931 146.948 143.275C146.57 143.968 146.158 144.639 145.716 145.287C145.185 146.034 144.838 146.911 144.706 147.838C144.589 148.799 144.717 149.777 145.077 150.667C145.428 151.531 145.951 152.303 146.61 152.928C146.917 153.218 147.204 153.475 147.436 153.715C147.655 153.946 147.841 154.21 147.986 154.5C148.272 155.143 148.372 155.863 148.272 156.567C148.158 157.366 147.957 158.147 147.671 158.896C148.258 158.3 148.723 157.582 149.039 156.785C149.38 155.902 149.423 154.919 149.162 154.005C149.02 153.531 148.792 153.091 148.49 152.712Z" fill="white"/>
<path d="M142.04 144.068C141.757 143.585 141.442 143.177 141.181 142.792C140.665 142.071 140.274 141.256 140.028 140.386C139.766 139.529 139.656 138.627 139.704 137.726C139.76 136.802 139.967 135.895 140.315 135.047C140.682 134.089 140.969 133.098 141.174 132.086C141.27 131.579 141.343 131.068 141.391 130.553C141.414 130.296 141.432 130.039 141.442 129.782C141.453 129.647 141.453 129.512 141.442 129.377C141.437 129.336 141.42 129.298 141.394 129.267C141.368 129.236 141.334 129.215 141.297 129.205C141.23 129.205 141.141 129.238 141.153 129.312C141.166 129.243 141.243 129.243 141.281 129.268C141.32 129.293 141.325 129.339 141.319 129.388C141.29 129.506 141.254 129.621 141.21 129.733L140.954 130.443C140.783 130.911 140.611 131.376 140.414 131.827C140.044 132.748 139.617 133.587 139.162 134.484C138.642 135.436 138.308 136.49 138.18 137.584C138.075 138.702 138.18 139.831 138.487 140.905C138.809 141.968 139.319 142.956 139.988 143.814C140.315 144.219 140.629 144.569 140.875 144.908C141.116 145.251 141.31 145.63 141.452 146.031C142.04 147.715 141.708 149.735 141.133 151.676C141.732 150.855 142.195 149.931 142.503 148.943C142.829 147.884 142.885 146.752 142.667 145.662C142.549 145.095 142.337 144.555 142.04 144.068Z" fill="white"/>
<path d="M88.5883 142.671C81.3914 138.592 69.0737 138.215 63.4542 145.451C61.171 148.422 60.0441 152.218 60.307 156.053C60.3837 157.089 60.6241 158.223 61.4192 158.816C62.383 159.535 63.7201 159.147 64.7632 158.576C65.8063 158.005 66.8648 157.258 68.0357 157.327C69.7307 157.422 71.1803 159.216 72.8421 158.844C73.3534 158.729 73.8085 158.412 74.2866 158.177C75.1047 157.788 76.0029 157.631 76.8942 157.722C77.7855 157.813 78.6398 158.149 79.3742 158.696C79.8574 159.065 80.2921 159.533 80.8494 159.754C82.7899 160.522 84.8505 157.972 86.814 158.661C87.6372 158.953 88.2125 159.754 89.0101 160.129C90.5441 160.837 92.3644 159.686 94.0032 160.101C94.466 160.219 94.9108 160.462 95.3863 160.462C96.7899 160.462 97.4086 158.549 97.3983 157.048C97.36 151.039 93.5609 145.489 88.5883 142.671Z" fill="#585774"/>
<path d="M59.3429 127.847C58.5009 127.974 57.7098 128.354 57.0612 128.942C56.4125 129.53 55.9328 130.302 55.6774 131.169C55.422 132.037 55.4014 132.964 55.618 133.843C55.8346 134.722 56.2795 135.518 56.9013 136.138C55.3136 137.39 54.0481 139.282 53.9714 141.39C53.91 143.107 54.9173 145.28 56.5766 145.734C55.8812 143.88 54.8509 142.778 55.4773 140.54C56.0116 138.626 57.3794 137.114 58.8827 135.936C58.3046 135.568 57.8451 135.021 57.5656 134.367C57.286 133.713 57.1996 132.983 57.318 132.275C57.4942 131.442 57.8951 130.681 58.471 130.088C59.3298 129.174 60.4487 128.591 61.6515 128.432C60.8001 126.138 61.9071 123.443 63.6635 121.846C65.4199 120.25 67.7081 119.514 69.9221 118.814C67.3169 118.864 64.612 119.233 62.421 120.728C60.23 122.223 58.6935 125.149 59.3429 127.847Z" fill="#585774"/>
<path d="M82.0808 119.991C81.1177 119.198 79.9395 118.761 78.724 118.747C77.19 118.682 75.4617 119.267 74.7944 120.745C72.4193 119.86 69.7451 120.961 67.8047 122.676C66.8101 123.559 65.8744 124.797 66.0457 126.167C66.0814 126.337 66.0814 126.513 66.0457 126.683C65.9648 126.879 65.8254 127.04 65.6494 127.142C64.2484 128.187 62.8218 129.316 61.9909 130.912C61.16 132.509 61.091 134.707 62.2798 136.019C61.6845 136.466 61.2353 137.101 60.9953 137.835C60.7554 138.57 60.7369 139.366 60.9424 140.112C61.1479 140.858 61.5671 141.517 62.1409 141.995C62.7147 142.473 63.4142 142.746 64.1411 142.777C63.5891 142.399 63.1422 141.87 62.8475 141.244C62.5528 140.618 62.421 139.919 62.466 139.22C62.5109 138.521 62.731 137.848 63.1031 137.271C63.4752 136.695 63.9856 136.236 64.5808 135.942C63.6527 135.486 63.2718 134.228 63.4431 133.151C63.6144 132.074 64.2101 131.142 64.793 130.245C65.6673 128.892 66.7616 127.405 68.2981 127.328C68.0859 126.423 68.449 125.464 68.9679 124.709C69.6333 123.772 70.5258 123.047 71.5488 122.614C72.5718 122.18 73.6862 122.054 74.7714 122.249C75.2265 122.337 75.6969 122.479 76.1367 122.331C76.4313 122.19 76.7129 122.02 76.9778 121.823C77.3488 121.63 77.7561 121.532 78.1684 121.535C78.5807 121.537 78.9868 121.642 79.3555 121.839C80.091 122.24 80.7344 122.811 81.2397 123.509C81.9044 124.357 82.1396 125.201 82.4694 126.202C82.8324 125.382 83.2773 124.351 83.4077 123.425C83.5968 122.126 83.0088 120.814 82.0808 119.991Z" fill="#585774"/>
<path d="M98.0602 141.334C97.5489 140.913 96.8408 140.514 96.2706 140.842C96.7155 139.787 96.015 138.494 95.0486 137.991C93.9135 137.406 89.4037 137.572 91.725 139.281C92.5048 139.852 93.2207 140.235 93.7908 141.091C93.916 141.279 94.9796 143.743 94.6958 143.767C95.2404 143.719 95.7844 143.867 96.2424 144.185C96.7004 144.504 97.0465 144.976 97.2264 145.528C97.4063 146.08 97.4098 146.68 97.2363 147.234C97.0629 147.788 96.7223 148.265 96.2681 148.589C97.1633 148.563 98.0372 148.292 98.8067 147.802C99.188 147.555 99.516 147.224 99.7694 146.831C100.023 146.439 100.196 145.994 100.277 145.525C100.512 143.86 99.3155 142.362 98.0602 141.334Z" fill="#43415A"/>
<path d="M88.5997 142.672C83.5428 139.807 75.9599 138.769 69.9365 140.915C67.3799 141.822 81.3926 143.08 88.5997 147.158C92.8181 149.548 96.175 153.908 97.1286 158.848C97.3182 158.274 97.4133 157.669 97.4098 157.06C97.3714 151.04 93.5723 145.491 88.5997 142.672Z" fill="#43415A"/>
<path d="M84.7587 210.916C83.7975 205.883 84.7741 201.154 85.3698 196.056C85.5769 194.265 85.3698 192.059 85.1704 190.265C84.8278 187.081 83.8921 186.785 82.399 185.935C81.1335 185.214 79.6353 185.183 78.2011 185.224C76.7668 185.265 75.2917 185.347 73.9495 184.814C72.6073 184.281 71.421 182.939 71.5105 181.408C71.559 180.602 71.9451 179.864 72.1215 179.076C72.2979 178.289 72.188 177.305 71.5258 176.911C71.175 176.742 70.7888 176.676 70.406 176.717C68.2559 176.758 67.0518 176.638 64.9196 176.938C64.6895 176.903 64.0171 177.256 63.7461 177.414C65.0576 177.269 66.2592 177.597 67.5068 177.543C68.3019 177.507 68.9257 177.376 69.5521 177.895C70.1095 178.355 70.0225 179.262 69.8998 180.003C69.6723 181.37 69.5112 182.794 69.9586 184.084C70.4316 185.451 71.5539 186.49 72.8297 187.004C74.124 187.48 75.5124 187.585 76.8563 187.308C77.8994 187.122 78.9246 186.78 79.9805 186.761C81.0364 186.742 82.1791 187.122 82.762 188.062C83.529 189.279 84.3574 190.077 84.452 191.531C84.5875 193.59 84.7076 195.457 84.2832 197.403C80.8804 213.368 86.2109 220.386 84.7946 231.958C83.4421 242.98 82.7646 242.223 79.7811 248.303C82.2047 246.307 83.2248 243.655 84.1657 240.542C84.5594 239.243 85.3366 237.155 85.5692 235.812C86.6379 229.661 87.5224 223.275 86.1189 217.201C85.6331 215.11 85.1627 213.032 84.7587 210.916Z" fill="#E4775D"/>
<path d="M150.61 178.094C148.197 177.861 145.052 181.131 142.629 181.27C142.135 181.298 141.573 181.374 141.294 181.817C141.016 182.26 141.141 182.804 141.274 183.293C141.652 184.69 142.071 186.085 142.493 187.482C141.954 192.49 142.7 197.692 141.66 202.632C141.125 205.166 140.126 207.553 139.359 210.013C137.357 216.424 136.864 223.31 137.449 230.04C137.861 234.756 138.955 239.66 142.11 243.162C145.49 246.921 149.268 247.08 151.441 241.796C154.98 233.182 154.159 223.302 152.83 214.004C151.551 205.076 149.872 195.948 151.357 187.091C151.617 186.886 151.886 186.696 152.165 186.522C152.719 186.172 153.234 185.755 153.699 185.278C154.053 184.992 154.36 184.646 154.609 184.253C156.184 182.285 157.23 179.917 156.895 179.198C156.22 177.771 152.111 178.239 150.61 178.094Z" fill="#F9A17B"/>
<path d="M154.301 179.988C152.884 179.752 147.6 179.714 146.26 180.261C144.683 180.903 143.716 181.081 142.996 184.181C142.592 185.933 142.119 188.093 142.111 189.897C142.098 195.034 142.502 199.859 140.95 204.72C140.298 206.765 139.588 208.76 138.859 210.772C136.745 216.606 136.865 223.074 137.192 229.307C137.264 230.674 137.788 232.861 138.023 234.189C138.585 237.404 139.283 240.176 141.449 242.481C139.212 236.048 138.45 236.707 138.417 225.589C138.383 213.916 144.504 207.68 143.019 191.382C142.84 189.397 143.169 187.555 143.548 185.534C143.803 184.105 144.744 183.427 145.637 182.325C146.327 181.469 147.505 181.251 148.551 181.412C149.597 181.573 153.876 182.267 154.889 182.593C156.2 183.008 155.717 180.22 154.301 179.988Z" fill="#E4775D"/>
<path d="M84.0197 160.236C80.5402 161.488 81.8645 164.55 84.9093 162.874C87.3338 161.533 90.0257 160.839 92.7554 160.851C91.4771 160.851 89.9151 159.645 88.4732 159.583C86.9641 159.514 85.4557 159.735 84.0197 160.236Z" fill="#43415A"/>
<path d="M80.6131 176.559C80.3788 176.383 80.1256 176.238 79.859 176.127C79.2939 175.952 78.7085 176.28 78.1997 176.595C77.9689 176.304 77.6793 176.073 77.3529 175.92C77.0265 175.766 76.6718 175.694 76.3155 175.709C75.5485 175.709 74.2523 175.854 74.5847 176.802C74.8838 177.655 75.955 178.634 76.6734 179.071C77.1607 179.369 77.7027 179.551 78.2619 179.603C78.8211 179.655 79.3842 179.576 79.9123 179.373C80.4404 179.169 80.9208 178.845 81.3204 178.424C81.7199 178.002 82.029 177.493 82.2264 176.931C81.6658 176.985 81.1032 176.855 80.6131 176.559Z" fill="#853536"/>
<path d="M74.5332 159.046C73.186 158.299 71.7258 157.813 70.2202 157.611C68.7859 157.419 67.0884 158.327 65.8203 158.108C68.5317 158.585 71.0978 159.747 73.306 161.495C76.0927 163.69 77.8082 160.902 74.5332 159.046Z" fill="#43415A"/>
<path d="M71.084 164.913C69.8262 164.913 68.7652 164.314 68.3612 163.48C68.247 163.706 68.1848 163.957 68.1797 164.213C68.1797 165.41 69.481 166.378 71.084 166.378C72.6871 166.378 73.9909 165.41 73.9909 164.213C73.9861 163.957 73.923 163.705 73.8069 163.48C73.4029 164.314 72.3419 164.913 71.084 164.913Z" fill="#43415A"/>
<path d="M87.6816 164.913C86.4263 164.913 85.3654 164.314 84.9589 163.48C84.8447 163.706 84.7825 163.957 84.7773 164.213C84.7773 165.41 86.0786 166.378 87.6816 166.378C89.2846 166.378 90.5885 165.41 90.5885 164.213C90.5834 163.957 90.5211 163.706 90.407 163.48C90.0005 164.314 88.9394 164.913 87.6816 164.913Z" fill="#43415A"/>
<path d="M78.3349 180.153C77.9435 180.221 77.5559 180.312 77.1742 180.427C76.7897 180.53 76.4108 180.656 76.0391 180.804C76.8295 180.814 77.6189 180.741 78.3963 180.588C79.1584 180.433 79.935 180.375 80.7099 180.416C80.345 180.225 79.9474 180.116 79.5416 180.096C79.1386 180.066 78.7338 180.085 78.3349 180.153Z" fill="#E4775D"/>
<path d="M75.8132 172.344C75.7361 172.287 75.6749 172.208 75.6362 172.116C75.5975 172.024 75.5827 171.922 75.5934 171.822C75.6797 171.597 75.7894 171.382 75.9206 171.183C76.1763 170.72 76.4106 170.245 76.6237 169.758C77.0431 168.783 77.3645 167.763 77.5824 166.716C77.8053 165.674 77.9134 164.608 77.9045 163.539C77.6293 165.627 77.073 167.661 76.253 169.578C76.0535 170.056 75.826 170.521 75.5882 170.978C75.4416 171.217 75.3263 171.476 75.2457 171.749C75.2249 171.913 75.2482 172.081 75.3129 172.232C75.3776 172.383 75.4811 172.511 75.6112 172.601C76.4717 173.167 77.4158 173.572 78.4031 173.799C77.9455 173.594 77.4904 173.389 77.0557 173.14C76.6187 172.918 76.2027 172.651 75.8132 172.344Z" fill="#E4775D"/>
<path d="M151.921 169.469L151.542 172.476C151.542 172.476 153.173 170.016 154.666 170.822C156.548 171.845 155.139 174.07 154.193 175.079C152.148 177.266 150.614 178.105 150.614 178.105L150.379 180.262C150.379 180.262 157.282 175.751 156.878 172.167C156.418 168.023 151.921 169.469 151.921 169.469Z" fill="#F3C364"/>
<path d="M151.782 167.234C152.057 168.287 152.187 169.376 152.168 170.468V175.87C152.203 177.79 151.567 179.655 150.385 181.102C149.204 182.548 147.561 183.472 145.777 183.694C143.304 184.062 140.795 184.062 138.322 183.694C134.827 183.194 131.93 180.192 131.93 175.87V170.468C131.919 169.374 132.068 168.285 132.37 167.24L151.782 167.234Z" fill="#F3C364"/>
<path d="M153.964 183.096C136.835 176.161 136.428 161.904 136.428 161.904L131.489 164.72L130.52 182.216C129.728 186.874 167.731 188.673 153.964 183.096Z" fill="#E2852C"/>
<path d="M151.821 167.341C151.821 166.521 147.475 165.865 142.106 165.865C136.737 165.865 132.391 166.527 132.391 167.341C132.391 167.7 133.229 168.028 134.623 168.282C135.185 167.809 138.327 167.445 142.116 167.445C145.905 167.445 149.047 167.809 149.609 168.282C150.975 168.028 151.821 167.7 151.821 167.341Z" fill="#D8CFBA"/>
<path opacity="0.3" d="M138.895 162.344H128.004V174.73H138.895V162.344Z" fill="#FDF6E1"/>
<path d="M142.083 167.443C138.294 167.443 135.152 167.807 134.59 168.28C139.563 168.994 144.603 168.994 149.577 168.28C149.007 167.807 145.875 167.443 142.083 167.443Z" fill="#5F2523"/>
<path d="M159.863 172.745C159.326 171.616 158.973 170.394 158.032 169.566C155.179 167.062 149.767 169.263 146.607 170.085C146.118 170.214 145.543 170.446 145.459 170.977C145.447 171.191 145.502 171.403 145.616 171.58C145.73 171.757 145.896 171.888 146.088 171.953C146.475 172.072 146.882 172.094 147.279 172.018L152.543 171.444C152.748 172.067 152.272 172.688 151.858 173.18C150.736 174.511 149.801 176.011 149.084 177.63C148.8 178.27 148.573 179.096 149.002 179.637C149.498 180.26 150.431 179.998 151.18 180.162C152.203 180.383 152.911 181.43 153.916 181.723C154.706 181.953 155.542 181.676 156.363 181.635C157.183 181.594 160.839 180.966 160.842 179.421C161.737 179.216 162.12 177.811 161.486 177.114C160.481 176.029 160.571 174.235 159.863 172.745Z" fill="#F9A17B"/>
<path d="M144.736 248.041C135.425 245.307 134.85 233.702 134.845 233.585C134.843 233.547 134.834 233.511 134.819 233.478C134.803 233.444 134.782 233.415 134.755 233.39C129.432 228.453 123.542 215.162 123.483 215.028C123.454 214.963 123.402 214.913 123.338 214.889C123.274 214.865 123.204 214.868 123.143 214.899C123.082 214.93 123.034 214.986 123.011 215.054C122.988 215.122 122.992 215.197 123.02 215.263C123.079 215.397 128.957 228.658 134.341 233.727C134.428 234.992 135.448 245.867 144.598 248.568C144.621 248.572 144.644 248.572 144.667 248.568C144.735 248.578 144.804 248.559 144.858 248.514C144.912 248.47 144.948 248.404 144.957 248.332C144.966 248.259 144.948 248.186 144.907 248.128C144.865 248.069 144.804 248.031 144.736 248.021V248.041Z" fill="#43415A"/>
<path d="M1204.67 67.1145C1203.16 63.8535 1204.3 59.8921 1204.79 56.2314C1205.49 50.9598 1204.61 45.1991 1201.57 41.19C1198.82 37.5555 1194.56 35.7311 1190.39 35.7383C1186.22 35.7455 1182.15 37.4398 1178.57 39.9145C1175.92 41.7448 1173.35 44.2577 1172.58 47.7203C1172.09 49.9003 1172.37 52.2127 1172.85 54.3962C1173.34 56.6885 1174.04 58.9165 1174.92 61.0459C1175.65 62.8082 1176.53 64.5945 1176.53 66.5513C1176.53 69.7908 1174.18 72.2547 1172.39 74.7366C1170.74 77.0168 1169.41 79.7014 1169.01 82.6403C1168.6 85.5791 1169.22 88.7936 1170.98 90.9497C1172.03 92.2264 1173.53 93.2991 1173.69 95.0507C1173.92 97.5122 1171.41 98.9882 1169.34 99.5454C1167.25 100.11 1165.14 100.508 1163.01 100.739C1159 101.174 1154.59 101.155 1151.5 104.149C1148.7 106.85 1147.75 111.333 1147.44 115.538C1146.83 123.937 1148.48 133.134 1153.92 138.726C1156.46 141.351 1159.65 142.988 1162.9 144.136C1166.78 145.505 1171.38 146.075 1174.55 143.13C1178.19 139.737 1177.32 130.628 1182.85 131.7C1187.61 132.623 1193.01 133.316 1196.15 127.852C1198.38 123.982 1197.79 118.851 1198.9 114.38C1199.74 111.025 1201.52 108.092 1203.97 106.051C1205.18 105.041 1206.54 104.269 1207.7 103.162C1210.9 100.086 1211.97 95.0089 1212.81 90.2862C1213.81 84.6699 1214.53 78.0894 1211.2 73.8572C1209.22 71.3455 1206.07 70.1142 1204.67 67.1145Z" fill="#F5C668"/>
<path d="M1194.02 104.975C1193.99 104.4 1193.97 103.825 1193.94 103.25L1193.84 101.522C1193.71 99.218 1193.45 96.9294 1193.2 94.6421C1193.06 93.5002 1192.91 92.3607 1192.77 91.22C1192.63 90.0793 1192.46 88.9434 1192.3 87.8051C1191.62 83.263 1190.87 78.7368 1190.05 74.2266C1189.64 71.9738 1189.22 69.7239 1188.77 67.4767C1188.32 65.2335 1187.87 62.9891 1187.38 60.7578C1187.78 63.0129 1188.19 65.2669 1188.58 67.5256C1188.96 69.7843 1189.37 72.0394 1189.74 74.3005C1190.5 78.8204 1191.25 83.3426 1191.89 87.885C1192.56 92.4192 1193.16 96.9748 1193.52 101.552L1193.65 103.269C1193.69 103.843 1193.72 104.418 1193.75 104.992L1193.96 108.44L1194.19 111.885C1194.27 113.033 1194.36 114.182 1194.48 115.325C1194.34 113.027 1194.25 110.726 1194.16 108.426L1194.02 104.975Z" fill="#43415A"/>
<path d="M1195.71 84.861C1195.57 85.4003 1195.4 85.9122 1195.23 86.4563C1195.05 87.0004 1194.92 87.5397 1194.77 88.0874C1194.51 89.1873 1194.29 90.3024 1194.12 91.4283C1193.96 92.5535 1193.83 93.6834 1193.75 94.8182C1193.6 97.0857 1193.6 99.3638 1193.77 101.63C1193.77 99.3672 1193.87 97.1056 1194.07 94.8552C1194.3 92.6143 1194.63 90.3867 1195.17 88.2246C1195.31 87.6853 1195.45 87.1507 1195.61 86.6174C1195.77 86.084 1195.95 85.5435 1196.09 85.0006C1196.37 83.9076 1196.62 82.8111 1196.85 81.7086C1197.32 79.5059 1197.73 77.2938 1198.11 75.0625L1196.54 81.6131C1196.27 82.6965 1196.01 83.7895 1195.71 84.861Z" fill="#43415A"/>
<path d="M1190.58 85.6437C1189.75 84.0992 1188.84 82.6047 1187.88 81.1657C1186.92 79.7267 1185.92 78.3243 1184.88 76.9585C1183.84 75.5927 1182.76 74.2686 1181.65 72.9863L1184.63 77.1995C1185.62 78.6099 1186.6 80.0214 1187.55 81.4604C1188.5 82.8994 1189.44 84.3491 1190.31 85.8478C1190.75 86.5971 1191.17 87.3583 1191.55 88.1447C1191.95 88.9232 1192.29 89.7457 1192.55 90.6002C1192.38 89.7065 1192.07 88.8606 1191.73 88.0349C1191.39 87.215 1191 86.4169 1190.58 85.6437Z" fill="#43415A"/>
<path d="M1175.41 142.578L1169.47 130.963L1163.47 119.389L1160.46 113.613L1158.95 110.734L1158.2 109.287L1157.83 108.561C1157.74 108.396 1157.66 108.235 1157.58 108.068C1157.97 108.998 1158.42 109.893 1158.85 110.797L1160.28 113.737L1163.2 119.584C1165.15 123.475 1167.14 127.34 1169.12 131.213C1171.12 135.067 1173.11 138.929 1175.14 142.771L1178.18 148.527C1179.21 150.436 1180.22 152.354 1181.27 154.254C1180.31 152.298 1179.32 150.355 1178.36 148.408L1175.41 142.578Z" fill="#43415A"/>
<path d="M1214.67 144.191C1214.54 143.086 1214.4 141.985 1214.23 140.889C1214.07 139.79 1213.88 138.699 1213.71 137.604C1213.53 136.51 1213.32 135.423 1213.12 134.335C1212.72 132.16 1212.29 129.991 1211.83 127.83C1211.38 125.669 1210.89 123.516 1210.38 121.371C1210.74 123.557 1211.12 125.737 1211.52 127.912L1212.72 134.437C1213.12 136.61 1213.52 138.784 1213.91 140.959C1214.01 141.503 1214.11 142.047 1214.2 142.592C1214.29 143.137 1214.39 143.68 1214.47 144.228C1214.55 144.776 1214.65 145.318 1214.71 145.869C1214.75 146.143 1214.79 146.417 1214.82 146.693L1214.87 147.528L1214.88 146.693C1214.87 146.414 1214.84 146.137 1214.83 145.858C1214.8 145.296 1214.73 144.746 1214.67 144.191Z" fill="#43415A"/>
<path d="M1213.6 151.526C1212.96 153.793 1212.35 156.09 1211.86 158.417C1211.74 159.001 1211.62 159.584 1211.51 160.171C1211.4 160.758 1211.29 161.345 1211.22 161.941L1211.1 162.832C1211.06 163.131 1211.04 163.428 1211.01 163.73L1210.84 165.51L1210.76 166.398C1210.73 166.694 1210.7 166.995 1210.65 167.283L1210.42 169.05L1210.31 169.935L1210.17 170.816L1209.91 172.576C1208.42 181.967 1206.54 191.286 1205.13 200.709L1204.87 202.475L1204.62 204.246L1204.38 206.017L1204.25 206.902L1204.14 207.79L1203.71 211.342L1203.36 214.905C1202.94 219.662 1202.67 224.442 1202.75 229.223C1202.74 224.442 1203.07 219.678 1203.56 214.932L1203.94 211.379L1204.4 207.838L1204.52 206.952L1204.65 206.069L1204.91 204.303L1205.17 202.537L1205.45 200.776C1206.19 196.079 1207.02 191.398 1207.86 186.72C1208.7 182.043 1209.57 177.369 1210.32 172.663L1210.58 170.895L1210.71 170.011L1210.83 169.123L1211.05 167.345C1211.1 167.049 1211.12 166.749 1211.15 166.453L1211.23 165.558L1211.4 163.775L1211.48 162.894L1211.6 162.014C1211.67 161.426 1211.79 160.846 1211.88 160.263C1211.97 159.679 1212.11 159.102 1212.22 158.522C1213.2 153.895 1214.57 149.382 1216 144.905C1217.42 140.428 1219 136.009 1220.62 131.619C1222.25 127.229 1223.91 122.86 1225.68 118.539C1222.05 127.12 1218.66 135.84 1215.71 144.774C1214.96 147.007 1214.26 149.254 1213.6 151.526Z" fill="#43415A"/>
<path d="M1228.29 143.118C1227.02 145.155 1225.79 147.221 1224.56 149.286C1223.32 151.352 1222.1 153.429 1220.9 155.52C1219.7 157.61 1218.53 159.722 1217.37 161.843C1216.22 163.965 1215.07 166.102 1213.99 168.28C1212.9 170.457 1211.84 172.649 1210.87 174.898L1210.17 176.601C1209.95 177.178 1209.72 177.748 1209.52 178.331C1209.1 179.487 1208.76 180.685 1208.53 181.911L1208.75 181.005C1208.78 180.853 1208.82 180.704 1208.87 180.559L1209.01 180.117C1209.19 179.521 1209.41 178.953 1209.62 178.375C1209.83 177.798 1210.08 177.24 1210.31 176.672L1211.05 175.002C1212.06 172.781 1213.14 170.612 1214.26 168.465C1216.5 164.169 1218.84 159.949 1221.25 155.778C1223.63 151.586 1226.08 147.452 1228.55 143.323C1229.78 141.255 1231.01 139.195 1232.26 137.146C1233.49 135.085 1234.75 133.039 1236 130.986C1234.68 132.974 1233.39 134.994 1232.09 137.01C1230.8 139.025 1229.55 141.077 1228.29 143.118Z" fill="#43415A"/>
<path d="M1229.39 182.978C1226.89 184.78 1224.38 186.584 1221.84 188.309C1219.31 190.066 1216.74 191.755 1214.13 193.34C1212.83 194.13 1211.51 194.891 1210.15 195.548C1209.48 195.891 1208.79 196.189 1208.09 196.442C1207.74 196.567 1207.38 196.667 1207.02 196.74C1206.66 196.826 1206.29 196.839 1205.92 196.779C1206.29 196.863 1206.66 196.874 1207.03 196.812C1207.39 196.757 1207.76 196.675 1208.12 196.565C1208.83 196.346 1209.54 196.08 1210.23 195.77C1211.61 195.15 1212.95 194.426 1214.28 193.671C1215.61 192.917 1216.91 192.1 1218.2 191.274C1219.49 190.449 1220.77 189.592 1222.05 188.726C1224.58 186.962 1227.09 185.162 1229.56 183.291C1230.79 182.353 1232.02 181.407 1233.25 180.452C1234.47 179.482 1235.69 178.518 1236.88 177.516L1233.14 180.26C1231.89 181.172 1230.65 182.078 1229.39 182.978Z" fill="#43415A"/>
<path d="M1207.84 142.66C1205.27 142.156 1202.08 144.545 1200.3 142.324C1199.62 141.469 1199.48 140.215 1199.42 139.049C1199.1 133.517 1199.51 127.825 1198.04 122.551C1196.77 118.063 1194.22 114.212 1190.81 111.634C1186.61 108.479 1180.4 107.855 1177.01 112.129C1174.22 115.636 1174.29 121.019 1174.98 125.72C1175.65 130.38 1176.76 134.941 1178.29 139.322C1179.61 143.12 1181.26 146.885 1181.49 150.972C1181.71 155.06 1180.01 159.668 1176.63 160.865C1174.08 161.771 1171.35 160.539 1168.68 160.605C1164.09 160.717 1160.11 164.781 1158.14 169.59C1156.18 174.398 1155.86 179.88 1155.74 185.205C1155.59 191.332 1155.67 197.614 1157.48 203.368C1159.29 209.121 1163.14 214.345 1168.27 215.833C1170.02 216.341 1171.87 216.406 1173.58 217.094C1175.29 217.783 1176.93 219.34 1177.1 221.43C1177.2 222.558 1176.85 223.671 1176.79 224.801C1176.67 227.33 1178.05 229.749 1179.91 231.057C1181.78 232.365 1184.06 232.693 1186.24 232.506C1189.39 232.234 1192.53 230.875 1194.79 228.312C1199.73 222.704 1196.51 215.589 1198.84 209.107C1200.62 204.18 1204.9 201.047 1207.1 196.357C1208.45 193.478 1208.93 189.989 1208.11 186.854C1207.29 183.72 1205.07 181.039 1202.31 180.32C1201.58 180.131 1200.82 180.066 1200.15 179.662C1198.88 178.882 1198.36 176.986 1198.6 175.34C1198.83 173.693 1199.67 172.255 1200.55 170.939C1204.9 164.451 1211.2 158.707 1211.77 150.514C1212.01 147.189 1210.67 143.213 1207.84 142.66Z" fill="#FFE8A3"/>
<path d="M1202.1 221.613C1202.1 221.576 1202.09 221.541 1202.06 221.514C1201.25 220.673 1200.5 219.79 1199.8 218.869C1199.11 217.949 1198.47 216.995 1197.85 216.032C1196.63 214.094 1195.53 212.097 1194.52 210.069C1194.01 209.054 1193.52 208.032 1193.05 207.003C1192.58 205.974 1192.14 204.939 1191.78 203.878C1191.42 202.82 1191.12 201.746 1190.89 200.659C1190.78 200.116 1190.68 199.572 1190.6 199.021L1190.4 197.368C1189.37 188.533 1189.51 179.616 1189.73 170.73C1189.85 166.285 1190.06 161.842 1190.26 157.399L1190.58 150.733L1190.73 147.4C1190.78 146.289 1190.81 145.176 1190.84 144.064C1190.85 143.507 1190.84 142.949 1190.84 142.392C1190.84 142.114 1190.81 141.834 1190.8 141.555L1190.77 141.135C1190.76 140.997 1190.74 140.858 1190.72 140.719C1190.58 139.61 1190.37 138.509 1190.09 137.42C1189.53 135.25 1188.85 133.106 1188.04 130.997C1187.64 129.942 1187.22 128.893 1186.79 127.849L1186.13 126.285C1185.93 125.759 1185.77 125.223 1185.65 124.68C1185.14 122.505 1184.8 120.297 1184.5 118.09C1184.78 120.3 1185.09 122.509 1185.58 124.693C1185.7 125.241 1185.85 125.782 1186.05 126.312L1186.69 127.882C1187.11 128.928 1187.51 129.98 1187.9 131.037C1188.29 132.094 1188.64 133.159 1188.98 134.228C1189.33 135.296 1189.63 136.375 1189.89 137.46C1190.15 138.543 1190.36 139.638 1190.49 140.74C1190.5 140.878 1190.52 141.012 1190.54 141.152L1190.56 141.567C1190.57 141.838 1190.6 142.117 1190.59 142.396C1190.59 142.95 1190.59 143.504 1190.58 144.059C1190.54 145.17 1190.51 146.28 1190.45 147.391L1190.28 150.722L1189.92 157.385C1189.69 161.825 1189.49 166.274 1189.35 170.721C1189.21 175.167 1189.15 179.618 1189.19 184.069C1189.27 188.517 1189.44 192.972 1189.99 197.404L1190.21 199.065C1190.28 199.618 1190.39 200.171 1190.5 200.72C1190.74 201.819 1191.04 202.906 1191.41 203.975C1191.78 205.045 1192.22 206.096 1192.7 207.125C1193.18 208.153 1193.66 209.182 1194.17 210.199C1195.2 212.234 1196.31 214.237 1197.54 216.184C1198.16 217.153 1198.81 218.112 1199.51 219.039C1200.2 219.955 1200.95 220.832 1201.76 221.667V221.612L1201.8 221.712L1201.76 221.667L1201.93 242.379L1202.08 257H1202.14V242.38L1202.1 221.613Z" fill="#43415A"/>
<path d="M1190.44 129.209C1189.99 130.242 1189.6 131.306 1189.27 132.395C1189.11 132.941 1188.97 133.499 1188.87 134.066C1188.78 134.634 1188.72 135.229 1188.82 135.796C1188.83 135.227 1188.91 134.663 1189.07 134.125C1189.21 133.582 1189.39 133.051 1189.57 132.525C1189.95 131.476 1190.37 130.443 1190.81 129.423C1191.24 128.403 1191.69 127.384 1192.14 126.366C1192.59 125.348 1193.06 124.338 1193.5 123.307C1192.91 124.231 1192.37 125.198 1191.86 126.183C1191.34 127.169 1190.88 128.18 1190.44 129.209Z" fill="#43415A"/>
<path d="M1201.63 191.332L1200.87 192.406L1200.08 193.464C1199.57 194.174 1199.02 194.86 1198.49 195.556C1197.41 196.928 1196.3 198.26 1195.15 199.552C1193.99 200.835 1192.8 202.087 1191.56 203.233L1191.54 203.25L1189.55 205.477L1189.68 205.628H1189.42L1189.55 205.481L1186.17 201.605C1185.01 200.263 1183.86 198.905 1182.7 197.549C1181.55 196.192 1180.42 194.811 1179.32 193.403C1178.77 192.698 1178.23 191.983 1177.71 191.256C1177.19 190.528 1176.68 189.773 1176.31 188.964C1176.26 188.863 1176.24 188.763 1176.2 188.663L1176.08 188.322L1175.96 187.978C1175.93 187.859 1175.88 187.761 1175.83 187.651L1175.56 187.003C1175.46 186.79 1175.36 186.581 1175.26 186.371C1175.07 185.948 1174.87 185.531 1174.66 185.118C1174.46 184.703 1174.25 184.283 1174.04 183.878C1173.21 182.23 1172.35 180.605 1171.48 178.986C1170.62 177.367 1169.74 175.756 1168.85 174.151C1167.96 172.546 1167.06 170.948 1166.15 169.359L1168.73 174.235L1171.28 179.127C1172.13 180.762 1172.97 182.401 1173.78 184.058C1173.98 184.47 1174.18 184.888 1174.38 185.304C1174.58 185.72 1174.77 186.139 1174.96 186.559L1175.25 187.189L1175.51 187.826C1175.56 187.934 1175.61 188.039 1175.64 188.146L1175.75 188.467L1175.86 188.79C1175.9 188.91 1175.94 189.039 1175.99 189.148C1176.18 189.582 1176.41 189.997 1176.66 190.388C1176.91 190.778 1177.16 191.158 1177.42 191.53C1177.94 192.273 1178.48 192.995 1179.03 193.708C1180.14 195.129 1181.27 196.514 1182.41 197.884C1184.7 200.628 1187.08 203.271 1189.42 205.94C1189.45 205.98 1189.5 206.003 1189.55 206.003C1189.6 206.003 1189.64 205.98 1189.68 205.94L1191.79 203.554L1191.78 203.565L1191.79 203.549C1193.04 202.376 1194.23 201.126 1195.36 199.806C1196.5 198.492 1197.6 197.136 1198.67 195.737L1199.46 194.68L1199.85 194.15L1200.23 193.609L1200.99 192.526L1201.73 191.424C1202.23 190.696 1202.7 189.936 1203.18 189.191C1203.66 188.447 1204.11 187.668 1204.56 186.906C1204.08 187.651 1203.61 188.402 1203.13 189.139C1202.64 189.876 1202.14 190.618 1201.63 191.332Z" fill="#43415A"/>
<path d="M1183.26 214.061C1182.99 213.762 1182.69 213.477 1182.41 213.187C1182.27 213.043 1182.12 212.897 1181.98 212.758L1181.53 212.353C1181.23 212.086 1180.93 211.812 1180.63 211.55L1179.72 210.777C1178.49 209.75 1177.25 208.766 1176 207.794C1173.47 205.885 1170.92 204.024 1168.34 202.212C1167.05 201.315 1165.76 200.424 1164.46 199.541C1163.15 198.671 1161.85 197.795 1160.53 196.955L1168.18 202.526C1170.72 204.395 1173.27 206.254 1175.77 208.195C1177.02 209.155 1178.27 210.123 1179.5 211.134C1180.73 212.128 1181.91 213.197 1183.04 214.336C1185.3 216.639 1187.7 218.844 1190.39 220.422C1189.08 219.567 1187.86 218.541 1186.68 217.466C1185.5 216.391 1184.36 215.248 1183.26 214.061Z" fill="#43415A"/>
<path d="M1190.6 146.952C1190.28 146 1189.92 145.067 1189.52 144.158C1189.13 143.245 1188.7 142.355 1188.27 141.467C1187.84 140.579 1187.38 139.711 1186.92 138.842C1185.99 137.114 1185.03 135.414 1184.03 133.74C1183.53 132.905 1183.03 132.069 1182.51 131.246C1182 130.423 1181.47 129.613 1180.98 128.771C1181.17 129.228 1181.42 129.652 1181.65 130.084L1182.35 131.377L1183.76 133.946C1184.7 135.659 1185.65 137.367 1186.57 139.095C1187.49 140.823 1188.39 142.555 1189.24 144.33C1189.65 145.218 1190.06 146.119 1190.41 147.039C1190.6 147.498 1190.76 147.968 1190.9 148.447C1190.93 148.567 1190.95 148.686 1190.99 148.805C1191.02 148.926 1191.04 149.048 1191.06 149.173C1191.08 149.292 1191.1 149.421 1191.11 149.546L1191.12 149.927C1191.19 149.417 1191.1 148.904 1191 148.407C1190.89 147.914 1190.76 147.428 1190.6 146.952Z" fill="#43415A"/>
<path d="M1176.13 166.115C1175.07 165.59 1173.79 165.423 1173.06 164.394C1171.59 162.35 1173.55 159.127 1172.73 156.648C1172.32 155.419 1171.29 154.619 1170.23 154.142C1165.93 152.223 1163.94 155.246 1160.58 157.252C1157.58 159.042 1153.89 158.493 1150.75 160.726C1148.44 162.375 1146.44 164.764 1145.47 167.712C1144.26 171.43 1144.81 175.721 1146.41 179.236C1148.01 182.751 1150.58 185.56 1153.37 187.86C1150.2 191.361 1148.18 196.282 1147.97 201.359C1147.76 206.436 1149.38 211.61 1152.44 215.245C1154.83 218.081 1158.25 219.993 1161.63 219.468C1165.02 218.943 1168.12 215.514 1168.05 211.549C1167.98 207.831 1165.41 204.806 1164.69 201.183C1163.95 197.468 1165.51 193.205 1168.47 191.546C1169.94 190.721 1171.62 190.538 1173.12 189.791C1174.62 189.044 1176.03 187.384 1175.78 185.51C1175.52 183.453 1173.38 181.921 1173.76 179.886C1174.06 178.225 1175.78 177.637 1177 176.688C1177.77 176.081 1178.39 175.242 1178.8 174.259C1179.2 173.276 1179.36 172.186 1179.27 171.104C1179.18 170.022 1178.85 168.987 1178.29 168.11C1177.74 167.232 1176.99 166.543 1176.13 166.117V166.115Z" fill="#F5C668"/>
<path d="M1242.11 157.799C1241.53 157.387 1240.9 157.034 1240.42 156.472C1239.43 155.308 1239.28 153.459 1239.6 151.864C1239.92 150.269 1240.64 148.826 1241.2 147.323C1243.76 140.463 1242.83 132.018 1238.87 126.122C1238.38 125.386 1237.82 124.653 1237.62 123.749C1237.5 123.204 1237.52 122.633 1237.49 122.07C1237.33 118.798 1235.64 115.795 1233.38 113.837C1231.11 111.879 1228.34 110.854 1225.55 110.339C1221.62 109.616 1217.46 109.875 1213.87 111.87C1210.28 113.865 1207.37 117.777 1206.84 122.351C1206.3 126.924 1208.54 131.945 1212.3 133.447C1215.2 134.603 1218.43 133.649 1221.44 134.339C1224.65 135.075 1227.47 137.799 1228.67 141.339C1229.87 144.879 1229.41 149.102 1227.5 152.184C1225.88 154.787 1223.17 157.052 1223.39 160.253C1223.62 163.714 1226.81 165.224 1228.42 167.698C1231.16 171.894 1228.44 175.586 1226.9 179.674C1224.15 186.975 1227.17 197.871 1234.84 198.844C1239.36 199.416 1244.09 194.592 1243.37 189.38C1242.98 186.554 1241.2 183.96 1241.6 181.133C1241.94 178.651 1243.82 176.926 1245.09 174.887C1248.37 169.587 1246.91 161.194 1242.11 157.799Z" fill="#F5C668"/>
<path d="M1219.06 152.599C1218.23 152.719 1217.56 153.777 1217.83 154.69C1217.91 154.962 1218.07 155.223 1218.04 155.51C1218.01 155.796 1217.81 156.012 1217.62 156.19C1216.1 157.577 1213.93 158.538 1213.57 160.741C1213.45 161.468 1213.57 162.237 1213.39 162.949C1213.23 163.579 1212.87 164.104 1212.54 164.641C1210.7 167.687 1210.13 171.492 1209.59 175.16C1210.02 175.787 1210.89 175.325 1211.39 174.78C1212.66 173.4 1213.63 171.687 1214.21 169.785C1214.48 168.894 1214.67 167.963 1215.03 167.113C1215.96 164.882 1217.94 163.515 1219.28 161.584C1220.31 160.113 1223.09 152.047 1219.06 152.599Z" fill="#FFE8A3"/>
<path d="M1224.39 97.5433C1222.73 97.3273 1220.85 97.9847 1219.5 96.8393C1218.48 95.973 1218.18 94.3336 1218.3 92.8802C1218.42 91.4269 1218.89 90.0345 1219.1 88.5848C1219.72 84.3155 1218.07 80.0117 1215.87 76.5061C1214.01 73.5231 1211.65 70.8205 1208.71 69.4329C1205.76 68.0452 1202.16 68.1669 1199.63 70.3958C1197.1 72.6246 1196.09 77.154 1197.85 80.2181C1199.25 82.6307 1202 83.843 1202.91 86.542C1204.09 90.019 1201.51 93.7191 1198.7 95.5518C1195.89 97.3846 1192.56 98.4429 1190.5 101.311C1188.27 104.423 1188.22 109.37 1190.4 112.538C1191.63 114.328 1193.47 115.597 1194.26 117.694C1195.34 120.558 1194.11 123.804 1193.66 126.891C1193.23 129.923 1193.58 133.036 1194.66 135.84C1195.29 137.452 1196.2 138.983 1197.51 139.89C1198.82 140.796 1200.58 140.963 1201.83 139.962C1203.21 138.866 1203.66 136.715 1203.59 134.776C1203.52 132.837 1203.04 130.935 1203.03 128.993C1203.03 127.052 1203.64 124.917 1205.12 124.023C1206.61 123.128 1208.89 124.371 1208.72 126.303C1208.66 126.982 1208.34 127.597 1208.26 128.275C1207.58 134.389 1215.14 129.579 1216.63 128.249C1219.34 125.837 1221.47 124.705 1224.59 123.345C1232.06 120.085 1233.85 110.67 1230.17 102.959C1228.92 100.347 1226.95 97.8833 1224.39 97.5433Z" fill="#FFE8A3"/>
<path d="M1178.57 154.43C1177.46 153.939 1176.21 153.645 1175.41 152.622C1174.97 152.063 1174.72 151.34 1174.3 150.761C1173.63 149.824 1172.59 149.361 1171.6 148.963C1169.48 148.116 1167.28 147.392 1165.03 147.423C1162.79 147.454 1160.47 148.325 1158.96 150.246C1158.36 151.007 1157.89 151.924 1157.15 152.502C1155.68 153.66 1153.72 153.114 1151.95 153.312C1150.89 153.441 1149.87 153.845 1148.97 154.496C1148.07 155.147 1147.31 156.027 1146.74 157.07C1145.19 159.988 1145.4 163.724 1146.06 167.069C1146.93 171.445 1149.1 176.232 1152.92 176.916C1156.53 177.56 1159.75 174.189 1161.78 170.665C1163.04 168.481 1164.51 165.586 1167.01 165.582C1169.7 165.582 1171.95 167.442 1174.89 166.935C1176.51 166.656 1178.3 165.757 1178.73 163.923C1178.82 163.545 1178.84 163.146 1178.98 162.788C1179.44 161.575 1180.86 161.456 1182 161.519C1183.22 158.801 1181.05 155.521 1178.57 154.43Z" fill="#FFE8A3"/>
<path d="M1196.56 26.726C1192.61 23.6535 1187.45 22.2002 1183.02 24.1893C1182.61 24.3754 1182.17 24.6117 1181.93 25.0472C1181.55 25.7416 1181.79 26.6568 1181.67 27.4706C1181.33 29.8307 1178.63 30.1994 1176.64 30.8115C1172.01 32.2433 1169.17 37.6676 1167.68 42.9498C1166.69 46.4196 1166.13 50.4204 1167.72 53.5692C1168.63 55.3769 1170.23 56.8827 1170.33 58.9744C1170.4 60.3764 1169.76 61.6782 1169.48 63.0456C1168.84 66.2099 1170.45 69.7788 1173.05 70.9815C1175.65 72.1842 1178.93 70.8705 1180.34 68.0618C1182.26 64.2209 1181.1 58.2108 1184.43 56.001C1186.22 54.8078 1188.46 55.4581 1190.52 55.3829C1194.85 55.2278 1197.32 51.8809 1199.35 47.929C1201.53 43.6753 1204.02 40.5312 1202.47 35.1118C1201.48 31.6252 1199.19 28.7771 1196.56 26.726Z" fill="#FFE8A3"/>
<path d="M1226.55 205.787C1225.87 205.49 1224.97 205.593 1224.57 204.885C1224.15 204.126 1224.69 203.129 1224.6 202.232C1224.46 200.852 1222.98 200.333 1222.17 199.312C1221.49 198.458 1221.27 197.207 1220.57 196.385C1219.87 195.582 1218.81 195.329 1217.84 195.492C1216.87 195.656 1215.98 196.188 1215.14 196.772C1213.77 197.72 1212.42 198.942 1211.91 200.692C1211.52 202.024 1211.61 203.667 1210.69 204.591C1209.9 205.395 1208.54 205.384 1208.02 206.45C1207.67 207.165 1207.89 208.12 1208.38 208.708C1208.88 209.296 1209.6 209.563 1210.3 209.663C1211.11 209.781 1211.94 209.7 1212.73 209.426C1213.52 209.151 1214.25 208.689 1214.87 208.069C1215.56 207.384 1215.99 206.192 1216.92 205.899C1218.42 205.429 1219.22 206.881 1219.99 207.973C1220.97 209.372 1221.96 210.561 1223.62 211.041C1224.94 211.425 1226.51 211.055 1227.33 209.787C1228.15 208.519 1227.83 206.345 1226.55 205.787Z" fill="#FFE8A3"/>
</svg>
