<svg width="99" height="100" viewBox="0 0 99 100" fill="none" xmlns="http://www.w3.org/2000/svg">
<path d="M16.1016 47.7933C16.1016 40.5329 18.3714 33.4355 22.6239 27.3987C26.8764 21.3619 32.9205 16.6568 39.9921 13.8783C47.0637 11.0999 54.8452 10.3729 62.3523 11.7894C69.8595 13.2058 76.7553 16.702 82.1676 21.8359C87.58 26.9698 91.266 33.5108 92.7592 40.6317C94.2525 47.7526 93.486 55.1336 90.5569 61.8414C87.6277 68.5491 82.6675 74.2823 76.3032 78.316C69.9389 82.3497 62.4565 84.5026 54.8023 84.5026C49.7196 84.5042 44.6863 83.5558 39.9901 81.7115C35.294 79.8672 31.027 77.1633 27.433 73.7542C23.839 70.3452 20.9884 66.2977 19.0441 61.8432C17.0998 57.3887 16.0999 52.6145 16.1016 47.7933Z" fill="#EFC73F"/>
<path d="M72.6031 88.7594L52.7989 77.2683L33.1713 65.5859C29.9674 70.5529 28.9674 76.5212 30.39 82.1856C31.8126 87.85 35.5422 92.7496 40.7629 95.8128C45.9836 98.8761 52.2707 99.8537 58.2492 98.5319C64.2278 97.2101 69.4112 93.6965 72.666 88.7594" fill="white"/>
<path d="M52.6582 75.8212L56.314 54.9435C55.2526 54.8088 54.1829 54.7408 53.112 54.7402C49.2786 54.7407 45.5051 55.642 42.1285 57.3634C38.7518 59.0848 35.8773 61.5728 33.7617 64.6051L52.6582 75.8212Z" fill="white"/>
<path d="M73.2313 87.7666C75.0832 84.727 76.1418 81.3114 76.3189 77.8047C76.496 74.2981 75.7862 70.8021 74.249 67.6086C72.7118 64.415 70.3918 61.6166 67.4824 59.4466C64.5729 57.2767 61.1584 55.7983 57.524 55.1348L53.7422 76.4788L73.2313 87.7666Z" fill="#4550E5"/>
<path d="M53.0992 54.7648C48.5086 54.7648 44.021 56.0562 40.2043 58.4756C36.3875 60.8951 33.4129 64.3338 31.6567 68.357C29.9005 72.3801 29.4418 76.807 30.3383 81.0775C31.2347 85.3481 33.4462 89.2705 36.6931 92.3487C39.9401 95.4269 44.0765 97.5225 48.5792 98.3706C53.0819 99.2186 57.7487 98.781 61.9891 97.113C66.2296 95.445 69.8532 92.6216 72.4017 88.9999C74.9503 85.3782 76.3093 81.1209 76.3068 76.7665C76.3001 70.9312 73.8526 65.3368 69.5014 61.2117C65.1502 57.0867 59.2511 54.768 53.0992 54.7648ZM53.0992 99.9998C48.2548 99.9998 43.5191 98.6372 39.4912 96.0843C35.4632 93.5314 32.3238 89.9028 30.47 85.6575C28.6161 81.4122 28.131 76.7407 29.0761 72.2339C30.0212 67.7271 32.3541 63.5873 35.7795 60.3381C39.205 57.0888 43.5694 54.8761 48.3207 53.9796C53.072 53.0832 57.9967 53.5433 62.4723 55.3017C66.9479 57.0602 70.7734 60.0381 73.4648 63.8588C76.1562 67.6795 77.5927 72.1714 77.5927 76.7665C77.586 82.9264 75.0033 88.8322 70.4113 93.1879C65.8193 97.5436 59.5932 99.9935 53.0992 99.9998Z" fill="#DEA81E"/>
<path d="M53.0991 77.3771C52.9799 77.378 52.8625 77.3492 52.7587 77.2935L32.589 65.336C32.4438 65.2519 32.3396 65.1164 32.2994 64.9595C32.2592 64.8026 32.2863 64.637 32.3747 64.499C32.4678 64.3624 32.6137 64.2658 32.7811 64.2301C32.9484 64.1943 33.1237 64.2222 33.2696 64.3077L53.4394 76.2651C53.5572 76.3364 53.6474 76.4421 53.6962 76.5663C53.745 76.6905 53.7498 76.8264 53.7099 76.9534C53.67 77.0804 53.5876 77.1917 53.4751 77.2703C53.3625 77.3489 53.2262 77.3906 53.0865 77.3891" fill="#DEA81E"/>
<path d="M73.5074 89.1904C73.3872 89.1865 73.27 89.1536 73.167 89.0947L52.8334 77.2927C52.7243 77.2286 52.6376 77.1354 52.5838 77.0249C52.53 76.9144 52.5116 76.7913 52.5309 76.6709L56.4387 54.3584C56.4819 54.215 56.5791 54.0915 56.7117 54.0114C56.8443 53.9313 57.0033 53.9001 57.1586 53.9237C57.3138 53.9472 57.4545 54.0239 57.5542 54.1393C57.6539 54.2547 57.7055 54.4007 57.6993 54.5497L53.9175 76.4677L73.8856 88.0544C74.0309 88.1386 74.1349 88.274 74.1751 88.4309C74.2152 88.5878 74.1882 88.7534 74.0998 88.8914C74.0418 88.9819 73.9605 89.0569 73.8635 89.1092C73.7664 89.1615 73.6569 89.1895 73.5452 89.1904" fill="#DEA81E"/>
<path d="M46.0893 64.9411H43.4673C43.3818 64.9411 43.2971 64.9249 43.2183 64.8935C43.1394 64.8621 43.0679 64.8162 43.0081 64.7583C42.9482 64.7004 42.9011 64.6317 42.8696 64.5564C42.838 64.481 42.8227 64.4004 42.8243 64.3193V61.7963C42.8536 61.6582 42.9324 61.5339 43.0473 61.4447C43.1622 61.3554 43.3061 61.3066 43.4546 61.3066C43.6032 61.3066 43.7471 61.3554 43.862 61.4447C43.9769 61.5339 44.0557 61.6582 44.0849 61.7963V63.7095H46.064C46.201 63.7466 46.3216 63.825 46.4073 63.9329C46.4931 64.0408 46.5395 64.1722 46.5395 64.3073C46.5395 64.4425 46.4931 64.5739 46.4073 64.6818C46.3216 64.7897 46.201 64.8681 46.064 64.9052" fill="#DEA81E"/>
<path d="M46.0897 62.4063C46.0042 62.4079 45.9192 62.3933 45.8398 62.3633C45.7603 62.3334 45.688 62.2887 45.627 62.232C45.5659 62.1752 45.5174 62.1074 45.4843 62.0326C45.4512 61.9578 45.4341 61.8775 45.4342 61.7964V59.8832H43.4677C43.3307 59.8461 43.2102 59.7677 43.1244 59.6598C43.0386 59.552 42.9922 59.4205 42.9922 59.2854C42.9922 59.1502 43.0386 59.0188 43.1244 58.9109C43.2102 58.8031 43.3307 58.7246 43.4677 58.6875H46.0897C46.1752 58.6875 46.2598 58.7037 46.3387 58.735C46.4175 58.7664 46.489 58.8124 46.5489 58.8703C46.6087 58.9282 46.6558 58.9969 46.6874 59.0723C46.7189 59.1476 46.7343 59.2282 46.7326 59.3093V61.8323C46.7326 61.994 46.6648 62.1492 46.5443 62.2635C46.4237 62.3779 46.2602 62.4422 46.0897 62.4422" fill="#DEA81E"/>
<path d="M48.6102 63.7084H49.9465V59.882H48.6102V63.7084ZM50.5893 64.9041H47.9673C47.8818 64.9042 47.7971 64.888 47.7183 64.8566C47.6394 64.8252 47.5679 64.7792 47.5081 64.7213C47.4482 64.6634 47.4011 64.5948 47.3696 64.5194C47.338 64.444 47.3227 64.3635 47.3243 64.2824V59.2722C47.3227 59.1911 47.338 59.1105 47.3696 59.0352C47.4011 58.9598 47.4482 58.8911 47.5081 58.8332C47.5679 58.7753 47.6394 58.7293 47.7183 58.6979C47.7971 58.6665 47.8818 58.6504 47.9673 58.6504H50.5893C50.6748 58.6504 50.7594 58.6665 50.8383 58.6979C50.9171 58.7293 50.9886 58.7753 51.0485 58.8332C51.1083 58.8911 51.1554 58.9598 51.1869 59.0352C51.2185 59.1105 51.2339 59.1911 51.2322 59.2722V64.3182C51.2339 64.3993 51.2185 64.4799 51.1869 64.5553C51.1554 64.6307 51.1083 64.6993 51.0485 64.7572C50.9886 64.8151 50.9171 64.8611 50.8383 64.8925C50.7594 64.9239 50.6748 64.94 50.5893 64.94" fill="#DEA81E"/>
<path d="M46.0909 62.405H43.4689C43.3756 62.4228 43.2792 62.4207 43.1869 62.3989C43.0945 62.3771 43.0084 62.3361 42.9348 62.2789C42.8612 62.2217 42.8018 62.1497 42.7611 62.0681C42.7203 61.9865 42.6992 61.8974 42.6992 61.8071C42.6992 61.7168 42.7203 61.6277 42.7611 61.5461C42.8018 61.4645 42.8612 61.3925 42.9348 61.3353C43.0084 61.2781 43.0945 61.2371 43.1869 61.2153C43.2792 61.1935 43.3756 61.1914 43.4689 61.2092H46.0909C46.1842 61.1914 46.2805 61.1935 46.3729 61.2153C46.4652 61.2371 46.5513 61.2781 46.6249 61.3353C46.6985 61.3925 46.7579 61.4645 46.7987 61.5461C46.8394 61.6277 46.8605 61.7168 46.8605 61.8071C46.8605 61.8974 46.8394 61.9865 46.7987 62.0681C46.7579 62.1497 46.6985 62.2217 46.6249 62.2789C46.5513 62.3361 46.4652 62.3771 46.3729 62.3989C46.2805 62.4207 46.1842 62.4228 46.0909 62.405Z" fill="#DEA81E"/>
<path d="M63.977 71.4221H61.4558C61.3188 71.385 61.1984 71.3066 61.1127 71.1987C61.0269 71.0908 60.9805 70.9594 60.9805 70.8243C60.9805 70.6891 61.0269 70.5577 61.1127 70.4498C61.1984 70.3419 61.3188 70.2635 61.4558 70.2264H63.2964V68.4447C63.3257 68.3066 63.4045 68.1824 63.5194 68.0931C63.6343 68.0039 63.7782 67.9551 63.9267 67.9551C64.0752 67.9551 64.2191 68.0039 64.334 68.0931C64.4489 68.1824 64.5277 68.3066 64.557 68.4447V70.8362C64.557 70.9979 64.4892 71.1531 64.3687 71.2674C64.2481 71.3818 64.0846 71.446 63.9141 71.446" fill="#DEA81E"/>
<path d="M63.9799 69.0189C63.8094 69.0189 63.6459 68.9546 63.5254 68.8402C63.4048 68.7259 63.3372 68.5708 63.3372 68.409V66.6274H61.4966C61.351 66.5996 61.22 66.5249 61.1259 66.4159C61.0318 66.3069 60.9805 66.1704 60.9805 66.0295C60.9805 65.8886 61.0318 65.7521 61.1259 65.6431C61.22 65.5341 61.351 65.4594 61.4966 65.4316H64.0178C64.1883 65.4316 64.3518 65.4959 64.4724 65.6103C64.5929 65.7246 64.6607 65.8797 64.6607 66.0415V68.433C64.6607 68.5947 64.5929 68.7498 64.4724 68.8642C64.3518 68.9785 64.1883 69.0428 64.0178 69.0428" fill="#DEA81E"/>
<path d="M66.4379 70.1897H67.6228V66.6025H66.4379V70.1897ZM68.2657 71.3855H65.7445C65.574 71.3855 65.4105 71.3212 65.2899 71.2068C65.1693 71.0925 65.1016 70.9374 65.1016 70.7756V65.9927C65.1016 65.8309 65.1693 65.6758 65.2899 65.5614C65.4105 65.4471 65.574 65.3828 65.7445 65.3828H68.2657C68.4362 65.3828 68.5999 65.4471 68.7204 65.5614C68.841 65.6758 68.9086 65.8309 68.9086 65.9927V70.7756C68.9086 70.9374 68.841 71.0925 68.7204 71.2068C68.5999 71.3212 68.4362 71.3855 68.2657 71.3855Z" fill="#DEA81E"/>
<path d="M63.9804 69.0185H61.4592C61.2887 69.0185 61.1252 68.9542 61.0046 68.8398C60.884 68.7255 60.8164 68.5704 60.8164 68.4086C60.8164 68.2469 60.884 68.0918 61.0046 67.9774C61.1252 67.8631 61.2887 67.7988 61.4592 67.7988H63.9804C64.1509 67.7988 64.3145 67.8631 64.4351 67.9774C64.5557 68.0918 64.6233 68.2469 64.6233 68.4086C64.6233 68.5704 64.5557 68.7255 64.4351 68.8398C64.3145 68.9542 64.1509 69.0185 63.9804 69.0185Z" fill="#DEA81E"/>
<path d="M45.7748 86.523H42.9889C42.8433 86.4953 42.7123 86.4205 42.6182 86.3115C42.5241 86.2025 42.4727 86.066 42.4727 85.9252C42.4727 85.7843 42.5241 85.6477 42.6182 85.5388C42.7123 85.4298 42.8433 85.355 42.9889 85.3273H45.1319V83.5456C45.1302 83.4645 45.1456 83.3839 45.1771 83.3086C45.2087 83.2332 45.2558 83.1645 45.3156 83.1066C45.3755 83.0487 45.447 83.0028 45.5258 82.9714C45.6047 82.94 45.6893 82.9238 45.7748 82.9238C45.8603 82.9238 45.945 82.94 46.0238 82.9714C46.1026 83.0028 46.1741 83.0487 46.234 83.1066C46.2939 83.1645 46.3409 83.2332 46.3725 83.3086C46.4041 83.3839 46.4194 83.4645 46.4177 83.5456V85.9371C46.4177 86.0988 46.35 86.2539 46.2294 86.3683C46.1088 86.4827 45.9453 86.5469 45.7748 86.5469" fill="#DEA81E"/>
<path d="M48.2104 85.3049H49.471V81.7177H48.2104V85.3049ZM50.0509 86.5007H47.5296C47.3591 86.5007 47.1956 86.4364 47.0751 86.322C46.9545 86.2077 46.8867 86.0526 46.8867 85.8908V81.1079C46.8867 80.9461 46.9545 80.791 47.0751 80.6767C47.1956 80.5623 47.3591 80.498 47.5296 80.498H50.0509C50.2214 80.498 50.3849 80.5623 50.5054 80.6767C50.626 80.791 50.6938 80.9461 50.6938 81.1079V85.8908C50.6938 86.0526 50.626 86.2077 50.5054 86.322C50.3849 86.4364 50.2214 86.5007 50.0509 86.5007Z" fill="#DEA81E"/>
<path d="M45.7741 84.1332H43.2528C43.1159 84.0961 42.9953 84.0177 42.9095 83.9098C42.8237 83.8019 42.7773 83.6705 42.7773 83.5354C42.7773 83.4002 42.8237 83.2688 42.9095 83.1609C42.9953 83.053 43.1159 82.9746 43.2528 82.9375H45.7741C45.911 82.9746 46.0316 83.053 46.1174 83.1609C46.2032 83.2688 46.2496 83.4002 46.2496 83.5354C46.2496 83.6705 46.2032 83.8019 46.1174 83.9098C46.0316 84.0177 45.911 84.0961 45.7741 84.1332Z" fill="#DEA81E"/>
<path d="M43.2562 84.1327C43.0857 84.1327 42.9222 84.0684 42.8016 83.954C42.6811 83.8397 42.6133 83.6845 42.6133 83.5228V81.1313C42.6133 80.9696 42.6811 80.8145 42.8016 80.7001C42.9222 80.5857 43.0857 80.5215 43.2562 80.5215H45.7774C45.923 80.5492 46.054 80.624 46.1481 80.733C46.2422 80.8419 46.2937 80.9785 46.2937 81.1194C46.2937 81.2602 46.2422 81.3968 46.1481 81.5058C46.054 81.6148 45.923 81.6895 45.7774 81.7172H43.937V83.463C43.937 83.6247 43.8692 83.7799 43.7486 83.8942C43.6281 84.0086 43.4646 84.0728 43.2941 84.0728" fill="#DEA81E"/>
<path d="M45.852 71.2792C45.7366 71.2816 45.6229 71.2525 45.5243 71.1955C45.3781 71.1154 45.271 70.9839 45.2262 70.8295C45.1814 70.6752 45.2024 70.5103 45.2847 70.3705L47.8059 66.281C47.8911 66.1399 48.032 66.0367 48.1975 65.9941C48.363 65.9515 48.5396 65.9729 48.6884 66.0538C48.8372 66.1347 48.9459 66.2683 48.9908 66.4253C49.0357 66.5823 49.0131 66.7497 48.9278 66.8908L46.4066 70.9683C46.3522 71.0627 46.2719 71.1414 46.1743 71.1961C46.0766 71.2508 45.9654 71.2795 45.852 71.2792Z" fill="#DEA81E"/>
<path d="M45.4471 67.093C45.3858 67.096 45.328 67.1213 45.2858 67.1636C45.2436 67.2059 45.2202 67.2619 45.2203 67.3201C45.2203 67.3484 45.2261 67.3764 45.2375 67.4025C45.2489 67.4286 45.2655 67.4523 45.2866 67.4723C45.3077 67.4923 45.3328 67.5082 45.3603 67.519C45.3878 67.5298 45.4173 67.5354 45.4471 67.5354C45.4769 67.5354 45.5064 67.5298 45.5339 67.519C45.5614 67.5082 45.5865 67.4923 45.6076 67.4723C45.6287 67.4523 45.6453 67.4286 45.6567 67.4025C45.6681 67.3764 45.6741 67.3484 45.6741 67.3201C45.6742 67.2619 45.6506 67.2059 45.6084 67.1636C45.5661 67.1213 45.5084 67.096 45.4471 67.093ZM45.4471 68.755C45.1449 68.755 44.8495 68.6698 44.5984 68.5103C44.3473 68.3508 44.1518 68.1241 44.0368 67.8591C43.9217 67.594 43.8922 67.3025 43.9521 67.0215C44.012 66.7405 44.1584 66.4827 44.373 66.2808C44.5876 66.079 44.8606 65.9422 45.1573 65.8877C45.454 65.8332 45.7611 65.8636 46.0395 65.9749C46.318 66.0863 46.5555 66.2736 46.7215 66.5131C46.8876 66.7526 46.9749 67.0335 46.9724 67.3201C46.9724 67.5096 46.9328 67.6971 46.856 67.872C46.7792 68.0469 46.6667 68.2056 46.5249 68.339C46.3831 68.4724 46.2148 68.5778 46.0298 68.6492C45.8449 68.7206 45.6468 68.7566 45.4471 68.755Z" fill="#DEA81E"/>
<path d="M48.7761 69.4974C48.7313 69.4974 48.6874 69.51 48.6501 69.5337C48.6128 69.5573 48.5837 69.591 48.5665 69.6303C48.5494 69.6696 48.5449 69.7129 48.5536 69.7546C48.5624 69.7964 48.5839 69.8347 48.6156 69.8648C48.6474 69.8949 48.6878 69.9154 48.7318 69.9237C48.7758 69.932 48.8215 69.9278 48.8629 69.9115C48.9044 69.8952 48.9399 69.8676 48.9648 69.8322C48.9897 69.7968 49.0031 69.7552 49.0031 69.7126C49.0031 69.6556 48.9792 69.6008 48.9366 69.5605C48.8941 69.5201 48.8363 69.4974 48.7761 69.4974ZM48.7761 71.1475C48.4734 71.1499 48.1767 71.0668 47.9239 70.9087C47.6712 70.7506 47.4737 70.5248 47.3567 70.2599C47.2397 69.9951 47.2086 69.7032 47.267 69.4214C47.3255 69.1396 47.4709 68.8807 47.685 68.6777C47.899 68.4746 48.1721 68.3366 48.4691 68.2811C48.7662 68.2257 49.0738 68.2553 49.353 68.3663C49.6323 68.4773 49.8704 68.6646 50.0371 68.9044C50.2037 69.1441 50.2913 69.4255 50.2888 69.7126C50.2855 70.0922 50.1251 70.4554 49.8421 70.7238C49.5591 70.9922 49.1763 71.1444 48.7761 71.1475Z" fill="#DEA81E"/>
<path d="M63.4231 77.843C63.3076 77.8453 63.1939 77.8163 63.0953 77.7593C62.9483 77.6769 62.841 77.5433 62.7963 77.3869C62.7516 77.2306 62.773 77.0639 62.8559 76.9223L65.3771 72.8448C65.4189 72.7746 65.475 72.713 65.5422 72.6635C65.6093 72.614 65.6862 72.5776 65.7682 72.5565C65.8503 72.5353 65.936 72.5298 66.0203 72.5403C66.1046 72.5508 66.1859 72.5771 66.2594 72.6176C66.333 72.6562 66.3978 72.7083 66.4498 72.7709C66.5018 72.8335 66.5401 72.9054 66.5624 72.9823C66.5848 73.0592 66.5907 73.1395 66.5798 73.2186C66.5689 73.2976 66.5413 73.3738 66.4989 73.4427L63.9777 77.5321C63.9232 77.6265 63.8431 77.7051 63.7455 77.7599C63.6478 77.8146 63.5365 77.8433 63.4231 77.843Z" fill="#DEA81E"/>
<path d="M62.9824 73.6574C62.9222 73.6574 62.8644 73.68 62.8219 73.7204C62.7793 73.7608 62.7554 73.8155 62.7554 73.8726C62.7554 73.9297 62.7793 73.9845 62.8219 74.0248C62.8644 74.0652 62.9222 74.0878 62.9824 74.0878C63.0426 74.0878 63.1002 74.0652 63.1427 74.0248C63.1853 73.9845 63.2092 73.9297 63.2092 73.8726C63.2092 73.8155 63.1853 73.7608 63.1427 73.7204C63.1002 73.68 63.0426 73.6574 62.9824 73.6574ZM62.9824 75.3195C62.6807 75.3195 62.3858 75.2346 62.135 75.0756C61.8841 74.9166 61.6886 74.6907 61.5731 74.4263C61.4577 74.1619 61.4275 73.871 61.4863 73.5904C61.5452 73.3097 61.6905 73.0519 61.9038 72.8496C62.1171 72.6472 62.3889 72.5094 62.6848 72.4536C62.9807 72.3978 63.2873 72.4264 63.5661 72.5359C63.8448 72.6454 64.0831 72.8309 64.2507 73.0688C64.4183 73.3067 64.5077 73.5865 64.5077 73.8726C64.5077 74.2563 64.347 74.6243 64.061 74.8957C63.7749 75.167 63.3869 75.3195 62.9824 75.3195Z" fill="#DEA81E"/>
<path d="M66.3114 76.0499C66.2501 76.053 66.1924 76.0783 66.1501 76.1205C66.1079 76.1628 66.0843 76.2189 66.0844 76.2771C66.0844 76.3342 66.1084 76.3889 66.1509 76.4293C66.1935 76.4697 66.2512 76.4924 66.3114 76.4924C66.3716 76.4924 66.4292 76.4697 66.4718 76.4293C66.5143 76.3889 66.5382 76.3342 66.5382 76.2771C66.5383 76.2189 66.5149 76.1628 66.4727 76.1205C66.4304 76.0783 66.3727 76.053 66.3114 76.0499ZM66.3114 77.712C66.0087 77.7144 65.712 77.6312 65.4592 77.4732C65.2064 77.3151 65.009 77.0892 64.892 76.8244C64.775 76.5595 64.7437 76.2676 64.8021 75.9859C64.8606 75.7041 65.0061 75.4452 65.2202 75.2421C65.4343 75.0391 65.7072 74.901 66.0043 74.8456C66.3013 74.7901 66.6091 74.8198 66.8883 74.9308C67.1675 75.0418 67.4057 75.2291 67.5723 75.4688C67.739 75.7086 67.8266 75.99 67.8241 76.2771C67.8208 76.6567 67.6603 77.0199 67.3774 77.2883C67.0944 77.5567 66.7116 77.7089 66.3114 77.712Z" fill="#DEA81E"/>
<path d="M45.4854 92.6458C45.3748 92.6422 45.2667 92.6135 45.1702 92.5621C45.0962 92.5224 45.0311 92.4692 44.979 92.4055C44.9268 92.3418 44.8884 92.2689 44.8662 92.191C44.8439 92.1132 44.8382 92.0319 44.8492 91.952C44.8603 91.872 44.8879 91.7949 44.9306 91.7251L47.4518 87.6357C47.4903 87.5601 47.5449 87.4928 47.612 87.4381C47.6792 87.3835 47.7576 87.3425 47.8422 87.3179C47.9269 87.2932 48.0159 87.2854 48.1038 87.295C48.1918 87.3045 48.2767 87.3311 48.3533 87.3732C48.4299 87.4153 48.4964 87.472 48.5489 87.5396C48.6013 87.6072 48.6384 87.6844 48.658 87.7663C48.6775 87.8482 48.6789 87.933 48.6623 88.0155C48.6457 88.0979 48.6112 88.1762 48.5612 88.2455L46.04 92.3349C45.9845 92.4285 45.9041 92.5064 45.8067 92.561C45.7093 92.6156 45.5985 92.6449 45.4854 92.6458Z" fill="#DEA81E"/>
<path d="M45.0965 88.4484C45.0363 88.4484 44.9787 88.4711 44.9361 88.5114C44.8936 88.5518 44.8696 88.6065 44.8696 88.6636C44.8696 88.7207 44.8936 88.7754 44.9361 88.8158C44.9787 88.8562 45.0363 88.8788 45.0965 88.8788C45.1566 88.8788 45.2144 88.8562 45.257 88.8158C45.2995 88.7754 45.3234 88.7207 45.3234 88.6636C45.3234 88.6065 45.2995 88.5518 45.257 88.5114C45.2144 88.4711 45.1566 88.4484 45.0965 88.4484ZM45.0965 90.1105C44.7943 90.1128 44.4981 90.03 44.2456 89.8724C43.9931 89.7149 43.7957 89.4898 43.6783 89.2256C43.5609 88.9615 43.529 88.6702 43.5864 88.3887C43.6438 88.1073 43.788 87.8484 44.0008 87.6448C44.2136 87.4413 44.4854 87.3023 44.7816 87.2455C45.0778 87.1887 45.3853 87.2166 45.6647 87.3258C45.9442 87.4349 46.183 87.6204 46.3512 87.8586C46.5194 88.0968 46.6093 88.3769 46.6093 88.6636C46.6093 89.0453 46.4502 89.4115 46.1669 89.6825C45.8835 89.9535 45.4988 90.1073 45.0965 90.1105Z" fill="#DEA81E"/>
<path d="M48.4121 90.841C48.3519 90.841 48.2943 90.8637 48.2517 90.904C48.2092 90.9444 48.1853 90.9991 48.1853 91.0562C48.1853 91.1133 48.2092 91.1681 48.2517 91.2084C48.2943 91.2488 48.3519 91.2714 48.4121 91.2714C48.4723 91.2714 48.53 91.2488 48.5726 91.2084C48.6151 91.1681 48.6391 91.1133 48.6391 91.0562C48.6391 90.9991 48.6151 90.9444 48.5726 90.904C48.53 90.8637 48.4723 90.841 48.4121 90.841ZM48.4121 92.5031C48.1104 92.5031 47.8155 92.4182 47.5646 92.2592C47.3138 92.1002 47.1183 91.8743 47.0028 91.6099C46.8874 91.3455 46.8572 91.0546 46.916 90.774C46.9749 90.4933 47.1202 90.2355 47.3335 90.0331C47.5468 89.8308 47.8186 89.693 48.1145 89.6372C48.4104 89.5814 48.7172 89.61 48.9959 89.7195C49.2746 89.829 49.5128 90.0145 49.6804 90.2524C49.848 90.4903 49.9375 90.7701 49.9375 91.0562C49.9375 91.4399 49.7767 91.808 49.4906 92.0793C49.2046 92.3507 48.8166 92.5031 48.4121 92.5031Z" fill="#DEA81E"/>
<path d="M31.4049 17.2553C31.275 17.4365 31.1001 17.5847 30.8957 17.6868C30.6913 17.789 30.4637 17.842 30.2326 17.8412C30.0063 17.8408 29.7833 17.7897 29.5817 17.692C29.3802 17.5943 29.2058 17.4529 29.0728 17.2792C28.6981 16.6899 28.5263 16.0044 28.5812 15.3182C28.5091 14.5857 28.667 13.8494 29.035 13.2018C29.1651 13.0244 29.3387 12.8796 29.5406 12.7797C29.7426 12.6797 29.967 12.6276 30.1948 12.6278C30.4239 12.6222 30.651 12.6707 30.8556 12.7687C31.0602 12.8668 31.2359 13.0115 31.3671 13.1898C31.7451 13.7822 31.9171 14.4725 31.8587 15.1628C31.9303 15.8876 31.7723 16.6162 31.4049 17.2553ZM32.5269 12.3528C32.2279 12.0375 31.8596 11.7883 31.4479 11.623C31.0361 11.4577 30.5911 11.3803 30.1443 11.3962C29.6815 11.3731 29.22 11.4619 28.8032 11.6543C28.3865 11.8467 28.0281 12.1364 27.7617 12.4962C27.2049 13.3412 26.9202 14.3219 26.9426 15.3181C26.965 16.3143 27.2936 17.2826 27.8879 18.1043C28.1772 18.4158 28.5345 18.6639 28.9351 18.8312C29.3357 18.9984 29.7698 19.0809 30.2074 19.0728C30.6525 19.0744 31.0926 18.9844 31.4974 18.8089C31.9022 18.6334 32.2621 18.3767 32.5521 18.0565C33.1758 17.2232 33.5108 16.2265 33.5108 15.2046C33.5108 14.1827 33.1758 13.1861 32.5521 12.3528" fill="#DEA81E"/>
<path d="M30.269 25.0744L38.0722 11.5744C38.1416 11.4312 38.2539 11.3106 38.3952 11.2276C38.5365 11.1447 38.7003 11.1031 38.8664 11.1081H39.3076C39.3653 11.1044 39.4229 11.1158 39.4742 11.1411C39.5255 11.1664 39.5685 11.2047 39.5984 11.2516C39.6284 11.2985 39.6441 11.3523 39.644 11.4071C39.6438 11.462 39.6277 11.5157 39.5975 11.5625L31.8197 25.0744C31.7562 25.2217 31.645 25.3462 31.5023 25.43C31.3597 25.5138 31.1928 25.5525 31.0255 25.5407H30.559C30.5014 25.5444 30.4437 25.533 30.3924 25.5076C30.3411 25.4823 30.2981 25.4442 30.2682 25.3972C30.2383 25.3503 30.2225 25.2965 30.2227 25.2417C30.2228 25.1868 30.2388 25.1331 30.269 25.0863" fill="#DEA81E"/>
<path d="M41.0754 23.4607C40.9413 23.6399 40.7635 23.7857 40.5572 23.8856C40.3508 23.9856 40.1221 24.0367 39.8904 24.0347C39.6633 24.0383 39.4389 23.9889 39.2367 23.8909C39.0345 23.7929 38.8608 23.6493 38.7307 23.4727C38.3388 22.8806 38.1576 22.1848 38.2138 21.4878C38.1323 20.7548 38.2907 20.0158 38.6676 19.3713C38.797 19.1932 38.9704 19.0479 39.1725 18.9478C39.3747 18.8478 39.5995 18.7961 39.8275 18.7973C40.0561 18.7949 40.2819 18.8447 40.4859 18.9425C40.69 19.0403 40.8662 19.1833 40.9997 19.3593C41.3802 19.9508 41.5524 20.6418 41.4914 21.3323C41.5624 22.0609 41.4045 22.7932 41.0376 23.4368L41.0754 23.4607ZM42.1595 18.5343C41.8591 18.22 41.4907 17.9708 41.0796 17.8036C40.6685 17.6365 40.2242 17.5554 39.777 17.5657C39.3125 17.5439 38.8498 17.6332 38.4313 17.8255C38.0127 18.0177 37.6518 18.3067 37.3818 18.6658C36.8194 19.4456 36.5365 20.3763 36.575 21.3204C36.492 22.3802 36.8242 23.4318 37.5078 24.2738C37.8033 24.584 38.1642 24.832 38.567 25.0017C38.9698 25.1714 39.4056 25.2591 39.8464 25.2591C40.2871 25.2591 40.723 25.1714 41.1258 25.0017C41.5286 24.832 41.8893 24.584 42.1848 24.2738C42.8085 23.4405 43.1435 22.4439 43.1435 21.422C43.1435 20.4001 42.8085 19.4034 42.1848 18.5701" fill="#DEA81E"/>
<path d="M22.9575 38.0117C22.9575 40.4032 18.1797 42.2566 12.3053 42.2566C6.43088 42.2566 1.64062 40.3554 1.64062 38.0117V41.3C1.64062 43.6915 6.41827 45.5449 12.3053 45.5449C18.1923 45.5449 22.9575 43.6437 22.9575 41.3V38.0117Z" fill="#4550E5"/>
<path d="M2.28492 40.2971V41.3015C2.28492 43.0234 6.4071 44.8887 12.3698 44.8887C18.3324 44.8887 22.3789 42.9755 22.3789 41.3015V40.2971C20.5006 41.8396 16.7693 42.8679 12.3698 42.8679C7.97025 42.8679 4.22625 41.8396 2.28492 40.2971ZM12.3698 46.1562C6.06673 46.1562 1.02431 44.0278 1.02431 41.3015V38.0132C1.00556 37.9247 1.00779 37.8333 1.03077 37.7457C1.05376 37.6581 1.09696 37.5765 1.15726 37.5066C1.21757 37.4368 1.29346 37.3805 1.37947 37.3419C1.46548 37.3032 1.55944 37.2832 1.65461 37.2832C1.74978 37.2832 1.84374 37.3032 1.92975 37.3419C2.01577 37.3805 2.09166 37.4368 2.15196 37.5066C2.21226 37.5765 2.25547 37.6581 2.27845 37.7457C2.30144 37.8333 2.30367 37.9247 2.28492 38.0132C2.28492 39.7231 6.4071 41.6004 12.3698 41.6004C18.3324 41.6004 22.3789 39.6753 22.3789 38.0132C22.4082 37.8751 22.487 37.7508 22.6019 37.6616C22.7168 37.5723 22.8607 37.5235 23.0092 37.5235C23.1577 37.5235 23.3018 37.5723 23.4167 37.6616C23.5316 37.7508 23.6102 37.8751 23.6395 38.0132V41.3015C23.6395 44.0278 18.6727 46.1562 12.2941 46.1562" fill="#DEA81E"/>
<path d="M22.9605 34.7246C22.9605 37.1161 18.1953 38.9695 12.3083 38.9695C6.42128 38.9695 1.65625 37.0324 1.65625 34.7246V38.0249C1.65625 40.4163 6.42128 42.2697 12.3083 42.2697C18.1953 42.2697 22.9605 40.3685 22.9605 38.0249V34.7246Z" fill="white"/>
<path d="M2.29725 37.0316V38.036C2.29725 39.7459 6.40676 41.6232 12.3064 41.6232C18.206 41.6232 22.3157 39.71 22.3157 38.036V37.0316C20.45 38.5621 16.7059 39.5905 12.3064 39.5905C7.90688 39.5905 4.17556 38.5621 2.29725 37.0316ZM12.3064 42.8907C6.00336 42.8907 0.960938 40.7503 0.960938 38.036V34.7358C0.990204 34.5976 1.06901 34.4734 1.18391 34.3841C1.29881 34.2949 1.44272 34.2461 1.59124 34.2461C1.73976 34.2461 1.88382 34.2949 1.99872 34.3841C2.11362 34.4734 2.19228 34.5976 2.22154 34.7358C2.22154 36.4576 6.3312 38.323 12.2308 38.323C18.1305 38.323 22.24 36.4098 22.24 34.7358C22.2791 34.6058 22.3618 34.4915 22.4756 34.4101C22.5893 34.3288 22.7278 34.2848 22.8703 34.2848C23.0127 34.2848 23.1514 34.3288 23.2651 34.4101C23.3789 34.4915 23.4615 34.6058 23.5006 34.7358V38.036C23.5006 40.7503 18.5338 42.8907 12.1551 42.8907" fill="#DEA81E"/>
<path d="M1.65625 22.1094V24.7759C1.65625 27.1674 6.42128 29.0208 12.3083 29.0208C18.1953 29.0208 22.9731 27.1195 22.9731 24.7759V22.1094H1.65625Z" fill="white"/>
<path d="M12.3064 29.63C6.00336 29.63 0.960938 27.5016 0.960938 24.7753V22.1088C0.990204 21.9707 1.06901 21.8464 1.18391 21.7572C1.29881 21.6679 1.44272 21.6191 1.59124 21.6191C1.73976 21.6191 1.88382 21.6679 1.99872 21.7572C2.11362 21.8464 2.19228 21.9707 2.22154 22.1088V24.7753C2.22154 26.4972 6.3312 28.3625 12.2308 28.3625C18.1305 28.3625 22.24 26.4493 22.24 24.7753V22.1088C22.2791 21.9789 22.3618 21.8646 22.4756 21.7832C22.5893 21.7018 22.7278 21.6578 22.8703 21.6578C23.0127 21.6578 23.1514 21.7018 23.2651 21.7832C23.3789 21.8646 23.4615 21.9789 23.5006 22.1088V24.7753C23.5006 27.5016 18.5338 29.63 12.1551 29.63" fill="#DEA81E"/>
<path d="M22.9605 24.8125C22.9605 27.204 18.1953 29.0574 12.3083 29.0574C6.42128 29.0574 1.65625 27.1562 1.65625 24.8125V28.1008C1.65625 30.4923 6.42128 32.3457 12.3083 32.3457C18.1953 32.3457 22.9605 30.4445 22.9605 28.1008V24.8125Z" fill="#4550E5"/>
<path d="M2.29725 27.0958V28.1002C2.29725 29.8221 6.40676 31.6874 12.3064 31.6874C18.206 31.6874 22.3157 29.7743 22.3157 28.1002V27.0958C20.45 28.6383 16.7059 29.6666 12.3064 29.6666C7.90688 29.6666 4.17556 28.6383 2.29725 27.0958ZM12.3064 32.9549C6.00336 32.9549 0.960938 30.8265 0.960938 28.1002V24.8119C0.990204 24.6738 1.06901 24.5496 1.18391 24.4603C1.29881 24.371 1.44272 24.3223 1.59124 24.3223C1.73976 24.3223 1.88382 24.371 1.99872 24.4603C2.11362 24.5496 2.19228 24.6738 2.22154 24.8119C2.22154 26.5338 6.3312 28.3992 12.2308 28.3992C18.1305 28.3992 22.24 26.486 22.24 24.8119C22.2791 24.682 22.3618 24.5677 22.4756 24.4863C22.5893 24.4049 22.7278 24.3609 22.8703 24.3609C23.0127 24.3609 23.1514 24.4049 23.2651 24.4863C23.3789 24.5677 23.4615 24.682 23.5006 24.8119V28.1002C23.5006 30.8265 18.5338 32.9549 12.1551 32.9549" fill="#DEA81E"/>
<path d="M22.9605 28.1367C22.9605 30.5282 18.1953 32.3816 12.3083 32.3816C6.42128 32.3816 1.65625 30.4804 1.65625 28.1367V31.425C1.65625 33.8165 6.42128 35.6699 12.3083 35.6699C18.1953 35.6699 22.9605 33.7687 22.9605 31.425V28.1367Z" fill="white"/>
<path d="M2.29725 30.42V31.4244C2.29725 33.1463 6.40676 35.0117 12.3064 35.0117C18.206 35.0117 22.3157 33.0985 22.3157 31.4244V30.42C20.45 31.9625 16.7059 32.9909 12.3064 32.9909C7.90688 32.9909 4.17556 31.9625 2.29725 30.42ZM12.3064 36.2911C6.00336 36.2911 0.960938 34.1507 0.960938 31.4244V28.1361C0.990204 27.998 1.06901 27.8738 1.18391 27.7845C1.29881 27.6953 1.44272 27.6465 1.59124 27.6465C1.73976 27.6465 1.88382 27.6953 1.99872 27.7845C2.11362 27.8738 2.19228 27.998 2.22154 28.1361C2.22154 29.858 6.3312 31.7234 12.2308 31.7234C18.1305 31.7234 22.24 29.8102 22.24 28.1361C22.2791 28.0062 22.3618 27.8919 22.4756 27.8105C22.5893 27.7292 22.7278 27.6851 22.8703 27.6851C23.0127 27.6851 23.1514 27.7292 23.2651 27.8105C23.3789 27.8919 23.4615 28.0062 23.5006 28.1361V31.4244C23.5006 34.1507 18.5338 36.2911 12.1551 36.2911" fill="#DEA81E"/>
<path d="M22.9605 31.4609C22.9605 33.8524 18.1953 35.7058 12.3083 35.7058C6.42128 35.7058 1.65625 33.8046 1.65625 31.4609V34.7492C1.65625 37.1407 6.42128 38.9941 12.3083 38.9941C18.1953 38.9941 22.9605 37.0929 22.9605 34.7492V31.4609Z" fill="#4550E5"/>
<path d="M2.29725 33.7442V34.7487C2.29725 36.4705 6.40676 38.3359 12.3064 38.3359C18.206 38.3359 22.3157 36.4227 22.3157 34.7487V33.7442C20.45 35.2867 16.7059 36.3151 12.3064 36.3151C7.90688 36.3151 4.17556 35.2867 2.29725 33.7442ZM12.3064 39.6153C6.00336 39.6153 0.960938 37.4749 0.960938 34.7487V31.4604C0.990204 31.3222 1.06901 31.198 1.18391 31.1087C1.29881 31.0195 1.44272 30.9707 1.59124 30.9707C1.73976 30.9707 1.88382 31.0195 1.99872 31.1087C2.11362 31.198 2.19228 31.3222 2.22154 31.4604C2.22154 33.1822 6.3312 35.0476 12.2308 35.0476C18.1305 35.0476 22.24 33.1344 22.24 31.4604C22.2791 31.3304 22.3618 31.2161 22.4756 31.1347C22.5893 31.0534 22.7278 31.0094 22.8703 31.0094C23.0127 31.0094 23.1514 31.0534 23.2651 31.1347C23.3789 31.2161 23.4615 31.3304 23.5006 31.4604V34.7487C23.5006 37.4749 18.5338 39.6153 12.1551 39.6153" fill="#DEA81E"/>
<path d="M22.9605 21.9069C22.9605 24.1309 18.1953 25.9365 12.3083 25.9365C6.42128 25.9365 1.65625 24.1309 1.65625 21.9069C1.65625 19.6828 6.42128 17.8652 12.3083 17.8652C18.1953 17.8652 22.9605 19.6708 22.9605 21.9069Z" fill="#4550E5"/>
<path d="M12.3064 18.4736C6.40676 18.4736 2.29725 20.2791 2.29725 21.9053C2.29725 23.5316 6.40676 25.3252 12.3064 25.3252C18.206 25.3252 22.3157 23.5196 22.3157 21.9053C22.3157 20.2911 18.206 18.4736 12.3064 18.4736ZM12.3064 26.5448C5.86469 26.5448 0.960938 24.5479 0.960938 21.9053C0.960938 19.2628 5.81427 17.2539 12.3064 17.2539C18.7985 17.2539 23.6518 19.2508 23.6518 21.9053C23.6518 24.5599 18.7859 26.5448 12.3064 26.5448Z" fill="#DEA81E"/>
<path d="M24.6602 31.8301V34.5085C24.6602 36.9 29.4252 38.7534 35.3122 38.7534C41.1992 38.7534 45.977 36.8522 45.977 34.5085V31.8301H24.6602Z" fill="white"/>
<path d="M35.3142 39.4232C29.0112 39.4232 23.9688 37.2829 23.9688 34.5685V31.89C23.998 31.7519 24.0768 31.6277 24.1917 31.5384C24.3066 31.4492 24.4505 31.4004 24.5991 31.4004C24.7476 31.4004 24.8916 31.4492 25.0065 31.5384C25.1214 31.6277 25.2001 31.7519 25.2294 31.89V34.5685C25.2294 36.2784 29.339 38.1557 35.2387 38.1557C41.1383 38.1557 45.2478 36.2426 45.2478 34.5685V31.89C45.2869 31.7601 45.3697 31.6458 45.4834 31.5644C45.5971 31.4831 45.7356 31.4391 45.8781 31.4391C46.0206 31.4391 46.1592 31.4831 46.273 31.5644C46.3867 31.6458 46.4693 31.7601 46.5084 31.89V34.5685C46.5084 37.2829 41.5416 39.4232 35.1629 39.4232" fill="#DEA81E"/>
<path d="M45.977 34.5332C45.977 36.9247 41.1992 38.7781 35.3122 38.7781C29.4252 38.7781 24.6602 36.8769 24.6602 34.5332V37.8334C24.6602 40.2249 29.4252 42.0783 35.3122 42.0783C41.1992 42.0783 45.977 40.1771 45.977 37.8334V34.5332Z" fill="#4550E5"/>
<path d="M25.3051 36.8285V37.8329C25.3051 39.5428 29.4146 41.4201 35.3142 41.4201C41.2138 41.4201 45.3235 39.495 45.3235 37.8329V36.8285C43.4578 38.359 39.7137 39.3873 35.3142 39.3873C30.9147 39.3873 27.1834 38.359 25.3051 36.8285ZM35.3142 42.6876C29.0112 42.6876 23.9688 40.5472 23.9688 37.8329V34.5326C23.998 34.3945 24.0768 34.2703 24.1917 34.181C24.3066 34.0917 24.4505 34.043 24.5991 34.043C24.7476 34.043 24.8916 34.0917 25.0065 34.181C25.1214 34.2703 25.2001 34.3945 25.2294 34.5326C25.2294 36.2545 29.339 38.1199 35.2387 38.1199C41.1383 38.1199 45.2478 36.2067 45.2478 34.5326C45.2869 34.4027 45.3697 34.2884 45.4834 34.207C45.5971 34.1256 45.7356 34.0816 45.8781 34.0816C46.0206 34.0816 46.1592 34.1256 46.273 34.207C46.3867 34.2884 46.4693 34.4027 46.5084 34.5326V37.8329C46.5084 40.5472 41.5416 42.6876 35.1629 42.6876" fill="#DEA81E"/>
<path d="M45.977 37.8574C45.977 40.2489 41.1992 42.1023 35.3122 42.1023C29.4252 42.1023 24.6602 40.2011 24.6602 37.8574V41.1577C24.6602 43.5492 29.4252 45.4026 35.3122 45.4026C41.1992 45.4026 45.977 43.5013 45.977 41.1577V37.8574Z" fill="white"/>
<path d="M25.3051 40.1527V41.1571C25.3051 42.867 29.4146 44.7443 35.3142 44.7443C41.2138 44.7443 45.3235 42.8192 45.3235 41.1571V40.1527C43.4578 41.6832 39.7137 42.7116 35.3142 42.7116C30.9147 42.7116 27.1834 41.6832 25.3051 40.1527ZM35.3142 46.0118C29.0112 46.0118 23.9688 43.8714 23.9688 41.1571V37.8568C23.998 37.7187 24.0768 37.5945 24.1917 37.5052C24.3066 37.416 24.4505 37.3672 24.5991 37.3672C24.7476 37.3672 24.8916 37.416 25.0065 37.5052C25.1214 37.5945 25.2001 37.7187 25.2294 37.8568C25.2294 39.5787 29.339 41.4441 35.2387 41.4441C41.1383 41.4441 45.2478 39.5309 45.2478 37.8568C45.2869 37.7269 45.3697 37.6126 45.4834 37.5312C45.5971 37.4499 45.7356 37.4058 45.8781 37.4058C46.0206 37.4058 46.1592 37.4499 46.273 37.5312C46.3867 37.6126 46.4693 37.7269 46.5084 37.8568V41.1571C46.5084 43.8714 41.5416 46.0118 35.1629 46.0118" fill="#DEA81E"/>
<path d="M45.977 31.6275C45.977 33.8516 41.1992 35.6692 35.3122 35.6692C29.4252 35.6692 24.6602 33.8516 24.6602 31.6275C24.6602 29.4035 29.4252 27.5859 35.3122 27.5859C41.1992 27.5859 45.977 29.4035 45.977 31.6275Z" fill="#4550E5"/>
<path d="M35.3142 28.2082C29.4146 28.2082 25.3051 30.0137 25.3051 31.628C25.3051 33.2423 29.4146 35.0598 35.3142 35.0598C41.2138 35.0598 45.3235 33.2542 45.3235 31.628C45.3235 30.0018 41.2138 28.2082 35.3142 28.2082ZM35.3142 36.2794C28.8725 36.2794 23.9688 34.2826 23.9688 31.628C23.9688 28.9735 28.8221 26.9766 35.3142 26.9766C41.8063 26.9766 46.6597 28.9735 46.6597 31.628C46.6597 34.2826 41.7937 36.2794 35.3142 36.2794Z" fill="#DEA81E"/>
<path d="M74.2644 14.3964C72.7881 13.5669 71.6401 12.3004 70.9968 10.7916C70.3535 9.28276 70.2506 7.61527 70.704 6.0456C71.1573 4.47593 72.1419 3.09102 73.506 2.10388C74.8702 1.11673 76.5384 0.582031 78.2542 0.582031C79.97 0.582031 81.6383 1.11673 83.0024 2.10388C84.3666 3.09102 85.351 4.47593 85.8043 6.0456C86.2577 7.61527 86.1549 9.28276 85.5116 10.7916C84.8684 12.3004 83.7203 13.5669 82.2441 14.3964H74.2644Z" fill="#4550E5"/>
<path d="M82.2466 15.0425C82.1345 15.0439 82.0239 15.017 81.9264 14.9645C81.8289 14.9119 81.7479 14.8356 81.6918 14.7435C81.6486 14.6745 81.6203 14.598 81.6083 14.5185C81.5963 14.439 81.6009 14.3581 81.622 14.2803C81.6431 14.2025 81.6802 14.1295 81.7311 14.0653C81.782 14.0012 81.8458 13.9472 81.9188 13.9065C83.0006 13.3029 83.8967 12.4411 84.5182 11.4068C85.1397 10.3726 85.4648 9.20194 85.461 8.01148C85.461 7.11855 85.2754 6.2344 84.9148 5.4096C84.5541 4.5848 84.0257 3.83555 83.3595 3.20471C82.6932 2.57388 81.9023 2.07384 81.0321 1.73322C80.162 1.3926 79.2296 1.21809 78.2883 1.21966C76.7172 1.21948 75.1896 1.70855 73.94 2.61173C72.6904 3.51491 71.7879 4.78225 71.3712 6.21908C70.9546 7.65591 71.0469 9.18275 71.6338 10.5651C72.2206 11.9474 73.2697 13.1087 74.6199 13.8706C74.7651 13.9548 74.8693 14.0902 74.9095 14.2471C74.9496 14.404 74.9226 14.5696 74.8342 14.7076C74.7453 14.845 74.6034 14.9443 74.4387 14.9844C74.2741 15.0246 74.0995 15.0025 73.9517 14.9229C72.3661 14.0191 71.136 12.6479 70.4492 11.0186C69.7624 9.38938 69.6568 7.59167 70.1483 5.9001C70.6399 4.20852 71.7017 2.71606 73.1715 1.65068C74.6413 0.585294 76.4384 0.00555464 78.2883 0C80.5296 0.00313791 82.6785 0.847455 84.2657 2.34854C85.8529 3.84962 86.7495 5.88548 86.7595 8.01148C86.7562 9.41418 86.3688 10.792 85.6351 12.0099C84.9014 13.2278 83.8466 14.2439 82.5742 14.9587C82.4756 15.0157 82.362 15.0448 82.2466 15.0425Z" fill="#DEA81E"/>
<path d="M70.2675 21.2012C69.6437 21.1203 69.0435 20.921 68.5026 20.6153C66.2461 19.3598 71.1625 18.6543 71.1625 18.6543L70.2675 21.2012Z" fill="white"/>
<path d="M70.2699 21.8103H70.1311C69.4274 21.706 68.7513 21.4746 68.1394 21.1287C67.3074 20.6504 67.2066 20.1482 67.2823 19.8014C67.484 18.7731 69.4505 18.2829 71.0641 18.0557C71.2344 18.0315 71.4078 18.0719 71.547 18.1681C71.6862 18.2643 71.7799 18.4086 71.8078 18.5698C71.8203 18.6491 71.8161 18.73 71.7957 18.8078C71.7752 18.8856 71.7387 18.9588 71.6884 19.0232C71.638 19.0877 71.5747 19.142 71.5022 19.1832C71.4297 19.2244 71.3493 19.2517 71.2657 19.2634C70.3596 19.3693 69.4781 19.6157 68.6563 19.9928L68.8202 20.0884L68.9084 20.1482C69.3844 20.3762 69.8947 20.5335 70.4212 20.6146C70.5873 20.6542 70.7305 20.754 70.82 20.8926C70.9096 21.0312 70.9383 21.1975 70.9002 21.3559C70.8661 21.4897 70.7851 21.6086 70.6706 21.6933C70.5562 21.778 70.415 21.8234 70.2699 21.8222" fill="#DEA81E"/>
<path d="M88.3208 14.1226C88.636 14.9237 85.9634 15.7607 85.5852 18.0805C85.1818 20.6035 87.5141 23.4135 89.4932 24.7168C91.4724 26.0202 94.0944 27.3833 95.6198 29.4998C97.145 31.8637 97.7263 34.6679 97.2585 37.4037C95.9979 45.9054 87.451 49.2535 78.4503 49.3013C69.4496 49.3491 60.89 45.9054 59.642 37.4037C59.1741 34.6679 59.7556 31.8637 61.2809 29.4998C62.8062 27.4192 65.3022 26.1398 67.4074 24.7168C69.5126 23.2939 72.3868 21.0459 71.3152 18.0805C70.5211 15.8683 68.2645 14.9237 68.5797 14.1226C68.8948 13.3214 72.8154 14.6248 78.2864 14.6487C83.9466 14.6487 87.9427 13.142 88.3713 14.1226" fill="white"/>
<path d="M69.286 14.3853C69.4678 14.6021 69.6613 14.8096 69.8659 15.0071C70.774 15.792 71.4774 16.7662 71.9207 17.853C73.1813 21.2011 70.1306 23.6404 67.7732 25.1949L66.5126 26.008C64.712 26.9753 63.1208 28.2575 61.8232 29.7865C60.3719 32.0182 59.8295 34.6757 60.2979 37.2599C61.3316 44.3148 68.1263 48.5716 78.4633 48.6314C88.8003 48.6912 95.5948 44.3148 96.6285 37.2599C97.0887 34.6758 96.5469 32.021 95.1032 29.7865C93.803 28.2599 92.2124 26.9782 90.4138 26.008L89.1532 25.1949C86.8085 23.6643 84.5519 20.6032 84.9679 17.9606C85.2592 16.6918 86.0194 15.5636 87.111 14.7799C87.2623 14.6604 87.4388 14.5049 87.5648 14.3853C86.7482 14.4174 85.9351 14.5053 85.1318 14.6484C82.8789 15.0182 80.5983 15.2142 78.312 15.2343C76.127 15.1964 73.9482 15.0005 71.7946 14.6484C70.9634 14.4945 70.1201 14.4065 69.2734 14.3853H69.286ZM78.4381 49.8511C67.3951 49.7913 60.1214 45.1399 58.9868 37.4273C58.4753 34.5279 59.0985 31.5511 60.7391 29.0571C62.1263 27.392 63.8382 25.9955 65.7815 24.9438L67.0421 24.1546C69.0591 22.8273 71.6308 20.7706 70.7105 18.1759C70.322 17.2616 69.7184 16.4436 68.9457 15.7844C68.2901 15.1506 67.685 14.5886 67.975 13.8114C68.3531 12.8428 69.639 13.0222 71.9585 13.369C74.0409 13.7132 76.1481 13.9051 78.2616 13.9429C80.4799 13.9135 82.6925 13.7216 84.8797 13.369C87.2245 13.0222 88.5228 12.8309 88.901 13.8114C89.1909 14.5408 88.548 15.0908 87.9303 15.617C87.0628 16.2182 86.4469 17.0905 86.1908 18.0802C85.8252 20.3521 88.1068 22.9827 89.8338 24.1187L91.0944 24.9079C93.0349 25.9635 94.7461 27.3594 96.1369 29.0213C97.782 31.5135 98.4014 34.4934 97.8765 37.3915C96.742 45.104 89.481 49.7554 78.4381 49.8152" fill="#DEA81E"/>
<path d="M87.1217 21.2012C87.7487 21.1175 88.3524 20.9185 88.899 20.6153C91.1429 19.3598 86.2266 18.6543 86.2266 18.6543L87.1217 21.2012Z" fill="white"/>
<path d="M87.1242 21.8102C86.9723 21.8021 86.8284 21.7432 86.718 21.6439C86.6076 21.5446 86.5378 21.4114 86.5212 21.268C86.5045 21.1246 86.542 20.9802 86.627 20.8605C86.7121 20.7408 86.839 20.6536 86.9854 20.6144C87.5103 20.5275 88.0197 20.3705 88.4983 20.1481L88.5738 20.0883L88.7377 19.9926C87.9197 19.617 87.0426 19.3706 86.1409 19.2632C86.0566 19.2531 85.9752 19.2268 85.9018 19.1861C85.8284 19.1454 85.7645 19.091 85.7139 19.0262C85.6633 18.9614 85.6269 18.8875 85.6071 18.8091C85.5873 18.7307 85.5845 18.6492 85.5988 18.5697C85.6111 18.4904 85.6398 18.4141 85.6833 18.3453C85.7267 18.2765 85.784 18.2165 85.8519 18.1688C85.9198 18.121 85.997 18.0864 86.0791 18.067C86.1611 18.0476 86.2464 18.0437 86.33 18.0555C87.9436 18.2827 89.9102 18.773 90.1119 19.8013C90.1875 20.1481 90.1118 20.6503 89.2672 21.1286C88.6528 21.4693 87.9778 21.7003 87.2755 21.8102H87.1242Z" fill="#DEA81E"/>
<path d="M71.0508 21.5469C73.626 21.9037 76.2262 22.0716 78.8286 22.0491C81.1447 22.0267 83.4566 21.8589 85.7493 21.5469H71.0508Z" fill="white"/>
<path d="M78.3998 22.6837C75.9106 22.6859 73.4247 22.514 70.9622 22.1695C70.7924 22.1458 70.6393 22.0598 70.5356 21.9302C70.4319 21.8005 70.3859 21.6374 70.4076 21.476C70.4199 21.3966 70.4486 21.3204 70.4921 21.2516C70.5355 21.1828 70.5928 21.1228 70.6607 21.075C70.7286 21.0273 70.8058 20.9927 70.8878 20.9732C70.9699 20.9538 71.0551 20.9499 71.1387 20.9618C73.6798 21.3202 76.2468 21.4881 78.8157 21.464C81.1024 21.4402 83.385 21.2724 85.6483 20.9618C85.8041 20.9592 85.9557 21.0105 86.0747 21.106C86.1937 21.2015 86.2721 21.3348 86.2952 21.4811C86.3183 21.6273 86.2846 21.7765 86.2004 21.901C86.1162 22.0254 85.9872 22.1166 85.8374 22.1575C83.5166 22.4837 81.1744 22.6555 78.8283 22.6717H78.3998" fill="#DEA81E"/>
<path d="M74.1758 38.5992C74.1758 40.7157 76.3943 42.4376 79.1173 42.4376C81.8402 42.4376 84.0715 40.7157 84.0715 38.5992C84.0715 36.4828 81.8528 34.7609 79.1173 34.7609C76.596 34.7609 74.5162 33.1586 74.5162 31.1737C74.5162 29.1888 76.5457 27.6582 79.0417 27.6582C81.5377 27.6582 83.5799 29.2246 83.5799 31.1737L74.1758 38.5992Z" fill="white"/>
</svg>
