<svg id="Calque_1" data-name="Calque 1" xmlns="http://www.w3.org/2000/svg" xmlns:xlink="http://www.w3.org/1999/xlink" viewBox="0 0 307.27 310.64"><defs><style>.cls-1{fill:none;}.cls-2{clip-path:url(#clip-path);}.cls-3{fill:#99c2de;}.cls-4{clip-path:url(#clip-path-2);}.cls-5{fill:#545e6b;}.cls-6{fill:#bfc4cc;}.cls-7{fill:#ed6345;}.cls-8{fill:#f0f2f2;}.cls-9{fill:#2b5287;}.cls-10{fill:#bac2c9;}.cls-11{fill:#fff;}.cls-12{fill:#788799;}.cls-13{fill:#8f9ca8;}.cls-14{fill:#6b737d;}.cls-15{fill:#c2c7d1;}.cls-16{fill:#595959;}.cls-17{fill:#7a8c9e;}.cls-18{fill:#8799ad;}.cls-19{fill:#789961;}.cls-20{clip-path:url(#clip-path-7);}.cls-21{fill:#38b54a;}</style><clipPath id="clip-path" transform="translate(-0.21 -0.36)"><rect class="cls-1" x="0.21" y="0.36" width="307.27" height="310.64"/></clipPath><clipPath id="clip-path-2" transform="translate(-0.21 -0.36)"><rect class="cls-1" x="54.89" y="65" width="190.36" height="204.73"/></clipPath><clipPath id="clip-path-7" transform="translate(-0.21 -0.36)"><rect class="cls-1" x="49.17" y="30" width="87.28" height="102.29"/></clipPath></defs><g class="cls-2"><path class="cls-3" d="M153.84,311c84.85,0,153.63-69.54,153.63-155.32S238.69.36,153.84.36.21,69.9.21,155.68,69,311,153.84,311" transform="translate(-0.21 -0.36)"/></g><g class="cls-4"><path class="cls-5" d="M62.23,200.18V139.61h-6v60.57a11.28,11.28,0,0,0,11.29,11.24H86.07v-5.93H67.56a5.33,5.33,0,0,1-5.33-5.31" transform="translate(-0.21 -0.36)"/><path class="cls-6" d="M205.69,75.24l-98.37-8.68v5.92l97.84,8.67a4.48,4.48,0,0,1,4.07,4.46v13h6v-13a10.4,10.4,0,0,0-9.5-10.37" transform="translate(-0.21 -0.36)"/></g><rect class="cls-7" x="209.02" y="90.36" width="5.96" height="7.91"/><rect class="cls-5" x="54.68" y="138.93" width="130.5" height="5.94"/><g class="cls-4"><path class="cls-8" d="M91,85.75v84.12H103V85.75c0-4.89,4.27-8.88,9.51-8.88h64.65V65H112.47C100.65,65,91,74.31,91,85.75" transform="translate(-0.21 -0.36)"/><path class="cls-8" d="M110.57,85.75v83.17h11.92V85.75c0-4.89,4.27-8.88,9.51-8.88H245V65H132c-11.81,0-21.43,9.31-21.43,20.75" transform="translate(-0.21 -0.36)"/></g><rect class="cls-7" x="110.36" y="163.24" width="11.92" height="5.31"/><rect class="cls-9" x="90.83" y="163.24" width="11.92" height="5.31"/><rect class="cls-8" x="77.59" y="168.2" width="63.68" height="101.17"/><rect class="cls-10" x="77.59" y="168.2" width="63.68" height="17.15"/><rect class="cls-10" x="77.59" y="252.23" width="63.68" height="17.15"/><rect class="cls-5" x="93.81" y="202.16" width="31.78" height="14.84"/><g class="cls-4"><path class="cls-8" d="M178.94,98.43v171h66.31V98.43s-17.15-3.94-33.53-3.94a154.62,154.62,0,0,0-32.78,3.94" transform="translate(-0.21 -0.36)"/><path class="cls-11" d="M178.94,98.43v171h62V98.43s-16-3.94-31.36-3.94a135.77,135.77,0,0,0-30.65,3.94" transform="translate(-0.21 -0.36)"/></g><rect class="cls-10" x="178.73" y="259.4" width="66.31" height="9.98"/><g class="cls-4"><path class="cls-10" d="M178.94,98.45v5.13h66.31V98.45s-17.15-4-33.53-4a153.88,153.88,0,0,0-32.78,4" transform="translate(-0.21 -0.36)"/><path class="cls-5" d="M212.09,222.8a14.1,14.1,0,1,0,14.16,14.1,14.13,14.13,0,0,0-14.16-14.1" transform="translate(-0.21 -0.36)"/><path class="cls-12" d="M212.09,227a9.9,9.9,0,1,0,9.94,9.9,9.92,9.92,0,0,0-9.94-9.9" transform="translate(-0.21 -0.36)"/><path class="cls-13" d="M212.09,135.9a8.25,8.25,0,1,0,8.28,8.25,8.26,8.26,0,0,0-8.28-8.25" transform="translate(-0.21 -0.36)"/><path class="cls-14" d="M212.09,138.21a5.94,5.94,0,1,0,6,5.94,6,6,0,0,0-6-5.94" transform="translate(-0.21 -0.36)"/><path class="cls-5" d="M137.39,122.38a2,2,0,0,0-2,2v18.8a2,2,0,0,0,4,0v-18.8a2,2,0,0,0-2-2" transform="translate(-0.21 -0.36)"/><path class="cls-7" d="M149.27,121.19h-9.4a2.18,2.18,0,1,0,0,4.36h9.4a2.18,2.18,0,1,0,0-4.36" transform="translate(-0.21 -0.36)"/><path class="cls-15" d="M137.39,120.57a2.8,2.8,0,1,0,2.81,2.8,2.81,2.81,0,0,0-2.81-2.8" transform="translate(-0.21 -0.36)"/><path class="cls-11" d="M212.09,110.84a8.25,8.25,0,1,0,8.28,8.24,8.25,8.25,0,0,0-8.28-8.24" transform="translate(-0.21 -0.36)"/><path class="cls-16" d="M212.09,126.34a7.26,7.26,0,1,1,7.29-7.26,7.28,7.28,0,0,1-7.29,7.26m0-16.49a9.24,9.24,0,1,0,9.27,9.23,9.26,9.26,0,0,0-9.27-9.23" transform="translate(-0.21 -0.36)"/><path class="cls-5" d="M212.09,117.23a1.86,1.86,0,1,0,1.87,1.85,1.86,1.86,0,0,0-1.87-1.85" transform="translate(-0.21 -0.36)"/><path class="cls-5" d="M216.07,115.85l-4.34,2.64a.69.69,0,0,0-.23,1,.68.68,0,0,0,.59.33.65.65,0,0,0,.36-.1l4.34-2.63a.7.7,0,0,0-.72-1.19" transform="translate(-0.21 -0.36)"/></g><rect class="cls-17" x="100.27" y="203.64" width="18.87" height="11.87"/><polygon class="cls-18" points="100.27 215.51 119.14 203.64 100.27 203.64 100.27 215.51"/><rect class="cls-12" x="110.2" y="171.25" width="12.91" height="4.62"/><rect class="cls-12" x="125.43" y="171.25" width="12.91" height="4.62"/><rect class="cls-12" x="110.2" y="177.68" width="12.91" height="4.62"/><rect class="cls-12" x="125.43" y="177.68" width="12.91" height="4.62"/><g class="cls-4"><path class="cls-7" d="M83.59,172.67a1.65,1.65,0,1,0,1.65,1.65,1.65,1.65,0,0,0-1.65-1.65" transform="translate(-0.21 -0.36)"/><path class="cls-9" d="M88.89,172.67a1.65,1.65,0,1,0,1.65,1.65,1.65,1.65,0,0,0-1.65-1.65" transform="translate(-0.21 -0.36)"/><path class="cls-19" d="M94.18,172.67a1.65,1.65,0,1,0,1.66,1.65,1.65,1.65,0,0,0-1.66-1.65" transform="translate(-0.21 -0.36)"/></g><g class="cls-20"><path class="cls-21" d="M92.81,30A43.64,43.64,0,0,1,118,109.31l7.8,20.07a2.13,2.13,0,0,1-3.2,2.52l-22-15.3A43.65,43.65,0,1,1,92.81,30" transform="translate(-0.21 -0.36)"/><path class="cls-11" d="M92.31,94.33a10.79,10.79,0,0,0,10.35-7.83,1.31,1.31,0,0,0-2.53-.71,8.14,8.14,0,0,1-15.65,0A1.31,1.31,0,1,0,82,86.5a10.79,10.79,0,0,0,10.35,7.83" transform="translate(-0.21 -0.36)"/><path class="cls-11" d="M102.27,69.13a2.63,2.63,0,1,0,2.63-2.62,2.62,2.62,0,0,0-2.63,2.62" transform="translate(-0.21 -0.36)"/><path class="cls-11" d="M77.1,69.13a2.62,2.62,0,1,0,2.62-2.62,2.62,2.62,0,0,0-2.62,2.62" transform="translate(-0.21 -0.36)"/></g></svg>