<svg width="102" height="103" viewBox="0 0 102 103" fill="none" xmlns="http://www.w3.org/2000/svg">
<path d="M54.075 83.3182C55.3057 82.8372 56.6394 82.6777 57.9494 82.8551C58.4836 80.8527 59.7687 79.1307 61.5397 78.0441C62.3208 77.5747 63.1898 77.2688 64.0935 77.1449C64.9972 77.0211 65.9168 77.0819 66.7961 77.3237C67.3453 77.48 67.8741 77.7002 68.3716 77.9797C69.313 77.0558 70.4933 76.4101 71.7811 76.1145C71.6733 74.5764 71.3828 73.0565 70.9158 71.5865C70.1661 69.2352 68.8898 67.0842 67.1834 65.2961C66.7119 65.957 66.106 66.5116 65.4051 66.9238C64.7042 67.336 63.924 67.5967 63.1153 67.6887C62.781 67.7294 62.4448 67.7509 62.1081 67.7531C60.894 67.7547 59.6974 67.4634 58.621 66.9041C54.9791 65.0517 51.363 58.0795 51.208 57.7837C51.1469 57.6635 51.1343 57.5246 51.1727 57.3954C51.2111 57.2663 51.2977 57.1566 51.4147 57.089H51.5179C51.8279 56.9733 59.2667 54.4134 63.1411 55.5711C64.5307 55.9681 65.7768 56.7539 66.7314 57.8351C67.4646 58.6522 67.9584 59.6542 68.1588 60.7317C68.3592 61.8093 68.2586 62.921 67.8679 63.9454L67.6742 64.3956C69.3822 66.1288 70.7026 68.2024 71.5486 70.4802C72.0762 68.8513 72.7913 67.2887 73.6795 65.8235C75.2775 63.1737 77.2427 60.7616 79.517 58.6584C78.8275 57.4964 78.6104 56.1157 78.91 54.7993C79.1246 53.7768 79.5484 52.8093 80.155 51.9572C80.7616 51.1051 81.538 50.3867 82.4357 49.8467C84.0738 49.0318 85.8633 48.5632 87.6919 48.4703C87.2934 43.6007 85.9329 38.8575 83.6884 34.5132C83.1317 35.1367 82.541 35.7293 81.9191 36.2884C79.8589 37.6771 77.533 38.6274 75.0872 39.0798C69.9213 40.4305 64.7555 41.8326 64.9234 48.8434C64.9305 48.9471 64.9061 49.0505 64.8531 49.1401C64.8 49.2297 64.721 49.3011 64.6264 49.3451C63.5782 49.8423 62.4294 50.0932 61.2686 50.0783C58.9553 50.008 56.7121 49.2707 54.8112 47.9558C53.2564 47.0306 51.9786 45.7075 51.111 44.1239C50.2434 42.5403 49.8176 40.7542 49.8778 38.9511C49.8917 38.8263 49.9479 38.7098 50.0371 38.621C50.1263 38.5321 50.2431 38.4762 50.3685 38.4623L51.8408 38.3465C56.5288 37.9992 60.6357 37.6905 63.7869 34.7447C60.7532 34.7587 57.7581 34.0685 55.0389 32.7287C52.3197 31.389 49.9512 29.4366 48.1214 27.0265C45.5177 23.6082 43.5815 19.7334 42.4132 15.6035C42.4072 15.5479 42.4072 15.4918 42.4132 15.4362C42.4132 15.2947 42.3227 15.1532 42.2839 15.0117C33.6626 16.9022 25.9856 21.7572 20.6003 28.7245C25.2792 28.2345 29.9988 29.1381 34.1618 31.321C38.3248 33.5039 41.7441 36.868 43.9869 40.9873C46.2296 45.1067 47.195 49.7962 46.7609 54.4623C46.3267 59.1284 44.5124 63.5613 41.5479 67.1999L43.6917 69.3224C43.8078 69.4434 43.8895 69.593 43.9281 69.7558C43.9667 69.9186 43.9607 70.0888 43.9112 70.2486C43.8661 70.4106 43.7751 70.5561 43.6492 70.6679C43.5232 70.7797 43.3676 70.853 43.201 70.879L36.7436 72.1653H36.5757C36.3331 72.164 36.1009 72.0668 35.93 71.8952C35.8212 71.7905 35.7406 71.6602 35.6954 71.5164C35.6503 71.3725 35.6421 71.2197 35.6716 71.0719L36.9631 64.64C36.9935 64.4757 37.0686 64.3229 37.1802 64.1982C37.2917 64.0734 37.4357 63.9815 37.5961 63.9325C37.7565 63.8832 37.9273 63.8774 38.0908 63.9159C38.2542 63.9543 38.4045 64.0356 38.5259 64.1512L40.8763 66.5053C43.7389 62.9583 45.4607 58.6335 45.8162 54.0963C46.1718 49.5591 45.1447 45.0206 42.8693 41.0741C40.5939 37.1277 37.1759 33.9568 33.0624 31.9761C28.9488 29.9954 24.331 29.297 19.8125 29.9723C17.9054 32.6539 16.3596 35.5731 15.2148 38.6553C18.3804 36.7455 22.1089 35.9779 25.7752 36.4815C29.4414 36.9851 32.8224 38.7291 35.3508 41.421C37.8793 44.1129 39.4014 47.589 39.6621 51.2662C39.9227 54.9434 38.9061 58.598 36.7824 61.6171C36.7599 61.6648 36.7292 61.7083 36.6919 61.7457C34.4276 64.9164 31.0858 67.1617 27.2861 68.0653C23.4864 68.9689 19.4866 68.4695 16.0285 66.6596C17.3377 69.6252 19.0263 72.4097 21.0523 74.9439C24.082 75.3166 27.1561 75.0804 30.0926 74.2493C30.1595 74.2277 30.2301 74.2201 30.3002 74.2267C30.3702 74.2333 30.4383 74.2542 30.4999 74.2879C30.5616 74.3216 30.6156 74.3675 30.6588 74.4228C30.7021 74.4781 30.7335 74.5416 30.7512 74.6094C30.7915 74.7459 30.776 74.8927 30.7083 75.0179C30.6406 75.1431 30.5261 75.2367 30.3896 75.2784C28.26 75.8833 26.0564 76.1906 23.8419 76.1917C23.2091 76.1917 22.5503 76.1917 21.9692 76.1145C25.4522 80.1374 29.7576 83.373 34.5974 85.6048C39.4372 87.8366 44.6996 89.013 50.0327 89.0554C50.5106 86.7914 51.6084 84.3473 54.1267 83.4726" fill="#EFC73F"/>
<path d="M83.7531 61.1422C82.4138 61.044 81.1623 60.4415 80.2531 59.457C73.4988 65.8889 72.3752 71.5747 72.2461 72.3208C72.5486 73.5063 72.7474 74.7157 72.8401 75.9355H73.1501C74.697 75.9257 76.2009 76.4432 77.412 77.402C81.8933 72.7677 85.1002 67.0614 86.7234 60.8334C85.9928 61.0421 85.2362 61.146 84.4762 61.1422H83.7531Z" fill="#EFC73F"/>
<path d="M87.3963 88.4129C87.2404 87.4746 86.8958 86.5773 86.3831 85.7749C85.8705 84.9725 85.2005 84.2815 84.4131 83.7434C83.7813 83.3256 83.0711 83.0396 82.3254 82.9025C81.5796 82.7654 80.8136 82.7802 80.0737 82.9458C79.9999 82.9842 79.918 83.0042 79.8348 83.0042C79.7516 83.0042 79.6696 82.9842 79.5958 82.9458C79.5206 82.9075 79.455 82.853 79.4037 82.7863C79.3523 82.7195 79.3164 82.6422 79.2988 82.5599C79.0593 81.1693 78.4124 79.8804 77.4392 78.8552C76.8944 78.2725 76.2346 77.8084 75.5012 77.4918C74.7678 77.1753 73.9766 77.0131 73.1773 77.0157H72.932C73.0132 79.1429 72.8703 81.2728 72.5057 83.3703C73.5797 83.781 74.5184 84.4801 75.2177 85.39C75.2969 85.5059 75.329 85.6473 75.3074 85.7858C75.2859 85.9243 75.2122 86.0495 75.1016 86.1361C75.0062 86.2009 74.8941 86.2366 74.7787 86.239C74.6956 86.2375 74.6139 86.217 74.54 86.1791C74.4661 86.1412 74.402 86.0868 74.3526 86.0203C73.6935 85.1744 72.7931 84.5467 71.7696 84.2194C70.6848 83.8592 68.1147 84.2194 67.4948 85.1584C67.4575 85.2175 67.4088 85.2688 67.3517 85.3092C67.2945 85.3496 67.2299 85.3784 67.1615 85.3939C67.0932 85.4094 67.0224 85.4114 66.9533 85.3997C66.8842 85.388 66.8181 85.3628 66.7587 85.3256C66.6994 85.2885 66.648 85.24 66.6074 85.1831C66.5668 85.1261 66.5378 85.0618 66.5223 84.9937C66.5067 84.9256 66.5047 84.8551 66.5164 84.7863C66.5282 84.7174 66.5535 84.6515 66.5908 84.5924C67.4561 83.2288 69.9873 82.8558 71.5112 83.0745C71.8317 81.1235 71.9572 79.1457 71.8858 77.17C70.735 77.4716 69.698 78.1021 68.9026 78.9838C68.8147 79.0767 68.6971 79.1364 68.57 79.1528C68.4429 79.1692 68.314 79.1413 68.2052 79.0739C67.7003 78.7312 67.1416 78.4747 66.5521 78.3149C65.8125 78.112 65.0392 78.0621 64.2795 78.1683C63.5199 78.2745 62.7902 78.5345 62.1353 78.9324C61.3278 79.4316 60.6292 80.0874 60.0812 80.8608C59.5332 81.6343 59.1469 82.5096 58.9453 83.4347C58.9419 83.5146 58.9208 83.5928 58.8833 83.6636C58.8459 83.7343 58.7931 83.796 58.7288 83.844C58.6646 83.892 58.5905 83.9251 58.5118 83.9411C58.4331 83.9571 58.3517 83.9555 58.2737 83.9364C57.0146 83.6521 55.6983 83.7599 54.5027 84.2451C50.3571 85.6858 50.7963 92.7866 50.8221 93.1725L87.5513 89.1076C87.5347 88.8532 87.5046 88.5998 87.461 88.3486" fill="#4550E5"/>
<path d="M66.3959 64.5374C64.5582 62.9078 62.423 61.6457 60.1065 60.8198C60.0399 60.7968 59.9786 60.7607 59.9261 60.7138C59.8737 60.6669 59.8312 60.61 59.8011 60.5465C59.771 60.483 59.754 60.4142 59.751 60.344C59.748 60.2739 59.7591 60.2038 59.7836 60.138C59.8081 60.0712 59.8456 60.0099 59.894 59.9575C59.9423 59.9052 60.0005 59.8628 60.0653 59.8329C60.1301 59.8031 60.2002 59.7862 60.2715 59.7834C60.3429 59.7805 60.4141 59.7918 60.481 59.8164C62.843 60.6591 65.0312 61.9232 66.9384 63.5469C67.2677 62.7052 67.3552 61.7888 67.1909 60.9004C67.0267 60.012 66.6173 59.1868 66.0086 58.5172C65.1887 57.5874 64.117 56.913 62.9219 56.5747C59.9128 55.6743 54.2561 57.3208 52.4609 57.8611C53.3908 59.5334 56.3354 64.5503 59.112 65.9653C60.303 66.582 61.6553 66.8199 62.9864 66.647C63.675 66.5643 64.3376 66.3341 64.9283 65.9721C65.5191 65.6102 66.0241 65.1251 66.4088 64.5502" fill="#4550E5"/>
<path d="M90.9479 49.2812C88.4683 49.2812 84.9555 49.4999 83.07 50.6319C82.2967 51.1041 81.6285 51.7289 81.1066 52.4677C80.5847 53.2066 80.2201 54.044 80.0351 54.9284C79.8003 55.9148 79.9333 56.9526 80.4095 57.8485C82.7702 55.7583 85.3261 53.8975 88.0421 52.2914C88.1656 52.2208 88.3122 52.2015 88.4499 52.2376C88.5876 52.2737 88.7054 52.3623 88.7781 52.4843C88.8155 52.5441 88.8405 52.6106 88.8516 52.6801C88.8627 52.7496 88.8598 52.8206 88.8429 52.8889C88.8261 52.9572 88.7957 53.0215 88.7536 53.0779C88.7114 53.1344 88.6583 53.1819 88.5975 53.2176C85.9025 54.8055 83.3679 56.6493 81.0293 58.7232C81.7591 59.5094 82.7601 59.9918 83.8319 60.0739C84.7404 60.1678 85.6587 60.0747 86.5296 59.8003C87.4005 59.5259 88.2055 59.0761 88.8945 58.4788C91.1287 56.4978 92.6527 51.1465 93.1047 49.3327C92.6139 49.3327 91.8132 49.3327 90.9479 49.3327" fill="#4550E5"/>
<path d="M88.8915 58.4658C88.2044 59.0666 87.4 59.5196 86.5289 59.7963C85.6577 60.073 84.7385 60.1675 83.8289 60.0737C82.7572 59.9916 81.7561 59.5092 81.0264 58.723C83.365 56.6491 85.8996 54.8052 88.5945 53.2173C88.6554 53.1816 88.7084 53.1342 88.7506 53.0777C88.7928 53.0213 88.8232 52.957 88.84 52.8887C88.8568 52.8204 88.8598 52.7494 88.8487 52.6799C88.8376 52.6104 88.8125 52.5439 88.7752 52.4841C88.7025 52.3621 88.5847 52.2735 88.447 52.2374C88.3092 52.2013 88.1627 52.2206 88.0391 52.2912C85.3231 53.8973 82.7673 55.7581 80.4065 57.8483C79.9304 56.9524 79.7974 55.9146 80.0321 54.9282C80.2171 54.0438 80.5817 53.2064 81.1037 52.4675C81.6256 51.7287 82.2938 51.1039 83.067 50.6317C84.9526 49.4997 88.4653 49.281 90.932 49.281C91.8489 49.281 92.611 49.281 93.1017 49.281C92.6497 51.0948 91.1258 56.4333 88.8915 58.4143V58.4658ZM59.0973 65.901C56.3207 64.486 53.3634 59.4691 52.4464 57.7968C54.2415 57.218 59.8981 55.5843 62.9073 56.5105C64.1008 56.8589 65.171 57.5368 65.9939 58.4658C66.6 59.1369 67.0077 59.962 67.1718 60.8498C67.336 61.7376 67.2501 62.6533 66.9237 63.4955C65.0225 61.8634 62.8327 60.5984 60.4664 59.765C60.3994 59.7404 60.3282 59.7292 60.2568 59.732C60.1855 59.7348 60.1154 59.7517 60.0506 59.7816C59.9859 59.8114 59.9276 59.8538 59.8793 59.9061C59.8309 59.9584 59.7934 60.0198 59.7689 60.0866C59.7444 60.1524 59.7333 60.2225 59.7363 60.2926C59.7393 60.3628 59.7564 60.4316 59.7864 60.4951C59.8165 60.5586 59.859 60.6155 59.9114 60.6624C59.9639 60.7093 60.0252 60.7454 60.0918 60.7684C62.4059 61.591 64.5376 62.8536 66.3683 64.486C65.9849 65.062 65.4802 65.548 64.8892 65.9101C64.2982 66.2722 63.635 66.5017 62.9459 66.5828C61.6148 66.7574 60.262 66.5193 59.0715 65.901H59.0973ZM93.9411 48.2905H93.8249C91.8216 48.1401 89.8098 48.1401 87.8066 48.2905C85.9777 48.3815 84.1878 48.8503 82.5504 49.667C81.6527 50.2069 80.8763 50.9254 80.2697 51.7775C79.6631 52.6296 79.2393 53.597 79.0247 54.6195C78.7251 55.9359 78.9422 57.3166 79.6317 58.4786C77.3545 60.5791 75.3889 62.9916 73.7942 65.6437C72.906 67.1089 72.1909 68.6715 71.6633 70.3004C70.8172 68.0227 69.4969 65.9491 67.7889 64.2159L67.9826 63.7656C68.3733 62.7412 68.4739 61.6295 68.2735 60.552C68.0731 59.4744 67.5793 58.4724 66.8461 57.6553C65.8915 56.5741 64.6455 55.7883 63.256 55.3913C59.3816 54.2336 51.8911 56.7935 51.6328 56.9093H51.5294C51.4146 56.9789 51.3308 57.0895 51.2948 57.2184C51.2588 57.3474 51.2734 57.4852 51.3356 57.6039C51.4906 57.8998 55.1067 64.8719 58.7486 66.7243C59.825 67.2836 61.0216 67.575 62.2357 67.5733C62.5724 67.5711 62.9088 67.5496 63.243 67.509C64.0518 67.4169 64.8319 67.1563 65.5328 66.744C66.2337 66.3318 66.8395 65.7772 67.311 65.1163C69.0174 66.9044 70.2937 69.0554 71.0434 71.4067C71.5104 72.8767 71.8009 74.3966 71.9087 75.9347C70.6209 76.2303 69.4406 76.876 68.4992 77.8C68.0017 77.5204 67.4729 77.3002 66.9237 77.1439C66.0444 76.9021 65.1248 76.8413 64.2211 76.9651C63.3174 77.089 62.4484 77.3949 61.6673 77.8643C59.8963 78.951 58.6114 80.6729 58.0772 82.6753C56.7672 82.498 55.4334 82.6574 54.2028 83.1384C51.6199 84.0132 50.5866 86.4573 50.1088 88.7213C49.8172 90.1859 49.7174 91.682 49.8118 93.1721C49.8244 93.3041 49.8853 93.4269 49.983 93.5171C50.0806 93.6072 50.2082 93.6584 50.3413 93.661C50.483 93.6479 50.6138 93.5799 50.7056 93.4716C50.7974 93.3633 50.8428 93.2234 50.8321 93.0821C50.8321 92.6962 50.3671 85.5954 54.5127 84.1547C55.7083 83.6694 57.0246 83.5617 58.2837 83.8459C58.3617 83.865 58.4431 83.8667 58.5218 83.8507C58.6005 83.8347 58.6746 83.8015 58.7388 83.7535C58.8031 83.7055 58.8559 83.6439 58.8933 83.5731C58.9308 83.5023 58.9519 83.4242 58.9553 83.3442C59.1569 82.4191 59.5432 81.5438 60.0912 80.7704C60.6392 79.9969 61.3377 79.3411 62.1452 78.8419C63.0642 78.2838 64.125 78.0005 65.2011 78.0256C66.2771 78.0507 67.3233 78.3831 68.2152 78.9834C68.324 79.0509 68.4529 79.0788 68.58 79.0624C68.7071 79.046 68.8247 78.9863 68.9126 78.8934C69.708 78.0117 70.745 77.3812 71.8958 77.0796C71.9605 79.0551 71.835 81.0323 71.5212 82.9841C69.9973 82.7654 67.4661 83.1384 66.6008 84.4891C66.527 84.6111 66.5032 84.7567 66.5345 84.8957C66.5657 85.0347 66.6497 85.1563 66.7687 85.2352C66.8892 85.308 67.0333 85.3313 67.1707 85.3001C67.3081 85.2689 67.4279 85.1857 67.5048 85.068C68.1247 84.1161 70.6819 83.7816 71.7796 84.1289C72.8031 84.4563 73.7034 85.084 74.3626 85.9299C74.4106 85.9979 74.4744 86.0533 74.5486 86.0914C74.6228 86.1295 74.7052 86.1491 74.7887 86.1485C74.9041 86.1462 75.0162 86.1104 75.1115 86.0456C75.2222 85.9591 75.2957 85.8339 75.3173 85.6954C75.3389 85.5569 75.3069 85.4154 75.2277 85.2995C74.5318 84.3862 73.592 83.6864 72.5157 83.2799C72.8803 81.1824 73.0232 79.0525 72.942 76.9252H73.1873C73.9866 76.9227 74.7778 77.0848 75.5112 77.4014C76.2446 77.7179 76.9044 78.1821 77.4492 78.7647C78.4224 79.7899 79.0693 81.0789 79.3088 82.4695C79.3264 82.5518 79.3623 82.6291 79.4137 82.6959C79.465 82.7626 79.5306 82.8171 79.6058 82.8554C79.6813 82.8876 79.7627 82.9042 79.8448 82.9042C79.927 82.9042 80.0082 82.8876 80.0837 82.8554C80.8236 82.6898 81.5894 82.675 82.3352 82.8121C83.081 82.9491 83.7912 83.2352 84.423 83.653C85.2103 84.1911 85.8805 84.8821 86.3931 85.6845C86.9058 86.4869 87.2504 87.3842 87.4063 88.3225C87.4499 88.5737 87.48 88.8271 87.4967 89.0815C87.5129 89.2203 87.5827 89.3474 87.691 89.4361C87.7994 89.5249 87.9381 89.5684 88.0779 89.5574C88.2196 89.5443 88.3504 89.4763 88.4422 89.3681C88.534 89.2598 88.5795 89.1199 88.5687 88.9786C88.5687 88.6827 88.5686 88.4126 88.4523 88.1167C88.272 87.0349 87.8736 86.0007 87.281 85.0765C86.6884 84.1524 85.9138 83.3574 85.0042 82.7396C83.602 81.8125 81.899 81.4494 80.2386 81.7234C79.8947 80.3388 79.1962 79.0668 78.2111 78.0315C77.9612 77.782 77.6983 77.5458 77.4233 77.324C76.2154 76.3596 74.7094 75.8415 73.1614 75.8575H72.8515C72.7577 74.6422 72.559 73.4371 72.2575 72.2557C72.3866 71.471 73.5489 65.8238 80.2645 59.3919C81.1685 60.3814 82.4239 60.9812 83.7645 61.0642C84.0054 61.0771 84.2467 61.0771 84.4876 61.0642C85.2476 61.0681 86.0042 60.9641 86.7347 60.7555C87.8021 60.4508 88.7865 59.9099 89.6147 59.1733C92.5721 56.6005 94.2382 49.1781 94.3156 48.8823C94.3473 48.7494 94.3261 48.6094 94.2562 48.4918C94.1864 48.3742 94.0733 48.2882 93.9411 48.2519" fill="#DEA81E"/>
<path d="M81.9078 16.2605C82.0615 16.258 82.2126 16.3011 82.3418 16.3843C82.4709 16.4676 82.5721 16.5872 82.6328 16.728C82.6934 16.8688 82.7106 17.0243 82.6821 17.1749C82.6537 17.3255 82.5811 17.4642 82.4732 17.5734C82.3654 17.6827 82.2272 17.7575 82.0766 17.7883C81.9259 17.8191 81.7695 17.8046 81.6271 17.7466C81.4848 17.6886 81.363 17.5897 81.2773 17.4625C81.1916 17.3353 81.1459 17.1856 81.1458 17.0324C81.1441 16.9316 81.1625 16.8315 81.2001 16.738C81.2376 16.6444 81.2934 16.5592 81.3643 16.4874C81.4353 16.4155 81.5198 16.3585 81.6131 16.3195C81.7064 16.2806 81.8066 16.2605 81.9078 16.2605ZM43.3575 14.9742C45.4444 15.6691 47.6171 16.076 49.8149 16.1834C49.9587 16.1834 50.0967 16.2403 50.1984 16.3416C50.3001 16.4429 50.3572 16.5804 50.3572 16.7236C50.3572 16.794 50.3431 16.8636 50.3157 16.9285C50.2883 16.9933 50.2482 17.0521 50.1976 17.1012C50.1471 17.1503 50.0871 17.1889 50.0214 17.2147C49.9556 17.2404 49.8855 17.2528 49.8149 17.2511C47.7546 17.1688 45.7139 16.8185 43.7449 16.2091C44.4247 18.2965 45.2891 20.3198 46.3278 22.2551C48.155 22.6151 50.0443 22.5044 51.8165 21.9335C51.9485 21.8823 52.0955 21.8846 52.2258 21.9399C52.3561 21.9952 52.4595 22.0991 52.514 22.2293C52.5412 22.2943 52.5551 22.364 52.5548 22.4343C52.5545 22.5047 52.5401 22.5743 52.5124 22.639C52.4847 22.7037 52.4444 22.7623 52.3937 22.8112C52.3429 22.8602 52.2828 22.8985 52.217 22.924C51.023 23.3424 49.763 23.5428 48.4975 23.5157C48.0154 23.5157 47.5117 23.49 46.9865 23.4385C47.5946 24.465 48.2722 25.4492 49.0141 26.3843C49.4605 26.9436 49.9346 27.4802 50.4347 27.9923C52.2238 27.9747 53.9872 27.5663 55.6006 26.796C55.6641 26.7657 55.733 26.7484 55.8033 26.745C55.8736 26.7416 55.9439 26.7522 56.01 26.7761C56.0761 26.8001 56.1368 26.8369 56.1885 26.8845C56.2401 26.9321 56.2818 26.9894 56.311 27.0532C56.3417 27.1157 56.3598 27.1836 56.3641 27.253C56.3684 27.3225 56.3588 27.3921 56.336 27.4579C56.3132 27.5236 56.2776 27.5842 56.2312 27.6362C56.1848 27.6882 56.1284 27.7305 56.0655 27.7607C54.6354 28.4218 53.1102 28.8558 51.5454 29.0471C53.3831 30.6673 55.5263 31.9067 57.8501 32.693C60.1739 33.4793 62.6317 33.7966 65.0799 33.6266C65.184 33.6195 65.288 33.6439 65.3779 33.6967C65.4678 33.7495 65.5395 33.8282 65.5836 33.9225C65.6399 34.011 65.6697 34.1136 65.6697 34.2183C65.6697 34.3231 65.6399 34.4257 65.5836 34.5142C62.0321 38.6435 57.3957 38.9908 52.0232 39.3896L51.0288 39.4667C51.026 40.8768 51.4006 42.2621 52.1137 43.4802C52.8019 43.5075 53.4908 43.4557 54.1671 43.3259L55.4586 42.9657C56.1613 42.7062 56.8225 42.3466 57.4216 41.898C57.4773 41.8551 57.541 41.8237 57.609 41.8056C57.6771 41.7876 57.748 41.7832 57.8178 41.7928C57.8875 41.8024 57.9547 41.8257 58.0153 41.8614C58.0759 41.8972 58.1286 41.9446 58.1706 42.0009C58.2137 42.0564 58.2452 42.1199 58.2633 42.1876C58.2814 42.2554 58.2858 42.3261 58.2762 42.3956C58.2666 42.465 58.2432 42.5319 58.2073 42.5922C58.1715 42.6526 58.1239 42.7052 58.0673 42.747C56.5711 43.8617 54.7687 44.4946 52.9015 44.5608C53.6607 45.5281 54.5722 46.3665 55.6006 47.0435C56.4669 47.627 57.4043 48.0982 58.3902 48.4456C59.2517 47.9078 59.9835 47.1875 60.5339 46.336C60.5648 46.1962 60.6503 46.0742 60.7713 45.9971C60.8924 45.9199 61.0392 45.8937 61.1797 45.9243C61.3159 45.9608 61.4332 46.0476 61.5076 46.1671C61.5819 46.2865 61.6079 46.4297 61.5801 46.5675C61.1702 47.4687 60.5176 48.239 59.6946 48.7929C61.1335 49.0971 62.6307 48.9672 63.9951 48.4199C63.9951 40.8689 69.7938 39.3124 74.9467 37.936C77.5297 37.2671 79.8543 36.6496 81.4041 35.3632C86.8799 30.4879 86.3374 26.2171 85.8983 22.7825C85.6013 20.4413 85.3173 18.2287 87.3061 16.6851C86.5922 16.2719 85.9721 15.7156 85.4851 15.0514C85.0758 14.4189 84.5219 13.8921 83.8686 13.5142C83.2153 13.1363 82.4813 12.918 81.7269 12.8774C78.7824 12.7745 76.6645 15.5788 74.3915 19.8109C74.3446 19.905 74.2701 19.9825 74.1777 20.0331C74.0854 20.0836 73.9797 20.1049 73.8749 20.0939C73.7722 20.0806 73.6749 20.0402 73.5932 19.9769C73.5114 19.9135 73.4482 19.8296 73.41 19.7338C70.375 10.7291 64.9509 10.5619 57.4475 10.3046C52.7594 10.1374 47.4773 9.95731 41.8594 7.47461C42.2249 9.97442 42.7643 12.4459 43.4737 14.8713" fill="white"/>
<path d="M57.331 10.2909C64.8344 10.5482 70.2456 10.7411 73.2935 19.72C73.3317 19.8159 73.3951 19.8998 73.4768 19.9631C73.5585 20.0264 73.6558 20.0669 73.7585 20.0802C73.8633 20.0911 73.9689 20.0699 74.0612 20.0193C74.1535 19.9687 74.2281 19.8912 74.275 19.7972C76.548 15.565 78.666 12.7607 81.6106 12.8636C82.3649 12.9043 83.0988 13.1225 83.7521 13.5004C84.4054 13.8783 84.9595 14.4051 85.3688 15.0376C85.8557 15.7018 86.4757 16.2581 87.1896 16.6713C85.2008 18.215 85.485 20.4275 85.782 22.7687C86.2211 26.2033 86.7635 30.487 81.2877 35.3495C79.7896 36.6358 77.4133 37.2404 74.8304 37.9222C69.6645 39.2986 63.84 40.8552 63.8788 48.4062C62.4752 48.9487 60.9388 49.0519 59.4748 48.702C60.2978 48.1481 60.9504 47.3778 61.3603 46.4766C61.3881 46.3388 61.3623 46.1956 61.288 46.0762C61.2136 45.9567 61.0963 45.8699 60.96 45.8334C60.8196 45.8028 60.6727 45.8289 60.5516 45.9061C60.4305 45.9833 60.3452 46.1052 60.3143 46.2451C59.7639 47.0966 59.0319 47.8168 58.1704 48.3547C57.1846 48.0073 56.2471 47.5361 55.3808 46.9526C54.3524 46.2756 53.441 45.4371 52.6817 44.4699C54.549 44.4036 56.3514 43.7708 57.8476 42.6561C57.9041 42.6143 57.9517 42.5617 57.9876 42.5013C58.0234 42.441 58.0468 42.3741 58.0565 42.3046C58.0661 42.2352 58.0618 42.1645 58.0437 42.0967C58.0255 42.0289 57.9939 41.9655 57.9508 41.91C57.9089 41.8537 57.8561 41.8063 57.7955 41.7705C57.735 41.7348 57.6678 41.7114 57.598 41.7019C57.5283 41.6923 57.4573 41.6966 57.3893 41.7147C57.3212 41.7328 57.2575 41.7642 57.2018 41.8071C56.2426 42.5194 55.1347 43.0074 53.9602 43.2349C53.284 43.3648 52.595 43.4166 51.9069 43.3893C51.1937 42.1712 50.8193 40.7859 50.8221 39.3758L51.8164 39.2986C57.1889 38.8999 61.8252 38.5525 65.3768 34.4233C65.433 34.3348 65.463 34.2322 65.463 34.1274C65.463 34.0227 65.433 33.9201 65.3768 33.8316C65.3326 33.7373 65.2609 33.6586 65.171 33.6058C65.0811 33.553 64.9774 33.5285 64.8732 33.5357C62.425 33.7057 59.9672 33.3883 57.6434 32.6021C55.3196 31.8158 53.1762 30.5764 51.3385 28.9562C52.9034 28.7649 54.4286 28.3309 55.8587 27.6698C55.9216 27.6396 55.9779 27.5973 56.0244 27.5453C56.0708 27.4933 56.1064 27.4327 56.1292 27.3669C56.152 27.3012 56.1616 27.2316 56.1572 27.1621C56.1529 27.0927 56.1349 27.0248 56.1041 26.9623C56.075 26.8985 56.0333 26.8412 55.9816 26.7936C55.93 26.746 55.8693 26.7092 55.8032 26.6852C55.737 26.6612 55.6668 26.6507 55.5965 26.6541C55.5262 26.6575 55.4572 26.6748 55.3938 26.705C53.7804 27.4754 52.017 27.8838 50.2279 27.9014C49.7277 27.3893 49.2536 26.8526 48.8073 26.2934C48.0653 25.3583 47.388 24.3741 46.7798 23.3476C47.3136 23.399 47.8172 23.4248 48.2907 23.4248C49.5561 23.4519 50.8161 23.2514 52.0101 22.833C52.076 22.8076 52.1361 22.7692 52.1868 22.7203C52.2376 22.6714 52.278 22.6128 52.3057 22.5481C52.3334 22.4833 52.3477 22.4137 52.348 22.3434C52.3482 22.273 52.3343 22.2033 52.3071 22.1384C52.2527 22.0082 52.1493 21.9043 52.0189 21.849C51.8886 21.7937 51.7419 21.7914 51.6098 21.8425C49.8376 22.4134 47.9483 22.5241 46.1211 22.1641C45.0824 20.2288 44.218 18.2056 43.5382 16.1182C45.5072 16.7276 47.5478 17.0779 49.608 17.1601C49.6786 17.1618 49.7489 17.1495 49.8147 17.1237C49.8804 17.098 49.9402 17.0594 49.9908 17.0103C50.0413 16.9611 50.0814 16.9024 50.1089 16.8376C50.1363 16.7727 50.1505 16.7031 50.1505 16.6327C50.1505 16.4894 50.0933 16.352 49.9916 16.2507C49.8898 16.1494 49.7519 16.0924 49.608 16.0924C47.4102 15.9851 45.2376 15.5782 43.1507 14.8832C42.4412 12.4579 41.9018 9.9864 41.5363 7.48659C47.1542 9.96929 52.4364 10.1494 57.1244 10.3166L57.331 10.2909ZM42.2209 15.5393C43.3892 19.6692 45.3255 23.544 47.9292 26.9623C49.759 29.3725 52.1273 31.3248 54.8465 32.6646C57.5658 34.0043 60.5609 34.6946 63.5945 34.6806C60.4434 37.6264 56.3365 37.9351 51.6485 38.2824L50.1763 38.3982C50.0501 38.4097 49.9318 38.4649 49.8421 38.5542C49.7525 38.6435 49.6971 38.7612 49.6856 38.887C49.6254 40.69 50.0511 42.4762 50.9187 44.0598C51.7863 45.6433 53.064 46.9665 54.6189 47.8916C56.5198 49.2066 58.7629 49.9439 61.0762 50.0141C62.2371 50.0291 63.3859 49.7782 64.434 49.2809C64.5286 49.237 64.6077 49.1655 64.6607 49.076C64.7137 48.9864 64.7382 48.8829 64.731 48.7792C64.5373 41.7685 69.7936 40.3663 74.8949 39.0156C77.3407 38.5632 79.6665 37.6129 81.7268 36.2242C82.3487 35.6652 82.9394 35.0725 83.4961 34.449C87.4996 29.8824 86.9701 25.7917 86.5698 22.6915C86.2211 19.9773 86.0016 18.1764 88.5845 16.9929C88.6962 16.9406 88.7865 16.8518 88.8407 16.7414C88.8949 16.631 88.9097 16.5054 88.8826 16.3855C88.8556 16.2656 88.7882 16.1584 88.6917 16.0817C88.5953 16.0051 88.4754 15.9635 88.352 15.9638C87.2542 15.9638 86.6602 15.2949 85.924 14.4073C85.4207 13.6545 84.7474 13.0297 83.958 12.583C83.1685 12.1362 82.2849 11.8798 81.378 11.8345C78.1494 11.7188 75.9022 14.2915 73.6292 18.2664C70.2456 9.68629 64.1371 9.48047 57.0986 9.26179C52.2685 9.09456 46.7668 8.9016 41.0327 6.12303C40.9487 6.07319 40.8528 6.04688 40.755 6.04688C40.6573 6.04688 40.5614 6.07319 40.4774 6.12303C40.3993 6.17961 40.3377 6.25595 40.2991 6.34415C40.2605 6.43235 40.2462 6.5292 40.2578 6.62472C40.6329 9.42417 41.2112 12.1928 41.9883 14.909C41.9883 15.0505 42.0659 15.192 42.1176 15.3335C42.1057 15.3886 42.1057 15.4456 42.1176 15.5007" fill="#DEA81E"/>
<path d="M81.9066 17.7252C82.0609 17.7277 82.2124 17.6843 82.3418 17.6005C82.4712 17.5167 82.5726 17.3963 82.6329 17.2547C82.6931 17.1132 82.7095 16.9569 82.68 16.806C82.6505 16.6551 82.5765 16.5164 82.4673 16.4077C82.3582 16.299 82.2189 16.2252 82.0674 16.1959C81.9159 16.1665 81.7591 16.1829 81.617 16.2429C81.4748 16.3029 81.354 16.4038 81.2698 16.5327C81.1857 16.6615 81.1421 16.8125 81.1446 16.9662C81.1446 17.1675 81.2248 17.3606 81.3677 17.5029C81.5106 17.6452 81.7045 17.7252 81.9066 17.7252Z" fill="#DEA81E"/>
<path d="M55.354 42.8613L54.0625 43.2215C54.5023 43.1374 54.9343 43.0169 55.354 42.8613Z" fill="white"/>
<path d="M36.7031 70.9439L37.8267 64.9622L42.6956 69.799L36.7031 70.9439ZM44.7102 45.3836C45.8213 48.9351 46.0408 52.7038 45.3496 56.3594C44.6584 60.015 43.0775 63.446 40.7454 66.3515L38.395 63.9975C38.2737 63.8818 38.1234 63.8005 37.9599 63.7621C37.7964 63.7236 37.6256 63.7294 37.4651 63.7788C37.3033 63.8251 37.158 63.9162 37.046 64.0414C36.934 64.1666 36.8599 64.3208 36.8323 64.4863L35.5408 70.9181C35.5112 71.0659 35.5195 71.2188 35.5646 71.3626C35.6097 71.5064 35.6904 71.6367 35.7992 71.7414C35.9701 71.913 36.2023 72.0102 36.4449 72.0116H36.6128L43.0701 70.7252C43.2368 70.6992 43.3924 70.6259 43.5183 70.5141C43.6443 70.4023 43.7353 70.2568 43.7804 70.0949C43.8299 69.935 43.8357 69.7649 43.7971 69.602C43.7585 69.4392 43.677 69.2896 43.5609 69.1687L41.417 67.0462C43.7151 64.2099 45.3319 60.8879 46.1438 57.334C46.9748 53.6645 46.916 49.8505 45.9726 46.208C45.0293 42.5656 43.2285 39.1993 40.7191 36.388C38.2097 33.5767 35.064 31.4013 31.5426 30.0419C28.0212 28.6825 24.2255 28.1782 20.4695 28.5707C18.8862 28.7311 17.3236 29.0545 15.8072 29.5355C15.7402 29.5566 15.6781 29.5906 15.6243 29.6357C15.5705 29.6807 15.5261 29.7359 15.4937 29.798C15.4614 29.8601 15.4416 29.928 15.4356 29.9977C15.4295 30.0674 15.4374 30.1377 15.4586 30.2044C15.4798 30.2711 15.5139 30.333 15.5592 30.3866C15.6044 30.4402 15.6597 30.4843 15.722 30.5166C15.7844 30.5489 15.8525 30.5685 15.9226 30.5746C15.9926 30.5806 16.063 30.5728 16.13 30.5517C17.2579 30.2008 18.4106 29.9342 19.5783 29.7542C24.9265 28.964 30.3825 30.0964 34.9687 32.9486C39.5549 35.8007 42.9716 40.1861 44.6069 45.3193" fill="#DEA81E"/>
<path d="M37.8279 64.9609L36.6914 70.9426L42.6967 69.7977L37.8279 64.9609Z" fill="white"/>
<path d="M10.3307 33.3941L9.19418 39.3758L4.32549 34.539L10.3307 33.3941ZM30.3355 75.1241C30.472 75.0825 30.5867 74.9889 30.6544 74.8637C30.7221 74.7384 30.7374 74.5917 30.6971 74.4552C30.6794 74.3874 30.648 74.3239 30.6047 74.2686C30.5615 74.2133 30.5075 74.1674 30.4458 74.1337C30.3842 74.0999 30.3161 74.0791 30.2461 74.0725C30.1761 74.0658 30.1054 74.0735 30.0385 74.095C25.3811 75.4245 20.419 75.2351 15.8774 73.5547C11.3358 71.8742 7.45293 68.7907 4.79654 64.755C2.14016 60.7193 0.849603 55.9431 1.11337 51.1245C1.37714 46.3059 3.18153 41.6977 6.26269 37.9736L8.63894 40.3406C8.81282 40.5077 9.04313 40.604 9.28467 40.6107C9.37898 40.6229 9.47445 40.6229 9.56876 40.6107C9.72842 40.5604 9.87152 40.4682 9.9829 40.3437C10.0943 40.2191 10.1698 40.067 10.2016 39.9032L11.493 33.4713C11.5208 33.3234 11.512 33.1709 11.4673 33.0272C11.4226 32.8834 11.3434 32.7527 11.2365 32.6463C11.1297 32.5399 10.9984 32.461 10.8541 32.4165C10.7097 32.3719 10.5568 32.3631 10.4082 32.3908L3.95091 33.6771C3.78498 33.7098 3.63119 33.787 3.50602 33.9004C3.38086 34.0137 3.28901 34.1589 3.24054 34.3203C3.18931 34.4789 3.18398 34.6487 3.22509 34.8102C3.2662 34.9718 3.35216 35.1185 3.47307 35.2337L5.60402 37.3562C2.81904 40.6939 1.00833 44.7298 0.369898 49.023C-0.268538 53.3162 0.289753 57.7016 1.98376 61.7002C3.67776 65.6988 6.44243 69.1569 9.97565 71.6966C13.5089 74.2364 17.6748 75.7603 22.0185 76.1018C22.6384 76.1018 23.3099 76.1789 23.8911 76.1789C26.1056 76.1779 28.3093 75.8705 30.4389 75.2656" fill="#DEA81E"/>
<path d="M9.19695 39.3879L10.3334 33.4062L4.32812 34.5383L9.19695 39.3879Z" fill="white"/>
<path d="M13.9862 51.7372C14.0536 49.7872 14.4284 47.8598 15.0969 46.0257C13.5374 45.6188 12.0059 45.1118 10.5121 44.5078C9.18251 46.6934 8.43989 49.183 8.35547 51.7372H13.9862Z" fill="white"/>
<path d="M20.7406 67.0464C18.7256 65.0029 17.0553 62.6485 15.7944 60.0742C14.3439 60.4554 12.9166 60.9193 11.5195 61.4635C13.7953 64.3952 17.0801 66.3839 20.7406 67.0464Z" fill="white"/>
<path d="M11.1172 43.5956C12.5371 44.1601 13.9906 44.637 15.4694 45.0235C16.6522 42.2684 18.3134 39.7428 20.3769 37.5625C16.633 38.329 13.3224 40.486 11.1172 43.5956Z" fill="white"/>
<path d="M15.3551 59.0822C14.5196 57.0899 14.0558 54.9627 13.9862 52.8047H8.35547C8.46307 55.5578 9.32985 58.2282 10.8608 60.5229C12.3265 59.9334 13.8275 59.435 15.3551 59.0307" fill="white"/>
<path d="M22.8816 59.082C20.8558 59.1238 18.8394 59.3695 16.8633 59.8153C18.2577 62.565 20.124 65.0508 22.3779 67.1605V67.2505H22.8169L22.8816 59.082Z" fill="white"/>
<path d="M23.9531 51.7379H31.7019C31.5943 49.8842 31.2023 48.0578 30.5396 46.3223C28.382 46.814 26.179 47.0813 23.9661 47.1198L23.9531 51.7379Z" fill="white"/>
<path d="M31.1477 60.1113C29.9408 62.6684 28.3027 65.0005 26.3047 67.0063C29.893 66.3104 33.1056 64.3402 35.345 61.462C33.9809 60.9524 32.5881 60.5228 31.1735 60.1757" fill="white"/>
<path d="M24.6118 67.1605C26.8758 65.0789 28.7324 62.5971 30.0876 59.841C28.0738 59.3819 26.0185 59.1276 23.9531 59.082V67.2634H24.5471V67.1862" fill="white"/>
<path d="M23.9531 46.0649C26.0308 46.0237 28.0991 45.7738 30.1264 45.3188C28.8229 42.3316 26.9701 39.6135 24.6635 37.3047H23.9531V46.0649Z" fill="white"/>
<path d="M32.7767 51.7372H38.4721C38.3877 49.183 37.6449 46.6934 36.3153 44.5078C34.7805 45.1305 33.2058 45.6504 31.6016 46.0643C32.2649 47.8892 32.6606 49.7998 32.7767 51.7372Z" fill="white"/>
<path d="M31.7019 52.8047H23.9531V58.0145C26.1641 58.0543 28.3639 58.3347 30.5137 58.8506C31.2919 56.9284 31.6995 54.8773 31.7148 52.8047" fill="white"/>
<path d="M22.881 51.7371V47.1319C20.6155 47.0926 18.3602 46.8167 16.1524 46.3086C15.5029 48.054 15.1326 49.8901 15.0547 51.75L22.881 51.7371Z" fill="white"/>
<path d="M22.8829 46.0644V37.2656H22.1596C19.7748 39.5291 17.869 42.2453 16.5547 45.254C18.6322 45.7253 20.7526 45.9839 22.8829 46.0258" fill="white"/>
<path d="M32.7881 52.8047C32.7763 54.9623 32.3648 57.0991 31.5742 59.1079C33.0658 59.5096 34.5321 59.9993 35.9652 60.5744C37.4962 58.2797 38.363 55.6093 38.4706 52.8561L32.7881 52.8047Z" fill="white"/>
<path d="M22.881 52.8047H15.0547C15.1136 54.873 15.5513 56.9132 16.3462 58.8249C18.4644 58.3317 20.6286 58.0601 22.8035 58.0145L22.881 52.8047Z" fill="white"/>
<path d="M26.3828 37.5488C28.3965 39.769 30.0245 42.3079 31.2 45.0612C32.7343 44.6757 34.2402 44.1858 35.7072 43.5948C33.4833 40.4725 30.1493 38.3107 26.3828 37.5488Z" fill="white"/>
<path d="M15.7929 60.0733C17.0539 62.6475 18.7241 65.0019 20.7391 67.0454C17.0761 66.3802 13.7882 64.3923 11.5051 61.4626C12.9093 60.9259 14.3405 60.4622 15.7929 60.0733ZM15.47 45.0227C13.9912 44.6362 12.5377 44.1594 11.1178 43.5948C13.323 40.4853 16.6336 38.3282 20.3775 37.5617C18.314 39.742 16.6528 42.2677 15.47 45.0227ZM31.2 45.0227C30.0245 42.2694 28.3965 39.7304 26.3828 37.5103C30.1494 38.2722 33.4833 40.434 35.7072 43.5562C34.2402 44.1472 32.7343 44.6372 31.2 45.0227ZM26.3053 66.9683C28.3033 64.9625 29.9414 62.6304 31.1483 60.0733C32.5628 60.4205 33.9558 60.85 35.3198 61.3597C33.0805 64.2378 29.8679 66.208 26.2796 66.9039L26.3053 66.9683ZM23.929 58.9799C25.9944 59.0255 28.0497 59.2798 30.0635 59.7388C28.7083 62.4949 26.8517 64.9768 24.5877 67.0583V67.1355H23.9937L23.929 58.9799ZM15.0308 52.7024H22.8442V57.9122C20.6693 57.9569 18.505 58.2285 16.3869 58.7226C15.592 56.8109 15.1544 54.7707 15.0954 52.7024H15.0308ZM22.9087 47.0166V51.6347H15.0954C15.167 49.7741 15.5376 47.937 16.1932 46.1933C18.3967 46.7006 20.6475 46.9765 22.9087 47.0166ZM31.7295 51.6347H23.9807V47.1324C26.1937 47.0938 28.3967 46.8266 30.5543 46.3348C31.2108 48.0721 31.6026 49.8976 31.7166 51.7504L31.7295 51.6347ZM23.9678 52.8181H31.7166C31.7012 54.8907 31.2937 56.9419 30.5155 58.8641C28.3657 58.3481 26.1658 58.0678 23.9549 58.028L23.9678 52.8181ZM35.9785 60.5364C34.5453 59.9613 33.0791 59.4716 31.5875 59.0699C32.3781 57.0611 32.7895 54.9243 32.8014 52.7667H38.4839C38.3763 55.5198 37.5095 58.1902 35.9785 60.4849V60.5364ZM38.4839 51.6475H32.7885C32.6745 49.7087 32.2742 47.7972 31.6004 45.9746C33.2095 45.5628 34.7886 45.0427 36.3271 44.4181C37.6567 46.6037 38.3995 49.0933 38.4839 51.6475ZM24.6782 37.2144C26.9848 39.5232 28.8375 42.2413 30.1411 45.2285C28.1138 45.6835 26.0455 45.9335 23.9678 45.9746V37.1758H24.6782V37.2144ZM22.1727 37.1758H22.883V45.9746C20.7571 45.9319 18.641 45.6733 16.5677 45.2028C17.8821 42.1941 19.7878 39.4779 22.1727 37.2144V37.1758ZM10.5495 44.4181C12.0432 45.0221 13.5747 45.5291 15.1342 45.936C14.4658 47.7701 14.091 49.6975 14.0236 51.6475H8.39265C8.47708 49.0933 9.21986 46.6037 10.5495 44.4181ZM8.39265 52.7152H14.0236C14.0931 54.8732 14.5569 57.0005 15.3925 58.9927C13.8648 59.397 12.3638 59.8954 10.8982 60.4849C9.36719 58.1902 8.50026 55.5198 8.39265 52.7667V52.7152ZM22.4826 67.2127V67.1226C20.2261 65.0123 18.3557 62.5268 16.9551 59.7774C18.9315 59.3331 20.9477 59.0875 22.9734 59.0442V67.2255H22.5472L22.4826 67.2127ZM36.6629 61.5655C36.7001 61.528 36.7308 61.4845 36.7534 61.4368C38.4448 59.0268 39.4402 56.2008 39.6316 53.2665C39.8229 50.3321 39.2028 47.4016 37.8386 44.7939C36.4744 42.1861 34.4184 40.0009 31.8943 38.4759C29.3701 36.9509 26.4745 36.1445 23.5223 36.1445C20.5701 36.1445 17.6743 36.9509 15.1501 38.4759C12.626 40.0009 10.57 42.1861 9.20581 44.7939C7.84162 47.4016 7.2215 50.3321 7.41286 53.2665C7.60422 56.2008 8.59981 59.0268 10.2912 61.4368L10.3686 61.5526C11.8424 63.6038 13.7744 65.286 16.0123 66.4666C19.4705 68.2764 23.4703 68.7758 27.2699 67.8722C31.0696 66.9686 34.4114 64.7233 36.6758 61.5526" fill="#DEA81E"/>
</svg>
