<svg width="108" height="110" viewBox="0 0 108 110" fill="none" xmlns="http://www.w3.org/2000/svg">
<circle cx="54" cy="56" r="41" fill="#EFC73F"/>
<path d="M86.4609 80.6788L94.268 88.5044C94.5415 88.7815 94.8694 89.0019 95.2319 89.1525C95.5945 89.303 95.9844 89.3806 96.3783 89.3806C96.7722 89.3806 97.1621 89.303 97.5246 89.1525C97.8872 89.0019 98.215 88.7815 98.4886 88.5044C99.0483 87.9368 99.361 87.1791 99.361 86.3906C99.361 85.6022 99.0483 84.8445 98.4886 84.2768L90.6766 76.4512" fill="white"/>
<path d="M86.4609 80.6788L94.268 88.5044C94.5415 88.7815 94.8694 89.0019 95.2319 89.1525C95.5945 89.303 95.9844 89.3806 96.3783 89.3806C96.7722 89.3806 97.1621 89.303 97.5246 89.1525C97.8872 89.0019 98.215 88.7815 98.4886 88.5044C99.0483 87.9368 99.361 87.1791 99.361 86.3906C99.361 85.6022 99.0483 84.8445 98.4886 84.2768L90.6766 76.4512" stroke="#E0AD2C" stroke-width="2" stroke-linecap="round" stroke-linejoin="round"/>
<path d="M93.2684 67.9703C93.2684 76.44 86.4125 83.3117 77.9565 83.3117C69.5005 83.3117 62.6445 76.4497 62.6445 67.9703C62.6445 59.4909 69.4955 52.6289 77.9565 52.6289C86.4174 52.6289 93.2684 59.5006 93.2684 67.9703Z" fill="white" stroke="#E0AD2C" stroke-width="2" stroke-linecap="round" stroke-linejoin="round"/>
<path d="M81.4148 63.9185C81.3992 64.5854 81.1826 65.233 80.7922 65.7802C80.4019 66.3274 79.855 66.7498 79.2202 66.9945C78.5853 67.2392 77.8907 67.2954 77.2234 67.156C76.556 67.0166 75.9456 66.6877 75.4686 66.2107C74.9915 65.7337 74.669 65.1297 74.5415 64.4743C74.414 63.819 74.4872 63.1414 74.7518 62.5265C75.0164 61.9116 75.4608 61.3867 76.0292 61.0175C76.5976 60.6484 77.2648 60.4513 77.9472 60.4512C78.4079 60.4556 78.8633 60.5489 79.2871 60.7256C79.711 60.9024 80.095 61.1592 80.4171 61.4813C80.7392 61.8034 80.9932 62.1845 81.1644 62.6027C81.3356 63.0209 81.4207 63.4681 81.4148 63.9185Z" fill="#4550E5" stroke="#E0AD2C" stroke-width="2" stroke-miterlimit="10"/>
<path d="M81.9898 69.7305H73.9152C71.9125 69.7305 70.2891 71.3175 70.2891 73.2753V78.5198C70.2891 80.4775 71.9125 82.0646 73.9152 82.0646H81.9898C83.9924 82.0646 85.6159 80.4775 85.6159 78.5198V73.2753C85.6159 71.3175 83.9924 69.7305 81.9898 69.7305Z" stroke="#E0AD2C" stroke-width="2" stroke-miterlimit="10"/>
<path d="M74 80V75" stroke="#E0AD2C" stroke-width="2" stroke-linecap="round" stroke-linejoin="round"/>
<path d="M82 75V80" stroke="#E0AD2C" stroke-width="2" stroke-linecap="round" stroke-linejoin="round"/>
<path d="M66.1328 67.9894C66.1328 61.4373 71.4333 56.125 77.9772 56.125" stroke="#E0AD2C" stroke-width="2" stroke-linecap="round" stroke-linejoin="round"/>
<path d="M20 56.5L12.5 48.5L12 48L18 44.5L27 56.5H20Z" fill="white" stroke="white"/>
<path d="M49 56.5L56.5 48.5L57 48L51 44.5L42 56.5H49Z" fill="white" stroke="white"/>
<g clip-path="url(#clip0_4481_20228)">
<path d="M13.241 39.1556C13.241 39.1556 12.5705 34.2136 12.081 30.8652C11.5781 27.3419 9.39896 26.4141 6.87109 26.4141L7.4276 45.0524L19.3629 57.0543" fill="white"/>
<path d="M13.241 39.1556C13.241 39.1556 12.5705 34.2136 12.081 30.8652C11.5781 27.3419 9.39896 26.4141 6.87109 26.4141L7.4276 45.0524L19.3629 57.0543" stroke="#E0AD2C" stroke-width="2" stroke-linecap="round" stroke-linejoin="round"/>
<path d="M28.577 58.0162C29.1738 52.6977 28.4362 49.6989 26.1162 47.3725C24.1717 45.4226 22.9044 44.6157 20.1352 44.0711L16.5814 40.5008C16.0048 39.9293 13.8658 38.2886 11.0898 41.079L18.5728 48.5895" fill="white"/>
<path d="M28.577 58.0162C29.1738 52.6977 28.4362 49.6989 26.1162 47.3725C24.1717 45.4226 22.9044 44.6157 20.1352 44.0711L16.5814 40.5008C16.0048 39.9293 13.8658 38.2886 11.0898 41.079L18.5728 48.5895" stroke="#E0AD2C" stroke-width="2" stroke-linecap="round" stroke-linejoin="round"/>
<path d="M17.7813 15.297L18.4519 24.3069C18.539 25.692 20.2958 26.3241 21.4558 26.4854H21.61L22.4951 38.4806C22.5115 38.7092 22.6117 38.9236 22.7764 39.0825C22.941 39.2414 23.1585 39.3336 23.3869 39.3413H26.8602C27.0898 39.3352 27.3088 39.2437 27.4749 39.0847C27.641 38.9256 27.7421 38.7103 27.7587 38.4806L28.6438 26.4854H28.798C29.958 26.3106 31.6745 25.692 31.7751 24.3136L32.4456 15.4584C32.4456 15.3844 32.4456 15.3307 32.4456 15.3038C32.3898 14.4387 32.0162 13.6252 31.3969 13.0203C30.7777 12.4155 29.9568 12.0624 29.093 12.0293H20.8791C20.0413 12.0658 19.2504 12.4268 18.6726 13.0363C18.0948 13.6457 17.7753 14.4562 17.7813 15.297Z" fill="white" stroke="white" stroke-width="2" stroke-linecap="round" stroke-linejoin="round"/>
<path d="M37.7188 15.297L38.3894 24.3069C38.4765 25.692 40.2333 26.3241 41.3933 26.4854H41.5475L42.4326 38.4806C42.449 38.7092 42.5492 38.9236 42.7139 39.0825C42.8785 39.2414 43.096 39.3336 43.3244 39.3413H46.7977C47.0273 39.3352 47.2463 39.2437 47.4124 39.0847C47.5785 38.9256 47.6796 38.7103 47.6962 38.4806L48.5813 26.4854H48.7355C49.8955 26.3106 51.612 25.692 51.7126 24.3136L52.3831 15.4584C52.3831 15.3844 52.3831 15.3307 52.3831 15.3038C52.3273 14.4387 51.9537 13.6252 51.3344 13.0203C50.7152 12.4155 49.8943 12.0624 49.0305 12.0293H40.8166C39.9788 12.0658 39.1879 12.4268 38.6101 13.0363C38.0323 13.6457 37.7128 14.4562 37.7188 15.297Z" fill="white" stroke="white" stroke-width="2" stroke-linecap="round" stroke-linejoin="round"/>
<path d="M31.3914 63.1317V57.5039H15.4531V63.1317" fill="white"/>
<path d="M31.3914 63.1317V57.5039H15.4531V63.1317" stroke="#E0AD2C" stroke-width="2" stroke-linecap="round" stroke-linejoin="round"/>
<path d="M27.852 61.3313C27.852 61.5374 27.7911 61.7389 27.6769 61.9103C27.5627 62.0817 27.4004 62.2152 27.2104 62.2941C27.0205 62.373 26.8116 62.3936 26.61 62.3534C26.4083 62.3132 26.2232 62.2139 26.0778 62.0682C25.9325 61.9224 25.8335 61.7368 25.7934 61.5346C25.7533 61.3324 25.7739 61.1229 25.8525 60.9324C25.9312 60.742 26.0644 60.5792 26.2353 60.4647C26.4062 60.3502 26.6072 60.2891 26.8127 60.2891C26.9495 60.2882 27.085 60.3145 27.2115 60.3666C27.338 60.4187 27.4529 60.4954 27.5496 60.5924C27.6463 60.6893 27.7228 60.8045 27.7747 60.9314C27.8266 61.0582 27.8529 61.1942 27.852 61.3313Z" fill="#E0AD2C"/>
<path d="M56.7569 39.1556C56.7569 39.1556 57.4274 34.2136 57.9236 30.8652C58.4198 27.3419 60.6057 26.4141 63.1335 26.4141L62.577 45.0524L50.6484 57.0543" fill="white"/>
<path d="M56.7569 39.1556C56.7569 39.1556 57.4274 34.2136 57.9236 30.8652C58.4198 27.3419 60.6057 26.4141 63.1335 26.4141L62.577 45.0524L50.6484 57.0543" stroke="#E0AD2C" stroke-width="2" stroke-linecap="round" stroke-linejoin="round"/>
<path d="M41.4232 58.0162C40.8265 52.6977 41.5707 49.6989 43.8907 47.3725C45.8352 45.4226 47.0958 44.6157 49.8718 44.0711L53.4255 40.5008C53.9955 39.9293 56.1076 38.2886 58.9171 41.079L51.4274 48.5895" fill="white"/>
<path d="M41.4232 58.0162C40.8265 52.6977 41.5707 49.6989 43.8907 47.3725C45.8352 45.4226 47.0958 44.6157 49.8718 44.0711L53.4255 40.5008C53.9955 39.9293 56.1076 38.2886 58.9171 41.079L51.4274 48.5895" stroke="#E0AD2C" stroke-width="2" stroke-linecap="round" stroke-linejoin="round"/>
<path d="M38.6055 63.1317V57.5039H54.5437V63.1317" fill="white"/>
<path d="M38.6055 63.1317V57.5039H54.5437V63.1317" stroke="#E0AD2C" stroke-width="2" stroke-linecap="round" stroke-linejoin="round"/>
<path d="M42.1797 61.3313C42.1797 61.5377 42.2409 61.7394 42.3554 61.911C42.4699 62.0825 42.6326 62.2161 42.8229 62.2948C43.0131 62.3734 43.2225 62.3937 43.4242 62.3529C43.626 62.3122 43.8112 62.2122 43.9563 62.0658C44.1014 61.9194 44.1998 61.733 44.2392 61.5304C44.2785 61.3278 44.257 61.1181 44.1773 60.9278C44.0976 60.7375 43.9633 60.5752 43.7916 60.4614C43.6198 60.3477 43.4181 60.2878 43.2123 60.2891C43.0761 60.2891 42.9413 60.3161 42.8156 60.3685C42.6899 60.421 42.5757 60.4979 42.4798 60.5947C42.3838 60.6916 42.3079 60.8065 42.2564 60.9329C42.2049 61.0593 42.1788 61.1947 42.1797 61.3313Z" fill="#E0AD2C"/>
<path d="M25.1715 9.03376C25.7802 9.03376 26.3752 8.85275 26.8813 8.51364C27.3874 8.17452 27.7819 7.69251 28.0149 7.12858C28.2478 6.56465 28.3088 5.94412 28.19 5.34545C28.0713 4.74678 27.7781 4.19687 27.3477 3.76525C26.9173 3.33364 26.3689 3.03972 25.7719 2.92064C25.1749 2.80155 24.556 2.86265 23.9937 3.09624C23.4313 3.32983 22.9506 3.7254 22.6124 4.23293C22.2743 4.74046 22.0938 5.33713 22.0938 5.94753C22.0938 6.76604 22.418 7.55102 22.9952 8.1298C23.5724 8.70858 24.3552 9.03376 25.1715 9.03376Z" fill="#4550E5" stroke="#E0AD2C" stroke-width="2" stroke-linecap="round" stroke-linejoin="round"/>
<path d="M17.6524 15.475L18.3229 24.4849C18.41 25.87 20.1601 26.502 21.3268 26.6634H21.4743L22.3594 38.6654C22.3776 38.8938 22.4794 39.1075 22.6453 39.2651C22.8112 39.4228 23.0294 39.5133 23.2579 39.5192H26.7312C26.959 39.5132 27.1764 39.4224 27.3412 39.2646C27.506 39.1068 27.6064 38.8933 27.623 38.6654L28.5215 26.6768H28.6757C29.8357 26.502 31.559 25.8834 31.6595 24.4983L32.3301 15.6498C32.3336 15.5983 32.3336 15.5467 32.3301 15.4952C32.2757 14.6296 31.9026 13.8152 31.283 13.2101C30.6635 12.605 29.8417 12.2523 28.9775 12.2207H20.7502C19.9147 12.2572 19.1257 12.6162 18.5483 13.2228C17.9709 13.8294 17.6498 14.6364 17.6524 15.475V15.475Z" stroke="#E0AD2C" stroke-width="2" stroke-linecap="round" stroke-linejoin="round"/>
<path d="M45.6363 9.03376C46.245 9.03376 46.84 8.85275 47.3462 8.51364C47.8523 8.17452 48.2468 7.69251 48.4797 7.12858C48.7127 6.56465 48.7736 5.94412 48.6548 5.34545C48.5361 4.74678 48.243 4.19687 47.8125 3.76525C47.3821 3.33364 46.8337 3.03972 46.2367 2.92064C45.6397 2.80155 45.0209 2.86265 44.4585 3.09624C43.8961 3.32983 43.4155 3.7254 43.0773 4.23293C42.7391 4.74046 42.5586 5.33713 42.5586 5.94753C42.5586 6.76604 42.8828 7.55102 43.46 8.1298C44.0372 8.70858 44.82 9.03376 45.6363 9.03376Z" fill="#4550E5" stroke="#E0AD2C" stroke-width="2" stroke-linecap="round" stroke-linejoin="round"/>
<path d="M38.1095 15.9112L38.78 24.9144C38.8739 26.3062 40.6239 26.9315 41.7839 27.0929H41.9381L42.8232 39.0881C42.8397 39.3167 42.9399 39.531 43.1045 39.6899C43.2692 39.8488 43.4866 39.941 43.715 39.9487H47.195C47.4234 39.941 47.6409 39.8488 47.8055 39.6899C47.9702 39.531 48.0704 39.3167 48.0868 39.0881L48.9719 27.0929H49.1261C50.2861 26.9248 52.0026 26.3062 52.1099 24.9211L52.7804 16.0658V15.9112C52.7247 15.0462 52.351 14.2326 51.7318 13.6278C51.1125 13.0229 50.2917 12.6699 49.4278 12.6367H41.2073C40.3689 12.6749 39.5779 13.0374 39.0003 13.6479C38.4227 14.2585 38.1034 15.0696 38.1095 15.9112Z" stroke="#E0AD2C" stroke-width="2" stroke-linecap="round" stroke-linejoin="round"/>
<path d="M35.403 14.9771C36.0123 14.9784 36.6083 14.7984 37.1154 14.4598C37.6226 14.1212 38.0181 13.6393 38.2518 13.0751C38.4856 12.5108 38.5471 11.8898 38.4286 11.2905C38.3101 10.6912 38.0168 10.1407 37.586 9.70865C37.1552 9.27663 36.6062 8.98253 36.0085 8.86366C35.4109 8.74479 34.7915 8.80649 34.2288 9.04091C33.6662 9.27533 33.1856 9.67196 32.8479 10.1805C32.5103 10.6891 32.3307 11.2867 32.332 11.8977C32.3338 12.7138 32.6579 13.4961 33.2335 14.0732C33.809 14.6503 34.5891 14.9753 35.403 14.9771Z" fill="#4550E5" stroke="white" stroke-width="2" stroke-linecap="round" stroke-linejoin="round"/>
<path d="M27.8829 21.4181L28.5534 30.428C28.6406 31.8131 30.3974 32.4452 31.5574 32.6065H31.7116L32.5967 44.6017C32.6131 44.8303 32.7133 45.0447 32.878 45.2036C33.0426 45.3625 33.26 45.4547 33.4884 45.4624H36.9618C37.1913 45.4563 37.4104 45.3648 37.5765 45.2058C37.7425 45.0467 37.8437 44.8314 37.8602 44.6017L38.7453 32.6065H38.8995C40.0595 32.4317 41.7761 31.8131 41.8766 30.4347L42.5472 21.5795C42.5472 21.5055 42.5472 21.4518 42.5472 21.4249C42.4914 20.5598 42.1177 19.7463 41.4985 19.1414C40.8793 18.5366 40.0584 18.1835 39.1946 18.1504H30.9807C30.1429 18.1869 29.3519 18.5479 28.7742 19.1574C28.1964 19.7668 27.8769 20.5773 27.8829 21.4181Z" fill="#4550E5" stroke="white" stroke-width="2" stroke-linecap="round" stroke-linejoin="round"/>
<path d="M35.403 14.9771C36.0123 14.9784 36.6083 14.7984 37.1154 14.4598C37.6226 14.1212 38.0181 13.6393 38.2518 13.0751C38.4856 12.5108 38.5471 11.8898 38.4286 11.2905C38.3101 10.6912 38.0168 10.1407 37.586 9.70865C37.1552 9.27663 36.6062 8.98253 36.0085 8.86366C35.4109 8.74479 34.7915 8.80649 34.2288 9.04091C33.6662 9.27533 33.1856 9.67196 32.8479 10.1805C32.5103 10.6891 32.3307 11.2867 32.332 11.8977C32.3338 12.7138 32.6579 13.4961 33.2335 14.0732C33.809 14.6503 34.5891 14.9753 35.403 14.9771Z" stroke="#E0AD2C" stroke-width="2" stroke-linecap="round" stroke-linejoin="round"/>
<path d="M27.8868 21.4181L28.5573 30.428C28.6445 31.8131 30.4013 32.4452 31.5613 32.6065H31.7155L32.6006 44.6017C32.617 44.8303 32.7172 45.0447 32.8819 45.2036C33.0465 45.3625 33.2639 45.4547 33.4923 45.4624H36.9657C37.1952 45.4563 37.4143 45.3648 37.5804 45.2058C37.7464 45.0467 37.8476 44.8314 37.8641 44.6017L38.7492 32.6065H38.9034C40.0634 32.4317 41.78 31.8131 41.8806 30.4347L42.5511 21.5795C42.5511 21.5055 42.5511 21.4518 42.5511 21.4249C42.4953 20.5598 42.1217 19.7463 41.5024 19.1414C40.8832 18.5366 40.0623 18.1835 39.1985 18.1504H30.9846C30.1468 18.1869 29.3558 18.5479 28.7781 19.1574C28.2003 19.7668 27.8808 20.5773 27.8868 21.4181V21.4181Z" stroke="#E0AD2C" stroke-width="2" stroke-linecap="round" stroke-linejoin="round"/>
</g>
<defs>
<clipPath id="clip0_4481_20228">
<rect width="58" height="62" fill="white" transform="translate(6 2)"/>
</clipPath>
</defs>
</svg>
