<svg width="187" height="352" viewBox="0 0 187 352" fill="none" xmlns="http://www.w3.org/2000/svg">
<path d="M109.698 66.0201C106.921 61.1088 109.018 55.1427 109.913 49.6295C111.202 41.6902 109.578 33.0142 104.018 26.9762C98.9773 21.5025 91.1635 18.7549 83.5249 18.7657C75.8864 18.7764 68.4288 21.3282 61.8661 25.0552C57.0124 27.8118 52.2981 31.5964 50.8793 36.8113C49.9843 40.0945 50.5025 43.5771 51.373 46.8657C52.2805 50.3179 53.5532 53.6734 55.1715 56.8804C56.5131 59.5346 58.1278 62.2248 58.1203 65.1719C58.1203 70.0508 53.8187 73.7616 50.5307 77.4994C47.516 80.9335 45.0854 84.9768 44.343 89.4029C43.6007 93.8289 44.7199 98.6701 47.9588 101.917C49.8769 103.84 52.6278 105.456 52.9255 108.094C53.342 111.801 48.7502 114.024 44.9422 114.863C41.1257 115.713 37.2529 116.313 33.3506 116.66C26.0022 117.316 17.9247 117.287 12.2476 121.796C7.12822 125.864 5.38156 132.616 4.82195 138.948C3.70274 151.598 6.72498 165.449 16.6811 173.872C21.3445 177.825 27.1893 180.291 33.1528 182.019C40.2619 184.081 48.6955 184.94 54.4913 180.505C61.167 175.394 59.5787 161.675 69.7043 163.289C78.4225 164.68 88.3259 165.724 94.0859 157.494C98.1633 151.666 97.0893 143.939 99.1167 137.205C100.657 132.152 103.927 127.735 108.406 124.66C110.635 123.14 113.129 121.977 115.24 120.31C121.105 115.677 123.069 108.031 124.61 100.918C126.443 92.4596 127.772 82.549 121.659 76.175C118.034 72.3923 112.251 70.5378 109.698 66.0201Z" fill="#F5C668"/>
<path d="M90.1703 123.04C90.1251 122.174 90.0931 121.308 90.0365 120.442L89.8481 117.84C89.6013 114.37 89.1378 110.923 88.6667 107.478C88.4255 105.758 88.1448 104.042 87.8867 102.324C87.6285 100.606 87.3214 98.8955 87.0256 97.1811C85.7795 90.3405 84.4078 83.5238 82.9105 76.7311C82.1568 73.3383 81.3749 69.9497 80.5647 66.5653C79.7337 63.1869 78.9103 59.8067 78.0078 56.4463C78.7445 59.8427 79.4944 63.2372 80.2029 66.639C80.9114 70.0407 81.6519 73.4371 82.3396 76.8425C83.7264 83.6496 85.0962 90.4603 86.2776 97.3015C87.506 104.13 88.5989 110.991 89.2659 117.885L89.4977 120.471C89.5711 121.335 89.6201 122.201 89.6861 123.065L90.0629 128.259L90.4925 133.447C90.6451 135.176 90.7959 136.906 91.0182 138.628C90.7657 135.167 90.6018 131.702 90.4341 128.237L90.1703 123.04Z" fill="#43415A"/>
<path d="M93.2775 92.7493C93.0137 93.5616 92.7123 94.3325 92.3901 95.1519C92.0679 95.9714 91.8248 96.7836 91.5591 97.6085C91.0684 99.2649 90.6671 100.944 90.357 102.64C90.0593 104.335 89.8276 106.036 89.6806 107.745C89.4023 111.16 89.4143 114.591 89.7164 118.005C89.71 114.596 89.895 111.19 90.2703 107.801C90.6867 104.426 91.2991 101.071 92.2883 97.8151C92.537 97.0029 92.7914 96.1978 93.0891 95.3945C93.3868 94.5912 93.7147 93.7772 93.9634 92.9596C94.4759 91.3135 94.9319 89.662 95.3577 88.0016C96.2207 84.6843 96.9837 81.3526 97.6734 77.9922L94.7868 87.8578C94.2931 89.4895 93.8239 91.1356 93.2775 92.7493Z" fill="#43415A"/>
<path d="M83.8718 93.9261C82.3386 91.6 80.6835 89.3491 78.9126 87.1819C77.154 85.0147 75.3213 82.9026 73.4145 80.8456C71.5077 78.7886 69.5362 76.7945 67.5 74.8633L72.9642 81.2086C74.7693 83.3327 76.5687 85.4585 78.3134 87.6257C80.0582 89.7929 81.771 91.9763 83.3744 94.2334C84.1733 95.3619 84.9496 96.5084 85.6543 97.6926C86.3873 98.8652 86.9969 100.104 87.4744 101.391C87.1749 100.045 86.5945 98.7709 85.9822 97.5273C85.3452 96.2926 84.6408 95.0905 83.8718 93.9261Z" fill="#43415A"/>
<path d="M56.0742 179.673L45.193 162.18L34.1949 144.749L28.6704 136.05L25.8988 131.714L24.5271 129.534L23.845 128.441C23.6961 128.193 23.5398 127.951 23.3984 127.699C24.1107 129.099 24.9359 130.447 25.7254 131.809L28.3501 136.237L33.6918 145.042C37.2718 150.902 40.9196 156.723 44.5392 162.556C48.2133 168.36 51.863 174.177 55.5711 179.964L61.1483 188.633C63.0325 191.508 64.8941 194.396 66.8009 197.258C65.043 194.311 63.2436 191.386 61.4687 188.453L56.0742 179.673Z" fill="#43415A"/>
<path d="M128.021 182.102C127.787 180.438 127.518 178.781 127.212 177.13C126.926 175.475 126.577 173.831 126.253 172.183C125.929 170.535 125.552 168.898 125.185 167.259C124.443 163.982 123.655 160.717 122.822 157.462C121.989 154.207 121.098 150.964 120.148 147.734C120.819 151.027 121.518 154.31 122.246 157.586L124.443 167.412C125.186 170.685 125.915 173.959 126.63 177.234C126.811 178.054 126.985 178.874 127.152 179.694C127.32 180.516 127.508 181.333 127.651 182.158C127.795 182.983 127.99 183.801 128.102 184.629C128.162 185.042 128.235 185.456 128.29 185.871L128.392 187.129L128.405 185.871C128.386 185.45 128.339 185.033 128.307 184.613C128.249 183.766 128.122 182.938 128.021 182.102Z" fill="#43415A"/>
<path d="M126.07 193.151C124.879 196.565 123.775 200.025 122.867 203.529C122.656 204.409 122.426 205.286 122.232 206.171C122.038 207.055 121.834 207.939 121.7 208.837L121.476 210.178C121.414 210.629 121.369 211.076 121.314 211.531L121.005 214.212L120.85 215.549C120.803 215.995 120.749 216.448 120.662 216.883L120.242 219.544L120.031 220.876L119.784 222.204L119.294 224.854C116.566 238.997 113.123 253.031 110.548 267.224L110.056 269.884L109.606 272.551L109.155 275.217L108.931 276.551L108.731 277.888L107.942 283.237L107.286 288.603C106.517 295.768 106.037 302.967 106.171 310.168C106.159 302.967 106.764 295.791 107.655 288.645L108.366 283.293L109.206 277.96L109.417 276.626L109.655 275.296L110.131 272.637L110.606 269.977L111.122 267.325C112.488 260.25 113.994 253.2 115.541 246.156C117.088 239.112 118.67 232.073 120.042 224.985L120.528 222.322L120.771 220.991L120.981 219.654L121.395 216.976C121.47 216.53 121.523 216.077 121.57 215.632L121.721 214.284L122.022 211.599L122.177 210.271L122.396 208.947C122.522 208.061 122.74 207.188 122.91 206.309C123.08 205.43 123.326 204.56 123.534 203.687C125.337 196.718 127.847 189.922 130.454 183.179C133.062 176.437 135.95 169.781 138.933 163.17C141.916 156.558 144.963 149.978 148.196 143.471C141.55 156.395 135.336 169.527 129.919 182.982C128.557 186.346 127.264 189.73 126.07 193.151Z" fill="#43415A"/>
<path d="M152.974 180.485C150.655 183.554 148.394 186.665 146.138 189.776C143.883 192.886 141.646 196.015 139.444 199.163C137.241 202.312 135.091 205.492 132.974 208.688C130.856 211.883 128.755 215.101 126.771 218.381C124.787 221.66 122.838 224.961 121.058 228.349L119.775 230.913C119.381 231.783 118.957 232.64 118.588 233.519C117.811 235.26 117.201 237.064 116.766 238.91L117.169 237.546C117.232 237.318 117.31 237.093 117.401 236.874L117.657 236.209C117.973 235.31 118.392 234.455 118.774 233.585C119.157 232.716 119.616 231.876 120.033 231.021L121.389 228.505C123.232 225.161 125.226 221.894 127.274 218.659C131.368 212.19 135.662 205.834 140.075 199.553C144.437 193.239 148.931 187.014 153.453 180.794C155.705 177.679 157.974 174.578 160.26 171.491C162.521 168.388 164.826 165.306 167.113 162.215C164.688 165.209 162.329 168.251 159.953 171.286C157.577 174.321 155.286 177.412 152.974 180.485Z" fill="#43415A"/>
<path d="M155.001 240.518C150.407 243.231 145.815 245.948 141.152 248.547C136.519 251.192 131.821 253.737 127.039 256.123C124.648 257.313 122.229 258.459 119.744 259.449C118.509 259.965 117.246 260.415 115.958 260.795C115.315 260.984 114.66 261.134 113.997 261.245C113.336 261.373 112.656 261.393 111.988 261.302C112.655 261.429 113.341 261.446 114.014 261.352C114.687 261.27 115.354 261.146 116.011 260.98C117.323 260.65 118.615 260.251 119.881 259.784C122.412 258.849 124.871 257.758 127.303 256.623C129.736 255.487 132.117 254.256 134.488 253.012C136.858 251.769 139.198 250.479 141.536 249.174C146.177 246.518 150.78 243.806 155.31 240.989C157.571 239.576 159.825 238.151 162.072 236.713C164.299 235.252 166.536 233.801 168.729 232.291L161.869 236.424C159.586 237.797 157.297 239.162 155.001 240.518Z" fill="#43415A"/>
<path d="M115.506 179.797C110.796 179.039 104.955 182.636 101.693 179.292C100.437 178.004 100.186 176.115 100.067 174.359C99.4794 166.028 100.242 157.455 97.5405 149.512C95.2146 142.754 90.5415 136.954 84.2927 133.071C76.5901 128.32 65.2133 127.38 58.9992 133.817C53.9006 139.098 54.0268 147.205 55.2779 154.285C56.5171 161.303 58.5521 168.172 61.3469 174.771C63.7681 180.491 66.8017 186.16 67.2124 192.317C67.6232 198.474 64.4973 205.414 58.3115 207.216C53.633 208.58 48.6286 206.726 43.7372 206.824C35.3262 206.993 28.0305 213.114 24.4298 220.356C20.8291 227.598 20.2488 235.853 20.017 243.873C19.7514 253.101 19.904 262.562 23.2202 271.228C26.5364 279.893 33.5946 287.76 42.9854 290.001C46.2018 290.767 49.5801 290.864 52.7211 291.901C55.862 292.938 58.8579 295.283 59.1744 298.431C59.3459 300.129 58.7147 301.806 58.6092 303.508C58.3755 307.315 60.9041 310.96 64.3277 312.929C67.7513 314.899 71.923 315.393 75.9118 315.111C81.6869 314.701 87.4506 312.654 91.5921 308.794C100.636 300.348 94.7368 289.633 99.0158 279.871C102.268 272.451 110.116 267.733 114.144 260.668C116.618 256.332 117.511 251.078 116.004 246.357C114.496 241.636 110.421 237.598 105.371 236.516C104.039 236.231 102.632 236.134 101.414 235.525C99.0856 234.351 98.1322 231.496 98.5636 229.016C98.9951 226.536 100.527 224.37 102.144 222.388C110.112 212.616 121.658 203.965 122.706 191.627C123.149 186.619 120.692 180.631 115.506 179.797Z" fill="#FFE8A3"/>
<path d="M104.986 298.705C104.986 298.65 104.958 298.597 104.909 298.556C103.422 297.289 102.04 295.959 100.772 294.573C99.5004 293.186 98.334 291.751 97.1957 290.3C94.9641 287.381 92.9481 284.374 91.086 281.319C90.1558 279.79 89.2601 278.251 88.3987 276.701C87.5286 275.152 86.7334 273.594 86.0752 271.996C85.4103 270.402 84.8651 268.784 84.4418 267.148C84.2337 266.329 84.0462 265.51 83.9074 264.68L83.5323 262.19C81.657 248.884 81.9027 235.455 82.3059 222.072C82.5328 215.377 82.9135 208.687 83.2885 201.995L83.8699 191.956L84.138 186.935C84.2318 185.262 84.2862 183.587 84.3387 181.911C84.3631 181.073 84.3387 180.233 84.3387 179.393C84.3537 178.975 84.2937 178.553 84.2674 178.133L84.2187 177.501C84.1924 177.292 84.1549 177.083 84.123 176.874C83.8683 175.204 83.4858 173.545 82.9772 171.906C81.9493 168.637 80.6912 165.408 79.2079 162.233C78.4778 160.643 77.7152 159.063 76.92 157.491L75.718 155.136C75.354 154.344 75.0577 153.536 74.831 152.717C73.8933 149.443 73.2857 146.117 72.7344 142.793C73.2426 146.121 73.8089 149.448 74.7016 152.738C74.9197 153.563 75.2072 154.377 75.5623 155.176L76.7325 157.54C77.5051 159.116 78.2465 160.701 78.9566 162.293C79.6692 163.884 80.3199 165.488 80.9463 167.097C81.5726 168.706 82.1202 170.331 82.5965 171.966C83.09 173.596 83.4581 175.246 83.6992 176.906C83.7292 177.113 83.7649 177.315 83.7892 177.527L83.8324 178.15C83.8549 178.56 83.913 178.98 83.8942 179.399C83.883 180.234 83.8942 181.068 83.8661 181.904C83.8023 183.577 83.7348 185.249 83.6298 186.922L83.3223 191.939L82.6678 201.974C82.2421 208.661 81.8689 215.361 81.6176 222.058C81.3663 228.755 81.2426 235.458 81.3289 242.161C81.4658 248.861 81.7808 255.571 82.7934 262.245L83.1835 264.746C83.326 265.58 83.5173 266.412 83.7311 267.239C84.1624 268.894 84.7177 270.531 85.3945 272.142C86.0621 273.752 86.8741 275.336 87.7499 276.885C88.6256 278.434 89.522 279.983 90.4578 281.515C92.3331 284.58 94.3659 287.597 96.6162 290.529C97.762 291.988 98.9453 293.432 100.232 294.829C101.496 296.208 102.874 297.529 104.357 298.786V298.703L104.436 298.855L104.357 298.786L104.669 329.98L104.943 352.001H105.061V329.982L104.986 298.705Z" fill="#43415A"/>
<path d="M83.6083 159.538C82.791 161.093 82.0773 162.696 81.4716 164.336C81.1701 165.159 80.9265 165.999 80.7425 166.852C80.5785 167.708 80.4617 168.604 80.6558 169.458C80.6632 168.602 80.8146 167.752 81.1042 166.942C81.3624 166.124 81.6883 165.325 82.0256 164.532C82.7171 162.953 83.4859 161.396 84.2867 159.86C85.0874 158.323 85.9146 156.789 86.7361 155.256C87.5576 153.723 88.4112 152.201 89.227 150.648C88.1417 152.041 87.1544 153.497 86.2123 154.981C85.2702 156.465 84.4223 157.987 83.6083 159.538Z" fill="#43415A"/>
<path d="M104.116 253.1L102.722 254.717L101.288 256.311C100.346 257.38 99.3471 258.414 98.3749 259.461C96.3952 261.528 94.3502 263.534 92.2399 265.48C90.124 267.411 87.9421 269.298 85.6622 271.023L85.6339 271.049L81.9823 274.404L82.2235 274.63H81.743L81.9823 274.409L75.7984 268.572C73.6598 266.551 71.5495 264.506 69.4373 262.462C67.3251 260.419 65.2525 258.34 63.2308 256.22C62.2246 255.158 61.2335 254.081 60.282 252.985C59.3305 251.889 58.3978 250.751 57.7233 249.533C57.6366 249.382 57.5914 249.231 57.5198 249.08L57.3068 248.566L57.0883 248.049C57.0167 247.869 56.9244 247.721 56.8433 247.556L56.3403 246.58C56.1669 246.259 55.9822 245.944 55.8032 245.628C55.4452 244.992 55.0772 244.363 54.6991 243.741C54.3223 243.116 53.9454 242.483 53.5686 241.874C52.0424 239.392 50.4653 236.945 48.8769 234.506C47.2885 232.068 45.6738 229.642 44.0421 227.225C42.4104 224.808 40.773 222.4 39.1055 220.008L43.8329 227.35L48.5095 234.718C50.0564 237.18 51.5958 239.649 53.0787 242.145C53.4555 242.765 53.8173 243.394 54.181 244.021C54.5446 244.649 54.9045 245.279 55.2493 245.912L55.7712 246.861L56.2592 247.82C56.3384 247.982 56.4288 248.14 56.4966 248.302L56.6964 248.785L56.898 249.272C56.9771 249.452 57.0412 249.646 57.1335 249.811C57.4908 250.464 57.9029 251.089 58.3658 251.678C58.8142 252.266 59.2796 252.838 59.7582 253.398C60.7135 254.518 61.7065 255.605 62.7126 256.678C64.7325 258.818 66.807 260.904 68.906 262.967C73.1021 267.101 77.4565 271.081 81.7393 275.101C81.8035 275.161 81.8901 275.195 81.9804 275.195C82.0708 275.195 82.1574 275.161 82.2216 275.101L86.088 271.507L86.0654 271.523L86.0936 271.5C88.3765 269.733 90.559 267.851 92.6318 265.862C94.7246 263.883 96.7457 261.841 98.6952 259.735L100.14 258.142L100.86 257.344L101.559 256.529L102.955 254.899L104.312 253.238C105.23 252.142 106.081 250.997 106.965 249.876C107.849 248.755 108.661 247.581 109.501 246.435C108.617 247.556 107.751 248.686 106.863 249.797C105.976 250.908 105.06 252.025 104.116 253.1Z" fill="#43415A"/>
<path d="M70.4528 287.328C69.9553 286.879 69.4183 286.45 68.8983 286.013C68.6345 285.796 68.3726 285.576 68.1051 285.366L67.2854 284.757C66.7371 284.354 66.1945 283.941 65.6405 283.548L63.9636 282.383C61.7233 280.836 59.4415 279.355 57.1447 277.891C52.5196 275.015 47.8455 272.213 43.1224 269.484C40.7546 268.133 38.3805 266.792 36.0002 265.461C33.6053 264.151 31.2181 262.832 28.7969 261.566L42.8172 269.957C47.4749 272.771 52.1459 275.571 56.7264 278.494C59.0251 279.941 61.3182 281.398 63.5604 282.92C65.8145 284.417 67.9837 286.027 70.059 287.744C74.2042 291.212 78.585 294.533 83.531 296.908C81.123 295.622 78.8864 294.076 76.7215 292.457C74.5566 290.838 72.4651 289.116 70.4528 287.328Z" fill="#43415A"/>
<path d="M83.9078 186.26C83.3245 184.826 82.6642 183.421 81.9294 182.051C81.2077 180.677 80.422 179.336 79.6344 177.999C78.8468 176.662 78.0027 175.354 77.1605 174.046C75.4584 171.444 73.6936 168.882 71.8659 166.362C70.9558 165.104 70.025 163.846 69.0886 162.606C68.1521 161.366 67.1723 160.146 66.2773 158.879C66.6335 159.567 67.0838 160.205 67.5021 160.856L68.7833 162.804L71.3741 166.673C73.1 169.251 74.8316 171.825 76.5161 174.427C78.2006 177.029 79.8568 179.638 81.4056 182.31C82.1724 183.649 82.913 185.006 83.563 186.391C83.8981 187.082 84.1937 187.79 84.4486 188.512C84.5164 188.691 84.556 188.871 84.6125 189.051C84.6708 189.232 84.7161 189.417 84.7481 189.604C84.7802 189.784 84.8254 189.978 84.848 190.167L84.865 190.74C84.9837 189.973 84.816 189.2 84.6408 188.451C84.4385 187.708 84.1938 186.977 83.9078 186.26Z" fill="#43415A"/>
<path d="M57.3961 215.124C55.4516 214.333 53.1096 214.081 51.7586 212.53C49.0774 209.452 52.6725 204.598 51.1651 200.864C50.4114 199.013 48.5272 197.809 46.5827 197.09C38.6974 194.201 35.0608 198.753 28.8976 201.775C23.3958 204.471 16.639 203.644 10.8885 207.006C6.64338 209.49 2.97485 213.088 1.21312 217.528C-1.01777 223.127 -0.0116027 229.59 2.92398 234.884C5.85956 240.178 10.5606 244.408 15.6894 247.872C9.86912 253.145 6.17988 260.556 5.79173 268.202C5.40359 275.848 8.37685 283.64 13.9861 289.116C18.3631 293.387 24.6205 296.266 30.8289 295.475C37.0374 294.685 42.7126 289.52 42.5769 283.549C42.4507 277.949 37.7421 273.394 36.4194 267.938C35.0646 262.342 37.9362 255.921 43.357 253.423C46.0514 252.182 49.1339 251.905 51.883 250.78C54.632 249.655 57.204 247.155 56.7574 244.332C56.2675 241.234 52.3521 238.927 53.0418 235.863C53.607 233.361 56.7555 232.476 58.9808 231.047C60.4048 230.132 61.5438 228.869 62.2778 227.388C63.0118 225.908 63.3136 224.267 63.1514 222.637C62.9891 221.007 62.3689 219.449 61.356 218.127C60.3432 216.805 58.9751 215.768 57.3961 215.125V215.124Z" fill="#F5C668"/>
<path d="M178.303 202.599C177.239 201.979 176.091 201.447 175.213 200.601C173.395 198.847 173.113 196.063 173.706 193.66C174.3 191.258 175.609 189.085 176.636 186.821C181.33 176.49 179.63 163.771 172.37 154.892C171.464 153.783 170.45 152.679 170.081 151.317C169.859 150.496 169.892 149.637 169.836 148.789C169.538 143.861 166.444 139.338 162.299 136.389C158.154 133.441 153.067 131.897 147.953 131.121C140.753 130.032 133.13 130.422 126.556 133.426C119.982 136.431 114.638 142.323 113.662 149.211C112.686 156.099 116.79 163.661 123.682 165.923C129 167.665 134.909 166.227 140.424 167.266C146.31 168.375 151.478 172.477 153.679 177.809C155.88 183.141 155.041 189.5 151.531 194.142C148.565 198.063 143.604 201.474 143.994 206.295C144.426 211.507 150.267 213.782 153.227 217.507C158.239 223.827 153.249 229.387 150.431 235.544C145.396 246.54 150.926 262.95 164.978 264.414C173.269 265.277 181.936 258.012 180.617 250.162C179.898 245.905 176.647 241.998 177.363 237.741C177.993 234.004 181.448 231.405 183.77 228.334C189.771 220.352 187.095 207.711 178.303 202.599Z" fill="#F5C668"/>
<path d="M136.057 194.767C134.55 194.947 133.314 196.541 133.813 197.916C133.962 198.325 134.241 198.719 134.19 199.15C134.139 199.582 133.775 199.907 133.419 200.175C130.638 202.265 126.655 203.711 125.999 207.028C125.782 208.125 125.999 209.282 125.671 210.355C125.385 211.304 124.712 212.094 124.117 212.903C120.748 217.491 119.689 223.221 118.715 228.745C119.499 229.689 121.089 228.993 122.012 228.172C124.34 226.095 126.111 223.515 127.177 220.65C127.674 219.307 128.015 217.906 128.669 216.626C130.389 213.266 134.001 211.206 136.468 208.299C138.346 206.083 143.452 193.935 136.057 194.767Z" fill="#FFE8A3"/>
<path d="M145.821 111.848C142.782 111.523 139.338 112.513 136.871 110.788C135.008 109.483 134.448 107.014 134.672 104.825C134.897 102.637 135.748 100.54 136.135 98.3561C137.278 91.9264 134.239 85.4445 130.224 80.1649C126.806 75.6724 122.483 71.6021 117.089 69.5122C111.695 67.4223 105.1 67.6055 100.461 70.9624C95.8221 74.3192 93.9586 81.1407 97.1994 85.7554C99.7506 89.389 104.798 91.2148 106.473 95.2796C108.627 100.516 103.894 106.089 98.7482 108.849C93.6025 111.609 87.5052 113.203 83.7293 117.523C79.6349 122.21 79.5482 129.66 83.5408 134.431C85.8019 137.127 89.1595 139.039 90.6123 142.196C92.5982 146.509 90.3353 151.399 89.5175 156.048C88.7236 160.614 89.3614 165.303 91.3509 169.525C92.5021 171.953 94.164 174.259 96.5626 175.624C98.9612 176.99 102.189 177.242 104.493 175.734C107.022 174.083 107.841 170.842 107.709 167.922C107.578 165.002 106.7 162.138 106.69 159.214C106.681 156.29 107.804 153.075 110.523 151.728C113.241 150.38 117.426 152.252 117.117 155.162C117.012 156.184 116.411 157.111 116.271 158.132C115.024 167.34 128.88 160.096 131.616 158.093C136.574 154.461 140.472 152.755 146.189 150.707C159.885 145.797 163.16 131.617 156.42 120.005C154.14 116.071 150.517 112.36 145.821 111.848Z" fill="#FFE8A3"/>
<path d="M61.8725 197.524C59.8338 196.784 57.5389 196.342 56.0654 194.8C55.2665 193.959 54.8087 192.87 54.0456 191.998C52.8077 190.586 50.9122 189.889 49.0864 189.29C45.1993 188.014 41.1727 186.923 37.0558 186.97C32.9388 187.017 28.6975 188.329 25.922 191.222C24.8235 192.368 23.9568 193.749 22.6115 194.62C19.9171 196.363 16.3164 195.542 13.0755 195.84C11.14 196.033 9.27571 196.643 7.62319 197.623C5.97067 198.603 4.57309 199.929 3.53586 201.499C0.683178 205.895 1.06944 211.521 2.28474 216.558C3.87501 223.15 7.85443 230.359 14.8636 231.389C21.481 232.359 27.3691 227.281 31.0941 221.974C33.4023 218.686 36.0948 214.324 40.6885 214.319C45.61 214.319 49.7326 217.121 55.1177 216.357C58.0872 215.936 61.3713 214.583 62.1552 211.821C62.3172 211.252 62.3606 210.649 62.613 210.11C63.4647 208.285 66.0611 208.105 68.1545 208.2C70.3929 204.107 66.4059 199.167 61.8725 197.524Z" fill="#FFE8A3"/>
<path d="M94.822 5.1939C87.5885 0.566569 78.1355 -1.6222 70.0108 1.37343C69.2572 1.65376 68.4639 2.00957 68.0268 2.66549C67.3258 3.71135 67.7536 5.08967 67.5407 6.31523C66.9264 9.86974 61.9728 10.425 58.3232 11.3469C49.8443 13.5033 44.6345 21.6726 41.8948 29.628C40.0954 34.8537 39.0591 40.8791 41.9721 45.6214C43.6453 48.3439 46.5752 50.6118 46.7636 53.7619C46.8898 55.8734 45.7141 57.834 45.2073 59.8934C44.0334 64.6591 46.9709 70.034 51.7398 71.8454C56.5087 73.6568 62.5155 71.6782 65.0969 67.448C68.6278 61.6634 66.5006 52.6119 72.5903 49.2838C75.8782 47.4868 79.9782 48.4661 83.7674 48.3529C91.698 48.1193 96.22 43.0787 99.9338 37.1269C103.93 30.7206 108.492 25.9854 105.664 17.8233C103.84 12.5725 99.6512 8.28297 94.822 5.1939Z" fill="#FFE8A3"/>
<path d="M149.789 274.871C148.541 274.423 146.889 274.578 146.163 273.512C145.387 272.369 146.389 270.867 146.216 269.515C145.952 267.438 143.256 266.656 141.767 265.118C140.526 263.832 140.119 261.948 138.822 260.71C137.553 259.501 135.6 259.12 133.826 259.366C132.051 259.612 130.411 260.414 128.872 261.292C126.37 262.721 123.888 264.561 122.956 267.197C122.247 269.203 122.405 271.677 120.73 273.068C119.27 274.279 116.789 274.263 115.831 275.868C115.189 276.946 115.585 278.384 116.497 279.27C117.409 280.156 118.718 280.556 120.007 280.707C121.502 280.885 123.02 280.764 124.463 280.35C125.906 279.937 127.243 279.241 128.388 278.306C129.648 277.275 130.432 275.48 132.143 275.04C134.888 274.331 136.365 276.518 137.769 278.163C139.565 280.269 141.387 282.06 144.415 282.783C146.845 283.361 149.721 282.804 151.224 280.894C152.728 278.984 152.138 275.71 149.789 274.871Z" fill="#FFE8A3"/>
</svg>
