<svg width="103" height="110" viewBox="0 0 103 110" fill="none" xmlns="http://www.w3.org/2000/svg">
<path d="M79.8304 74.0878C79.2963 74.3737 78.7 74.5233 78.0944 74.5233C77.4887 74.5233 76.8926 74.3737 76.3585 74.0878C71.6275 71.1824 67.3596 67.5808 63.6983 63.4038C57.2032 56.0784 53.652 48.0787 53.4408 40.2772C53.3902 38.2953 53.7381 36.3234 54.4638 34.4789C55.1895 32.6343 56.2784 30.9548 57.6653 29.5404C58.9557 28.2162 60.4976 27.1643 62.2004 26.4466C63.9031 25.729 65.7322 25.3602 67.5795 25.362H67.7908C69.6894 25.393 71.5622 25.8071 73.2974 26.5795C75.0326 27.352 76.5945 28.4669 77.8897 29.8577C71.4326 22.8176 62.6299 18.3833 53.1372 17.3887C53.5517 17.9971 53.7635 18.7212 53.7422 19.4575C53.7208 20.1938 53.4675 20.9044 53.0184 21.4877L46.7082 29.7123C46.3064 30.2344 45.7906 30.6573 45.2001 30.9484C44.6097 31.2395 43.9604 31.3911 43.3023 31.3916C42.9914 31.389 42.6817 31.3536 42.3783 31.2858L38.5893 30.4395L36.6884 30.0164V37.4608L36.9788 37.2889C37.7641 36.7765 38.6819 36.5053 39.6191 36.5088C40.6801 36.5064 41.7132 36.8492 42.5629 37.4856C43.4127 38.122 44.0331 39.0176 44.3309 40.0376C44.6287 41.0577 44.5877 42.1469 44.2141 43.1416C43.8405 44.1363 43.1545 44.9826 42.2593 45.5531L35.9623 49.586C36.2905 50.2926 36.4336 51.0712 36.3782 51.8486C36.3228 52.6259 36.0706 53.3762 35.6455 54.0289L35.3815 54.4652C34.9539 55.1265 34.3669 55.6693 33.6748 56.0437C32.9827 56.418 32.2077 56.6119 31.4211 56.6073C30.5373 56.6075 29.6718 56.3552 28.926 55.8801L27.5136 54.9677L26.3254 55.7346C25.5401 56.247 24.6224 56.5182 23.6852 56.5148C23.3298 56.5151 22.9754 56.4752 22.629 56.3958C21.9984 56.2609 21.4013 56.0007 20.8729 55.6305C20.3446 55.2602 19.8958 54.7876 19.5531 54.2405C19.1193 53.5627 18.8586 52.7885 18.7941 51.986C18.7297 51.1835 18.8634 50.3774 19.1835 49.6389L12.5828 45.4077C12.2005 45.1718 11.8574 44.8773 11.5663 44.535C9.55448 50.8772 9.17854 57.6264 10.4735 64.1534C11.7685 70.6805 14.6922 76.7729 18.9722 81.8628C18.9722 81.6909 18.9722 81.519 18.9722 81.3603C19.3419 76.2453 21.4775 71.4186 25.0125 67.7086C28.5476 63.9987 33.2617 61.6369 38.3457 61.0285C43.4296 60.4201 48.5664 61.6031 52.8745 64.3745C57.1827 67.1459 60.3935 71.3328 61.9558 76.2167L65.9162 91.7798C65.9162 91.7798 65.9162 91.8592 65.9162 91.8988C75.2932 87.4132 82.5234 79.4014 86.035 69.6053L85.2429 70.2532C83.5409 71.6584 81.7312 72.9273 79.8304 74.0481" fill="#EFC73F"/>
<path d="M35.6993 21.5264L40.9798 23.3775L42.2999 23.8536L47.5805 17.2422C42.1612 17.4695 36.8481 18.8203 31.9766 21.209H33.389C34.2027 21.2118 35.0103 21.3503 35.7785 21.6189" fill="#EFC73F"/>
<path d="M85.7827 66.4587V66.2207L85.0039 66.7761L85.5452 68.6801C85.6464 68.652 85.7535 68.6532 85.854 68.6837C85.9545 68.7141 86.0441 68.7725 86.1128 68.852C86.1662 68.9169 86.2026 68.9942 86.2185 69.0768C86.3637 68.6537 86.4956 68.2173 86.6276 67.7545L86.3901 67.6223C86.1936 67.4906 86.0337 67.3111 85.9252 67.1007C85.8167 66.8903 85.7632 66.6558 85.7697 66.419" fill="#ABE8FF"/>
<path d="M17.7568 37.0647V32.7012C16.8559 33.8917 16.0229 35.1322 15.2617 36.4168C16.1385 36.3861 17.0053 36.6112 17.7568 37.0647Z" fill="#EFC73F"/>
<path d="M18.8514 37.7648L27.5378 43.3183L34.9439 38.5846L35.5908 38.1615V29.3419C35.5907 29.2579 35.6096 29.175 35.6462 29.0994C35.6828 29.0238 35.736 28.9576 35.8019 28.9056C35.8658 28.854 35.9407 28.8176 36.0207 28.7993C36.1008 28.781 36.1841 28.7811 36.2641 28.7998L38.3366 29.2626L40 24.2379L35.287 22.5719C34.6399 22.3349 33.9563 22.214 33.2673 22.2149H20.4752C19.7439 22.2132 19.0187 22.3477 18.3366 22.6115L14.5742 24.0264L15.802 29.4212L17.7953 28.8262L18.033 28.694C18.1163 28.6425 18.2122 28.6152 18.3101 28.6152C18.408 28.6152 18.5041 28.6425 18.5875 28.694C18.6686 28.744 18.7354 28.814 18.7817 28.8974C18.8279 28.9807 18.8519 29.0746 18.8514 29.17V37.7648Z" fill="#4550E5"/>
<path d="M14.747 29.725L13.5324 24.4359L11.9484 25.031C11.838 25.0716 11.7176 25.0769 11.6041 25.0461C11.4906 25.0153 11.3895 24.9499 11.3147 24.8591L5.80971 17.8642C5.41021 17.3798 4.83743 17.071 4.21369 17.004C3.58995 16.9369 2.9647 17.1169 2.47167 17.5054C1.97863 17.8939 1.65696 18.4601 1.5752 19.0831C1.49343 19.7061 1.65811 20.3364 2.03415 20.8393L8.63481 29.4077C9.0265 29.9165 9.56265 30.2948 10.1728 30.493C10.783 30.6912 11.4386 30.7001 12.0539 30.5184L14.747 29.725Z" fill="white"/>
<path d="M42.2978 25.0177L40.9777 24.6475L39.3672 29.5531L42.5618 30.2672C43.1549 30.3947 43.7718 30.3519 44.3417 30.1437C44.9115 29.9355 45.4112 29.5704 45.783 29.0903L52.0933 20.879C52.2917 20.6229 52.4362 20.3292 52.5179 20.0155C52.5996 19.7018 52.6168 19.3748 52.5685 19.0543C52.5186 18.7315 52.404 18.4221 52.2315 18.1449C52.0591 17.8676 51.8325 17.6282 51.5652 17.4411C51.064 17.0915 50.4481 16.9474 49.8441 17.0383C49.2402 17.1293 48.6941 17.4485 48.3177 17.9303L42.7995 24.9119C42.7289 25.0006 42.6324 25.0649 42.5235 25.0957C42.4145 25.1265 42.2987 25.1224 42.1923 25.0838" fill="white"/>
<path d="M17.8242 11.4245C18.6355 11.4103 19.437 11.2444 20.1873 10.9352C20.5238 9.40392 21.3718 8.03343 22.5912 7.05013C23.8105 6.06684 25.3281 5.52958 26.8935 5.52712C27.4773 5.52678 28.0587 5.60234 28.623 5.7519C28.0289 4.42963 26.26 1.15039 23.5537 1.15039C23.1905 1.15131 22.8296 1.20931 22.4843 1.32228C20.5965 1.90408 20.3853 3.87427 20.3193 6.3866C20.3257 7.06486 20.2682 7.74222 20.1477 8.40967C19.6929 9.62545 18.8833 10.676 17.8242 11.4245Z" fill="white"/>
<path d="M26.8914 18.1555C25.7478 18.1555 24.6299 17.8159 23.6791 17.1795C22.7282 16.5431 21.9871 15.6386 21.5495 14.5803C21.1119 13.522 20.9973 12.3575 21.2204 11.2341C21.4435 10.1106 21.9943 9.07867 22.8029 8.2687C23.6116 7.45874 24.6417 6.90715 25.7634 6.68368C26.885 6.46021 28.0476 6.5749 29.1042 7.01325C30.1607 7.4516 31.0638 8.19392 31.6991 9.14634C32.3345 10.0988 32.6736 11.2185 32.6736 12.364C32.6701 13.8989 32.0598 15.37 30.9762 16.4553C29.8926 17.5407 28.4239 18.152 26.8914 18.1555ZM20.2908 6.33439C20.3568 3.82207 20.568 1.85188 22.4558 1.27008C22.8011 1.15711 23.162 1.09911 23.5252 1.09819C26.1654 1.09819 28.0004 4.40387 28.5944 5.69969C27.7001 5.46452 26.7675 5.4131 25.8528 5.54853C24.9381 5.68397 24.0602 6.00346 23.272 6.48775C22.4838 6.97204 21.8017 7.61113 21.2667 8.3665C20.7316 9.12187 20.3547 9.97788 20.1588 10.883C19.4078 11.1901 18.6067 11.356 17.7957 11.3723C18.8548 10.6238 19.6644 9.57325 20.1191 8.35747C20.2397 7.69001 20.2972 7.01265 20.2908 6.33439ZM16.106 12.3507C16.5842 12.4453 17.0708 12.4897 17.5582 12.483C18.3864 12.4857 19.21 12.3608 20.0004 12.1127C19.9938 12.1963 19.9938 12.2803 20.0004 12.364C20.0005 13.5945 20.3297 14.8025 20.9537 15.8624C21.5777 16.9224 22.4737 17.7956 23.5487 18.3913C24.6237 18.987 25.8384 19.2834 27.0664 19.2497C28.2945 19.2161 29.4911 18.8536 30.5319 18.1999C31.5728 17.5462 32.4199 16.6253 32.9851 15.5327C33.5503 14.4402 33.8129 13.2159 33.7459 11.9872C33.6788 10.7586 33.2844 9.57029 32.6037 8.54597C31.9229 7.52164 30.9807 6.69862 29.8749 6.16249C29.9082 6.05934 29.9082 5.9483 29.8749 5.84514C28.964 3.35927 26.1786 -1.01746 22.1654 0.22548C19.3667 1.08496 19.2875 4.09975 19.2215 6.29472C19.2249 6.89722 19.1764 7.49889 19.0763 8.09302C18.7463 9.41529 16.7265 10.8962 15.9741 11.3458C15.8791 11.4007 15.8029 11.4832 15.7557 11.5823C15.7086 11.6815 15.6926 11.7927 15.7099 11.9012C15.7296 12.0089 15.78 12.1086 15.855 12.1884C15.9299 12.2681 16.0263 12.3245 16.1325 12.3507" fill="#DEA81E"/>
<path d="M26.8915 6.57227C25.7479 6.57227 24.63 6.91193 23.6791 7.54831C22.7282 8.1847 21.9872 9.08922 21.5495 10.1475C21.1119 11.2058 20.9974 12.3703 21.2205 13.4937C21.4436 14.6172 21.9943 15.6491 22.803 16.4591C23.6116 17.269 24.6418 17.8206 25.7634 18.0441C26.8851 18.2676 28.0476 18.1529 29.1042 17.7145C30.1608 17.2762 31.0638 16.5339 31.6992 15.5814C32.3345 14.629 32.6736 13.5093 32.6736 12.3638C32.6702 10.8289 32.0599 9.3578 30.9763 8.27243C29.8927 7.18706 28.4239 6.57576 26.8915 6.57227Z" fill="white"/>
<path d="M36.4378 38.9279L28.6094 43.9525L29.2562 44.4153L29.7315 44.7327L34.2332 47.602C34.6671 47.8893 35.0544 48.2416 35.3817 48.6466L41.6655 44.6798C42.514 44.1336 43.1121 43.2731 43.3289 42.2864C43.4399 41.7981 43.4515 41.2923 43.363 40.7993C43.2746 40.3063 43.0878 39.8362 42.814 39.4171C42.5457 38.9909 42.1953 38.6225 41.7833 38.3334C41.3713 38.0443 40.906 37.8403 40.4145 37.7332C39.923 37.6261 39.415 37.6181 38.9203 37.7097C38.4257 37.8013 37.9543 37.9907 37.5335 38.2667L36.4378 38.9279Z" fill="white"/>
<path d="M26.5252 54.3207L20.1621 50.248C19.9717 50.7607 19.893 51.3081 19.9313 51.8537C19.9696 52.3993 20.1239 52.9304 20.384 53.4113C20.644 53.8922 21.0038 54.3118 21.4392 54.642C21.8745 54.9722 22.3754 55.2052 22.908 55.3256C23.8935 55.5367 24.9222 55.3515 25.7726 54.8099L26.5252 54.3207Z" fill="white"/>
<path d="M13.2542 44.4821L29.5974 54.9545C30.3917 55.4565 31.3518 55.6243 32.269 55.4213C33.1861 55.2182 33.986 54.6608 34.4951 53.8702L34.7592 53.4339C35.1119 52.8713 35.299 52.2205 35.299 51.5562C35.299 50.892 35.1119 50.2411 34.7592 49.6786C34.477 49.2149 34.0932 48.8216 33.637 48.5282L17.3069 38.069C16.739 37.7064 16.0795 37.5138 15.406 37.5137C15.1444 37.5143 14.8836 37.5409 14.6272 37.593C14.1725 37.6923 13.742 37.8814 13.3612 38.1493C12.9804 38.4172 12.6568 38.7585 12.4093 39.1533L12.1321 39.5897C11.6268 40.3806 11.4556 41.3401 11.6561 42.2575C11.8566 43.1748 12.4123 43.9749 13.2013 44.4821" fill="white"/>
<path d="M22.9062 55.3256C22.3736 55.2053 21.8727 54.9722 21.4374 54.642C21.002 54.3119 20.6422 53.8923 20.3822 53.4114C20.1221 52.9304 19.9678 52.3993 19.9295 51.8538C19.8912 51.3082 19.9699 50.7607 20.1603 50.2481L26.5234 54.3207L25.7708 54.8099C24.9204 55.3515 23.8917 55.5367 22.9062 55.3256ZM39.6586 37.6072C40.2981 37.6053 40.9276 37.7656 41.4885 38.0731C42.0494 38.3806 42.5235 38.8253 42.8666 39.3658C43.1404 39.7849 43.327 40.255 43.4155 40.748C43.504 41.2409 43.4923 41.7467 43.3813 42.2351C43.1645 43.2217 42.5666 44.0822 41.7181 44.6284L35.4343 48.5952C35.1071 48.1902 34.7197 47.8379 34.2858 47.5507L29.7841 44.6813L29.3088 44.364L28.662 43.9012L36.4903 38.8765L37.6124 38.1625C38.2228 37.7689 38.9327 37.5579 39.6586 37.5542V37.6072ZM42.8929 24.7943L48.3979 17.7995C48.7803 17.3215 49.3295 17.0066 49.9346 16.9182C50.5398 16.8299 51.1559 16.9747 51.6586 17.3235C51.926 17.5086 52.1531 17.7464 52.3256 18.0224C52.4981 18.2983 52.6125 18.6067 52.6619 18.9285C52.7113 19.2503 52.6946 19.5789 52.6129 19.894C52.5312 20.2092 52.3862 20.5043 52.1867 20.7614L45.8764 28.9727C45.5046 29.4527 45.0051 29.8179 44.4353 30.026C43.8654 30.2342 43.2484 30.2771 42.6554 30.1495L39.4606 29.4355L40.9788 24.6489L42.1801 25.072C42.2866 25.1105 42.4024 25.1147 42.5113 25.0839C42.6202 25.053 42.7168 24.9888 42.7873 24.9001L42.8929 24.7943ZM18.5365 28.695C18.4532 28.6435 18.3573 28.6163 18.2593 28.6163C18.1614 28.6163 18.0653 28.6435 17.982 28.695L17.7445 28.8273L15.7511 29.4091L14.5233 24.0274L18.2858 22.6126C18.9683 22.3499 19.6932 22.2155 20.4244 22.2159H33.2164C33.9054 22.2151 34.5891 22.3359 35.2362 22.5729L39.949 24.239L38.2856 29.2636L36.2131 28.8008C36.1331 28.7822 36.05 28.782 35.9699 28.8003C35.8899 28.8187 35.8151 28.855 35.7511 28.9066C35.6852 28.9586 35.632 29.0249 35.5954 29.1004C35.5588 29.176 35.5398 29.2589 35.5398 29.3429V38.1625L34.893 38.5856L27.4871 43.3194L18.8005 37.7658V29.171C18.801 29.0757 18.777 28.9818 18.7307 28.8984C18.6845 28.815 18.6176 28.745 18.5365 28.695ZM8.63553 29.3958L2.03487 20.8275C1.83254 20.5709 1.68485 20.2755 1.6009 19.9595C1.51695 19.6436 1.49851 19.3137 1.54675 18.9903C1.595 18.667 1.7088 18.3569 1.8813 18.0793C2.0538 17.8017 2.28136 17.5625 2.54975 17.3764C3.05144 17.0245 3.6683 16.8778 4.27436 16.9663C4.88042 17.0547 5.42989 17.3717 5.81043 17.8524L11.3154 24.8472C11.3881 24.937 11.4869 25.0018 11.5981 25.0326C11.7093 25.0634 11.8274 25.0587 11.9359 25.0191L13.5332 24.4241L14.7478 29.7132L12.1075 30.4933C11.4922 30.675 10.8364 30.6662 10.2262 30.4679C9.61607 30.2697 9.08009 29.8914 8.68839 29.3826L8.63553 29.3958ZM12.1339 39.5773L12.4111 39.141C12.6563 38.7443 12.9792 38.4014 13.3604 38.1332C13.7416 37.8651 14.1732 37.6771 14.629 37.5807C14.8854 37.5286 15.1462 37.502 15.4078 37.5014C16.0813 37.5015 16.7408 37.6941 17.3087 38.0567L33.6388 48.5159C34.095 48.8093 34.4788 49.2026 34.761 49.6663C35.1137 50.2288 35.3008 50.8796 35.3008 51.5439C35.3008 52.2082 35.1137 52.859 34.761 53.4215L34.4969 53.8579C33.9881 54.6491 33.187 55.2061 32.269 55.4068C31.351 55.6076 30.391 55.4357 29.5992 54.9289L13.256 44.483C12.467 43.9758 11.9112 43.1757 11.7107 42.2584C11.5102 41.3411 11.6813 40.3815 12.1866 39.5906L12.1339 39.5773ZM12.6752 45.4086L19.2759 49.6398C18.9883 50.3052 18.8511 51.0259 18.8741 51.7506C18.8972 52.4752 19.0797 53.1858 19.409 53.8314C19.7382 54.4771 20.206 55.0419 20.7786 55.4853C21.3512 55.9288 22.0147 56.24 22.7214 56.3967C23.0678 56.4761 23.422 56.516 23.7774 56.5157C24.7146 56.5191 25.6324 56.2479 26.4177 55.7355L27.6058 54.9686L29.0183 55.881C29.5332 56.2092 30.1077 56.4327 30.7087 56.5386C31.3098 56.6444 31.9259 56.6307 32.5217 56.4981C33.1175 56.3655 33.6813 56.1166 34.181 55.7657C34.6808 55.4148 35.1067 54.9687 35.4343 54.4529L35.6982 54.0298C36.1222 53.3767 36.3736 52.6264 36.4291 51.8493C36.4845 51.0723 36.3421 50.2938 36.0151 49.587L42.3121 45.554C42.8539 45.2067 43.3219 44.756 43.6898 44.2275C44.0576 43.699 44.318 43.103 44.4559 42.4738C44.5938 41.8445 44.6066 41.1942 44.4936 40.56C44.3806 39.9257 44.144 39.32 43.7973 38.7774C43.4505 38.2347 43.0004 37.7658 42.4728 37.3974C41.9451 37.0289 41.3503 36.7682 40.7221 36.6301C40.0938 36.492 39.4445 36.4791 38.8113 36.5923C38.1781 36.7055 37.5733 36.9425 37.0316 37.2898L36.7412 37.4617V30.0173L38.6421 30.4404L42.4309 31.2867C42.7343 31.3545 43.0442 31.3899 43.3551 31.3925C44.0127 31.3891 44.6608 31.2362 45.2508 30.9453C45.8408 30.6544 46.3572 30.2331 46.761 29.7132L53.0712 21.4886C53.5202 20.9053 53.7734 20.1947 53.7948 19.4584C53.8161 18.7222 53.6045 17.998 53.19 17.3896C52.9519 17.0431 52.6573 16.7392 52.3187 16.4904C51.5858 15.9806 50.6868 15.7694 49.8041 15.8995C48.9214 16.0297 48.1213 16.4915 47.5662 17.1912L42.2857 23.8026L40.9656 23.3266L35.685 21.4754C34.9168 21.2068 34.1093 21.0683 33.2957 21.0655H20.5035C19.642 21.0656 18.7876 21.2224 17.982 21.5283L13.7709 23.115L11.9623 23.8026L6.68176 17.1251C6.35523 16.7094 5.938 16.374 5.46203 16.1448C4.98606 15.9156 4.46389 15.7986 3.93579 15.8028C3.21813 15.8057 2.51844 16.027 1.92932 16.4375C1.54063 16.7101 1.21126 17.0591 0.961461 17.4632C0.711661 17.8673 0.546631 18.318 0.476242 18.7881C0.405853 19.2581 0.431542 19.7375 0.551982 20.1973C0.672423 20.657 0.885022 21.0873 1.17676 21.4622L7.77742 30.0305C8.17573 30.5489 8.68757 30.9687 9.27352 31.2576C9.85947 31.5465 10.504 31.6966 11.157 31.6966C11.573 31.6934 11.9862 31.631 12.3847 31.5115L15.5002 30.5991L17.7048 29.9512V37.0253C16.9534 36.5718 16.0866 36.3467 15.2098 36.3774C14.9163 36.3802 14.6241 36.4157 14.3384 36.4832C13.7438 36.613 13.1809 36.8599 12.6823 37.2095C12.1837 37.559 11.7595 38.0043 11.4342 38.5195L11.157 38.9559C10.8238 39.4682 10.597 40.0425 10.4904 40.6446C10.3838 41.2466 10.3994 41.864 10.5364 42.4599C10.6924 43.2158 11.0428 43.9177 11.553 44.4962C11.8476 44.8351 12.1901 45.1291 12.5695 45.3689" fill="#DEA81E"/>
<path d="M32.4629 93.5773V85.3131C32.4629 84.9624 32.6019 84.6261 32.8495 84.3781C33.0971 84.1301 33.4329 83.9908 33.7831 83.9908H36.1328V83.8321C36.1328 83.3622 36.3193 82.9115 36.651 82.5793C36.9828 82.247 37.4327 82.0603 37.9019 82.0603C38.371 82.0603 38.821 82.247 39.1527 82.5793C39.4844 82.9115 39.6708 83.3622 39.6708 83.8321V83.9908H42.2978V81.3463H42.1527C41.68 81.3463 41.2267 81.1582 40.8925 80.8234C40.5582 80.4887 40.3705 80.0346 40.3705 79.5612C40.3705 79.0878 40.5582 78.6337 40.8925 78.299C41.2267 77.9642 41.68 77.7761 42.1527 77.7761H42.2978V74.6423C42.2978 74.57 42.3122 74.4984 42.3402 74.4318C42.3682 74.3651 42.4094 74.3048 42.4611 74.2542C42.5128 74.2037 42.5739 74.1641 42.6411 74.1376C42.7083 74.1112 42.7802 74.0984 42.8524 74.1002H51.9217C52.2718 74.1002 52.6075 74.2395 52.855 74.4875C53.1026 74.7355 53.2418 75.0718 53.2418 75.4225V84.5065V93.5509C53.2418 93.9016 53.1026 94.2379 52.855 94.4859C52.6075 94.7338 52.2718 94.8731 51.9217 94.8731H33.8225C33.4724 94.8731 33.1367 94.7338 32.8892 94.4859C32.6416 94.2379 32.5024 93.9016 32.5024 93.5509L32.4629 93.5773ZM29.0965 71.416C29.1 70.9822 29.2736 70.5672 29.5798 70.2604C29.8861 69.9537 30.3004 69.7798 30.7335 69.7764H39.3672C39.4394 69.7764 39.5108 69.7908 39.5773 69.8189C39.6439 69.8469 39.7042 69.8881 39.7546 69.9398C39.805 69.9916 39.8447 70.0529 39.8711 70.1202C39.8975 70.1875 39.9101 70.2594 39.9083 70.3317V74.0209C39.9066 74.0938 39.8906 74.1657 39.8611 74.2324C39.8317 74.2991 39.7894 74.3594 39.7367 74.4097C39.684 74.4601 39.6219 74.4995 39.554 74.5258C39.486 74.5521 39.4136 74.5648 39.3408 74.563H38.6146C38.5245 74.563 38.4352 74.5808 38.352 74.6153C38.2687 74.6499 38.193 74.7005 38.1292 74.7644C38.0655 74.8282 38.015 74.904 37.9805 74.9875C37.946 75.0709 37.9281 75.1603 37.9281 75.2506C37.9281 75.4329 38.0005 75.6078 38.1292 75.7368C38.258 75.8657 38.4326 75.9382 38.6146 75.9382H39.3672C39.5107 75.9382 39.6484 75.9953 39.7499 76.0969C39.8514 76.1986 39.9083 76.3365 39.9083 76.4803V80.1827C39.9101 80.255 39.8975 80.3269 39.8711 80.3942C39.8447 80.4615 39.805 80.5228 39.7546 80.5746C39.7042 80.6263 39.6439 80.6675 39.5773 80.6955C39.5108 80.7236 39.4394 80.738 39.3672 80.738H35.6972C35.625 80.738 35.5534 80.7236 35.4869 80.6955C35.4203 80.6675 35.3602 80.6263 35.3098 80.5746C35.2593 80.5228 35.2197 80.4615 35.1933 80.3942C35.1669 80.3269 35.1541 80.255 35.1559 80.1827V79.4819C35.1576 79.3922 35.1416 79.3031 35.1085 79.2197C35.0755 79.1364 35.0262 79.0605 34.9635 78.9964C34.9008 78.9324 34.8259 78.8816 34.7433 78.8469C34.6608 78.8121 34.5721 78.7943 34.4826 78.7943C34.3925 78.7943 34.3032 78.8121 34.2199 78.8466C34.1366 78.8812 34.061 78.9318 33.9972 78.9957C33.9335 79.0595 33.883 79.1353 33.8485 79.2187C33.814 79.3022 33.7963 79.3916 33.7963 79.4819V80.1827C33.798 80.2556 33.7853 80.3282 33.759 80.3962C33.7328 80.4643 33.6934 80.5265 33.6432 80.5793C33.5929 80.6321 33.5327 80.6745 33.4661 80.704C33.3995 80.7335 33.3278 80.7495 33.255 80.7512H30.2715C29.9692 80.7478 29.6804 80.625 29.4678 80.4097C29.2553 80.1943 29.1361 79.9037 29.1362 79.6009L29.0965 71.416ZM52.3044 105.134C52.3042 104.995 52.3576 104.861 52.4534 104.76C52.5493 104.659 52.6803 104.599 52.8193 104.592C57.5981 103.547 59.7367 100.797 59.7367 95.6797V93.855C59.7231 93.794 59.7231 93.7308 59.7367 93.6699C59.7367 93.5975 59.7513 93.526 59.7793 93.4593C59.8073 93.3927 59.8483 93.3323 59.9 93.2818C59.9516 93.2313 60.0128 93.1916 60.08 93.1652C60.1472 93.1387 60.2191 93.126 60.2913 93.1277H64.2516C64.3784 93.1278 64.5035 93.0993 64.6178 93.0444C64.732 92.9895 64.8325 92.9095 64.9117 92.8104C64.9836 92.7078 65.0335 92.5914 65.0585 92.4685C65.0835 92.3457 65.083 92.219 65.0569 92.0964L61.0965 76.5596C60.0651 73.343 58.2736 70.4235 55.8742 68.049C53.4748 65.6746 50.5383 63.9155 47.3147 62.9213C44.0911 61.9272 40.6756 61.7273 37.3583 62.3387C34.041 62.9501 30.9201 64.3546 28.261 66.433C25.6018 68.5114 23.483 71.2022 22.0846 74.2766C20.6862 77.3509 20.0496 80.7181 20.2288 84.0917C20.4081 87.4654 21.3978 90.7458 23.114 93.6542C24.8303 96.5626 27.2223 99.0129 30.0866 100.797C30.1634 100.847 30.2266 100.916 30.2703 100.997C30.3141 101.077 30.3371 101.168 30.3374 101.26V109.458H52.4101L52.3044 105.134Z" fill="white"/>
<path d="M62.1024 76.216C60.527 71.3446 57.3112 67.1726 53.0049 64.413C48.6985 61.6533 43.5691 60.4776 38.4931 61.0865C33.4171 61.6955 28.7099 64.0515 25.1761 67.7517C21.6422 71.4519 19.5011 76.2666 19.1188 81.3728C19.1188 81.5315 19.1188 81.7034 19.1188 81.8753C18.9197 85.7608 19.7502 89.63 21.5262 93.0902C23.3022 96.5503 25.9604 99.4784 29.2311 101.577V109.511C29.2311 109.658 29.2895 109.799 29.3935 109.904C29.4975 110.008 29.6385 110.066 29.7856 110.066C29.8578 110.066 29.9292 110.052 29.9957 110.024C30.0623 109.996 30.1225 109.955 30.173 109.903C30.2234 109.851 30.2631 109.79 30.2895 109.722C30.3159 109.655 30.3286 109.583 30.3269 109.511V101.313C30.3266 101.221 30.3035 101.13 30.2597 101.05C30.2159 100.969 30.1527 100.9 30.076 100.85C27.2116 99.0659 24.8196 96.6156 23.1034 93.7072C21.3871 90.7988 20.3974 87.5184 20.2182 84.1448C20.0389 80.7711 20.6755 77.404 22.074 74.3296C23.4724 71.2552 25.5912 68.5644 28.2503 66.486C30.9095 64.4077 34.0304 63.0031 37.3477 62.3917C40.6649 61.7803 44.0805 61.9802 47.3041 62.9744C50.5277 63.9685 53.4641 65.7276 55.8635 68.102C58.2629 70.4765 60.0544 73.3961 61.0859 76.6127L65.0462 92.1494C65.0723 92.272 65.0728 92.3987 65.0479 92.5215C65.0229 92.6444 64.9729 92.7608 64.9011 92.8634C64.8218 92.9625 64.7214 93.0425 64.6071 93.0974C64.4929 93.1523 64.3677 93.1808 64.241 93.1807H60.2806C60.2084 93.179 60.1367 93.1917 60.0695 93.2182C60.0023 93.2446 59.941 93.2843 59.8893 93.3348C59.8377 93.3853 59.7966 93.4457 59.7686 93.5123C59.7406 93.579 59.7261 93.6506 59.7261 93.7229C59.7124 93.7838 59.7124 93.8471 59.7261 93.908V95.7327C59.7261 100.85 57.5875 103.6 52.8086 104.645C52.6697 104.652 52.5388 104.712 52.443 104.813C52.3471 104.914 52.2936 105.048 52.2937 105.187V109.511C52.292 109.583 52.3047 109.655 52.3311 109.722C52.3575 109.79 52.3972 109.851 52.4476 109.903C52.4981 109.955 52.5583 109.996 52.6249 110.024C52.6914 110.052 52.7628 110.066 52.835 110.066C52.9821 110.066 53.1231 110.008 53.2271 109.904C53.3311 109.799 53.3895 109.658 53.3895 109.511V105.637C58.3928 104.42 60.8219 101.181 60.8219 95.7327V94.2782H64.1881C64.4717 94.2797 64.752 94.218 65.0089 94.0977C65.2657 93.9773 65.4926 93.8014 65.6733 93.5825C65.8539 93.3636 65.9838 93.1072 66.0534 92.832C66.1231 92.5567 66.1307 92.2693 66.076 91.9907C66.076 91.9907 66.076 91.9114 66.076 91.8717L62.1024 76.216Z" fill="#DEA81E"/>
<path d="M42.2982 93.8034V91.2382H41.9682C41.4955 91.2382 41.0422 91.0501 40.708 90.7154C40.3738 90.3806 40.186 89.9265 40.186 89.4531C40.186 89.2193 40.2321 88.9878 40.3219 88.772C40.4116 88.5562 40.5431 88.3603 40.7088 88.1955C40.8745 88.0308 41.071 87.9006 41.2871 87.8123C41.5033 87.7241 41.7347 87.6795 41.9682 87.6813H42.2982V85.1161H39.1827C39.1105 85.1161 39.0389 85.1016 38.9724 85.0736C38.9059 85.0455 38.8456 85.0044 38.7951 84.9526C38.7447 84.9009 38.7052 84.8395 38.6788 84.7722C38.6524 84.7049 38.6396 84.633 38.6414 84.5607V83.8599C38.6414 83.681 38.5704 83.5095 38.4442 83.3831C38.3179 83.2566 38.1467 83.1855 37.9681 83.1855C37.7896 83.1855 37.6184 83.2566 37.4921 83.3831C37.3658 83.5095 37.2948 83.681 37.2948 83.8599V84.5607C37.2948 84.708 37.2365 84.8492 37.1326 84.9534C37.0286 85.0575 36.8875 85.1161 36.7405 85.1161H33.8493C33.7898 85.1161 33.7327 85.1397 33.6906 85.1819C33.6485 85.224 33.625 85.2812 33.625 85.3408V93.6051C33.6282 93.6636 33.6527 93.719 33.6941 93.7605C33.7356 93.802 33.7908 93.8267 33.8493 93.8299L42.2982 93.8034Z" fill="#4550E5"/>
<path d="M52.106 93.5788C52.106 93.6385 52.0823 93.6956 52.0403 93.7378C51.9982 93.7799 51.941 93.8036 51.8815 93.8036H43.3667V90.6831C43.3668 90.6107 43.3522 90.5391 43.3242 90.4725C43.2962 90.4058 43.2552 90.3455 43.2035 90.295C43.1518 90.2444 43.0905 90.2048 43.0233 90.1783C42.9561 90.1519 42.8844 90.1392 42.8122 90.1409H41.9277C41.8375 90.1409 41.7483 90.1231 41.665 90.0886C41.5817 90.054 41.506 90.0034 41.4423 89.9395C41.3786 89.8757 41.3281 89.7999 41.2936 89.7165C41.2591 89.633 41.2412 89.5436 41.2412 89.4533C41.2412 89.3636 41.2591 89.2749 41.2937 89.1922C41.3284 89.1095 41.3792 89.0346 41.4431 88.9718C41.507 88.909 41.5828 88.8596 41.666 88.8265C41.7492 88.7934 41.8382 88.7772 41.9277 88.779H42.8122C42.8844 88.7807 42.9561 88.768 43.0233 88.7416C43.0905 88.7151 43.1518 88.6755 43.2035 88.625C43.2552 88.5744 43.2962 88.5141 43.3242 88.4474C43.3522 88.3808 43.3668 88.3092 43.3667 88.2368V85.1163H46.4954C46.5676 85.1163 46.639 85.1018 46.7056 85.0738C46.7721 85.0457 46.8324 85.0046 46.8828 84.9528C46.9333 84.9011 46.9729 84.8398 46.9994 84.7724C47.0258 84.7051 47.0383 84.6332 47.0366 84.5609V83.6618C47.0366 83.5721 47.0545 83.4833 47.0891 83.4006C47.1238 83.3179 47.1746 83.243 47.2385 83.1802C47.3024 83.1174 47.3782 83.068 47.4614 83.0349C47.5446 83.0018 47.6336 82.9857 47.7231 82.9874C47.9016 82.9874 48.0728 83.0585 48.1991 83.1849C48.3254 83.3114 48.3964 83.4829 48.3964 83.6618V84.5609C48.3964 84.7082 48.4548 84.8495 48.5588 84.9536C48.6628 85.0578 48.8038 85.1163 48.9509 85.1163H52.0796L52.106 93.5788ZM41.426 79.6156C41.426 79.5259 41.4439 79.4372 41.4786 79.3545C41.5132 79.2718 41.564 79.1968 41.6279 79.134C41.6919 79.0712 41.7676 79.0218 41.8508 78.9887C41.934 78.9556 42.023 78.9395 42.1125 78.9413H42.8122C42.8844 78.9413 42.9558 78.9268 43.0224 78.8988C43.0889 78.8707 43.1492 78.8296 43.1996 78.7778C43.2501 78.7261 43.2897 78.6647 43.3161 78.5974C43.3425 78.5301 43.3553 78.4582 43.3535 78.3859V75.2521H51.8815C51.94 75.2553 51.9953 75.28 52.0367 75.3215C52.0781 75.363 52.1028 75.4183 52.106 75.4769V84.0188H49.4657V83.6618C49.4623 83.1906 49.273 82.74 48.9391 82.4081C48.6053 82.0762 48.1538 81.8899 47.6834 81.8899C47.213 81.8899 46.7618 82.0762 46.4279 82.4081C46.0941 82.74 45.9048 83.1906 45.9013 83.6618V84.0188H43.261V80.8453C43.261 80.7015 43.204 80.5637 43.1025 80.462C43.0009 80.3603 42.8633 80.3032 42.7197 80.3032H42.0202C41.8381 80.3032 41.6635 80.2308 41.5348 80.1018C41.4061 79.9729 41.3337 79.798 41.3337 79.6156H41.426ZM33.4129 93.5788V85.3146C33.4161 85.256 33.4408 85.2007 33.4822 85.1592C33.5236 85.1177 33.5787 85.093 33.6372 85.0898H36.5284C36.6754 85.0898 36.8165 85.0313 36.9205 84.9272C37.0244 84.823 37.0829 84.6818 37.0829 84.5345V83.8337C37.0829 83.6548 37.1537 83.4833 37.28 83.3568C37.4062 83.2303 37.5776 83.1593 37.7562 83.1593C37.9347 83.1593 38.1059 83.2303 38.2322 83.3568C38.3585 83.4833 38.4293 83.6548 38.4293 83.8337V84.5345C38.4275 84.6068 38.4403 84.6787 38.4667 84.746C38.4931 84.8133 38.5328 84.8746 38.5832 84.9264C38.6336 84.9781 38.6939 85.0193 38.7605 85.0473C38.827 85.0754 38.8984 85.0899 38.9706 85.0898H42.2974V87.655H41.9673C41.7339 87.6533 41.5025 87.6978 41.2863 87.7861C41.0702 87.8744 40.8736 88.0046 40.7079 88.1693C40.5423 88.334 40.4107 88.5299 40.321 88.7458C40.2313 88.9616 40.1852 89.1931 40.1852 89.4269C40.1852 89.9003 40.3729 90.3544 40.7071 90.6891C41.0414 91.0239 41.4947 91.212 41.9673 91.212H42.2974V93.7772H33.822C33.7636 93.774 33.7083 93.7493 33.6669 93.7078C33.6254 93.6663 33.6009 93.611 33.5977 93.5524L33.4129 93.5788ZM42.8387 94.8747H51.908C52.2581 94.8747 52.5938 94.7354 52.8413 94.4874C53.0889 94.2394 53.2281 93.9031 53.2281 93.5524V84.508V75.424C53.2281 75.0733 53.0889 74.737 52.8413 74.489C52.5938 74.241 52.2581 74.1017 51.908 74.1017H42.8387C42.7665 74.1 42.6946 74.1127 42.6274 74.1392C42.5602 74.1656 42.499 74.2053 42.4474 74.2558C42.3957 74.3063 42.3545 74.3666 42.3265 74.4333C42.2985 74.5 42.2841 74.5715 42.2841 74.6439V77.7776H42.1389C41.6663 77.7776 41.213 77.9657 40.8788 78.3005C40.5445 78.6353 40.3568 79.0893 40.3568 79.5627C40.3568 80.0362 40.5445 80.4902 40.8788 80.825C41.213 81.1597 41.6663 81.3478 42.1389 81.3478H42.2841V83.9924H39.6571V83.8337C39.6571 83.3637 39.4707 82.9131 39.139 82.5808C38.8072 82.2485 38.3573 82.0618 37.8882 82.0618C37.419 82.0618 36.9691 82.2485 36.6373 82.5808C36.3056 82.9131 36.1191 83.3637 36.1191 83.8337V83.9924H33.7694C33.4192 83.9924 33.0834 84.1317 32.8358 84.3796C32.5882 84.6276 32.4492 84.9639 32.4492 85.3146V93.5788C32.4492 93.9295 32.5882 94.2659 32.8358 94.5138C33.0834 94.7618 33.4192 94.9011 33.7694 94.9011L42.8387 94.8747Z" fill="#DEA81E"/>
<path d="M48.4247 84.5346V83.6354C48.4247 83.4566 48.3537 83.285 48.2275 83.1586C48.1012 83.0321 47.93 82.9611 47.7514 82.9611C47.6619 82.9593 47.5729 82.9754 47.4897 83.0085C47.4065 83.0416 47.3308 83.091 47.2669 83.1538C47.2029 83.2166 47.1521 83.2916 47.1175 83.3743C47.0828 83.4569 47.0649 83.5457 47.0649 83.6354V84.5346C47.065 84.6796 47.0085 84.8189 46.9073 84.9227C46.8062 85.0264 46.6684 85.0865 46.5236 85.0899H43.3949V88.2105C43.3949 88.2828 43.3806 88.3544 43.3525 88.4211C43.3245 88.4877 43.2835 88.5481 43.2318 88.5986C43.1802 88.6491 43.1189 88.6888 43.0517 88.7152C42.9845 88.7417 42.9128 88.7544 42.8406 88.7526H41.956C41.8665 88.7509 41.7775 88.767 41.6943 88.8001C41.6111 88.8332 41.5354 88.8826 41.4715 88.9454C41.4075 89.0082 41.3567 89.0831 41.3221 89.1658C41.2874 89.2485 41.2695 89.3373 41.2695 89.427C41.2695 89.5167 41.2874 89.6054 41.3221 89.6881C41.3567 89.7708 41.4075 89.8458 41.4715 89.9086C41.5354 89.9714 41.6111 90.0207 41.6943 90.0538C41.7775 90.0869 41.8665 90.1031 41.956 90.1013H42.8406C42.9134 90.1013 42.9854 90.1157 43.0526 90.1436C43.1199 90.1715 43.1812 90.2124 43.2326 90.264C43.2841 90.3156 43.3248 90.3768 43.3527 90.4442C43.3806 90.5116 43.3949 90.5838 43.3949 90.6567V93.7773H51.9099C51.9694 93.7773 52.0265 93.7536 52.0686 93.7114C52.1107 93.6693 52.1342 93.6121 52.1342 93.5525V85.0635H49.0055C48.9327 85.0635 48.8607 85.0491 48.7934 85.0212C48.7261 84.9933 48.6649 84.9524 48.6134 84.9008C48.5619 84.8492 48.5212 84.788 48.4934 84.7206C48.4655 84.6533 48.4511 84.5811 48.4511 84.5081" fill="white"/>
<path d="M43.3545 80.8443V83.9913H45.9948V83.6343C45.9983 83.1631 46.1876 82.7125 46.5214 82.3806C46.8553 82.0487 47.3066 81.8624 47.7769 81.8624C48.2473 81.8624 48.6986 82.0487 49.0325 82.3806C49.3663 82.7125 49.5556 83.1631 49.5591 83.6343V83.9913H52.1994V75.4494C52.1994 75.3898 52.1757 75.3326 52.1336 75.2904C52.0915 75.2483 52.0344 75.2246 51.9749 75.2246H43.4469V78.3584C43.4469 78.5022 43.3898 78.6401 43.2883 78.7417C43.1868 78.8434 43.0491 78.9005 42.9056 78.9005H42.206C42.024 78.9005 41.8492 78.973 41.7205 79.1019C41.5917 79.2309 41.5195 79.4058 41.5195 79.5881C41.5195 79.7705 41.5917 79.9454 41.7205 80.0743C41.8492 80.2033 42.024 80.2757 42.206 80.2757H42.9056C43.0491 80.2757 43.1868 80.3328 43.2883 80.4345C43.3898 80.5361 43.4469 80.674 43.4469 80.8178" fill="#4550E5"/>
<path d="M30.2207 79.6405H32.6497V79.495C32.6531 79.0227 32.842 78.5707 33.1755 78.2366C33.509 77.9026 33.9604 77.7134 34.432 77.71C34.9046 77.71 35.3579 77.898 35.6922 78.2328C36.0264 78.5676 36.2141 79.0216 36.2141 79.495V79.6405H38.7883V76.9959H38.5903C38.1187 76.9925 37.6674 76.8033 37.3339 76.4693C37.0005 76.1353 36.8116 75.6832 36.8081 75.2109C36.8116 74.7385 37.0005 74.2865 37.3339 73.9525C37.6674 73.6184 38.1187 73.4293 38.5903 73.4258H38.7883V70.7812H30.7091C30.638 70.7812 30.5677 70.7953 30.502 70.8225C30.4364 70.8498 30.3766 70.8897 30.3264 70.94C30.2761 70.9904 30.2363 71.0501 30.2091 71.1159C30.1819 71.1817 30.168 71.2522 30.168 71.3234V79.5083" fill="white"/>
<path d="M30.1798 71.4174C30.1798 71.2736 30.2368 71.1357 30.3383 71.0341C30.4398 70.9324 30.5775 70.8753 30.7211 70.8753H38.8003V73.5198H38.6022C38.1306 73.5233 37.6794 73.7125 37.3459 74.0465C37.0124 74.3805 36.8235 74.8325 36.8201 75.3049C36.8235 75.7773 37.0124 76.2293 37.3459 76.5633C37.6794 76.8973 38.1306 77.0865 38.6022 77.09H38.8003V79.7345H36.2261V79.5891C36.2261 79.1156 36.0383 78.6616 35.7041 78.3268C35.3699 77.9921 34.9166 77.804 34.4439 77.804C33.9723 77.8075 33.5209 77.9966 33.1874 78.3307C32.854 78.6647 32.6651 79.1167 32.6616 79.5891V79.7345H30.2326L30.1798 71.4174ZM30.1798 80.7527H33.1633C33.2361 80.7509 33.3079 80.7349 33.3745 80.7054C33.4412 80.6759 33.5014 80.6335 33.5516 80.5807C33.6019 80.5279 33.6412 80.4657 33.6675 80.3976C33.6938 80.3296 33.7063 80.257 33.7046 80.1841V79.4965C33.7046 79.4068 33.7224 79.3181 33.7571 79.2354C33.7918 79.1527 33.8426 79.0777 33.9065 79.0149C33.9704 78.9521 34.0461 78.9027 34.1294 78.8696C34.2126 78.8365 34.3015 78.8204 34.3911 78.8222C34.4806 78.8204 34.5696 78.8365 34.6528 78.8696C34.736 78.9027 34.8117 78.9521 34.8756 79.0149C34.9396 79.0777 34.9904 79.1527 35.025 79.2354C35.0597 79.3181 35.0776 79.4068 35.0776 79.4965V80.1841C35.0758 80.2564 35.0885 80.3283 35.1149 80.3956C35.1414 80.4629 35.1809 80.5243 35.2313 80.576C35.2817 80.6278 35.342 80.6689 35.4086 80.697C35.4751 80.725 35.5465 80.7395 35.6187 80.7394H39.3019C39.3741 80.7395 39.4457 80.725 39.5122 80.697C39.5788 80.6689 39.639 80.6278 39.6895 80.576C39.7399 80.5243 39.7794 80.4629 39.8058 80.3956C39.8322 80.3283 39.845 80.2564 39.8432 80.1841V76.495C39.8432 76.3512 39.7861 76.2133 39.6846 76.1116C39.5831 76.0099 39.4455 75.9528 39.3019 75.9528H38.5495C38.3674 75.9528 38.1929 75.8804 38.0641 75.7514C37.9354 75.6225 37.863 75.4476 37.863 75.2652C37.863 75.0829 37.9354 74.908 38.0641 74.779C38.1929 74.6501 38.3674 74.5776 38.5495 74.5776H39.2755C39.3483 74.5794 39.4207 74.5668 39.4887 74.5405C39.5566 74.5142 39.6187 74.4747 39.6714 74.4244C39.7241 74.374 39.7665 74.3138 39.796 74.2471C39.8255 74.1803 39.8415 74.1085 39.8432 74.0355V70.3464C39.845 70.2741 39.8322 70.2021 39.8058 70.1348C39.7794 70.0675 39.7399 70.0062 39.6895 69.9544C39.639 69.9027 39.5788 69.8616 39.5122 69.8335C39.4457 69.8054 39.3741 69.791 39.3019 69.791H30.6682C30.2351 69.7945 29.8208 69.9683 29.5145 70.2751C29.2083 70.5818 29.0347 70.9969 29.0313 71.4306V79.6155C29.0312 79.9183 29.1505 80.2089 29.3631 80.4243C29.5756 80.6397 29.8644 80.7624 30.1667 80.7659" fill="#DEA81E"/>
<path d="M82.6683 53.1424C82.7541 54.6954 82.5983 56.2522 82.2063 57.7571C81.5462 60.4017 80.3185 62.3058 79.566 62.6628C79.3211 62.7526 79.0609 62.793 78.8004 62.7818C77.1665 62.6785 75.5734 62.2277 74.127 61.4595C71.0913 59.9333 68.6721 57.4074 67.2756 54.306C65.7991 50.6761 65.2019 46.7475 65.533 42.8419C65.731 39.9064 66.4571 36.5346 67.5528 36.0454C68.6485 35.5562 71.6452 37.2354 73.9686 39.0205C75.3308 40.0663 76.5986 41.23 77.7574 42.4981C77.995 42.1411 78.259 41.7841 78.5362 41.4403C80.5765 39.1127 83.1367 37.3006 86.0082 36.1512C87.6716 35.4636 90.7211 34.4983 91.5924 35.2256C92.4637 35.9529 92.1337 39.1263 91.7904 40.8849C91.2519 43.9341 89.9986 46.8118 88.1336 49.2814C86.7257 51.0619 84.8384 52.4017 82.6947 53.1424H82.6683ZM85.8234 66.2197L86.0875 56.0514C86.096 55.8022 86.17 55.5597 86.3022 55.3484C86.4343 55.1371 86.6198 54.9645 86.8399 54.8481C87.0602 54.723 87.3117 54.664 87.5645 54.6781C87.8172 54.6921 88.0606 54.7787 88.2656 54.9275L90.5758 56.4746C94.6287 51.0003 96.7673 45.4864 96.9125 40.118C96.942 38.9274 96.7328 37.7429 96.2974 36.6346C95.8621 35.5263 95.2093 34.5167 94.3778 33.6653C93.6115 32.8877 92.6961 32.2736 91.6865 31.8601C90.6769 31.4465 89.594 31.2419 88.5033 31.2588C87.2076 31.2853 85.9361 31.6147 84.7901 32.2208C83.6441 32.8269 82.6553 33.6928 81.9026 34.7496C81.4739 35.3501 80.9083 35.8395 80.2528 36.1771C79.5973 36.5148 78.8708 36.6909 78.1337 36.6909C77.3966 36.6909 76.6701 36.5148 76.0146 36.1771C75.3591 35.8395 74.7935 35.3501 74.3647 34.7496C73.6121 33.6928 72.6233 32.8269 71.4773 32.2208C70.3313 31.6147 69.0598 31.2853 67.7641 31.2588H67.6319C66.5615 31.2623 65.5025 31.4793 64.5166 31.897C63.5307 32.3147 62.6375 32.9248 61.8894 33.6918C61.0554 34.5413 60.4011 35.5507 59.9656 36.6594C59.5301 37.7681 59.3224 38.9535 59.3549 40.1445C59.7377 54.2796 73.8763 65.6776 78.1403 68.3353C80.2101 66.987 82.162 65.4654 83.9752 63.7867C84.0859 63.7058 84.2227 63.6688 84.359 63.6828C84.4954 63.6969 84.6218 63.7611 84.7137 63.863C84.8056 63.9649 84.8565 64.0973 84.8567 64.2346C84.8568 64.3719 84.8062 64.5044 84.7145 64.6065L84.5033 64.7917L85.071 66.8015L85.8234 66.2197Z" fill="white"/>
<path d="M84.4507 64.7663C82.5725 66.5057 80.5348 68.0641 78.3647 69.4207C78.2814 69.4722 78.1855 69.4994 78.0875 69.4994C77.9896 69.4994 77.8937 69.4722 77.8104 69.4207C73.7708 67.0406 58.6157 55.1137 58.2064 40.1455C58.1719 38.8079 58.4066 37.4769 58.8965 36.2321C59.3864 34.9872 60.1214 33.8538 61.0578 32.8995C61.9051 32.0255 62.9189 31.3306 64.0391 30.8559C65.1592 30.3813 66.3631 30.1364 67.5793 30.1359H67.7245C69.1967 30.1655 70.6414 30.5396 71.9434 31.2284C73.2454 31.9172 74.3685 32.9015 75.2228 34.1027C75.5487 34.5612 75.9795 34.935 76.479 35.193C76.9784 35.4509 77.5322 35.5855 78.0941 35.5855C78.6561 35.5855 79.2099 35.4509 79.7093 35.193C80.2088 34.935 80.6396 34.5612 80.9655 34.1027C81.8191 32.9008 82.9419 31.9159 84.2441 31.227C85.5462 30.5381 86.9914 30.1644 88.4638 30.1359H88.5827C89.8119 30.128 91.03 30.3687 92.1642 30.8436C93.2984 31.3184 94.3254 32.0177 95.1833 32.8995C96.1198 33.8538 96.8548 34.9872 97.3447 36.2321C97.8346 37.4769 98.0692 38.8079 98.0347 40.1455C97.8763 45.8974 95.5661 51.7551 91.1701 57.5599C91.0836 57.6722 90.9574 57.7472 90.8175 57.7693C90.6776 57.7914 90.5344 57.7591 90.4175 57.6789L87.6849 55.8409C87.6372 55.8117 87.5824 55.7962 87.5265 55.7962C87.4706 55.7962 87.4158 55.8117 87.3681 55.8409C87.3216 55.8647 87.2824 55.9005 87.2545 55.9447C87.2266 55.989 87.2111 56.0399 87.2097 56.0922L86.9325 66.5117C86.9312 66.5629 86.944 66.6135 86.9696 66.6578C86.9952 66.7022 87.0327 66.7385 87.0777 66.7629C87.1214 66.7898 87.1716 66.8041 87.2229 66.8041C87.2742 66.8041 87.3244 66.7898 87.3681 66.7629L96.873 62.5581C96.9221 62.5347 96.9647 62.4995 96.9969 62.4557C97.0292 62.4118 97.0501 62.3607 97.0578 62.3068C97.0611 62.2531 97.0508 62.1995 97.0277 62.1509C97.0046 62.1023 96.9696 62.0605 96.9259 62.0292L94.4044 60.3367C94.3415 60.2977 94.2878 60.2457 94.2467 60.1841C94.2057 60.1225 94.1785 60.0527 94.1668 59.9796C94.1542 59.9056 94.157 59.8298 94.1752 59.757C94.1934 59.6841 94.2265 59.6159 94.2724 59.5565C99.0248 53.2493 101.52 46.7437 101.705 40.2249C101.741 38.3885 101.409 36.5636 100.729 34.8579C100.048 33.1523 99.0337 31.6006 97.7443 30.2946C96.53 29.0534 95.0765 28.0722 93.4721 27.4108C91.8677 26.7493 90.1459 26.4214 88.4111 26.4468C86.5135 26.4781 84.6456 26.9239 82.9378 27.7529C81.23 28.5819 79.7234 29.7742 78.5231 31.2466C78.4682 31.3081 78.4012 31.3575 78.3262 31.3917C78.2512 31.4258 78.1699 31.444 78.0875 31.445C78.0073 31.4429 77.9284 31.4243 77.8556 31.3901C77.7829 31.356 77.7181 31.3071 77.6652 31.2466C76.4649 29.7742 74.9583 28.5819 73.2505 27.7529C71.5427 26.9239 69.6749 26.4781 67.7774 26.4468C66.0425 26.4206 64.3202 26.7482 62.7157 27.4097C61.1112 28.0712 59.6578 29.0527 58.444 30.2946C57.1522 31.5988 56.1359 33.1502 55.4555 34.8562C54.7751 36.5623 54.4445 38.3881 54.4836 40.2249C54.9588 57.6392 72.2262 70.6372 76.8335 73.1098C77.2071 73.3024 77.6211 73.4028 78.0413 73.4028C78.4615 73.4028 78.8756 73.3024 79.2493 73.1098C81.1021 72.0189 82.8676 70.7854 84.5298 69.4207L85.3218 68.7728C85.385 68.7246 85.4567 68.6887 85.5331 68.667L84.9918 66.7629L84.4507 64.7663Z" fill="white"/>
<path d="M97.4787 61.1298L95.4324 59.8075C100.106 53.4606 102.561 46.9021 102.746 40.3172C102.797 38.3353 102.449 36.3634 101.723 34.5188C100.997 32.6743 99.9085 30.9948 98.5215 29.5803C97.2026 28.2318 95.6238 27.166 93.8809 26.4477C92.138 25.7294 90.2674 25.3736 88.383 25.402C86.4356 25.4346 84.5159 25.8696 82.744 26.6796C80.9722 27.4896 79.3864 28.6572 78.0859 30.1093L77.8878 29.8845C76.59 28.4979 75.0273 27.3866 73.2925 26.6166C71.5577 25.8465 69.6862 25.4335 67.7889 25.402H67.5777C65.7303 25.4002 63.9013 25.769 62.1985 26.4866C60.4958 27.2042 58.9538 28.2562 57.6635 29.5803C56.2744 30.9906 55.1841 32.6674 54.4582 34.5102C53.7323 36.353 53.3855 38.3237 53.4389 40.304C53.6502 48.1186 57.2013 56.1713 63.6964 63.4438C67.3577 67.6208 71.6256 71.2224 76.3566 74.1278C76.8907 74.4137 77.4869 74.5632 78.0925 74.5632C78.6981 74.5632 79.2944 74.4137 79.8285 74.1278C81.7293 73.0069 83.539 71.7381 85.241 70.3328L86.0331 69.6849C86.1101 69.6173 86.167 69.5296 86.1973 69.4315C86.2276 69.3335 86.2301 69.229 86.2047 69.1296C86.1889 69.047 86.1526 68.9697 86.0992 68.9048C86.0305 68.8252 85.9407 68.7669 85.8402 68.7364C85.7397 68.706 85.6326 68.7048 85.5314 68.7329C85.4531 68.7492 85.3802 68.7857 85.3202 68.8387L84.5281 69.4866C82.8659 70.8513 81.1004 72.0848 79.2476 73.1757C78.874 73.3683 78.4598 73.4687 78.0396 73.4687C77.6194 73.4687 77.2054 73.3683 76.8318 73.1757C72.2245 70.6502 54.9439 57.7051 54.4819 40.2908C54.4428 38.454 54.7734 36.6282 55.4538 34.9222C56.1342 33.2161 57.1505 31.6647 58.4423 30.3605C59.6562 29.1186 61.1095 28.1371 62.714 27.4756C64.3186 26.8141 66.0408 26.4865 67.7757 26.5127C69.6732 26.544 71.541 26.9898 73.2488 27.8188C74.9566 28.6478 76.4632 29.8401 77.6635 31.3125C77.7164 31.373 77.7813 31.4219 77.854 31.456C77.9267 31.4902 78.0056 31.5089 78.0859 31.5109C78.1682 31.5099 78.2495 31.4917 78.3245 31.4576C78.3995 31.4234 78.4665 31.374 78.5215 31.3125C79.7217 29.8401 81.2283 28.6478 82.9361 27.8188C84.6439 26.9898 86.5119 26.544 88.4094 26.5127C90.1442 26.4873 91.866 26.8152 93.4704 27.4767C95.0749 28.1381 96.5283 29.1193 97.7427 30.3605C99.032 31.6665 100.047 33.2182 100.727 34.9239C101.407 36.6295 101.739 38.4544 101.703 40.2908C101.518 46.8096 99.0628 53.3152 94.2707 59.6224C94.2248 59.6818 94.1917 59.75 94.1735 59.8229C94.1553 59.8957 94.1525 59.9715 94.1651 60.0455C94.1768 60.1187 94.2041 60.1884 94.2451 60.25C94.2861 60.3116 94.3398 60.3636 94.4027 60.4025L96.9242 62.0951C96.9679 62.1264 97.0029 62.1682 97.026 62.2168C97.0491 62.2654 97.0595 62.319 97.0562 62.3727C97.0484 62.4266 97.0275 62.4778 96.9953 62.5216C96.963 62.5654 96.9204 62.6006 96.8713 62.624L87.3664 66.8288C87.3228 66.8557 87.2725 66.87 87.2212 66.87C87.17 66.87 87.1197 66.8557 87.076 66.8288C87.0311 66.8044 86.9935 66.7681 86.9679 66.7237C86.9423 66.6794 86.9296 66.6288 86.9309 66.5776L87.208 56.1581C87.2094 56.1058 87.2249 56.0549 87.2528 56.0106C87.2807 55.9664 87.3199 55.9306 87.3664 55.9068C87.4141 55.8776 87.4689 55.8622 87.5248 55.8622C87.5807 55.8622 87.6356 55.8776 87.6833 55.9068L90.4159 57.7448C90.5327 57.825 90.6759 57.8573 90.8158 57.8352C90.9558 57.8131 91.0819 57.7381 91.1684 57.6258C95.5645 51.821 97.8746 45.9633 98.0331 40.2114C98.0675 38.8738 97.8329 37.5428 97.343 36.298C96.8531 35.0531 96.1181 33.9197 95.1817 32.9654C94.3237 32.0836 93.2967 31.3844 92.1626 30.9095C91.0284 30.4346 89.8103 30.1939 88.581 30.2018H88.5017C87.0294 30.2304 85.5842 30.604 84.282 31.2929C82.9799 31.9818 81.8569 32.9667 81.0033 34.1686C80.6774 34.6271 80.2468 35.0009 79.7473 35.2589C79.2478 35.5168 78.6941 35.6514 78.1321 35.6514C77.5702 35.6514 77.0164 35.5168 76.5169 35.2589C76.0175 35.0009 75.5867 34.6271 75.2608 34.1686C74.4064 32.9674 73.2834 31.9831 71.9814 31.2943C70.6794 30.6055 69.2347 30.2314 67.7625 30.2018H67.6173C66.401 30.2023 65.1972 30.4472 64.077 30.9218C62.9569 31.3965 61.9431 32.0914 61.0958 32.9654C60.1593 33.9197 59.4243 35.0531 58.9344 36.298C58.4446 37.5428 58.2097 38.8738 58.2442 40.2114C58.6535 55.1796 73.8087 67.1065 77.8483 69.4866C77.9317 69.5381 78.0276 69.5653 78.1255 69.5653C78.2234 69.5653 78.3194 69.5381 78.4027 69.4866C80.5696 68.1255 82.6068 66.5674 84.4885 64.8322C84.5526 64.7636 84.6234 64.7016 84.6997 64.6471C84.7914 64.5449 84.842 64.4124 84.8419 64.2751C84.8417 64.1378 84.7908 64.0054 84.6989 63.9035C84.607 63.8016 84.4806 63.7375 84.3442 63.7234C84.2079 63.7093 84.0713 63.7463 83.9606 63.8273C82.1515 65.5068 80.199 67.0244 78.1255 68.3626C73.8351 65.7181 59.7229 54.3201 59.3401 40.185C59.3076 38.994 59.5153 37.8087 59.9508 36.6999C60.3863 35.5912 61.0406 34.5819 61.8746 33.7323C62.6218 32.9642 63.5147 32.3533 64.5009 31.9355C65.487 31.5177 66.5466 31.3014 67.6173 31.2993H67.7361C69.0318 31.3258 70.3033 31.6553 71.4493 32.2613C72.5953 32.8674 73.5841 33.7334 74.3367 34.7901C74.7655 35.3906 75.3311 35.88 75.9866 36.2177C76.6421 36.5553 77.3686 36.7314 78.1057 36.7314C78.8428 36.7314 79.5693 36.5553 80.2248 36.2177C80.8803 35.88 81.4459 35.3906 81.8746 34.7901C82.6273 33.7334 83.6161 32.8674 84.7621 32.2613C85.9081 31.6553 87.1796 31.3258 88.4753 31.2993C89.5669 31.2842 90.6502 31.4908 91.6599 31.9067C92.6696 32.3226 93.5848 32.9391 94.35 33.7191C95.1815 34.5704 95.8341 35.5801 96.2694 36.6884C96.7048 37.7967 96.914 38.9811 96.8845 40.1718C96.7393 45.5402 94.6008 51.0541 90.548 56.5283L88.2378 54.9812C88.0327 54.8325 87.7892 54.7459 87.5364 54.7318C87.2837 54.7177 87.0321 54.7768 86.8119 54.9019C86.5918 55.0183 86.4063 55.1908 86.2742 55.4021C86.142 55.6134 86.068 55.856 86.0595 56.1052L85.7954 66.2734V66.5115C85.7889 66.7482 85.8424 66.9827 85.9509 67.1931C86.0594 67.4036 86.2195 67.583 86.416 67.7147L86.6535 67.847C86.8288 67.9219 87.0175 67.9605 87.208 67.9605C87.3986 67.9605 87.5871 67.9219 87.7624 67.847L97.2806 63.6421C97.5117 63.5475 97.7112 63.3892 97.8561 63.1856C98.001 62.982 98.0852 62.7414 98.0991 62.4917C98.1285 62.2368 98.0873 61.9786 97.9802 61.7455C97.8731 61.5123 97.7043 61.3131 97.4919 61.1695" fill="#DEA81E"/>
<path d="M87.2633 48.581C88.9629 46.3185 90.1193 43.6942 90.6427 40.9118C91.0765 39.3355 91.1533 37.682 90.8672 36.0723C89.241 36.1195 87.6452 36.5259 86.1939 37.2623C83.5715 38.3303 81.2311 39.9912 79.3555 42.1151C79.0355 42.5031 78.7444 42.9141 78.4844 43.3448C79.5072 44.5326 80.3929 45.8322 81.1246 47.219L87.1576 39.8275C87.1989 39.7593 87.2544 39.7007 87.3203 39.6559C87.3862 39.6111 87.4609 39.581 87.5395 39.5677C87.6181 39.5545 87.6986 39.5583 87.7756 39.579C87.8525 39.5997 87.924 39.6367 87.9854 39.6876C88.0468 39.7385 88.0964 39.8021 88.1311 39.8739C88.1657 39.9458 88.1846 40.0243 88.1862 40.1041C88.1878 40.1838 88.1721 40.263 88.1404 40.3362C88.1087 40.4095 88.0617 40.475 88.0025 40.5283L81.6263 48.3298C82.1187 49.5099 82.4517 50.7505 82.6164 52.0189C84.4615 51.3141 86.0843 50.127 87.316 48.581" fill="#4550E5"/>
<path d="M81.5744 48.3308L87.9506 40.5293C88.0099 40.476 88.057 40.4105 88.0887 40.3373C88.1204 40.264 88.136 40.1848 88.1343 40.1051C88.1327 40.0253 88.1139 39.9468 88.0792 39.8749C88.0446 39.8031 87.9949 39.7395 87.9335 39.6886C87.8722 39.6377 87.8007 39.6007 87.7237 39.58C87.6468 39.5593 87.5664 39.5555 87.4878 39.5688C87.4093 39.582 87.3344 39.6121 87.2685 39.6569C87.2026 39.7018 87.147 39.7603 87.1057 39.8285L81.0728 47.2201C80.3411 45.8332 79.4554 44.5336 78.4325 43.3458C78.6957 42.9172 78.9868 42.5064 79.3039 42.1161C81.1794 39.9922 83.5196 38.3313 86.1421 37.2633C87.5905 36.5209 89.1886 36.1184 90.8154 36.0865C91.1017 37.6918 91.0249 39.3411 90.5909 40.9128C90.0674 43.6953 88.9111 46.3195 87.2114 48.582C85.982 50.1247 84.3643 51.3114 82.5249 52.0199C82.3492 50.7523 82.012 49.5125 81.5216 48.3308H81.5744ZM66.5381 43.0417C66.7625 39.5509 67.5282 37.303 67.8583 36.9989C68.3467 36.9063 70.4985 37.8055 73.2972 39.9608C76.2366 42.1614 78.6232 45.0182 80.2675 48.3043C81.2033 50.3594 81.6124 52.6158 81.4579 54.8693C81.3035 57.1227 80.5903 59.302 79.383 61.2097L74.1025 49.4283C74.0318 49.3138 73.9222 49.2289 73.7939 49.1894C73.6655 49.1499 73.5271 49.1584 73.4045 49.2133C73.2819 49.2682 73.1833 49.3659 73.1272 49.4881C73.071 49.6103 73.061 49.7488 73.0991 49.8778L78.3797 61.6593C76.152 61.3098 74.0467 60.4083 72.2554 59.0366C70.464 57.6649 69.0434 55.8665 68.1224 53.805C66.7516 50.3925 66.1869 46.7089 66.4722 43.0417H66.5381ZM87.9903 49.2563C89.8552 46.7867 91.1085 43.9091 91.6471 40.8599C91.9903 39.1013 92.3335 35.9146 91.449 35.2006C90.5645 34.4865 87.4886 35.4386 85.8649 36.1262C82.9933 37.2755 80.4332 39.0877 78.3929 41.4153C78.1157 41.759 77.8517 42.1161 77.6141 42.4731C76.4553 41.2049 75.1875 40.0413 73.8253 38.9955C71.5018 37.2104 68.5448 35.5179 67.4095 36.0204C66.2741 36.5229 65.5876 39.8814 65.3896 42.8169C65.0585 46.7225 65.6558 50.6511 67.1323 54.281C68.5288 57.3824 70.9479 59.9083 73.9837 61.4345C75.43 62.2027 77.0232 62.6535 78.657 62.7568C78.9176 62.768 79.1777 62.7275 79.4226 62.6378C80.1751 62.2807 81.4028 60.3106 82.0629 57.7321C82.4549 56.2272 82.6108 54.6703 82.5249 53.1174C84.6686 52.3766 86.5559 51.0369 87.9638 49.2563" fill="#DEA81E"/>
<path d="M78.4959 61.6708L73.2154 49.8893C73.1773 49.7603 73.1871 49.6218 73.2433 49.4996C73.2994 49.3774 73.398 49.2797 73.5206 49.2248C73.6432 49.1698 73.7816 49.1613 73.91 49.2009C74.0383 49.2404 74.1481 49.3253 74.2187 49.4397L79.4992 61.2212C80.7066 59.3135 81.4198 57.1342 81.5742 54.8808C81.7286 52.6273 81.3194 50.3709 80.3836 48.3158C78.7362 45.0281 76.3503 42.1677 73.4133 39.959C70.6542 37.8169 68.4628 36.9178 67.9744 37.0104C67.5783 37.3145 66.8126 39.5491 66.6542 43.0531C66.3685 46.716 66.9333 50.3955 68.3044 53.8032C69.2256 55.8659 70.6462 57.6657 72.4374 59.0395C74.2285 60.4133 76.3336 61.3177 78.5618 61.6708" fill="#4550E5"/>
</svg>
