<svg fill="none" height="258" viewBox="0 0 330 258" width="330" xmlns="http://www.w3.org/2000/svg"><g opacity=".5"><path d="m147.582.166707c-99.5033 3.747483-174.2382 94.464593-138.51614 171.074293 15.39074 32.993 53.72304 50.717 91.04814 43.074l1.473-.306c12.832-2.578 26.083-2.738 38.981-.469 12.898 2.27 25.186 6.922 36.146 13.686 47.934 29.342 101.936 48.044 135.113 6.228 47.133-59.374 6.069-239.69907-164.245-233.287293z" fill="#c3cdff" fill-opacity=".45"/><path d="m195.965 178.529-85.597.095c-1.943.017-3.815-.73-5.209-2.079-1.395-1.349-2.2-3.192-2.241-5.128l-.874-116.1309c.004-.9547.197-1.8994.568-2.7796s.913-1.6787 1.595-2.3494c.682-.6706 1.49-1.2003 2.378-1.5585s1.838-.5379 2.796-.5287l85.597-.087c1.944-.0211 3.817.7234 5.212 2.0716 1.395 1.3481 2.2 3.1908 2.239 5.1272l.873 116.1303c-.002.956-.194 1.901-.565 2.781-.37.881-.913 1.68-1.595 2.351s-1.49 1.201-2.379 1.558c-.889.358-1.839.537-2.798.527z" fill="#8585f6"/><path d="m185.485 90.2765-67.439.0696c-1.255.0117-2.465-.4708-3.366-1.3427-.901-.872-1.421-2.0629-1.446-3.3144l-.166-21.762c.002-.6165.127-1.2264.366-1.7949.239-.5684.589-1.0842 1.029-1.5177s.961-.7761 1.534-1.0083 1.186-.3494 1.805-.3448l67.447-.0697c1.255-.0117 2.464.4711 3.363 1.3433.9.8722 1.418 2.0632 1.441 3.3138l.174 21.8055c-.016 1.2391-.524 2.4212-1.413 3.2876s-2.086 1.3463-3.329 1.3347z" fill="#4550e5"/><path d="m185.485 90.2765-67.439.0696c-1.255.0117-2.465-.4708-3.366-1.3427-.901-.872-1.421-2.0629-1.446-3.3144l-.166-21.762c.002-.6165.127-1.2264.366-1.7949.239-.5684.589-1.0842 1.029-1.5177s.961-.7761 1.534-1.0083 1.186-.3494 1.805-.3448l67.447-.0697c1.255-.0117 2.464.4711 3.363 1.3433.9.8722 1.418 2.0632 1.441 3.3138l.174 21.8055c-.016 1.2391-.524 2.4212-1.413 3.2876s-2.086 1.3463-3.329 1.3347z" stroke="#fff" stroke-linecap="round" stroke-linejoin="round" stroke-width="1.57"/><g fill="#fff"><path d="m126.615 117.22h-6.778c-1.462.003-2.867-.572-3.906-1.598s-1.629-2.419-1.64-3.877c-.007-.729.131-1.452.406-2.128s.682-1.29 1.197-1.808 1.128-.93 1.803-1.21c.675-.281 1.4-.425 2.131-.425h6.778c1.464 0 2.868.576 3.907 1.603 1.039 1.028 1.628 2.422 1.64 3.881.004.728-.136 1.45-.412 2.124s-.683 1.287-1.197 1.804c-.515.517-1.127.927-1.801 1.208-.674.28-1.397.425-2.128.426z"/><path d="m155.322 117.185h-6.778c-1.464 0-2.868-.576-3.907-1.603-1.039-1.028-1.628-2.423-1.64-3.881-.006-.728.134-1.451.409-2.125.276-.675.683-1.288 1.198-1.806.514-.517 1.127-.927 1.802-1.207.674-.28 1.398-.424 2.129-.424h6.778c1.463-.005 2.869.569 3.908 1.595 1.04 1.026 1.629 2.422 1.638 3.88.007.729-.131 1.452-.406 2.128s-.682 1.29-1.197 1.808-1.128.929-1.803 1.21-1.4.425-2.131.425z"/><path d="m184.309 117.152h-6.778c-1.464.002-2.87-.573-3.909-1.601-1.04-1.028-1.628-2.424-1.637-3.883-.006-.729.133-1.451.408-2.126.276-.674.683-1.288 1.198-1.805s1.127-.927 1.802-1.207 1.398-.425 2.129-.425h6.778c1.463 0 2.868.577 3.907 1.604 1.038 1.027 1.628 2.422 1.639 3.88.006.729-.133 1.451-.409 2.126-.275.674-.682 1.288-1.197 1.805s-1.127.928-1.802 1.208-1.398.424-2.129.424z"/><path d="m126.776 137.886h-6.769c-1.464 0-2.869-.576-3.91-1.603-1.04-1.027-1.631-2.422-1.645-3.881-.006-.728.133-1.451.409-2.125.275-.675.682-1.288 1.197-1.805s1.127-.928 1.802-1.208 1.399-.424 2.129-.424h6.778c1.464-.002 2.87.573 3.909 1.601 1.04 1.028 1.628 2.424 1.638 3.883.007.729-.132 1.451-.407 2.127-.275.675-.682 1.289-1.197 1.806s-1.128.928-1.803 1.207c-.675.28-1.4.423-2.131.422z"/><path d="m155.491 137.858h-6.778c-1.464 0-2.869-.576-3.909-1.603s-1.632-2.422-1.646-3.881c-.004-.729.135-1.451.411-2.126.276-.674.683-1.288 1.198-1.805.514-.518 1.126-.929 1.8-1.211.675-.281 1.398-.427 2.129-.429h6.778c1.464 0 2.869.576 3.909 1.603 1.041 1.027 1.632 2.422 1.646 3.881.004.728-.135 1.45-.411 2.125s-.683 1.288-1.198 1.806c-.514.517-1.126.929-1.8 1.21s-1.398.428-2.129.43z"/><path d="m184.453 137.826h-6.769c-1.464 0-2.869-.576-3.91-1.603-1.04-1.027-1.631-2.422-1.645-3.881-.006-.729.133-1.451.409-2.126.276-.674.683-1.288 1.197-1.805.515-.517 1.128-.927 1.802-1.207.675-.281 1.399-.425 2.13-.425h6.778c1.464-.002 2.869.574 3.908 1.601 1.04 1.028 1.629 2.424 1.638 3.883.007.729-.131 1.452-.407 2.127-.275.675-.682 1.289-1.197 1.807-.515.517-1.128.927-1.803 1.207s-1.399.423-2.131.422z"/><path d="m126.929 158.56h-6.778c-1.464.002-2.869-.573-3.909-1.601-1.039-1.028-1.628-2.424-1.637-3.883-.007-.728.131-1.45.406-2.125.274-.674.68-1.288 1.195-1.805.514-.517 1.125-.928 1.8-1.208.674-.28 1.397-.424 2.128-.424h6.778c1.463-.003 2.868.571 3.909 1.597 1.04 1.026 1.632 2.42 1.646 3.878.007.729-.132 1.452-.407 2.128s-.682 1.29-1.197 1.808-1.127.929-1.803 1.21c-.675.281-1.399.425-2.131.425z"/><path d="m155.652 158.523h-6.778c-1.463.005-2.869-.569-3.908-1.595-1.04-1.027-1.629-2.422-1.638-3.88-.007-.73.131-1.453.406-2.128.276-.676.682-1.291 1.197-1.809s1.128-.929 1.803-1.209c.676-.281 1.4-.425 2.132-.425h6.777c1.464 0 2.868.576 3.907 1.603s1.628 2.422 1.64 3.881c.006.728-.133 1.45-.409 2.125s-.683 1.288-1.198 1.805c-.514.517-1.127.928-1.802 1.208-.674.28-1.398.424-2.129.424z"/></g><path d="m184.623 158.5h-6.778c-1.464.003-2.87-.573-3.909-1.601-1.04-1.027-1.628-2.423-1.637-3.883-.006-.728.132-1.45.407-2.124.276-.675.682-1.288 1.195-1.806.514-.518 1.125-.929 1.799-1.211.674-.281 1.397-.427 2.127-.43h6.778c1.464-.004 2.871.569 3.912 1.595s1.632 2.422 1.643 3.881c.007.729-.131 1.453-.406 2.129s-.682 1.291-1.196 1.81c-.515.519-1.128.931-1.803 1.212-.676.282-1.4.427-2.132.428z" fill="#f9b589"/><path d="m119.769 85.1588c-.509.0047-.999-.1912-1.364-.545-.365-.3537-.575-.8368-.584-1.3439.001-.25.052-.4972.149-.7276.098-.2304.24-.4393.418-.6148.179-.1755.39-.3142.623-.408.232-.0938.481-.1409.732-.1386.508-.0024.997.1942 1.361.5475.365.3533.575.835.587 1.3415-.001.2499-.052.4972-.149.7275-.098.2304-.24.4393-.418.6148-.179.1756-.39.3142-.623.408-.232.0938-.481.1409-.732.1386z" fill="#fff"/><path d="m123.653 167.707 55.952-.061" stroke="#fff" stroke-linecap="round" stroke-linejoin="round" stroke-width="1.57"/><path d="m208.868 191.209s-21.221-18.929-29.852-25.6c-8.631-6.672-6.1-15.192 5.192-11.525s18.262 8.686 18.262 8.686-6.49-11.091-13.914-30.402c-2.395-6.225-6.399-15.224-7.34-18.337-1.947-6.326-3.556-9.566.493-11.435 3.68-1.684 7.989 3.189 11.98 9.42 6.743 10.523 12.979 25.856 15.978 32.38 0 0-9.884-16.64-2.051-19.688 8.949-3.495 14.595 9.005 17.665 18.412 0 0-7.197-12.755-3.894-16.186 5.114-5.326 11.973-1.002 14.757 3.871-1.148-2.054 6.613-9.567 14.926 4.898 7.691 13.393 31.521 48.886-4.646 63.995-22.753 9.515-37.556-8.489-37.556-8.489z" fill="#f9a17b"/><path d="m202.497 128.846s6.397 13.555 10.226 22.497" stroke="#d87b5d" stroke-linecap="round" stroke-linejoin="round" stroke-width="3.45"/><path d="m218.857 130.893s6.246 8.035 8.182 14.316" stroke="#d87b5d" stroke-linecap="round" stroke-linejoin="round" stroke-width="3.45"/><path d="m235.221 130.893c1.841 3.187 3.218 6.632 4.09 10.225" stroke="#d87b5d" stroke-linecap="round" stroke-linejoin="round" stroke-width="3.45"/><path d="m222.944 190.802 32.734 31.459c9.625 9.257 24.953 9.078 34.133-.641l.343-.359c10.235-11.085 7.915-28.849-4.685-37.094l-40.815-26.688z" fill="#f9a17b"/><path d="m46.4055 148.226c.0307 1.227.31 2.435.821 3.552.8812 1.934 2.4056 3.506 4.3155 4.449 1.91.943 4.0882 1.2 6.1662.727 2.0781-.473 3.9285-1.647 5.2382-3.323 1.3098-1.676 1.9986-3.751 1.9498-5.875-.0474-1.231-.3445-2.439-.8734-3.552-.8776-1.937-2.4008-3.513-4.3113-4.459-1.9104-.946-4.0905-1.204-6.1701-.73-2.0797.473-3.9308 1.649-5.2395 3.328-1.3086 1.679-1.9941 3.758-1.94 5.883zm15.0406-2.89c.5098 1.118.6757 2.361.4767 3.572-.1991 1.212-.7541 2.337-1.595 3.234s-1.9298 1.526-3.1291 1.806-2.455.2-3.6084-.232c-1.1533-.431-2.1525-1.193-2.8712-2.19-.7186-.997-1.1244-2.184-1.1661-3.411s.2826-2.438.9319-3.482c.6493-1.043 1.5945-1.871 2.7159-2.378 1.5006-.681 3.2103-.741 4.7553-.168 1.5451.572 2.7998 1.731 3.49 3.223z" fill="#c5cbeb"/><path d="m68.6824 168.117c.0517 1.233.3485 2.443.8734 3.561.9713 2.047 2.6707 3.662 4.7688 4.532 2.098.87 4.4453.932 6.587.176 2.1417-.757 3.9253-2.279 5.005-4.272s1.3787-4.314.839-6.514-1.8796-4.122-3.7601-5.393-4.1676-1.802-6.418-1.488c-2.2505.313-4.304 1.448-5.7627 3.185-1.4587 1.736-2.2186 3.95-2.1324 6.213zm15.0406-2.881c.5081 1.116.6729 2.358.4733 3.567s-.7546 2.333-1.5947 3.228c-.84.895-1.9276 1.522-3.125 1.801-1.1975.279-2.4511.198-3.6024-.233-1.1514-.43-2.1487-1.192-2.866-2.187-.7173-.996-1.1223-2.181-1.1638-3.406s.2824-2.434.9306-3.476c.6483-1.042 1.5919-1.868 2.7115-2.375.7438-.337 1.5469-.525 2.3635-.552.8165-.028 1.6305.105 2.3954.392.7649.286 1.4657.719 2.0624 1.276.5967.556 1.0776 1.224 1.4152 1.965z" fill="#c5cbeb"/><path d="m79.7848 144.805-25.4346 30.336c-.3414.405-.8297.659-1.3583.706s-1.0545-.116-1.4628-.454c-.4064-.34-.6611-.827-.7085-1.354-.0475-.526.1161-1.05.4551-1.457l25.4347-30.337c.3414-.405.8297-.658 1.3583-.706.5286-.047 1.0545.116 1.4629.454.4063.34.661.827.7085 1.354.0474.527-.1163 1.051-.4553 1.458z" fill="#c5cbeb"/><path d="m221.999 48.3633h38.527v25.7488h-39.855v-19.3073" stroke="#bcc2e0" stroke-linecap="round" stroke-linejoin="round" stroke-width="2"/><path d="m223.838 51.5144 17.277 12.7264 19.417-15.8775" stroke="#bcc2e0" stroke-linecap="round" stroke-linejoin="round" stroke-width="2"/><path d="m102.138 70.9492c10.134-10.0997 10.134-26.4746 0-36.5743-10.1342-10.0997-26.5647-10.0997-36.6988 0-10.134 10.0997-10.1341 26.4746 0 36.5744 10.134 10.0997 26.5646 10.0996 36.6988-.0001z" fill="#f79f59"/><path d="m71.8096 48.0717 11.4158 16.3215 13.8964-23.7467" stroke="#fff" stroke-linecap="round" stroke-linejoin="round" stroke-width="2.15"/></g></svg>