<svg width="387" height="391" viewBox="0 0 387 391" fill="none" xmlns="http://www.w3.org/2000/svg">
<path opacity="0.41" d="M128.219 52.7202C84.574 78.6359 30.1946 122.15 11.9464 153.198C-13.8324 197.066 3.49789 220.946 50.5677 235.104C103.732 251.099 41.5667 330.547 74.519 369.165C128.694 432.667 253.857 343.082 304.08 285.853C391.106 186.625 406.693 68.5783 364.562 26.3031C320.407 -18.1646 224.007 -4.1941 128.219 52.7202Z" fill="url(#paint0_linear_4962_18058)"/>
<g clip-path="url(#clip0_4962_18058)">
<path d="M201.972 38H90.0742V356H201.972V38Z" fill="#FFB18F"/>
<path d="M201.972 294.047H90.0742V356H201.972V294.047Z" fill="#7D5A6C"/>
<path d="M98.4949 303.912H96.5938V355.991H98.4949V303.912Z" fill="#9C7187"/>
<path d="M195.452 303.912H193.551V355.991H195.452V303.912Z" fill="#9C7187"/>
<path d="M91.9754 303.912H90.0742V355.991H91.9754V303.912Z" fill="#9C7187"/>
<path d="M201.972 38H90.0742V220.583H201.972V38Z" fill="#FFB18F"/>
<path d="M201.972 41.3037H90.0742V55.8966H201.972V41.3037Z" fill="#CFC3B9"/>
<path d="M201.072 46.0967H90.0742V47.4662H201.072V46.0967Z" fill="#FEEFE0"/>
<path d="M102.289 51.5845H95.0742V55.9059H102.289V51.5845Z" fill="#FEEFE0"/>
<path d="M113.723 51.5845H106.508V55.9059H113.723V51.5845Z" fill="#FEEFE0"/>
<path d="M125.149 51.5845H117.934V55.9059H125.149V51.5845Z" fill="#FEEFE0"/>
<path d="M136.574 51.5845H129.359V55.9059H136.574V51.5845Z" fill="#FEEFE0"/>
<path d="M148.008 51.5845H140.793V55.9059H148.008V51.5845Z" fill="#FEEFE0"/>
<path d="M159.434 51.5845H152.219V55.9059H159.434V51.5845Z" fill="#FEEFE0"/>
<path d="M170.86 51.5845H163.645V55.9059H170.86V51.5845Z" fill="#FEEFE0"/>
<path d="M182.293 51.5845H175.078V55.9059H182.293V51.5845Z" fill="#FEEFE0"/>
<path d="M193.719 51.5845H186.504V55.9059H193.719V51.5845Z" fill="#FEEFE0"/>
<path d="M201.972 270.191H90.0742V294.047H201.972V270.191Z" fill="#5A364D"/>
<path d="M196.187 266.934H84.2891V270.191H196.187V266.934Z" fill="#FEEFE0"/>
<path d="M111.393 163.127C105.532 163.127 100.766 167.403 100.766 172.659H108.101C108.177 171.841 108.556 171.08 109.164 170.527C109.772 169.973 110.566 169.666 111.389 169.666C112.212 169.666 113.005 169.973 113.614 170.527C114.222 171.08 114.601 171.841 114.676 172.659H122.012C122.012 167.403 117.245 163.127 111.393 163.127Z" fill="#FFB1AD"/>
<path d="M111.394 166.421C107.546 166.421 104.43 169.197 104.43 172.658V196.847H118.34V172.658C118.35 169.207 115.234 166.421 111.394 166.421Z" fill="#5A364D"/>
<path d="M112.61 168.355C109.448 168.355 106.879 170.66 106.879 173.5V196.847H118.351V173.5C118.351 170.66 115.782 168.355 112.61 168.355Z" fill="#65B6D9"/>
<path d="M118.349 186.724H106.887V196.847H118.349V186.724Z" fill="#4395B5"/>
<path d="M118.352 181.523H106.871V183.698H118.352V181.523Z" fill="#5A364D"/>
<path d="M118.349 196.847H101.184V198.698H118.349V196.847Z" fill="#FEEFE0"/>
<path d="M118.352 196.847H116.441V198.698H118.352V196.847Z" fill="#5A364D"/>
<path d="M146.022 163.127C140.161 163.127 135.395 167.403 135.395 172.659H142.73C142.806 171.841 143.185 171.08 143.793 170.527C144.401 169.973 145.194 169.666 146.018 169.666C146.841 169.666 147.634 169.973 148.243 170.527C148.851 171.08 149.23 171.841 149.305 172.659H156.641C156.641 167.403 151.883 163.127 146.022 163.127Z" fill="#FFB1AD"/>
<path d="M146.022 166.421C142.173 166.421 139.066 169.197 139.066 172.658V196.847H152.977V172.658C152.977 169.207 149.861 166.421 146.022 166.421Z" fill="#5A364D"/>
<path d="M147.248 168.355C144.077 168.355 141.508 170.66 141.508 173.5V196.847H152.98V173.5C152.98 170.66 150.411 168.355 147.248 168.355Z" fill="#65B6D9"/>
<path d="M152.978 186.724H141.516V196.847H152.978V186.724Z" fill="#4395B5"/>
<path d="M152.977 181.523H141.496V183.698H152.977V181.523Z" fill="#5A364D"/>
<path d="M152.99 196.847H135.824V198.698H152.99V196.847Z" fill="#FEEFE0"/>
<path d="M152.981 196.847H151.07V198.698H152.981V196.847Z" fill="#5A364D"/>
<path d="M180.651 163.127C174.79 163.127 170.023 167.403 170.023 172.659H177.359C177.435 171.841 177.814 171.08 178.422 170.527C179.03 169.973 179.823 169.666 180.647 169.666C181.47 169.666 182.263 169.973 182.871 170.527C183.48 171.08 183.859 171.841 183.934 172.659H191.279C191.279 167.403 186.512 163.127 180.651 163.127Z" fill="#FFB1AD"/>
<path d="M180.651 166.421C176.811 166.421 173.695 169.197 173.695 172.658V196.847H187.606V172.658C187.606 169.207 184.49 166.421 180.651 166.421Z" fill="#5A364D"/>
<path d="M181.876 168.355C178.704 168.355 176.145 170.66 176.145 173.5V196.847H187.607V173.5C187.607 170.66 185.038 168.355 181.876 168.355Z" fill="#65B6D9"/>
<path d="M187.607 186.724H176.145V196.847H187.607V186.724Z" fill="#4395B5"/>
<path d="M187.618 181.523H176.137V183.698H187.618V181.523Z" fill="#5A364D"/>
<path d="M187.615 196.847H170.449V198.698H187.615V196.847Z" fill="#FEEFE0"/>
<path d="M187.606 196.847H185.695V198.698H187.606V196.847Z" fill="#5A364D"/>
<path d="M111.393 219.083C105.532 219.083 100.766 223.359 100.766 228.605H108.101C108.197 227.803 108.584 227.063 109.19 226.526C109.796 225.989 110.578 225.692 111.389 225.692C112.199 225.692 112.981 225.989 113.587 226.526C114.193 227.063 114.581 227.803 114.676 228.605H122.012C122.012 223.359 117.245 219.083 111.393 219.083Z" fill="#FFB1AD"/>
<path d="M111.394 222.369C107.546 222.369 104.43 225.145 104.43 228.606V252.794H118.34V228.606C118.35 225.163 115.234 222.369 111.394 222.369Z" fill="#5A364D"/>
<path d="M112.61 224.312C109.448 224.312 106.879 226.607 106.879 229.448V252.795H118.351V229.448C118.351 226.607 115.782 224.312 112.61 224.312Z" fill="#65B6D9"/>
<path d="M118.349 242.68H106.887V252.804H118.349V242.68Z" fill="#4395B5"/>
<path d="M118.352 237.471H106.871V239.645H118.352V237.471Z" fill="#5A364D"/>
<path d="M118.349 252.804H101.184V254.654H118.349V252.804Z" fill="#FEEFE0"/>
<path d="M118.352 252.804H116.441V254.654H118.352V252.804Z" fill="#5A364D"/>
<path d="M146.022 219.083C140.161 219.083 135.395 223.359 135.395 228.605H142.73C142.826 227.803 143.213 227.063 143.819 226.526C144.425 225.989 145.207 225.692 146.018 225.692C146.828 225.692 147.61 225.989 148.216 226.526C148.822 227.063 149.21 227.803 149.305 228.605H156.641C156.641 223.359 151.883 219.083 146.022 219.083Z" fill="#FFB1AD"/>
<path d="M146.022 222.369C142.173 222.369 139.066 225.145 139.066 228.606V252.794H152.977V228.606C152.977 225.163 149.861 222.369 146.022 222.369Z" fill="#5A364D"/>
<path d="M147.248 224.312C144.077 224.312 141.508 226.607 141.508 229.448V252.795H152.98V229.448C152.98 226.607 150.411 224.312 147.248 224.312Z" fill="#65B6D9"/>
<path d="M152.978 242.68H141.516V252.804H152.978V242.68Z" fill="#4395B5"/>
<path d="M152.977 237.471H141.496V239.645H152.977V237.471Z" fill="#5A364D"/>
<path d="M152.99 252.804H135.824V254.654H152.99V252.804Z" fill="#FEEFE0"/>
<path d="M152.981 252.804H151.07V254.654H152.981V252.804Z" fill="#5A364D"/>
<path d="M180.651 219.083C174.79 219.083 170.023 223.359 170.023 228.605H177.359C177.455 227.803 177.842 227.063 178.448 226.526C179.054 225.989 179.836 225.692 180.647 225.692C181.457 225.692 182.239 225.989 182.845 226.526C183.451 227.063 183.838 227.803 183.934 228.605H191.279C191.279 223.359 186.512 219.083 180.651 219.083Z" fill="#FFB1AD"/>
<path d="M180.651 222.369C176.811 222.369 173.695 225.145 173.695 228.606V252.794H187.606V228.606C187.606 225.163 184.49 222.369 180.651 222.369Z" fill="#5A364D"/>
<path d="M181.876 224.312C178.704 224.312 176.145 226.607 176.145 229.448V252.795H187.607V229.448C187.607 226.607 185.038 224.312 181.876 224.312Z" fill="#65B6D9"/>
<path d="M187.607 242.68H176.145V252.804H187.607V242.68Z" fill="#4395B5"/>
<path d="M187.618 237.471H176.137V239.645H187.618V237.471Z" fill="#5A364D"/>
<path d="M187.615 252.804H170.449V254.654H187.615V252.804Z" fill="#FEEFE0"/>
<path d="M187.606 252.804H185.695V254.654H187.606V252.804Z" fill="#5A364D"/>
<path d="M118.352 77.5591H104.441V107.985H118.352V77.5591Z" fill="#5A364D"/>
<path d="M118.349 79.4932H106.887V107.985H118.349V79.4932Z" fill="#65B6D9"/>
<path d="M118.349 97.8613H106.887V107.985H118.349V97.8613Z" fill="#4395B5"/>
<path opacity="0.33" d="M106.879 102.923C110.663 102.923 113.723 100.147 113.723 96.7881V79.4932H106.879V102.923Z" fill="white"/>
<path d="M118.352 92.6519H106.871V94.8265H118.352V92.6519Z" fill="#5A364D"/>
<path d="M118.352 72.4141H104.441V77.5498H118.352V72.4141Z" fill="#FEEFE0"/>
<path d="M118.349 107.985H101.184V109.836H118.349V107.985Z" fill="#FEEFE0"/>
<path d="M118.352 107.985H116.441V109.836H118.352V107.985Z" fill="#5A364D"/>
<path d="M152.977 77.5591H139.066V107.985H152.977V77.5591Z" fill="#5A364D"/>
<path d="M152.978 79.4932H141.516V107.985H152.978V79.4932Z" fill="#65B6D9"/>
<path d="M152.978 97.8613H141.516V107.985H152.978V97.8613Z" fill="#4395B5"/>
<path opacity="0.33" d="M141.508 102.923C145.292 102.923 148.352 100.147 148.352 96.7881V79.4932H141.508V102.923Z" fill="white"/>
<path d="M152.977 92.6519H141.496V94.8265H152.977V92.6519Z" fill="#5A364D"/>
<path d="M152.977 72.4141H139.066V77.5498H152.977V72.4141Z" fill="#FEEFE0"/>
<path d="M152.99 107.985H135.824V109.836H152.99V107.985Z" fill="#FEEFE0"/>
<path d="M152.981 107.985H151.07V109.836H152.981V107.985Z" fill="#5A364D"/>
<path d="M187.606 77.5591H173.695V107.985H187.606V77.5591Z" fill="#5A364D"/>
<path d="M187.607 79.4932H176.145V107.985H187.607V79.4932Z" fill="#65B6D9"/>
<path d="M187.607 97.8613H176.145V107.985H187.607V97.8613Z" fill="#4395B5"/>
<path opacity="0.33" d="M176.145 102.923C179.919 102.923 182.979 100.147 182.979 96.7881V79.4932H176.145V102.923Z" fill="white"/>
<path d="M187.618 92.6519H176.137V94.8265H187.618V92.6519Z" fill="#5A364D"/>
<path d="M187.606 72.4141H173.695V77.5498H187.606V72.4141Z" fill="#FEEFE0"/>
<path d="M187.615 107.985H170.449V109.836H187.615V107.985Z" fill="#FEEFE0"/>
<path d="M187.606 107.985H185.695V109.836H187.606V107.985Z" fill="#5A364D"/>
<path d="M193.553 303.912H98.4961V355.991H193.553V303.912Z" fill="#5A364D"/>
<path d="M193.55 305.854H100.691V356H193.55V305.854Z" fill="#65B6D9"/>
<path d="M193.55 332.042H100.691V355.991H193.55V332.042Z" fill="#4395B5"/>
<path opacity="0.33" d="M100.691 342.629H129.579C142.507 342.629 152.986 333.236 152.986 321.651V305.855H100.691V342.629Z" fill="white"/>
<path d="M201.973 38H186.652V41.3035H201.973V38Z" fill="#7D5A6C"/>
<path d="M186.652 38H72V41.3035H186.652V38Z" fill="#FEEFE0"/>
<path d="M188.555 41.2944V47.189C188.555 52.0008 192.904 55.8966 198.264 55.8966H201.918V41.2944H188.555Z" fill="#FEEFE0"/>
<path d="M192.262 47.189C192.262 52.0008 196.611 55.8966 201.971 55.8966V41.2944H192.262V47.189Z" fill="#7D5A6C"/>
<path d="M76.6445 41.2944V47.189C76.6445 52.0008 80.9939 55.8966 86.3542 55.8966H90.0081V41.2944H76.6445Z" fill="#FEEFE0"/>
<path d="M80.3555 47.189C80.3555 52.0008 84.7049 55.8966 90.0651 55.8966V41.2944H80.3555V47.189Z" fill="#7D5A6C"/>
<path d="M201.916 55.8965H90.0742V62.4758H201.916V55.8965Z" fill="#FEEFE0"/>
<path d="M201.982 266.934H196.195V270.191H201.982V266.934Z" fill="#7D5A6C"/>
<path d="M196.187 131.998H84.2891V135.255H196.187V131.998Z" fill="#FEEFE0"/>
<path d="M201.982 131.998H196.195V135.255H201.982V131.998Z" fill="#7D5A6C"/>
<path d="M187.495 303.912H185.297V355.991H187.495V303.912Z" fill="#5A364D"/>
<path d="M169.839 303.912H167.641V355.991H169.839V303.912Z" fill="#5A364D"/>
<path d="M135.397 303.912H133.199V355.991H135.397V303.912Z" fill="#5A364D"/>
<path d="M187.496 317.144H167.641V318.93H187.496V317.144Z" fill="#5A364D"/>
<path d="M88.3398 303.125V303.921H98.541V294.047C92.9118 294.047 88.3398 298.091 88.3398 303.125Z" fill="#D9807C"/>
<path d="M313.816 38H201.918V356H313.816V38Z" fill="#FFB18F"/>
<path d="M313.816 294.047H201.918V356H313.816V294.047Z" fill="#7D5A6C"/>
<path d="M202.874 303.912H200.973V355.991H202.874V303.912Z" fill="#9C7187"/>
<path d="M210.292 303.912H208.391V355.991H210.292V303.912Z" fill="#9C7187"/>
<path d="M313.816 38H201.918V220.583H313.816V38Z" fill="#FFB18F"/>
<path d="M313.816 41.3037H201.918V55.8966H313.816V41.3037Z" fill="#CFC3B9"/>
<path d="M312.916 46.0967H201.918V47.4662H312.916V46.0967Z" fill="#FEEFE0"/>
<path d="M214.141 51.5845H206.926V55.9059H214.141V51.5845Z" fill="#FEEFE0"/>
<path d="M225.567 51.5845H218.352V55.9059H225.567V51.5845Z" fill="#FEEFE0"/>
<path d="M236.988 51.5845H229.773V55.9059H236.988V51.5845Z" fill="#FEEFE0"/>
<path d="M248.426 51.5845H241.211V55.9059H248.426V51.5845Z" fill="#FEEFE0"/>
<path d="M259.852 51.5845H252.637V55.9059H259.852V51.5845Z" fill="#FEEFE0"/>
<path d="M271.278 51.5845H264.062V55.9059H271.278V51.5845Z" fill="#FEEFE0"/>
<path d="M282.711 51.5845H275.496V55.9059H282.711V51.5845Z" fill="#FEEFE0"/>
<path d="M294.137 51.5845H286.922V55.9059H294.137V51.5845Z" fill="#FEEFE0"/>
<path d="M305.563 51.5845H298.348V55.9059H305.563V51.5845Z" fill="#FEEFE0"/>
<path d="M313.816 270.191H201.918V294.047H313.816V270.191Z" fill="#5A364D"/>
<g style="mix-blend-mode:multiply" opacity="0.35">
<path d="M313.749 270.191H90.0742V274.096H313.749V270.191Z" fill="#2C2334"/>
</g>
<g style="mix-blend-mode:multiply" opacity="0.35">
<path d="M193.551 303.93H90.0742V315.442H193.551V303.93Z" fill="#2C2334"/>
</g>
<path d="M308.027 266.934H196.129V270.191H308.027V266.934Z" fill="#FEEFE0"/>
<path d="M223.237 163.127C217.376 163.127 212.609 167.403 212.609 172.659H219.963C220.05 171.85 220.433 171.102 221.039 170.558C221.645 170.014 222.431 169.713 223.246 169.713C224.062 169.713 224.848 170.014 225.454 170.558C226.06 171.102 226.443 171.85 226.529 172.659H233.874C233.874 167.403 229.098 163.127 223.237 163.127Z" fill="#FFB1AD"/>
<path d="M223.237 166.421C219.397 166.421 216.281 169.197 216.281 172.658V196.847H230.192V172.658C230.164 169.207 227.076 166.421 223.237 166.421Z" fill="#5A364D"/>
<path d="M224.462 168.355C221.29 168.355 218.73 170.66 218.73 173.5V196.847H230.165V173.5C230.165 170.66 227.624 168.355 224.462 168.355Z" fill="#65B6D9"/>
<path d="M230.193 186.724H218.73V196.847H230.193V186.724Z" fill="#4395B5"/>
<path d="M230.204 181.523H218.723V183.698H230.204V181.523Z" fill="#5A364D"/>
<path d="M230.201 196.847H213.035V198.698H230.201V196.847Z" fill="#FEEFE0"/>
<path d="M230.192 196.847H228.281V198.698H230.192V196.847Z" fill="#5A364D"/>
<path d="M257.866 163.127C252.005 163.127 247.238 167.403 247.238 172.659H254.583C254.659 171.841 255.038 171.08 255.646 170.527C256.254 169.973 257.048 169.666 257.871 169.666C258.694 169.666 259.487 169.973 260.096 170.527C260.704 171.08 261.083 171.841 261.158 172.659H268.494C268.494 167.403 263.727 163.127 257.866 163.127Z" fill="#FFB1AD"/>
<path d="M257.866 166.421C254.026 166.421 250.91 169.197 250.91 172.658V196.847H264.821V172.658C264.821 169.207 261.696 166.421 257.866 166.421Z" fill="#5A364D"/>
<path d="M259.091 168.355C255.928 168.355 253.359 170.66 253.359 173.5V196.847H264.822V173.5C264.822 170.66 262.253 168.355 259.091 168.355Z" fill="#65B6D9"/>
<path d="M264.822 186.724H253.359V196.847H264.822V186.724Z" fill="#4395B5"/>
<path d="M264.829 181.523H253.348V183.698H264.829V181.523Z" fill="#5A364D"/>
<path d="M264.83 196.847H247.664V198.698H264.83V196.847Z" fill="#FEEFE0"/>
<path d="M264.821 196.847H262.91V198.698H264.821V196.847Z" fill="#5A364D"/>
<path d="M292.495 163.127C286.643 163.127 281.867 167.403 281.867 172.659H289.212C289.288 171.841 289.667 171.08 290.275 170.527C290.883 169.973 291.676 169.666 292.5 169.666C293.323 169.666 294.116 169.973 294.724 170.527C295.333 171.08 295.712 171.841 295.787 172.659H303.123C303.123 167.403 298.356 163.127 292.495 163.127Z" fill="#FFB1AD"/>
<path d="M292.494 166.421C288.655 166.421 285.539 169.197 285.539 172.658V196.847H299.45V172.658C299.45 169.207 296.343 166.421 292.494 166.421Z" fill="#5A364D"/>
<path d="M293.719 168.355C290.557 168.355 287.988 170.66 287.988 173.5V196.847H299.451V173.5C299.451 170.66 296.937 168.355 293.719 168.355Z" fill="#65B6D9"/>
<path d="M299.451 186.724H287.988V196.847H299.451V186.724Z" fill="#4395B5"/>
<path d="M299.458 181.523H287.977V183.698H299.458V181.523Z" fill="#5A364D"/>
<path d="M299.459 196.847H282.293V198.698H299.459V196.847Z" fill="#FEEFE0"/>
<path d="M299.457 196.847H297.547V198.698H299.457V196.847Z" fill="#5A364D"/>
<path d="M223.237 219.083C217.376 219.083 212.609 223.359 212.609 228.605H219.963C220.05 227.797 220.433 227.048 221.039 226.505C221.645 225.961 222.431 225.66 223.246 225.66C224.062 225.66 224.848 225.961 225.454 226.505C226.06 227.048 226.443 227.797 226.529 228.605H233.874C233.874 223.359 229.098 219.083 223.237 219.083Z" fill="#FFB1AD"/>
<path d="M223.237 222.369C219.397 222.369 216.281 225.145 216.281 228.606V252.794H230.192V228.606C230.164 225.163 227.076 222.369 223.237 222.369Z" fill="#5A364D"/>
<path d="M224.462 224.312C221.29 224.312 218.73 226.607 218.73 229.448V252.795H230.165V229.448C230.165 226.607 227.624 224.312 224.462 224.312Z" fill="#65B6D9"/>
<path d="M230.193 242.68H218.73V252.804H230.193V242.68Z" fill="#4395B5"/>
<path d="M230.204 237.471H218.723V239.645H230.204V237.471Z" fill="#5A364D"/>
<path d="M230.201 252.804H213.035V254.654H230.201V252.804Z" fill="#FEEFE0"/>
<path d="M230.192 252.804H228.281V254.654H230.192V252.804Z" fill="#5A364D"/>
<path d="M257.866 219.083C252.005 219.083 247.238 223.359 247.238 228.605H254.583C254.679 227.803 255.066 227.063 255.672 226.526C256.278 225.989 257.06 225.692 257.871 225.692C258.681 225.692 259.463 225.989 260.069 226.526C260.675 227.063 261.063 227.803 261.158 228.605H268.494C268.494 223.359 263.727 219.083 257.866 219.083Z" fill="#FFB1AD"/>
<path d="M257.866 222.369C254.026 222.369 250.91 225.145 250.91 228.606V252.794H264.821V228.606C264.821 225.163 261.696 222.369 257.866 222.369Z" fill="#5A364D"/>
<path d="M259.091 224.312C255.928 224.312 253.359 226.607 253.359 229.448V252.795H264.822V229.448C264.822 226.607 262.253 224.312 259.091 224.312Z" fill="#65B6D9"/>
<path d="M264.822 242.68H253.359V252.804H264.822V242.68Z" fill="#4395B5"/>
<path d="M264.829 237.471H253.348V239.645H264.829V237.471Z" fill="#5A364D"/>
<path d="M264.83 252.804H247.664V254.654H264.83V252.804Z" fill="#FEEFE0"/>
<path d="M264.821 252.804H262.91V254.654H264.821V252.804Z" fill="#5A364D"/>
<path d="M292.495 219.083C286.643 219.083 281.867 223.359 281.867 228.605H289.212C289.308 227.803 289.695 227.063 290.301 226.526C290.907 225.989 291.689 225.692 292.5 225.692C293.31 225.692 294.092 225.989 294.698 226.526C295.304 227.063 295.691 227.803 295.787 228.605H303.123C303.123 223.359 298.356 219.083 292.495 219.083Z" fill="#FFB1AD"/>
<path d="M292.494 222.369C288.655 222.369 285.539 225.145 285.539 228.606V252.794H299.45V228.606C299.45 225.163 296.343 222.369 292.494 222.369Z" fill="#5A364D"/>
<path d="M293.719 224.312C290.557 224.312 287.988 226.607 287.988 229.448V252.795H299.451V229.448C299.451 226.607 296.937 224.312 293.719 224.312Z" fill="#65B6D9"/>
<path d="M299.451 242.68H287.988V252.804H299.451V242.68Z" fill="#4395B5"/>
<path d="M299.458 237.471H287.977V239.645H299.458V237.471Z" fill="#5A364D"/>
<path d="M299.459 252.804H282.293V254.654H299.459V252.804Z" fill="#FEEFE0"/>
<path d="M299.457 252.804H297.547V254.654H299.457V252.804Z" fill="#5A364D"/>
<path d="M230.192 77.5591H216.281V107.985H230.192V77.5591Z" fill="#5A364D"/>
<path d="M230.193 79.4932H218.73V107.985H230.193V79.4932Z" fill="#65B6D9"/>
<path d="M230.193 97.8613H218.73V107.985H230.193V97.8613Z" fill="#4395B5"/>
<path d="M230.204 92.6519H218.723V94.8265H230.204V92.6519Z" fill="#5A364D"/>
<path d="M230.192 72.4141H216.281V77.5498H230.192V72.4141Z" fill="#FEEFE0"/>
<path d="M230.201 107.985H213.035V109.836H230.201V107.985Z" fill="#FEEFE0"/>
<path d="M230.192 107.985H228.281V109.836H230.192V107.985Z" fill="#5A364D"/>
<path d="M264.821 77.5591H250.91V107.985H264.821V77.5591Z" fill="#5A364D"/>
<path d="M264.822 79.4932H253.359V107.985H264.822V79.4932Z" fill="#65B6D9"/>
<path d="M264.822 97.8613H253.359V107.985H264.822V97.8613Z" fill="#4395B5"/>
<path d="M264.829 92.6519H253.348V94.8265H264.829V92.6519Z" fill="#5A364D"/>
<path d="M264.821 72.4141H250.91V77.5498H264.821V72.4141Z" fill="#FEEFE0"/>
<path d="M264.83 107.985H247.664V109.836H264.83V107.985Z" fill="#FEEFE0"/>
<path d="M264.821 107.985H262.91V109.836H264.821V107.985Z" fill="#5A364D"/>
<path d="M299.45 77.5591H285.539V107.985H299.45V77.5591Z" fill="#5A364D"/>
<path d="M299.451 79.4932H287.988V107.985H299.451V79.4932Z" fill="#65B6D9"/>
<path d="M299.451 97.8613H287.988V107.985H299.451V97.8613Z" fill="#4395B5"/>
<path d="M299.458 92.6519H287.977V94.8265H299.458V92.6519Z" fill="#5A364D"/>
<path d="M299.45 72.4141H285.539V77.5498H299.45V72.4141Z" fill="#FEEFE0"/>
<path d="M299.459 107.985H282.293V109.836H299.459V107.985Z" fill="#FEEFE0"/>
<path d="M299.457 107.985H297.547V109.836H299.457V107.985Z" fill="#5A364D"/>
<path d="M305.392 303.912H210.336V355.991H305.392V303.912Z" fill="#5A364D"/>
<path d="M305.394 305.854H212.535V356H305.394V305.854Z" fill="#65B6D9"/>
<path d="M305.394 332.042H212.535V355.991H305.394V332.042Z" fill="#4395B5"/>
<path opacity="0.33" d="M212.543 337.808H245.113C257.465 337.808 267.472 328.832 267.472 317.764V305.855H212.543V337.808Z" fill="white"/>
<path d="M279.483 341.213H212.535V356H279.483V341.213Z" fill="#5A364D"/>
<path d="M305.459 341.213H297.141V356H305.459V341.213Z" fill="#5A364D"/>
<path d="M313.824 38H298.504V41.3035H313.824V38Z" fill="#7D5A6C"/>
<path d="M298.496 38H183.844V41.3035H298.496V38Z" fill="#FEEFE0"/>
<path d="M313.76 55.8965H201.918V62.4758H313.76V55.8965Z" fill="#FEEFE0"/>
<g style="mix-blend-mode:multiply" opacity="0.35">
<path d="M313.822 156.474V41.3037H80.3633L313.822 156.474Z" fill="#2C2334"/>
</g>
<path d="M300.395 41.2944V47.189C300.395 52.0008 304.744 55.8966 310.104 55.8966H313.758V41.2944H300.395Z" fill="#FEEFE0"/>
<path d="M304.105 47.0315C304.105 51.9266 308.538 55.8964 314.001 55.8964V41.0259H304.105V47.0315Z" fill="#7D5A6C"/>
<g style="mix-blend-mode:multiply" opacity="0.35">
<path d="M304.103 41.3037H76.5703V45.2087H304.103V41.3037Z" fill="#2C2334"/>
</g>
<path d="M305.392 294.047H210.336V303.912H305.392V294.047Z" fill="#D9807C"/>
<path d="M313.822 266.934H308.035V270.191H313.822V266.934Z" fill="#7D5A6C"/>
<path d="M308.027 131.998H196.129V135.255H308.027V131.998Z" fill="#FEEFE0"/>
<path d="M313.822 131.998H308.035V135.255H313.822V131.998Z" fill="#7D5A6C"/>
<path d="M299.339 303.912H297.141V355.991H299.339V303.912Z" fill="#5A364D"/>
<path d="M281.682 303.912H279.484V355.991H281.682V303.912Z" fill="#5A364D"/>
<path d="M247.249 303.912H245.051V355.991H247.249V303.912Z" fill="#5A364D"/>
<path d="M299.34 317.144H279.484V318.93H299.34V317.144Z" fill="#5A364D"/>
<path d="M295.305 303.125V303.921H305.45V294.047C299.84 294.047 295.305 298.091 295.305 303.125Z" fill="#5A364D"/>
<g style="mix-blend-mode:multiply" opacity="0.35">
<path d="M305.393 303.948H200.191V315.608H305.393V303.948Z" fill="#2C2334"/>
</g>
<path d="M200.191 303.125V303.921H210.337V294.047C204.726 294.047 200.191 298.091 200.191 303.125Z" fill="#D9807C"/>
</g>
<defs>
<linearGradient id="paint0_linear_4962_18058" x1="1.11829" y1="172.13" x2="378.352" y2="203.647" gradientUnits="userSpaceOnUse">
<stop stop-color="#C5E7E8"/>
<stop offset="1" stop-color="#DDEBEF"/>
</linearGradient>
<clipPath id="clip0_4962_18058">
<rect width="242" height="318" fill="white" transform="translate(72 38)"/>
</clipPath>
</defs>
</svg>
