<svg width="281" height="252" viewBox="0 0 281 252" fill="none" xmlns="http://www.w3.org/2000/svg">
<rect width="266" height="252" transform="translate(7.75)" fill="white"/>
<g clip-path="url(#clip0_13804_58961)">
<path d="M30.1661 144.039C18.0886 108.196 24.22 55.4081 78.7573 33.279C114.159 18.9169 131.077 39.6924 149.574 59.0314C164.872 75.028 187.059 83.5355 210.757 82.1468C226.771 81.2083 250.469 86.3032 256.638 122.542C266.192 178.653 213.917 233.986 112.341 216.351C70.4309 209.076 42.7612 181.415 30.1693 144.036L30.1661 144.039Z" fill="#E3E3FD"/>
<g clip-path="url(#clip1_13804_58961)">
<path d="M84.303 113.146C81.9635 111.578 79.8163 108.092 77.5088 105.469C76.6435 104.478 75.1052 101.471 74.1438 102.783C72.5734 104.926 74.8168 108.028 76.1628 109.244C77.669 110.555 80.3611 114.617 80.3611 114.617C80.3611 114.617 78.8869 114.169 76.9319 114.681C74.1117 115.416 73.6951 115.736 73.5348 116.92C73.3746 118.103 74.7206 119.447 74.1117 120.374C73.2785 121.653 74.8809 123.445 74.8809 123.445C74.8809 123.445 75.1372 125.364 76.8358 126.483C77.9254 127.219 79.1753 127.315 80.97 126.643C82.284 126.163 82.8288 129.522 84.8799 131.153C86.4823 132.432 88.6295 131.249 94.6545 138.029L101.224 132.08C96.5774 128.05 86.6105 114.745 84.2709 113.178L84.303 113.146Z" fill="white"/>
<path d="M91.5782 120.79C88.3734 116.952 85.6173 113.626 84.4635 112.89C82.9252 111.867 81.419 109.916 79.9768 108.029C79.2397 107.101 78.5026 106.11 77.7334 105.246C77.5412 105.022 77.3168 104.702 77.0604 104.351C76.4515 103.487 75.7785 102.527 75.1055 102.24C74.6568 102.048 74.2082 102.176 73.9197 102.591C72.2853 104.83 74.3363 107.965 76.0028 109.436C77.1245 110.428 78.9513 112.986 79.7525 114.17C79.1115 114.106 78.118 114.074 76.9322 114.362C74.2082 115.065 73.5031 115.417 73.3108 116.856C73.2147 117.464 73.471 118.04 73.6954 118.616C73.9518 119.255 74.1761 119.799 73.9197 120.183C73.0544 121.494 74.3363 123.189 74.6568 123.541C74.7209 123.957 75.1375 125.652 76.7079 126.708C76.9322 126.867 77.1566 126.963 77.3809 127.091C78.4385 127.539 79.6243 127.475 81.1305 126.899C81.2267 126.867 81.3228 126.867 81.419 126.899C81.7715 127.059 82.1561 127.731 82.5727 128.467C83.1175 129.426 83.7585 130.578 84.752 131.377C84.9763 131.569 85.2327 131.697 85.5532 131.857C85.8096 131.985 86.098 132.049 86.4185 132.177C86.771 132.305 87.1876 132.433 87.6683 132.625C88.9503 133.168 91.0654 134.352 94.4946 138.222C94.4946 138.254 94.5587 138.286 94.5907 138.286C94.6228 138.286 94.6548 138.286 94.6869 138.286C94.783 138.286 94.8471 138.286 94.9112 138.222L101.481 132.273C101.481 132.273 101.577 132.145 101.577 132.049C101.577 131.953 101.545 131.889 101.481 131.825C99.0454 129.714 95.1035 124.98 91.6103 120.79H91.5782ZM94.6869 137.582C91.2898 133.776 89.1426 132.593 87.8286 132.049C87.3479 131.825 86.9312 131.697 86.5467 131.569C85.9057 131.345 85.425 131.185 85.0724 130.897C84.1751 130.194 83.5662 129.106 83.0534 128.179C82.5407 127.283 82.1561 126.58 81.6113 126.356C81.3869 126.26 81.1305 126.26 80.8742 126.356C79.4961 126.867 78.4705 126.931 77.5732 126.548C77.3809 126.452 77.1886 126.356 76.9963 126.228C75.426 125.172 75.1696 123.413 75.1696 123.381C75.1696 123.317 75.1375 123.253 75.1055 123.221C75.1055 123.221 73.6633 121.59 74.3684 120.503C74.785 119.863 74.4966 119.095 74.2082 118.392C74.0159 117.88 73.7915 117.368 73.8556 116.92C73.9838 115.993 74.1441 115.673 76.9963 114.937C78.8551 114.458 80.2332 114.873 80.2652 114.873C80.3934 114.905 80.5216 114.873 80.5857 114.777C80.6498 114.681 80.6819 114.522 80.5857 114.426C80.4575 114.266 77.8296 110.332 76.3233 108.988C75.0414 107.869 72.8942 104.926 74.3363 102.943C74.4966 102.719 74.6248 102.719 74.785 102.783C75.2978 103.007 75.9708 103.935 76.4836 104.702C76.74 105.086 76.9963 105.406 77.1886 105.662C77.9257 106.525 78.6628 107.485 79.3999 108.413C80.8742 110.332 82.4125 112.315 84.0149 113.402C85.0724 114.106 87.9568 117.56 91.0013 121.206C94.3664 125.268 98.2122 129.842 100.68 132.081L94.5907 137.614L94.6869 137.582Z" fill="#000100"/>
<path d="M77.0284 117.782L74.2402 119.381C74.2402 119.381 75.2658 121.716 79.1756 120.724C84.3033 119.413 79.9127 115.511 77.0284 117.782Z" fill="white"/>
<path d="M74.5287 119.254L74.2402 119.382L74.5287 119.254Z" fill="#212121"/>
<path d="M80.7145 117.206C79.7851 116.694 78.2147 116.47 76.8687 117.526L77.2533 118.005C78.375 117.11 79.6569 117.302 80.426 117.717C81.0029 118.037 81.3234 118.517 81.2593 118.933C81.1952 119.541 80.394 120.052 79.1441 120.404C75.5547 121.332 74.5933 119.349 74.5612 119.253L74.2728 119.381L73.9844 119.509C73.9844 119.509 74.401 120.436 75.5868 120.948C76.388 121.3 77.6058 121.46 79.3044 121.012C81.3875 120.468 81.8041 119.541 81.8682 119.029C81.9643 118.357 81.5157 117.653 80.7145 117.206Z" fill="#000100"/>
<path d="M80.7136 120.759L74.8809 123.317C74.8809 123.317 76.6115 124.98 79.6881 124.181C83.7261 123.125 80.7136 120.727 80.7136 120.727V120.759Z" fill="white"/>
<path d="M80.9068 120.531L80.5222 121.011C80.8427 121.267 81.6118 122.066 81.4836 122.738C81.3875 123.25 80.7145 123.666 79.6249 123.954C76.7405 124.689 75.1702 123.218 75.1061 123.154L74.6895 123.602C74.6895 123.602 75.1381 124.018 75.8752 124.337C76.7405 124.721 78.0545 124.977 79.7851 124.561C81.1632 124.209 81.9323 123.634 82.0926 122.898C82.3489 121.747 80.9709 120.627 80.9068 120.595V120.531Z" fill="#000100"/>
<path d="M79.4645 112.953C78.5992 112.377 78.0223 109.626 77.4134 109.754C76.8045 109.85 75.3944 113.049 77.3814 114.648C81.5476 118.038 79.2722 123.156 85.9703 125.586L84.1435 116.855C84.1435 116.855 80.3298 113.528 79.4325 112.985L79.4645 112.953Z" fill="white"/>
<path d="M80.6505 119.35C80.0416 117.654 79.4006 115.863 77.5738 114.392C76.6445 113.656 76.6124 112.569 76.7085 111.801C76.8367 110.842 77.2854 110.138 77.4457 110.042C77.6059 110.17 77.8943 110.81 78.0866 111.226C78.4391 112.025 78.7917 112.857 79.3044 113.177C80.1377 113.72 83.9514 117.015 83.9835 117.047L84.368 116.599C84.368 116.599 80.4902 113.273 79.6249 112.697C79.2724 112.473 78.9199 111.641 78.6314 111.002C78.2148 110.042 77.9264 109.339 77.3495 109.435C76.8367 109.53 76.4201 110.394 76.1958 111.162C76.0035 111.865 75.7151 113.688 77.1572 114.872C78.8237 116.215 79.4006 117.846 80.0415 119.542C80.8428 121.78 81.708 124.115 85.2013 125.587C85.4256 125.683 85.65 125.778 85.8743 125.842L86.0666 125.267C82.2849 123.891 81.4837 121.684 80.6184 119.318L80.6505 119.35Z" fill="#000100"/>
<path d="M99.6869 125.907C98.5973 124.724 96.7065 124.756 95.6489 125.971C93.4696 128.498 89.752 132.592 85.7781 136.046C84.6564 137.006 84.5602 138.701 85.5537 139.788C90.7135 145.545 105.263 161.665 108.724 164.128C112.955 167.135 136.318 178.361 136.318 178.361L155.675 155.077C155.675 155.077 130.806 152.934 119.685 147.56L99.6869 125.875V125.907Z" fill="#FAA69D"/>
<path d="M136.318 178.68C136.318 178.68 136.222 178.68 136.19 178.68C135.228 178.232 112.763 167.422 108.564 164.415C105.103 161.952 91.1622 146.536 85.3294 140.043C84.7846 139.435 84.5282 138.668 84.5603 137.868C84.5923 137.069 84.9769 136.365 85.5858 135.821C89.4316 132.463 93.0851 128.497 95.4246 125.778C96.0014 125.138 96.8027 124.755 97.668 124.723H97.732C98.5653 124.723 99.3665 125.074 99.9434 125.682L119.909 147.304C130.902 152.581 155.483 154.724 155.739 154.756C155.867 154.756 155.963 154.852 155.995 154.948C156.027 155.044 155.995 155.172 155.963 155.268L136.606 178.552C136.606 178.552 136.446 178.68 136.35 178.68H136.318ZM97.7 125.362H97.668C96.9949 125.362 96.354 125.682 95.9053 126.194C93.5337 128.945 89.8803 132.943 86.0025 136.301C85.5217 136.717 85.2333 137.292 85.2012 137.9C85.1692 138.54 85.3615 139.116 85.7781 139.595C90.3289 144.649 105.392 161.409 108.885 163.871C112.827 166.686 133.786 176.793 136.19 177.976L155.002 155.332C151.124 154.948 129.588 152.709 119.493 147.847C119.461 147.847 119.429 147.815 119.397 147.783L99.3985 126.098C98.9499 125.618 98.3089 125.33 97.6359 125.33L97.7 125.362Z" fill="#000100"/>
<path d="M185.607 159.331C180.512 156.996 175.608 156.58 172.179 156.292C168.974 156.036 160.77 155.46 157.277 155.205C156.283 155.141 155.642 155.428 155.642 155.428C155.642 155.428 140.868 153.222 137.247 163.584C134.298 171.996 130.709 210.217 129.363 222.659C129.074 225.346 131.222 227.713 133.946 227.713H185.287C187.883 227.713 189.966 225.602 189.902 223.011C189.613 213.16 189.165 184.374 190.382 179.353C191.921 173.02 190.703 161.697 185.607 159.363V159.331Z" fill="#FAA69D"/>
<path d="M154.746 183.19C146.894 175.482 145.932 171.196 138.145 163.455C137.952 163.264 137.76 163.072 137.536 162.88C137.44 163.104 137.343 163.328 137.279 163.583C136.67 165.343 135.997 168.157 135.356 171.579C136.286 172.507 137.215 173.403 138.145 174.33C145.964 182.07 146.926 186.356 154.746 194.064C164.424 184.533 180.993 178.456 190.671 168.893C190.191 165.662 189.165 162.656 187.563 160.801C177.756 168.829 163.463 174.618 154.746 183.19Z" fill="white"/>
<path d="M185.319 228H133.978C132.568 228 131.222 227.392 130.293 226.369C129.363 225.345 128.915 223.97 129.075 222.595C129.267 220.931 129.459 218.82 129.716 216.358C130.87 205.099 132.825 186.293 134.747 174.043C134.747 173.883 134.94 173.723 135.132 173.787C135.292 173.787 135.42 173.979 135.388 174.139C133.465 186.357 131.511 205.163 130.357 216.39C130.1 218.852 129.876 220.963 129.716 222.627C129.588 223.81 129.972 224.993 130.773 225.889C131.575 226.785 132.76 227.296 133.978 227.296H185.319C186.505 227.296 187.595 226.849 188.396 225.985C189.197 225.153 189.614 224.066 189.614 222.914C189.357 213.191 188.845 184.31 190.094 179.16C191.633 172.795 190.383 161.761 185.512 159.522C180.352 157.155 175.256 156.771 172.212 156.515C168.109 156.195 155.803 155.3 155.675 155.3C155.515 155.3 155.354 155.14 155.386 154.948C155.386 154.788 155.547 154.66 155.707 154.66C155.707 154.66 168.174 155.556 172.244 155.876C175.32 156.131 180.512 156.547 185.768 158.946C191.12 161.377 192.274 172.827 190.703 179.32C189.582 184.022 189.902 210.728 190.255 222.914C190.287 224.226 189.806 225.473 188.877 226.433C187.947 227.392 186.665 227.936 185.319 227.936V228Z" fill="#000100"/>
<path d="M176.474 120.724C179.614 119.989 180.448 117.302 180.448 117.302C180.448 117.302 179.07 117.91 171.538 116.15C161.091 113.752 160.354 119.669 160.354 119.669C153.848 115.063 147.598 132.494 154.585 142.729C161.796 153.284 172.692 146.823 177.563 143.241C182.435 139.659 177.756 136.908 177.82 134.35C177.884 131.791 181.281 131.023 181.601 125.522C181.922 120.021 176.474 120.692 176.474 120.692V120.724Z" fill="black"/>
<path d="M181.889 125.556C181.986 123.925 181.601 122.645 180.736 121.782C179.934 120.95 178.877 120.598 177.98 120.471C180.063 119.383 180.672 117.496 180.704 117.4L180.896 116.76L180.287 117.016C180.287 117.016 180.063 117.08 179.39 117.08C178.268 117.08 175.96 116.856 171.538 115.865C169.871 115.481 168.333 115.289 166.955 115.289C161.827 115.289 160.449 118.104 160.097 119.191C159.456 118.807 158.783 118.615 158.11 118.615C156.347 118.615 154.649 119.959 153.335 122.422C150.514 127.667 150.098 136.782 154.264 142.891C156.924 146.825 160.385 148.809 164.487 148.809C168.589 148.809 172.852 147.017 177.659 143.499C181.216 140.876 179.934 138.574 178.909 136.718C178.46 135.887 178.012 135.119 178.044 134.384C178.044 133.456 178.62 132.752 179.293 131.857C180.319 130.546 181.633 128.882 181.825 125.556H181.889ZM177.531 134.384C177.531 135.279 177.98 136.111 178.492 137.038C179.55 138.957 180.543 140.748 177.403 143.051C172.788 146.442 168.333 148.233 164.583 148.233C160.834 148.233 157.405 146.346 154.841 142.604C150.803 136.655 151.187 127.827 153.943 122.741C155.161 120.502 156.668 119.255 158.206 119.255C158.879 119.255 159.552 119.479 160.193 119.959L160.609 120.247L160.674 119.735C160.674 119.735 161.218 115.897 167.051 115.897C168.365 115.897 169.839 116.089 171.474 116.472C176.73 117.688 179.005 117.784 179.967 117.72C179.582 118.487 178.556 119.959 176.409 120.471L176.505 121.078C176.505 121.078 176.698 121.078 177.018 121.078C177.819 121.078 179.326 121.238 180.319 122.262C181.056 123.029 181.377 124.149 181.313 125.588C181.12 128.722 179.902 130.29 178.909 131.569C178.172 132.497 177.563 133.296 177.531 134.448V134.384Z" fill="black"/>
<path d="M152.79 134.832C152.117 138.478 154.617 140.269 154.617 140.269L155.578 133.201C155.578 133.201 153.174 132.753 152.79 134.832Z" fill="white"/>
<path d="M152.47 134.797C151.764 138.571 154.296 140.458 154.392 140.522L154.745 140.042C154.745 140.042 152.405 138.315 153.046 134.925C153.367 133.165 155.386 133.485 155.482 133.517L155.546 133.229L155.61 132.942C154.681 132.782 152.822 132.942 152.47 134.829V134.797Z" fill="black"/>
<path d="M155.515 133.487L155.579 133.199L155.515 133.487Z" fill="#212121"/>
<path d="M174.839 135.887L174.23 142.987C174.23 142.987 177.051 141.772 177.211 138.094C177.275 135.983 174.839 135.887 174.839 135.887Z" fill="white"/>
<path d="M174.871 135.598V136.206C174.871 136.206 176.986 136.302 176.922 138.093C176.794 141.547 174.23 142.667 174.134 142.731L174.39 143.275C174.39 143.275 177.403 141.963 177.563 138.093C177.627 136.174 175.864 135.598 174.903 135.566L174.871 135.598Z" fill="black"/>
<path d="M168.814 150.406L158.238 149.062C158.398 150.726 157.854 154.884 157.854 154.884C159.36 156.259 160.77 156.675 161.86 156.803C164.648 157.091 169.327 155.459 169.327 155.459C168.686 152.709 168.846 150.374 168.846 150.374L168.814 150.406Z" fill="white"/>
<path d="M169.103 150.437V150.149L157.886 148.742V149.126C158.078 150.725 157.533 154.851 157.533 154.883V155.043L157.629 155.139C158.911 156.322 160.289 156.962 161.796 157.122C162.02 157.122 162.276 157.154 162.565 157.154C165.385 157.154 169.231 155.811 169.391 155.779L169.647 155.683L169.583 155.427C168.974 152.772 169.103 150.469 169.103 150.437ZM162.565 156.546C162.308 156.546 162.084 156.546 161.86 156.514C160.514 156.386 159.296 155.811 158.142 154.787C158.238 154.052 158.591 151.077 158.559 149.414L168.494 150.661C168.494 151.333 168.494 153.156 168.942 155.267C168.045 155.555 164.904 156.546 162.565 156.546Z" fill="#212121"/>
<path d="M163.591 123.954C163.591 123.954 157.373 122.227 155.963 128.784C155.354 131.599 154.489 137.292 154.265 140.234C154.04 143.177 153.367 147.431 155.194 149.574C157.662 152.42 160.995 153.412 164.776 153.572C165.834 150.821 169.135 152.612 170.737 151.173C173.846 148.39 173.942 143.241 174.551 140.234C175.096 137.452 175.16 131.087 174.871 128.848C174.583 126.609 170.128 122.291 163.559 123.954H163.591Z" fill="white"/>
<path d="M166.507 123.283C165.545 123.283 164.584 123.411 163.59 123.635C163.366 123.571 162.693 123.443 161.828 123.443C159.969 123.443 156.668 124.114 155.674 128.72C155.098 131.439 154.2 137.164 153.976 140.202C153.976 140.586 153.912 140.97 153.88 141.386C153.623 144.232 153.335 147.783 155.001 149.734C157.245 152.324 160.353 153.636 164.808 153.828H165.033L165.097 153.636C165.641 152.196 166.827 152.164 168.173 152.132C169.167 152.1 170.224 152.069 170.961 151.365C173.557 149.03 174.102 145.256 174.551 142.185C174.647 141.482 174.743 140.81 174.871 140.234C175.448 137.356 175.48 130.991 175.192 128.752C174.935 126.833 171.731 123.219 166.475 123.219L166.507 123.283ZM174.294 140.202C174.166 140.778 174.07 141.45 173.974 142.185C173.557 145.128 173.012 148.806 170.577 150.981C170 151.525 169.103 151.525 168.173 151.589C166.859 151.653 165.353 151.685 164.648 153.284C160.482 153.06 157.597 151.813 155.482 149.414C153.976 147.655 154.264 144.264 154.521 141.514C154.553 141.098 154.585 140.682 154.617 140.298C154.841 137.26 155.707 131.567 156.283 128.88C157.149 124.914 159.777 124.082 161.828 124.082C162.789 124.082 163.526 124.274 163.526 124.274H163.59H163.687C164.648 124.018 165.577 123.922 166.507 123.922C171.314 123.922 174.391 127.217 174.615 128.912C174.903 131.055 174.839 137.452 174.294 140.202Z" fill="black"/>
<path d="M166.251 139.852C165.129 139.052 163.462 138.604 161.732 138.892C160.45 139.084 159.488 139.788 157.79 139.788C156.444 139.788 155.29 139.436 154.393 138.86C154.329 139.404 154.265 139.884 154.265 140.236C154.04 143.178 153.367 147.432 155.194 149.575C157.662 152.422 160.995 153.413 164.776 153.573C165.834 150.822 169.135 152.614 170.737 151.174C173.59 148.615 173.91 144.106 174.391 141.067C173.525 141.547 172.468 141.867 171.218 141.867C168.943 141.867 167.661 140.875 166.219 139.852H166.251ZM165.321 144.777C164.328 144.777 163.302 144.681 162.341 144.394C161.379 144.106 160.482 143.626 159.617 143.082C159.04 142.73 158.751 141.899 159.136 141.291C159.52 140.715 160.322 140.428 160.963 140.811C161.347 141.035 161.732 141.259 162.116 141.483C162.213 141.547 162.309 141.579 162.405 141.611C162.405 141.611 162.469 141.611 162.501 141.643C162.693 141.707 162.886 141.771 163.046 141.835C163.238 141.899 163.43 141.963 163.623 141.995C163.719 141.995 163.815 142.027 163.911 142.059C163.943 142.059 164.039 142.059 164.103 142.059C164.167 142.059 164.232 142.059 164.264 142.059C164.36 142.059 164.488 142.059 164.584 142.059C164.84 142.059 165.065 142.059 165.321 142.059C166.026 142.059 166.667 142.666 166.635 143.37C166.635 144.106 166.058 144.649 165.321 144.681V144.777Z" fill="black"/>
<path d="M165.353 141.834H165.321C165.097 141.834 164.872 141.834 164.616 141.834C164.52 141.834 164.392 141.834 164.295 141.834C164.295 141.834 164.199 141.834 164.167 141.834H164.103C164.103 141.834 164.007 141.834 163.975 141.834C163.879 141.834 163.783 141.802 163.687 141.77C163.494 141.738 163.302 141.674 163.142 141.61C163.013 141.578 162.917 141.546 162.821 141.482C162.757 141.482 162.693 141.418 162.629 141.418H162.565C162.565 141.418 162.373 141.29 162.276 141.258C161.924 141.098 161.571 140.874 161.155 140.618C160.93 140.458 160.642 140.395 160.354 140.395C159.777 140.395 159.232 140.682 158.911 141.194C158.687 141.514 158.623 141.93 158.719 142.346C158.815 142.793 159.104 143.177 159.488 143.433C160.482 144.041 161.379 144.489 162.276 144.776C163.142 145.032 164.071 145.192 165.097 145.192C165.193 145.192 165.289 145.192 165.385 145.192C166.282 145.192 166.987 144.489 167.019 143.593C167.019 143.209 166.891 142.793 166.571 142.474C166.25 142.154 165.834 141.962 165.417 141.962L165.353 141.834ZM165.321 144.457C165.321 144.457 165.161 144.457 165.065 144.457C164.135 144.457 163.238 144.329 162.437 144.073C161.603 143.817 160.706 143.401 159.777 142.793C159.52 142.633 159.36 142.378 159.296 142.09C159.264 141.93 159.232 141.674 159.392 141.418C159.584 141.098 159.969 140.906 160.321 140.906C160.482 140.906 160.642 140.938 160.802 141.034C161.251 141.322 161.635 141.514 161.988 141.706C162.084 141.77 162.18 141.802 162.276 141.834L162.373 141.898C162.373 141.898 162.501 141.962 162.565 141.962C162.693 141.994 162.821 142.058 162.917 142.09C163.11 142.154 163.334 142.218 163.526 142.25C163.622 142.25 163.719 142.282 163.847 142.314C163.847 142.314 163.943 142.314 163.975 142.314H164.071C164.071 142.314 164.199 142.314 164.231 142.314C164.36 142.314 164.456 142.314 164.552 142.314C164.808 142.314 165.065 142.314 165.289 142.314C165.545 142.314 165.802 142.442 165.994 142.633C166.186 142.825 166.282 143.081 166.282 143.305C166.282 143.881 165.834 144.329 165.257 144.329L165.321 144.457Z" fill="black"/>
<path d="M171.25 141.546C169.199 141.546 167.949 140.682 166.667 139.755L166.443 139.595C165.193 138.699 163.398 138.316 161.7 138.572C161.155 138.667 160.674 138.827 160.225 138.987C159.52 139.243 158.815 139.467 157.822 139.467C156.604 139.467 155.514 139.179 154.585 138.604L154.168 138.348L154.104 138.827C154.04 139.403 153.976 139.851 153.976 140.235C153.976 140.619 153.912 141.002 153.88 141.418C153.623 144.265 153.335 147.815 155.001 149.766C157.245 152.357 160.354 153.668 164.808 153.86H165.033L165.097 153.668C165.641 152.229 166.827 152.197 168.173 152.165C169.167 152.133 170.224 152.101 170.961 151.397C173.557 149.062 174.102 145.288 174.551 142.218C174.615 141.834 174.679 141.45 174.711 141.098L174.807 140.491L174.262 140.81C173.365 141.322 172.372 141.546 171.218 141.546H171.25ZM173.974 142.154C173.557 145.096 173.012 148.775 170.577 150.949C170 151.493 169.103 151.493 168.173 151.557C166.859 151.621 165.353 151.653 164.648 153.252C160.482 153.028 157.597 151.781 155.482 149.382C153.976 147.623 154.264 144.233 154.521 141.482C154.553 141.066 154.585 140.651 154.617 140.267C154.617 140.011 154.649 139.723 154.713 139.339C155.642 139.819 156.7 140.075 157.854 140.075C158.911 140.075 159.713 139.819 160.45 139.531C160.898 139.371 161.347 139.211 161.828 139.147C163.366 138.923 165 139.275 166.122 140.075L166.346 140.235C167.725 141.226 169.039 142.154 171.282 142.154C172.307 142.154 173.237 141.962 174.07 141.61C174.07 141.802 174.006 141.962 173.974 142.154Z" fill="black"/>
<path d="M164.904 142.955C164.904 142.955 162.469 143.243 160.418 141.58C160.29 141.484 160.097 141.484 160.001 141.612C159.905 141.74 159.905 141.932 160.033 142.028C162.277 143.851 164.872 143.563 164.969 143.531C165.129 143.531 165.257 143.371 165.225 143.179C165.225 143.019 165.065 142.891 164.872 142.923L164.904 142.955Z" fill="black"/>
<path d="M211.15 154.211C210.445 152.004 209.163 152.068 209.163 152.068C208.97 150.373 207.272 150.021 207.272 150.021C205.734 147.43 203.779 149.765 203.779 149.765C204.163 148.294 205.573 141.449 205.413 140.586C205.157 139.242 204.099 139.53 203.715 140.138C203.074 141.161 200.349 148.454 199.773 151.364C199.388 153.283 196.568 150.821 195.638 149.861C192.209 146.343 189.806 148.39 190.767 149.317C192.337 150.853 194.036 154.627 195.062 155.97C196.151 157.377 196.279 160.384 197.978 161.791L194.132 172.186L204.452 177.176C204.452 177.176 206.471 166.077 209.067 163.135C210.509 161.503 209.9 158.561 209.9 158.561C209.9 158.561 211.791 156.482 211.118 154.275L211.15 154.211Z" fill="white"/>
<path d="M211.439 154.117C210.862 152.326 209.9 151.878 209.42 151.782C209.163 150.535 208.106 149.927 207.465 149.735C206.984 148.967 206.407 148.552 205.766 148.488C205.189 148.424 204.676 148.647 204.292 148.903C204.805 146.569 205.894 141.355 205.734 140.492C205.542 139.5 204.997 139.308 204.709 139.276C204.26 139.244 203.779 139.5 203.491 139.916C202.85 140.971 200.094 148.296 199.485 151.238C199.389 151.654 199.228 151.718 198.972 151.686C198.139 151.59 196.664 150.375 195.895 149.575C194.389 148.008 193.139 147.592 192.37 147.528C191.28 147.4 190.639 147.912 190.415 148.36C190.223 148.743 190.319 149.159 190.639 149.479C191.601 150.407 192.594 152.166 193.46 153.733C194.004 154.724 194.485 155.556 194.902 156.1C195.318 156.644 195.607 157.475 195.895 158.371C196.28 159.586 196.761 160.961 197.722 161.857L193.844 172.284L204.773 177.561L204.837 177.177C204.837 177.177 206.856 166.111 209.355 163.264C210.701 161.729 210.381 159.234 210.285 158.595C210.669 158.115 212.112 156.196 211.439 154.117ZM209.708 158.307L209.612 158.435V158.595C209.612 158.595 210.189 161.409 208.875 162.912C206.503 165.599 204.676 174.683 204.26 176.73L194.549 172.028L198.395 161.697L198.235 161.569C197.305 160.801 196.857 159.49 196.44 158.211C196.12 157.283 195.831 156.42 195.35 155.78C194.966 155.268 194.485 154.405 193.972 153.477C193.075 151.878 192.05 150.055 191.024 149.095C190.864 148.935 190.896 148.775 190.928 148.679C191.056 148.392 191.537 148.104 192.274 148.168C192.947 148.232 194.036 148.616 195.447 150.055C195.671 150.279 197.594 152.23 198.908 152.358C199.517 152.422 199.965 152.07 200.094 151.398C200.67 148.52 203.427 141.259 204.003 140.268C204.164 140.044 204.42 139.884 204.612 139.884C204.933 139.916 205.061 140.364 205.125 140.619C205.253 141.355 203.939 147.848 203.491 149.671L203.17 150.918L204.003 149.927C204.003 149.927 204.805 148.999 205.67 149.095C206.151 149.159 206.599 149.511 206.984 150.151L207.048 150.279H207.176C207.176 150.279 208.65 150.631 208.843 152.102V152.358H209.163C209.163 152.358 209.163 152.358 209.195 152.358C209.355 152.358 210.285 152.55 210.83 154.309C211.471 156.324 209.708 158.275 209.676 158.307H209.708Z" fill="black"/>
<path d="M205.381 163.2C205.381 163.2 205.061 163.2 204.997 163.36L203.042 168.381C203.042 168.381 203.042 168.701 203.202 168.765C203.202 168.765 203.266 168.765 203.298 168.765C203.427 168.765 203.555 168.701 203.619 168.573L205.574 163.552C205.574 163.552 205.574 163.232 205.414 163.168L205.381 163.2Z" fill="black"/>
<path d="M207.24 149.703C207.08 149.703 206.952 149.863 206.984 150.023C206.984 150.023 207.24 152.262 206.439 153.637C205.638 154.981 204.388 155.428 203.587 155.172C202.882 154.917 202.561 154.117 202.689 152.998C202.786 152.166 203.074 151.654 203.459 151.494C204.067 151.27 204.965 151.846 205.253 152.102C205.381 152.198 205.574 152.198 205.67 152.07C205.766 151.942 205.766 151.75 205.638 151.654C205.574 151.622 204.292 150.535 203.202 150.951C202.561 151.206 202.177 151.846 202.048 152.934C201.856 154.373 202.337 155.428 203.362 155.78C203.491 155.844 203.651 155.876 203.811 155.876C204.933 155.972 206.183 155.236 206.92 153.989C207.817 152.454 207.561 150.087 207.561 149.991C207.561 149.831 207.4 149.703 207.208 149.735L207.24 149.703Z" fill="black"/>
<path d="M209.13 151.942C208.97 151.942 208.842 152.134 208.874 152.294C208.874 152.294 209.227 154.533 208.425 155.908C207.624 157.252 206.246 157.7 205.381 157.412C204.676 157.188 204.323 156.548 204.419 155.685C204.419 155.525 204.323 155.365 204.131 155.365C203.971 155.365 203.81 155.461 203.81 155.621C203.682 156.772 204.195 157.668 205.188 157.987C205.349 158.051 205.509 158.083 205.669 158.083C206.759 158.179 208.137 157.636 208.97 156.196C209.867 154.661 209.515 152.294 209.483 152.198C209.483 152.038 209.291 151.91 209.13 151.942Z" fill="black"/>
<path d="M209.739 158.306C209.739 158.306 209.13 158.946 208.297 158.178C208.169 158.05 207.977 158.082 207.88 158.178C207.752 158.306 207.784 158.498 207.88 158.594C208.265 158.946 208.618 159.074 208.97 159.106C209.515 159.17 209.964 158.914 210.188 158.658C210.316 158.53 210.284 158.338 210.188 158.242C210.06 158.114 209.867 158.146 209.771 158.242L209.739 158.306Z" fill="black"/>
<path d="M200.285 154.723L206.182 159.776C205.06 155.746 200.285 154.723 200.285 154.723Z" fill="white"/>
<path d="M200.35 154.406L200.222 155.014C200.222 155.014 204.805 156.037 205.862 159.844L206.439 159.684C205.285 155.526 200.51 154.438 200.318 154.406H200.35Z" fill="black"/>
<path d="M211.502 170.843C203.394 167.741 201.76 165.182 198.939 162.751C197.561 161.568 195.35 162.431 194.677 164.095L189.646 176.664L180.352 188.85C180.352 196.814 184.902 213.03 198.843 206.698C208.554 202.284 211.983 180.055 212.816 173.562C212.944 172.474 212.56 171.195 211.534 170.811L211.502 170.843Z" fill="#FAA69D"/>
<path d="M211.599 170.62C205.061 168.125 202.817 166.014 200.638 163.967C200.125 163.487 199.645 163.04 199.1 162.592C198.459 162.048 197.594 161.856 196.696 162.08C195.671 162.336 194.805 163.103 194.389 164.063L189.357 176.633L189.838 176.825L194.87 164.255C195.19 163.455 195.927 162.816 196.792 162.592C197.497 162.4 198.203 162.592 198.715 163.008C199.228 163.455 199.709 163.903 200.222 164.383C202.433 166.462 204.74 168.605 211.374 171.132C212.272 171.483 212.624 172.635 212.496 173.594C211.663 180.215 208.234 202.188 198.683 206.538C194.549 208.425 190.96 208.425 188.011 206.538C182.595 203.116 180.576 194.096 180.576 188.915H180.031C180.031 194.224 182.114 203.436 187.723 206.986C189.293 207.977 191.024 208.457 192.883 208.457C194.741 208.457 196.76 207.977 198.908 206.986C208.714 202.54 212.208 180.343 213.009 173.626C213.137 172.475 212.752 171.068 211.535 170.588L211.599 170.62Z" fill="black"/>
<path d="M211.598 170.558C205.061 168.064 202.817 165.953 200.638 163.938C200.125 163.458 199.644 163.01 199.1 162.53C198.459 161.987 197.561 161.795 196.664 161.987C195.638 162.242 194.741 163.01 194.357 164.002L189.325 176.571L189.902 176.795L194.933 164.225C195.254 163.426 195.991 162.786 196.824 162.594C197.529 162.434 198.202 162.594 198.715 163.01C199.228 163.458 199.709 163.906 200.221 164.385C202.433 166.464 204.74 168.607 211.374 171.134C212.271 171.486 212.592 172.605 212.464 173.565C211.63 180.186 208.233 202.159 198.683 206.477C194.549 208.332 190.992 208.364 188.043 206.477C182.627 203.054 180.64 194.067 180.608 188.885H179.999C179.999 194.227 182.082 203.438 187.691 206.988C188.972 207.788 190.351 208.268 191.857 208.428C194.004 208.651 196.376 208.172 198.907 207.02C208.746 202.574 212.207 180.345 213.041 173.629C213.169 172.477 212.784 171.038 211.566 170.558H211.598Z" fill="black"/>
<path d="M162.373 156.869C162.373 156.869 164.841 158.884 165.898 161.538C166.539 161.762 171.763 157.508 172.212 156.325L169.167 154.598C169.167 154.598 166.219 156.325 162.373 156.869Z" fill="white"/>
<path d="M165.962 161.857C165.962 161.857 165.834 161.857 165.802 161.857C165.706 161.857 165.642 161.761 165.61 161.665C164.584 159.139 162.18 157.156 162.18 157.124C162.084 157.028 162.052 156.9 162.084 156.804C162.116 156.676 162.212 156.58 162.341 156.58C166.09 156.036 169.007 154.341 169.039 154.341C169.135 154.277 169.263 154.277 169.359 154.341L172.404 156.068C172.404 156.068 172.596 156.324 172.532 156.452C172.115 157.635 167.949 161.058 166.507 161.761C166.283 161.857 166.122 161.921 165.994 161.921L165.962 161.857ZM163.078 157.06C163.847 157.795 165.289 159.298 166.122 161.186C167.02 160.866 170.962 157.667 171.795 156.42L169.167 154.949C168.526 155.3 166.186 156.516 163.078 157.06Z" fill="#000100"/>
<path d="M157.565 153.859C156.123 153.859 155.642 155.075 155.642 155.075C154.969 157.729 155.803 160.64 155.803 160.64C157.245 158.945 160.994 156.77 160.994 156.77C159.328 156.29 157.597 153.891 157.597 153.891L157.565 153.859Z" fill="white"/>
<path d="M155.802 160.963C155.802 160.963 155.77 160.963 155.738 160.963C155.61 160.963 155.514 160.835 155.482 160.739C155.45 160.611 154.616 157.7 155.321 155.014C155.354 154.918 155.93 153.574 157.533 153.574C157.629 153.574 157.725 153.638 157.789 153.702C157.789 153.702 159.488 156.037 161.026 156.485C161.154 156.517 161.25 156.613 161.25 156.741C161.25 156.869 161.218 156.997 161.09 157.06C161.058 157.06 157.373 159.235 155.994 160.867C155.93 160.931 155.834 160.995 155.738 160.995L155.802 160.963ZM157.437 154.214C156.379 154.31 155.994 155.173 155.962 155.205C155.482 157.029 155.802 159.044 155.962 160.003C157.18 158.788 159.263 157.444 160.257 156.837C158.943 156.165 157.757 154.694 157.405 154.214H157.437Z" fill="#000100"/>
<path d="M162.405 128.113C162.405 128.113 160.706 127.601 158.976 128.433L159.264 129.04C160.77 128.305 162.18 128.752 162.18 128.752L162.373 128.113H162.405Z" fill="black"/>
<path d="M167.596 128.336L167.532 129.008C167.532 129.008 169.711 129.231 171.666 131.822L172.211 131.438C170.032 128.592 167.692 128.368 167.596 128.368V128.336Z" fill="black"/>
<path d="M168.654 132.429C168.109 132.365 167.596 132.717 167.532 133.261C167.436 133.805 167.821 134.316 168.366 134.38C168.91 134.444 169.423 134.093 169.487 133.549C169.583 133.005 169.199 132.493 168.654 132.429Z" fill="black"/>
<path d="M159.841 131.152C159.296 131.088 158.783 131.44 158.719 131.984C158.623 132.527 159.007 133.039 159.552 133.103C160.097 133.167 160.61 132.815 160.674 132.271C160.77 131.728 160.385 131.216 159.841 131.152Z" fill="black"/>
<path d="M162.821 134.895C162.277 134.958 161.924 135.15 161.764 135.47C161.475 136.014 161.892 136.686 161.956 136.75L162.501 136.398C162.501 136.398 162.277 135.95 162.373 135.758C162.437 135.598 162.725 135.566 162.885 135.566L162.821 134.895Z" fill="black"/>
<path d="M206.728 224.48C206.728 226.24 205.285 227.679 203.523 227.679H149.041V224.48H206.728Z" fill="#000100"/>
<path d="M203.522 227.998H149.04C148.848 227.998 148.72 227.87 148.72 227.678V224.48C148.72 224.32 148.848 224.16 149.04 224.16H206.727C206.919 224.16 207.047 224.288 207.047 224.48C207.047 226.431 205.477 227.998 203.522 227.998ZM149.361 227.359H203.522C204.996 227.359 206.214 226.239 206.374 224.8H149.361V227.359Z" fill="#000100"/>
<path d="M79.3036 182.902H149.906C150.963 182.902 151.86 183.478 152.181 184.342L166.571 225.058C166.795 225.665 166.667 226.337 166.218 226.849C165.769 227.36 165.064 227.68 164.327 227.68H93.7253C92.6677 227.68 91.7703 227.105 91.4499 226.241L77.0603 185.525C76.8359 184.885 76.9641 184.246 77.4128 183.734C77.8615 183.222 78.5665 182.902 79.3036 182.902Z" fill="#000100"/>
<path d="M164.296 228H93.6938C92.508 228 91.4825 227.328 91.13 226.336L76.7404 185.621C76.484 184.885 76.6442 184.117 77.157 183.51C77.6698 182.902 78.4389 182.582 79.3042 182.582H149.906C151.092 182.582 152.117 183.254 152.47 184.245L166.86 224.961C167.116 225.697 166.956 226.464 166.443 227.072C165.93 227.68 165.161 228 164.296 228ZM79.3042 183.222C78.6312 183.222 78.0223 183.478 77.6377 183.925C77.2532 184.373 77.157 184.917 77.3493 185.429L91.7389 226.145C91.9953 226.88 92.7965 227.36 93.6938 227.36H164.296C164.969 227.36 165.578 227.104 165.962 226.656C166.347 226.208 166.443 225.665 166.251 225.153L151.861 184.437C151.605 183.701 150.803 183.222 149.906 183.222H79.3042Z" fill="#000100"/>
<path d="M77.7019 182.902H148.304C149.361 182.902 150.259 183.478 150.579 184.342L164.969 225.058C165.193 225.665 165.065 226.337 164.616 226.849C164.168 227.36 163.463 227.68 162.725 227.68H92.0915C91.0339 227.68 90.1365 227.105 89.8161 226.241L75.4265 185.525C75.2021 184.885 75.3303 184.246 75.779 183.734C76.2277 183.222 76.9327 182.902 77.6698 182.902H77.7019Z" fill="white"/>
<path d="M162.693 228H92.0913C90.9055 228 89.88 227.328 89.5274 226.336L75.1378 185.621C74.8815 184.885 75.0417 184.117 75.5545 183.51C76.0672 182.902 76.8364 182.582 77.7017 182.582H148.304C149.489 182.582 150.515 183.254 150.867 184.245L165.257 224.961C165.513 225.697 165.353 226.464 164.84 227.072C164.328 227.68 163.558 228 162.693 228ZM77.7017 183.222C77.0287 183.222 76.4198 183.478 76.0352 183.925C75.6506 184.373 75.5545 184.917 75.7468 185.429L90.1363 226.145C90.3927 226.88 91.1939 227.36 92.0913 227.36H162.693C163.366 227.36 163.975 227.104 164.36 226.656C164.744 226.208 164.84 225.665 164.648 225.153L150.259 184.437C150.002 183.701 149.201 183.222 148.304 183.222H77.7017Z" fill="#000100"/>
<path d="M221.821 100.639C212.015 96.5772 200.766 101.215 196.696 111.002C192.626 120.789 197.273 132.016 207.079 136.078C216.886 140.14 228.135 135.502 232.205 125.715C236.275 115.928 231.628 104.701 221.821 100.639Z" fill="#8585F6"/>
<path d="M214.451 137.868C211.919 137.868 209.388 137.357 206.952 136.365C202.145 134.382 198.363 130.608 196.376 125.81C194.389 121.013 194.389 115.703 196.376 110.874C200.51 100.927 211.951 96.193 221.918 100.319C231.885 104.445 236.596 115.863 232.494 125.81C230.507 130.608 226.726 134.382 221.918 136.365C219.515 137.357 216.983 137.868 214.451 137.868ZM214.483 99.4873C207.08 99.4873 199.997 103.869 196.985 111.13C195.062 115.799 195.062 120.917 196.985 125.554C198.908 130.224 202.561 133.838 207.208 135.757C211.887 137.676 217.015 137.708 221.662 135.757C226.341 133.838 229.962 130.192 231.885 125.554C235.891 115.959 231.308 104.893 221.662 100.895C219.29 99.9031 216.855 99.4554 214.451 99.4554L214.483 99.4873Z" fill="#000100"/>
<path d="M223.236 107.873L203.996 127.074L205.696 128.77L224.935 109.569L223.236 107.873Z" fill="white"/>
<path d="M220.636 129.139C218.072 129.139 215.989 127.06 215.989 124.501C215.989 121.942 218.072 119.863 220.636 119.863C223.2 119.863 225.283 121.942 225.283 124.501C225.283 127.06 223.2 129.139 220.636 129.139ZM220.636 122.294C219.418 122.294 218.393 123.286 218.393 124.533C218.393 125.78 219.386 126.772 220.636 126.772C221.886 126.772 222.88 125.78 222.88 124.533C222.88 123.286 221.886 122.294 220.636 122.294Z" fill="white"/>
<path d="M208.265 116.822C205.701 116.822 203.618 114.743 203.618 112.185C203.618 109.626 205.701 107.547 208.265 107.547C210.829 107.547 212.912 109.626 212.912 112.185C212.912 114.743 210.829 116.822 208.265 116.822ZM208.265 109.946C207.047 109.946 206.022 110.937 206.022 112.185C206.022 113.432 207.015 114.423 208.265 114.423C209.515 114.423 210.509 113.432 210.509 112.185C210.509 110.937 209.515 109.946 208.265 109.946Z" fill="white"/>
<path d="M77.7658 75.2103C72.0612 66.2547 60.2035 63.632 51.23 69.2932C42.2565 74.9864 39.6286 86.8525 45.3011 95.8081C51.0057 104.764 62.8955 107.386 71.8369 101.725C80.8104 96.032 83.4383 84.1658 77.7658 75.2423V75.2103Z" fill="#6A6AF4"/>
<path d="M61.5813 105.019C55.1075 105.019 48.762 101.821 45.0445 95.9676C39.2758 86.8841 41.9678 74.7941 51.0695 69.0369C60.1711 63.2478 72.2533 65.9665 78.054 75.05C83.8226 84.1335 81.1306 96.2235 72.0289 101.981C68.7921 104.028 65.1706 105.019 61.5813 105.019ZM61.5172 66.6381C58.056 66.6381 54.5307 67.5977 51.422 69.5807C42.6088 75.1459 39.9809 86.8521 45.5893 95.6158C51.1977 104.411 62.8952 107.002 71.6764 101.437C80.4896 95.8397 83.0855 84.1655 77.5092 75.4018C73.8877 69.7406 67.7665 66.6381 61.5172 66.6381Z" fill="#000100"/>
<path d="M222.343 161.057C223.426 161.057 224.304 160.179 224.304 159.097C224.304 158.014 223.426 157.137 222.343 157.137C221.259 157.137 220.381 158.014 220.381 159.097C220.381 160.179 221.259 161.057 222.343 161.057Z" stroke="#2A5241" stroke-width="1.38" stroke-linecap="round" stroke-linejoin="round"/>
<path d="M97.9345 86.7834C99.0179 86.7834 99.8962 85.9059 99.8962 84.8234C99.8962 83.7408 99.0179 82.8633 97.9345 82.8633C96.851 82.8633 95.9727 83.7408 95.9727 84.8234C95.9727 85.9059 96.851 86.7834 97.9345 86.7834Z" stroke="#2A5241" stroke-width="1.38" stroke-linecap="round" stroke-linejoin="round"/>
</g>
<path d="M53.52 89.358V86.602H55.6C55.6 86.368 55.6 86.108 55.6 85.848C55.6 85.588 55.6 85.354 55.6 85.12H53.52V82.364H55.886C56.64 78.256 58.902 76.254 62.542 76.254C64.96 76.254 66.806 77.268 68.028 78.88L65.376 80.882C64.778 79.972 63.894 79.322 62.594 79.322C61.034 79.322 59.942 80.05 59.448 82.364H65.714V85.12H59.162C59.162 85.354 59.162 85.588 59.162 85.848C59.162 86.108 59.162 86.368 59.162 86.602H65.714V89.358H59.448C59.916 91.724 61.008 92.452 62.594 92.452C63.868 92.452 64.752 91.776 65.376 90.892L68.028 92.868C66.806 94.48 64.96 95.52 62.542 95.52C58.902 95.52 56.64 93.518 55.886 89.358H53.52Z" fill="white"/>
</g>
<defs>
<clipPath id="clip0_13804_58961">
<rect width="234" height="213" fill="white" transform="translate(23.75 28.5)"/>
</clipPath>
<clipPath id="clip1_13804_58961">
<rect width="192" height="162" fill="white" transform="translate(42 66)"/>
</clipPath>
</defs>
</svg>
