<svg width="281" height="252" viewBox="0 0 281 252" fill="none" xmlns="http://www.w3.org/2000/svg">
<rect width="266" height="252" transform="translate(7.25)" fill="white"/>
<g clip-path="url(#clip0_13807_43701)">
<path d="M29.6661 141.539C17.5886 105.696 23.72 52.9081 78.2573 30.779C113.659 16.4169 130.577 37.1924 149.074 56.5314C164.372 72.528 186.559 81.0355 210.257 79.6468C226.271 78.7083 249.969 83.8032 256.138 120.042C265.692 176.153 213.417 231.486 111.841 213.851C69.9309 206.576 42.2612 178.915 29.6693 141.536L29.6661 141.539Z" fill="#E3E3FD"/>
<path d="M189.239 132.349H96.8014C95.0185 132.349 93.5615 130.893 93.5615 129.112C93.5615 127.331 95.0185 125.875 96.8014 125.875H189.239C191.022 125.875 192.479 127.331 192.479 129.112C192.479 130.893 191.022 132.349 189.239 132.349Z" fill="#6A6AF4"/>
<path d="M189.239 188.634H96.8014C95.0185 188.634 93.5615 187.178 93.5615 185.397C93.5615 183.616 95.0185 182.16 96.8014 182.16H189.239C191.022 182.16 192.479 183.616 192.479 185.397C192.479 187.178 191.022 188.634 189.239 188.634Z" fill="#6A6AF4"/>
<path d="M144.07 231.838C177.913 231.838 205.349 229.106 205.349 225.737C205.349 222.368 177.913 219.637 144.07 219.637C110.227 219.637 82.791 222.368 82.791 225.737C82.791 229.106 110.227 231.838 144.07 231.838Z" fill="#F5F5FE"/>
<path d="M213.343 160.057C214.426 160.057 215.304 159.179 215.304 158.097C215.304 157.014 214.426 156.137 213.343 156.137C212.259 156.137 211.381 157.014 211.381 158.097C211.381 159.179 212.259 160.057 213.343 160.057Z" stroke="#2A5241" stroke-width="1.38" stroke-linecap="round" stroke-linejoin="round"/>
<path d="M88.9354 66.7834C90.0189 66.7834 90.8972 65.9059 90.8972 64.8234C90.8972 63.7408 90.0189 62.8633 88.9354 62.8633C87.852 62.8633 86.9736 63.7408 86.9736 64.8234C86.9736 65.9059 87.852 66.7834 88.9354 66.7834Z" stroke="#2A5241" stroke-width="1.38" stroke-linecap="round" stroke-linejoin="round"/>
<path d="M51.6991 149.041C52.7826 149.041 53.6609 148.164 53.6609 147.081C53.6609 145.999 52.7826 145.121 51.6991 145.121C50.6156 145.121 49.7373 145.999 49.7373 147.081C49.7373 148.164 50.6156 149.041 51.6991 149.041Z" stroke="#2A5241" stroke-width="1.38" stroke-linecap="round" stroke-linejoin="round"/>
<path d="M108.891 200.371C104.696 200.371 101.265 196.942 101.265 192.751V120.257C101.265 116.065 104.696 112.637 108.891 112.637C113.087 112.637 116.518 116.065 116.518 120.257V192.751C116.518 196.942 113.087 200.371 108.891 200.371Z" fill="white"/>
<path d="M138.53 120.257C138.53 116.048 135.115 112.637 130.903 112.637C126.691 112.637 123.276 116.048 123.276 120.257V192.751C123.276 196.959 126.691 200.371 130.903 200.371C135.115 200.371 138.53 196.959 138.53 192.751V120.257Z" fill="white"/>
<path d="M153.677 200.371C149.482 200.371 146.051 196.942 146.051 192.751V120.257C146.051 116.065 149.482 112.637 153.677 112.637C157.873 112.637 161.304 116.065 161.304 120.257V192.751C161.304 196.942 157.873 200.371 153.677 200.371Z" fill="white"/>
<path d="M176.228 200.371C172.033 200.371 168.602 196.942 168.602 192.751V120.257C168.602 116.065 172.033 112.637 176.228 112.637C180.423 112.637 183.855 116.065 183.855 120.257V192.751C183.855 196.942 180.423 200.371 176.228 200.371Z" fill="white"/>
<path d="M94.2712 191.439C92.4627 191.439 90.9834 189.961 90.9834 188.154V182.644C90.9834 180.837 92.4627 179.359 94.2712 179.359C96.0796 179.359 97.5589 180.837 97.5589 182.644V188.154C97.5589 189.961 96.0796 191.439 94.2712 191.439Z" fill="#6A6AF4"/>
<path d="M94.2712 134.974C92.4627 134.974 90.9834 133.496 90.9834 131.689V126.179C90.9834 124.373 92.4627 122.895 94.2712 122.895C96.0796 122.895 97.5589 124.373 97.5589 126.179V131.689C97.5589 133.496 96.0796 134.974 94.2712 134.974Z" fill="#6A6AF4"/>
<path d="M191.37 179.359H191.367C189.551 179.359 188.079 180.83 188.079 182.644V188.154C188.079 189.968 189.551 191.439 191.367 191.439H191.37C193.186 191.439 194.658 189.968 194.658 188.154V182.644C194.658 180.83 193.186 179.359 191.37 179.359Z" fill="#6A6AF4"/>
<path d="M191.37 135.392C189.561 135.392 188.082 133.914 188.082 132.107V126.597C188.082 124.791 189.561 123.312 191.37 123.312C193.178 123.312 194.658 124.791 194.658 126.597V132.107C194.658 133.914 193.178 135.392 191.37 135.392Z" fill="#6A6AF4"/>
<path d="M202.857 133.691H198.553C195.933 133.691 193.789 131.549 193.789 128.932C193.789 126.314 195.933 124.172 198.553 124.172H202.857C205.477 124.172 207.621 126.314 207.621 128.932C207.621 131.549 205.477 133.691 202.857 133.691Z" fill="#6A6AF4"/>
<path d="M194.658 126.598V132.108" stroke="#3D5931" stroke-width="1.57" stroke-linecap="round" stroke-linejoin="round"/>
<path d="M188.079 182.645V188.154" stroke="#3D5931" stroke-width="1.57" stroke-linecap="round" stroke-linejoin="round"/>
<path d="M97.5586 182.645V188.154" stroke="#3D5931" stroke-width="1.57" stroke-linecap="round" stroke-linejoin="round"/>
<path d="M97.5586 126.355V131.865" stroke="#3D5931" stroke-width="1.57" stroke-linecap="round" stroke-linejoin="round"/>
<path d="M106.195 80.0586C106.013 87.3658 113.327 85.9037 113.327 92.2979C113.327 98.6921 105.821 96.135 106.192 107.461" stroke="#6A6AF4" stroke-width="1.57" stroke-linecap="round" stroke-linejoin="round"/>
<path d="M127.344 80.0586C127.162 87.3658 134.475 85.9037 134.475 92.2979C134.475 98.6921 126.97 96.135 127.34 107.461" stroke="#6A6AF4" stroke-width="1.57" stroke-linecap="round" stroke-linejoin="round"/>
<path d="M148.492 80.0586C148.31 87.3658 155.624 85.9037 155.624 92.2979C155.624 98.6921 148.118 96.135 148.489 107.461" stroke="#6A6AF4" stroke-width="1.57" stroke-linecap="round" stroke-linejoin="round"/>
<path d="M169.558 80.0586C169.375 87.3658 176.689 85.9037 176.689 92.2979C176.689 98.6921 169.184 96.135 169.554 107.461" stroke="#6A6AF4" stroke-width="1.57" stroke-linecap="round" stroke-linejoin="round"/>
<path d="M51.3604 173.289L53.14 173.64" stroke="#4A2A1A" stroke-width="0.86" stroke-miterlimit="10" stroke-linecap="round"/>
<path d="M198.121 125.609V132.553" stroke="white" stroke-width="1.57" stroke-linecap="round" stroke-linejoin="round"/>
<path d="M200.703 125.609V132.553" stroke="white" stroke-width="1.57" stroke-linecap="round" stroke-linejoin="round"/>
<path d="M203.284 125.609V132.553" stroke="white" stroke-width="1.57" stroke-linecap="round" stroke-linejoin="round"/>
<g clip-path="url(#clip1_13807_43701)">
<path d="M83.6512 166.293H67.1239C48.0373 166.293 32.2725 181.086 32.2725 200.317V228.752H119.728V200.317C119.728 181.086 102.738 166.293 83.6512 166.293Z" fill="#FAA69D"/>
<path d="M119.728 228.999H32.2723C32.1089 228.999 32 228.89 32 228.725V200.29C32 190.976 35.6757 182.319 42.3465 175.882C48.9629 169.499 57.7574 165.992 67.1238 165.992H83.651C92.9629 165.992 102.193 169.581 109.027 175.854C116.106 182.374 120 191.031 120 200.29V228.725C120 228.89 119.891 228.999 119.728 228.999ZM32.5446 228.451H119.455V200.29C119.455 181.689 103.391 166.54 83.651 166.54H67.1238C47.7376 166.567 32.5446 181.388 32.5446 200.317V228.479V228.451Z" fill="#000100"/>
<path d="M95.9309 155.609C96.0126 155.062 96.1488 154.24 96.3394 153.199C97.5101 146.378 97.6463 139.447 96.8022 132.571C96.5844 130.653 96.3394 128.653 96.176 126.955C95.9854 124.763 95.6314 122.325 94.8691 119.531C91.1389 106.08 82.0993 104.766 77.4161 103.916C55.6067 99.9989 44.171 114.655 45.9681 129.667C46.1587 131.256 46.2676 132.653 46.2676 133.886C46.2948 135.612 46.1859 137.009 45.9681 138.214C45.9681 138.515 45.9681 138.844 45.9681 139.145C45.9681 139.447 45.9681 139.721 45.9681 139.995C45.9681 147.72 47.4384 154.596 47.7106 156.842C48.3369 161.636 44.6611 162.951 44.6611 162.951C45.8592 164.321 47.3567 165.444 49.0176 166.348C49.2354 166.485 49.4804 166.595 49.6983 166.704C49.9433 166.841 50.1884 166.951 50.4334 167.033C51.6587 167.608 52.9656 168.047 54.2725 168.403C54.2725 168.403 54.4359 168.457 54.5448 168.485C56.4235 169.005 58.3295 169.389 60.072 169.608C60.2898 169.526 60.4804 169.444 60.6983 169.389C77.0077 170.813 93.9978 165.526 93.9978 165.526C94.2156 165.417 94.4606 165.307 94.6785 165.17C96.3394 164.266 97.8369 163.143 99.0349 161.773C99.0349 161.773 95.3592 160.458 95.9854 155.664L95.9309 155.609Z" fill="black"/>
<path d="M84.6588 162.981C84.6588 162.981 91.139 186.923 87.1093 208.893H69.0573L67.832 165.912L84.6588 162.953V162.981Z" fill="white"/>
<path d="M87.3544 209.222H68.7307L66.2529 158.789L84.0871 159.09L84.1415 159.31C84.196 159.529 91.3841 187.17 87.3544 208.976L87.3 209.222H87.3544ZM69.3297 208.592H86.8371C90.5128 188.211 84.2777 161.967 83.6514 159.693L66.9064 159.419L69.3297 208.592Z" fill="black"/>
<path d="M69.3839 107.178C53.2378 109.123 52.3665 117.423 53.1834 122.573C54.0002 127.833 54.2452 137.558 55.8789 141.969C59.0646 150.488 63.0943 151.118 68.322 155.995C69.6289 157.2 73.1141 157.967 75.5646 157.748C78.9136 157.446 80.8195 155.858 81.9086 154.351C86.02 148.516 90.6215 144.763 91.0299 136.216C91.2477 131.531 89.1784 123.587 88.7428 118.273C88.3071 113.068 85.5299 105.205 69.3839 107.178Z" fill="white"/>
<path d="M89.1783 118.247C88.4431 109.289 81.5817 105.262 69.3293 106.741C62.2228 107.59 57.2946 109.782 54.708 113.261C52.8293 115.754 52.1758 118.931 52.7748 122.657C53.0471 124.465 53.2649 126.794 53.51 129.286C53.9456 133.943 54.4085 139.203 55.4976 142.134C57.8392 148.408 60.6708 150.517 63.9654 152.983C65.2723 153.969 66.6065 154.955 68.0496 156.297C69.3837 157.53 72.4877 158.215 74.7204 158.215C75.0199 158.215 75.3466 158.215 75.6189 158.187C79.2402 157.859 81.255 156.051 82.2624 154.599C83.1065 153.393 84.005 152.27 84.8491 151.175C88.0892 147.038 91.1387 143.121 91.4654 136.245C91.6015 133.396 90.9208 129.423 90.2402 125.561C89.7773 122.904 89.3416 120.383 89.1783 118.247ZM90.5941 136.19C90.2946 142.819 87.4357 146.435 84.1684 150.627C83.3243 151.722 82.4258 152.846 81.5545 154.078C80.6288 155.393 78.8317 157.01 75.5372 157.311C75.2649 157.311 74.9926 157.338 74.7204 157.338C72.3243 157.338 69.656 156.599 68.6486 155.667C67.1783 154.297 65.8169 153.284 64.4827 152.27C61.1609 149.777 58.5471 147.832 56.3144 141.806C55.2525 138.984 54.7897 133.779 54.3812 129.204C54.1634 126.711 53.9456 124.355 53.6461 122.52C53.1015 119.014 53.7005 116.082 55.4159 113.781C57.8664 110.521 62.5768 108.439 69.4654 107.618C71.1263 107.426 72.7055 107.316 74.1486 107.316C82.9704 107.316 87.7352 111.014 88.3342 118.329C88.5248 120.493 88.9604 123.041 89.4233 125.725C90.0768 129.533 90.7575 133.478 90.6213 136.217L90.5941 136.19Z" fill="black"/>
<path d="M80.6564 105.122C80.6564 105.122 67.5598 95.2599 56.696 104.19C45.8321 113.121 52.1762 130.462 52.1762 130.462C55.7158 127.202 59.092 126.106 59.092 126.106C58.1391 118.079 61.3247 115.039 61.3247 115.039C60.6168 119.312 61.5425 124.818 61.5425 124.818C63.6935 124.791 67.696 124.079 67.696 124.079L68.8123 121.339L70.0103 123.777L75.5376 123.12C75.1292 120.737 76.0549 117.614 76.0549 117.614C77.5797 120.49 77.8519 123.367 77.8519 123.367C86.4014 122.326 89.6415 125.12 89.6415 125.12C92.2009 105.944 80.6836 105.122 80.6836 105.122H80.6564Z" fill="black"/>
<path d="M80.8196 104.684C79.9755 104.054 74.0943 100 67.0424 100C63.0943 100 59.5275 101.288 56.4236 103.835C45.4508 112.848 51.7132 130.408 51.7676 130.599C51.8221 130.736 51.931 130.846 52.0671 130.873C52.0943 130.873 52.1488 130.873 52.176 130.873C52.2849 130.873 52.3939 130.846 52.4755 130.764C55.9062 127.614 59.2008 126.518 59.228 126.518C59.4186 126.463 59.5547 126.271 59.5275 126.052C58.9557 121.285 59.8815 118.327 60.6983 116.765C60.426 120.628 61.0795 124.682 61.1067 124.901C61.134 125.121 61.2973 125.285 61.5424 125.258C63.6934 125.23 67.5869 124.545 67.7503 124.518C67.8864 124.518 68.0226 124.408 68.077 124.244L68.8394 122.409L69.6018 123.997C69.6835 124.162 69.8468 124.271 70.0374 124.244L75.5646 123.587C75.5646 123.587 75.7825 123.504 75.8642 123.422C75.9458 123.313 75.9731 123.203 75.9458 123.093C75.7008 121.724 75.9458 120.053 76.1637 118.957C77.1711 121.313 77.3889 123.45 77.3889 123.477C77.3889 123.587 77.4434 123.696 77.5523 123.778C77.634 123.86 77.7701 123.888 77.879 123.86C79.1315 123.696 80.3295 123.641 81.4731 123.641C87.0547 123.641 89.3146 125.504 89.3419 125.532C89.4508 125.641 89.6414 125.669 89.7775 125.614C89.9137 125.559 90.0226 125.422 90.0498 125.258C91.0572 117.779 90.0498 112.136 87.1364 108.52C84.6043 105.397 81.5003 104.849 80.8196 104.767V104.684ZM89.2874 124.381C88.2255 123.778 85.8023 122.71 81.4731 122.71C80.4384 122.71 79.3493 122.765 78.2057 122.902C78.0696 121.97 77.634 119.697 76.4087 117.423C76.327 117.258 76.1637 117.176 75.9731 117.204C75.8097 117.204 75.6463 117.341 75.5919 117.505C75.5646 117.642 74.7478 120.381 74.9929 122.765L70.228 123.34L69.1661 121.176C69.0844 121.011 68.9211 120.902 68.7577 120.929C68.5943 120.929 68.431 121.039 68.3765 121.203L67.3419 123.724C66.525 123.86 63.6934 124.326 61.8691 124.408C61.6785 123.093 61.134 118.656 61.7057 115.149C61.733 114.957 61.6513 114.793 61.4879 114.683C61.3245 114.601 61.134 114.629 60.9978 114.766C60.8617 114.903 57.7577 117.971 58.6018 125.86C57.7033 126.216 55.1439 127.312 52.3666 129.75C51.3864 126.6 47.6018 112.273 56.9681 104.575C59.9087 102.164 63.2849 100.931 67.0424 100.931C74.2033 100.931 80.3295 105.479 80.4112 105.534C80.4929 105.588 80.5473 105.616 80.629 105.616C80.6562 105.616 83.8963 105.89 86.4557 109.04C89.1513 112.382 90.1043 117.532 89.2874 124.436V124.381Z" fill="black"/>
<path d="M69.8192 147.254L69.9281 148.103C70.2276 148.075 77.1435 147.034 81.391 143.884L80.8737 143.172C76.7895 146.213 69.8737 147.226 69.792 147.254H69.8192Z" fill="black"/>
<path d="M81.1189 128.6C80.0025 128.545 79.0496 129.422 78.9951 130.545C78.9951 130.929 79.0768 131.285 79.2402 131.613C81.5545 130.408 83.0248 130.846 83.0248 130.737C83.0793 129.614 82.208 128.655 81.0917 128.6H81.1189Z" fill="black"/>
<path d="M81.1462 128.16H81.0101C79.7031 128.16 78.614 129.201 78.5596 130.516C78.5596 130.954 78.6412 131.42 78.8591 131.804C78.9408 131.941 79.0769 132.023 79.2403 132.023C79.2947 132.023 79.3764 132.023 79.4309 131.968C80.4655 131.42 81.4729 131.146 82.4531 131.146C82.5893 131.146 82.7254 131.146 82.8071 131.146H82.9705C83.1883 131.146 83.4606 130.954 83.4878 130.708C83.515 130.05 83.2972 129.42 82.8616 128.927C82.4259 128.434 81.8269 128.133 81.1734 128.105L81.1462 128.16ZM82.4531 130.297C81.4729 130.297 80.4927 130.544 79.4853 131.009C79.4581 130.872 79.4309 130.708 79.4309 130.571C79.4581 129.722 80.166 129.064 81.0917 129.064C81.5274 129.064 81.9086 129.283 82.1809 129.585C82.3715 129.804 82.5076 130.05 82.562 130.324C82.5348 130.324 82.4804 130.324 82.4531 130.324V130.297Z" fill="black"/>
<path d="M73.9847 138.133C73.2224 138.133 72.5144 138.735 71.8338 139.859C71.7248 140.078 71.7793 140.324 71.9971 140.461C72.0788 140.489 72.1333 140.516 72.2149 140.516C72.3511 140.516 72.5144 140.434 72.5961 140.297C73.0862 139.475 73.5763 139.009 74.012 139.009C74.4748 139.009 74.8016 139.53 74.8288 139.53C74.9649 139.749 75.2372 139.804 75.4278 139.667C75.6184 139.53 75.7001 139.256 75.564 139.064C75.564 139.037 74.9649 138.133 74.012 138.133H73.9847Z" fill="black"/>
<path d="M75.2373 125.999L75.7546 126.711C75.7546 126.711 78.1507 125.013 80.5739 125.479C83.1333 125.999 85.4205 127.095 85.4477 127.095L85.8289 126.3C85.8289 126.3 83.4056 125.15 80.7373 124.629C77.9601 124.081 75.3462 125.917 75.2373 125.999Z" fill="black"/>
<path d="M63.8292 132.491C62.8762 133.066 62.5495 134.327 63.1212 135.285C63.1757 135.368 64.2648 134.272 66.8787 134.244C66.8787 133.888 66.797 133.505 66.6064 133.176C66.0346 132.217 64.7821 131.889 63.8292 132.464V132.491Z" fill="black"/>
<path d="M63.6113 132.107C63.0395 132.436 62.6583 132.984 62.495 133.641C62.3316 134.299 62.4405 134.956 62.7673 135.504C62.8489 135.641 62.9851 135.723 63.1484 135.723C63.2846 135.723 63.3935 135.669 63.5569 135.559C63.938 135.312 64.9727 134.71 66.9059 134.682C67.1509 134.682 67.3415 134.491 67.3415 134.244C67.3415 133.778 67.2326 133.34 67.0148 132.956C66.3341 131.833 64.7549 131.422 63.6385 132.107H63.6113ZM63.339 134.682C63.2574 134.408 63.2574 134.134 63.339 133.86C63.4479 133.45 63.693 133.093 64.0742 132.874C64.3192 132.737 64.5915 132.655 64.891 132.655C65.4628 132.655 65.9801 132.956 66.2524 133.422C66.3341 133.559 66.3885 133.696 66.4158 133.833C64.8638 133.943 63.8564 134.408 63.339 134.682Z" fill="black"/>
<path d="M57.2125 179.113C55.9872 198.7 79.8659 208.233 87.4897 208.233C91.6283 208.233 85.8288 194.18 72.5961 181.003C59.3635 167.827 57.4303 175.415 57.2125 179.113Z" fill="black"/>
<path d="M88.007 207.167C87.8709 207.523 87.6259 207.66 87.2447 207.66C82.1803 207.66 71.0169 203.578 64.1283 196.182C59.4452 191.168 57.2669 185.443 57.6754 179.142C57.8115 176.786 58.5466 173.992 61.1605 173.992C63.7744 173.992 67.4501 176.458 72.3239 181.306C83.5417 192.511 89.2323 204.29 88.0343 207.167H88.007Z" fill="black"/>
<path d="M62.3319 128.793C60.2353 130.519 58.7106 132.601 58.6289 132.683L59.3368 133.203C59.3368 133.203 60.8616 131.121 62.8764 129.478C64.7824 127.916 67.6685 128.272 67.6957 128.272L67.8046 127.396C67.8046 127.396 64.5101 126.985 62.3319 128.793Z" fill="black"/>
<path d="M88.9875 144.789C86.8637 145.09 65.8984 154.706 65.8984 154.706C65.8984 154.706 64.1286 151.008 61.188 147.857C58.2474 144.707 55.3068 147.035 56.7226 148.98C58.1385 150.925 59.5543 153.966 59.8538 157.034C60.1533 160.103 58.2474 164.677 58.4652 168.759C58.683 172.841 53.0469 195.825 53.0469 195.825L71.1533 206.728C71.1533 206.728 69.1657 175.772 71.7795 173.444C74.4206 171.088 79.7028 170.101 82.5345 167.033C85.3662 163.965 83.5147 162.239 83.5147 162.239C85.6385 159.993 84.2226 157.253 84.2226 157.253C86.0741 152.158 83.5692 152.377 83.5692 152.377C86.0196 151.172 89.2325 148.926 90.2399 147.665C91.8191 145.72 90.2399 144.625 88.9602 144.816L88.9875 144.789Z" fill="white"/>
<path d="M88.9064 144.353C86.8643 144.654 69.0029 152.79 66.0623 154.133C65.5178 153.092 63.9113 150.161 61.4608 147.531C60.4534 146.435 59.3099 145.832 58.2208 145.832C57.295 145.832 56.4782 146.298 56.097 147.038C55.743 147.723 55.8519 148.517 56.342 149.202C57.6217 150.928 59.092 153.914 59.3915 157.037C59.5277 158.461 59.1737 160.297 58.7653 162.214C58.3297 164.351 57.894 166.57 57.9757 168.734C58.1663 172.706 52.6391 195.443 52.5846 195.663L52.5029 195.964L71.5896 207.47L71.5351 206.648C70.7727 194.759 70.2282 175.309 72.0252 173.72C73.1688 172.706 74.8024 171.967 76.5722 171.145C78.8321 170.104 81.1737 169.035 82.8074 167.282C85.1762 164.734 84.4955 162.926 84.0326 162.214C85.6935 160.187 84.9311 157.858 84.6589 157.174C85.4212 155.009 85.5029 153.448 84.9039 152.599C84.8222 152.462 84.7133 152.352 84.6044 152.27C86.946 151.01 89.6143 149.065 90.5401 147.914C91.5203 146.709 91.3297 145.832 91.1391 145.421C90.7851 144.654 89.8049 144.216 88.8519 144.353H88.9064ZM89.9411 147.366C88.9608 148.572 85.8024 150.791 83.4064 151.941L81.7455 152.763H83.6514C83.6514 152.763 84.0599 152.79 84.2777 153.092C84.5227 153.448 84.795 154.462 83.8693 157.037L83.8148 157.201L83.8965 157.365C83.8965 157.365 85.149 159.886 83.2703 161.858L82.9707 162.187L83.2703 162.488C83.2703 162.488 84.7406 163.995 82.2628 166.679C80.7381 168.323 78.4782 169.337 76.3 170.35C74.4757 171.172 72.7604 171.967 71.5351 173.062C68.9757 175.336 70.3643 200.237 70.691 205.881L53.5648 195.553C54.2727 192.677 59.1193 172.542 58.9287 168.679C58.8198 166.652 59.2554 164.488 59.691 162.378C60.0995 160.379 60.4807 158.489 60.3173 156.927C59.9906 153.64 58.4386 150.489 57.1044 148.654C56.8049 148.243 56.7232 147.777 56.941 147.394C57.1589 146.955 57.6762 146.682 58.3024 146.682C59.1465 146.682 60.0722 147.175 60.9163 148.079C63.7752 151.147 65.545 154.79 65.545 154.845L65.7356 155.229L66.1168 155.064C71.9435 152.407 87.4089 145.421 89.097 145.175C89.696 145.093 90.295 145.339 90.4856 145.75C90.6762 146.134 90.4856 146.709 89.9955 147.312L89.9411 147.366Z" fill="black"/>
<path d="M75.9453 159.475L76.027 160.351C82.9156 159.803 84.7671 156.927 84.8216 156.817L84.0864 156.352C84.0864 156.352 82.3983 158.954 75.9453 159.475Z" fill="black"/>
<path d="M75.5918 164.377L75.6735 165.253C82.5621 164.706 84.4136 161.829 84.468 161.72L83.7329 161.254C83.7329 161.254 81.9903 163.884 75.5918 164.377Z" fill="black"/>
<path d="M57.3485 177.254L40.1406 228.728H79.8931L88.3337 207.415C52.2842 193.608 57.3213 177.254 57.3213 177.254H57.3485Z" fill="#FAA69D"/>
<path d="M79.8933 229H40.1409C40.1409 229 39.9775 228.973 39.923 228.89C39.8686 228.808 39.8686 228.726 39.8958 228.644L57.1037 177.17C57.1582 177.033 57.2943 176.951 57.4305 177.005C57.5666 177.06 57.6483 177.197 57.6211 177.334C57.5666 177.499 53.1285 193.634 88.4701 207.167C88.5518 207.167 88.6062 207.249 88.6334 207.304C88.6607 207.358 88.6607 207.441 88.6334 207.523L80.1928 228.808C80.1928 228.808 80.0567 228.973 79.9478 228.973L79.8933 229ZM40.5221 228.452H79.73L88.0072 207.578C69.4923 200.455 62.0592 192.62 59.0914 187.306C57.3216 184.128 56.8587 181.471 56.8315 179.663L40.5221 228.452Z" fill="#000100"/>
<path d="M57.4579 176.375C57.2129 176.293 56.9951 176.457 56.9134 176.676V176.731C56.8589 176.95 56.9951 177.17 57.2129 177.224C57.2129 177.224 57.2129 177.224 57.2401 177.224C57.2401 177.224 57.2946 177.224 57.3218 177.224C57.4852 177.224 57.6485 177.115 57.7302 176.95C57.7302 176.95 57.7302 176.896 57.7574 176.868C57.8119 176.622 57.6758 176.402 57.4579 176.32V176.375Z" fill="black"/>
<path d="M72.4875 101.262C72.4875 101.262 71.8341 101.317 70.8811 101.536C67.5593 102.275 67.4504 107.015 70.745 108.001C78.6682 110.357 90.8662 116.959 91.0024 135.149C91.0024 135.149 97.4826 104.001 72.5148 101.289L72.4875 101.262Z" fill="#FAA69D"/>
<path d="M91.0027 135.392C90.8666 135.392 90.7577 135.255 90.7577 135.118C90.6215 116.9 78.124 110.463 70.6908 108.244C68.8393 107.696 68.0497 106.025 68.1042 104.6C68.1586 102.929 69.2478 101.614 70.8814 101.258C71.8344 101.039 72.5151 100.984 72.5423 100.984C72.5423 100.984 72.5695 100.984 72.5968 100.984C79.077 101.697 84.0324 104.354 87.327 108.929C94.5695 118.982 91.3567 135.008 91.3294 135.173C91.3294 135.309 91.1933 135.392 91.0572 135.392H91.0027ZM72.4879 101.532C72.4879 101.532 71.7527 101.614 70.9359 101.779C69.275 102.162 68.6487 103.532 68.5943 104.628C68.5671 105.724 69.1116 107.203 70.7997 107.723C77.9879 109.86 89.7775 115.887 91.1388 132.269C91.7106 127.256 92.119 116.599 86.8096 109.257C83.5968 104.82 78.7775 102.217 72.4879 101.532Z" fill="#000100"/>
<path d="M68.0218 100.492C68.0218 100.492 68.757 100.547 69.7916 100.794C73.4401 101.615 73.549 106.793 69.955 107.889C61.2693 110.491 47.8461 117.751 47.7099 137.694C47.6827 137.694 40.5763 103.478 68.0218 100.492Z" fill="#FAA69D"/>
<path d="M47.6833 137.968C47.6833 137.968 47.4383 137.886 47.411 137.749C47.3838 137.585 43.8442 119.97 51.7947 108.958C55.4432 103.917 60.8615 100.986 67.968 100.219H68.0224C68.0224 100.219 68.7848 100.274 69.8467 100.52C71.6165 100.931 72.7873 102.356 72.8689 104.191C72.9234 106.054 71.8071 107.615 70.0373 108.163C61.8689 110.601 48.1189 117.696 47.9828 137.722C47.9828 137.859 47.8739 137.968 47.7378 137.996L47.6833 137.968ZM68.0224 100.767C61.0793 101.534 55.7972 104.383 52.2576 109.259C46.3219 117.477 46.8937 129.449 47.5472 134.818C48.9086 116.628 61.9506 109.971 69.8739 107.615C71.7526 107.067 72.3516 105.424 72.3244 104.191C72.2972 103.013 71.5892 101.451 69.7378 101.041C68.8392 100.849 68.1586 100.767 68.0224 100.767Z" fill="#000100"/>
<path d="M84.4681 217.496C84.4681 217.496 84.4409 217.496 84.4137 217.496C57.3221 212.044 51.9855 192.95 51.931 192.758C51.9038 192.621 51.9855 192.457 52.1216 192.43C52.2577 192.43 52.4211 192.484 52.4483 192.621C52.5028 192.813 57.785 211.606 84.5226 216.975C84.6587 217.002 84.7676 217.139 84.7404 217.304C84.7404 217.441 84.6043 217.523 84.4681 217.523V217.496Z" fill="#000100"/>
</g>
</g>
<defs>
<clipPath id="clip0_13807_43701">
<rect width="234" height="213" fill="white" transform="translate(23.25 26)"/>
</clipPath>
<clipPath id="clip1_13807_43701">
<rect width="88" height="129" fill="white" transform="translate(32 100)"/>
</clipPath>
</defs>
</svg>
